<svg width="285" height="191" viewBox="0 0 285 191" fill="none" xmlns="http://www.w3.org/2000/svg">
<path d="M146.902 58.4052C146.902 58.4052 148.479 63.7161 147.718 66.5883C146.957 69.5147 147.609 72.3869 135.543 72.7662C123.531 73.1456 108.639 71.845 102.986 75.0423C97.3336 78.2397 94.616 82.6293 100.432 83.4964C106.247 84.3634 115.868 84.7428 115.868 84.7428C115.868 84.7428 114.346 85.6099 116.248 88.0485C118.15 90.4872 114.726 93.3594 117.77 96.0148C120.814 98.6703 122.825 99.9167 121.683 102.572C120.542 105.228 124.836 106.637 125.379 109.78C125.868 112.923 123.586 113.953 130.216 116.066C136.793 118.234 139.945 120.347 141.359 120.347C142.772 120.347 144.076 110.593 147.881 109.726C151.685 108.858 150.381 103.656 154.512 104.144C158.643 104.631 163.425 108.208 162.556 114.494C162.556 114.494 174.622 114.169 175.002 122.19C175.383 130.264 180.22 137.201 180.329 138.827C180.438 140.453 190.764 148.69 190.764 148.69C190.764 148.69 196.471 147.985 199.787 153.296C203.102 158.607 238.594 185.053 248.595 189.226C258.596 193.399 280.662 182.885 280.662 182.885C280.662 182.885 285.989 162.943 283.326 161.317C280.662 159.691 252.671 141.97 239.627 137.093C226.582 132.161 199.787 120.185 191.743 113.465C191.743 113.465 189.514 119.914 184.677 119.426C179.84 118.938 171.578 117.475 171.959 111.622C172.339 105.769 176.579 100.459 176.579 100.459C176.579 100.459 167.991 93.0342 167.611 87.9401C167.23 82.846 163.425 79.3777 161.251 75.801C159.132 72.2785 156.631 63.1742 156.088 59.6517C155.653 56.2917 150.87 55.804 146.902 58.4052Z" fill="#0049E5"/>
<path d="M193.047 151.129C190.493 151.508 187.558 151.562 188.645 157.578C189.732 163.593 193.373 163.105 196.363 162.726C199.298 162.346 201.2 159.312 201.2 159.312L193.047 151.129Z" fill="#FAE058"/>
<path d="M169.241 82.5209C169.622 83.0086 171.524 90.3246 174.079 92.7633C176.633 95.1477 180.438 99.2122 180.438 99.2122C180.438 99.2122 178.427 105.769 176.144 109.292C173.861 112.814 181.036 121.269 186.634 116.283C192.232 111.297 193.7 104.252 193.102 102.084C192.449 99.9167 194.026 92.98 191.852 92.0046C189.678 90.9749 189.406 89.3491 183.373 88.6988C177.231 88.1027 169.241 82.5209 169.241 82.5209Z" fill="#FAE058"/>
<path d="M172.013 126.254C172.013 126.254 173.154 120.401 168.372 118.451C163.589 116.5 161.849 119.643 161.849 119.643C161.849 119.643 159.567 111.351 158.697 109.834C157.827 108.317 154.294 106.582 152.012 110.43C149.674 114.224 144.076 111.839 144.946 115.362C145.816 118.83 147.555 128.801 147.827 132.486C148.098 136.172 147.935 139.802 151.522 139.802C155.11 139.802 156.903 142.729 159.838 143.271C162.773 143.813 166.958 144.192 166.958 144.192C166.958 144.192 168.48 152.538 172.122 151.616C175.818 150.749 182.177 145.926 182.177 145.926L180.383 144.138C180.383 144.138 179.731 144.246 178.97 142.241C178.209 140.236 174.459 133.624 173.046 131.89C171.633 130.156 172.013 126.254 172.013 126.254Z" fill="#FAE058"/>
<path d="M87.1697 4.10436C89.072 5.2424 135.489 55.6414 140.761 59.1639C146.033 62.6865 146.468 67.7264 137.88 68.1057C129.347 68.4851 104.508 67.0219 102.225 70.0024C99.9424 73.0372 59.0155 45.1281 53.3629 34.8315C47.7103 24.5349 28.3066 6.38044 28.3066 6.38044C28.3066 6.38044 61.2439 -0.0684675 65.2659 0.690228C69.3423 1.44892 87.1697 4.10436 87.1697 4.10436Z" fill="#FAE058"/>
<path d="M143.152 122.244C142.065 122.298 140.924 122.298 139.837 122.19C138.75 122.081 137.608 121.811 136.576 121.377C134.456 120.51 132.825 118.884 130.814 118.125C129.782 117.746 128.749 117.475 127.662 117.204C127.118 117.096 126.575 116.933 126.031 116.771C125.488 116.608 124.89 116.337 124.455 115.849C124.238 115.578 124.075 115.253 124.02 114.928C123.966 114.603 123.966 114.332 123.912 114.061C123.857 113.519 123.749 112.977 123.64 112.489C123.422 111.406 123.096 110.376 122.716 109.346C122.335 108.317 121.901 107.341 121.303 106.474C121.14 106.257 120.977 106.04 120.814 105.932C120.759 105.824 120.65 105.77 120.542 105.715L120.161 105.444C119.563 105.011 119.292 104.361 119.183 103.764C118.911 102.572 119.02 101.434 118.857 100.459C118.803 100.35 118.803 100.242 118.748 100.134C118.694 100.025 118.639 99.9709 118.639 99.9167C118.639 99.8625 118.585 99.8625 118.585 99.8625C118.531 99.8625 118.531 99.8084 118.476 99.7542C118.313 99.6458 118.205 99.5916 118.096 99.4832C117.607 99.1039 117.172 98.7245 116.791 98.291C116.031 97.4239 115.378 96.3942 115.107 95.202C115.052 94.8768 114.998 94.6059 114.998 94.2265V93.9556L115.052 93.7388L115.107 93.3052C115.215 92.7633 115.324 92.2214 115.27 91.7879C115.27 91.3001 115.107 90.8666 114.835 90.4331C114.726 90.2163 114.563 89.9995 114.4 89.7827C114.346 89.6744 114.237 89.566 114.128 89.4034C114.02 89.295 113.965 89.1324 113.911 89.024C113.639 88.4821 113.476 87.8318 113.585 87.1815C113.693 86.5312 113.911 85.9893 114.346 85.4473L114.672 86.1518C112.933 86.206 111.139 86.206 109.4 86.206C107.66 86.206 105.867 86.1518 104.073 85.9351C102.334 85.7183 100.54 85.3932 98.9097 84.5803C98.0945 84.1467 97.3335 83.6048 96.8987 82.7377C96.79 82.5209 96.7357 82.3042 96.6813 82.0874C96.6269 81.8706 96.627 81.5997 96.627 81.3829C96.627 80.9494 96.627 80.5158 96.627 80.0281C96.6813 79.161 97.0074 78.1855 97.6053 77.5352C98.2032 76.8307 98.9097 76.2888 99.6707 75.8011C100.432 75.3133 101.138 74.8256 101.899 74.3921C102.28 74.1753 102.66 73.9585 103.04 73.7418C103.421 73.525 103.856 73.3624 104.236 73.1456C107.497 71.6824 111.139 71.3573 114.617 71.2489C116.357 71.1947 118.15 71.2489 119.89 71.3031C121.629 71.3573 123.422 71.3573 125.162 71.3573C128.695 71.3031 132.173 71.2489 135.652 70.9779C137.391 70.8696 139.13 70.6528 140.815 70.3818C141.685 70.2193 142.5 70.0567 143.261 69.7315C143.641 69.5689 144.022 69.4064 144.239 69.1896C144.348 69.027 144.511 68.9186 144.62 68.7561C144.728 68.5935 144.837 68.4309 144.946 68.2683C145.707 66.9135 145.652 65.1793 145.435 63.4452C145.326 62.5781 145.218 61.711 145.109 60.7898C145.054 60.3562 145.054 59.9769 144.946 59.6517C144.891 59.4891 144.783 59.3807 144.837 59.4349C144.891 59.4349 144.946 59.4349 144.946 59.4349C144.946 59.4349 144.891 59.4891 144.891 59.4349L144.022 59.3808C143.913 59.2724 143.913 59.2182 143.913 59.1098C143.913 59.0556 143.859 58.9472 143.859 58.893C143.859 58.7304 143.859 58.6221 143.859 58.4595C143.913 58.1885 144.022 57.9717 144.185 57.8092C144.457 57.4298 144.728 57.213 145.054 56.9963C145.652 56.5627 146.305 56.2918 146.902 56.075C148.098 55.5331 149.348 54.9912 150.761 54.7202C151.468 54.5576 152.175 54.5034 152.935 54.6118C153.642 54.7202 154.403 54.9912 154.947 55.2621C155.544 55.5331 156.251 55.8582 156.794 56.4002C157.338 56.9963 157.664 57.6466 157.882 58.2969C158.153 58.9472 158.316 59.5975 158.534 60.2478C158.697 60.8981 158.86 61.6026 158.969 62.253C159.186 63.6078 159.295 64.9084 159.458 66.209C159.784 68.8102 160.382 71.3031 161.686 73.525C162.338 74.6088 163.154 75.5843 164.078 76.5056C165.056 77.4268 165.926 78.5107 166.632 79.5946C168.154 81.8706 168.969 84.4719 169.73 86.9647C170.111 88.2112 170.546 89.4576 171.143 90.5956C171.741 91.7337 172.502 92.8175 173.317 93.793C175.002 95.7981 176.85 97.6948 178.807 99.429V99.4832H178.753C176.742 97.8032 174.785 96.0149 172.991 94.0098C172.122 93.0343 171.306 91.9504 170.654 90.7582C170.002 89.566 169.567 88.3195 169.132 87.0731C168.698 85.8267 168.317 84.5803 167.774 83.388C167.284 82.1958 166.687 81.0578 165.926 79.9739C165.219 78.8901 164.349 77.9146 163.425 77.0475C162.447 76.1262 161.523 75.0966 160.817 73.9043C159.403 71.5741 158.697 68.8644 158.316 66.2632C158.099 64.9626 157.99 63.6078 157.773 62.3613C157.664 61.711 157.555 61.1149 157.338 60.5188C157.175 59.8685 156.958 59.2724 156.74 58.6762C156.523 58.0801 156.251 57.5382 155.87 57.1589C155.49 56.7795 154.947 56.5085 154.349 56.2376C153.751 55.9666 153.207 55.7499 152.609 55.6415C152.012 55.5873 151.414 55.6415 150.816 55.7499C149.62 56.0208 148.424 56.5085 147.229 57.0505C146.631 57.3214 146.033 57.5382 145.544 57.8634C145.326 58.0259 145.109 58.1885 144.946 58.4053C144.891 58.5137 144.837 58.5679 144.837 58.6221V58.6762L144.783 58.6221L143.913 58.5679C144.076 58.4053 144.185 58.3511 144.457 58.2427C144.674 58.1885 145 58.1885 145.218 58.2969C145.326 58.3511 145.435 58.4595 145.489 58.5137C145.544 58.5679 145.598 58.6762 145.652 58.7304C145.707 58.893 145.815 59.0014 145.815 59.164C145.978 59.7059 145.978 60.1394 146.033 60.6272C146.087 61.4401 146.196 62.3071 146.305 63.2284C146.413 64.0955 146.468 65.0168 146.413 65.938C146.359 66.8593 146.142 67.8348 145.652 68.7019C145.544 68.9186 145.381 69.0812 145.218 69.298C145.054 69.4606 144.891 69.6773 144.728 69.8399C144.294 70.2193 143.859 70.3818 143.424 70.5444C142.554 70.8696 141.685 71.0321 140.761 71.1947C139.021 71.5199 137.228 71.6283 135.489 71.7366C131.956 71.9534 128.423 71.9534 124.89 71.8992C121.357 71.845 117.824 71.6283 114.346 71.5741C110.867 71.5741 107.28 71.8992 104.073 73.3082C103.693 73.4708 103.258 73.6876 102.877 73.8501C102.497 74.0669 102.116 74.2837 101.736 74.5005C100.975 74.934 100.214 75.4217 99.5076 75.9095C98.801 76.3972 98.0945 76.9391 97.5509 77.5894C97.0074 78.2397 96.7357 79.0526 96.6813 79.9197C96.6269 80.3532 96.6813 80.7868 96.6813 81.2203C96.6813 81.4371 96.7357 81.6539 96.7357 81.8164C96.79 82.0332 96.8444 82.1958 96.9531 82.4126C97.3335 83.1171 98.0401 83.659 98.801 84.0383C100.323 84.797 102.116 85.068 103.801 85.2306C105.541 85.3932 107.28 85.3931 109.019 85.339C110.758 85.2848 112.552 85.2306 114.291 85.1764C114.509 85.1764 114.726 85.339 114.726 85.5557C114.726 85.6641 114.672 85.7725 114.617 85.8267V85.8809C114.346 86.206 114.128 86.6938 114.074 87.1273C114.02 87.5608 114.128 88.0486 114.346 88.4821C114.4 88.5905 114.454 88.6989 114.509 88.8073C114.563 88.9157 114.617 89.024 114.726 89.1324C114.889 89.3492 115.052 89.6202 115.215 89.8911C115.487 90.4331 115.759 91.0292 115.759 91.6795C115.813 92.9259 115.27 94.0098 115.541 94.8768C115.813 95.8523 116.411 96.7736 117.063 97.5323C117.389 97.9116 117.77 98.291 118.15 98.6161C118.259 98.6703 118.368 98.7787 118.476 98.8329C118.531 98.8329 118.639 98.9413 118.694 98.9955C118.748 99.0497 118.857 99.1039 118.911 99.2122C119.02 99.3748 119.129 99.5374 119.183 99.7C119.237 99.8625 119.292 100.025 119.346 100.188C119.455 100.784 119.455 101.38 119.509 101.922C119.509 102.464 119.563 103.006 119.672 103.493C119.781 103.981 119.944 104.415 120.27 104.631L120.379 104.74L120.596 104.902C120.759 105.011 120.868 105.119 120.977 105.228C121.194 105.444 121.357 105.715 121.574 105.932C122.227 106.908 122.661 107.991 123.042 109.021C123.422 110.105 123.694 111.189 123.966 112.273C124.075 112.815 124.183 113.356 124.238 113.953C124.292 114.603 124.292 114.982 124.564 115.307C124.836 115.633 125.325 115.849 125.814 116.066C126.303 116.229 126.847 116.391 127.39 116.5C128.477 116.771 129.564 117.042 130.597 117.475C131.63 117.909 132.608 118.559 133.532 119.155C134.456 119.805 135.325 120.402 136.304 120.889C138.315 121.811 140.543 122.027 142.772 121.973C142.826 121.973 142.826 121.973 142.826 122.027C143.207 122.19 143.207 122.244 143.152 122.244Z" fill="black"/>
<path d="M159.892 70.0024C161.197 71.6282 162.61 73.1998 164.023 74.7172C165.436 76.2346 166.958 77.6978 168.534 78.9442C169.35 79.5945 170.219 80.0823 171.143 80.6242L173.806 82.25C175.6 83.3338 177.394 84.3635 179.242 85.1763C180.166 85.5557 181.144 85.935 182.122 86.1518C182.611 86.2602 183.101 86.3686 183.644 86.477C184.188 86.5854 184.677 86.6395 185.22 86.7479C187.286 87.1815 189.351 87.9944 190.982 89.4034C191.797 90.0537 192.504 90.8666 193.21 91.6253C193.971 92.384 194.351 93.522 194.406 94.5516C194.46 95.6355 194.351 96.6652 194.351 97.6948C194.351 98.1825 194.406 98.7245 194.515 99.2122C194.569 99.6999 194.732 100.188 194.895 100.73C195.439 102.843 195.004 105.065 194.243 107.07C193.536 109.075 192.504 110.972 191.362 112.706C190.764 113.573 190.221 114.44 189.514 115.307C189.188 115.741 188.808 116.12 188.427 116.5C187.992 116.879 187.612 117.204 187.123 117.529C186.199 118.125 185.166 118.613 184.025 118.776C182.938 118.992 181.742 118.938 180.655 118.667C178.481 118.125 176.524 116.825 175.274 115.036C174.622 114.115 174.133 113.085 173.915 112.002C173.698 110.918 173.806 109.726 174.241 108.696C174.459 108.154 174.785 107.72 175.111 107.287C175.437 106.908 175.763 106.474 176.089 106.095C176.687 105.282 177.285 104.415 177.774 103.493C178.752 101.705 179.459 99.6999 179.731 97.6406C179.731 97.5864 179.785 97.5864 179.785 97.5864C179.84 97.5864 179.84 97.6406 179.84 97.6406C179.731 99.7541 179.187 101.813 178.263 103.71C177.829 104.686 177.285 105.607 176.687 106.474C176.415 106.908 176.089 107.341 175.763 107.775C175.654 107.991 175.491 108.154 175.383 108.371C175.274 108.588 175.111 108.804 175.057 109.021C174.73 109.888 174.622 110.918 174.839 111.839C175.057 112.76 175.491 113.682 176.089 114.44C177.285 116.012 179.024 117.15 180.927 117.583C181.851 117.8 182.829 117.854 183.807 117.692C184.731 117.529 185.655 117.15 186.47 116.608C188.155 115.578 189.297 113.844 190.492 112.164C191.036 111.297 191.634 110.43 192.123 109.509C192.612 108.642 193.101 107.666 193.427 106.745C194.134 104.848 194.678 102.789 194.297 100.838C194.188 100.35 194.025 99.8083 193.971 99.2664C193.917 98.7245 193.862 98.1825 193.917 97.6406C193.917 96.5568 194.08 95.5271 194.025 94.5516C193.971 93.522 193.645 92.5465 192.938 91.7878C192.286 90.9749 191.525 90.2163 190.764 89.6201C189.134 88.3195 187.177 87.615 185.112 87.2899C184.622 87.1815 184.079 87.1273 183.59 87.0731C183.046 87.0189 182.503 86.9647 182.014 86.8563C180.981 86.6395 179.948 86.3686 178.916 85.9892C176.905 85.2305 175.057 84.1467 173.317 83.0086L170.654 81.3287C169.784 80.7868 168.86 80.1906 168.045 79.5403C166.415 78.1855 164.947 76.6139 163.588 75.0423C162.882 74.2295 162.284 73.4166 161.632 72.6037C160.979 71.7908 160.382 70.9237 159.784 70.0566V70.0024C159.838 70.0024 159.838 70.0024 159.892 70.0024Z" fill="black"/>
<path d="M179.024 106.311C178.59 106.853 178.155 107.395 177.72 107.937C177.339 108.479 176.905 109.075 176.959 109.617C177.013 110.105 177.448 110.538 177.937 110.972L179.459 112.273C180.492 113.14 181.47 114.115 182.666 114.766C183.264 115.091 183.862 115.362 184.514 115.416C185.166 115.524 185.818 115.307 186.144 114.82C186.307 114.603 186.416 114.278 186.579 113.953C186.688 113.627 186.797 113.357 186.905 113.031C187.068 112.435 187.177 111.785 187.177 111.189C187.123 109.942 186.579 108.804 185.764 107.829C184.949 106.853 183.916 106.149 182.72 105.715C182.122 105.499 181.47 105.39 180.818 105.499C180.111 105.499 179.459 105.77 179.024 106.311ZM178.97 106.257C179.405 105.715 180.057 105.336 180.709 105.173C181.416 104.957 182.122 104.902 182.829 105.011C184.296 105.173 185.655 105.986 186.634 107.07C187.123 107.612 187.558 108.262 187.829 108.967C188.101 109.671 188.21 110.43 188.21 111.189C188.21 111.947 188.047 112.652 187.775 113.357C187.666 113.682 187.503 114.007 187.286 114.332C187.177 114.495 187.123 114.657 187.014 114.766C186.905 114.928 186.797 115.091 186.688 115.199C186.416 115.47 186.036 115.687 185.655 115.795C185.275 115.849 184.894 115.849 184.568 115.795C183.862 115.633 183.209 115.362 182.612 115.091C181.361 114.495 180.166 113.79 179.024 113.031C178.481 112.598 177.937 112.218 177.394 111.731C177.122 111.46 176.85 111.189 176.687 110.864C176.47 110.538 176.361 110.105 176.415 109.671C176.47 109.238 176.687 108.859 176.905 108.588C177.122 108.317 177.394 108.046 177.666 107.829C178.046 107.233 178.535 106.799 178.97 106.257Z" fill="black"/>
<path d="M191.851 110.972C198.971 115.524 206.2 119.86 213.483 123.978L216.255 125.55C217.179 126.038 218.103 126.525 219.027 127.067C220.875 128.043 222.777 129.018 224.68 129.831L226.147 130.481C226.636 130.698 227.126 130.861 227.615 131.077L230.55 132.161C232.561 132.866 234.517 133.624 236.474 134.383C240.442 135.901 244.301 137.526 248.16 139.26C252.019 140.995 255.823 142.783 259.628 144.626C263.433 146.522 267.129 148.527 270.825 150.587C274.52 152.7 278.162 154.814 281.586 157.307C281.586 157.307 281.641 157.361 281.586 157.361C281.586 157.361 281.532 157.415 281.532 157.361C277.945 155.193 274.194 153.242 270.444 151.291C266.694 149.34 262.944 147.498 259.139 145.655C255.334 143.813 251.584 141.916 247.779 140.182C243.975 138.393 240.116 136.659 236.257 134.925C232.398 133.191 228.43 131.836 224.517 130.21C220.603 128.585 216.744 126.796 212.994 124.845C209.244 122.894 205.657 120.672 202.069 118.396C198.537 116.12 195.058 113.682 191.688 111.135C191.688 111.135 191.634 111.08 191.688 111.08C191.797 110.972 191.797 110.972 191.851 110.972Z" fill="black"/>
<path d="M144.62 59.2182C142.5 57.3756 140.489 55.4789 138.478 53.5279C136.467 51.577 134.51 49.6261 132.608 47.5668C130.706 45.5075 128.912 43.3939 126.955 41.3888C125.053 39.3837 123.042 37.3786 121.085 35.4818C119.074 33.5309 117.118 31.58 115.161 29.5749C113.204 27.5697 111.248 25.5646 109.4 23.5053C108.476 22.4756 107.497 21.446 106.628 20.4163C105.704 19.3867 104.78 18.3028 103.91 17.2732C102.986 16.1893 102.116 15.1055 101.247 14.0216C100.377 12.9378 99.562 11.7997 98.801 10.6617V10.6075H98.8554L100.214 12.1791C100.649 12.721 101.193 13.2087 101.627 13.6965C102.551 14.7261 103.53 15.7016 104.508 16.7312L110.269 22.8008L115.922 28.9245C117.824 30.9839 119.672 33.0432 121.52 35.1025C123.368 37.1618 125.27 39.2211 127.227 41.2263C128.205 42.2017 129.238 43.1772 130.216 44.1526L133.26 47.0248C135.271 48.9758 137.173 50.9809 139.076 53.0402C140.978 55.0453 142.88 57.1588 144.674 59.2724V59.3265C144.674 59.2182 144.674 59.2182 144.62 59.2182Z" fill="black"/>
<path d="M102.225 74.5004C95.105 70.5985 88.2023 66.4257 81.4627 61.9277C78.0929 59.6517 74.8318 57.3214 71.5163 54.9911L61.5155 48.1628C58.1457 45.8868 54.8846 43.5023 51.6779 41.0094C50.8626 40.4133 50.1017 39.7088 49.3407 39.0585C48.5798 38.4082 47.7645 37.7579 47.0579 37.0534C46.297 36.3489 45.5361 35.6444 44.8295 34.9399L42.7641 32.718C39.9922 29.7374 37.3833 26.6484 34.9375 23.4511C33.6874 21.8253 32.546 20.1995 31.4046 18.5196C30.2632 16.8396 29.2305 15.1054 28.2522 13.3171V13.2629H28.3065C29.3936 14.9428 30.5893 16.5686 31.7851 18.1944C32.9808 19.8202 34.2853 21.3918 35.5354 22.9091C38.0899 25.9981 40.8075 29.0329 43.5251 31.9593L45.5904 34.127C46.297 34.8315 47.0036 35.536 47.7645 36.2405C48.4711 36.945 49.232 37.5953 49.993 38.2456C50.7539 38.8959 51.5148 39.6004 52.2757 40.1966C55.3738 42.7436 58.5805 45.2365 61.7873 47.6751C63.4179 48.8674 64.9941 50.1138 66.679 51.2518L69.1792 52.986C69.9944 53.5821 70.8641 54.124 71.6793 54.6659C72.549 55.2079 73.3643 55.804 74.2339 56.3459L76.7884 57.9717L81.9519 61.169C88.8002 65.5044 95.5398 69.894 102.279 74.392C102.279 74.392 102.334 74.4462 102.279 74.4462C102.279 74.5004 102.225 74.5004 102.225 74.5004Z" fill="black"/>
<path d="M180.383 142.295C180.329 142.512 180.329 142.62 180.275 142.729C180.22 142.837 180.22 142.891 180.111 142.891C180.003 142.891 179.84 142.837 179.731 142.891C179.622 142.946 179.622 143.054 179.677 143.162C179.731 143.325 179.731 143.379 179.731 143.487C179.731 143.596 179.731 143.65 179.677 143.758C179.622 143.813 179.568 143.921 179.459 143.975C179.351 144.029 179.242 144.138 179.024 144.192C178.97 144.192 178.97 144.192 178.916 144.192C178.59 143.921 178.535 143.65 178.59 143.379C178.644 143.271 178.698 143.162 178.807 143.054C178.861 142.946 179.024 142.891 179.188 142.837C179.351 142.783 179.459 142.729 179.514 142.62C179.568 142.512 179.514 142.295 179.568 142.187C179.622 142.024 179.785 142.024 179.894 142.024C180.057 142.024 180.22 142.078 180.383 142.241C180.383 142.241 180.383 142.241 180.383 142.295Z" fill="black"/>
<path d="M184.785 146.035C182.666 148.527 180.329 150.803 177.448 152.538C175.98 153.351 174.296 153.892 172.556 153.838C170.817 153.838 169.078 153.134 167.828 151.887C167.23 151.237 166.741 150.532 166.415 149.72C166.197 149.34 166.088 148.907 165.98 148.527C165.871 148.094 165.762 147.714 165.708 147.281C165.436 145.709 165.001 144.138 164.567 142.566C163.697 139.423 162.664 136.334 161.903 133.191C161.523 131.619 161.251 129.994 161.197 128.314V123.436C161.251 121.81 161.251 120.131 161.686 118.505C161.903 117.692 162.284 116.825 163.099 116.174C163.48 115.849 163.969 115.687 164.458 115.578C164.675 115.524 164.947 115.524 165.164 115.524L165.817 115.578C167.502 115.687 169.241 116.12 170.708 117.15C172.176 118.18 173.154 119.697 173.752 121.269C174.948 124.466 175.057 127.826 174.839 131.132L174.73 130.861C175.383 131.782 175.926 132.649 176.47 133.624C177.013 134.546 177.502 135.521 177.937 136.497C178.861 138.448 179.513 140.507 179.785 142.675C179.785 142.729 179.785 142.729 179.731 142.729C179.676 142.729 179.676 142.729 179.676 142.675C179.459 141.645 179.133 140.615 178.752 139.64C178.372 138.664 177.883 137.689 177.394 136.768C176.904 135.846 176.361 134.925 175.763 134.004C175.165 133.137 174.567 132.215 173.969 131.403C173.915 131.348 173.861 131.24 173.861 131.132V128.747C173.806 127.934 173.752 127.121 173.643 126.363C173.48 124.791 173.154 123.219 172.556 121.756C172.013 120.293 171.143 118.992 169.893 118.125C168.697 117.204 167.175 116.825 165.599 116.662L165.001 116.608C164.838 116.608 164.675 116.608 164.512 116.608C164.186 116.662 163.86 116.771 163.643 116.987C163.099 117.367 162.773 118.071 162.556 118.776C162.121 120.239 162.012 121.865 161.903 123.49C161.795 125.116 161.74 126.742 161.632 128.368C161.577 129.939 161.795 131.565 162.121 133.137C162.773 136.334 163.914 139.369 165.001 142.458C165.545 143.975 166.034 145.547 166.415 147.173C166.795 148.69 167.447 150.153 168.48 151.237C169.513 152.321 170.98 152.917 172.556 152.971C174.078 153.025 175.654 152.646 177.013 151.887C178.426 151.183 179.731 150.207 180.981 149.178C182.231 148.148 183.481 147.064 184.622 145.98H184.677C184.785 145.98 184.785 146.035 184.785 146.035Z" fill="black"/>
<path d="M200.874 157.307C199.732 155.898 198.645 154.543 197.395 153.242C196.797 152.592 196.145 151.996 195.493 151.508C194.841 151.02 194.08 150.641 193.373 150.587C192.504 150.587 191.634 150.641 190.819 150.804C190.003 151.02 189.188 151.345 188.536 151.942C187.938 152.538 187.558 153.351 187.503 154.218C187.503 154.326 187.503 154.434 187.503 154.543V154.868C187.503 155.085 187.503 155.301 187.558 155.518L187.666 156.169L187.884 156.765C188.155 157.578 188.536 158.39 188.916 159.203C189.297 160.016 189.732 160.775 190.166 161.425C190.656 162.13 191.199 162.726 191.906 163.105C192.558 163.485 193.319 163.701 194.134 163.647C194.515 163.647 194.895 163.539 195.33 163.43C195.71 163.322 196.145 163.159 196.58 163.051C197.395 162.78 198.21 162.455 198.971 162.076C200.493 161.317 201.635 159.908 202.667 158.499C202.667 158.499 202.722 158.445 202.722 158.499C202.722 158.499 202.776 158.553 202.722 158.553C202.341 159.366 201.906 160.179 201.363 160.883C200.819 161.588 200.167 162.292 199.352 162.78C198.591 163.322 197.721 163.701 196.906 164.026C196.471 164.189 196.091 164.352 195.656 164.514C195.221 164.677 194.732 164.785 194.243 164.839C193.264 164.948 192.177 164.677 191.362 164.135C190.547 163.593 189.895 162.834 189.406 162.021C188.373 160.45 187.829 158.716 187.394 156.927C187.177 156.06 187.123 155.085 187.177 154.218C187.286 153.296 187.666 152.429 188.318 151.725C188.971 151.074 189.786 150.587 190.656 150.262C191.525 149.936 192.449 149.774 193.373 149.72C193.917 149.72 194.406 149.828 194.895 149.991C195.33 150.207 195.765 150.424 196.145 150.749C196.906 151.291 197.558 151.996 198.102 152.7C199.243 154.109 200.222 155.681 200.982 157.198V157.252C200.928 157.361 200.874 157.361 200.874 157.307Z" fill="black"/>
<path d="M187.666 154.705C187.775 154.651 187.829 154.651 187.884 154.651L188.047 154.597L188.373 154.543C188.59 154.489 188.862 154.434 189.079 154.434C189.569 154.38 190.003 154.326 190.493 154.272C191.417 154.218 192.341 154.163 193.319 154.272C193.536 154.326 193.754 154.326 194.026 154.38C194.352 154.434 194.623 154.651 194.786 154.814C195.167 155.247 195.33 155.735 195.439 156.169C195.656 157.09 195.71 158.065 195.384 159.095C195.221 159.583 194.895 160.07 194.46 160.396C194.025 160.721 193.482 160.883 192.938 160.938C192.395 160.992 191.851 160.883 191.362 160.721C190.873 160.558 190.384 160.287 190.003 159.962C189.188 159.312 188.59 158.499 188.21 157.578C187.775 156.71 187.612 155.735 187.666 154.705ZM187.721 154.814C188.047 155.627 188.427 156.494 188.916 157.198C189.406 157.957 190.003 158.553 190.656 159.041C190.982 159.312 191.362 159.474 191.743 159.637C192.123 159.745 192.504 159.854 192.884 159.854C193.645 159.854 194.406 159.528 194.895 158.824C195.113 158.445 195.276 158.011 195.276 157.578C195.33 157.144 195.276 156.656 195.113 156.277C194.949 155.843 194.732 155.464 194.406 155.247C194.243 155.139 194.08 155.085 193.917 155.085C193.699 155.085 193.482 155.085 193.265 155.085C192.341 155.139 191.417 155.085 190.493 155.03C190.003 155.03 189.569 154.976 189.079 154.922C188.862 154.922 188.59 154.868 188.373 154.814L188.047 154.76L187.884 154.705C187.829 154.814 187.721 154.868 187.721 154.814Z" fill="black"/>
<path d="M199.841 155.681C201.689 157.144 203.537 158.661 205.385 160.233C207.233 161.75 209.027 163.322 210.82 164.894L213.483 167.278C214.353 168.091 215.277 168.904 216.147 169.662C217.071 170.421 217.995 171.18 218.973 171.884C219.897 172.589 220.93 173.293 221.854 173.998C225.767 176.707 229.68 179.471 233.648 182.018C237.616 184.62 241.638 187.167 245.877 189.389C245.877 189.389 245.932 189.443 245.877 189.443C245.877 189.443 245.823 189.497 245.823 189.443C241.312 187.817 237.072 185.487 232.996 182.94C232.017 182.289 230.985 181.639 230.006 180.934L227.071 178.821C226.093 178.116 225.169 177.358 224.191 176.653C223.267 175.949 222.343 175.19 221.419 174.377C219.571 172.86 217.723 171.342 215.875 169.879C213.973 168.416 212.07 167.007 210.168 165.544C209.244 164.785 208.32 164.026 207.45 163.214C206.526 162.455 205.657 161.642 204.787 160.829C203.048 159.203 201.363 157.523 199.732 155.735V155.681C199.787 155.627 199.841 155.627 199.841 155.681Z" fill="black"/>
<path d="M180.437 142.241C180.981 142.458 181.47 142.783 181.905 143.054C182.34 143.379 182.829 143.704 183.209 144.138C183.59 144.571 183.916 145.059 184.296 145.438C184.677 145.818 185.166 146.143 185.655 146.414C186.144 146.685 186.633 146.956 187.068 147.281C187.503 147.606 187.992 147.877 188.427 148.256C189.297 148.961 190.058 149.72 190.819 150.587V150.641H190.764C189.623 150.37 188.644 149.774 187.72 149.124C187.286 148.798 186.851 148.419 186.416 148.04C185.981 147.66 185.601 147.281 185.275 146.793C184.894 146.36 184.514 145.98 184.079 145.655C183.644 145.33 183.101 145.113 182.611 144.788C182.122 144.463 181.742 144.084 181.361 143.65C180.981 143.217 180.655 142.783 180.329 142.295C180.329 142.295 180.329 142.241 180.437 142.241C180.383 142.241 180.383 142.241 180.437 142.241Z" fill="black"/>
<path d="M164.186 125.712C164.512 125.983 164.947 126.146 165.382 126.092C165.817 126.037 166.143 125.767 166.36 125.441C166.632 125.116 166.849 124.791 167.067 124.412C167.284 124.032 167.447 123.707 167.61 123.328C167.937 122.569 168.317 121.702 168.045 120.889C167.773 120.076 167.013 119.534 166.197 119.263C165.817 119.101 165.382 119.047 164.947 118.992C164.73 118.992 164.512 118.938 164.295 118.938C164.186 118.938 164.078 118.938 163.969 118.938H163.806C163.751 118.938 163.751 118.938 163.751 118.938C163.697 118.938 163.48 119.209 163.371 119.589C163.262 119.968 163.208 120.347 163.208 120.781C163.154 121.594 163.208 122.461 163.262 123.328C163.317 124.195 163.534 125.116 164.186 125.712ZM164.132 125.821C162.827 124.574 161.958 122.623 162.067 120.727C162.067 120.239 162.121 119.751 162.338 119.263C162.447 118.992 162.556 118.776 162.719 118.505C162.882 118.288 163.208 117.963 163.643 117.963C163.751 117.963 163.86 117.963 163.914 117.963H164.078C164.186 117.963 164.295 118.017 164.458 118.017C164.675 118.071 164.947 118.125 165.165 118.18C165.599 118.342 166.089 118.505 166.469 118.776C167.284 119.263 168.045 119.914 168.426 120.781C168.806 121.702 168.752 122.732 168.534 123.653C168.263 124.574 167.719 125.441 166.849 125.983C166.415 126.254 165.925 126.417 165.436 126.363C164.893 126.308 164.458 126.092 164.132 125.821Z" fill="black"/>
<path d="M161.469 122.894C161.36 120.022 161.143 117.096 160.599 114.332C160.49 113.627 160.327 112.923 160.11 112.273C159.947 111.568 159.729 110.918 159.403 110.268C158.86 109.021 158.099 107.829 156.903 107.287C156.305 107.016 155.653 107.016 154.946 107.016C154.24 107.07 153.588 107.179 152.935 107.449C152.283 107.72 151.74 108.154 151.305 108.696C150.87 109.238 150.544 109.888 150.327 110.538C149.892 111.893 149.783 113.356 149.783 114.765C149.783 116.229 149.946 117.638 150.109 119.101C150.816 124.845 151.794 130.535 153.207 136.117C153.37 136.822 153.588 137.526 153.751 138.177C153.968 138.881 154.186 139.477 154.512 140.073C155.164 141.266 156.197 142.241 157.338 143.054C157.881 143.488 158.479 143.867 159.132 144.192C159.784 144.571 160.382 144.734 161.088 144.788C162.501 144.951 163.969 144.897 165.382 144.788C165.436 144.788 165.436 144.788 165.436 144.842C165.436 144.842 165.436 144.897 165.382 144.897C159.729 147.064 152.664 142.458 152.066 136.388C151.305 133.57 150.816 130.698 150.381 127.826C149.946 124.954 149.674 122.027 149.511 119.155C149.403 117.692 149.403 116.229 149.403 114.765C149.457 113.302 149.566 111.839 150 110.43C150.218 109.726 150.49 109.021 150.979 108.425C151.414 107.829 152.011 107.287 152.718 106.908C153.425 106.528 154.131 106.366 154.892 106.257C155.055 106.203 155.273 106.203 155.436 106.203C155.599 106.203 155.816 106.203 156.034 106.203C156.251 106.203 156.414 106.203 156.631 106.257C156.849 106.311 157.012 106.311 157.229 106.42C157.99 106.691 158.642 107.233 159.132 107.829C159.621 108.425 160.001 109.129 160.273 109.834C160.871 111.243 161.197 112.706 161.414 114.115C161.849 117.042 161.849 119.968 161.523 122.84C161.577 122.894 161.577 122.949 161.469 122.894C161.523 122.949 161.469 122.894 161.469 122.894Z" fill="black"/>
<path d="M151.74 108.913C152.338 108.479 153.044 108.262 153.751 108.154C154.457 108.046 155.273 108.154 155.979 108.533C156.142 108.642 156.305 108.75 156.468 108.913C156.577 109.075 156.74 109.184 156.849 109.346C157.066 109.671 157.229 109.997 157.338 110.376C157.555 111.08 157.61 111.839 157.555 112.544C157.501 113.248 157.284 113.953 156.849 114.549C156.631 114.82 156.36 115.145 155.979 115.307C155.653 115.524 155.218 115.578 154.892 115.687C154.186 115.849 153.479 115.849 152.718 115.795C152.012 115.741 151.305 115.633 150.544 115.362C150.327 115.307 150.218 115.145 150.164 114.928C150.055 114.386 150.055 113.844 150.109 113.302C150.164 112.76 150.218 112.273 150.327 111.731C150.435 111.189 150.598 110.701 150.816 110.213C150.924 109.997 151.033 109.726 151.196 109.509C151.359 109.346 151.577 109.129 151.74 108.913ZM151.794 109.021C151.74 109.292 151.631 109.455 151.577 109.726C151.522 109.942 151.468 110.213 151.414 110.43C151.305 110.918 151.251 111.406 151.251 111.893C151.251 112.381 151.251 112.869 151.251 113.356C151.251 113.844 151.305 114.332 151.359 114.765L150.979 114.332C151.522 114.494 152.229 114.657 152.827 114.765C153.479 114.874 154.131 114.874 154.783 114.874C155.11 114.874 155.436 114.874 155.707 114.765C156.034 114.711 156.251 114.494 156.468 114.332C156.903 113.898 157.121 113.194 157.121 112.544C157.121 111.893 156.849 111.243 156.577 110.701C156.523 110.538 156.414 110.43 156.305 110.322C156.251 110.213 156.142 110.051 156.034 109.942C155.87 109.726 155.653 109.509 155.436 109.346C154.566 108.75 153.099 108.804 151.794 109.021Z" fill="black"/>
<path d="M149.892 111.947C149.076 111.839 148.261 111.893 147.555 112.164C146.848 112.435 146.196 112.869 145.707 113.411C145.272 113.953 144.946 114.711 144.728 115.416C144.511 116.174 144.402 116.933 144.293 117.746C144.185 118.505 144.13 119.318 144.13 120.13C144.13 120.51 144.13 120.943 144.185 121.323C144.239 121.702 144.293 122.136 144.348 122.515C144.511 123.328 144.783 124.087 144.946 124.899C145.163 125.712 145.38 126.471 145.544 127.284C145.978 128.856 146.304 130.481 146.576 132.107L147.011 134.492C147.174 135.25 147.283 136.117 147.5 136.822C147.935 138.285 148.805 139.64 150 140.507C150.598 140.94 151.359 141.211 152.12 141.266C152.881 141.32 153.696 141.211 154.457 140.94C154.512 140.94 154.512 140.94 154.512 140.995V141.049C153.805 141.482 152.99 141.753 152.12 141.808C151.251 141.862 150.327 141.645 149.566 141.211C147.989 140.344 146.902 138.827 146.359 137.147C146.304 136.93 146.25 136.713 146.196 136.497L146.087 135.901C146.033 135.467 145.924 135.088 145.87 134.654L145.544 132.215C145.326 130.59 145.163 128.964 144.946 127.338C144.837 126.525 144.728 125.712 144.565 124.954C144.402 124.141 144.13 123.382 143.967 122.569C143.587 120.943 143.315 119.318 143.369 117.638C143.424 116.825 143.533 115.958 143.804 115.145C144.076 114.332 144.402 113.519 145.054 112.815C146.359 111.514 148.37 111.135 149.892 111.839C149.946 111.839 149.946 111.893 149.946 111.893C149.946 111.947 149.946 111.947 149.892 111.947Z" fill="black"/>
<path d="M145 113.573H145.054H145.109H145.163L145.272 113.519L145.544 113.465C145.707 113.465 145.87 113.411 146.033 113.411C146.359 113.356 146.739 113.356 147.065 113.411C147.392 113.411 147.772 113.465 148.098 113.573C148.207 113.573 148.261 113.627 148.37 113.627C148.424 113.627 148.424 113.627 148.533 113.682C148.642 113.736 148.696 113.79 148.75 113.844C148.968 114.061 149.022 114.278 149.076 114.494C149.24 115.307 149.022 115.958 148.913 116.662C148.75 117.312 148.642 118.017 148.316 118.667C148.152 118.992 147.826 119.372 147.337 119.48L147.174 119.534H147.065C146.957 119.534 146.902 119.534 146.794 119.534C146.631 119.534 146.413 119.534 146.196 119.534C145.815 119.534 145.272 119.318 144.946 118.884C144.62 118.505 144.511 118.125 144.457 117.746C144.348 116.987 144.348 116.337 144.457 115.633C144.511 115.307 144.565 114.982 144.62 114.603C144.783 114.224 144.891 113.844 145 113.573ZM145.054 113.627C145.381 114.874 145.381 116.337 145.652 117.475C145.707 117.746 145.815 118.017 145.924 118.18C146.033 118.342 146.141 118.396 146.413 118.505C146.522 118.559 146.685 118.559 146.848 118.559H147.283C147.5 118.559 147.718 118.451 147.935 118.288C148.37 117.854 148.642 117.204 148.696 116.554C148.75 115.903 148.587 115.199 148.37 114.765C148.316 114.657 148.261 114.549 148.207 114.549C148.261 114.603 148.098 114.494 147.935 114.44C147.663 114.332 147.337 114.278 147.011 114.224C146.685 114.169 146.359 114.061 146.033 114.007C145.87 113.953 145.707 113.898 145.544 113.844L145.272 113.79L145.163 113.736L145.054 113.627C145.054 113.682 145.054 113.682 145.054 113.627Z" fill="black"/>
<path d="M185.003 53.0944C187.555 53.0944 189.623 51.032 189.623 48.488C189.623 45.944 187.555 43.8817 185.003 43.8817C182.452 43.8817 180.383 45.944 180.383 48.488C180.383 51.032 182.452 53.0944 185.003 53.0944Z" fill="#FAE058"/>
<path d="M80.4301 117.854C83.0116 117.854 85.1044 115.768 85.1044 113.194C85.1044 110.62 83.0116 108.533 80.4301 108.533C77.8486 108.533 75.7559 110.62 75.7559 113.194C75.7559 115.768 77.8486 117.854 80.4301 117.854Z" fill="#0049E5"/>
<path d="M149.783 178.333C150.293 178.333 150.707 177.921 150.707 177.412C150.707 176.903 150.293 176.491 149.783 176.491C149.273 176.491 148.859 176.903 148.859 177.412C148.859 177.921 149.273 178.333 149.783 178.333Z" fill="#0049E5"/>
<path d="M5.85935 79.9197C8.59096 79.9197 10.8054 77.7118 10.8054 74.9882C10.8054 72.2646 8.59096 70.0566 5.85935 70.0566C3.12774 70.0566 0.91333 72.2646 0.91333 74.9882C0.91333 77.7118 3.12774 79.9197 5.85935 79.9197Z" fill="#0049E5"/>
<path d="M45.5906 110.972C47.1816 110.972 48.4713 109.686 48.4713 108.1C48.4713 106.513 47.1816 105.228 45.5906 105.228C43.9997 105.228 42.71 106.513 42.71 108.1C42.71 109.686 43.9997 110.972 45.5906 110.972Z" fill="#77F169"/>
<path d="M65.7009 76.8307C66.8416 76.8307 67.7663 75.9087 67.7663 74.7713C67.7663 73.634 66.8416 72.712 65.7009 72.712C64.5602 72.712 63.6355 73.634 63.6355 74.7713C63.6355 75.9087 64.5602 76.8307 65.7009 76.8307Z" fill="#77F169"/>
<path d="M97.1705 170.53C99.9621 170.53 102.225 168.273 102.225 165.49C102.225 162.706 99.9621 160.45 97.1705 160.45C94.3788 160.45 92.1157 162.706 92.1157 165.49C92.1157 168.273 94.3788 170.53 97.1705 170.53Z" fill="#FAE058"/>
<path d="M111.683 138.339C114.924 138.339 117.553 135.719 117.553 132.486C117.553 129.254 114.924 126.634 111.683 126.634C108.441 126.634 105.812 129.254 105.812 132.486C105.812 135.719 108.441 138.339 111.683 138.339Z" fill="#0049E5"/>
<path d="M146.359 40.5217C147.77 40.5217 148.914 39.3814 148.914 37.9747C148.914 36.568 147.77 35.4276 146.359 35.4276C144.948 35.4276 143.804 36.568 143.804 37.9747C143.804 39.3814 144.948 40.5217 146.359 40.5217Z" fill="#0049E5"/>
<path d="M213.484 110.864C215.044 110.864 216.31 109.602 216.31 108.046C216.31 106.489 215.044 105.228 213.484 105.228C211.923 105.228 210.657 106.489 210.657 108.046C210.657 109.602 211.923 110.864 213.484 110.864Z" fill="#F089C0"/>
<path d="M240.116 70.0566C241.076 70.0566 241.855 69.2802 241.855 68.3225C241.855 67.3647 241.076 66.5883 240.116 66.5883C239.155 66.5883 238.376 67.3647 238.376 68.3225C238.376 69.2802 239.155 70.0566 240.116 70.0566Z" fill="#0049E5"/>
<path d="M207.831 74.0127C209.392 74.0127 210.657 72.751 210.657 71.1947C210.657 69.6383 209.392 68.3766 207.831 68.3766C206.27 68.3766 205.005 69.6383 205.005 71.1947C205.005 72.751 206.27 74.0127 207.831 74.0127Z" fill="#F089C0"/>
</svg>
