<?xml version="1.0" encoding="utf-8"?>
<!-- Generator: Adobe Illustrator 25.4.1, SVG Export Plug-In . SVG Version: 6.00 Build 0)  -->
<svg version="1.1" id="Capa_1" xmlns="http://www.w3.org/2000/svg" xmlns:xlink="http://www.w3.org/1999/xlink" x="0px" y="0px"
	 viewBox="0 0 496 490.7" style="enable-background:new 0 0 496 490.7;" xml:space="preserve">
<style type="text/css">
	.st0{fill:#FAE058;}
	.st1{fill:#0049E5;}
	.st2{fill:#77F169;}
	.st3{fill:#ECCEFF;}
</style>
<g>
	<circle class="st0" cx="107.9" cy="106.2" r="7.7"/>
	<circle class="st1" cx="37.1" cy="251" r="4.7"/>
	<circle class="st1" cx="169" cy="411.9" r="7.9"/>
	<circle class="st2" cx="11" cy="139" r="5.9"/>
	<circle class="st3" cx="212.9" cy="15" r="9.8"/>
	<circle class="st2" cx="146.5" cy="66" r="3.7"/>
	<circle class="st3" cx="259.3" cy="160.2" r="4.5"/>
	<circle class="st0" cx="279.8" cy="66" r="6.7"/>
	<circle class="st3" cx="320.2" cy="92.2" r="14.7"/>
	<circle class="st1" cx="207.5" cy="110.3" r="18.1"/>
	<circle class="st3" cx="291.4" cy="387.7" r="11.7"/>
	<circle class="st0" cx="217.3" cy="362.3" r="4.4"/>
	<circle class="st3" cx="236.6" cy="474.5" r="11.1"/>
	<circle class="st2" cx="422.3" cy="98.5" r="17.3"/>
	<circle class="st0" cx="487.7" cy="249.4" r="3.1"/>
	<circle class="st0" cx="344.6" cy="395.8" r="8.2"/>
	<g>
		<g>
			<path d="M306.2,121.1l-9,44L288,209c-6.2,29.3-12.4,58.5-18.8,87.7l-19.3,87.6l-4.8,21.9l-4.7,21.9l-9.3,43.9
				c-0.1,0.3-0.3,0.5-0.6,0.4l0,0l-13.7-3c-0.3-0.1-0.5-0.4-0.4-0.7l0,0c6.2-29.3,12.3-58.6,18.5-87.8l9.3-43.9l9.5-43.9
				c6.3-29.2,12.7-58.5,19.1-87.7c6.4-29.2,12.9-58.4,19.5-87.6c0-0.1,0.1-0.1,0.1-0.1c0.1,0,0.1,0.1,0.1,0.1
				c-6,29.3-12.1,58.6-18.2,87.9c-6.2,29.3-12.3,58.5-18.6,87.8l-9.4,43.9l-9.5,43.8c-6.3,29.2-12.8,58.4-19.2,87.6l-0.4-0.7
				l13.6,3.1l-0.6,0.4l9.6-43.8l4.8-21.9l4.7-21.9l18.4-87.8c6.2-29.3,12.6-58.5,19-87.7l9.7-43.8l9.9-43.8c0-0.1,0.1-0.1,0.1-0.1
				C306.2,121,306.2,121.1,306.2,121.1z"/>
			<g>
				<path d="M317,106.9c0,3.8-1.3,7.8-4,10.8c-2.6,3.1-6.8,4.8-10.8,4.7c-2-0.1-4-0.6-5.8-1.4c-1.8-0.9-3.4-2.1-4.8-3.5
					c-2.7-2.8-4.4-6.6-4.6-10.6c-0.2-4,1.3-8.1,4.2-11c1.4-1.5,3.1-2.7,5-3.5c1.9-0.8,4-1.2,6-1.2c2.1,0,4.1,0.4,6,1.3
					c1.9,0.8,3.5,2.1,4.9,3.6C315.7,99.1,317,103.1,317,106.9z M316.8,106.9c0-1.9-0.4-3.8-1.3-5.5c-0.8-1.7-2-3.2-3.4-4.4
					c-2.8-2.4-6.3-3.7-9.9-3.7c-3.6,0-7.1,1.4-9.7,3.9c-2.6,2.5-4.2,6-4.4,9.7c-0.1,1.8,0.2,3.7,0.9,5.5c0.7,1.8,1.7,3.4,3.1,4.7
					c2.7,2.6,6.5,3.9,10.2,3.7c3.6-0.1,7.1-1.5,9.9-3.9c1.4-1.2,2.6-2.7,3.4-4.4C316.4,110.7,316.8,108.8,316.8,106.9z"/>
			</g>
			<path d="M326.8,304.2c-2.3,2.9-4.3,6-6,9.3c-0.8,1.6-1.6,3.3-2.2,5.1c-0.6,1.7-1.1,3.5-1.4,5.3c-0.6,3.6-0.5,7.3,0.7,10.7
				c1.2,3.4,3.6,6.3,6.4,8.5c2.8,2.3,6.1,4,9.5,5.3l2.6,1l2.6,0.9l5.3,1.7l10.6,3.5c3.5,1.2,7,2.4,10.5,3.7c3.5,1.3,7,2.6,10.5,4
				c3.5,1.4,6.9,3,10.2,4.6c3.3,1.7,6.6,3.4,9.8,5.4c3.2,2,6.2,4.1,9.1,6.5c2.8,2.5,5.5,5.1,7.7,8.2c2.2,3,4,6.4,5.1,10
				c1.1,3.6,1.5,7.4,1.4,11.1c-0.1,3.8-0.9,7.4-1.9,11l-0.5-0.4c1.9-1.1,3.8-2.4,5.5-3.9c1.7-1.4,3.3-3,4.8-4.7c3-3.3,5.6-7,7.8-11
				c0.5-1,1.1-2,1.5-3c0.5-1,1-2,1.4-3.1l1.2-3.1c0.4-1.1,0.8-2.1,1.3-3.2c1.8-4.2,3.9-8.3,6.1-12.2c2.3-4,4.7-7.8,7.3-11.6
				c2.6-3.7,5.4-7.4,8.3-10.9c1.5-1.7,3-3.5,4.6-5.1c1.6-1.7,3.2-3.3,5-4.8c1.7-1.5,3.6-2.9,5.6-4.2c2-1.2,4.2-2.3,6.7-2.6l-0.9,0.8
				c0.7-4.3,0.8-8.8,0.6-13.1c-0.2-4.4-0.8-8.8-1.8-13.1c-2-8.6-5.5-16.9-10.6-24.1c-2.5-3.6-5.4-7.1-8.5-10.2
				c-0.4-0.4-0.8-0.8-1.2-1.2l-1.2-1.1c-0.8-0.7-1.6-1.5-2.5-2.2c-1.8-1.4-3.5-2.8-5.3-4c-7.3-5.1-15.3-9.2-23.7-12.3
				c-0.1,0-0.1-0.1-0.1-0.1c0-0.1,0.1-0.1,0.1-0.1c8.5,2.8,16.8,6.6,24.2,11.6c1.9,1.2,3.7,2.6,5.5,4c0.9,0.7,1.7,1.5,2.6,2.2
				l1.3,1.1c0.4,0.4,0.8,0.8,1.2,1.2c3.3,3.1,6.3,6.6,8.9,10.2c5.3,7.3,9.1,15.8,11.2,24.6c1,4.4,1.7,8.9,1.9,13.5
				c0.2,4.5,0.1,9.1-0.6,13.6c-0.1,0.4-0.4,0.8-0.8,0.8l-0.1,0c-2,0.3-4,1.2-5.8,2.3c-1.9,1.1-3.6,2.5-5.3,3.9
				c-3.4,2.9-6.5,6.2-9.4,9.6c-5.9,6.8-11.1,14.2-15.7,22c-2.3,3.9-4.4,7.9-6.2,12c-0.5,1-0.9,2.1-1.3,3.1l-1.3,3.2
				c-0.4,1.1-1,2.1-1.5,3.1c-0.5,1-1.1,2-1.6,3c-2.3,4-5,7.7-8.1,11c-1.6,1.7-3.2,3.2-5,4.7c-1.8,1.4-3.6,2.8-5.7,3.9
				c-0.2,0.1-0.4,0-0.5-0.2c0-0.1-0.1-0.2,0-0.3l0,0c1-3.5,1.8-7.2,2-10.9c0.1-3.7-0.2-7.4-1.3-10.9c-1.1-3.5-2.9-6.8-5.1-9.7
				c-2.2-2.9-4.8-5.6-7.7-7.9c-2.9-2.3-6-4.4-9.1-6.2c-3.2-1.9-6.5-3.5-9.8-5.1c-3.4-1.5-6.8-3-10.2-4.3c-3.4-1.4-6.9-2.6-10.4-3.9
				c-3.5-1.2-7-2.4-10.5-3.6l-10.6-3.5l-5.3-1.8l-2.6-0.9l-2.6-1c-3.5-1.4-6.9-3.2-9.8-5.7c-2.9-2.4-5.4-5.6-6.6-9.3
				c-1.3-3.6-1.3-7.6-0.5-11.3c0.8-3.7,2.2-7.2,4-10.5c1.8-3.3,4-6.3,6.4-9.1c0,0,0.1,0,0.1,0C326.8,304.1,326.8,304.1,326.8,304.2z
				"/>
			<path d="M269.9,289.2c5.3-0.6,10.7-0.2,15.9,0.6c5.3,0.8,10.5,1.9,15.6,3.5c5.1,1.6,10,3.6,14.9,5.6c4.9,2.1,9.7,4.2,14.4,6.9
				c2.3,1.3,4.6,2.8,6.7,4.5c2.1,1.7,4,3.7,5.5,6c1.5,2.3,2.5,5.2,2.2,8.1c-0.1,1.5-0.5,2.9-1.2,4.2c-0.7,1.3-2.1,2.5-3.6,3
				c-1.5,0.5-3,0.4-4.4,0.2c-1.4-0.2-2.7-0.6-4-1c-2.6-0.8-5-1.9-7.5-2.7c-1.2-0.4-2.5-0.7-3.7-0.7c-0.6,0-1.1,0.1-1.6,0.4
				c-0.5,0.3-0.8,0.7-1,1.2c-0.4,1.1-0.5,2.4-0.4,3.7c0.1,1.3,0.3,2.6,0.5,3.9c0,0.1,0,0.1-0.1,0.1c-0.1,0-0.1,0-0.1-0.1
				c-0.4-1.3-0.7-2.6-0.9-3.9c-0.2-1.3-0.3-2.7,0.1-4.1c0.2-0.7,0.6-1.4,1.3-1.9c0.7-0.5,1.5-0.6,2.2-0.7c1.5-0.1,2.8,0.2,4.1,0.5
				c2.6,0.7,5.1,1.6,7.6,2.3c1.2,0.3,2.5,0.7,3.7,0.8c1.2,0.2,2.4,0.1,3.5-0.2c1-0.3,1.8-1,2.4-2c0.5-1,0.9-2.2,1-3.4
				c0.3-2.4-0.5-4.8-1.8-6.9c-1.3-2.1-3-4.1-5-5.8c-1.9-1.7-4-3.3-6.2-4.8c-4.4-2.9-9.1-5.3-14-7.2c-4.9-1.9-10-3.3-15.1-4.6
				c-5.1-1.3-10.2-2.6-15.4-3.6c-5.2-1-10.4-1.8-15.6-1.9C269.9,289.4,269.8,289.3,269.9,289.2C269.8,289.2,269.9,289.2,269.9,289.2
				z"/>
			<path d="M305.4,124.3c4.1,0.5,8.2,1.1,12.3,1.8c4.1,0.7,8.1,1.5,12.2,2.3c8.1,1.7,16.2,3.6,24.1,6c8,2.3,15.9,4.8,23.6,7.7
				c7.7,3,15.4,6.1,22.8,9.8c7.4,3.7,14.7,7.7,21.6,12.3c3.5,2.3,6.9,4.6,10.2,7.1c3.3,2.5,6.5,5.1,9.6,7.8
				c6.2,5.5,11.9,11.6,16.8,18.2c5,6.7,9,14.1,11.9,21.9c0.1,0.3,0,0.6-0.2,0.8l0,0l-31.9,27l-32,26.9l-32,26.9
				c-5.3,4.5-10.7,9-16,13.5c-2.6,2.3-5.3,4.5-7.9,6.8l-3.9,3.5c-1.3,1.2-2.5,2.4-3.8,3.6l0,0c0,0-0.1,0-0.1,0c0,0,0-0.1,0-0.1
				c1.2-1.2,2.4-2.5,3.7-3.7l3.8-3.6c2.5-2.4,5.1-4.7,7.7-7.1c5.2-4.7,10.4-9.3,15.6-13.9l15.8-13.7l7.9-6.8l8-6.8
				c10.6-9,21.3-18,32-26.9l16.1-13.3l16.2-13.3l-0.2,0.8c-2.7-7.7-6.5-15.1-11.2-21.8c-4.7-6.8-10.4-12.8-16.5-18.3
				c-6.2-5.4-12.9-10.3-19.9-14.7c-7-4.3-14.3-8.2-21.8-11.6c-7.5-3.4-15.1-6.7-22.8-9.5c-7.7-2.9-15.5-5.5-23.4-7.9
				c-15.8-4.7-31.9-8.6-48.2-11.4c-0.1,0-0.1-0.1-0.1-0.1C305.3,124.3,305.4,124.3,305.4,124.3z"/>
			<path d="M296.8,164.6c7.1,0.6,14.1,1.8,21,3.3c6.9,1.5,13.8,3.2,20.6,5.3c6.8,2.2,13.4,4.7,20,7.3c6.6,2.6,13.2,5.2,19.6,8.1
				c12.9,5.8,25.3,13.1,36.4,22.1c5.5,4.6,10.6,9.6,15.2,15c4.5,5.5,8.5,11.4,11.8,17.7c0,0,0,0.1,0,0.1c0,0-0.1,0-0.1,0
				c-3.8-6-8.1-11.6-12.8-16.8l-3.6-3.8c-0.6-0.6-1.2-1.3-1.9-1.8l-1.9-1.8l-1.9-1.8l-2-1.7c-1.3-1.1-2.6-2.3-4-3.4l-4.1-3.3
				c-1.4-1.1-2.8-2.1-4.2-3.1c-0.7-0.5-1.4-1-2.1-1.5l-2.2-1.5c-1.5-1-2.9-2-4.4-2.9c-5.9-3.8-12.1-7.2-18.4-10.4
				c-6.3-3.2-12.8-6.1-19.4-8.5c-6.6-2.4-13.4-4.4-20.2-6.3c-13.6-3.8-27.3-7.3-41.2-10c-0.1,0-0.1-0.1-0.1-0.1
				C296.7,164.6,296.7,164.6,296.8,164.6z"/>
			<path d="M288.3,204c6,0.7,11.9,1.9,17.7,3.2c5.9,1.3,11.7,2.8,17.4,4.6c2.9,0.9,5.7,1.9,8.5,2.9l8.5,3.1c5.6,2.1,11.3,4,16.9,6.2
				c11.2,4.3,22.1,9.6,32.2,16.3c5,3.5,9.7,7.3,13.9,11.6c4.2,4.4,7.9,9.3,10.4,14.8c0,0.1,0,0.1,0,0.1c0,0-0.1,0-0.1,0
				c-3.1-5.1-7-9.7-11.3-13.7c-4.3-4-9.1-7.7-14-11c-4.9-3.3-10.1-6.3-15.3-9.2c-5.3-2.8-10.6-5.4-16.1-7.9
				c-5.4-2.5-11-4.7-16.7-6.6c-5.7-1.9-11.5-3.4-17.3-5c-11.5-3.2-23.1-6.3-34.7-9.2c-0.1,0-0.1-0.1-0.1-0.1
				C288.2,204,288.2,204,288.3,204z"/>
			<path d="M279.8,243.4c4.8,0.5,9.6,1.3,14.4,2.2c4.8,1,9.5,2.2,14.1,3.6c4.6,1.5,9.2,3.2,13.7,4.9c4.6,1.7,9.1,3.3,13.6,5.1
				c4.5,1.8,9,3.7,13.3,6.1c4.3,2.3,8.5,4.9,12.3,7.9c3.8,3.1,7.4,6.5,10.4,10.4c3,3.9,5.3,8.3,6.5,13.1c0,0.1,0,0.1-0.1,0.1
				c0,0-0.1,0-0.1-0.1c-1.8-4.5-4.4-8.6-7.6-12.1c-3.1-3.6-6.7-6.8-10.5-9.7c-3.8-2.9-7.8-5.5-12-8c-4.1-2.4-8.4-4.6-12.8-6.7
				c-4.3-2.1-8.8-4-13.4-5.5c-4.6-1.5-9.3-2.7-14-3.9l-14-3.7c-4.7-1.2-9.4-2.4-14.1-3.6c-0.1,0-0.1-0.1-0.1-0.1
				C279.7,243.4,279.8,243.4,279.8,243.4z"/>
			<path d="M293.3,292c3.5-13.5,7.5-26.9,12-40.2c2.3-6.6,4.7-13.2,6.9-19.8c2.2-6.6,4.3-13.3,6.3-20c4-13.4,8.3-26.7,12.8-39.9
				c2.3-6.6,4.7-13.2,7.2-19.7l1.9-4.9c0.6-1.6,1.3-3.2,2-4.8c0.7-1.6,1.4-3.2,2.1-4.8l2.4-4.7c0,0,0.1-0.1,0.1,0c0,0,0.1,0.1,0,0.1
				l0,0l-2,4.8l-1.8,4.9c-1.2,3.3-2.2,6.6-3.4,9.9l-6.7,19.9l-6.8,19.8c-2.2,6.6-4.6,13.2-6.9,19.8c-2.3,6.6-4.6,13.2-6.7,19.9
				c-1,3.3-2,6.7-3,10l-2.9,10.1c-4.1,13.4-8.5,26.6-13.3,39.7c0,0.1-0.1,0.1-0.1,0.1C293.3,292.1,293.2,292.1,293.3,292z"/>
			<path d="M394.1,149.8c-5.7,12.8-11.9,25.4-18.3,37.9l-5,9.3c-1.7,3.1-3.3,6.2-4.9,9.3c-3.2,6.2-6.2,12.6-9.2,18.9
				c-3,6.4-5.9,12.7-9,19c-3,6.3-6,12.6-9.1,18.9l-9.3,18.8c-1.5,3.2-3.2,6.3-4.6,9.4l-2.3,4.7l-2.2,4.8l0,0c0,0.1-0.1,0.1-0.1,0
				c0,0-0.1-0.1-0.1-0.1l1.8-5l2-4.9c1.3-3.3,2.7-6.5,4.2-9.7c2.9-6.4,5.8-12.8,8.8-19.1c3-6.3,6.2-12.6,9.3-18.8
				c3.2-6.3,6.4-12.5,9.7-18.7c3.3-6.2,6.5-12.4,9.6-18.7c3.1-6.3,5.9-12.7,9-19c6.1-12.6,12.7-25,19.6-37.2c0,0,0.1-0.1,0.1,0
				C394.2,149.7,394.2,149.7,394.1,149.8z"/>
			<path d="M340.6,314.7c7.4-12,15.3-23.7,23.5-35.2c4.1-5.7,8.4-11.3,12.6-17c4.1-5.7,8.1-11.6,12-17.4c7.8-11.7,16-23.3,24.3-34.7
				c4.2-5.7,8.5-11.3,12.9-16.8l3.3-4.1l1.7-2l1.7-2l3.5-4l3.8-3.7c0,0,0.1,0,0.1,0c0,0,0,0.1,0,0.1l0,0l-3.4,4l-3.2,4.2
				c-2.2,2.7-4.2,5.7-6.3,8.5c-2.1,2.8-4.1,5.7-6.2,8.5l-6.2,8.6l-12.5,17c-4.1,5.7-8.4,11.3-12.6,17c-4.2,5.6-8.4,11.4-12.4,17.2
				c-2,2.9-3.9,5.9-5.9,8.8l-5.8,8.8c-7.9,11.7-16.2,23.1-24.7,34.4c0,0-0.1,0.1-0.1,0C340.6,314.8,340.6,314.8,340.6,314.7z"/>
			<path d="M440,260.3c-3.6,4.2-7.3,8.3-11.1,12.3c-3.8,4-7.6,8-11.5,11.8c-4,3.8-8,7.5-11.9,11.4c-3.9,3.9-7.7,7.9-11.4,11.9
				c-3.7,4-7.5,8.1-11.3,12c-3.8,4-7.6,7.9-11.5,11.8c-3.9,3.9-7.9,7.7-11.9,11.5c-4.1,3.7-8,7.5-12.4,10.9c0,0-0.1,0-0.1,0
				c0,0,0-0.1,0-0.1l0,0c3.9-3.9,7.6-7.9,11.4-11.9c3.8-4,7.6-7.9,11.5-11.8c3.9-3.9,7.8-7.8,11.7-11.6c3.9-3.9,7.9-7.7,11.9-11.5
				c4-3.8,7.9-7.6,11.7-11.6c3.8-4,7.4-8.1,11.2-12.1c3.8-4,7.7-7.9,11.6-11.7c3.9-3.8,7.9-7.6,12-11.3c0,0,0.1,0,0.1,0
				C440.1,260.2,440.1,260.3,440,260.3z"/>
			<path d="M470.1,283.7c-3.4,3.6-6.9,7.1-10.5,10.6s-7.1,6.9-10.8,10.2c-3.7,3.3-7.5,6.5-11.1,9.9c-3.6,3.4-7.1,6.9-10.5,10.5
				l-20.4,21.6c-3.4,3.6-6.8,7.2-10.1,10.9c-1.6,1.8-3.3,3.7-4.8,5.6c-1.5,1.9-3.1,3.9-4.1,6.1l0,0c0,0.1-0.1,0.1-0.1,0.1
				c0,0-0.1-0.1-0.1-0.1c0.7-2.4,2.1-4.6,3.4-6.7c0.7-1,1.4-2.1,2.2-3.1c0.7-1,1.5-2,2.3-3c3.1-3.9,6.4-7.6,9.7-11.3
				c3.4-3.7,6.9-7.2,10.4-10.7c3.5-3.5,7.1-6.9,10.8-10.3c3.7-3.4,7.3-6.7,10.8-10.2c3.5-3.5,6.9-7.1,10.4-10.7
				c3.5-3.5,7.2-6.9,10.9-10.2c3.7-3.3,7.5-6.5,11.4-9.6c0,0,0.1,0,0.1,0C470.1,283.7,470.1,283.7,470.1,283.7z"/>
			<path d="M469.9,345.8c0.2-2.2,0.2-4.4,0-6.5c-0.2-2.2-0.5-4.3-0.9-6.4c-0.9-4.2-2.3-8.3-4.1-12.2c-1.7-3.9-3.9-7.8-6.6-11.2
				c-2.7-3.4-5.9-6.5-9.2-9.2c-6.9-5.4-14.3-10-22-13.9c-7.7-4-15.8-7.4-23.9-10.8c-0.1,0-0.1-0.1-0.1-0.1c0,0,0.1-0.1,0.1-0.1
				c8.5,2.1,16.9,5.2,24.8,9.1c2,1,3.9,2.1,5.8,3.1c1.9,1.2,3.8,2.3,5.6,3.6c1.8,1.3,3.6,2.5,5.4,3.9c1.8,1.3,3.4,2.9,5,4.3
				c3.2,3.1,6.2,6.3,9,9.6c2.8,3.4,5.5,7,7.5,10.9c2,4,3.4,8.3,4.1,12.7c0.7,4.4,0.7,8.9-0.4,13.2c0,0.1-0.1,0.1-0.1,0.1
				C469.9,345.9,469.9,345.8,469.9,345.8L469.9,345.8z"/>
			<path d="M366.2,306.9c4.7-1.1,9.7-1.6,14.5-1.6c4.9,0,9.8,0.5,14.6,1.6c4.8,1.1,9.4,2.8,13.9,4.7c4.5,1.9,8.8,4.1,13,6.8
				c1,0.7,2.1,1.3,3.1,2c1,0.7,2,1.5,2.9,2.2c1.8,1.6,3.7,3.2,5.4,5c1.8,1.7,3.3,3.7,4.8,5.6c0.8,1,1.4,2,2.1,3l1.1,1.5
				c0.3,0.5,0.6,1,1,1.6c5.1,8.4,8.4,17.8,10.2,27.3c0,0.1,0,0.1-0.1,0.1c-0.1,0-0.1,0-0.1-0.1c-3-9.2-6.8-18.1-11.9-26.3
				c-0.3-0.5-0.6-1-0.9-1.5l-1-1.5c-0.7-1-1.3-2-2-2.9c-1.5-1.9-2.9-3.8-4.6-5.5c-1.6-1.8-3.3-3.4-5-5.1c-0.9-0.8-1.8-1.6-2.7-2.4
				c-0.9-0.8-1.9-1.5-2.8-2.2c-3.9-2.9-8.1-5.3-12.6-7.1c-4.5-1.8-9.2-2.9-14-3.7c-9.5-1.7-19.1-2.2-28.8-1.4l0,0
				c-0.1,0-0.1,0-0.1-0.1C366.1,307,366.2,306.9,366.2,306.9z"/>
			<path d="M348.5,322.6c5.4-0.2,10.9,0.2,16.3,1.1c5.4,0.9,10.7,2.1,15.8,4c5.1,1.9,10.1,4.2,14.8,6.8c4.8,2.6,9.4,5.5,13.7,8.8
				c4.3,3.3,8.3,7.1,11.7,11.5c3.3,4.4,6.2,9.1,8.4,14.1c4.3,10.1,6.1,21.1,5.9,32c0,0.1,0,0.1-0.1,0.1c-0.1,0-0.1,0-0.1-0.1
				c-1-10.8-3.3-21.4-7.6-31.1c-2.2-4.9-4.8-9.5-8-13.8c-3.2-4.3-6.9-8.2-10.9-11.8c-4-3.6-8.5-6.7-13.3-9.1
				c-4.8-2.4-9.9-4.3-15-5.8c-10.2-3.2-20.8-5.4-31.6-6.4C348.4,322.8,348.4,322.7,348.5,322.6C348.4,322.6,348.4,322.6,348.5,322.6
				z"/>
			<polygon points="332.2,172.3 319.2,211.4 288.3,204.1 296.7,164.7 			"/>
			<path d="M306.8,249.6L293.4,292c0,0-17.9-3.8-23.4-2.8l9.9-45.8L306.8,249.6z"/>
			<polygon points="356.7,224.2 338.5,261.1 306.8,249.6 319.2,211.4 			"/>
			<path d="M375.5,186.5l18.6-36.8c0,0-39-16.7-47.1-16.6l-14.7,39.1C332.2,172.3,353.1,179,375.5,186.5z"/>
			<polygon points="413.7,211.5 391.1,242.6 356.7,224.2 375.5,186.5 			"/>
			<path d="M365.8,278.5l-25.2,36.3c0,0-12.5-10.7-20.5-13.9l18.4-39.8C338.5,261.1,359.7,271.8,365.8,278.5z"/>
			<path d="M470,219.5l-28.8,24c0,0-15.5-24.1-27.6-32l26.3-33.7C440,177.8,463.7,197,470,219.5z"/>
			<path d="M413.7,266.6c0,0-11.1-17.9-22.6-24l-25.3,35.9c0,0,10,10.7,12.3,18.3L413.7,266.6z"/>
			<path d="M326.6,304.3c0,0-10.6,12.5-10.3,23.7c0,0,2.4-2.3,6.6-1.1c4.2,1.2,17.5,6.2,20.1,1.1S345.2,312.5,326.6,304.3z"/>
			<path d="M366.2,307c0,0,19.2-3,27.2,0.6l-18.9,19.1c0,0-20.2-4.2-26.1-4L366.2,307z"/>
			<polygon points="403.2,275.4 419.2,281.4 440,260.2 427.7,254.8 			"/>
			<path d="M451.1,301.2L428,323.5c0,0-15.3-14.4-34.5-15.9l25.7-26.2C419.2,281.4,444.8,292.3,451.1,301.2z"/>
			<path d="M408.4,343.3c0,0-18.6,18.4-20.7,25.9c0,0-29.8-13.3-39.2-14.9l26.1-27.6C374.6,326.7,402,335.1,408.4,343.3z"/>
			<path d="M452.7,366.7c0,0-9.9,16.7-12.7,23.4s-5,10.7-5,10.7s-0.1-39-26.6-57.5l19.6-19.8C428,323.5,448,343.9,452.7,366.7z"/>
			<path d="M451.1,301.2l18.9-17.5c0,0,18.2,22.2,14,53.6c0,0-7.6,2.1-13.5,8.1C470.5,345.4,476.5,322.6,451.1,301.2z"/>
		</g>
		<g>
			<path d="M254.7,293.1c-3.8-14.4-7.2-29-10.1-43.6c-1.4-7.3-2.7-14.7-4.2-22c-1.5-7.3-3.2-14.6-4.9-21.8
				c-1.8-7.3-3.5-14.5-5.1-21.8c-1.6-7.3-3.3-14.6-4.8-21.9c-3-14.6-6-29.2-8.5-44c0-0.1,0-0.1,0.1-0.1c0.1,0,0.1,0,0.1,0.1
				c3.8,14.5,7.1,29,10.4,43.6c1.6,7.3,3.1,14.6,4.6,21.9c1.5,7.3,2.9,14.6,4.3,22c1.4,7.3,2.9,14.6,4.5,21.9
				c1.6,7.3,3.5,14.5,5.2,21.8c3.3,14.6,6.2,29.2,8.7,43.9c0,0.1,0,0.1-0.1,0.1C254.8,293.2,254.7,293.2,254.7,293.1z"/>
			<path d="M254.9,359.5c1.2,4.7,2.3,9.3,3.4,14l3.2,14c2.1,9.4,4.2,18.7,6.2,28.1c1,4.7,2,9.4,2.9,14.1l2.8,14.1
				c0.9,4.7,1.8,9.4,2.8,14.1c1,4.7,1.9,9.4,3,14.1l-0.4-0.2c4.5-1,9.1-2,13.6-3.1l-0.3,0.5l-4.1-17.7l-4-17.8l-3.9-17.8l-2-8.9
				l-1.9-8.9l-3.8-17.8l-3.6-17.8c-2.4-11.9-4.7-23.8-7-35.7c0-0.1,0-0.1,0.1-0.1c0.1,0,0.1,0,0.1,0.1c2.9,11.8,5.7,23.6,8.3,35.4
				l4,17.8l3.9,17.8l1.9,8.9l1.9,8.9l3.7,17.8l3.6,17.8l3.6,17.9l0,0c0,0.2-0.1,0.5-0.3,0.5c-4.6,0.9-9.1,1.9-13.7,2.9l0,0
				c-0.2,0-0.3-0.1-0.4-0.2l0,0c-1-4.7-2-9.4-3.1-14.1c-1-4.7-2.1-9.4-3.2-14l-3.3-14c-1.1-4.7-2.1-9.4-3.1-14
				c-2-9.4-4-18.8-5.9-28.2l-2.8-14.1c-0.9-4.7-1.8-9.4-2.7-14.1c0-0.1,0-0.1,0.1-0.1C254.8,359.4,254.9,359.5,254.9,359.5z"/>
			<path d="M203.6,121.1c4.3,17,8.2,34,11.8,51.2c1.7,8.6,3.3,17.2,5,25.8c1.8,8.6,3.7,17.1,5.7,25.6c2,8.5,4,17,5.9,25.6
				c1.9,8.5,3.8,17.1,5.7,25.6c3.6,17.1,7,34.3,10.1,51.6c0,0.1,0,0.1-0.1,0.1c-0.1,0-0.1,0-0.1-0.1c-4.3-17-8.2-34.1-12-51.1
				c-1.9-8.6-3.6-17.1-5.4-25.7c-1.8-8.6-3.5-17.2-5.1-25.8c-1.7-8.6-3.4-17.2-5.3-25.7c-1.9-8.5-4-17-6-25.6
				c-3.8-17.1-7.3-34.2-10.3-51.5c0-0.1,0-0.1,0.1-0.1C203.5,121,203.6,121,203.6,121.1z"/>
			<g>
				<path d="M192.8,106.9c0,1.9,0.4,3.8,1.3,5.5c0.8,1.7,2,3.2,3.4,4.4c2.8,2.4,6.3,3.8,9.9,3.9c3.6,0.2,7.4-1.1,10.2-3.7
					c1.3-1.3,2.4-2.9,3.1-4.7c0.7-1.7,0.9-3.6,0.9-5.5c-0.2-3.7-1.8-7.2-4.4-9.7c-2.6-2.5-6.2-3.9-9.7-3.9c-3.6,0-7.1,1.3-9.9,3.7
					c-1.4,1.2-2.6,2.7-3.4,4.4C193.2,103.1,192.8,105,192.8,106.9z M192.6,106.9c0-3.9,1.3-7.8,3.9-10.8c1.3-1.5,3-2.8,4.9-3.6
					c1.9-0.9,3.9-1.3,6-1.3c2.1,0,4.1,0.4,6,1.2c1.9,0.8,3.6,2,5,3.5c2.9,2.9,4.4,7.1,4.2,11c-0.2,4-1.9,7.8-4.6,10.6
					c-1.4,1.4-3,2.6-4.8,3.5c-1.8,0.9-3.8,1.4-5.8,1.4c-4.1,0.1-8.2-1.6-10.8-4.7C193.9,114.7,192.6,110.8,192.6,106.9z"/>
			</g>
			<path d="M183,304c2.5,2.8,4.6,5.9,6.4,9.1c1.8,3.3,3.3,6.8,4,10.5c0.7,3.7,0.7,7.6-0.5,11.3c-1.2,3.7-3.7,6.8-6.6,9.3
				c-2.9,2.4-6.3,4.2-9.8,5.7l-2.6,1l-2.6,0.9l-5.3,1.8l-10.6,3.5c-3.5,1.2-7,2.3-10.5,3.6c-3.5,1.2-7,2.5-10.4,3.9
				c-3.5,1.3-6.9,2.8-10.2,4.3c-3.3,1.6-6.7,3.2-9.8,5.1c-3.2,1.9-6.3,3.9-9.1,6.2c-2.9,2.3-5.5,5-7.7,7.9c-2.2,2.9-4,6.2-5.1,9.7
				c-1.1,3.5-1.5,7.2-1.3,10.9c0.1,3.7,1,7.3,2,10.9l0,0c0.1,0.2-0.1,0.4-0.3,0.5c-0.1,0-0.2,0-0.3,0c-2.1-1.1-3.9-2.4-5.7-3.9
				c-1.8-1.4-3.4-3-5-4.7c-3.1-3.3-5.9-7.1-8.1-11c-0.6-1-1.2-2-1.6-3c-0.5-1-1.1-2-1.5-3.1l-1.3-3.2c-0.4-1-0.8-2.1-1.3-3.1
				c-1.8-4.1-3.9-8.1-6.2-12c-4.6-7.8-9.8-15.2-15.7-22c-2.9-3.4-6-6.7-9.4-9.6c-1.7-1.4-3.5-2.8-5.3-3.9c-1.9-1.1-3.9-2.1-5.8-2.3
				l-0.1,0c-0.4-0.1-0.8-0.4-0.9-0.8c-0.7-4.6-0.8-9.1-0.6-13.6c0.2-4.5,0.9-9,1.9-13.5c2.1-8.8,5.9-17.3,11.2-24.6
				c2.7-3.7,5.6-7.2,8.9-10.2c0.4-0.4,0.8-0.8,1.2-1.2l1.3-1.1c0.9-0.7,1.7-1.5,2.6-2.2c1.8-1.3,3.6-2.8,5.5-4
				c7.5-5,15.8-8.8,24.2-11.6c0.1,0,0.1,0,0.1,0.1c0,0.1,0,0.1-0.1,0.1c-8.4,3.1-16.4,7.2-23.7,12.3c-1.9,1.2-3.6,2.7-5.3,4
				c-0.9,0.7-1.7,1.5-2.5,2.2l-1.2,1.1c-0.4,0.4-0.8,0.8-1.2,1.2c-3.2,3.1-6,6.5-8.5,10.2c-5.1,7.2-8.6,15.5-10.6,24.1
				c-1,4.3-1.6,8.7-1.8,13.1c-0.2,4.4-0.1,8.9,0.6,13.1l-0.9-0.8c2.5,0.3,4.7,1.4,6.7,2.6c2,1.2,3.8,2.6,5.6,4.2
				c1.7,1.5,3.4,3.1,5,4.8c1.6,1.6,3.1,3.4,4.6,5.1c3,3.5,5.7,7.1,8.3,10.9c2.6,3.7,5.1,7.6,7.3,11.6c2.3,4,4.3,8,6.1,12.2
				c0.5,1,0.9,2.1,1.3,3.2l1.2,3.1c0.4,1.1,0.9,2,1.4,3.1c0.5,1,1,2,1.5,3c2.2,3.9,4.7,7.6,7.8,11c1.5,1.7,3.1,3.2,4.8,4.7
				c1.7,1.4,3.5,2.8,5.5,3.9l-0.5,0.4c-1-3.6-1.8-7.3-1.9-11c-0.1-3.7,0.3-7.5,1.4-11.1c1.1-3.6,2.9-7,5.1-10c2.2-3,4.9-5.7,7.7-8.2
				c2.9-2.4,5.9-4.6,9.1-6.5c3.2-2,6.5-3.7,9.8-5.4c3.4-1.6,6.8-3.2,10.2-4.6c3.5-1.4,6.9-2.7,10.5-4c3.5-1.3,7-2.5,10.5-3.7
				l10.6-3.5l5.3-1.7l2.6-0.9l2.6-1c3.4-1.4,6.7-3.1,9.5-5.3c2.8-2.3,5.2-5.1,6.4-8.5c1.3-3.4,1.4-7.1,0.7-10.7
				c-0.3-1.8-0.8-3.6-1.4-5.3c-0.6-1.7-1.4-3.4-2.2-5.1c-1.7-3.3-3.7-6.4-6-9.3c0,0,0-0.1,0-0.1C182.9,304,182.9,304,183,304z"/>
			<path d="M239.7,289.4c-5.3,0.1-10.5,0.9-15.6,1.9c-5.2,1-10.3,2.3-15.4,3.6c-5.1,1.3-10.2,2.7-15.1,4.6c-4.9,1.9-9.7,4.3-14,7.2
				c-2.2,1.4-4.3,3.1-6.2,4.8c-1.9,1.7-3.7,3.7-5,5.8c-1.3,2.1-2,4.6-1.8,6.9c0.1,1.2,0.5,2.4,1,3.4c0.5,1,1.3,1.7,2.4,2
				c1,0.3,2.2,0.4,3.5,0.2c1.2-0.2,2.5-0.5,3.7-0.8c2.5-0.7,5-1.6,7.6-2.3c1.3-0.3,2.7-0.6,4.1-0.5c0.7,0,1.5,0.2,2.2,0.7
				c0.7,0.5,1.1,1.2,1.3,1.9c0.4,1.4,0.3,2.8,0.1,4.1c-0.2,1.3-0.5,2.6-0.9,3.9c0,0.1-0.1,0.1-0.1,0.1c0,0-0.1-0.1-0.1-0.1
				c0.2-1.3,0.4-2.6,0.5-3.9c0.1-1.3,0-2.6-0.4-3.7c-0.2-0.5-0.6-1-1-1.2c-0.5-0.3-1-0.4-1.6-0.4c-1.2,0-2.4,0.4-3.7,0.7
				c-2.5,0.8-4.9,1.8-7.5,2.7c-1.3,0.4-2.6,0.8-4,1c-1.4,0.2-2.9,0.3-4.4-0.2c-1.5-0.4-2.9-1.6-3.6-3c-0.7-1.4-1.1-2.8-1.2-4.2
				c-0.2-2.9,0.7-5.8,2.2-8.1c1.5-2.4,3.5-4.3,5.5-6c2.1-1.7,4.3-3.2,6.7-4.5c4.6-2.6,9.5-4.8,14.4-6.9c4.9-2.1,9.8-4,14.9-5.6
				c5.1-1.6,10.3-2.7,15.6-3.5c5.3-0.8,10.6-1.2,15.9-0.6C239.7,289.2,239.8,289.2,239.7,289.4C239.8,289.3,239.7,289.4,239.7,289.4
				z"/>
			<path d="M204.2,124.5c-16.3,2.8-32.4,6.7-48.2,11.4c-7.9,2.3-15.7,5-23.4,7.9c-7.7,2.8-15.3,6.1-22.8,9.5
				c-7.5,3.5-14.8,7.3-21.8,11.6c-7,4.3-13.7,9.2-19.9,14.7c-6.1,5.5-11.8,11.5-16.5,18.3c-4.8,6.7-8.6,14.1-11.2,21.8l-0.2-0.8
				l16.2,13.3l16.1,13.3c10.7,8.9,21.4,17.9,32,26.9l8,6.8l7.9,6.8l15.8,13.7c5.2,4.6,10.4,9.2,15.6,13.9c2.6,2.3,5.1,4.7,7.7,7.1
				l3.8,3.6c1.2,1.2,2.4,2.5,3.7,3.7c0,0,0,0.1,0,0.1c0,0-0.1,0-0.1,0l0,0c-1.3-1.2-2.5-2.4-3.8-3.6l-3.9-3.5
				c-2.6-2.3-5.3-4.5-7.9-6.8c-5.3-4.5-10.6-9-16-13.5l-32-26.9l-32-26.9l-31.9-27l0,0c-0.2-0.2-0.3-0.5-0.2-0.8
				c2.9-7.8,6.9-15.2,11.9-21.9c4.9-6.7,10.6-12.8,16.8-18.2c3.1-2.7,6.3-5.4,9.6-7.8c3.3-2.5,6.7-4.8,10.2-7.1
				c6.9-4.5,14.2-8.6,21.6-12.3c7.4-3.7,15.1-6.9,22.8-9.8c7.8-2.9,15.7-5.4,23.6-7.7c8-2.3,16-4.2,24.1-6c4-0.9,8.1-1.6,12.2-2.3
				c4.1-0.7,8.2-1.3,12.3-1.8c0.1,0,0.1,0,0.1,0.1C204.3,124.4,204.3,124.5,204.2,124.5z"/>
			<path d="M212.9,164.8c-13.9,2.7-27.6,6.1-41.2,10c-6.8,1.9-13.6,3.9-20.2,6.3c-6.6,2.5-13.1,5.3-19.4,8.5
				c-6.3,3.3-12.4,6.7-18.4,10.4c-1.5,0.9-2.9,1.9-4.4,2.9l-2.2,1.5c-0.7,0.5-1.4,1-2.1,1.5c-1.4,1.1-2.9,2-4.2,3.1l-4.1,3.3
				c-1.4,1.1-2.7,2.3-4,3.4l-2,1.7l-1.9,1.8l-1.9,1.8c-0.6,0.6-1.3,1.2-1.9,1.8l-3.6,3.8c-4.7,5.2-8.9,10.9-12.8,16.8
				c0,0-0.1,0.1-0.1,0c0,0-0.1-0.1,0-0.1c3.2-6.3,7.2-12.2,11.8-17.7c4.6-5.4,9.7-10.4,15.2-15c11.1-9,23.4-16.3,36.4-22.1
				c6.5-2.9,13-5.6,19.6-8.1c6.6-2.6,13.2-5.1,20-7.3c6.8-2.1,13.7-3.9,20.6-5.3c6.9-1.4,13.9-2.6,21-3.3c0.1,0,0.1,0,0.1,0.1
				C213,164.7,212.9,164.8,212.9,164.8z"/>
			<path d="M221.4,204.2c-11.6,2.9-23.2,6-34.7,9.2c-5.8,1.5-11.6,3.1-17.3,5c-5.7,1.9-11.3,4.1-16.7,6.6
				c-5.4,2.5-10.8,5.1-16.1,7.9c-5.3,2.8-10.4,5.9-15.3,9.2c-4.9,3.3-9.6,6.9-14,11c-4.3,4-8.2,8.6-11.3,13.7c0,0-0.1,0.1-0.1,0
				c0,0-0.1-0.1,0-0.1c2.5-5.5,6.2-10.4,10.4-14.8c4.2-4.4,8.9-8.2,13.9-11.6c10.1-6.7,21-12,32.2-16.3c5.6-2.2,11.3-4.1,16.9-6.2
				l8.5-3.1c2.8-1,5.7-2,8.5-2.9c5.7-1.8,11.6-3.3,17.4-4.6c5.9-1.3,11.8-2.4,17.7-3.2c0.1,0,0.1,0,0.1,0.1
				C221.4,204.1,221.4,204.2,221.4,204.2z"/>
			<path d="M229.8,243.6c-4.7,1.2-9.4,2.4-14.1,3.6l-14,3.7c-4.7,1.2-9.4,2.4-14,3.9c-4.6,1.5-9.1,3.4-13.4,5.5
				c-4.3,2.1-8.6,4.3-12.8,6.7c-4.1,2.4-8.2,5.1-12,8c-3.8,2.9-7.3,6.1-10.5,9.7c-3.1,3.6-5.8,7.7-7.6,12.1c0,0.1-0.1,0.1-0.1,0.1
				c0,0-0.1-0.1-0.1-0.1c1.2-4.7,3.6-9.2,6.5-13.1c3-3.9,6.6-7.4,10.4-10.4c3.9-3,8.1-5.6,12.3-7.9c4.3-2.4,8.7-4.3,13.3-6.1
				c4.5-1.8,9.1-3.4,13.6-5.1c4.6-1.7,9.1-3.4,13.7-4.9c4.6-1.5,9.4-2.6,14.1-3.6c4.8-1,9.6-1.8,14.4-2.2c0.1,0,0.1,0,0.1,0.1
				C229.9,243.5,229.9,243.5,229.8,243.6z"/>
			<path d="M216.2,292.1c-4.8-13.1-9.3-26.4-13.3-39.7l-2.9-10.1c-1-3.4-1.9-6.7-3-10c-2.1-6.7-4.4-13.3-6.7-19.9
				c-2.3-6.6-4.7-13.2-6.9-19.8l-6.8-19.8l-6.7-19.9c-1.2-3.3-2.2-6.6-3.4-9.9l-1.8-4.9l-2-4.8l0,0c0-0.1,0-0.1,0.1-0.1
				c0,0,0.1,0,0.1,0l2.4,4.7c0.7,1.6,1.4,3.2,2.1,4.8c0.7,1.6,1.4,3.2,2,4.8l1.9,4.9c2.5,6.5,4.9,13.1,7.2,19.7
				c4.5,13.2,8.8,26.5,12.8,39.9c2,6.7,4.1,13.4,6.3,20c2.2,6.6,4.6,13.2,6.9,19.8c4.4,13.3,8.4,26.7,12,40.2c0,0.1,0,0.1-0.1,0.1
				C216.2,292.1,216.2,292.1,216.2,292.1z"/>
			<path d="M115.6,149.7c6.9,12.2,13.5,24.6,19.6,37.2c3,6.3,5.9,12.7,9,19c3.1,6.3,6.3,12.5,9.6,18.7c3.3,6.2,6.5,12.4,9.7,18.7
				c3.1,6.3,6.3,12.5,9.3,18.8c3,6.3,6,12.7,8.8,19.1c1.4,3.2,2.8,6.4,4.2,9.7l2,4.9l1.8,5c0,0.1,0,0.1-0.1,0.1c0,0-0.1,0-0.1-0.1
				l0,0l-2.2-4.8l-2.3-4.7c-1.5-3.2-3.1-6.3-4.6-9.4l-9.3-18.8c-3.1-6.3-6.1-12.6-9.1-18.9c-3.1-6.3-6-12.7-9-19
				c-3-6.4-6-12.7-9.2-18.9c-1.6-3.1-3.3-6.2-4.9-9.3l-5-9.3c-6.4-12.5-12.6-25.1-18.3-37.9c0-0.1,0-0.1,0.1-0.1
				C115.6,149.6,115.6,149.7,115.6,149.7z"/>
			<path d="M168.9,314.9c-8.5-11.2-16.8-22.7-24.7-34.4l-5.8-8.8c-1.9-2.9-3.9-5.9-5.9-8.8c-4-5.8-8.2-11.5-12.4-17.2
				c-4.2-5.6-8.5-11.3-12.6-17l-12.5-17l-6.2-8.6c-2.1-2.8-4.1-5.7-6.2-8.5c-2.1-2.8-4.1-5.7-6.3-8.5l-3.2-4.2l-3.4-4l0,0
				c0,0,0-0.1,0-0.1c0,0,0.1,0,0.1,0l3.8,3.7l3.5,4l1.7,2l1.7,2l3.3,4.1c4.4,5.5,8.7,11.1,12.9,16.8c8.3,11.4,16.5,22.9,24.3,34.7
				c3.9,5.8,7.9,11.7,12,17.4c4.1,5.7,8.4,11.3,12.6,17c8.2,11.5,16.1,23.2,23.5,35.2c0,0,0,0.1,0,0.1
				C168.9,314.9,168.9,314.9,168.9,314.9z"/>
			<path d="M69.7,260.2c4.1,3.7,8.1,7.5,12,11.3c3.9,3.9,7.8,7.7,11.6,11.7c3.7,4,7.4,8.1,11.2,12.1c3.8,4,7.7,7.8,11.7,11.6
				c4,3.8,8,7.6,11.9,11.5c3.9,3.9,7.9,7.7,11.7,11.6c3.8,3.9,7.7,7.9,11.5,11.8c3.8,4,7.5,8,11.4,11.9l0,0c0,0,0,0.1,0,0.1
				c0,0-0.1,0-0.1,0c-4.4-3.4-8.4-7.2-12.4-10.9c-4-3.8-8-7.6-11.9-11.5c-3.9-3.9-7.7-7.8-11.5-11.8c-3.8-3.9-7.6-8-11.3-12
				c-3.7-4-7.5-8-11.4-11.9c-3.9-3.9-8-7.6-11.9-11.4c-3.9-3.8-7.7-7.8-11.5-11.8c-3.8-4-7.5-8.1-11.1-12.3c0,0,0-0.1,0-0.1
				C69.6,260.1,69.7,260.1,69.7,260.2z"/>
			<path d="M39.7,283.6c3.9,3.1,7.7,6.3,11.4,9.6c3.7,3.3,7.4,6.7,10.9,10.2c3.5,3.5,6.9,7.2,10.4,10.7c3.5,3.5,7.2,6.9,10.8,10.2
				c3.7,3.4,7.3,6.8,10.8,10.3c3.5,3.5,7,7,10.4,10.7c3.4,3.7,6.7,7.4,9.7,11.3c0.8,1,1.5,2,2.3,3c0.7,1,1.5,2,2.2,3.1
				c1.4,2.1,2.7,4.2,3.4,6.7c0,0.1,0,0.1-0.1,0.1c0,0-0.1,0-0.1-0.1l0,0c-1-2.3-2.5-4.2-4.1-6.1c-1.5-1.9-3.2-3.8-4.8-5.6
				c-3.3-3.7-6.7-7.3-10.1-10.9L82.4,325c-3.4-3.6-6.9-7.2-10.5-10.5c-3.6-3.4-7.4-6.6-11.1-9.9c-3.7-3.3-7.2-6.8-10.8-10.2
				s-7-7-10.5-10.6c0,0,0-0.1,0-0.1C39.6,283.6,39.6,283.6,39.7,283.6z"/>
			<path d="M39.5,345.8c-1.1-4.3-1.1-8.8-0.4-13.2c0.7-4.4,2.1-8.7,4.1-12.7c2.1-4,4.7-7.5,7.5-10.9c2.8-3.4,5.8-6.6,9-9.6
				c1.6-1.5,3.2-3,5-4.3c1.7-1.4,3.5-2.7,5.4-3.9c1.8-1.3,3.7-2.4,5.6-3.6c1.9-1.1,3.9-2.2,5.8-3.1c7.9-3.9,16.3-6.9,24.8-9.1
				c0.1,0,0.1,0,0.1,0.1c0,0,0,0.1-0.1,0.1c-8.1,3.3-16.1,6.8-23.9,10.8c-7.8,3.9-15.2,8.5-22,13.9c-3.4,2.7-6.6,5.8-9.2,9.2
				c-2.7,3.4-4.8,7.3-6.5,11.2c-1.8,3.9-3.2,8-4.1,12.2c-0.4,2.1-0.7,4.2-0.9,6.4c-0.2,2.2-0.2,4.3,0,6.5l0,0c0,0.1,0,0.1-0.1,0.1
				C39.6,345.9,39.5,345.9,39.5,345.8z"/>
			<path d="M143.4,307.1c-9.7-0.8-19.3-0.2-28.8,1.4c-4.7,0.8-9.5,1.9-14,3.7c-4.5,1.8-8.7,4.2-12.6,7.1c-0.9,0.7-1.9,1.4-2.8,2.2
				c-0.9,0.8-1.8,1.6-2.7,2.4c-1.7,1.7-3.5,3.3-5,5.1c-1.7,1.7-3.1,3.7-4.6,5.5c-0.7,1-1.4,2-2,2.9l-1,1.5c-0.3,0.5-0.6,1-0.9,1.5
				c-5.1,8.1-8.8,17.1-11.9,26.3c0,0.1-0.1,0.1-0.1,0.1c0,0-0.1-0.1-0.1-0.1c1.8-9.6,5.2-18.9,10.2-27.3c0.3-0.5,0.6-1.1,1-1.6
				l1.1-1.5c0.7-1,1.4-2,2.1-3c1.6-1.9,3.1-3.8,4.8-5.6c1.6-1.8,3.5-3.4,5.4-5c1-0.8,1.9-1.5,2.9-2.2c1-0.7,2-1.4,3.1-2
				c4.1-2.6,8.5-4.8,13-6.8c4.5-1.9,9.1-3.6,13.9-4.7c4.8-1.1,9.7-1.5,14.6-1.6c4.9,0,9.8,0.4,14.5,1.6c0.1,0,0.1,0.1,0.1,0.1
				C143.5,307.1,143.4,307.1,143.4,307.1L143.4,307.1z"/>
			<path d="M161.1,322.8c-10.8,1-21.3,3.2-31.6,6.4c-5.1,1.6-10.2,3.4-15,5.8c-4.8,2.4-9.3,5.5-13.3,9.1c-4,3.6-7.7,7.5-10.9,11.8
				c-3.1,4.3-5.8,9-8,13.8c-4.3,9.8-6.6,20.4-7.6,31.1c0,0.1-0.1,0.1-0.1,0.1c-0.1,0-0.1,0-0.1-0.1c-0.2-10.8,1.6-21.8,5.9-32
				c2.2-5,5.1-9.7,8.4-14.1c3.4-4.3,7.4-8.2,11.7-11.5c4.3-3.3,8.9-6.2,13.7-8.8c4.8-2.6,9.7-5,14.8-6.8c5.1-1.8,10.5-3.1,15.8-4
				c5.4-0.8,10.8-1.3,16.3-1.1C161.2,322.6,161.2,322.6,161.1,322.8C161.2,322.7,161.2,322.8,161.1,322.8z"/>
			<polygon points="177.4,172.3 190.5,211.4 221.3,204.1 212.9,164.7 			"/>
			<path d="M202.8,249.6l13.4,42.4c0,0,17.9-3.8,23.4-2.8l-9.9-45.8L202.8,249.6z"/>
			<polygon points="152.9,224.2 171.1,261.1 202.8,249.6 190.5,211.4 			"/>
			<path d="M134.1,186.5l-18.6-36.8c0,0,39-16.7,47.1-16.6l14.7,39.1C177.4,172.3,156.5,179,134.1,186.5z"/>
			<polygon points="95.9,211.5 118.5,242.6 152.9,224.2 134.1,186.5 			"/>
			<path d="M143.8,278.5l25.2,36.3c0,0,12.5-10.7,20.5-13.9l-18.4-39.8C171.1,261.1,149.9,271.8,143.8,278.5z"/>
			<path d="M39.6,219.5l28.8,24c0,0,15.5-24.1,27.6-32l-26.3-33.7C69.7,177.8,45.9,197,39.6,219.5z"/>
			<path d="M95.9,266.6c0,0,11.1-17.9,22.6-24l25.3,35.9c0,0-10,10.7-12.3,18.3L95.9,266.6z"/>
			<path d="M183.1,304.3c0,0,10.6,12.5,10.3,23.7c0,0-2.4-2.3-6.6-1.1c-4.2,1.2-17.5,6.2-20.1,1.1S164.4,312.5,183.1,304.3z"/>
			<path d="M143.4,307c0,0-19.2-3-27.2,0.6l18.9,19.1c0,0,20.2-4.2,26.1-4L143.4,307z"/>
			<polygon points="106.4,275.4 90.4,281.4 69.7,260.2 81.9,254.8 			"/>
			<path d="M58.5,301.2l23.2,22.3c0,0,15.3-14.4,34.5-15.9l-25.7-26.2C90.4,281.4,64.8,292.3,58.5,301.2z"/>
			<path d="M101.2,343.3c0,0,18.6,18.4,20.7,25.9c0,0,29.8-13.3,39.2-14.9L135,326.7C135,326.7,107.6,335.1,101.2,343.3z"/>
			<path d="M56.9,366.7c0,0,9.9,16.7,12.7,23.4s5,10.7,5,10.7s0.1-39,26.6-57.5l-19.6-19.8C81.7,323.5,61.6,343.9,56.9,366.7z"/>
			<path d="M58.5,301.2l-18.9-17.5c0,0-18.2,22.2-14,53.6c0,0,7.6,2.1,13.5,8.1C39.1,345.4,33.1,322.6,58.5,301.2z"/>
		</g>
	</g>
</g>
</svg>
