<?xml version="1.0" encoding="utf-8"?>
<!-- Generator: Adobe Illustrator 25.4.1, SVG Export Plug-In . SVG Version: 6.00 Build 0)  -->
<svg version="1.1" id="Capa_1" xmlns="http://www.w3.org/2000/svg" xmlns:xlink="http://www.w3.org/1999/xlink" x="0px" y="0px"
	 viewBox="0 0 493.9 381.9" style="enable-background:new 0 0 493.9 381.9;" xml:space="preserve">
<style type="text/css">
	.st0{fill:#0049E5;}
	.st1{fill:#FAE058;}
	.st2{fill:#ECCEFF;}
	.st3{fill:#77F169;}
	.st4{fill:#F089C0;}
</style>
<g>
	<path class="st0" d="M413.5,321.7c0,0-53.2,39.2-103.1,33.6s-86.6-26.6-86.6-26.6s23.7,51.4,87.1,47.4
		C374.3,372.1,411.8,345.4,413.5,321.7z"/>
	<path class="st0" d="M428.9,195.3l-5.3,27.4c0,0-81.6,39.2-153.1,12.3s-2,0-2,0S398.2,257.1,428.9,195.3z"/>
	<path class="st0" d="M210.7,224.7c0,0,6.1,34.3,4.7,44.7s-2.2,28.4-2.2,28.4s66.9,35.3,111.6,30.4s91.7-21.9,96.6-34.2
		c4.9-12.3-2.9-53.3-2.9-53.3s-57.7,28.5-94.5,26.2C260.6,263.1,210.7,224.7,210.7,224.7z"/>
	<path class="st1" d="M59.4,212.6c-10.4,8.1-2.9,13.5-12.2,20c-9.3,6.5-7.3,5.6-13.2,12.2c-5.9,6.6-0.1,15.3,0,30.5
		s10.9,32.3,27.3,36.2c16.5,3.9,75.2-3.2,96.8-6.3s50.4-9.4,50.4-9.4s-2.2-25.1-2-43.9c0.1-18.8-4.2-50.4-4.2-50.4
		s-19.9-1.7-20.4-6.2c-0.5-4.5-28.5-13.1-38.2-7.9c-9.8,5.2-34.4,0.5-45.1,5.2S59.4,212.6,59.4,212.6z"/>
	<path d="M314.6,134c-11.2,0.1-22.4,0.8-33.5,2.3c-11.1,1.6-22.1,3.9-32.6,7.5c-5.3,1.8-10.4,4-15.4,6.5c-4.9,2.6-9.6,5.7-13.6,9.4
		l-1.5,1.4l-1.4,1.5c-1,1-1.8,2.1-2.6,3.2c-0.4,0.5-0.8,1.1-1.2,1.7l-1.1,1.7c-0.3,0.6-0.6,1.2-0.9,1.8c-0.3,0.6-0.7,1.2-0.9,1.8
		c-2.1,5-3,10.6-2.6,16c0.4,5.4,2.1,10.8,5.2,15.4c3,4.6,7.1,8.5,11.6,11.8c9,6.5,19.5,10.9,30.2,14.2c5.4,1.6,10.8,3,16.3,4.2
		c5.5,1.1,11,2.1,16.5,2.9c5.5,0.8,11.1,1.4,16.7,1.8c5.6,0.4,11.2,0.7,16.8,0.9c5.6,0.1,11.2,0.2,16.8-0.1c5.6-0.3,11.1-1,16.6-1.9
		c11-1.9,21.8-4.9,32.1-9.1c10.3-4.2,20.2-9.5,28.7-16.7c2.1-1.8,4.1-3.7,5.9-5.7c1.8-2.1,3.5-4.2,4.9-6.6c1.3-2.4,2.5-4.8,3.1-7.4
		c0.6-2.6,0.8-5.3,0.5-8c-0.7-5.4-3.1-10.4-6.5-14.7c-3.4-4.3-7.5-8-12-11.2c-9-6.4-19.3-11-29.9-14.6c-5.3-1.8-10.7-3.3-16.1-4.5
		c-2.7-0.7-5.5-1.2-8.2-1.7c-2.8-0.5-5.5-1-8.3-1.4c-5.5-0.9-11.1-1.4-16.7-1.8C325.8,134.2,320.2,134.1,314.6,134z M314.6,133.8
		c11.2,0,22.4,0.6,33.6,2c2.8,0.3,5.6,0.8,8.3,1.2c2.8,0.5,5.5,1,8.3,1.6c5.5,1.2,11,2.5,16.3,4.2c10.7,3.3,21.2,7.9,30.6,14.3
		c4.7,3.2,9,7,12.5,11.6c3.5,4.5,6.2,9.9,6.9,15.7c0.3,2.9,0.2,5.9-0.5,8.7c-0.7,2.9-1.9,5.5-3.3,8c-1.4,2.5-3.2,4.8-5.1,6.9
		c-1.9,2.1-4,4.1-6.2,5.9c-8.7,7.3-18.9,12.6-29.3,16.8c-21,8.4-43.8,11.8-66.2,10.5c-11.2-0.4-22.4-1.5-33.5-3.1
		c-11.1-1.6-22.1-3.9-32.9-7.1c-5.4-1.6-10.7-3.5-15.8-5.8c-5.1-2.3-10.2-4.9-14.8-8.2c-4.6-3.3-8.8-7.2-12.1-11.9
		c-3.3-4.7-5.3-10.3-5.7-16c-0.4-5.7,0.5-11.5,2.7-16.8c2.2-5.3,5.8-10,10-13.8c4.2-3.9,9-7,14-9.5c5-2.6,10.3-4.6,15.7-6.3
		c10.7-3.4,21.8-5.5,33-6.9C292.2,134.5,303.4,133.8,314.6,133.8z"/>
	<path d="M311.5,139.3c-9.9,0.1-19.9,0.7-29.7,2.2c-9.8,1.5-19.5,3.8-28.7,7.4c-4.6,1.8-9.1,3.9-13.3,6.4c-4.2,2.6-8.1,5.5-11.4,9.2
		c-1.6,1.8-3,3.8-4.2,5.9c-1.2,2.1-2.1,4.3-2.7,6.7c-0.6,2.3-0.8,4.7-0.8,7.1c0,2.4,0.5,4.8,1.2,7.1c0.7,2.3,1.8,4.5,3,6.6
		c0.7,1,1.3,2.1,2,3l1.1,1.5l1.2,1.4c3.2,3.7,7,6.9,11,9.7c8.1,5.6,17.2,9.8,26.6,12.9c4.7,1.5,9.5,2.9,14.3,3.9
		c4.8,1,9.7,1.9,14.6,2.5c9.8,1.3,19.8,1.8,29.7,1.6c19.8-0.3,39.7-3.4,57.9-11c9-3.9,17.6-9,24.4-16c1.6-1.8,3.2-3.6,4.6-5.6
		c1.3-2,2.5-4.1,3.4-6.3c0.8-2.2,1.4-4.6,1.5-6.9c0.1-2.4-0.2-4.7-1-6.9c-0.8-2.2-2-4.3-3.3-6.3c-1.4-2-3-3.8-4.7-5.5
		c-3.4-3.4-7.4-6.4-11.5-9c-8.3-5.3-17.4-9.2-26.8-12.3c-4.7-1.5-9.5-2.9-14.3-4c-4.8-1.1-9.7-2.1-14.6-2.8
		c-4.9-0.7-9.8-1.3-14.8-1.6C321.4,139.5,316.4,139.3,311.5,139.3z M311.5,139.1c9.9,0,19.9,0.6,29.7,1.8c9.9,1.2,19.7,3.2,29.2,6.1
		c9.6,2.9,18.8,6.7,27.4,12c4.3,2.6,8.3,5.6,11.9,9.2c1.8,1.8,3.5,3.7,4.9,5.8c1.4,2.1,2.7,4.4,3.6,6.8c0.8,2.4,1.3,5.1,1.1,7.7
		c-0.1,2.6-0.7,5.2-1.6,7.6c-0.9,2.4-2.2,4.7-3.6,6.8c-1.4,2.1-3.1,4-4.8,5.9c-7.2,7.2-16,12.4-25.2,16.3c-9.3,3.9-19,6.4-28.8,8
		c-9.8,1.6-19.8,2.4-29.8,2.4c-19.9,0-39.9-2.4-58.9-8.5c-4.7-1.5-9.4-3.3-13.9-5.4c-4.5-2.1-8.9-4.5-13.1-7.2
		c-4.2-2.8-8.1-6-11.4-9.7l-1.2-1.4c-0.4-0.5-0.8-1-1.2-1.5c-0.8-1-1.5-2.1-2.2-3.1c-0.3-0.5-0.6-1.1-0.9-1.7
		c-0.3-0.6-0.6-1.1-0.9-1.7l-0.8-1.7l-0.6-1.8c-0.8-2.4-1.3-5-1.4-7.5c-0.1-2.6,0.1-5.1,0.8-7.6c1.2-5,3.9-9.6,7.3-13.3
		c3.4-3.8,7.5-6.8,11.8-9.3c4.3-2.6,8.9-4.6,13.6-6.3c9.4-3.4,19.2-5.4,29.1-6.7c4.9-0.6,9.9-1.1,14.8-1.4
		C301.5,139.2,306.5,139.1,311.5,139.1z"/>
	<path d="M224.8,198.9c0-15,42-43.3,90.5-43.3s97.3,22.1,97.3,47.7c0,0-19.8,31.6-93.5,31.6S224.8,198.9,224.8,198.9z"/>
	<path d="M206.5,190.9c-0.3,2.6-0.6,5.3-0.7,7.9c-0.1,2.6-0.2,5.3,0,7.9c0.1,1.3,0.3,2.6,0.5,3.9c0.1,0.6,0.4,1.2,0.5,1.9
		c0.2,0.7,0.4,1.3,0.5,2c0.6,2.6,0.9,5.2,1.2,7.9c1.2,10.5,1.9,21.1,2.4,31.7c0.2,5.3,0.4,10.6,0.4,15.9c0,2.7,0,5.3-0.1,8
		c-0.1,2.7-0.2,5.2-0.2,7.9c0.4,10.4,2.7,20.8,6.5,30.6c3.7,9.8,9.1,19,15.9,27c3.4,4,7.2,7.6,11.3,11c4,3.4,8.5,6.2,13.1,8.7
		l3.5,1.8c1.2,0.6,2.4,1.1,3.6,1.6c2.4,1.1,4.9,2,7.3,2.9c1.2,0.5,2.5,0.8,3.8,1.2c1.3,0.4,2.5,0.8,3.8,1.1l3.8,0.9
		c0.6,0.1,1.3,0.3,1.9,0.5l1.9,0.4c10.4,2,20.9,2.5,31.5,2.2c10.5-0.3,21-1.6,31.3-4c5.1-1.3,10.1-2.8,15-4.8
		c2.5-0.9,4.8-2.1,7.2-3.1c2.3-1.2,4.7-2.3,6.9-3.7c2.3-1.3,4.5-2.7,6.6-4.2c2.1-1.5,4.2-3.1,6.2-4.8c4-3.3,7.8-7,11.1-11
		c6.7-8,12.1-17.1,15.5-27c1.7-4.9,2.9-10,3.3-15.2c0.1-2.5,0.1-5.2,0.1-7.9l0-7.9c-0.1-10.6-0.1-21.2,0.1-31.7
		c0.1-5.3,0.3-10.6,0.7-15.9c0.4-5.3,0.9-10.6,1.9-15.8c0.2-1.3,0.5-2.6,0.8-3.9l0.9-3.9c0.6-2.6,1.1-5.2,1.6-7.8
		c1-5.2,1.8-10.4,1.9-15.7c0-0.1,0-0.1,0.1-0.1c0.1,0,0.1,0,0.1,0.1c0,5.3-0.7,10.6-1.5,15.8c-0.4,2.6-0.9,5.2-1.4,7.8
		c-0.5,2.6-1.1,5.2-1.6,7.8c-0.9,5.2-1.3,10.4-1.6,15.7c-0.3,5.3-0.3,10.5-0.4,15.8c-0.1,10.6,0.1,21.1,0.2,31.7l0.1,7.9
		c0,2.7,0.1,5.3-0.1,8c-0.4,5.4-1.6,10.7-3.3,15.7c-1.7,5.1-3.9,10-6.6,14.6c-2.7,4.6-5.7,9.1-9.2,13.1c-3.5,4.1-7.3,7.8-11.5,11.2
		c-2,1.7-4.2,3.3-6.4,4.8c-2.2,1.4-4.5,2.9-6.8,4.2c-2.3,1.4-4.7,2.5-7.1,3.7c-2.5,1-4.9,2.2-7.4,3.1c-5,1.9-10.1,3.3-15.3,4.6
		c-10.4,2.3-21,3.5-31.6,3.6c-10.6,0.2-21.2-0.6-31.6-2.6c-10.4-2-20.5-5.5-29.9-10.5c-9.3-5-17.8-11.7-24.9-19.6
		c-7-8-12.7-17.2-16.6-27.1c-2-5-3.5-10.1-4.7-15.3c-1.1-5.2-1.9-10.5-2-15.9c-0.1-2.7,0.1-5.4,0.2-8c0.1-2.6,0.2-5.3,0.2-7.9
		c0-5.3-0.1-10.5-0.3-15.8c-0.4-10.5-0.9-21.1-1.9-31.6c-0.3-2.6-0.6-5.2-1-7.8c-0.1-0.7-0.3-1.3-0.4-1.9c-0.1-0.6-0.4-1.3-0.5-2
		c-0.3-1.3-0.4-2.7-0.5-4c-0.2-5.3,0.4-10.6,1.2-15.8c0-0.1,0.1-0.1,0.1-0.1C206.4,190.8,206.5,190.9,206.5,190.9z"/>
	<path d="M236.5,224c7.6,2.9,15.2,5.9,22.9,8.4c3.8,1.3,7.7,2.4,11.6,3.5l5.9,1.6c2,0.5,3.9,1,5.9,1.4c7.9,1.9,15.9,3.4,24,4.3
		c8.1,0.9,16.2,1.1,24.3,0.7c8.1-0.4,16.2-1.1,24.2-2.3c2-0.3,4-0.7,6-1c1-0.2,2-0.3,3-0.5l3-0.6c2-0.4,4-0.8,5.9-1.3l5.9-1.4
		c15.7-4,31-9.6,45.9-16.2c0.1,0,0.1,0,0.1,0c0,0,0,0.1,0,0.1c-7.2,3.8-14.5,7.4-22.2,10.4c-7.6,3.1-15.4,5.6-23.3,7.7
		c-7.9,2.1-16,3.5-24.1,4.6c-8.1,1.1-16.3,1.5-24.4,1.5c-2,0-4.1,0-6.1-0.1c-2-0.1-4.1-0.2-6.1-0.2l-6.1-0.4l-6.1-0.5
		c-8.1-0.7-16.2-1.7-24.2-3.3c-16-3.3-31.5-9.1-46-16.3l0,0c0,0-0.1-0.1,0-0.1C236.4,224,236.5,224,236.5,224z"/>
	<path d="M208.5,222.6c3.6,3.2,7.5,6.2,11.5,9c4,2.8,8.1,5.4,12.3,7.9c4.2,2.5,8.5,4.8,12.8,6.9c4.4,2.2,8.8,4.1,13.3,6
		c4.5,1.9,9,3.6,13.6,5.2c2.3,0.8,4.6,1.5,7,2.2l3.5,1c1.2,0.3,2.3,0.6,3.5,0.9c9.5,2.3,19.2,3.6,28.9,4.2c2.4,0.2,4.9,0.2,7.3,0.3
		c1.2,0.1,2.4,0,3.6,0l3.6,0c2.4,0,4.9-0.1,7.3-0.2l7.3-0.2c2.4-0.1,4.8-0.4,7.3-0.6l3.6-0.3c1.2-0.1,2.4-0.2,3.6-0.4
		c4.8-0.7,9.6-1.2,14.4-2.2c9.5-1.8,19-4.3,27.8-8.3l3.2-1.6c1.1-0.6,2.2-1,3.2-1.7l3.1-1.9c1-0.6,2-1.4,3-2.1
		c0.5-0.4,1-0.7,1.5-1.1l1.4-1.2l1.4-1.2l1.3-1.3c1.7-1.7,3.4-3.5,4.6-5.6l0,0c0,0,0.1-0.1,0.1,0c0,0,0.1,0.1,0,0.1
		c-1.1,2.2-2.6,4.2-4.3,6l-1.3,1.4l-1.4,1.2l-1.4,1.2c-0.5,0.4-1,0.8-1.5,1.1c-1,0.7-1.9,1.5-3,2.2l-3.1,2c-1,0.7-2.1,1.2-3.2,1.8
		l-3.3,1.7c-2.3,1-4.5,2-6.8,2.9l-7,2.5c-4.7,1.4-9.5,2.7-14.3,3.6c-4.8,1.1-9.7,1.6-14.6,2.2c-1.2,0.2-2.4,0.2-3.7,0.3l-3.7,0.3
		c-2.4,0.2-4.9,0.4-7.3,0.5c-4.9,0.1-9.8,0.2-14.7,0.2c-4.9-0.1-9.8-0.4-14.7-0.9c-9.7-0.9-19.4-2.5-28.9-4.7
		c-9.5-2.1-19-4.8-28.1-8.3c-9.1-3.6-17.9-8-26.3-13.2c-4.2-2.6-8.2-5.4-12.1-8.4c-2-1.5-3.8-3-5.7-4.7c-1.8-1.6-3.7-3.3-5.3-5
		c0,0,0-0.1,0-0.1C208.4,222.5,208.5,222.5,208.5,222.6z"/>
	<path d="M423.5,169.4c1.9-0.7,3.8-1.3,5.7-1.7c1.9-0.5,3.9-0.8,5.9-1.1c4-0.5,8-0.7,12-0.2c4,0.4,8,1.3,11.7,2.9
		c0.9,0.4,1.9,0.8,2.8,1.3c0.9,0.5,1.8,1,2.6,1.6c1.7,1.1,3.3,2.5,4.6,4.1c1.3,1.6,2.3,3.6,2.8,5.6c0.1,0.5,0.2,1,0.3,1.5
		c0.1,0.5,0.1,1,0.2,1.5c0,0.5,0.1,0.9,0.2,1.4c0,0.5,0.2,0.9,0.3,1.4c0.6,1.8,1.4,3.6,2.3,5.4c0.9,1.8,1.8,3.6,2.6,5.4
		c1.7,3.6,3,7.4,3.5,11.4c0.5,4,0.2,8.1-1.1,11.9c-0.7,1.9-1.5,3.8-2.4,5.5c-1,1.8-2,3.5-3.2,5.1c-2.2,3.3-4.6,6.5-7.1,9.6
		c-4.9,6.2-10.1,12.3-15.3,18.3c-5.2,6-10.5,11.9-15.5,18c-2.5,3.1-5,6.1-7.3,9.3c-1.1,1.6-2.3,3.2-3.3,4.9c-1,1.7-1.9,3.4-2.4,5.4
		c0,0.1-0.1,0.1-0.1,0.1c-0.1,0-0.1-0.1-0.1-0.1c0.3-2,1.2-3.8,2.1-5.6c0.9-1.8,1.9-3.5,3-5.2c2.2-3.3,4.5-6.6,6.9-9.7
		c4.9-6.3,10-12.4,15.1-18.4c5.2-6,10.4-12,15.4-18.1c2.5-3.1,5-6.1,7.3-9.3c1.2-1.6,2.2-3.2,3.3-4.9c1-1.7,1.8-3.4,2.6-5.2
		c1.4-3.6,1.9-7.6,1.5-11.5c-0.4-3.9-1.7-7.7-3.4-11.2c-0.9-1.8-1.8-3.5-2.7-5.3c-0.9-1.7-1.9-3.5-2.6-5.4c-0.4-0.9-0.5-2.1-0.7-3
		c-0.1-0.5-0.1-0.9-0.2-1.4c-0.1-0.5-0.2-0.9-0.3-1.4c-0.5-1.8-1.5-3.5-2.7-4.9c-1.2-1.5-2.7-2.7-4.3-3.7c-1.6-1.1-3.3-1.9-5.1-2.7
		c-3.6-1.5-7.4-2.5-11.2-3c-3.9-0.5-7.8-0.6-11.7-0.2c-3.9,0.3-7.8,0.9-11.7,2c-0.1,0-0.1,0-0.1-0.1
		C423.5,169.4,423.5,169.4,423.5,169.4z"/>
	<path d="M423.5,244.5c1.5-7.3,3.7-14.6,6.6-21.5c2.9-6.9,6.6-13.7,11.9-19.3c2.6-2.8,5.7-5.1,9.2-6.8c3.5-1.6,7.3-2.4,11.1-2.1
		c1.9,0.1,3.8,0.5,5.5,1.4c1.7,0.9,3.1,2.4,3.9,4.1c0.8,1.8,1.2,3.7,1.2,5.6c0,1.9-0.1,3.8-0.5,5.7c-0.7,3.7-1.8,7.4-3.3,10.9
		c-1.4,3.5-3.1,6.9-5,10.2c-3.7,6.6-7.9,12.8-12.5,18.8c-2.3,3-4.7,5.9-7.2,8.7c-2.5,2.8-5,5.5-7.4,8.4c-4.8,5.7-9.4,11.6-13.7,17.7
		c0,0-0.1,0.1-0.1,0c0,0-0.1-0.1,0-0.1c3.7-6.5,8-12.7,12.7-18.6c2.3-3,4.8-5.8,7.2-8.7c2.4-2.9,4.7-5.8,7-8.7
		c4.5-5.9,8.8-12,12.6-18.4c1.9-3.2,3.6-6.5,5.2-9.9c1.5-3.4,2.9-6.8,3.7-10.4c0.4-1.8,0.6-3.6,0.7-5.5c0-1.8-0.3-3.7-1-5.3
		c-0.7-1.6-2-3-3.6-3.9c-1.6-0.9-3.4-1.3-5.3-1.3c-3.7-0.2-7.4,0.7-10.6,2.4c-3.2,1.7-6,4.2-8.5,6.9c-4.9,5.5-8.6,12-11.7,18.8
		c-3.1,6.8-5.6,13.8-7.8,21c0,0.1-0.1,0.1-0.1,0.1C423.5,244.6,423.5,244.6,423.5,244.5z"/>
	<path d="M459.4,195.3c-0.5,2.3-1.4,4.5-2.4,6.7c-1,2.1-2.1,4.2-3.4,6.2c-0.7,1-1.4,1.9-2.1,2.9c-0.7,0.9-1.5,1.9-2.1,2.8
		c-1.4,1.9-2.7,3.9-4,5.8c-2.6,4-5.6,7.6-9,11c-3.4,3.3-7.2,6.2-11.3,8.6c0,0-0.1,0-0.1,0c0,0,0-0.1,0-0.1c3.3-3.4,6.7-6.5,9.9-9.9
		c1.7-1.6,3.2-3.3,4.9-5c0.8-0.9,1.5-1.7,2.4-2.6c0.8-0.8,1.6-1.7,2.4-2.6c1.6-1.7,3-3.6,4.3-5.5c1.3-2,2.3-4.1,3.3-6.2
		c0.6-1,1.1-2.1,1.7-3c0.6-1,1.2-2,1.8-3c1.2-2,2.3-4,3.6-6c0,0,0.1-0.1,0.1,0C459.4,195.2,459.4,195.3,459.4,195.3z"/>
	<path d="M211.1,294.6c3.7,3,7.8,5.5,11.9,8c2.1,1.2,4.1,2.4,6.3,3.4l3.2,1.6l3.2,1.5c8.7,4,17.6,7.3,26.8,10
		c9.1,2.7,18.4,5.1,27.9,6.4l7.1,1l7.2,0.5c2.4,0.2,4.8,0.4,7.2,0.4l7.2,0.1l3.6,0c1.2,0,2.4,0,3.6,0l7.2-0.3l3.6-0.2l1.8-0.1
		l1.8-0.2l7.1-0.7l3.6-0.4l3.5-0.6l7-1.2c1.2-0.2,2.3-0.5,3.5-0.8l3.5-0.8l3.5-0.8c1.2-0.3,2.3-0.7,3.4-1c9.2-2.5,18-6.2,26.2-10.9
		c1.1-0.5,2-1.2,3-1.9l3-1.9c1-0.7,1.9-1.4,2.9-2.1l1.4-1.1c0.5-0.4,0.9-0.8,1.4-1.1c3.7-3,7.1-6.4,9.8-10.3l0,0c0,0,0.1-0.1,0.1,0
		c0,0,0.1,0.1,0,0.1c-2.5,4.2-5.7,7.8-9.3,11c-0.4,0.4-0.9,0.8-1.3,1.2l-1.4,1.1c-0.9,0.8-1.9,1.5-2.8,2.3l-3,2.1c-1,0.7-2,1.4-3,2
		c-8.2,5.1-17.2,9-26.4,11.6c-1.2,0.3-2.3,0.7-3.5,1l-3.5,0.8c-2.4,0.5-4.7,1.1-7.1,1.6l-7.1,1.1l-3.6,0.5l-3.6,0.3l-7.2,0.6
		l-1.8,0.1l-1.8,0l-3.6,0.1l-7.2,0.1c-1.2,0-2.4,0-3.6-0.1l-3.6-0.2l-7.2-0.3c-1.2,0-2.4-0.2-3.6-0.3l-3.6-0.3l-7.2-0.6l-7.1-1
		c-4.8-0.5-9.5-1.4-14.2-2.2l-1.8-0.3c-0.6-0.1-1.2-0.3-1.8-0.4l-3.5-0.8l-3.5-0.8l-1.8-0.4l-1.7-0.5l-6.9-2
		c-2.3-0.7-4.5-1.6-6.8-2.4c-2.3-0.8-4.5-1.8-6.7-2.7c-1.1-0.5-2.2-0.9-3.3-1.4l-3.2-1.6c-8.6-4.3-16.9-9.3-24-15.8c0,0,0-0.1,0-0.1
		C211,294.5,211.1,294.5,211.1,294.6L211.1,294.6z"/>
	<path d="M418.5,317.5c-6.3,6.4-13.8,11.5-21.5,16c-3.9,2.3-7.9,4.2-12,6.1l-6.2,2.6c-2.1,0.8-4.2,1.5-6.4,2.2
		c-1.1,0.3-2.1,0.7-3.2,1l-3.2,0.9l-3.2,0.9c-1.1,0.3-2.2,0.6-3.3,0.8c-4.4,0.9-8.8,1.9-13.2,2.5l-6.6,1l-6.7,0.7l-3.3,0.3
		c-1.1,0.2-2.2,0.2-3.3,0.3l-6.7,0.3l-3.4,0.2c-1.1,0-2.2,0-3.4,0l-6.7-0.1c-2.2,0-4.5-0.2-6.7-0.3l-6.7-0.5
		c-8.9-1.1-17.8-2.4-26.5-4.9c-8.7-2.4-17.1-5.6-25.1-9.7c-4-2.1-7.9-4.3-11.6-6.9c-3.7-2.5-7.3-5.3-10.4-8.5c0,0,0-0.1,0-0.1
		c0,0,0.1,0,0.1,0l0,0c3.3,3,7,5.5,10.8,7.8c3.8,2.4,7.7,4.4,11.7,6.3c8,3.8,16.4,6.7,25,9c8.5,2.4,17.3,3.9,26.1,5.1l6.6,0.6
		c2.2,0.2,4.4,0.5,6.6,0.5l6.7,0.3c1.1,0,2.2,0.1,3.3,0.1l3.3,0c4.4-0.1,8.9,0,13.3-0.5l6.7-0.6c2.2-0.3,4.4-0.7,6.6-1.1
		c4.4-0.6,8.7-1.9,13-2.9c1.1-0.2,2.1-0.6,3.2-0.9l3.2-1l3.2-1c1.1-0.3,2.1-0.8,3.1-1.1c8.4-2.9,16.5-6.5,24.4-10.7
		c7.8-4.2,15.4-9,22.1-14.8l0,0c0,0,0.1,0,0.1,0C418.5,317.4,418.5,317.5,418.5,317.5z"/>
	<path d="M278.6,281.8c-13-5.8-19.6,16.1-7.3,21C283.5,307.6,297.5,290.2,278.6,281.8z"/>
	<path d="M346.8,284.9c-11.2,0.9-21.7,19.6-3.1,20.3C362.1,305.9,359.7,283.9,346.8,284.9z"/>
	<path d="M418.4,267.1c-0.5-9.4-10.5-4.5-9.8,8.7C409.3,289.1,419.1,280,418.4,267.1z"/>
	<path d="M219.2,274.8c-0.8,8.4,8,13.4,9,6C229.3,273.4,220.4,262.9,219.2,274.8z"/>
	<path d="M205.3,201.8c-1.7-1.7-3.7-3.1-5.9-3.7c-1.1-0.3-2.3-0.1-3.3,0.5c-1.1,0.5-2.4,0.8-3.6,0.8c-1.2,0-2.5-0.4-3.5-1.2
		c-0.5-0.4-1-0.9-1.2-1.5c-0.1-0.1-0.1-0.3-0.2-0.5c0-0.2-0.1-0.3-0.1-0.5c0-0.1,0-0.4-0.1-0.5c0,0,0-0.1-0.1-0.2
		c-0.3-0.4-0.8-0.7-1.2-1.1c-0.5-0.3-1-0.6-1.5-0.9c-1-0.6-2.1-1.1-3.2-1.6c-4.3-2-8.8-3.6-13.3-4.9c-4.6-1.3-9.2-2.4-13.9-2.5
		c-1.2,0-2.3,0-3.4,0.2c-1.1,0.2-2.2,0.5-3.3,0.9c-2.2,0.7-4.3,1.7-6.2,3.1c-0.5,0.3-0.9,0.7-1.5,1c-0.2,0.1-0.3,0.2-0.5,0.3
		c-0.2,0.1-0.4,0.2-0.7,0.2c-0.3,0-0.6-0.1-0.8-0.2c-0.3-0.1-0.4-0.3-0.5-0.4c-0.3-0.3-0.5-0.6-0.7-0.8c-0.2-0.2-0.4-0.6-0.4-0.6
		c-0.2-0.2-0.7-0.4-1.2-0.6c-2.1-0.5-4.5-0.5-6.9-0.4c-4.7,0.2-9.4,0.8-14.1,1.6c-4.7,0.8-9.4,1.8-13.8,3.3
		c-1.1,0.4-2.2,0.8-3.1,1.4c-0.4,0.3-0.9,0.6-1.4,1l-1.5,1c-2,1.4-4.1,2.7-6.5,3.5c-1.2,0.4-2.3,0.7-3.4,1.1
		c-1.1,0.3-2.2,0.8-3.3,1.2c-2.2,0.9-4.4,1.9-6.5,2.9c-4.3,2-8.6,4.1-12.7,6.5c-2.1,1.2-4.1,2.5-6,3.9c-1,0.7-1.9,1.4-2.8,2.2
		c-0.9,0.8-1.7,1.6-2.4,2.5c-0.3,0.5-0.6,1-0.8,1.5c-0.1,0.3-0.1,0.5-0.2,0.8l0,0.9c0,1.2,0,2.4,0.1,3.6c0,0.6,0.1,1.2,0,1.9
		c-0.1,0.3-0.2,0.7-0.5,0.9c-0.2,0.2-0.5,0.4-0.8,0.6c-1.1,0.6-2.3,0.9-3.3,1.5c-1,0.6-1.8,1.4-2.4,2.4c-0.6,1-1,2.1-1.4,3.2
		c-0.5,1.1-0.9,2.3-1.9,3.2c-0.5,0.4-1.3,0.6-1.7,0.8c-0.5,0.2-0.9,0.6-1.4,1c-1.7,1.6-3.2,3.5-4.5,5.4c-1.3,2-2.4,4.1-3.3,6.2
		c-0.9,2.2-1.5,4.5-1.4,6.8c0.1,1.1,0.4,2.2,1.1,3.1c0.7,1,1.4,2,2,3c1.3,2.1,2.3,4.3,3,6.6c0.7,2.3,1.1,4.8,1.3,7.2
		c0,0.6,0,1.2,0.1,1.8c0,0.3,0,0.5,0.1,0.8c0.1,0.3,0.1,0.5,0.2,0.8c0.3,1.1,0.8,2.1,1.3,3.2c1,2.1,2.3,4.1,3.5,6.1
		c2.6,4,5.4,7.8,8.4,11.5c3,3.7,6.2,7.2,9.5,10.6c3.4,3.3,6.9,6.5,10.8,9.2c3.8,2.7,8,5,12.4,6.3c0.6,0.1,1.1,0.3,1.7,0.4l1.7,0.3
		c1.2,0.2,2.3,0.5,3.5,0.6c2.3,0.4,4.7,0.7,7,0.8c1.2,0.1,2.3,0,3.4-0.1c0.5-0.1,1.1-0.2,1.6-0.3c0.5-0.1,1.2-0.4,2-0.4
		c1.6,0,2.7,0.7,3.8,1c1,0.4,2.2,0.7,3.3,0.9c4.6,1,9.3,1.5,14.1,1.7c2.4,0.1,4.7,0.2,7.1,0.2c2.4,0,4.7-0.1,7-0.5
		c1.1-0.2,2.3-0.4,3.3-0.8l0.8-0.3c0.2-0.1,0.5-0.2,0.7-0.4c0.5-0.3,0.6-0.5,1.1-1.1c0.2-0.3,0.5-0.5,0.8-0.7
		c0.3-0.2,0.6-0.4,0.9-0.6c0.3-0.2,0.7-0.3,1-0.4l0.5-0.1l0.5,0c1.4,0,2.7,0.5,3.8,0.9c2.2,0.9,4.4,2,6.5,1.7
		c2.5-0.2,4.9-0.2,7.2-0.2c4.7-0.1,9.5-0.3,13.9-1.9c0.5-0.2,1.1-0.4,1.6-0.7c0.5-0.3,1-0.5,1.5-0.9c0.5-0.3,0.9-0.6,1.4-1l1.4-1.2
		c1.8-1.5,3.6-3.1,5.7-4.5c1-0.7,2.1-1.3,3.3-1.7c1.2-0.4,2.5-0.6,3.7-0.5c0.6,0,1.2,0.1,1.8,0.2c0.6,0.1,1.2,0.3,1.8,0.3
		c1.1,0.2,2.3,0.1,3.4-0.2c2.3-0.6,4.4-1.7,6.4-3c2-1.3,3.8-2.8,5.6-4.5c0,0,0.1,0,0.1,0c0,0,0,0.1,0,0.1c-1.7,1.7-3.5,3.3-5.5,4.7
		c-2,1.4-4.1,2.6-6.5,3.2c-1.2,0.3-2.4,0.5-3.7,0.3c-0.6-0.1-1.2-0.2-1.8-0.3c-0.6-0.1-1.2-0.2-1.7-0.1c-1.1,0-2.3,0.2-3.4,0.6
		c-1.1,0.4-2.1,1-3,1.6c-1.9,1.3-3.7,3-5.5,4.5l-1.4,1.2c-0.5,0.4-1,0.8-1.5,1.1c-0.5,0.4-1.1,0.6-1.6,1c-0.5,0.3-1.1,0.5-1.7,0.8
		c-4.6,1.8-9.6,2.1-14.3,2.3c-2.4,0.1-4.8,0-7.1,0.3c-1.4,0.2-2.7-0.1-3.9-0.5c-1.2-0.4-2.3-0.9-3.4-1.3c-1.1-0.4-2.2-0.8-3.1-0.7
		c-1,0-1.8,0.4-2.5,1.2l-0.6,0.7c-0.3,0.3-0.6,0.5-0.9,0.7c-0.3,0.2-0.6,0.3-0.9,0.5c-0.3,0.1-0.6,0.3-0.9,0.4
		c-1.2,0.4-2.4,0.7-3.6,0.9c-4.9,0.8-9.7,0.7-14.5,0.5c-4.8-0.3-9.6-0.7-14.4-1.7c-1.2-0.3-2.4-0.5-3.6-1l-0.9-0.3
		c-0.3-0.1-0.5-0.2-0.8-0.3c-0.5-0.2-1-0.3-1.4-0.3c-0.4,0-0.8,0.1-1.5,0.3c-0.6,0.2-1.3,0.3-1.9,0.4c-1.3,0.2-2.5,0.2-3.8,0.1
		c-2.5-0.1-4.9-0.4-7.2-0.9c-1.2-0.2-2.4-0.4-3.6-0.7l-1.8-0.4c-0.6-0.1-1.2-0.3-1.8-0.5c-4.8-1.4-9.1-3.8-13-6.7
		c-3.9-2.8-7.6-6.1-11-9.4c-6.8-6.8-12.8-14.4-17.9-22.6c-1.3-2.1-2.5-4.1-3.5-6.3c-0.5-1.1-1-2.2-1.4-3.4c-0.1-0.3-0.2-0.6-0.2-0.9
		c-0.1-0.3-0.1-0.7-0.1-1c0-0.6,0-1.2,0-1.8c-0.1-2.3-0.4-4.7-1.1-6.9c-0.7-2.2-1.6-4.4-2.8-6.4c-0.6-1-1.2-2-1.9-3
		c-0.2-0.2-0.3-0.5-0.5-0.8c-0.2-0.3-0.3-0.6-0.4-0.9c-0.2-0.6-0.3-1.3-0.3-1.9c-0.1-2.5,0.7-4.9,1.6-7.1c1-2.2,2.2-4.3,3.5-6.3
		c1.4-2,2.8-3.9,4.7-5.5c0.5-0.4,1-0.8,1.5-1.1c0.7-0.3,1.1-0.3,1.6-0.7c0.8-0.7,1.3-1.8,1.7-2.9c0.4-1.1,0.9-2.2,1.5-3.3
		c0.6-1.1,1.5-2,2.6-2.6c1.1-0.6,2.3-0.9,3.3-1.5c0.5-0.3,0.9-0.6,1-1.1c0.1-0.5,0-1.1,0-1.7c-0.1-1.2-0.1-2.4-0.1-3.6l0-0.9
		c0.1-0.3,0.1-0.7,0.2-1c0.2-0.6,0.5-1.2,0.9-1.7c0.7-1,1.6-1.9,2.5-2.7c0.9-0.8,1.9-1.6,2.8-2.3c1.9-1.4,4-2.7,6-4
		c4.1-2.5,8.3-4.7,12.7-6.8c2.2-1,4.3-2.1,6.5-3c1.1-0.5,2.2-0.9,3.4-1.3c1.2-0.4,2.3-0.7,3.4-1.1c2.2-0.8,4.1-2,6.1-3.4l1.4-1
		c0.5-0.4,0.9-0.7,1.5-1.1c1.1-0.7,2.3-1.1,3.4-1.5c4.6-1.6,9.3-2.6,14-3.5c4.7-0.8,9.5-1.5,14.4-1.6c2.4,0,4.8-0.1,7.4,0.5
		c0.6,0.2,1.3,0.4,2,1.1c0.4,0.4,0.4,0.6,0.6,0.8c0.1,0.2,0.3,0.4,0.4,0.6c0.1,0,0.1,0.1,0.2,0.1c0,0,0,0,0,0c0,0,0.1,0,0.1,0
		c0.1,0,0.2-0.1,0.3-0.1c0.4-0.3,0.9-0.6,1.4-1c2-1.4,4.3-2.5,6.6-3.2c1.2-0.3,2.3-0.7,3.6-0.9c1.2-0.2,2.5-0.2,3.7-0.2
		c4.9,0.2,9.6,1.4,14.2,2.8c4.6,1.4,9.1,3.2,13.4,5.3c1.1,0.5,2.2,1.1,3.2,1.7c0.5,0.3,1,0.6,1.5,1c0.5,0.4,1,0.7,1.4,1.3
		c0.1,0.2,0.2,0.3,0.2,0.6l0,0.4c0,0.1,0,0.3,0.1,0.4c0,0.1,0.1,0.2,0.1,0.4c0.2,0.5,0.5,0.9,1,1.3c0.8,0.7,2,1.1,3.1,1.2
		c1.1,0.1,2.3-0.2,3.3-0.6c1.1-0.5,2.5-0.7,3.7-0.4c1.2,0.3,2.3,0.9,3.3,1.6c1,0.7,1.9,1.5,2.7,2.4c0,0,0,0.1,0,0.1
		C205.4,201.8,205.3,201.8,205.3,201.8L205.3,201.8z"/>
	<path d="M94,193.7c7.7,1.5,15.4,3.6,22.8,6.4c3.7,1.4,7.3,3.2,10.7,5.2c3.4,2,6.7,4.5,9.4,7.5c1.4,1.5,2.5,3.2,3.5,4.9
		c1,1.8,1.8,3.6,2.3,5.6c1.1,3.9,1.2,7.9,1.1,11.9c0,2-0.2,3.9-0.2,5.9c0,2,0,3.9,0,5.9c0,2,0,3.9-0.1,5.9c0,1-0.1,2-0.2,3
		c-0.1,1-0.3,2-0.8,3c-0.3,0.5-0.8,1.1-1.6,1.1c-0.7,0.1-1.3-0.2-1.7-0.5c-0.9-0.6-1.7-1.3-2.4-2c-0.7-0.7-1.4-1.5-2-2.2
		c-0.7-0.8-1.2-1.5-1.9-2.2c-2.7-2.7-6-4.8-9.3-6.8c-6.7-4-13.8-7.5-20.8-11.1c-3.5-1.8-7-3.6-10.5-5.6c-0.9-0.5-1.7-1-2.6-1.6
		c-0.8-0.6-1.7-1.1-2.5-2.1c-0.2-0.3-0.4-0.6-0.4-1.2L87,224l0.2-1.5l0.3-2.9c0.9-7.8,1.7-15.7,2.8-23.5c0-0.1,0.1-0.1,0.1-0.1
		c0.1,0,0.1,0.1,0.1,0.1c-0.4,7.9-0.9,15.7-1.4,23.6l-0.2,2.9l-0.1,1.5l-0.1,0.7c0-0.1,0,0,0.1,0.1c0.4,0.5,1.3,1.1,2.1,1.6
		c0.8,0.5,1.6,1,2.5,1.5c3.4,1.9,6.9,3.6,10.5,5.4c7,3.5,14.1,7.1,20.8,11.4c3.3,2.1,6.7,4.4,9.5,7.3c0.7,0.7,1.3,1.6,1.9,2.3
		c0.6,0.8,1.2,1.5,1.9,2.2c0.6,0.7,1.3,1.4,2.1,1.9c0.4,0.2,0.7,0.4,1,0.4c0.3,0,0.5-0.2,0.7-0.5c0.4-0.7,0.6-1.7,0.8-2.6
		c0.2-0.9,0.2-1.9,0.3-2.9c0.1-2,0.2-3.9,0.2-5.9c0-2,0-3.9,0.1-5.9c0.1-2,0.1-3.9,0.1-5.9c0-3.9-0.3-7.9-1.6-11.5
		c-0.6-1.8-1.4-3.6-2.4-5.2c-1-1.6-2.2-3.1-3.5-4.5c-2.6-2.8-5.8-5.1-9.1-7.1c-3.3-2-6.8-3.8-10.4-5.3c-7.2-3.1-14.7-5.4-22.3-7.7
		c-0.1,0-0.1-0.1-0.1-0.1C93.9,193.7,93.9,193.7,94,193.7z"/>
	<path d="M136.8,187c1.7,1.5,3.1,3.5,4.1,5.7c0.5,1.1,0.8,2.3,0.9,3.5l0,0.5c0,0.1,0,0.1,0,0.3c0,0.1,0,0.3-0.1,0.4
		c-0.1,0.6-0.6,1-0.9,1.2c-0.8,0.4-1.4,0.4-2,0.5c-2.5,0-4.6-0.7-6.9-1.1c-2.2-0.5-4.5-0.8-6.8-1.1c-2.3-0.3-4.5-0.6-6.8-1.1
		c-2.2-0.4-4.5-0.9-6.7-1.4c-4.4-1-8.8-2.2-13.2-3.1c-0.1,0-0.1-0.1-0.1-0.1c0,0,0-0.1,0.1-0.1c2.3-0.2,4.6-0.1,6.9,0.2
		c2.3,0.2,4.5,0.6,6.8,1.1c2.2,0.5,4.4,1,6.6,1.6c2.2,0.5,4.4,1.2,6.6,1.9c2.2,0.6,4.4,1.2,6.6,1.5c2.2,0.3,4.6,0.3,6.7,0.1
		c0.5-0.1,1-0.2,1.3-0.3c0.1-0.1,0.1-0.1,0.1-0.1s0,0,0,0c0,0,0-0.1,0-0.2l0-0.4c-0.1-1-0.3-2.1-0.6-3.1c-0.6-2.1-1.6-4.1-2.8-6.1
		l0,0c0,0,0-0.1,0-0.1C136.7,186.9,136.8,187,136.8,187z"/>
	<path d="M141.2,187c2,2,3.7,4.2,5.2,6.6c0.7,1.2,1.4,2.5,2,3.8l0.4,1l0.3,1c0.1,0.3,0.2,0.7,0.2,1.1c0,0.2,0.1,0.4,0.1,0.5
		c0,0.1,0.1,0.2,0.1,0.4c0.4,1.1,1.3,2.2,2.2,3.2c0.9,1.1,1.8,2.1,2.7,3.1c1.9,2,3.8,4,5.8,6c3.8,4,7.7,8,11.6,11.9
		c4,3.9,8,7.7,12,11.6c2,2,4,3.9,5.7,6.2c0.9,1.1,1.8,2.3,2.3,3.8c0.1,0.2,0.1,0.3,0.2,0.4c0,0,0.1,0.1,0,0.1c0,0,0-0.1-0.1-0.1
		c0,0-0.1-0.1-0.2-0.2c0,0-0.4-0.2-0.7,0c-0.2,0.1-0.4,0.3-0.4,0.4c0,0,0,0.1-0.1,0.1l0,0c0,0,0,0,0,0c0-0.1,0-0.6-0.1-0.9
		c-0.1-0.7-0.2-1.4-0.3-2c-0.8-5.5-1.7-11-2.4-16.5c-0.6-5.5-1.2-11.1-1.4-16.7c-0.1-2.8-0.1-5.6,0-8.4c0.1-1.4,0.2-2.8,0.4-4.2
		c0.2-1.4,0.4-2.8,0.9-4.1c0-0.1,0.1-0.1,0.1-0.1c0,0,0.1,0.1,0.1,0.1c-0.5,2.7-0.5,5.5-0.4,8.3c0.1,2.8,0.3,5.5,0.6,8.3
		c0.5,5.5,1.2,11,2,16.5c0.7,5.5,1.5,11,2.1,16.5c0.1,0.7,0.2,1.4,0.2,2.1c0,0.4,0.1,0.7,0,1.2c0,0,0,0.1,0,0.2l0,0.1
		c0,0.1-0.1,0.1-0.1,0.2c0,0.1-0.2,0.3-0.4,0.4c-0.3,0.2-0.8,0-0.8,0c-0.2-0.1-0.3-0.2-0.3-0.2c0,0-0.1-0.1-0.1-0.1
		c-0.1-0.2-0.2-0.3-0.2-0.4c-0.1-0.2-0.1-0.4-0.2-0.6c-0.4-1.2-1.1-2.3-1.9-3.4c-1.6-2.2-3.4-4.3-5.2-6.4
		c-3.7-4.1-7.6-8.1-11.7-11.9c-4.1-3.8-8.3-7.4-12.4-11.2c-2-1.9-4-3.9-5.9-6c-0.9-1-1.9-2.1-2.7-3.2c-0.9-1.1-1.7-2.2-2.3-3.8
		l-0.2-0.7c-0.1-0.2-0.1-0.3-0.1-0.5c-0.1-0.3-0.1-0.6-0.2-1l-0.2-1l-0.3-1c-0.4-1.3-1-2.5-1.6-3.7c-1.3-2.4-2.8-4.8-4.4-7
		c0,0,0-0.1,0-0.1C141.1,186.9,141.1,186.9,141.2,187z"/>
	<path d="M193.9,199c0.6,2.8,1.1,5.5,1.4,8.3c0.4,2.8,0.7,5.6,0.8,8.4c0.1,2.8,0,5.6,0.2,8.4c0.2,2.8,0.5,5.6,0.9,8.4
		c0.4,2.8,0.8,5.6,1,8.4c0.3,2.8,0.5,5.6,0.6,8.4l0,1.1c0,0.3,0,0.6,0.1,0.9c0.1,0.6,0.3,1.1,0.6,1.6c0.6,1,1.6,1.7,2.8,2.3
		c1.2,0.6,2.5,1,3.8,1.2c1.3,0.3,2.7,0.5,4.1,0.6l0,0c0.1,0,0.1,0.1,0.1,0.1c0,0,0,0.1-0.1,0.1c-2.8,0.4-5.7,0.3-8.6-0.6
		c-1.4-0.5-2.8-1.3-3.8-2.7c-0.5-0.7-0.8-1.5-1-2.3c-0.1-0.4-0.1-0.8-0.1-1.2l0-1l-0.4-8.4c-0.2-2.8-0.2-5.6-0.2-8.4
		c0-2.8-0.2-5.6-0.5-8.4c-0.3-2.8-0.8-5.6-1.2-8.3c-0.4-2.8-0.5-5.6-0.7-8.4c-0.1-2.8-0.2-5.6-0.1-8.4
		C193.7,198.9,193.7,198.9,193.9,199C193.8,198.9,193.9,198.9,193.9,199z"/>
	<path d="M49.1,226.5c2.2-0.7,4.4-1,6.6-1.4c2.2-0.3,4.4-0.6,6.7-0.7c2.2-0.1,4.5,0,6.7-0.3c2.2-0.2,4.4-0.7,6.5-1.4l0.7-0.3
		c0.2-0.1,0.4-0.2,0.6-0.4c0.2-0.2,0.5-0.7,0.7-1.1c0.4-1,0.7-2,1-3c0.6-2.1,1.1-4.3,1.6-6.4c1.1-4.3,2.2-8.6,3.6-12.9
		c0-0.1,0.1-0.1,0.1-0.1c0,0,0.1,0.1,0.1,0.1c-0.2,4.5-0.8,9-1.8,13.4c-0.5,2.2-1.1,4.4-1.9,6.5c-0.4,1.1-0.8,2.1-1.4,3.2
		c-0.3,0.5-0.6,1.1-1.3,1.5c-0.3,0.1-0.6,0.3-0.9,0.4l-0.9,0.2c-0.6,0.1-1.1,0.2-1.7,0.3c-0.6,0.1-1.1,0.1-1.7,0.2
		c-1.1,0.1-2.2,0.3-3.3,0.5c-2.2,0.4-4.4,0.9-6.6,1.3c-4.4,0.6-8.9,0.8-13.4,0.6C49.1,226.7,49,226.7,49.1,226.5
		C49,226.6,49,226.6,49.1,226.5z"/>
	<path d="M45.5,229.2c6,0.7,12,1.6,18,2.6c3,0.5,6,1,9,1.7c0.7,0.2,1.5,0.3,2.3,0.5c0.3,0,1,0.3,1.4,0.7c0.2,0.2,0.4,0.3,0.5,0.5
		c0.1,0.2,0.3,0.4,0.4,0.6c0.9,1.5,1.2,3,1.6,4.6c1.1,6.1,1.2,12.2,1.6,18.2c0.2,3,0.4,6,0.7,9.1c0.3,3,0.7,6,1.4,8.9
		c0.2,0.7,0.4,1.5,0.5,2.3c0,0.2,0.1,0.4,0.1,0.6c0,0.2,0,0.4,0,0.7c0,0.1,0,0.2-0.1,0.4c0,0.1-0.1,0.3-0.2,0.4
		c-0.1,0.3-0.6,0.6-0.9,0.6c-0.7,0.1-1.1-0.1-1.5-0.2c-0.4-0.2-0.8-0.3-1.1-0.5c-0.7-0.4-1.3-0.8-2-1.2c-2.5-1.7-5-3.4-7.6-4.8
		c-0.7-0.3-1.3-0.7-2-0.9c-0.7-0.3-1.3-0.5-2.1-0.8c-1.5-0.5-2.9-1.1-4.3-1.8c-2.8-1.3-5.4-2.8-8.1-4.4l-7.7-4.8
		c-0.6-0.4-1.3-0.8-1.9-1.1c-0.3-0.2-0.6-0.3-0.9-0.4c-0.1,0-0.1,0-0.2,0c0,0,0,0,0,0l0,0l0,0c-0.1,0-0.1,0-0.2,0
		c-0.3,0-0.5-0.1-0.6-0.2c-0.1-0.1-0.2-0.2-0.3-0.3c-0.1-0.2-0.2-0.3-0.2-0.4c-0.4-0.9-0.4-1.7-0.5-2.4c-0.1-0.8-0.2-1.5-0.2-2.3
		c-0.4-6.1-0.4-12.2-0.2-18.2c0-0.1,0-0.1,0.1-0.1c0.1,0,0.1,0,0.1,0.1c0.5,6,0.8,12.1,1.5,18.1c0.1,0.7,0.2,1.5,0.3,2.2
		c0.1,0.7,0.3,1.5,0.5,2c0,0,0.1,0.1,0,0.1c0,0,0-0.1-0.1-0.1c-0.1-0.1-0.2-0.1-0.4-0.1c0,0-0.1,0-0.1,0l0.1,0l0.2,0
		c0.1,0,0.2,0,0.3,0c0.1,0,0.3,0.1,0.4,0.1c0.5,0.1,0.8,0.3,1.2,0.5c0.7,0.3,1.4,0.7,2.1,1.1c2.7,1.5,5.2,3.1,7.8,4.6
		c2.6,1.5,5.2,3,7.9,4.3c1.3,0.7,2.7,1.3,4.1,1.8c0.7,0.2,1.5,0.5,2.2,0.8c0.7,0.3,1.4,0.7,2.1,1c2.7,1.5,5.2,3.4,7.6,5.1
		c0.6,0.4,1.2,0.9,1.8,1.3c0.3,0.2,0.6,0.4,0.9,0.5c0.3,0.1,0.6,0.2,0.7,0.2c0,0,0,0,0,0c0,0,0,0,0,0c0,0,0,0,0-0.1c0,0,0-0.1,0-0.2
		c0.1-0.3,0-0.6,0-1c-0.1-0.7-0.2-1.4-0.4-2.2c-0.6-3-0.8-6.1-1-9.1l-0.7-9.1c-0.3-3-0.6-6-1-9c-0.4-3-0.9-6-1.6-8.9
		c-0.3-1.4-0.8-2.9-1.4-4c-0.1-0.2-0.2-0.2-0.3-0.4c-0.1-0.1-0.2-0.2-0.3-0.3c0,0-0.1-0.1-0.1-0.1c0,0-0.1,0-0.1,0
		c0,0-0.2-0.1-0.4-0.1l-2.2-0.5c-2.9-0.6-5.9-1.2-8.9-1.9c-5.9-1.2-11.9-2.5-17.8-3.9c-0.1,0-0.1-0.1-0.1-0.1
		C45.4,229.3,45.5,229.2,45.5,229.2z"/>
	<path d="M35.5,240.8c0.3,1.3,0.4,2.5,0.5,3.8c0.1,1.3,0.1,2.5-0.1,3.8c-0.2,1.3-0.5,2.5-0.6,3.8c-0.1,1.3,0,2.5,0.2,3.8
		c0.2,1.3,0.4,2.5,0.5,3.7l0.1,0.9l0.2,0.8c0,0.1,0.1,0.2,0.1,0.3l0,0.1l0,0l0,0.1c0.1,0.2,0.1,0.3,0.1,0.6c0,0.2-0.1,0.6-0.2,0.8
		c-0.1,0.1-0.2,0.2-0.2,0.3c-0.1,0.1-0.2,0.1-0.2,0.2c-0.3,0.2-0.6,0.3-0.8,0.3c-0.9,0.2-1.5,0.1-2.2,0c-0.7-0.1-1.3-0.2-1.9-0.4
		c-1.3-0.3-2.5-0.8-3.6-1.4c-0.1,0-0.1-0.1,0-0.1c0,0,0.1-0.1,0.1-0.1c1.3-0.1,2.6,0,3.8,0c0.6,0,1.2,0,1.8,0c0.6,0,1.2,0,1.6-0.1
		c0.1,0,0.1-0.1,0.1,0c0,0,0,0-0.1,0.1c0,0-0.1,0.1-0.1,0.1c-0.1,0.1-0.1,0.3-0.1,0.3c0,0.1,0,0.1,0,0.1c0,0,0,0,0-0.1l-0.1-0.2
		c-0.1-0.2-0.1-0.5-0.2-0.7l-0.1-1l0-1c0-1.3,0.1-2.6,0.3-3.8c0.2-1.3,0.3-2.5,0.3-3.8c0-1.3-0.3-2.5-0.4-3.8c0-0.6,0-1.3,0-1.9
		c0-0.6,0.1-1.3,0.2-1.9c0.2-1.3,0.4-2.5,0.8-3.8C35.3,240.7,35.4,240.7,35.5,240.8C35.4,240.7,35.5,240.7,35.5,240.8z"/>
	<path d="M34,272.2c1.5,1.3,3.3,2.2,5,3.2c1.7,1,3.5,1.9,5.2,2.9c3.5,1.9,7,3.7,10.5,5.7c3.4,2,6.8,4.2,10.3,6.2
		c3.5,2,7,3.9,10.5,5.9c1.7,1,3.5,2,5.1,3.3c0.8,0.6,1.6,1.3,2.3,2.2c0.3,0.4,0.6,0.9,0.9,1.3c0.3,0.4,0.5,0.9,0.8,1.4
		c1,1.9,1.5,4.2,0.9,6.5c-0.3,1.1-1,2.1-1.8,3c-0.8,0.8-1.8,1.5-2.8,1.9c-2,0.9-4.2,1.2-6.2,1.2c-2,0.1-4.1,0-6.1-0.2
		c-4-0.4-8-1-11.9-1.9c-0.1,0-0.1-0.1-0.1-0.1c0,0,0.1-0.1,0.1-0.1c4,0.3,8,0.6,11.9,0.6c2,0,3.9,0,5.9-0.2c2-0.1,3.8-0.4,5.4-1.2
		c0.8-0.3,1.5-0.9,2.2-1.4c0.6-0.6,1-1.3,1.3-2.1c0.5-1.6,0.2-3.4-0.6-5.1c-0.2-0.4-0.4-0.8-0.7-1.2l-0.8-1.2
		c-0.5-0.7-1.2-1.4-1.9-2c-1.5-1.3-3.1-2.5-4.7-3.6c-3.3-2.3-6.7-4.3-10.2-6.2c-3.5-1.9-7.2-3.5-10.8-5.3c-3.6-1.8-7.1-3.8-10.5-5.8
		c-1.7-1-3.4-2.1-5-3.3c-0.8-0.6-1.6-1.2-2.4-1.9c-0.8-0.7-1.5-1.3-2.2-2.1c0,0,0-0.1,0-0.1C33.9,272.2,34,272.2,34,272.2L34,272.2z
		"/>
	<path d="M84,239.2l0.9,6.5l1,6.6c0.7,4.4,1.5,8.8,2.2,13.2c1.5,8.8,3,17.5,4.2,26.4c0.3,2.2,0.6,4.4,0.8,6.6
		c0.2,2.2,0.6,4.4,0.4,6.8c0,0,0,0.1,0.2,0.3c0.2,0.1,0.3,0.3,0.6,0.4c0.4,0.2,0.9,0.5,1.4,0.6c1,0.4,2.1,0.7,3.2,0.9
		c2.2,0.5,4.3,0.9,6.5,1.2c4.4,0.7,8.8,1.1,13.3,1.4c4.4,0.4,8.9,0.6,13.3,0.7c1.1,0,2.2,0,3.3,0c0.4,0,1-0.2,1.3-0.4
		c0.4-0.2,0.7-0.5,1.1-0.9c0.6-0.8,1.3-1.8,2-2.7c0.2-0.2,0.4-0.4,0.5-0.7l0.1-0.2c0,0,0-0.1,0-0.1c0,0,0.1-0.1,0.1-0.2
		c0.1-0.4,0.2-0.9,0.2-1.4c0-2.1-0.3-4.3-0.7-6.5c-0.4-2.2-0.8-4.3-1.3-6.5c-1-4.3-2.1-8.6-3.5-12.8c-0.3-1-0.7-2.1-1.1-3.1
		c-0.4-1-0.8-2-1.3-2.9c-1-1.7-2.6-3.2-4.2-4.6c-3.3-2.9-6.9-5.4-10.6-7.9c-3.7-2.5-7.4-4.9-11.2-7.2c-3.8-2.3-7.6-4.6-11.4-6.9
		l-5.8-3.4l-2.9-1.7l-1.4-0.8l-0.7-0.4l-0.4-0.2C84.1,239.3,84,239.3,84,239.2z M83.9,239c0.3,0,0.3,0.1,0.5,0.2l0.4,0.2l0.8,0.4
		l1.5,0.7l3,1.5c2,1,4,2,5.9,3c3.9,2.1,7.9,4.2,11.7,6.4c3.9,2.2,7.7,4.5,11.5,6.9c3.8,2.4,7.4,5,10.9,7.9c1.7,1.5,3.4,3.1,4.7,5.2
		c0.6,1.1,1,2.1,1.4,3.2c0.4,1.1,0.7,2.1,1.1,3.2c1.3,4.3,2.4,8.6,3.3,13c0.5,2.2,0.9,4.4,1.2,6.6c0.3,2.2,0.6,4.5,0.5,6.8
		c0,0.6-0.1,1.2-0.3,1.9c-0.1,0.2-0.1,0.3-0.2,0.5l-0.2,0.3l-0.1,0.2c-0.2,0.2-0.4,0.4-0.5,0.6c-0.7,0.8-1.3,1.7-2.1,2.6
		c-0.4,0.4-0.9,0.9-1.5,1.2c-0.6,0.3-1.2,0.4-1.9,0.5c-1.2,0-2.3-0.1-3.4-0.1c-8.9-0.6-17.8-1.4-26.6-2.6c-2.2-0.3-4.4-0.6-6.6-1.1
		c-1.1-0.2-2.2-0.5-3.3-0.8c-0.5-0.2-1.1-0.4-1.6-0.6c-0.3-0.1-0.5-0.3-0.8-0.5c-0.2-0.2-0.6-0.6-0.5-1.2c0-2.1-0.4-4.3-0.7-6.5
		l-1.1-6.6c-1.5-8.8-2.9-17.6-4.1-26.4c-0.6-4.4-1.2-8.8-1.7-13.3c-0.3-2.2-0.5-4.4-0.7-6.7l-0.2-3.3
		C83.9,241.3,83.9,240.1,83.9,239z"/>
	<path d="M147.3,222.7c1.4,8.4,2.5,17,3.3,25.5c0.4,4.3,0.7,8.6,0.8,12.9c0,1.1,0,2.2,0,3.3c0,1.1-0.1,2.2-0.2,3.3
		c-0.2,2.1-0.2,4.2-0.1,6.3c0.2,4.2,1,8.4,2.2,12.5c1.2,4.1,2.8,8.1,4.6,11.9c1.1,1.7,3,2.8,5,3.4c2,0.6,4.1,0.9,6.3,1
		c4.2,0.2,8.5-0.4,12.5-1.7c1-0.3,2-0.7,2.8-1.2c0.9-0.5,1.7-1.1,2-1.8c0.1-0.1,0.1-0.4,0.2-0.7l0.2-0.8l0.2-1.6
		c0.1-1.1,0.3-2.1,0.4-3.2c0.4-4.2,0.6-8.5,0.7-12.8c0-4.3-0.1-8.5-0.5-12.7c-0.4-4.2-1.1-8.4-2.3-12.4l-0.5-1.5
		c-0.1-0.2-0.4-0.7-0.7-1.1c-0.6-0.8-1.3-1.6-2-2.4c-1.4-1.6-2.9-3.1-4.5-4.5c-3.1-3-6.2-5.8-9.5-8.6c-3.3-2.8-6.5-5.5-10-8
		c-1.7-1.2-3.5-2.5-5.3-3.5c-0.9-0.5-1.9-1-2.9-1.4c-0.5-0.2-1-0.3-1.5-0.4C148.2,222.3,147.6,222.4,147.3,222.7z M147.1,222.6
		c0.5-0.5,1-0.6,1.6-0.6c0.6,0,1.1,0.1,1.6,0.3c1.1,0.3,2,0.8,3,1.2c1.9,1,3.8,2.1,5.6,3.3c3.6,2.4,7.1,4.9,10.4,7.6
		c3.4,2.7,6.6,5.5,9.8,8.4c1.6,1.5,3.1,3,4.6,4.5c0.7,0.8,1.5,1.6,2.2,2.5c0.3,0.5,0.7,0.9,1,1.6l0.5,1.6c1.3,4.2,2,8.5,2.4,12.8
		c0.4,4.3,0.4,8.7,0.3,13c-0.1,4.3-0.4,8.6-1,12.9c-0.1,1.1-0.3,2.1-0.5,3.2c-0.2,1.1-0.3,2.1-0.8,3.3c-0.3,0.6-0.8,1.1-1.2,1.5
		c-0.5,0.4-1,0.7-1.5,0.9c-1,0.5-2,0.9-3.1,1.2c-4.2,1.2-8.6,1.5-12.9,1.3c-2.2-0.1-4.3-0.4-6.4-1.1c-2-0.7-4.2-1.7-5.4-3.6
		c-1-2-1.9-3.9-2.7-5.9c-0.9-2-1.7-4-2.4-6c-1.4-4.1-2.4-8.3-2.8-12.7c-0.2-2.2-0.2-4.4,0-6.6c0.1-1.1,0.1-2.1,0.2-3.2
		c0-1.1,0.1-2.1,0-3.2c0-4.3-0.3-8.5-0.5-12.8C148.5,239.7,147.8,231.2,147.1,222.6z"/>
	<path d="M210.7,292.3c-2,1-4.1,1.9-6.3,2.6c-2.2,0.7-4.4,1.4-6.7,1.7c-0.6,0.1-1.2,0.1-1.8,0.1c-0.6,0-1.3-0.1-2.1-0.5
		c-0.4-0.2-0.8-0.7-0.9-1.2c-0.1-0.5,0-1,0-1.3c0.1-0.5,0.2-1,0.3-1.6c0.4-2.2,0.6-4.4,0.9-6.7c0.5-4.5,0.5-9,0.4-13.5
		c-0.2-4.5-0.1-9-0.1-13.5c0-0.6,0.5-1,1-1c0.3,0,0.6,0.2,0.8,0.4l0,0c1.3,1.8,2.5,3.6,3.7,5.4c1.2,1.8,2.4,3.6,3.6,5.5
		c1.2,1.8,2.3,3.7,3.5,5.6c1.1,1.9,2.2,3.8,3.3,5.7c0,0,0,0.1,0,0.1c0,0-0.1,0-0.1,0c-1.4-1.7-2.8-3.4-4.1-5.1
		c-1.4-1.7-2.7-3.5-4-5.2c-1.3-1.8-2.6-3.5-3.8-5.3c-1.3-1.8-2.5-3.6-3.7-5.4l1.9-0.6c-0.2,4.5-0.3,9-0.8,13.5
		c-0.4,4.5-0.7,9-0.7,13.5c0,2.3,0,4.5-0.1,6.8c0,0.6-0.1,1.2-0.2,1.8c0,0.3,0,0.3,0,0.4c0,0,0,0.1,0.1,0.1c0.2,0.1,0.7,0.2,1.2,0.3
		c0.5,0,1,0,1.6-0.1c2.1-0.2,4.3-0.7,6.5-1.2l6.6-1.6c0.1,0,0.1,0,0.1,0.1C210.8,292.2,210.7,292.3,210.7,292.3z"/>
	<circle class="st2" cx="87.5" cy="128.7" r="5.2"/>
	<circle class="st1" cx="171.8" cy="161.2" r="5.6"/>
	<circle class="st0" cx="179.7" cy="365" r="7.4"/>
	<circle class="st2" cx="16" cy="216.7" r="4.1"/>
	<circle class="st0" cx="101.7" cy="179.8" r="3.3"/>
	<circle class="st1" cx="16.8" cy="125.5" r="10.5"/>
	<circle class="st0" cx="421" cy="93.4" r="8.4"/>
	<circle class="st3" cx="264.3" cy="69.6" r="11.2"/>
	<circle class="st0" cx="228.3" cy="102.1" r="4.5"/>
	<circle class="st3" cx="18.1" cy="311.3" r="6.1"/>
	<circle class="st2" cx="484.2" cy="294.5" r="3.3"/>
	<circle class="st4" cx="462" cy="145.9" r="9.9"/>
	<circle class="st4" cx="382.2" cy="115.6" r="4"/>
	<circle class="st4" cx="151.9" cy="57.6" r="4.7"/>
	<circle class="st1" cx="174" cy="11.1" r="5.8"/>
</g>
</svg>
