<?xml version="1.0" encoding="utf-8"?>
<!-- Generator: Adobe Illustrator 25.4.1, SVG Export Plug-In . SVG Version: 6.00 Build 0)  -->
<svg version="1.1" id="Capa_1" xmlns="http://www.w3.org/2000/svg" xmlns:xlink="http://www.w3.org/1999/xlink" x="0px" y="0px"
	 viewBox="0 0 568.3 453" style="enable-background:new 0 0 568.3 453;" xml:space="preserve">
<style type="text/css">
	.st0{fill:#F089C0;}
	.st1{fill:#77F169;}
	.st2{fill:#0049E5;}
	.st3{fill:#ECCEFF;}
	.st4{fill:#FAE058;}
</style>
<g>
	<path class="st0" d="M127.8,139c0,0,1.1,86.2-4.7,101.6c-5.7,15.4-10.8,126.2-10.8,126.2L496,395.7l10.8-236.3l-207.6-20.9
		L127.8,139z"/>
	<g>
		<path d="M499.3,390l-96.5-4l-96.8-4.2l-48.5-2.1l-48.5-2.2c-32.3-1.5-64.6-3.1-96.9-4.7c-0.3,0-0.6-0.3-0.5-0.6l0,0l2.9-59.3
			l2.8-59.3l5.2-118.7c0-0.3,0.3-0.5,0.6-0.5l193.6,8.4l96.8,4.4l96.8,4.5c0.5,0,0.9,0.5,0.9,1l0,0L499.3,390z M499.2,389.9
			l10-237.3l0.9,1l-96.8-4.4l-96.8-4.5l-193.6-9.3l0.6-0.5l-5.7,118.7l-2.7,59.3l-2.5,59.3l-0.5-0.6c32.2,1.4,64.4,2.7,96.6,4.2
			l48.3,2.2l48.3,2.3l96.8,4.7L499.2,389.9z"/>
		<path d="M122,157c16.1,0.4,32.3,0.9,48.4,1.5l24.2,1c8.1,0.3,16.1,0.8,24.2,1.2L243,162l12.1,0.7l12.1,0.6
			c16.1,0.8,32.3,1.4,48.4,2c16.1,0.5,32.3,1.1,48.4,1.8c16.1,0.7,32.3,1.3,48.4,2.1c32.3,1.5,64.5,3.3,96.7,5.4
			c0.1,0,0.1,0.1,0.1,0.1c0,0.1,0,0.1-0.1,0.1c-32.3-0.9-64.6-2.1-96.8-3.5c-16.1-0.7-32.3-1.5-48.4-2.3
			c-16.1-0.8-32.3-1.7-48.4-2.6c-16.1-0.9-32.2-1.8-48.4-2.4l-12.1-0.5l-12.1-0.4l-24.2-0.8c-8.1-0.4-16.1-0.6-24.2-1.1l-24.2-1.2
			c-16.1-0.9-32.2-1.8-48.4-2.9c-0.1,0-0.1-0.1-0.1-0.1C121.9,157,121.9,157,122,157z"/>
		<g>
			<path d="M157.4,136.5c-0.3-2.3,0-4.7,0.8-6.9c0.8-2.2,2.1-4.4,4.2-5.8c1-0.7,2.3-1.1,3.5-1.2c1.2-0.1,2.5,0.2,3.5,0.7
				c2.2,1,3.7,2.9,4.9,4.9c1.2,2.1,1.9,4.4,2,6.7c0.2,2.4,0.1,4.8-0.6,7.1c-0.3,1.2-0.8,2.3-1.3,3.3c-0.6,1.1-1.3,2.1-2.1,2.9
				c-0.9,0.9-1.9,1.6-3,2.1c-1.1,0.5-2.4,0.7-3.5,0.4c-0.1,0-0.1-0.1-0.1-0.1c0,0,0-0.1,0.1-0.1c2.3-0.2,4-1.7,5.3-3.3
				c0.6-0.9,1.1-1.8,1.6-2.8c0.4-1,0.8-2,1-3c1.1-4.1,1.1-8.7-0.4-12.8c-0.4-1-0.9-2-1.6-2.9c-0.7-0.8-1.6-1.5-2.6-2
				c-1-0.4-2.1-0.5-3.1-0.2c-1,0.2-1.9,0.8-2.7,1.4c-0.8,0.7-1.5,1.4-2.1,2.3c-0.6,0.9-1.2,1.8-1.6,2.8c-0.9,2-1.5,4.1-2,6.3
				C157.6,136.5,157.5,136.6,157.4,136.5C157.4,136.6,157.4,136.5,157.4,136.5z"/>
			<path d="M194.9,138.2c-0.3-2.3,0-4.7,0.8-6.9c0.8-2.2,2.1-4.4,4.2-5.8c1-0.7,2.3-1.1,3.5-1.2c1.2-0.1,2.5,0.2,3.5,0.7
				c2.2,1,3.7,2.9,4.9,4.9c1.2,2.1,1.9,4.4,2,6.7c0.2,2.4,0.1,4.8-0.6,7.1c-0.3,1.2-0.8,2.3-1.3,3.3c-0.6,1.1-1.3,2.1-2.1,2.9
				c-0.9,0.9-1.9,1.6-3,2.1c-1.1,0.5-2.4,0.7-3.5,0.4c-0.1,0-0.1-0.1-0.1-0.1c0,0,0-0.1,0.1-0.1c2.3-0.2,4-1.7,5.3-3.3
				c0.6-0.9,1.1-1.8,1.6-2.8c0.4-1,0.8-2,1-3c1.1-4.1,1.1-8.7-0.4-12.8c-0.4-1-0.9-2-1.6-2.9c-0.7-0.8-1.6-1.5-2.6-1.9
				c-1-0.4-2.1-0.5-3.1-0.2c-1,0.2-1.9,0.8-2.7,1.4c-0.8,0.7-1.5,1.4-2.1,2.3c-0.6,0.9-1.2,1.8-1.6,2.8c-0.9,2-1.5,4.1-2,6.3
				C195.1,138.3,195,138.3,194.9,138.2C194.9,138.3,194.9,138.2,194.9,138.2z"/>
			<path d="M232.4,139.9c-0.3-2.3,0-4.7,0.8-6.9c0.8-2.2,2.1-4.4,4.2-5.8c1-0.7,2.3-1.1,3.5-1.2c1.2-0.1,2.5,0.2,3.5,0.7
				c2.2,1,3.7,2.9,4.9,4.9c1.2,2.1,1.9,4.4,2,6.7c0.2,2.4,0.1,4.8-0.6,7.1c-0.3,1.2-0.8,2.3-1.3,3.3c-0.6,1.1-1.3,2.1-2.1,2.9
				c-0.9,0.9-1.9,1.6-3,2.1c-1.1,0.5-2.4,0.7-3.5,0.4c-0.1,0-0.1-0.1-0.1-0.1c0,0,0-0.1,0.1-0.1c2.3-0.2,4-1.7,5.3-3.3
				c0.6-0.9,1.1-1.8,1.6-2.8c0.4-1,0.8-2,1-3c1.1-4.1,1.1-8.7-0.4-12.8c-0.4-1-0.9-2-1.6-2.9c-0.7-0.8-1.6-1.5-2.6-1.9
				c-1-0.4-2.1-0.5-3.1-0.2c-1,0.2-1.9,0.8-2.7,1.4c-0.8,0.7-1.5,1.4-2.1,2.3c-0.6,0.9-1.2,1.8-1.6,2.8c-0.9,2-1.5,4.1-2,6.3
				C232.6,140,232.5,140,232.4,139.9C232.4,140,232.4,140,232.4,139.9z"/>
			<path d="M269.9,141.6c-0.3-2.3,0-4.7,0.8-6.9c0.8-2.2,2.1-4.4,4.2-5.8c1-0.7,2.3-1.1,3.5-1.2c1.2-0.1,2.5,0.2,3.5,0.7
				c2.2,1,3.7,2.9,4.9,4.9c1.2,2.1,1.9,4.4,2,6.7c0.2,2.4,0.1,4.8-0.6,7.1c-0.3,1.2-0.8,2.3-1.3,3.3c-0.6,1.1-1.3,2.1-2.1,2.9
				c-0.9,0.9-1.9,1.6-3,2.1c-1.1,0.5-2.4,0.7-3.5,0.4c-0.1,0-0.1-0.1-0.1-0.1c0,0,0-0.1,0.1-0.1c2.3-0.2,4-1.7,5.3-3.3
				c0.6-0.9,1.1-1.8,1.6-2.8c0.4-1,0.8-2,1-3c1.1-4.1,1.1-8.7-0.4-12.8c-0.4-1-0.9-2-1.6-2.9c-0.7-0.8-1.6-1.5-2.6-1.9
				c-1-0.4-2.1-0.5-3.1-0.2c-1,0.2-1.9,0.8-2.7,1.4c-0.8,0.7-1.5,1.4-2.1,2.3c-0.6,0.9-1.2,1.8-1.6,2.8c-0.9,2-1.5,4.1-2,6.3
				C270.1,141.7,270.1,141.7,269.9,141.6C270,141.7,269.9,141.7,269.9,141.6z"/>
			<path d="M307.4,143.4c-0.3-2.3,0-4.7,0.8-6.9c0.8-2.2,2.1-4.4,4.2-5.8c1-0.7,2.3-1.1,3.5-1.2c1.2-0.1,2.5,0.2,3.5,0.7
				c2.2,1,3.7,2.9,4.9,4.9c1.2,2.1,1.9,4.4,2,6.7c0.2,2.4,0.1,4.8-0.6,7.1c-0.3,1.2-0.8,2.3-1.3,3.3c-0.6,1.1-1.3,2.1-2.1,2.9
				c-0.9,0.9-1.9,1.6-3,2.1c-1.1,0.5-2.4,0.7-3.5,0.4c-0.1,0-0.1-0.1-0.1-0.1c0,0,0-0.1,0.1-0.1c2.3-0.2,4-1.7,5.3-3.3
				c0.6-0.9,1.1-1.8,1.6-2.8c0.4-1,0.8-2,1-3c1.1-4.1,1.1-8.7-0.4-12.8c-0.4-1-0.9-2-1.6-2.9c-0.7-0.8-1.6-1.5-2.6-1.9
				c-1-0.4-2.1-0.5-3.1-0.2c-1,0.2-1.9,0.8-2.7,1.4c-0.8,0.7-1.5,1.4-2.1,2.3c-0.6,0.9-1.2,1.8-1.6,2.8c-0.9,2-1.5,4.1-2,6.3
				C307.6,143.4,307.6,143.5,307.4,143.4C307.5,143.4,307.5,143.4,307.4,143.4z"/>
			<path d="M345,145.1c-0.3-2.3,0-4.7,0.8-6.9c0.8-2.2,2.1-4.4,4.2-5.8c1-0.7,2.3-1.1,3.5-1.2c1.2-0.1,2.5,0.2,3.5,0.7
				c2.2,1,3.7,2.9,4.9,4.9c1.2,2.1,1.9,4.4,2,6.7c0.2,2.4,0.1,4.8-0.6,7.1c-0.3,1.2-0.8,2.3-1.3,3.3c-0.6,1.1-1.3,2.1-2.1,2.9
				c-0.9,0.9-1.9,1.6-3,2.1c-1.1,0.5-2.4,0.7-3.5,0.4c-0.1,0-0.1-0.1-0.1-0.1c0,0,0-0.1,0.1-0.1c2.3-0.2,4-1.7,5.3-3.3
				c0.6-0.9,1.1-1.8,1.6-2.8c0.4-1,0.8-2,1-3c1.1-4.1,1.1-8.7-0.4-12.8c-0.4-1-0.9-2-1.6-2.9c-0.7-0.8-1.6-1.5-2.6-1.9
				c-1-0.4-2.1-0.5-3.1-0.2c-1,0.2-1.9,0.8-2.7,1.4c-0.8,0.7-1.5,1.4-2.1,2.3c-0.6,0.9-1.2,1.8-1.6,2.8c-0.9,2-1.5,4.1-2,6.3
				C345.2,145.1,345.1,145.2,345,145.1C345,145.1,345,145.1,345,145.1z"/>
			<path d="M382.5,146.8c-0.3-2.3,0-4.7,0.8-6.9c0.8-2.2,2.1-4.4,4.2-5.8c1-0.7,2.3-1.1,3.5-1.2c1.2-0.1,2.5,0.2,3.5,0.7
				c2.2,1,3.7,2.9,4.9,4.9c1.2,2.1,1.9,4.4,2,6.7c0.2,2.4,0.1,4.8-0.6,7.1c-0.3,1.2-0.8,2.3-1.3,3.3c-0.6,1.1-1.3,2.1-2.1,2.9
				c-0.9,0.9-1.9,1.6-3,2.1c-1.1,0.5-2.4,0.7-3.5,0.4c-0.1,0-0.1-0.1-0.1-0.1c0,0,0-0.1,0.1-0.1c2.3-0.2,4-1.7,5.3-3.3
				c0.6-0.9,1.1-1.8,1.6-2.8c0.4-1,0.8-2,1-3c1.1-4.1,1.1-8.7-0.4-12.8c-0.4-1-0.9-2-1.6-2.9c-0.7-0.8-1.6-1.5-2.6-1.9
				c-1-0.4-2.1-0.5-3.1-0.2c-1,0.2-1.9,0.8-2.7,1.4c-0.8,0.7-1.5,1.4-2.1,2.3c-0.6,0.9-1.2,1.8-1.6,2.8c-0.9,2-1.5,4.1-2,6.3
				C382.7,146.9,382.6,146.9,382.5,146.8C382.5,146.9,382.5,146.8,382.5,146.8z"/>
			<path d="M420,148.5c-0.3-2.3,0-4.7,0.8-6.9c0.8-2.2,2.1-4.4,4.2-5.8c1-0.7,2.3-1.1,3.5-1.2c1.2-0.1,2.5,0.2,3.5,0.7
				c2.2,1,3.7,2.9,4.9,4.9c1.2,2.1,1.9,4.4,2,6.7c0.2,2.4,0.1,4.8-0.6,7.1c-0.3,1.2-0.8,2.3-1.3,3.3c-0.6,1.1-1.3,2.1-2.1,2.9
				c-0.9,0.9-1.9,1.6-3,2.1c-1.1,0.5-2.4,0.7-3.5,0.4c-0.1,0-0.1-0.1-0.1-0.1c0,0,0-0.1,0.1-0.1c2.3-0.2,4-1.7,5.3-3.3
				c0.6-0.9,1.1-1.8,1.6-2.8c0.4-1,0.8-2,1-3c1.1-4.1,1.1-8.7-0.4-12.8c-0.4-1-0.9-2-1.6-2.9c-0.7-0.8-1.6-1.5-2.6-2
				c-1-0.4-2.1-0.5-3.1-0.2c-1,0.2-1.9,0.8-2.7,1.4c-0.8,0.7-1.5,1.4-2.1,2.3c-0.6,0.9-1.2,1.8-1.6,2.8c-0.9,2-1.5,4.1-2,6.3
				C420.2,148.6,420.1,148.6,420,148.5C420,148.6,420,148.5,420,148.5z"/>
			<path d="M457.5,150.2c-0.3-2.3,0-4.7,0.8-6.9c0.8-2.2,2.1-4.4,4.2-5.8c1-0.7,2.3-1.1,3.5-1.2c1.2-0.1,2.5,0.2,3.5,0.7
				c2.2,1,3.7,2.9,4.9,4.9c1.2,2.1,1.9,4.4,2,6.7c0.2,2.4,0.1,4.8-0.6,7.1c-0.3,1.2-0.8,2.3-1.3,3.3c-0.6,1.1-1.3,2.1-2.1,2.9
				c-0.9,0.9-1.9,1.6-3,2.1c-1.1,0.5-2.4,0.7-3.5,0.4c-0.1,0-0.1-0.1-0.1-0.1c0,0,0-0.1,0.1-0.1c2.3-0.2,4-1.7,5.3-3.3
				c0.6-0.9,1.1-1.8,1.6-2.8c0.4-1,0.8-2,1-3c1.1-4.1,1.1-8.7-0.4-12.8c-0.4-1-0.9-2-1.6-2.9c-0.7-0.8-1.6-1.5-2.6-1.9
				c-1-0.4-2.1-0.5-3.1-0.2c-1,0.2-1.9,0.8-2.7,1.4c-0.8,0.7-1.5,1.4-2.1,2.3c-0.6,0.9-1.2,1.8-1.6,2.8c-0.9,2-1.5,4.1-2,6.3
				C457.7,150.3,457.7,150.3,457.5,150.2C457.6,150.3,457.5,150.3,457.5,150.2z"/>
		</g>
		<g>
			<path d="M180.5,215.6c-3.6,0-7.2-0.1-10.8-0.1c-3.7-0.1-7.3-0.1-11.1-0.2c-3.7-0.1-7.4-0.2-11.2-0.4c-3.7-0.1-7.5-0.3-11.2-0.6
				l0,0c-0.4,0-0.8-0.4-0.7-0.8l0,0l0.7-10.3c0.3-3.4,0.5-6.8,0.7-10.3c0.2-3.4,0.3-6.8,0.4-10.3c0.1-3.4,0.2-6.9,0.3-10.3
				c0-0.3,0.3-0.5,0.5-0.5l0,0c3.7,0.1,7.4,0.1,11,0.3c3.7,0.1,7.4,0.2,11,0.4c7.4,0.3,14.7,0.5,22.1,0.9l0,0c0.6,0,1,0.5,1,1.1v0
				c-0.2,3.5-0.4,7-0.6,10.4l-0.7,10.4C181.5,202.2,181,209,180.5,215.6z M180.3,215.5l0.3-20.8l0.2-10.2c0.1-3.4,0.2-6.7,0.3-10.1
				l1,1.1c-7.4-0.3-14.7-0.7-22.1-1.1c-3.7-0.2-7.4-0.4-11-0.7c-3.7-0.2-7.4-0.5-11-0.8l0.6-0.5c-0.2,3.4-0.5,6.8-0.7,10.3
				c-0.2,3.4-0.4,6.8-0.5,10.3c-0.1,3.4-0.2,6.9-0.3,10.3l-0.2,10.3l-0.8-0.8c3.6,0.1,7.3,0.2,10.9,0.4c3.6,0.2,7.2,0.4,10.9,0.7
				c3.6,0.2,7.3,0.5,11,0.8C172.8,214.9,176.5,215.2,180.3,215.5z"/>
			<path d="M232,218c-3.6,0-7.2-0.1-10.8-0.1c-3.7-0.1-7.3-0.1-11.1-0.2c-3.7-0.1-7.4-0.2-11.2-0.4c-3.7-0.1-7.5-0.3-11.2-0.6l0,0
				c-0.4,0-0.8-0.4-0.7-0.8l0,0l0.7-10.3c0.3-3.4,0.5-6.8,0.7-10.3c0.2-3.4,0.3-6.8,0.4-10.3c0.1-3.4,0.2-6.9,0.3-10.3
				c0-0.3,0.3-0.5,0.5-0.5l0,0c3.7,0.1,7.4,0.1,11,0.3c3.7,0.1,7.4,0.2,11,0.4c7.4,0.3,14.7,0.5,22.1,0.9l0,0c0.6,0,1,0.5,1,1.1l0,0
				c-0.2,3.5-0.4,7-0.6,10.4l-0.7,10.4C233.1,204.6,232.6,211.4,232,218z M231.9,217.8l0.3-20.8l0.2-10.2c0.1-3.4,0.2-6.7,0.3-10.1
				l1,1.1c-7.4-0.3-14.7-0.7-22.1-1.1c-3.7-0.2-7.4-0.4-11-0.7c-3.7-0.2-7.4-0.5-11-0.8l0.6-0.5c-0.2,3.4-0.5,6.8-0.7,10.3
				c-0.2,3.4-0.4,6.8-0.5,10.3c-0.1,3.4-0.2,6.9-0.3,10.3l-0.2,10.3l-0.8-0.8c3.6,0.1,7.3,0.2,10.9,0.4c3.6,0.2,7.2,0.4,10.9,0.7
				c3.6,0.2,7.3,0.5,11,0.8C224.3,217.2,228.1,217.5,231.9,217.8z"/>
			<path d="M283.6,220.3c-3.6,0-7.2-0.1-10.8-0.1c-3.7-0.1-7.3-0.1-11.1-0.2c-3.7-0.1-7.4-0.2-11.2-0.4c-3.7-0.1-7.5-0.3-11.2-0.6
				l0,0c-0.4,0-0.8-0.4-0.7-0.8l0,0l0.7-10.3c0.3-3.4,0.5-6.8,0.7-10.3c0.2-3.4,0.3-6.8,0.4-10.3c0.1-3.4,0.2-6.9,0.3-10.3
				c0-0.3,0.3-0.5,0.5-0.5l0,0c3.7,0.1,7.4,0.1,11,0.3c3.7,0.1,7.4,0.2,11,0.4c7.4,0.3,14.7,0.5,22.1,0.9l0,0c0.6,0,1,0.5,1,1.1l0,0
				c-0.2,3.5-0.4,7-0.6,10.4l-0.7,10.4C284.6,206.9,284.1,213.7,283.6,220.3z M283.4,220.2l0.3-20.8l0.2-10.2
				c0.1-3.4,0.2-6.7,0.3-10.1l1,1.1c-7.4-0.3-14.7-0.7-22.1-1.1c-3.7-0.2-7.4-0.4-11-0.7c-3.7-0.2-7.4-0.5-11-0.8l0.6-0.5
				c-0.2,3.4-0.5,6.8-0.7,10.3c-0.2,3.4-0.4,6.8-0.5,10.3c-0.1,3.4-0.2,6.9-0.3,10.3l-0.2,10.3l-0.8-0.8c3.6,0.1,7.3,0.2,10.9,0.4
				c3.6,0.2,7.2,0.4,10.9,0.7c3.6,0.2,7.3,0.5,11,0.8C275.9,219.6,279.6,219.9,283.4,220.2z"/>
			<path d="M335.1,222.7c-3.6,0-7.2-0.1-10.8-0.1c-3.7-0.1-7.3-0.1-11.1-0.2c-3.7-0.1-7.4-0.2-11.2-0.4c-3.7-0.1-7.5-0.3-11.2-0.6
				l0,0c-0.4,0-0.8-0.4-0.7-0.8l0,0l0.7-10.3c0.3-3.4,0.5-6.8,0.7-10.3c0.2-3.4,0.3-6.8,0.4-10.3c0.1-3.4,0.2-6.9,0.3-10.3
				c0-0.3,0.3-0.5,0.5-0.5l0,0c3.7,0.1,7.4,0.1,11,0.3c3.7,0.1,7.4,0.2,11,0.4c7.4,0.3,14.7,0.5,22.1,0.9l0,0c0.6,0,1,0.5,1,1.1l0,0
				c-0.2,3.5-0.4,7-0.6,10.4l-0.7,10.4C336.2,209.3,335.7,216.1,335.1,222.7z M335,222.6l0.3-20.8l0.2-10.2
				c0.1-3.4,0.2-6.7,0.3-10.1l1,1.1c-7.4-0.3-14.7-0.7-22.1-1.1c-3.7-0.2-7.4-0.4-11-0.7c-3.7-0.2-7.4-0.5-11-0.8l0.6-0.5
				c-0.2,3.4-0.5,6.8-0.7,10.3c-0.2,3.4-0.4,6.8-0.5,10.3c-0.1,3.4-0.2,6.9-0.3,10.3l-0.2,10.3l-0.8-0.8c3.6,0.1,7.3,0.2,10.9,0.4
				c3.6,0.2,7.2,0.4,10.9,0.7c3.6,0.2,7.3,0.5,11,0.8C327.4,221.9,331.2,222.2,335,222.6z"/>
			<path d="M386.7,225.1c-3.6,0-7.2-0.1-10.8-0.1c-3.7-0.1-7.3-0.1-11.1-0.2c-3.7-0.1-7.4-0.2-11.2-0.4c-3.7-0.1-7.5-0.3-11.2-0.6
				l0,0c-0.4,0-0.8-0.4-0.7-0.8l0,0l0.7-10.3c0.3-3.4,0.5-6.8,0.7-10.3c0.2-3.4,0.3-6.8,0.4-10.3c0.1-3.4,0.2-6.9,0.3-10.3
				c0-0.3,0.3-0.5,0.5-0.5l0,0c3.7,0.1,7.4,0.1,11,0.3c3.7,0.1,7.4,0.2,11,0.4c7.4,0.3,14.7,0.5,22.1,0.9l0,0c0.6,0,1,0.5,1,1.1l0,0
				c-0.2,3.5-0.4,7-0.6,10.4l-0.7,10.4C387.7,211.6,387.2,218.4,386.7,225.1z M386.5,224.9l0.3-20.8l0.2-10.2
				c0.1-3.4,0.2-6.7,0.3-10.1l1,1.1c-7.4-0.3-14.7-0.7-22.1-1.1c-3.7-0.2-7.4-0.4-11-0.7c-3.7-0.2-7.4-0.5-11-0.8l0.6-0.5
				c-0.2,3.4-0.5,6.8-0.7,10.3c-0.2,3.4-0.4,6.8-0.5,10.3c-0.1,3.4-0.2,6.9-0.3,10.3l-0.2,10.3l-0.8-0.8c3.6,0.1,7.3,0.2,10.9,0.4
				c3.6,0.2,7.2,0.4,10.9,0.7c3.6,0.2,7.3,0.5,11,0.8C379,224.3,382.7,224.6,386.5,224.9z"/>
			<path d="M438.2,227.4c-3.6,0-7.2-0.1-10.8-0.1c-3.7-0.1-7.3-0.1-11.1-0.2c-3.7-0.1-7.4-0.2-11.2-0.4c-3.7-0.1-7.5-0.3-11.2-0.6
				l0,0c-0.4,0-0.8-0.4-0.7-0.8l0,0L394,215c0.3-3.4,0.5-6.8,0.7-10.3c0.2-3.4,0.3-6.8,0.4-10.3c0.1-3.4,0.2-6.9,0.3-10.3
				c0-0.3,0.3-0.5,0.5-0.5l0,0c3.7,0.1,7.4,0.1,11,0.3c3.7,0.1,7.4,0.2,11,0.4c7.4,0.3,14.7,0.5,22.1,0.9l0,0c0.6,0,1,0.5,1,1.1l0,0
				c-0.2,3.5-0.4,7-0.6,10.4l-0.7,10.4C439.3,214,438.8,220.8,438.2,227.4z M438.1,227.3l0.3-20.8l0.2-10.2
				c0.1-3.4,0.2-6.7,0.3-10.1l1,1.1c-7.4-0.3-14.7-0.7-22.1-1.1c-3.7-0.2-7.4-0.4-11-0.7c-3.7-0.2-7.4-0.5-11-0.8l0.6-0.5
				c-0.2,3.4-0.5,6.8-0.7,10.3c-0.2,3.4-0.4,6.8-0.5,10.3c-0.1,3.4-0.2,6.9-0.3,10.3l-0.2,10.3l-0.8-0.8c3.6,0.1,7.3,0.2,10.9,0.4
				c3.6,0.2,7.2,0.4,10.9,0.7c3.6,0.2,7.3,0.5,11,0.8C430.5,226.7,434.3,227,438.1,227.3z"/>
			<path d="M489.8,229.8c-3.6,0-7.2-0.1-10.8-0.1c-3.7-0.1-7.3-0.1-11.1-0.2c-3.7-0.1-7.4-0.2-11.2-0.4c-3.7-0.1-7.5-0.3-11.2-0.6
				l0,0c-0.4,0-0.8-0.4-0.7-0.8l0,0l0.7-10.3c0.3-3.4,0.5-6.8,0.7-10.3c0.2-3.4,0.3-6.8,0.4-10.3c0.1-3.4,0.2-6.9,0.3-10.3
				c0-0.3,0.3-0.5,0.5-0.5l0,0c3.7,0.1,7.4,0.1,11,0.3c3.7,0.1,7.4,0.2,11,0.4c7.4,0.3,14.7,0.5,22.1,0.9l0,0c0.6,0,1,0.5,1,1.1l0,0
				c-0.2,3.5-0.4,7-0.6,10.4l-0.7,10.4C490.8,216.4,490.3,223.2,489.8,229.8z M489.6,229.6l0.3-20.8l0.2-10.2
				c0.1-3.4,0.2-6.7,0.3-10.1l1,1.1c-7.4-0.3-14.7-0.7-22.1-1.1c-3.7-0.2-7.4-0.4-11-0.7c-3.7-0.2-7.4-0.5-11-0.8l0.6-0.5
				c-0.2,3.4-0.5,6.8-0.7,10.3c-0.2,3.4-0.4,6.8-0.5,10.3c-0.1,3.4-0.2,6.9-0.3,10.3l-0.2,10.3l-0.8-0.8c3.6,0.1,7.3,0.2,10.9,0.4
				c3.6,0.2,7.2,0.4,10.9,0.7c3.6,0.2,7.3,0.5,11,0.8C482.1,229,485.8,229.3,489.6,229.6z"/>
			<path d="M178.2,265.6c-3.6,0-7.2-0.1-10.8-0.1c-3.7-0.1-7.3-0.1-11.1-0.2c-3.7-0.1-7.4-0.2-11.2-0.4c-3.7-0.1-7.5-0.3-11.2-0.6
				l0,0c-0.4,0-0.8-0.4-0.7-0.8l0,0l0.7-10.3c0.3-3.4,0.5-6.8,0.7-10.3c0.2-3.4,0.3-6.8,0.4-10.3c0.1-3.4,0.2-6.9,0.3-10.3
				c0-0.3,0.3-0.5,0.5-0.5l0,0c3.7,0.1,7.4,0.1,11,0.3c3.7,0.1,7.4,0.2,11,0.4c7.4,0.3,14.7,0.5,22.1,0.9l0,0c0.6,0,1,0.5,1,1.1l0,0
				c-0.2,3.5-0.4,7-0.6,10.4l-0.7,10.4C179.3,252.2,178.7,259,178.2,265.6z M178.1,265.4l0.3-20.8l0.2-10.2
				c0.1-3.4,0.2-6.7,0.3-10.1l1,1.1c-7.4-0.3-14.7-0.7-22.1-1.1c-3.7-0.2-7.4-0.4-11-0.7c-3.7-0.2-7.4-0.5-11-0.8l0.6-0.5
				c-0.2,3.4-0.5,6.8-0.7,10.3c-0.2,3.4-0.4,6.8-0.5,10.3c-0.1,3.4-0.2,6.9-0.3,10.3l-0.2,10.3l-0.8-0.8c3.6,0.1,7.3,0.2,10.9,0.4
				c3.6,0.2,7.2,0.4,10.9,0.7c3.6,0.2,7.3,0.5,11,0.8C170.5,264.8,174.3,265.1,178.1,265.4z"/>
			<path d="M229.7,267.9c-3.6,0-7.2-0.1-10.8-0.1c-3.7-0.1-7.3-0.1-11.1-0.2c-3.7-0.1-7.4-0.2-11.2-0.4c-3.7-0.1-7.5-0.3-11.2-0.6
				l0,0c-0.4,0-0.8-0.4-0.7-0.8l0,0l0.7-10.3c0.3-3.4,0.5-6.8,0.7-10.3c0.2-3.4,0.3-6.8,0.4-10.3c0.1-3.4,0.2-6.9,0.3-10.3
				c0-0.3,0.3-0.5,0.5-0.5l0,0c3.7,0.1,7.4,0.1,11,0.3c3.7,0.1,7.4,0.2,11,0.4c7.4,0.3,14.7,0.5,22.1,0.9l0,0c0.6,0,1,0.5,1,1.1l0,0
				c-0.2,3.5-0.4,7-0.6,10.4l-0.7,10.4C230.8,254.5,230.3,261.3,229.7,267.9z M229.6,267.8l0.3-20.8l0.2-10.2
				c0.1-3.4,0.2-6.7,0.3-10.1l1,1.1c-7.4-0.3-14.7-0.7-22.1-1.1c-3.7-0.2-7.4-0.4-11-0.7c-3.7-0.2-7.4-0.5-11-0.8l0.6-0.5
				c-0.2,3.4-0.5,6.8-0.7,10.3c-0.2,3.4-0.4,6.8-0.5,10.3c-0.1,3.4-0.2,6.9-0.3,10.3l-0.2,10.3l-0.8-0.8c3.6,0.1,7.3,0.2,10.9,0.4
				c3.6,0.2,7.2,0.4,10.9,0.7c3.6,0.2,7.3,0.5,11,0.8C222.1,267.2,225.8,267.5,229.6,267.8z"/>
			<path d="M281.3,270.3c-3.6,0-7.2-0.1-10.8-0.1c-3.7-0.1-7.3-0.1-11.1-0.2c-3.7-0.1-7.4-0.2-11.2-0.4c-3.7-0.1-7.5-0.3-11.2-0.6
				l0,0c-0.4,0-0.8-0.4-0.7-0.8l0,0l0.7-10.3c0.3-3.4,0.5-6.8,0.7-10.3c0.2-3.4,0.3-6.8,0.4-10.3c0.1-3.4,0.2-6.9,0.3-10.3
				c0-0.3,0.3-0.5,0.5-0.5l0,0c3.7,0.1,7.4,0.1,11,0.3c3.7,0.1,7.4,0.2,11,0.4c7.4,0.3,14.7,0.5,22.1,0.9l0,0c0.6,0,1,0.5,1,1.1l0,0
				c-0.2,3.5-0.4,7-0.6,10.4l-0.7,10.4C282.4,256.9,281.8,263.7,281.3,270.3z M281.2,270.2l0.3-20.8l0.2-10.2
				c0.1-3.4,0.2-6.7,0.3-10.1l1,1.1c-7.4-0.3-14.7-0.7-22.1-1.1c-3.7-0.2-7.4-0.4-11-0.7c-3.7-0.2-7.4-0.5-11-0.8l0.6-0.5
				c-0.2,3.4-0.5,6.8-0.7,10.3c-0.2,3.4-0.4,6.8-0.5,10.3c-0.1,3.4-0.2,6.9-0.3,10.3l-0.2,10.3l-0.8-0.8c3.6,0.1,7.3,0.2,10.9,0.4
				c3.6,0.2,7.2,0.4,10.9,0.7c3.6,0.2,7.3,0.5,11,0.8C273.6,269.5,277.4,269.8,281.2,270.2z"/>
			<path d="M332.8,272.7c-3.6,0-7.2-0.1-10.8-0.1c-3.7-0.1-7.3-0.1-11.1-0.2c-3.7-0.1-7.4-0.2-11.2-0.4c-3.7-0.1-7.5-0.3-11.2-0.6
				l0,0c-0.4,0-0.8-0.4-0.7-0.8l0,0l0.7-10.3c0.3-3.4,0.5-6.8,0.7-10.3c0.2-3.4,0.3-6.8,0.4-10.3c0.1-3.4,0.2-6.9,0.3-10.3
				c0-0.3,0.3-0.5,0.5-0.5l0,0c3.7,0.1,7.4,0.1,11,0.3c3.7,0.1,7.4,0.2,11,0.4c7.4,0.3,14.7,0.5,22.1,0.9l0,0c0.6,0,1,0.5,1,1.1l0,0
				c-0.2,3.5-0.4,7-0.6,10.4l-0.7,10.4C333.9,259.2,333.4,266,332.8,272.7z M332.7,272.5l0.3-20.8l0.2-10.2
				c0.1-3.4,0.2-6.7,0.3-10.1l1,1.1c-7.4-0.3-14.7-0.7-22.1-1.1c-3.7-0.2-7.4-0.4-11-0.7c-3.7-0.2-7.4-0.5-11-0.8l0.6-0.5
				c-0.2,3.4-0.5,6.8-0.7,10.3c-0.2,3.4-0.4,6.8-0.5,10.3c-0.1,3.4-0.2,6.9-0.3,10.3l-0.2,10.3l-0.8-0.8c3.6,0.1,7.3,0.2,10.9,0.4
				c3.6,0.2,7.2,0.4,10.9,0.7c3.6,0.2,7.3,0.5,11,0.8C325.2,271.9,328.9,272.2,332.7,272.5z"/>
			<path d="M384.4,275c-3.6,0-7.2-0.1-10.8-0.1c-3.7-0.1-7.3-0.1-11.1-0.2c-3.7-0.1-7.4-0.2-11.2-0.4c-3.7-0.1-7.5-0.3-11.2-0.6l0,0
				c-0.4,0-0.8-0.4-0.7-0.8l0,0l0.7-10.3c0.3-3.4,0.5-6.8,0.7-10.3c0.2-3.4,0.3-6.8,0.4-10.3c0.1-3.4,0.2-6.9,0.3-10.3
				c0-0.3,0.3-0.5,0.5-0.5l0,0c3.7,0.1,7.4,0.1,11,0.3c3.7,0.1,7.4,0.2,11,0.4c7.4,0.3,14.7,0.5,22.1,0.9l0,0c0.6,0,1,0.5,1,1.1v0
				c-0.2,3.5-0.4,7-0.6,10.4l-0.7,10.4C385.5,261.6,384.9,268.4,384.4,275z M384.3,274.9l0.3-20.8l0.2-10.2
				c0.1-3.4,0.2-6.7,0.3-10.1l1,1.1c-7.4-0.3-14.7-0.7-22.1-1.1c-3.7-0.2-7.4-0.4-11-0.7c-3.7-0.2-7.4-0.5-11-0.8l0.6-0.5
				c-0.2,3.4-0.5,6.8-0.7,10.3c-0.2,3.4-0.4,6.8-0.5,10.3c-0.1,3.4-0.2,6.9-0.3,10.3L341,273l-0.8-0.8c3.6,0.1,7.3,0.2,10.9,0.4
				c3.6,0.2,7.2,0.4,10.9,0.7c3.6,0.2,7.3,0.5,11,0.8C376.7,274.3,380.5,274.6,384.3,274.9z"/>
			<path d="M435.9,277.4c-3.6,0-7.2-0.1-10.8-0.1c-3.7-0.1-7.3-0.1-11.1-0.2c-3.7-0.1-7.4-0.2-11.2-0.4c-3.7-0.1-7.5-0.3-11.2-0.6
				l0,0c-0.4,0-0.8-0.4-0.7-0.8l0,0l0.7-10.3c0.3-3.4,0.5-6.8,0.7-10.3c0.2-3.4,0.3-6.8,0.4-10.3c0.1-3.4,0.2-6.9,0.3-10.3
				c0-0.3,0.3-0.5,0.5-0.5l0,0c3.7,0.1,7.4,0.1,11,0.3c3.7,0.1,7.4,0.2,11,0.4c7.4,0.3,14.7,0.5,22.1,0.9l0,0c0.6,0,1,0.5,1,1.1l0,0
				c-0.2,3.5-0.4,7-0.6,10.4l-0.7,10.4C437,264,436.5,270.8,435.9,277.4z M435.8,277.2l0.3-20.8l0.2-10.2c0.1-3.4,0.2-6.7,0.3-10.1
				l1,1.1c-7.4-0.3-14.7-0.7-22.1-1.1c-3.7-0.2-7.4-0.4-11-0.7c-3.7-0.2-7.4-0.5-11-0.8l0.6-0.5c-0.2,3.4-0.5,6.8-0.7,10.3
				c-0.2,3.4-0.4,6.8-0.5,10.3c-0.1,3.4-0.2,6.9-0.3,10.3l-0.2,10.3l-0.8-0.8c3.6,0.1,7.3,0.2,10.9,0.4c3.6,0.2,7.2,0.4,10.9,0.7
				c3.6,0.2,7.3,0.5,11,0.8C428.3,276.6,432,276.9,435.8,277.2z"/>
			<path d="M487.5,279.7c-3.6,0-7.2-0.1-10.8-0.1c-3.7-0.1-7.3-0.1-11.1-0.2c-3.7-0.1-7.4-0.2-11.2-0.4c-3.7-0.1-7.5-0.3-11.2-0.6
				l0,0c-0.4,0-0.8-0.4-0.7-0.8l0,0l0.7-10.3c0.3-3.4,0.5-6.8,0.7-10.3c0.2-3.4,0.3-6.8,0.4-10.3c0.1-3.4,0.2-6.9,0.3-10.3
				c0-0.3,0.3-0.5,0.5-0.5l0,0c3.7,0.1,7.4,0.1,11,0.3c3.7,0.1,7.4,0.2,11,0.4c7.4,0.3,14.7,0.5,22.1,0.9l0,0c0.6,0,1,0.5,1,1.1l0,0
				c-0.2,3.5-0.4,7-0.6,10.4l-0.7,10.4C488.6,266.3,488,273.1,487.5,279.7z M487.4,279.6l0.3-20.8l0.2-10.2
				c0.1-3.4,0.2-6.7,0.3-10.1l1,1.1c-7.4-0.3-14.7-0.7-22.1-1.1c-3.7-0.2-7.4-0.4-11-0.7c-3.7-0.2-7.4-0.5-11-0.8l0.6-0.5
				c-0.2,3.4-0.5,6.8-0.7,10.3c-0.2,3.4-0.4,6.8-0.5,10.3c-0.1,3.4-0.2,6.9-0.3,10.3l-0.2,10.3l-0.8-0.8c3.6,0.1,7.3,0.2,10.9,0.4
				c3.6,0.2,7.2,0.4,10.9,0.7c3.6,0.2,7.3,0.5,11,0.8C479.8,279,483.6,279.3,487.4,279.6z"/>
			<path d="M175.9,315.5c-3.6,0-7.2-0.1-10.8-0.1c-3.7-0.1-7.3-0.1-11.1-0.2c-3.7-0.1-7.4-0.2-11.2-0.4c-3.7-0.1-7.5-0.3-11.2-0.6
				l0,0c-0.4,0-0.8-0.4-0.7-0.8l0,0l0.7-10.3c0.3-3.4,0.5-6.8,0.7-10.3c0.2-3.4,0.3-6.8,0.4-10.3c0.1-3.4,0.2-6.9,0.3-10.3
				c0-0.3,0.3-0.5,0.5-0.5l0,0c3.7,0.1,7.4,0.1,11,0.3c3.7,0.1,7.4,0.2,11,0.4c7.4,0.3,14.7,0.5,22.1,0.9l0,0c0.6,0,1,0.5,1,1.1l0,0
				c-0.2,3.5-0.4,7-0.6,10.4l-0.7,10.4C177,302.1,176.4,308.9,175.9,315.5z M175.8,315.4l0.3-20.8l0.2-10.2
				c0.1-3.4,0.2-6.7,0.3-10.1l1,1.1c-7.4-0.3-14.7-0.7-22.1-1.1c-3.7-0.2-7.4-0.4-11-0.7c-3.7-0.2-7.4-0.5-11-0.8l0.6-0.5
				c-0.2,3.4-0.5,6.8-0.7,10.3c-0.2,3.4-0.4,6.8-0.5,10.3c-0.1,3.4-0.2,6.9-0.3,10.3l-0.2,10.3l-0.8-0.8c3.6,0.1,7.3,0.2,10.9,0.4
				c3.6,0.2,7.2,0.4,10.9,0.7c3.6,0.2,7.3,0.5,11,0.8C168.2,314.8,172,315.1,175.8,315.4z"/>
			<path d="M227.5,317.9c-3.6,0-7.2-0.1-10.8-0.1c-3.7-0.1-7.3-0.1-11.1-0.2c-3.7-0.1-7.4-0.2-11.2-0.4c-3.7-0.1-7.5-0.3-11.2-0.6
				l0,0c-0.4,0-0.8-0.4-0.7-0.8l0,0l0.7-10.3c0.3-3.4,0.5-6.8,0.7-10.3c0.2-3.4,0.3-6.8,0.4-10.3c0.1-3.4,0.2-6.9,0.3-10.3
				c0-0.3,0.3-0.5,0.5-0.5l0,0c3.7,0.1,7.4,0.1,11,0.3c3.7,0.1,7.4,0.2,11,0.4c7.4,0.3,14.7,0.5,22.1,0.9l0,0c0.6,0,1,0.5,1,1.1l0,0
				c-0.2,3.5-0.4,7-0.6,10.4l-0.7,10.4C228.5,304.5,228,311.3,227.5,317.9z M227.3,317.8l0.3-20.8l0.2-10.2
				c0.1-3.4,0.2-6.7,0.3-10.1l1,1.1c-7.4-0.3-14.7-0.7-22.1-1.1c-3.7-0.2-7.4-0.4-11-0.7c-3.7-0.2-7.4-0.5-11-0.8l0.6-0.5
				c-0.2,3.4-0.5,6.8-0.7,10.3c-0.2,3.4-0.4,6.8-0.5,10.3c-0.1,3.4-0.2,6.9-0.3,10.3l-0.2,10.3l-0.8-0.8c3.6,0.1,7.3,0.2,10.9,0.4
				c3.6,0.2,7.2,0.4,10.9,0.7c3.6,0.2,7.3,0.5,11,0.8C219.8,317.1,223.5,317.4,227.3,317.8z"/>
			<path d="M279,320.3c-3.6,0-7.2-0.1-10.8-0.1c-3.7-0.1-7.3-0.1-11.1-0.2c-3.7-0.1-7.4-0.2-11.2-0.4c-3.7-0.1-7.5-0.3-11.2-0.6l0,0
				c-0.4,0-0.8-0.4-0.7-0.8l0,0l0.7-10.3c0.3-3.4,0.5-6.8,0.7-10.3c0.2-3.4,0.3-6.8,0.4-10.3c0.1-3.4,0.2-6.9,0.3-10.3
				c0-0.3,0.3-0.5,0.5-0.5l0,0c3.7,0.1,7.4,0.1,11,0.3c3.7,0.1,7.4,0.2,11,0.4c7.4,0.3,14.7,0.5,22.1,0.9l0,0c0.6,0,1,0.5,1,1.1v0
				c-0.2,3.5-0.4,7-0.6,10.4l-0.7,10.4C280.1,306.8,279.5,313.6,279,320.3z M278.9,320.1l0.3-20.8l0.2-10.2
				c0.1-3.4,0.2-6.7,0.3-10.1l1,1.1c-7.4-0.3-14.7-0.7-22.1-1.1c-3.7-0.2-7.4-0.4-11-0.7c-3.7-0.2-7.4-0.5-11-0.8l0.6-0.5
				c-0.2,3.4-0.5,6.8-0.7,10.3c-0.2,3.4-0.4,6.8-0.5,10.3c-0.1,3.4-0.2,6.9-0.3,10.3l-0.2,10.3l-0.8-0.8c3.6,0.1,7.3,0.2,10.9,0.4
				c3.6,0.2,7.2,0.4,10.9,0.7c3.6,0.2,7.3,0.5,11,0.8C271.3,319.5,275.1,319.8,278.9,320.1z"/>
			<path d="M330.6,322.6c-3.6,0-7.2-0.1-10.8-0.1c-3.7-0.1-7.3-0.1-11.1-0.2c-3.7-0.1-7.4-0.2-11.2-0.4c-3.7-0.1-7.5-0.3-11.2-0.6
				l0,0c-0.4,0-0.8-0.4-0.7-0.8l0,0l0.7-10.3c0.3-3.4,0.5-6.8,0.7-10.3c0.2-3.4,0.3-6.8,0.4-10.3c0.1-3.4,0.2-6.9,0.3-10.3
				c0-0.3,0.3-0.5,0.5-0.5l0,0c3.7,0.1,7.4,0.1,11,0.3c3.7,0.1,7.4,0.2,11,0.4c7.4,0.3,14.7,0.5,22.1,0.9l0,0c0.6,0,1,0.5,1,1.1l0,0
				c-0.2,3.5-0.4,7-0.6,10.4l-0.7,10.4C331.6,309.2,331.1,316,330.6,322.6z M330.4,322.5l0.3-20.8l0.2-10.2
				c0.1-3.4,0.2-6.7,0.3-10.1l1,1.1c-7.4-0.3-14.7-0.7-22.1-1.1c-3.7-0.2-7.4-0.4-11-0.7c-3.7-0.2-7.4-0.5-11-0.8l0.6-0.5
				c-0.2,3.4-0.5,6.8-0.7,10.3c-0.2,3.4-0.4,6.8-0.5,10.3c-0.1,3.4-0.2,6.9-0.3,10.3l-0.2,10.3l-0.8-0.8c3.6,0.1,7.3,0.2,10.9,0.4
				c3.6,0.2,7.2,0.4,10.9,0.7c3.6,0.2,7.3,0.5,11,0.8C322.9,321.9,326.6,322.2,330.4,322.5z"/>
			<path d="M382.1,325c-3.6,0-7.2-0.1-10.8-0.1c-3.7-0.1-7.3-0.1-11.1-0.2c-3.7-0.1-7.4-0.2-11.2-0.4c-3.7-0.1-7.5-0.3-11.2-0.6l0,0
				c-0.4,0-0.8-0.4-0.7-0.8l0,0l0.7-10.3c0.3-3.4,0.5-6.8,0.7-10.3c0.2-3.4,0.3-6.8,0.4-10.3c0.1-3.4,0.2-6.9,0.3-10.3
				c0-0.3,0.3-0.5,0.5-0.5l0,0c3.7,0.1,7.4,0.1,11,0.3c3.7,0.1,7.4,0.2,11,0.4c7.4,0.3,14.7,0.5,22.1,0.9l0,0c0.6,0,1,0.5,1,1.1l0,0
				c-0.2,3.5-0.4,7-0.6,10.4l-0.7,10.4C383.2,311.6,382.6,318.4,382.1,325z M382,324.8l0.3-20.8l0.2-10.2c0.1-3.4,0.2-6.7,0.3-10.1
				l1,1.1c-7.4-0.3-14.7-0.7-22.1-1.1c-3.7-0.2-7.4-0.4-11-0.7c-3.7-0.2-7.4-0.5-11-0.8l0.6-0.5c-0.2,3.4-0.5,6.8-0.7,10.3
				c-0.2,3.4-0.4,6.8-0.5,10.3c-0.1,3.4-0.2,6.9-0.3,10.3l-0.2,10.3l-0.8-0.8c3.6,0.1,7.3,0.2,10.9,0.4c3.6,0.2,7.2,0.4,10.9,0.7
				c3.6,0.2,7.3,0.5,11,0.8C374.4,324.2,378.2,324.5,382,324.8z"/>
			<path d="M433.7,327.3c-3.6,0-7.2-0.1-10.8-0.1c-3.7-0.1-7.3-0.1-11.1-0.2c-3.7-0.1-7.4-0.2-11.2-0.4c-3.7-0.1-7.5-0.3-11.2-0.6
				l0,0c-0.4,0-0.8-0.4-0.7-0.8l0,0l0.7-10.3c0.3-3.4,0.5-6.8,0.7-10.3c0.2-3.4,0.3-6.8,0.4-10.3c0.1-3.4,0.2-6.9,0.3-10.3
				c0-0.3,0.3-0.5,0.5-0.5l0,0c3.7,0.1,7.4,0.1,11,0.3c3.7,0.1,7.4,0.2,11,0.4c7.4,0.3,14.7,0.5,22.1,0.9l0,0c0.6,0,1,0.5,1,1.1l0,0
				c-0.2,3.5-0.4,7-0.6,10.4l-0.7,10.4C434.7,313.9,434.2,320.7,433.7,327.3z M433.5,327.2l0.3-20.8l0.2-10.2
				c0.1-3.4,0.2-6.7,0.3-10.1l1,1.1c-7.4-0.3-14.7-0.7-22.1-1.1c-3.7-0.2-7.4-0.4-11-0.7c-3.7-0.2-7.4-0.5-11-0.8l0.6-0.5
				c-0.2,3.4-0.5,6.8-0.7,10.3c-0.2,3.4-0.4,6.8-0.5,10.3c-0.1,3.4-0.2,6.9-0.3,10.3l-0.2,10.3l-0.8-0.8c3.6,0.1,7.3,0.2,10.9,0.4
				c3.6,0.2,7.2,0.4,10.9,0.7c3.6,0.2,7.3,0.5,11,0.8C426,326.6,429.7,326.9,433.5,327.2z"/>
			<path d="M485.2,329.7c-3.6,0-7.2-0.1-10.8-0.1c-3.7-0.1-7.3-0.1-11.1-0.2c-3.7-0.1-7.4-0.2-11.2-0.4c-3.7-0.1-7.5-0.3-11.2-0.6
				l0,0c-0.4,0-0.8-0.4-0.7-0.8l0,0l0.7-10.3c0.3-3.4,0.5-6.8,0.7-10.3c0.2-3.4,0.3-6.8,0.4-10.3c0.1-3.4,0.2-6.9,0.3-10.3
				c0-0.3,0.3-0.5,0.5-0.5l0,0c3.7,0.1,7.4,0.1,11,0.3c3.7,0.1,7.4,0.2,11,0.4c7.4,0.3,14.7,0.5,22.1,0.9l0,0c0.6,0,1,0.5,1,1.1l0,0
				c-0.2,3.5-0.4,7-0.6,10.4l-0.7,10.4C486.3,316.3,485.7,323.1,485.2,329.7z M485.1,329.6l0.3-20.8l0.2-10.2
				c0.1-3.4,0.2-6.7,0.3-10.1l1,1.1c-7.4-0.3-14.7-0.7-22.1-1.1c-3.7-0.2-7.4-0.4-11-0.7c-3.7-0.2-7.4-0.5-11-0.8l0.6-0.5
				c-0.2,3.4-0.5,6.8-0.7,10.3c-0.2,3.4-0.4,6.8-0.5,10.3c-0.1,3.4-0.2,6.9-0.3,10.3l-0.2,10.3l-0.8-0.8c3.6,0.1,7.3,0.2,10.9,0.4
				c3.6,0.2,7.2,0.4,10.9,0.7c3.6,0.2,7.3,0.5,11,0.8C477.5,328.9,481.3,329.2,485.1,329.6z"/>
			<path d="M173.6,365.5c-3.6,0-7.2-0.1-10.8-0.1c-3.7-0.1-7.3-0.1-11.1-0.2c-3.7-0.1-7.4-0.2-11.2-0.4c-3.7-0.1-7.5-0.3-11.2-0.6
				l0,0c-0.4,0-0.8-0.4-0.7-0.8l0,0l0.7-10.3c0.3-3.4,0.5-6.8,0.7-10.3c0.2-3.4,0.3-6.8,0.4-10.3c0.1-3.4,0.2-6.9,0.3-10.3
				c0-0.3,0.3-0.5,0.5-0.5l0,0c3.7,0.1,7.4,0.1,11,0.3c3.7,0.1,7.4,0.2,11,0.4c7.4,0.3,14.7,0.5,22.1,0.9l0,0c0.6,0,1,0.5,1,1.1l0,0
				c-0.2,3.5-0.4,7-0.6,10.4l-0.7,10.4C174.7,352.1,174.2,358.9,173.6,365.5z M173.5,365.4l0.3-20.8l0.2-10.2
				c0.1-3.4,0.2-6.7,0.3-10.1l1,1.1c-7.4-0.3-14.7-0.7-22.1-1.1c-3.7-0.2-7.4-0.4-11-0.7c-3.7-0.2-7.4-0.5-11-0.8l0.6-0.5
				c-0.2,3.4-0.5,6.8-0.7,10.3c-0.2,3.4-0.4,6.8-0.5,10.3c-0.1,3.4-0.2,6.9-0.3,10.3l-0.2,10.3l-0.8-0.8c3.6,0.1,7.3,0.2,10.9,0.4
				c3.6,0.2,7.2,0.4,10.9,0.7c3.6,0.2,7.3,0.5,11,0.8C165.9,364.7,169.7,365,173.5,365.4z"/>
			<path d="M225.2,367.9c-3.6,0-7.2-0.1-10.8-0.1c-3.7-0.1-7.3-0.1-11.1-0.2c-3.7-0.1-7.4-0.2-11.2-0.4c-3.7-0.1-7.5-0.3-11.2-0.6
				l0,0c-0.4,0-0.8-0.4-0.7-0.8l0,0l0.7-10.3c0.3-3.4,0.5-6.8,0.7-10.3c0.2-3.4,0.3-6.8,0.4-10.3c0.1-3.4,0.2-6.9,0.3-10.3
				c0-0.3,0.3-0.5,0.5-0.5l0,0c3.7,0.1,7.4,0.1,11,0.3c3.7,0.1,7.4,0.2,11,0.4c7.4,0.3,14.7,0.5,22.1,0.9l0,0c0.6,0,1,0.5,1,1.1l0,0
				c-0.2,3.5-0.4,7-0.6,10.4l-0.7,10.4C226.2,354.4,225.7,361.2,225.2,367.9z M225,367.7l0.3-20.8l0.2-10.2
				c0.1-3.4,0.2-6.7,0.3-10.1l1,1.1c-7.4-0.3-14.7-0.7-22.1-1.1c-3.7-0.2-7.4-0.4-11-0.7c-3.7-0.2-7.4-0.5-11-0.8l0.6-0.5
				c-0.2,3.4-0.5,6.8-0.7,10.3c-0.2,3.4-0.4,6.8-0.5,10.3c-0.1,3.4-0.2,6.9-0.3,10.3l-0.2,10.3L181,365c3.6,0.1,7.3,0.2,10.9,0.4
				c3.6,0.2,7.2,0.4,10.9,0.7c3.6,0.2,7.3,0.5,11,0.8C217.5,367.1,221.2,367.4,225,367.7z"/>
			<path d="M276.7,370.2c-3.6,0-7.2-0.1-10.8-0.1c-3.7-0.1-7.3-0.1-11.1-0.2c-3.7-0.1-7.4-0.2-11.2-0.4c-3.7-0.1-7.5-0.3-11.2-0.6
				l0,0c-0.4,0-0.8-0.4-0.7-0.8l0,0l0.7-10.3c0.3-3.4,0.5-6.8,0.7-10.3c0.2-3.4,0.3-6.8,0.4-10.3c0.1-3.4,0.2-6.9,0.3-10.3
				c0-0.3,0.3-0.5,0.5-0.5l0,0c3.7,0.1,7.4,0.1,11,0.3c3.7,0.1,7.4,0.2,11,0.4c7.4,0.3,14.7,0.5,22.1,0.9l0,0c0.6,0,1,0.5,1,1.1l0,0
				c-0.2,3.5-0.4,7-0.6,10.4l-0.7,10.4C277.8,356.8,277.3,363.6,276.7,370.2z M276.6,370.1l0.3-20.8l0.2-10.2
				c0.1-3.4,0.2-6.7,0.3-10.1l1,1.1c-7.4-0.3-14.7-0.7-22.1-1.1c-3.7-0.2-7.4-0.4-11-0.7c-3.7-0.2-7.4-0.5-11-0.8l0.6-0.5
				c-0.2,3.4-0.5,6.8-0.7,10.3c-0.2,3.4-0.4,6.8-0.5,10.3c-0.1,3.4-0.2,6.9-0.3,10.3l-0.2,10.3l-0.8-0.8c3.6,0.1,7.3,0.2,10.9,0.4
				c3.6,0.2,7.2,0.4,10.9,0.7c3.6,0.2,7.3,0.5,11,0.8C269,369.5,272.8,369.8,276.6,370.1z"/>
			<path d="M328.3,372.6c-3.6,0-7.2-0.1-10.8-0.1c-3.7-0.1-7.3-0.1-11.1-0.2c-3.7-0.1-7.4-0.2-11.2-0.4c-3.7-0.1-7.5-0.3-11.2-0.6
				l0,0c-0.4,0-0.8-0.4-0.7-0.8l0,0l0.7-10.3c0.3-3.4,0.5-6.8,0.7-10.3c0.2-3.4,0.3-6.8,0.4-10.3c0.1-3.4,0.2-6.9,0.3-10.3
				c0-0.3,0.3-0.5,0.5-0.5l0,0c3.7,0.1,7.4,0.1,11,0.3c3.7,0.1,7.4,0.2,11,0.4c7.4,0.3,14.7,0.5,22.1,0.9l0,0c0.6,0,1,0.5,1,1.1l0,0
				c-0.2,3.5-0.4,7-0.6,10.4l-0.7,10.4C329.3,359.2,328.8,366,328.3,372.6z M328.1,372.4l0.3-20.8l0.2-10.2
				c0.1-3.4,0.2-6.7,0.3-10.1l1,1.1c-7.4-0.3-14.7-0.7-22.1-1.1c-3.7-0.2-7.4-0.4-11-0.7c-3.7-0.2-7.4-0.5-11-0.8l0.6-0.5
				c-0.2,3.4-0.5,6.8-0.7,10.3c-0.2,3.4-0.4,6.8-0.5,10.3c-0.1,3.4-0.2,6.9-0.3,10.3l-0.2,10.3l-0.8-0.8c3.6,0.1,7.3,0.2,10.9,0.4
				c3.6,0.2,7.2,0.4,10.9,0.7c3.6,0.2,7.3,0.5,11,0.8C320.6,371.8,324.3,372.1,328.1,372.4z"/>
			<path d="M379.8,374.9c-3.6,0-7.2-0.1-10.8-0.1c-3.7-0.1-7.3-0.1-11.1-0.2c-3.7-0.1-7.4-0.2-11.2-0.4c-3.7-0.1-7.5-0.3-11.2-0.6
				l0,0c-0.4,0-0.8-0.4-0.7-0.8l0,0l0.7-10.3c0.3-3.4,0.5-6.8,0.7-10.3c0.2-3.4,0.3-6.8,0.4-10.3c0.1-3.4,0.2-6.9,0.3-10.3
				c0-0.3,0.3-0.5,0.5-0.5l0,0c3.7,0.1,7.4,0.1,11,0.3c3.7,0.1,7.4,0.2,11,0.4c7.4,0.3,14.7,0.5,22.1,0.9l0,0c0.6,0,1,0.5,1,1.1l0,0
				c-0.2,3.5-0.4,7-0.6,10.4l-0.7,10.4C380.9,361.5,380.4,368.3,379.8,374.9z M379.7,374.8L380,354l0.2-10.2
				c0.1-3.4,0.2-6.7,0.3-10.1l1,1.1c-7.4-0.3-14.7-0.7-22.1-1.1c-3.7-0.2-7.4-0.4-11-0.7c-3.7-0.2-7.4-0.5-11-0.8l0.6-0.5
				c-0.2,3.4-0.5,6.8-0.7,10.3c-0.2,3.4-0.4,6.8-0.5,10.3c-0.1,3.4-0.2,6.9-0.3,10.3l-0.2,10.3l-0.8-0.8c3.6,0.1,7.3,0.2,10.9,0.4
				c3.6,0.2,7.2,0.4,10.9,0.7c3.6,0.2,7.3,0.5,11,0.8C372.1,374.2,375.9,374.5,379.7,374.8z"/>
			<path d="M431.4,377.3c-3.6,0-7.2-0.1-10.8-0.1c-3.7-0.1-7.3-0.1-11.1-0.2c-3.7-0.1-7.4-0.2-11.2-0.4c-3.7-0.1-7.5-0.3-11.2-0.6
				l0,0c-0.4,0-0.8-0.4-0.7-0.8l0,0l0.7-10.3c0.3-3.4,0.5-6.8,0.7-10.3c0.2-3.4,0.3-6.8,0.4-10.3c0.1-3.4,0.2-6.9,0.3-10.3
				c0-0.3,0.3-0.5,0.5-0.5l0,0c3.7,0.1,7.4,0.1,11,0.3c3.7,0.1,7.4,0.2,11,0.4c7.4,0.3,14.7,0.5,22.1,0.9l0,0c0.6,0,1,0.5,1,1.1v0
				c-0.2,3.5-0.4,7-0.6,10.4l-0.7,10.4C432.4,363.9,431.9,370.7,431.4,377.3z M431.2,377.2l0.3-20.8l0.2-10.2
				c0.1-3.4,0.2-6.7,0.3-10.1l1,1.1c-7.4-0.3-14.7-0.7-22.1-1.1c-3.7-0.2-7.4-0.4-11-0.7c-3.7-0.2-7.4-0.5-11-0.8l0.6-0.5
				c-0.2,3.4-0.5,6.8-0.7,10.3c-0.2,3.4-0.4,6.8-0.5,10.3c-0.1,3.4-0.2,6.9-0.3,10.3l-0.2,10.3l-0.8-0.8c3.6,0.1,7.3,0.2,10.9,0.4
				c3.6,0.2,7.2,0.4,10.9,0.6c3.6,0.2,7.3,0.5,11,0.8C423.7,376.5,427.4,376.8,431.2,377.2z"/>
			<path d="M482.9,379.7c-3.6,0-7.2-0.1-10.8-0.1c-3.7-0.1-7.3-0.1-11.1-0.2c-3.7-0.1-7.4-0.2-11.2-0.4c-3.7-0.1-7.5-0.3-11.2-0.6
				l0,0c-0.4,0-0.8-0.4-0.7-0.8l0,0l0.7-10.3c0.3-3.4,0.5-6.8,0.7-10.3c0.2-3.4,0.3-6.8,0.4-10.3c0.1-3.4,0.2-6.9,0.3-10.3
				c0-0.3,0.3-0.5,0.5-0.5l0,0c3.7,0.1,7.4,0.1,11,0.3c3.7,0.1,7.4,0.2,11,0.4c7.4,0.3,14.7,0.5,22.1,0.9l0,0c0.6,0,1,0.5,1,1.1l0,0
				c-0.2,3.5-0.4,7-0.6,10.4l-0.7,10.4C484,366.2,483.5,373,482.9,379.7z M482.8,379.5l0.3-20.8l0.2-10.2c0.1-3.4,0.2-6.7,0.3-10.1
				l1,1.1c-7.4-0.3-14.7-0.7-22.1-1.1c-3.7-0.2-7.4-0.4-11-0.7c-3.7-0.2-7.4-0.5-11-0.8l0.6-0.5c-0.2,3.4-0.5,6.8-0.7,10.3
				c-0.2,3.4-0.4,6.8-0.5,10.3c-0.1,3.4-0.2,6.9-0.3,10.3l-0.2,10.3l-0.8-0.8c3.6,0.1,7.3,0.2,10.9,0.4c3.6,0.2,7.2,0.4,10.9,0.7
				c3.6,0.2,7.3,0.5,11,0.8C475.2,378.9,479,379.2,482.8,379.5z"/>
		</g>
	</g>
	<g>
		<path d="M403.6,191.3c1.5,1.1,2.8,2.2,4.1,3.5c1.3,1.2,2.5,2.5,3.6,3.9c1.1,1.4,2.1,2.9,3.2,4.3c1.1,1.4,2.4,2.6,3.7,3.8
			c1.3,1.2,2.6,2.4,3.9,3.7c1.3,1.3,2.5,2.5,3.7,3.8c2.3,2.7,4.5,5.5,6.4,8.5c0,0,0,0.1,0,0.1c0,0-0.1,0-0.1,0
			c-2.9-2.2-5.4-4.6-7.9-7.2c-1.2-1.3-2.4-2.6-3.5-4c-1.2-1.3-2.2-2.8-3.3-4.2c-1.1-1.4-2.2-2.8-3.4-4.1c-1.2-1.3-2.7-2.4-4-3.6
			c-1.3-1.2-2.4-2.6-3.5-4c-1.1-1.4-2.2-2.8-3.1-4.4c0,0,0-0.1,0-0.1C403.5,191.2,403.6,191.2,403.6,191.3z"/>
		<path d="M432.3,191.3c-0.9,1.4-2,2.5-3.1,3.7c-1.1,1.2-2.2,2.3-3.5,3.2c-1.3,1-2.6,1.8-3.9,2.8c-1.2,1-2.3,2.2-3.4,3.4
			c-1,1.2-2.1,2.4-3.2,3.5c-1.1,1.1-2.2,2.2-3.4,3.3c-2.4,2.1-4.9,4-7.7,5.7c0,0-0.1,0-0.1,0c0,0,0-0.1,0-0.1
			c1.9-2.6,4.1-4.9,6.4-7.1c1.2-1.1,2.4-2.1,3.6-3.1c1.2-1,2.5-2,3.8-2.9c1.3-0.9,2.5-1.9,3.7-3c1.1-1.1,2.1-2.4,3.2-3.6
			c1.1-1.2,2.3-2.2,3.6-3.2c1.3-1,2.5-1.9,4-2.7c0,0,0.1,0,0.1,0C432.3,191.3,432.3,191.3,432.3,191.3z"/>
	</g>
	<g>
		<path d="M401.3,241.2c1.5,1.1,2.8,2.2,4.1,3.5c1.3,1.2,2.5,2.5,3.6,3.9c1.1,1.4,2.1,2.9,3.2,4.3c1.1,1.4,2.4,2.6,3.7,3.8
			c1.3,1.2,2.6,2.4,3.9,3.7c1.3,1.3,2.5,2.5,3.7,3.8c2.3,2.7,4.5,5.5,6.4,8.5c0,0,0,0.1,0,0.1c0,0-0.1,0-0.1,0
			c-2.9-2.2-5.4-4.6-7.9-7.2c-1.2-1.3-2.4-2.6-3.5-4c-1.2-1.3-2.2-2.8-3.3-4.2c-1.1-1.4-2.2-2.8-3.4-4.1c-1.2-1.3-2.7-2.4-4-3.6
			c-1.3-1.2-2.4-2.6-3.5-4c-1.1-1.4-2.2-2.8-3.1-4.4c0,0,0-0.1,0-0.1C401.2,241.2,401.3,241.2,401.3,241.2z"/>
		<path d="M430,241.3c-0.9,1.4-2,2.5-3.1,3.7c-1.1,1.2-2.2,2.3-3.5,3.2c-1.3,1-2.6,1.8-3.9,2.8c-1.2,1-2.3,2.2-3.4,3.4
			c-1,1.2-2.1,2.4-3.2,3.5c-1.1,1.1-2.2,2.2-3.4,3.3c-2.4,2.1-4.9,4-7.7,5.7c0,0-0.1,0-0.1,0c0,0,0-0.1,0-0.1
			c1.9-2.6,4.1-4.9,6.4-7.1c1.2-1.1,2.4-2.1,3.6-3.1c1.2-1,2.5-2,3.8-2.9c1.3-0.9,2.5-1.9,3.7-3c1.1-1.1,2.1-2.4,3.2-3.6
			c1.1-1.2,2.3-2.2,3.6-3.2c1.3-1,2.5-1.9,4-2.7c0,0,0.1,0,0.1,0C430,241.2,430,241.3,430,241.3z"/>
	</g>
	<g>
		<path d="M399,291.2c1.5,1.1,2.8,2.2,4.1,3.5c1.3,1.2,2.5,2.5,3.6,3.9c1.1,1.4,2.1,2.9,3.2,4.3c1.1,1.4,2.4,2.6,3.7,3.8
			c1.3,1.2,2.6,2.4,3.9,3.7c1.3,1.3,2.5,2.5,3.7,3.8c2.3,2.7,4.5,5.5,6.4,8.5c0,0,0,0.1,0,0.1c0,0-0.1,0-0.1,0
			c-2.9-2.2-5.4-4.6-7.9-7.2c-1.2-1.3-2.4-2.6-3.5-4c-1.2-1.3-2.2-2.8-3.3-4.2c-1.1-1.4-2.2-2.8-3.4-4.1c-1.2-1.3-2.7-2.4-4-3.6
			c-1.3-1.2-2.4-2.6-3.5-4c-1.1-1.4-2.2-2.8-3.1-4.4c0,0,0-0.1,0-0.1C398.9,291.2,399,291.2,399,291.2z"/>
		<path d="M427.7,291.2c-0.9,1.4-2,2.5-3.1,3.7c-1.1,1.2-2.2,2.3-3.5,3.2c-1.3,1-2.6,1.8-3.9,2.8c-1.2,1-2.3,2.2-3.4,3.4
			c-1,1.2-2.1,2.4-3.2,3.5c-1.1,1.1-2.2,2.2-3.4,3.3c-2.4,2.1-4.9,4-7.7,5.7c0,0-0.1,0-0.1,0c0,0,0-0.1,0-0.1
			c1.9-2.6,4.1-4.9,6.4-7.1c1.2-1.1,2.4-2.1,3.6-3.1c1.2-1,2.5-2,3.8-2.9c1.3-0.9,2.5-1.9,3.7-3c1.1-1.1,2.1-2.4,3.2-3.6
			c1.1-1.2,2.3-2.2,3.6-3.2c1.3-1,2.5-1.9,4-2.7c0,0,0.1,0,0.1,0C427.7,291.2,427.7,291.2,427.7,291.2z"/>
	</g>
	<path d="M429.6,351.6c-0.3,5.8-2.6,11.6-6.9,15.8c-4.2,4.3-10.4,6.5-16.4,6.1c-3-0.2-5.9-1-8.6-2.4c-2.6-1.4-5-3.2-6.9-5.4
		c-3.9-4.4-6.2-10.2-6.1-16.1c0.1-5.9,2.7-11.9,7.1-16c2.2-2.1,4.8-3.7,7.7-4.7c2.8-1.1,5.9-1.5,8.9-1.4c3,0.2,6,0.9,8.7,2.3
		c2.7,1.3,5.1,3.2,7,5.5C428.1,339.8,429.8,345.8,429.6,351.6z M429.4,351.6c0.1-2.9-0.4-5.8-1.5-8.4c-1.1-2.6-2.7-5.1-4.7-7
		c-4-3.9-9.4-6.4-14.9-6.6c-5.5-0.2-11.1,1.7-15.2,5.4c-4.1,3.7-6.8,9-7.3,14.6c-0.2,2.8,0.1,5.7,1.1,8.4c0.9,2.7,2.4,5.2,4.4,7.3
		c3.9,4.2,9.6,6.5,15.1,6.6c5.6,0.1,11.1-1.8,15.4-5.4c2.2-1.8,4-4.1,5.3-6.6C428.5,357.3,429.2,354.4,429.4,351.6z"/>
	<path class="st1" d="M121.6,257.8l-72,15.6l19.6,129.9c0,0,31.9-15,33.4-14.5s64.4,5.6,65.1,4.6c0.7-1,2.4-124.8,0-125.5
		s-24.1-2.6-24.1-2.6l-1.6-6.1l-19.6,1.4L121.6,257.8z"/>
	<g>
		<g>
			<path d="M141.1,263.4c3.7-0.2,7.4-0.3,11.1-0.4l11.1-0.2c0.4,0,0.7,0.3,0.7,0.7l0,0l0,0c0.1,5.4,0.1,10.8,0.2,16.2
				c0,5.4,0,10.8-0.1,16.2c-0.2,10.8-0.6,21.6-0.5,32.4c0,10.8,0.4,21.6,0.5,32.4l0.2,16.2c0,5.4,0.1,10.8,0.1,16.2
				c0,0.6-0.5,1.1-1.1,1.1c-4.6,0-9.3,0-13.9-0.1l-13.9-0.2c-4.6,0-9.3-0.2-13.9-0.3c-4.6-0.1-9.3-0.3-13.9-0.4
				c-0.1,0-0.1,0-0.1-0.1c0-0.1,0-0.1,0.1-0.1c4.6-0.2,9.3-0.3,13.9-0.4c4.6-0.1,9.3-0.2,13.9-0.3l13.9-0.2c4.6,0,9.3-0.1,13.9-0.1
				l-1.1,1.1c0-5.4,0-10.8,0.1-16.2l0.2-16.2c0.1-10.8,0.5-21.6,0.5-32.4c0.1-10.8-0.2-21.6-0.5-32.4c-0.1-5.4-0.1-10.8-0.1-16.2
				c0-5.4,0.1-10.8,0.2-16.2l0.7,0.7l-11.1-0.2c-3.7-0.1-7.4-0.2-11.1-0.4C141,263.6,141,263.6,141.1,263.4
				C141,263.5,141.1,263.4,141.1,263.4z"/>
			<g>
				<path d="M152.1,388.6c1.1-0.3,2.3-0.5,3.4-0.6c1.1-0.1,2.3-0.2,3.4-0.2l-0.9,0.9c0-1.3,0.1-2.7,0.3-4c0.2-1.3,0.3-2.7,0.2-4
					c-0.1-1.3-0.3-2.7-0.4-4c-0.1-1.3-0.2-2.7-0.3-4l1.8,0.7c-0.6,0.8-1.2,1.5-1.8,2.2c-0.6,0.7-1.3,1.4-2,2.1
					c-1.4,1.4-2.8,2.7-4.3,3.9c0,0-0.1,0-0.1,0c0,0,0-0.1,0-0.1c0.9-1.8,2-3.4,3.1-4.9c0.6-0.8,1.1-1.6,1.7-2.3
					c0.6-0.8,1.2-1.5,1.9-2.2l0.1-0.1c0.4-0.4,1-0.4,1.4-0.1c0.2,0.2,0.3,0.5,0.3,0.8c-0.1,1.3-0.1,2.7-0.3,4
					c-0.2,1.3-0.4,2.7-0.4,4c-0.1,1.3,0,2.7,0.2,4c0.2,1.3,0.4,2.7,0.3,4l0,0.1c0,0.5-0.4,0.9-0.9,0.8c-1.1,0-2.3-0.1-3.4-0.2
					c-1.1-0.1-2.3-0.3-3.4-0.6C152,388.8,152,388.8,152.1,388.6C152,388.7,152.1,388.6,152.1,388.6z"/>
				<path d="M158.9,267.8c0.3,2.4,0.6,5,0.7,7.8c0.1,1.4,0.1,2.8,0.1,4.2c0,1.4-0.2,2.8-0.3,4.2l0,0.1c0,0.3-0.3,0.5-0.6,0.5
					c-0.2,0-0.3-0.1-0.4-0.2c-1-1.5-2.1-2.8-3.2-4.2c-1.2-1.3-2.4-2.6-3.6-3.8c-1.3-1.2-2.4-2.5-3.6-3.8c-1.2-1.3-2.4-2.6-3.5-3.9
					c-0.4-0.5-0.3-1.1,0.1-1.5c0.2-0.2,0.4-0.2,0.7-0.2c1.2,0,2.4,0.1,3.6,0.1c1.2,0.1,2.4,0.1,3.5,0.2
					C154.7,267.3,156.9,267.6,158.9,267.8z M158.8,268c-2.5,0.3-4.8,0.5-7,0.7c-1.1,0.1-2.2,0.2-3.3,0.2c-1.1,0-2.1,0.1-3.2,0.1
					l0.8-1.8c1.1,1.3,2.2,2.7,3.3,4.1c1.1,1.4,2.2,2.8,3.2,4.2c1,1.4,2,2.9,3.1,4.2c1.1,1.4,2.3,2.7,3.5,3.9l-0.9,0.3
					c-0.1-1.3-0.3-2.6-0.3-3.9c-0.1-1.3,0-2.6,0.1-3.9C158.2,273.6,158.4,271,158.8,268z"/>
			</g>
		</g>
		<g>
			<path d="M120.3,262.3c3.4-0.5,6.8-0.8,10.2-1.2l10.3-1.1c0.4,0,0.7,0.2,0.7,0.6l0,0l0,0c1.1,10.7,2.2,21.5,3,32.2
				c0.8,10.8,1.3,21.6,2.3,32.3c0.9,10.8,2.1,21.5,3.3,32.2c1.1,10.7,2.1,21.5,3.1,32.2c0.1,0.6-0.4,1.1-0.9,1.1l0,0l0,0
				c-10.9,1-21.8,1.9-32.8,2.7l-8.2,0.6l-8.2,0.5c-5.5,0.4-10.9,0.7-16.4,1c-0.1,0-0.1,0-0.1-0.1c0-0.1,0-0.1,0.1-0.1
				c5.4-0.7,10.9-1.3,16.3-1.9l8.2-0.9l8.2-0.8c10.9-1.1,21.8-2.1,32.7-3.1l-1,1.1c-0.9-10.8-1.7-21.5-2.5-32.3
				c-0.7-10.8-1.4-21.5-2.4-32.3c-0.9-10.8-2.3-21.5-3.4-32.2c-1.1-10.7-1.9-21.5-2.6-32.3l0.7,0.6l-10.3,0.7
				c-3.4,0.2-6.9,0.4-10.3,0.5c-0.1,0-0.1,0-0.1-0.1C120.2,262.4,120.2,262.3,120.3,262.3z"/>
			<g>
				<path d="M133.9,386.8c1.1-0.4,2.2-0.6,3.3-0.8c1.1-0.2,2.2-0.4,3.3-0.5c1.1-0.1,2.2-0.2,3.4-0.2c1.1,0,2.3,0.1,3.4,0.1l-0.4,0.4
					c0-1.3-0.1-2.7-0.3-4c-0.2-1.3-0.5-2.6-0.8-4c-0.2-1.3-0.4-2.7-0.6-4c-0.2-1.3-0.3-2.7-0.4-4l1.9,0.5c-0.9,1.3-1.9,2.5-2.9,3.7
					c-1,1.2-2.1,2.4-3.3,3.5c0,0-0.1,0-0.1,0c0,0,0-0.1,0-0.1c0.6-1.5,1.4-2.9,2.2-4.3c0.8-1.4,1.6-2.7,2.5-4c0.3-0.5,1-0.6,1.4-0.3
					c0.3,0.2,0.4,0.5,0.5,0.7l0,0.1c0.2,1.3,0.2,2.7,0.3,4c0.1,1.3,0.1,2.7,0.1,4c0,1.3-0.1,2.7-0.1,4c0,1.3,0.1,2.7,0.4,4
					c0,0.2-0.1,0.4-0.3,0.4h0l-0.1,0c-1.1,0.2-2.2,0.5-3.3,0.7c-1.1,0.2-2.2,0.3-3.4,0.4c-1.1,0.1-2.3,0.1-3.4,0.1
					c-1.1,0-2.3-0.1-3.4-0.2C133.8,387,133.8,386.9,133.9,386.8C133.8,386.8,133.8,386.8,133.9,386.8z"/>
				<path d="M136.9,265.2c0.6,2.3,1,5,1.4,7.7c0.2,1.4,0.4,2.8,0.4,4.2c0.1,1.4,0,2.8,0.1,4.2l0,0.1c0,0.3-0.2,0.5-0.5,0.5
					c-0.2,0-0.3-0.1-0.4-0.2c-1.1-1.4-2.3-2.7-3.6-3.9c-1.3-1.2-2.6-2.3-4-3.5c-1.4-1.1-2.6-2.3-3.9-3.5c-1.3-1.2-2.6-2.4-3.8-3.6
					c-0.4-0.4-0.4-1.1,0-1.5c0.2-0.2,0.4-0.3,0.6-0.3c1.2-0.1,2.4-0.2,3.6-0.2c1.2,0,2.4-0.1,3.5-0.1
					C132.6,265.1,134.8,265.2,136.9,265.2z M136.7,265.4c-2.5,0.5-4.7,0.9-6.9,1.3c-1.1,0.2-2.2,0.3-3.2,0.5
					c-1.1,0.1-2.1,0.3-3.2,0.4l0.7-1.8c1.2,1.2,2.4,2.5,3.6,3.8c1.2,1.3,2.4,2.6,3.5,3.9c1.1,1.3,2.3,2.7,3.5,4
					c1.2,1.3,2.5,2.5,3.9,3.6l-0.9,0.4c-0.2-1.3-0.5-2.6-0.6-3.8c-0.2-1.3-0.2-2.5-0.3-3.8C136.6,271.1,136.7,268.4,136.7,265.4z"/>
			</g>
		</g>
		<g>
			<path d="M142.1,385.8l-35.6,6.8c-6,1.1-12,2.3-18,3.3l-18,3.3c-0.5,0.1-0.9-0.2-1-0.7l0,0l0,0l-1.4-8l-1.4-8l-2.7-16l-5.3-32
				l-2.7-16l-1.4-8l-1.4-8c-1.9-10.6-3.9-21.2-5.8-31.9c-0.1-0.3,0.1-0.6,0.4-0.6l0,0c11.9-2.2,23.8-4.5,35.8-6.6l35.8-6.5
				c0.6-0.1,1.1,0.3,1.2,0.8l0,0c2,10.7,3.8,21.4,5.6,32.1l2.8,16l2.7,16l5.3,31.9L142.1,385.8z M142,385.7l-6.1-32.1l-5.9-31.8
				l-2.9-15.9l-2.8-15.8c-1.9-10.6-3.8-21.1-5.6-31.7l1.2,0.8l-35.8,6.2c-12,2-23.9,4-35.9,6l0.4-0.6c1.8,10.6,3.5,21.3,5.4,31.9
				l1.4,8l1.4,8l2.9,15.9l6,31.8l2.9,15.9l1.4,8l1.4,8l-1-0.7l17.8-3c5.9-1,11.9-2,17.8-3L142,385.7z"/>
			<path d="M114.5,324.9c0.9,5.1,0,10.6-2.9,15.1c-2.8,4.6-7.8,7.8-13.1,8.6c-2.7,0.4-5.4,0.2-8-0.4c-2.6-0.7-5-1.8-7.1-3.4
				c-4.3-3.1-7.4-7.7-8.5-12.9c-1.1-5.2,0-10.9,3-15.4c1.5-2.2,3.5-4.2,5.8-5.7c2.3-1.5,4.9-2.5,7.5-3c2.7-0.4,5.5-0.4,8.1,0.3
				c2.6,0.6,5.1,1.9,7.2,3.5C110.9,314.9,113.6,319.8,114.5,324.9z M114.3,324.9c-0.5-2.5-1.4-5-2.9-7c-1.5-2.1-3.3-3.8-5.5-5.2
				c-4.3-2.6-9.4-3.7-14.2-2.8c-4.8,0.9-9.3,3.6-12.1,7.6c-2.9,4-4.2,9.1-3.5,14.1c0.4,2.5,1.2,4.9,2.5,7.1c1.3,2.2,3.1,4,5.2,5.5
				c4.2,2.9,9.6,3.7,14.4,2.7c4.9-1,9.3-3.7,12.4-7.6c1.5-2,2.7-4.3,3.4-6.7C114.6,330.1,114.7,327.4,114.3,324.9z"/>
			<g>
				<path d="M53.1,274.4c0.9,2.9,1.6,5.5,2.1,8c0.3,1.3,0.6,2.5,0.7,3.8c0.2,1.3,0.2,2.5,0.4,3.9l-1-0.2c1-1.4,2-2.9,2.8-4.4
					c0.8-1.5,1.6-3.1,2.3-4.7c0.7-1.6,1.5-3.2,2.4-4.7c0.8-1.5,1.6-3.1,2.5-4.6l1.1,1.6c-1,0.2-2.1,0.3-3.2,0.5
					c-1.1,0.1-2.1,0.2-3.2,0.3C57.9,274.1,55.6,274.2,53.1,274.4z M53,274.3c1.9-0.6,4.1-1.2,6.3-1.8c1.1-0.3,2.3-0.6,3.4-0.8
					c1.2-0.2,2.3-0.5,3.5-0.7c0.6-0.1,1.1,0.3,1.2,0.9c0,0.3,0,0.5-0.1,0.7c-0.9,1.5-1.8,3-2.7,4.5c-0.9,1.5-1.9,3-2.9,4.4
					c-1,1.4-2,2.9-2.9,4.4c-0.9,1.5-1.7,3-2.4,4.7c-0.1,0.3-0.4,0.4-0.7,0.3c-0.1-0.1-0.2-0.2-0.3-0.3l0-0.1c-0.4-1.3-0.8-2.7-1-4.1
					c-0.3-1.4-0.5-2.8-0.7-4.1C53.3,279.3,53,276.7,53,274.3z"/>
				<path d="M74,393.4c-0.7-2.3-1.5-4.9-2.1-7.5c-0.3-1.3-0.6-2.7-0.8-4.1c-0.2-1.4-0.3-2.8-0.4-4.2l0-0.1c0-0.3,0.2-0.5,0.5-0.6
					c0.2,0,0.3,0,0.4,0.2c1.2,1.3,2.5,2.4,3.9,3.5c1.4,1.1,2.8,2.1,4.2,3.1c1.4,1,2.8,2.1,4.2,3.1c1.4,1.1,2.8,2.1,4.1,3.3
					c0.5,0.4,0.5,1.1,0.1,1.5c-0.2,0.2-0.4,0.3-0.6,0.4c-1.2,0.2-2.4,0.4-3.5,0.5c-1.2,0.1-2.3,0.3-3.5,0.4
					C78.2,393.2,76,393.3,74,393.4z M74.1,393.3c2.4-0.7,4.6-1.3,6.8-1.9c1.1-0.3,2.1-0.5,3.2-0.8c1-0.2,2.1-0.5,3.1-0.6l-0.5,1.9
					c-1.4-1.1-2.6-2.3-3.9-3.5c-1.3-1.2-2.6-2.3-3.8-3.6c-1.2-1.2-2.5-2.5-3.8-3.6c-1.3-1.2-2.7-2.2-4.2-3.2l0.9-0.5
					c0.3,1.3,0.7,2.5,1,3.7c0.3,1.2,0.4,2.5,0.6,3.8C73.7,387.6,73.9,390.3,74.1,393.3z"/>
				<path d="M136.8,382.2c-0.9-2.9-1.6-5.5-2.1-8c-0.3-1.3-0.6-2.5-0.7-3.8c-0.2-1.3-0.2-2.5-0.4-3.9l1,0.2c-1,1.4-2,2.9-2.8,4.4
					c-0.8,1.5-1.6,3.1-2.3,4.7c-0.7,1.6-1.5,3.2-2.4,4.7c-0.8,1.5-1.6,3.1-2.5,4.6l-1.1-1.6c1-0.2,2.1-0.3,3.2-0.5
					c1.1-0.1,2.1-0.2,3.2-0.3C132,382.5,134.3,382.4,136.8,382.2z M137,382.3c-1.9,0.6-4.1,1.2-6.3,1.8c-1.1,0.3-2.3,0.6-3.4,0.8
					c-1.2,0.2-2.3,0.5-3.5,0.7c-0.6,0.1-1.1-0.3-1.2-0.9c0-0.3,0-0.5,0.1-0.7c0.9-1.5,1.8-3,2.7-4.5c0.9-1.5,1.9-3,2.9-4.4
					c1-1.4,2-2.9,2.9-4.4c0.9-1.5,1.7-3,2.4-4.7c0.1-0.3,0.4-0.4,0.7-0.3c0.1,0.1,0.2,0.2,0.3,0.3l0,0.1c0.4,1.3,0.8,2.7,1,4.1
					c0.3,1.4,0.5,2.8,0.7,4.1C136.7,377.3,136.9,379.9,137,382.3z"/>
				<path d="M116,263.2c0.7,2.3,1.5,4.9,2.1,7.5c0.3,1.3,0.6,2.7,0.8,4.1c0.2,1.4,0.3,2.8,0.4,4.2l0,0.1c0,0.3-0.2,0.5-0.5,0.6
					c-0.2,0-0.3,0-0.4-0.2c-1.2-1.3-2.5-2.4-3.9-3.5c-1.4-1.1-2.8-2.1-4.2-3.1c-1.4-1-2.8-2.1-4.2-3.1c-1.4-1.1-2.8-2.1-4.1-3.3
					c-0.5-0.4-0.5-1.1-0.1-1.5c0.2-0.2,0.4-0.3,0.6-0.4c1.2-0.2,2.4-0.4,3.5-0.5c1.2-0.1,2.3-0.3,3.5-0.4
					C111.8,263.4,114,263.3,116,263.2z M115.9,263.3c-2.4,0.7-4.6,1.3-6.8,1.9c-1.1,0.3-2.1,0.5-3.2,0.8c-1,0.2-2.1,0.5-3.1,0.6
					l0.5-1.9c1.4,1.1,2.6,2.3,3.9,3.5c1.3,1.2,2.6,2.3,3.8,3.6c1.2,1.2,2.5,2.5,3.8,3.6c1.3,1.2,2.7,2.2,4.2,3.2l-0.9,0.5
					c-0.3-1.3-0.7-2.5-1-3.7c-0.3-1.2-0.4-2.5-0.6-3.8C116.3,269,116.1,266.4,115.9,263.3z"/>
			</g>
		</g>
	</g>
	<circle class="st2" cx="10.7" cy="179.6" r="7.7"/>
	<circle class="st2" cx="220.8" cy="72.9" r="7.7"/>
	<circle class="st0" cx="293.2" cy="438.4" r="5.1"/>
	<circle class="st3" cx="43.8" cy="215.9" r="6.3"/>
	<circle class="st4" cx="17.3" cy="395.3" r="6.6"/>
	<circle class="st3" cx="144.3" cy="344.9" r="3.7"/>
	<circle class="st2" cx="364.4" cy="98.6" r="10.4"/>
	<circle class="st1" cx="304.9" cy="17.9" r="11.7"/>
	<circle class="st4" cx="556.8" cy="277.5" r="6.4"/>
	<circle class="st3" cx="419" cy="444.7" r="1.1"/>
	<circle class="st3" cx="420.2" cy="64.4" r="10.1"/>
	<circle class="st3" cx="168.9" cy="102.3" r="2.4"/>
</g>
</svg>
