<svg width="269" height="212" viewBox="0 0 269 212" fill="none" xmlns="http://www.w3.org/2000/svg">
<path d="M60.1681 64.585C60.1681 64.585 60.6946 105.877 57.9186 113.254C55.1905 120.631 52.7495 173.708 52.7495 173.708L236.396 187.552L241.565 74.3572L142.204 64.3455L60.1681 64.585Z" fill="#F089C0"/>
<path d="M237.975 184.821L191.788 182.905L145.458 180.893L122.245 179.887L99.0318 178.833C83.5724 178.115 68.1129 177.348 52.6535 176.582C52.5099 176.582 52.3663 176.438 52.4142 176.294L53.8022 147.888L55.1423 119.481L57.6311 62.6207C57.6311 62.477 57.7747 62.3812 57.9183 62.3812L150.579 66.4051L196.91 68.5128L243.24 70.6684C243.479 70.6684 243.671 70.9079 243.671 71.1475L237.975 184.821ZM237.927 184.773L242.714 71.0996L243.144 71.5786L196.814 69.4709L150.484 67.3152L57.8226 62.8603L58.1098 62.6207L55.3816 119.481L54.0893 147.888L52.8928 176.294L52.6535 176.007C68.0651 176.677 83.4766 177.3 98.8882 178.019L122.006 179.073L145.123 180.174L191.453 182.426L237.927 184.773Z" fill="black"/>
<path d="M57.3916 73.2075C65.0974 73.3991 72.8511 73.6386 80.5568 73.926L92.1395 74.405C96.0163 74.5487 99.8453 74.7883 103.722 74.9799L115.305 75.6026L121.096 75.9379L126.887 76.2253C134.593 76.6086 142.347 76.896 150.053 77.1834C157.758 77.4229 165.512 77.7103 173.218 78.0457C180.924 78.381 188.677 78.6684 196.383 79.0516C211.842 79.7702 227.254 80.6324 242.666 81.6384C242.713 81.6384 242.713 81.6863 242.713 81.6863C242.713 81.7342 242.713 81.7342 242.666 81.7342C227.206 81.3031 211.747 80.7282 196.335 80.0576C188.629 79.7223 180.876 79.339 173.17 78.9558C165.464 78.5726 157.71 78.1415 150.005 77.7103C142.299 77.2792 134.593 76.8481 126.839 76.5607L121.048 76.3211L115.257 76.1295L103.674 75.7463C99.7974 75.5547 95.9684 75.4589 92.0916 75.2194L80.509 74.6445C72.8032 74.2134 65.0974 73.7823 57.3438 73.2554C57.2959 73.2554 57.2959 73.2075 57.2959 73.2075C57.3438 73.2075 57.3438 73.2075 57.3916 73.2075Z" fill="black"/>
<path d="M74.3349 63.3873C74.1913 62.2855 74.3349 61.1358 74.7178 60.082C75.1007 59.0281 75.7229 57.9743 76.728 57.3036C77.2066 56.9683 77.8288 56.7767 78.4032 56.7288C78.9775 56.6809 79.5997 56.8246 80.0783 57.0641C81.1313 57.5431 81.8492 58.4533 82.4236 59.4113C82.9979 60.4173 83.333 61.5191 83.3808 62.6208C83.4765 63.7705 83.4287 64.9202 83.0936 66.0219C82.9501 66.5968 82.7107 67.1237 82.4714 67.6027C82.1843 68.1297 81.8492 68.6087 81.4663 68.9919C81.0356 69.423 80.557 69.7584 80.0305 69.9979C79.504 70.2374 78.8818 70.3332 78.3553 70.1895C78.3074 70.1895 78.3074 70.1416 78.3074 70.1416C78.3074 70.1416 78.3074 70.0937 78.3553 70.0937C79.4561 69.9979 80.2698 69.2793 80.892 68.5129C81.1792 68.0818 81.4185 67.6506 81.6578 67.1716C81.8492 66.6926 82.0407 66.2135 82.1364 65.7345C82.6629 63.7705 82.6629 61.567 81.945 59.603C81.7535 59.1239 81.5142 58.6449 81.1792 58.2138C80.8441 57.8305 80.4134 57.4952 79.9348 57.2557C79.4561 57.0641 78.9296 57.0162 78.451 57.1599C77.9724 57.2557 77.5417 57.5431 77.1588 57.8305C76.7759 58.1659 76.4408 58.5012 76.1536 58.9323C75.8665 59.3634 75.5793 59.7946 75.3879 60.2736C74.9571 61.2317 74.6699 62.2376 74.4306 63.2915C74.4306 63.3873 74.3828 63.4352 74.3349 63.3873C74.3349 63.4352 74.3349 63.3873 74.3349 63.3873Z" fill="black"/>
<path d="M92.2831 64.2016C92.1395 63.0998 92.2831 61.9501 92.666 60.8963C93.0489 59.8424 93.6711 58.7885 94.6762 58.1179C95.1549 57.7826 95.7771 57.591 96.3514 57.5431C96.9257 57.4951 97.548 57.6389 98.0266 57.8784C99.0795 58.3574 99.7975 59.2676 100.372 60.2256C100.946 61.2316 101.281 62.3333 101.329 63.4351C101.425 64.5848 101.377 65.7344 101.042 66.8362C100.898 67.411 100.659 67.938 100.42 68.417C100.133 68.9439 99.7975 69.423 99.4146 69.8062C98.9838 70.2373 98.5052 70.5726 97.9787 70.8122C97.4522 71.0517 96.83 71.1475 96.3035 71.0038C96.2557 71.0038 96.2557 70.9559 96.2557 70.9559C96.2557 70.9559 96.2557 70.908 96.3035 70.908C97.4044 70.8122 98.218 70.0936 98.8402 69.3272C99.1274 68.896 99.3667 68.4649 99.606 67.9859C99.7975 67.5069 99.9889 67.0278 100.085 66.5488C100.611 64.5848 100.611 62.3812 99.8932 60.4172C99.7018 59.9382 99.4624 59.4592 99.1274 59.028C98.7924 58.6448 98.3616 58.3095 97.883 58.1179C97.4044 57.9263 96.8779 57.8784 96.3993 58.0221C95.9206 58.1179 95.4899 58.4053 95.107 58.6927C94.7241 59.028 94.3891 59.3634 94.1019 59.7945C93.8147 60.2256 93.5276 60.6567 93.3361 61.1358C92.9053 62.0938 92.6182 63.0998 92.3789 64.1537C92.3789 64.2495 92.331 64.2495 92.2831 64.2016C92.2831 64.2495 92.2831 64.2016 92.2831 64.2016Z" fill="black"/>
<path d="M110.231 65.016C110.088 63.9142 110.231 62.7646 110.614 61.7107C110.997 60.6568 111.619 59.603 112.624 58.9323C113.103 58.597 113.725 58.4054 114.3 58.3575C114.874 58.3096 115.496 58.4533 115.975 58.6928C117.028 59.1719 117.746 60.082 118.32 61.0401C118.894 62.046 119.229 63.1478 119.277 64.2496C119.373 65.3992 119.325 66.5489 118.99 67.6507C118.847 68.2255 118.607 68.7524 118.368 69.2315C118.081 69.7584 117.746 70.2374 117.363 70.6207C116.932 71.0518 116.453 71.3871 115.927 71.6266C115.4 71.8661 114.778 71.9619 114.252 71.8182C114.204 71.8182 114.204 71.7703 114.204 71.7703C114.204 71.7703 114.204 71.7224 114.252 71.7224C115.353 71.6266 116.166 70.9081 116.788 70.1416C117.076 69.7105 117.315 69.2794 117.554 68.8003C117.746 68.3213 117.937 67.8423 118.033 67.3633C118.559 65.3992 118.559 63.1957 117.841 61.2317C117.65 60.7527 117.411 60.2736 117.076 59.8425C116.741 59.4593 116.31 59.124 115.831 58.9323C115.353 58.7407 114.826 58.6928 114.348 58.8365C113.869 58.9323 113.438 59.2198 113.055 59.5072C112.672 59.8425 112.337 60.1778 112.05 60.6089C111.763 61.0401 111.476 61.4712 111.284 61.9502C110.854 62.9083 110.566 63.9142 110.327 64.9681C110.327 65.0639 110.279 65.0639 110.231 65.016C110.231 65.0639 110.231 65.0639 110.231 65.016Z" fill="black"/>
<path d="M128.18 65.8303C128.036 64.7285 128.18 63.5788 128.563 62.525C128.945 61.4711 129.568 60.4172 130.573 59.7466C131.051 59.4113 131.674 59.2197 132.248 59.1718C132.822 59.1239 133.444 59.2676 133.923 59.5071C134.976 59.9861 135.694 60.8963 136.268 61.8543C136.843 62.8603 137.178 63.9621 137.226 65.0638C137.321 66.2135 137.273 67.3632 136.938 68.4649C136.795 69.0398 136.555 69.5667 136.316 70.0457C136.029 70.5727 135.694 71.0517 135.311 71.4349C134.88 71.866 134.402 72.2014 133.875 72.4409C133.349 72.6804 132.727 72.7762 132.2 72.6325C132.152 72.6325 132.152 72.5846 132.152 72.5846C132.152 72.5846 132.152 72.5367 132.2 72.5367C133.301 72.4409 134.115 71.7223 134.737 70.9559C135.024 70.5248 135.263 70.0936 135.503 69.6146C135.694 69.1356 135.885 68.6565 135.981 68.1775C136.508 66.2135 136.508 64.01 135.79 62.0459C135.598 61.5669 135.359 61.0879 135.024 60.6568C134.689 60.2735 134.258 59.9382 133.779 59.7466C133.301 59.555 132.774 59.5071 132.296 59.6508C131.817 59.7466 131.386 60.034 131.003 60.3214C130.621 60.6568 130.286 60.9921 129.998 61.4232C129.711 61.8543 129.424 62.2855 129.233 62.7645C128.802 63.7225 128.515 64.7285 128.275 65.7824C128.275 65.8782 128.275 65.8782 128.18 65.8303C128.227 65.8782 128.18 65.8782 128.18 65.8303Z" fill="black"/>
<path d="M146.128 66.6926C145.984 65.5909 146.128 64.4412 146.511 63.3873C146.894 62.3335 147.516 61.2796 148.521 60.609C149 60.2737 149.622 60.082 150.196 60.0341C150.77 59.9862 151.393 60.1299 151.871 60.3695C152.924 60.8485 153.642 61.7586 154.217 62.7167C154.791 63.7227 155.126 64.8244 155.174 65.9262C155.27 67.0759 155.222 68.2255 154.887 69.3273C154.743 69.9021 154.504 70.4291 154.264 70.9081C153.977 71.435 153.642 71.9141 153.259 72.2973C152.829 72.7284 152.35 73.0637 151.823 73.3032C151.297 73.5427 150.675 73.6386 150.148 73.4949C150.1 73.4949 150.1 73.4469 150.1 73.4469C150.1 73.4469 150.1 73.399 150.148 73.399C151.249 73.3032 152.063 72.5847 152.685 71.8183C152.972 71.3871 153.211 70.956 153.451 70.477C153.642 69.9979 153.834 69.5189 153.929 69.0399C154.456 67.0759 154.456 64.8723 153.738 62.9083C153.546 62.4293 153.307 61.9503 152.972 61.5191C152.637 61.1359 152.206 60.8006 151.728 60.609C151.249 60.4174 150.723 60.3695 150.244 60.5132C149.765 60.609 149.335 60.8964 148.952 61.1838C148.569 61.5191 148.234 61.8544 147.947 62.2856C147.659 62.7167 147.372 63.1478 147.181 63.6269C146.75 64.5849 146.463 65.5909 146.224 66.6447C146.224 66.6926 146.224 66.7405 146.128 66.6926C146.176 66.6926 146.176 66.6926 146.128 66.6926Z" fill="black"/>
<path d="M164.124 67.5069C163.98 66.4051 164.124 65.2554 164.507 64.2016C164.89 63.1477 165.512 62.0938 166.517 61.4232C166.996 61.0879 167.618 60.8963 168.192 60.8484C168.767 60.8004 169.389 60.9442 169.867 61.1837C170.92 61.6627 171.638 62.5729 172.213 63.5309C172.787 64.5369 173.122 65.6386 173.17 66.7404C173.266 67.8901 173.218 69.0398 172.883 70.1415C172.739 70.7164 172.5 71.2433 172.26 71.7223C171.973 72.2492 171.638 72.7283 171.255 73.1115C170.825 73.5426 170.346 73.8779 169.82 74.1175C169.293 74.357 168.671 74.4528 168.144 74.3091C168.096 74.3091 168.096 74.2612 168.096 74.2612C168.096 74.2612 168.096 74.2133 168.144 74.2133C169.245 74.1175 170.059 73.3989 170.681 72.6325C170.968 72.2013 171.208 71.7702 171.447 71.2912C171.638 70.8122 171.83 70.3331 171.925 69.8541C172.452 67.8901 172.452 65.6865 171.734 63.7225C171.543 63.2435 171.303 62.7645 170.968 62.3333C170.633 61.9501 170.202 61.6148 169.724 61.4232C169.245 61.2316 168.719 61.1837 168.24 61.3274C167.761 61.4232 167.331 61.7106 166.948 61.998C166.565 62.3333 166.23 62.6687 165.943 63.0998C165.656 63.5309 165.368 63.962 165.177 64.4411C164.746 65.3991 164.459 66.4051 164.22 67.459C164.22 67.5069 164.172 67.5548 164.124 67.5069Z" fill="black"/>
<path d="M182.072 68.3214C181.929 67.2196 182.072 66.0699 182.455 65.0161C182.838 63.9622 183.46 62.9083 184.465 62.2377C184.944 61.9024 185.566 61.7108 186.14 61.6629C186.715 61.615 187.337 61.7587 187.816 61.9982C188.869 62.4772 189.587 63.3874 190.161 64.3454C190.735 65.3514 191.07 66.4532 191.118 67.5549C191.214 68.7046 191.166 69.8543 190.831 70.956C190.687 71.5309 190.448 72.0578 190.209 72.5368C189.922 73.0638 189.587 73.5428 189.204 73.926C188.773 74.3571 188.294 74.6925 187.768 74.932C187.241 75.1715 186.619 75.2673 186.093 75.1236C186.045 75.1236 186.045 75.0757 186.045 75.0757C186.045 75.0757 186.045 75.0278 186.093 75.0278C187.193 74.932 188.007 74.2134 188.629 73.447C188.916 73.0159 189.156 72.5847 189.395 72.1057C189.587 71.6267 189.778 71.1476 189.874 70.6686C190.4 68.7046 190.4 66.5011 189.682 64.537C189.491 64.058 189.251 63.579 188.916 63.1479C188.581 62.7646 188.151 62.4293 187.672 62.2377C187.193 62.0461 186.667 61.9982 186.188 62.1419C185.71 62.2377 185.279 62.5251 184.896 62.8125C184.513 63.1479 184.178 63.4832 183.891 63.9143C183.604 64.3454 183.317 64.7766 183.125 65.2556C182.694 66.2136 182.407 67.2196 182.168 68.2735C182.168 68.3693 182.12 68.3693 182.072 68.3214C182.072 68.3693 182.072 68.3214 182.072 68.3214Z" fill="black"/>
<path d="M200.02 69.1356C199.877 68.0339 200.02 66.8842 200.403 65.8303C200.786 64.7765 201.408 63.7226 202.414 63.052C202.892 62.7166 203.514 62.525 204.089 62.4771C204.663 62.4292 205.285 62.5729 205.764 62.8125C206.817 63.2915 207.535 64.2016 208.109 65.1597C208.683 66.1657 209.018 67.2674 209.066 68.3692C209.162 69.5189 209.114 70.6685 208.779 71.7703C208.636 72.3451 208.396 72.8721 208.157 73.3511C207.87 73.878 207.535 74.357 207.152 74.7403C206.721 75.1714 206.242 75.5067 205.716 75.7462C205.19 75.9857 204.567 76.0816 204.041 75.9378C203.993 75.9378 203.993 75.8899 203.993 75.8899C203.993 75.8899 203.993 75.842 204.041 75.842C205.142 75.7462 205.955 75.0277 206.578 74.2612C206.865 73.8301 207.104 73.399 207.343 72.92C207.535 72.4409 207.726 71.9619 207.822 71.4829C208.348 69.5189 208.348 67.3153 207.63 65.3513C207.439 64.8723 207.2 64.3932 206.865 63.9621C206.53 63.5789 206.099 63.2436 205.62 63.0041C205.142 62.8125 204.615 62.7645 204.137 62.9083C203.658 63.0041 203.227 63.2915 202.844 63.5789C202.461 63.9142 202.126 64.2495 201.839 64.6807C201.552 65.1118 201.265 65.5429 201.073 66.0219C200.643 66.98 200.355 67.986 200.116 69.0398C200.116 69.1835 200.068 69.1835 200.02 69.1356C200.02 69.1835 200.02 69.1356 200.02 69.1356Z" fill="black"/>
<path d="M217.969 69.9498C217.825 68.8481 217.969 67.6984 218.352 66.6445C218.734 65.5907 219.357 64.5368 220.362 63.8662C220.84 63.5309 221.463 63.3392 222.037 63.2913C222.611 63.2434 223.234 63.3871 223.712 63.6267C224.765 64.1057 225.483 65.0158 226.057 65.9739C226.632 66.9799 226.967 68.0816 227.015 69.1834C227.11 70.3331 227.062 71.4827 226.727 72.5845C226.584 73.1593 226.345 73.6863 226.105 74.1653C225.818 74.6922 225.483 75.1712 225.1 75.5545C224.669 75.9856 224.191 76.3209 223.664 76.5604C223.138 76.7999 222.516 76.8958 221.989 76.752C221.941 76.752 221.941 76.7041 221.941 76.7041C221.941 76.7041 221.941 76.6562 221.989 76.6562C223.09 76.5604 223.904 75.8419 224.526 75.0754C224.813 74.6443 225.052 74.2132 225.292 73.7342C225.483 73.2551 225.674 72.7761 225.77 72.2971C226.297 70.3331 226.297 68.1295 225.579 66.1655C225.387 65.6865 225.148 65.2075 224.813 64.7763C224.478 64.3931 224.047 64.0578 223.569 63.8662C223.09 63.6746 222.563 63.6267 222.085 63.7704C221.606 63.8662 221.175 64.1536 220.793 64.441C220.41 64.7763 220.075 65.1117 219.787 65.5428C219.5 65.9739 219.213 66.405 219.022 66.8841C218.591 67.8421 218.304 68.8481 218.064 69.9019C218.064 69.9977 218.064 69.9977 217.969 69.9498C218.017 69.9977 217.969 69.9977 217.969 69.9498Z" fill="black"/>
<path d="M85.3915 101.278C83.6685 101.278 81.9455 101.23 80.2224 101.23C78.4515 101.183 76.7285 101.183 74.9098 101.135C73.1389 101.087 71.368 101.039 69.5492 100.943C67.7783 100.895 65.9596 100.799 64.1887 100.656C63.9972 100.656 63.8058 100.464 63.8536 100.272L64.1887 95.3384C64.3322 93.7097 64.428 92.081 64.5237 90.4044C64.6194 88.7757 64.6673 87.147 64.7151 85.4704C64.763 83.8418 64.8109 82.1651 64.8587 80.5365C64.8587 80.3927 65.0023 80.2969 65.098 80.2969C66.8689 80.3448 68.6398 80.3448 70.3629 80.4406C72.1338 80.4885 73.9047 80.5364 75.6277 80.6323C79.1695 80.776 82.6634 80.8718 86.2052 81.0634C86.4924 81.0634 86.6838 81.3029 86.6838 81.5903C86.5881 83.2669 86.4924 84.9435 86.3966 86.5722L86.0616 91.5541C85.8702 94.8594 85.6309 98.1168 85.3915 101.278ZM85.2958 101.23L85.4394 91.2667L85.5351 86.3806C85.583 84.7519 85.6309 83.1711 85.6787 81.5424L86.1573 82.0693C82.6155 81.9256 79.1216 81.734 75.5798 81.5424C73.8089 81.4466 72.038 81.3508 70.315 81.2071C68.5441 81.1113 66.7732 80.9676 65.0502 80.8239L65.3374 80.5843C65.2416 82.213 65.098 83.8417 65.0023 85.5183C64.9066 87.147 64.8109 88.7757 64.763 90.4523C64.7151 92.081 64.6673 93.7576 64.6194 95.3863L64.5237 100.32L64.1408 99.9371C65.8638 99.985 67.6347 100.033 69.3578 100.129C71.0808 100.225 72.8038 100.32 74.5747 100.464C76.2978 100.56 78.0686 100.704 79.8395 100.847C81.7062 100.943 83.4771 101.087 85.2958 101.23Z" fill="black"/>
<path d="M110.04 102.428C108.317 102.428 106.594 102.38 104.871 102.38C103.1 102.332 101.377 102.332 99.5587 102.284C97.7878 102.237 96.0169 102.189 94.1981 102.093C92.4272 102.045 90.6085 101.949 88.8376 101.805C88.6461 101.805 88.4547 101.614 88.5026 101.422L88.8376 96.4882C88.9812 94.8595 89.0769 93.2308 89.1726 91.5542C89.2683 89.9255 89.3162 88.2968 89.3641 86.6202C89.4119 84.9915 89.4598 83.3149 89.5077 81.6862C89.5077 81.5425 89.6512 81.4467 89.747 81.4467C91.5179 81.4946 93.2888 81.4946 95.0118 81.5904C96.7827 81.6383 98.5536 81.6862 100.277 81.782C103.818 81.9257 107.312 82.0215 110.854 82.2131C111.141 82.2131 111.333 82.4526 111.333 82.74C111.237 84.4166 111.141 86.0932 111.046 87.7219L110.711 92.7038C110.567 96.0091 110.328 99.2665 110.04 102.428ZM109.993 102.332L110.136 92.3685L110.232 87.4824C110.28 85.8537 110.328 84.2729 110.376 82.6442L110.854 83.1712C107.312 83.0275 103.818 82.8358 100.277 82.6442C98.5057 82.5484 96.7348 82.4526 95.0118 82.3089C93.2409 82.2131 91.47 82.0694 89.747 81.9257L90.0341 81.6862C89.9384 83.3149 89.7948 84.9436 89.6991 86.6202C89.6034 88.2489 89.5077 89.8776 89.4598 91.5542C89.4119 93.1829 89.3641 94.8595 89.3162 96.4882L89.2205 101.422L88.8376 101.039C90.5606 101.087 92.3315 101.135 94.0546 101.231C95.7776 101.326 97.5006 101.422 99.2715 101.566C100.995 101.662 102.765 101.805 104.536 101.949C106.355 102.045 108.174 102.189 109.993 102.332Z" fill="black"/>
<path d="M134.737 103.53C133.014 103.53 131.291 103.482 129.568 103.482C127.797 103.434 126.074 103.434 124.255 103.386C122.485 103.338 120.714 103.29 118.895 103.194C117.124 103.147 115.305 103.051 113.534 102.907C113.343 102.907 113.151 102.715 113.199 102.524L113.534 97.5898C113.678 95.9611 113.774 94.3324 113.869 92.6558C113.965 91.0271 114.013 89.3984 114.061 87.7218C114.109 86.0931 114.157 84.4165 114.204 82.7878C114.204 82.6441 114.348 82.5483 114.444 82.5483C116.215 82.5962 117.986 82.5962 119.709 82.692C121.479 82.7399 123.25 82.7878 124.973 82.8836C128.515 83.0273 132.009 83.1231 135.551 83.3147C135.838 83.3147 136.03 83.5542 136.03 83.8417C135.934 85.5183 135.838 87.1949 135.742 88.8236L135.407 93.8055C135.216 97.1108 134.977 100.368 134.737 103.53ZM134.642 103.482L134.785 93.518L134.881 88.6319C134.929 87.0032 134.977 85.4225 135.024 83.7938L135.503 84.3207C131.961 84.177 128.467 83.9854 124.926 83.7938C123.155 83.698 121.384 83.6021 119.661 83.4584C117.89 83.3626 116.119 83.2189 114.396 83.0752L114.683 82.8357C114.587 84.4644 114.444 86.0931 114.348 87.7697C114.252 89.3984 114.157 91.0271 114.109 92.7037C114.061 94.3324 114.013 96.009 113.965 97.6377L113.869 102.572L113.487 102.188C115.21 102.236 116.98 102.284 118.703 102.38C120.427 102.476 122.15 102.572 123.92 102.715C125.643 102.811 127.414 102.955 129.185 103.099C131.052 103.194 132.823 103.338 134.642 103.482Z" fill="black"/>
<path d="M159.386 104.679C157.663 104.679 155.94 104.632 154.217 104.632C152.446 104.584 150.723 104.584 148.904 104.536C147.133 104.488 145.363 104.44 143.544 104.344C141.773 104.296 139.954 104.2 138.183 104.057C137.992 104.057 137.8 103.865 137.848 103.674L138.183 98.7395C138.327 97.1108 138.423 95.4821 138.518 93.8055C138.614 92.1768 138.662 90.5481 138.71 88.8715C138.758 87.2428 138.806 85.5662 138.853 83.9375C138.853 83.7938 138.997 83.698 139.093 83.698C140.864 83.7459 142.634 83.7459 144.357 83.8417C146.128 83.8896 147.899 83.9375 149.622 84.0333C153.164 84.177 156.658 84.2728 160.2 84.4644C160.487 84.4644 160.678 84.704 160.678 84.9914C160.583 86.668 160.487 88.3446 160.391 89.9733L160.056 94.9552C159.913 98.2605 159.673 101.518 159.386 104.679ZM159.338 104.632L159.482 94.6678L159.578 89.7817C159.625 88.153 159.673 86.5722 159.721 84.9435L160.2 85.4704C156.658 85.3267 153.164 85.1351 149.622 84.9435C147.851 84.8477 146.081 84.7519 144.357 84.6082C142.587 84.5124 140.816 84.3686 139.093 84.2249L139.38 83.9854C139.284 85.6141 139.141 87.2428 139.045 88.9194C138.949 90.5481 138.853 92.1768 138.805 93.8534C138.758 95.4821 138.71 97.1587 138.662 98.7874L138.566 103.721L138.183 103.338C139.906 103.386 141.677 103.434 143.4 103.53C145.123 103.626 146.846 103.721 148.617 103.865C150.34 103.961 152.111 104.105 153.882 104.248C155.701 104.296 157.52 104.44 159.338 104.632Z" fill="black"/>
<path d="M184.083 105.829C182.36 105.829 180.637 105.781 178.914 105.781C177.143 105.733 175.42 105.733 173.601 105.685C171.83 105.638 170.059 105.59 168.241 105.494C166.47 105.446 164.651 105.35 162.88 105.206C162.689 105.206 162.497 105.015 162.545 104.823L162.88 99.8892C163.024 98.2605 163.119 96.6318 163.215 94.9552C163.311 93.3265 163.359 91.6978 163.407 90.0212C163.454 88.3925 163.502 86.7159 163.55 85.0872C163.55 84.9435 163.694 84.8477 163.789 84.8477C165.56 84.8956 167.331 84.8956 169.054 84.9914C170.825 85.0393 172.596 85.0872 174.319 85.183C177.861 85.3267 181.355 85.4225 184.897 85.6142C185.184 85.6142 185.375 85.8537 185.375 86.1411C185.279 87.8177 185.184 89.4943 185.088 91.123L184.753 96.1049C184.562 99.3623 184.322 102.62 184.083 105.829ZM183.987 105.733L184.131 95.7696L184.227 90.8835C184.274 89.2548 184.322 87.674 184.37 86.0453L184.849 86.5722C181.307 86.4285 177.813 86.2369 174.271 86.0453C172.5 85.9495 170.729 85.8537 169.006 85.71C167.236 85.6142 165.465 85.4705 163.742 85.3267L164.029 85.0872C163.933 86.7159 163.789 88.3446 163.694 90.0212C163.598 91.6499 163.502 93.2786 163.454 94.9552C163.407 96.5839 163.359 98.2605 163.311 99.8892L163.215 104.823L162.832 104.44C164.555 104.488 166.326 104.536 168.049 104.632C169.772 104.727 171.495 104.823 173.266 104.967C174.989 105.063 176.76 105.206 178.531 105.35C180.398 105.446 182.168 105.59 183.987 105.733Z" fill="black"/>
<path d="M208.732 106.931C207.009 106.931 205.286 106.883 203.563 106.883C201.792 106.835 200.069 106.835 198.25 106.787C196.479 106.739 194.708 106.692 192.89 106.596C191.119 106.548 189.3 106.452 187.529 106.308C187.338 106.308 187.146 106.117 187.194 105.925L187.577 100.991C187.72 99.3624 187.816 97.7337 187.912 96.0571C188.008 94.4284 188.055 92.7997 188.103 91.1231C188.151 89.4944 188.199 87.8178 188.247 86.1891C188.247 86.0454 188.391 85.9496 188.486 85.9496C190.257 85.9975 192.028 85.9975 193.751 86.0933C195.522 86.1412 197.293 86.1891 199.016 86.2849C202.558 86.4286 206.052 86.5244 209.593 86.716C209.881 86.716 210.072 86.9555 210.072 87.243C209.976 88.9196 209.881 90.5962 209.785 92.2249L209.45 97.2068C209.258 100.512 209.019 103.769 208.732 106.931ZM208.684 106.883L208.828 96.9193L208.923 92.0333C208.971 90.4046 209.019 88.8238 209.067 87.1951L209.546 87.722C206.004 87.5783 202.51 87.3867 198.968 87.1951C197.197 87.0992 195.426 87.0034 193.703 86.8597C191.932 86.7639 190.161 86.6202 188.438 86.4765L188.726 86.237C188.63 87.8657 188.486 89.4944 188.391 91.171C188.295 92.7997 188.199 94.4284 188.151 96.105C188.103 97.7337 188.055 99.4103 188.008 101.039L187.912 105.973L187.529 105.59C189.252 105.638 191.023 105.686 192.746 105.781C194.469 105.877 196.192 105.973 197.963 106.117C199.686 106.213 201.457 106.356 203.228 106.5C205.046 106.596 206.865 106.739 208.684 106.883Z" fill="black"/>
<path d="M233.429 108.081C231.706 108.081 229.983 108.033 228.26 108.033C226.489 107.985 224.766 107.985 222.947 107.937C221.176 107.889 219.405 107.841 217.586 107.745C215.815 107.697 213.997 107.601 212.226 107.458C212.034 107.458 211.843 107.266 211.891 107.075L212.226 102.141C212.369 100.512 212.465 98.8832 212.561 97.2066C212.657 95.5779 212.704 93.9492 212.752 92.2726C212.8 90.6439 212.848 88.9673 212.896 87.3386C212.896 87.1949 213.039 87.0991 213.135 87.0991C214.906 87.147 216.677 87.147 218.4 87.2428C220.171 87.2907 221.942 87.3386 223.665 87.4344C227.207 87.5781 230.701 87.6739 234.242 87.8655C234.529 87.8655 234.721 88.105 234.721 88.3924C234.625 90.069 234.529 91.7456 234.434 93.3743L234.099 98.3562C233.907 101.662 233.668 104.919 233.429 108.081ZM233.333 107.985L233.477 98.0209L233.572 93.1348C233.62 91.5061 233.668 89.9253 233.716 88.2966L234.194 88.8236C230.653 88.6799 227.159 88.4882 223.617 88.2966C221.846 88.2008 220.075 88.105 218.352 87.9613C216.581 87.8655 214.81 87.7218 213.087 87.5781L213.374 87.3386C213.279 88.9673 213.135 90.596 213.039 92.2726C212.944 93.9013 212.848 95.53 212.8 97.2066C212.752 98.8353 212.704 100.512 212.657 102.141L212.561 107.075L212.178 106.691C213.901 106.739 215.672 106.787 217.395 106.883C219.118 106.979 220.841 107.075 222.612 107.218C224.335 107.314 226.106 107.458 227.877 107.601C229.743 107.697 231.514 107.841 233.333 107.985Z" fill="black"/>
<path d="M84.2905 125.23C82.5674 125.23 80.8444 125.182 79.1214 125.182C77.3505 125.134 75.6274 125.134 73.8087 125.086C72.0378 125.038 70.2669 124.99 68.4481 124.894C66.6772 124.847 64.8585 124.751 63.0876 124.607C62.8961 124.607 62.7047 124.415 62.7526 124.224L63.0876 119.29C63.2312 117.661 63.3269 116.032 63.4226 114.356C63.5184 112.727 63.5662 111.098 63.6141 109.422C63.6619 107.793 63.7098 106.117 63.7577 104.488C63.7577 104.344 63.9012 104.248 63.997 104.248C65.7679 104.296 67.5388 104.296 69.2618 104.392C71.0327 104.44 72.8036 104.488 74.5266 104.584C78.0684 104.727 81.5623 104.823 85.1041 105.015C85.3913 105.015 85.5828 105.254 85.5828 105.542C85.487 107.218 85.3913 108.895 85.2956 110.524L84.9606 115.506C84.817 118.811 84.5298 122.068 84.2905 125.23ZM84.2426 125.134L84.3862 115.17L84.4819 110.284C84.5298 108.655 84.5776 107.075 84.6255 105.446L85.1041 105.973C81.5623 105.829 78.0684 105.638 74.5266 105.446C72.7557 105.35 70.9848 105.254 69.2618 105.111C67.4909 105.015 65.72 104.871 63.997 104.727L64.2841 104.488C64.1884 106.117 64.0448 107.745 63.9491 109.422C63.8534 111.051 63.7577 112.679 63.7098 114.356C63.6619 115.985 63.6141 117.661 63.5662 119.29L63.4705 124.224L63.0876 123.841C64.8106 123.889 66.5815 123.936 68.3046 124.032C70.0276 124.128 71.7506 124.224 73.5215 124.368C75.2446 124.463 77.0154 124.607 78.7863 124.751C80.6051 124.847 82.4239 124.99 84.2426 125.134Z" fill="black"/>
<path d="M108.939 126.332C107.216 126.332 105.493 126.284 103.77 126.284C101.999 126.236 100.276 126.236 98.4576 126.188C96.6867 126.14 94.9158 126.092 93.0971 125.996C91.3262 125.948 89.5074 125.853 87.7365 125.709C87.5451 125.709 87.3536 125.517 87.4015 125.326L87.7365 120.392C87.8801 118.763 87.9758 117.134 88.0716 115.458C88.1673 113.829 88.2151 112.2 88.263 110.524C88.3109 108.895 88.3587 107.218 88.4066 105.59C88.4066 105.446 88.5502 105.35 88.6459 105.35C90.4168 105.398 92.1877 105.398 93.9107 105.494C95.6816 105.542 97.4525 105.59 99.1755 105.686C102.717 105.829 106.211 105.925 109.753 106.117C110.04 106.117 110.232 106.356 110.232 106.644C110.136 108.32 110.04 109.997 109.945 111.625L109.609 116.607C109.466 119.913 109.227 123.17 108.939 126.332ZM108.892 126.284L109.035 116.32L109.131 111.434C109.179 109.805 109.227 108.224 109.274 106.596L109.753 107.123C106.211 106.979 102.717 106.787 99.1755 106.596C97.4047 106.5 95.6338 106.404 93.9107 106.26C92.1398 106.165 90.3689 106.021 88.6459 105.877L88.9331 105.638C88.8373 107.266 88.6938 108.895 88.598 110.572C88.5023 112.2 88.4066 113.829 88.3587 115.506C88.3109 117.134 88.263 118.811 88.2151 120.44L88.1194 125.374L87.7365 124.99C89.4595 125.038 91.2304 125.086 92.9535 125.182C94.6765 125.278 96.3995 125.374 98.1704 125.517C99.8935 125.613 101.664 125.757 103.435 125.901C105.302 125.996 107.073 126.14 108.892 126.284Z" fill="black"/>
<path d="M133.636 127.481C131.913 127.481 130.19 127.433 128.467 127.433C126.696 127.385 124.973 127.385 123.154 127.337C121.383 127.29 119.613 127.242 117.794 127.146C116.023 127.098 114.204 127.002 112.433 126.858C112.242 126.858 112.05 126.667 112.098 126.475L112.433 121.541C112.577 119.912 112.673 118.284 112.768 116.607C112.864 114.979 112.912 113.35 112.96 111.673C113.008 110.045 113.055 108.368 113.103 106.739C113.103 106.596 113.247 106.5 113.343 106.5C115.114 106.548 116.884 106.548 118.607 106.643C120.378 106.691 122.149 106.739 123.872 106.835C127.414 106.979 130.908 107.075 134.45 107.266C134.737 107.266 134.928 107.506 134.928 107.793C134.833 109.47 134.737 111.146 134.641 112.775L134.306 117.757C134.163 121.062 133.875 124.32 133.636 127.481ZM133.588 127.433L133.732 117.469L133.828 112.583C133.875 110.955 133.923 109.374 133.971 107.745L134.45 108.272C130.908 108.128 127.414 107.937 123.872 107.745C122.101 107.649 120.331 107.554 118.607 107.41C116.837 107.314 115.066 107.17 113.343 107.027L113.63 106.787C113.534 108.416 113.391 110.045 113.295 111.721C113.199 113.35 113.103 114.979 113.056 116.655C113.008 118.284 112.96 119.96 112.912 121.589L112.816 126.523L112.433 126.14C114.156 126.188 115.927 126.236 117.65 126.331C119.373 126.427 121.096 126.523 122.867 126.667C124.59 126.763 126.361 126.906 128.132 127.05C129.951 127.098 131.77 127.242 133.588 127.433Z" fill="black"/>
<path d="M158.285 128.631C156.562 128.631 154.839 128.583 153.116 128.583C151.345 128.535 149.622 128.535 147.803 128.487C146.032 128.439 144.262 128.391 142.443 128.296C140.672 128.248 138.853 128.152 137.082 128.008C136.891 128.008 136.699 127.817 136.747 127.625L137.082 122.691C137.226 121.062 137.322 119.434 137.417 117.757C137.513 116.128 137.561 114.5 137.609 112.823C137.657 111.194 137.704 109.518 137.752 107.889C137.752 107.745 137.896 107.649 137.992 107.649C139.762 107.697 141.533 107.697 143.256 107.793C145.027 107.841 146.798 107.889 148.521 107.985C152.063 108.128 155.557 108.224 159.099 108.416C159.386 108.416 159.577 108.655 159.577 108.943C159.482 110.619 159.386 112.296 159.29 113.925L158.955 118.907C158.812 122.164 158.572 125.421 158.285 128.631ZM158.237 128.535L158.381 118.571L158.477 113.685C158.524 112.056 158.572 110.476 158.62 108.847L159.099 109.374C155.557 109.23 152.063 109.039 148.521 108.847C146.75 108.751 144.979 108.655 143.256 108.512C141.486 108.416 139.715 108.272 137.992 108.128L138.279 107.889C138.183 109.518 138.039 111.146 137.944 112.823C137.848 114.452 137.752 116.08 137.704 117.757C137.657 119.386 137.609 121.062 137.561 122.691L137.465 127.625L137.082 127.242C138.805 127.29 140.576 127.337 142.299 127.433C144.022 127.529 145.745 127.625 147.516 127.769C149.239 127.864 151.01 128.008 152.781 128.152C154.648 128.248 156.419 128.391 158.237 128.535Z" fill="black"/>
<path d="M182.982 129.733C181.259 129.733 179.536 129.685 177.813 129.685C176.042 129.637 174.319 129.637 172.5 129.589C170.729 129.541 168.958 129.493 167.14 129.397C165.369 129.35 163.55 129.254 161.779 129.11C161.588 129.11 161.396 128.918 161.444 128.727L161.779 123.793C161.923 122.164 162.018 120.535 162.114 118.859C162.21 117.23 162.258 115.601 162.305 113.925C162.353 112.296 162.401 110.619 162.449 108.991C162.449 108.847 162.593 108.751 162.688 108.751C164.459 108.799 166.23 108.799 167.953 108.895C169.724 108.943 171.495 108.991 173.218 109.087C176.76 109.23 180.254 109.326 183.796 109.518C184.083 109.518 184.274 109.757 184.274 110.045C184.178 111.721 184.083 113.398 183.987 115.027L183.652 120.008C183.508 123.314 183.221 126.571 182.982 129.733ZM182.934 129.685L183.078 119.721L183.173 114.835C183.221 113.206 183.269 111.625 183.317 109.997L183.796 110.524C180.254 110.38 176.76 110.188 173.218 109.997C171.447 109.901 169.676 109.805 167.953 109.661C166.182 109.566 164.411 109.422 162.688 109.278L162.976 109.039C162.88 110.667 162.736 112.296 162.641 113.973C162.545 115.601 162.449 117.23 162.401 118.907C162.353 120.535 162.305 122.212 162.258 123.841L162.21 128.775L161.827 128.391C163.55 128.439 165.321 128.487 167.044 128.583C168.767 128.679 170.49 128.775 172.261 128.918C173.984 129.014 175.755 129.158 177.526 129.302C179.297 129.397 181.115 129.541 182.934 129.685Z" fill="black"/>
<path d="M207.631 130.882C205.908 130.882 204.185 130.835 202.462 130.835C200.691 130.787 198.968 130.787 197.149 130.739C195.378 130.691 193.607 130.643 191.788 130.547C190.018 130.499 188.199 130.403 186.428 130.26C186.236 130.26 186.045 130.068 186.093 129.876L186.428 124.942C186.572 123.314 186.667 121.685 186.763 120.008C186.859 118.38 186.907 116.751 186.954 115.075C187.002 113.446 187.05 111.769 187.098 110.141C187.098 109.997 187.242 109.901 187.337 109.901C189.108 109.949 190.879 109.949 192.602 110.045C194.373 110.093 196.144 110.141 197.867 110.236C201.409 110.38 204.903 110.476 208.444 110.667C208.732 110.667 208.923 110.907 208.923 111.194C208.827 112.871 208.732 114.548 208.636 116.176L208.301 121.158C208.157 124.463 207.918 127.721 207.631 130.882ZM207.583 130.787L207.727 120.823L207.822 115.937C207.87 114.308 207.918 112.727 207.966 111.099L208.444 111.625C204.903 111.482 201.409 111.29 197.867 111.099C196.096 111.003 194.325 110.907 192.602 110.763C190.831 110.667 189.06 110.524 187.337 110.38L187.624 110.141C187.529 111.769 187.385 113.398 187.289 115.075C187.194 116.703 187.098 118.332 187.05 120.008C187.002 121.637 186.954 123.314 186.907 124.942L186.811 129.876L186.428 129.493C188.151 129.541 189.922 129.589 191.645 129.685C193.368 129.781 195.091 129.876 196.862 130.02C198.585 130.116 200.356 130.26 202.127 130.403C203.993 130.499 205.764 130.643 207.583 130.787Z" fill="black"/>
<path d="M232.328 131.984C230.605 131.984 228.882 131.936 227.159 131.936C225.388 131.888 223.665 131.888 221.846 131.84C220.075 131.792 218.304 131.745 216.486 131.649C214.715 131.601 212.896 131.505 211.125 131.361C210.934 131.361 210.742 131.17 210.79 130.978L211.125 126.044C211.269 124.415 211.364 122.787 211.46 121.11C211.556 119.481 211.604 117.853 211.652 116.176C211.7 114.547 211.747 112.871 211.795 111.242C211.795 111.098 211.939 111.003 212.035 111.003C213.805 111.051 215.576 111.051 217.299 111.146C219.07 111.194 220.841 111.242 222.564 111.338C226.106 111.482 229.6 111.577 233.142 111.769C233.429 111.769 233.62 112.009 233.62 112.296C233.525 113.973 233.429 115.649 233.333 117.278L232.998 122.26C232.855 125.565 232.567 128.823 232.328 131.984ZM232.28 131.936L232.424 121.972L232.52 117.086C232.567 115.458 232.615 113.877 232.663 112.248L233.142 112.775C229.6 112.631 226.106 112.44 222.564 112.248C220.793 112.152 219.022 112.056 217.299 111.913C215.528 111.817 213.758 111.673 212.035 111.53L212.322 111.29C212.226 112.919 212.082 114.547 211.987 116.224C211.891 117.853 211.795 119.481 211.747 121.158C211.7 122.787 211.652 124.463 211.604 126.092L211.508 131.026L211.125 130.643C212.848 130.691 214.619 130.739 216.342 130.834C218.065 130.93 219.788 131.026 221.559 131.17C223.282 131.266 225.053 131.409 226.824 131.553C228.643 131.649 230.461 131.792 232.28 131.936Z" fill="black"/>
<path d="M83.1899 149.133C81.4669 149.133 79.7438 149.086 78.0208 149.086C76.2499 149.038 74.5269 149.038 72.7081 148.99C70.9372 148.942 69.1663 148.894 67.3476 148.798C65.5767 148.75 63.7579 148.654 61.987 148.511C61.7956 148.511 61.6041 148.319 61.652 148.127L61.987 143.193C62.1306 141.565 62.2263 139.936 62.322 138.259C62.4178 136.631 62.4656 135.002 62.5135 133.325C62.5613 131.697 62.6092 130.02 62.6571 128.391C62.6571 128.248 62.8007 128.152 62.8964 128.152C64.6673 128.2 66.4382 128.2 68.1612 128.296C69.9321 128.344 71.703 128.391 73.426 128.487C76.9678 128.631 80.4618 128.727 84.0035 128.918C84.2907 128.918 84.4822 129.158 84.4822 129.445C84.3864 131.122 84.2907 132.799 84.195 134.427L83.86 139.409C83.7164 142.714 83.4292 145.972 83.1899 149.133ZM83.142 149.086L83.2856 139.122L83.3813 134.236C83.4292 132.607 83.4771 131.026 83.5249 129.397L84.0035 129.924C80.4618 129.781 76.9678 129.589 73.426 129.397C71.6551 129.302 69.8842 129.206 68.1612 129.062C66.3903 128.966 64.6194 128.823 62.8964 128.679L63.1836 128.439C63.0878 130.068 62.9442 131.697 62.8485 133.373C62.7528 135.002 62.6571 136.631 62.6092 138.307C62.5613 139.936 62.5135 141.613 62.4656 143.241L62.3699 148.175L61.987 147.792C63.71 147.84 65.4809 147.888 67.204 147.984C68.927 148.08 70.65 148.175 72.4209 148.319C74.144 148.415 75.9149 148.559 77.6858 148.702C79.5045 148.798 81.3233 148.942 83.142 149.086Z" fill="black"/>
<path d="M107.887 150.283C106.164 150.283 104.441 150.235 102.718 150.235C100.947 150.187 99.2236 150.187 97.4049 150.139C95.634 150.092 93.8631 150.044 92.0443 149.948C90.2734 149.9 88.4547 149.804 86.6838 149.66C86.4923 149.66 86.3009 149.469 86.3487 149.277L86.6838 144.343C86.8274 142.714 86.9231 141.086 87.0188 139.409C87.1145 137.781 87.1624 136.152 87.2103 134.475C87.2581 132.847 87.306 131.17 87.3539 129.541C87.3539 129.398 87.4974 129.302 87.5932 129.302C89.3641 129.35 91.135 129.35 92.858 129.445C94.6289 129.493 96.3998 129.541 98.1228 129.637C101.665 129.781 105.159 129.877 108.7 130.068C108.987 130.068 109.179 130.308 109.179 130.595C109.083 132.272 108.987 133.948 108.892 135.577L108.557 140.559C108.365 143.864 108.126 147.122 107.887 150.283ZM107.791 150.235L107.935 140.271L108.03 135.385C108.078 133.757 108.126 132.176 108.174 130.547L108.652 131.074C105.111 130.93 101.617 130.739 98.0749 130.547C96.3041 130.451 94.5332 130.356 92.8101 130.212C91.0392 130.116 89.2683 129.972 87.5453 129.829L87.8325 129.589C87.7367 131.218 87.5932 132.847 87.4974 134.523C87.4017 136.152 87.306 137.78 87.2581 139.457C87.2103 141.086 87.1624 142.762 87.1145 144.391L87.0188 149.325L86.6359 148.942C88.359 148.99 90.1298 149.038 91.8529 149.133C93.5759 149.229 95.2989 149.325 97.0698 149.469C98.7929 149.565 100.564 149.708 102.335 149.852C104.201 149.9 105.972 150.044 107.791 150.235Z" fill="black"/>
<path d="M132.536 151.433C130.813 151.433 129.09 151.385 127.366 151.385C125.596 151.337 123.873 151.337 122.054 151.289C120.283 151.241 118.512 151.193 116.693 151.097C114.922 151.049 113.104 150.954 111.333 150.81C111.141 150.81 110.95 150.618 110.998 150.427L111.333 145.493C111.476 143.864 111.572 142.235 111.668 140.559C111.763 138.93 111.811 137.301 111.859 135.625C111.907 133.996 111.955 132.319 112.003 130.691C112.003 130.547 112.146 130.451 112.242 130.451C114.013 130.499 115.784 130.499 117.507 130.595C119.278 130.643 121.049 130.691 122.772 130.786C126.314 130.93 129.807 131.026 133.349 131.218C133.636 131.218 133.828 131.457 133.828 131.745C133.732 133.421 133.636 135.098 133.541 136.726L133.206 141.708C133.062 144.966 132.775 148.223 132.536 151.433ZM132.488 151.337L132.631 141.373L132.727 136.487C132.775 134.858 132.823 133.277 132.871 131.649L133.349 132.176C129.807 132.032 126.314 131.84 122.772 131.649C121.001 131.553 119.23 131.457 117.507 131.313C115.736 131.218 113.965 131.074 112.242 130.93L112.529 130.691C112.434 132.319 112.29 133.948 112.194 135.625C112.098 137.253 112.003 138.882 111.955 140.559C111.907 142.187 111.859 143.864 111.811 145.493L111.716 150.427L111.333 150.043C113.056 150.091 114.827 150.139 116.55 150.235C118.273 150.331 119.996 150.427 121.767 150.57C123.49 150.666 125.261 150.81 127.031 150.954C128.85 151.049 130.669 151.193 132.488 151.337Z" fill="black"/>
<path d="M157.232 152.534C155.509 152.534 153.786 152.487 152.063 152.487C150.292 152.439 148.569 152.439 146.751 152.391C144.98 152.343 143.209 152.295 141.39 152.199C139.619 152.151 137.8 152.055 136.029 151.912C135.838 151.912 135.647 151.72 135.694 151.528L136.029 146.594C136.173 144.966 136.269 143.337 136.365 141.66C136.46 140.032 136.508 138.403 136.556 136.726C136.604 135.098 136.652 133.421 136.7 131.792C136.7 131.649 136.843 131.553 136.939 131.553C138.71 131.601 140.481 131.601 142.204 131.697C143.975 131.745 145.745 131.792 147.469 131.888C151.01 132.032 154.504 132.128 158.046 132.319C158.333 132.319 158.525 132.559 158.525 132.846C158.429 134.523 158.333 136.2 158.237 137.828L157.902 142.81C157.711 146.115 157.472 149.373 157.232 152.534ZM157.137 152.487L157.28 142.523L157.376 137.637C157.424 136.008 157.472 134.427 157.52 132.798L157.998 133.325C154.456 133.182 150.962 132.99 147.421 132.798C145.65 132.703 143.879 132.607 142.156 132.463C140.385 132.367 138.614 132.224 136.891 132.08L137.178 131.84C137.082 133.469 136.939 135.098 136.843 136.774C136.747 138.403 136.652 140.032 136.604 141.708C136.556 143.337 136.508 145.014 136.46 146.642L136.365 151.576L135.982 151.193C137.705 151.241 139.476 151.289 141.199 151.385C142.922 151.481 144.645 151.576 146.416 151.72C148.139 151.816 149.909 151.96 151.68 152.103C153.547 152.199 155.318 152.343 157.137 152.487Z" fill="black"/>
<path d="M181.881 153.684C180.158 153.684 178.435 153.636 176.712 153.636C174.941 153.588 173.218 153.588 171.4 153.541C169.629 153.493 167.858 153.445 166.039 153.349C164.268 153.301 162.449 153.205 160.678 153.061C160.487 153.061 160.296 152.87 160.343 152.678L160.678 147.744C160.822 146.116 160.918 144.487 161.013 142.81C161.109 141.182 161.157 139.553 161.205 137.876C161.253 136.248 161.301 134.571 161.348 132.942C161.348 132.799 161.492 132.703 161.588 132.703C163.359 132.751 165.13 132.751 166.853 132.846C168.624 132.894 170.394 132.942 172.117 133.038C175.659 133.182 179.153 133.278 182.695 133.469C182.982 133.469 183.174 133.709 183.174 133.996C183.078 135.673 182.982 137.349 182.886 138.978L182.551 143.96C182.408 147.265 182.121 150.523 181.881 153.684ZM181.833 153.588L181.977 143.625L182.073 138.739C182.121 137.11 182.168 135.529 182.216 133.9L182.695 134.427C179.153 134.284 175.659 134.092 172.117 133.9C170.347 133.805 168.576 133.709 166.853 133.565C165.082 133.469 163.311 133.325 161.588 133.182L161.875 132.942C161.779 134.571 161.636 136.2 161.54 137.876C161.444 139.505 161.348 141.134 161.301 142.81C161.253 144.439 161.205 146.116 161.157 147.744L161.061 152.678L160.678 152.295C162.401 152.343 164.172 152.391 165.895 152.487C167.618 152.582 169.341 152.678 171.112 152.822C172.835 152.918 174.606 153.061 176.377 153.205C178.196 153.301 180.015 153.445 181.833 153.588Z" fill="black"/>
<path d="M206.578 154.786C204.855 154.786 203.132 154.738 201.409 154.738C199.638 154.69 197.915 154.69 196.096 154.642C194.325 154.594 192.554 154.546 190.736 154.45C188.965 154.403 187.146 154.307 185.375 154.163C185.184 154.163 184.992 153.971 185.04 153.78L185.375 148.846C185.519 147.217 185.614 145.588 185.71 143.912C185.806 142.283 185.854 140.654 185.902 138.978C185.95 137.349 185.997 135.673 186.045 134.044C186.045 133.9 186.189 133.804 186.285 133.804C188.055 133.852 189.826 133.852 191.549 133.948C193.32 133.996 195.091 134.044 196.814 134.14C200.356 134.283 203.85 134.379 207.392 134.571C207.679 134.571 207.87 134.81 207.87 135.098C207.775 136.774 207.679 138.451 207.583 140.08L207.248 145.061C207.057 148.367 206.817 151.624 206.578 154.786ZM206.482 154.738L206.626 144.774L206.722 139.888C206.77 138.259 206.817 136.678 206.865 135.05L207.344 135.577C203.802 135.433 200.308 135.241 196.766 135.05C194.995 134.954 193.225 134.858 191.502 134.714C189.731 134.619 187.96 134.475 186.237 134.331L186.524 134.092C186.428 135.72 186.285 137.349 186.189 139.026C186.093 140.654 185.997 142.283 185.95 143.96C185.902 145.588 185.854 147.265 185.806 148.894L185.71 153.828L185.327 153.444C187.05 153.492 188.821 153.54 190.544 153.636C192.267 153.732 193.99 153.828 195.761 153.971C197.484 154.067 199.255 154.211 201.026 154.355C202.893 154.45 204.664 154.594 206.482 154.738Z" fill="black"/>
<path d="M231.227 155.936C229.504 155.936 227.781 155.888 226.058 155.888C224.287 155.84 222.564 155.84 220.745 155.792C218.974 155.744 217.203 155.696 215.385 155.6C213.614 155.552 211.795 155.456 210.024 155.313C209.833 155.313 209.641 155.121 209.689 154.93L210.024 149.996C210.168 148.367 210.263 146.738 210.359 145.062C210.455 143.433 210.503 141.804 210.551 140.128C210.598 138.499 210.646 136.822 210.694 135.194C210.694 135.05 210.838 134.954 210.933 134.954C212.704 135.002 214.475 135.002 216.198 135.098C217.969 135.146 219.74 135.194 221.463 135.289C225.005 135.433 228.499 135.529 232.041 135.72C232.328 135.72 232.519 135.96 232.519 136.247C232.424 137.924 232.328 139.601 232.232 141.229L231.897 146.211C231.753 149.517 231.466 152.774 231.227 155.936ZM231.179 155.888L231.323 145.924L231.418 141.038C231.466 139.409 231.514 137.828 231.562 136.2L232.041 136.726C228.499 136.583 225.005 136.391 221.463 136.2C219.692 136.104 217.921 136.008 216.198 135.864C214.427 135.768 212.657 135.625 210.933 135.481L211.221 135.241C211.125 136.87 210.981 138.499 210.886 140.175C210.79 141.804 210.694 143.433 210.646 145.109C210.598 146.738 210.551 148.415 210.503 150.043L210.407 154.977L210.024 154.594C211.747 154.642 213.518 154.69 215.241 154.786C216.964 154.882 218.687 154.977 220.458 155.121C222.181 155.217 223.952 155.361 225.723 155.504C227.542 155.552 229.36 155.696 231.179 155.888Z" fill="black"/>
<path d="M82.0888 173.085C80.3658 173.085 78.6428 173.037 76.9197 173.037C75.1488 172.989 73.4258 172.989 71.607 172.941C69.8361 172.893 68.0652 172.845 66.2465 172.75C64.4756 172.702 62.6568 172.606 60.8859 172.462C60.6945 172.462 60.503 172.271 60.5509 172.079L60.8859 167.145C61.0295 165.516 61.1252 163.887 61.221 162.211C61.3167 160.582 61.3645 158.954 61.4124 157.277C61.4603 155.648 61.5081 153.972 61.556 152.343C61.556 152.199 61.6996 152.103 61.7953 152.103C63.5662 152.151 65.3371 152.151 67.0601 152.247C68.831 152.295 70.6019 152.343 72.325 152.439C75.8667 152.582 79.3607 152.678 82.9025 152.87C83.1896 152.87 83.3811 153.109 83.3811 153.397C83.2854 155.073 83.1896 156.75 83.0939 158.379L82.7589 163.361C82.6153 166.666 82.376 169.923 82.0888 173.085ZM82.041 173.037L82.1845 163.073L82.2803 158.187C82.3281 156.558 82.376 154.978 82.4239 153.349L82.9025 153.876C79.3607 153.732 75.8667 153.54 72.325 153.349C70.5541 153.253 68.7832 153.157 67.0601 153.014C65.2892 152.918 63.5183 152.774 61.7953 152.63L62.0825 152.391C61.9868 154.019 61.8432 155.648 61.7474 157.325C61.6517 158.954 61.556 160.582 61.5081 162.259C61.4603 163.887 61.4124 165.564 61.3645 167.193L61.2688 172.127L60.8859 171.744C62.609 171.791 64.3799 171.839 66.1029 171.935C67.8259 172.031 69.549 172.127 71.3199 172.27C73.0429 172.366 74.8138 172.51 76.5847 172.654C78.4034 172.702 80.2222 172.845 82.041 173.037Z" fill="black"/>
<path d="M106.786 174.235C105.063 174.235 103.34 174.187 101.616 174.187C99.8456 174.139 98.1226 174.139 96.3038 174.091C94.5329 174.043 92.762 173.995 90.9433 173.899C89.1724 173.851 87.3536 173.756 85.5827 173.612C85.3913 173.612 85.1998 173.42 85.2477 173.229L85.5827 168.295C85.7263 166.666 85.822 165.037 85.9177 163.361C86.0135 161.732 86.0613 160.103 86.1092 158.427C86.1571 156.798 86.2049 155.121 86.2528 153.493C86.2528 153.349 86.3964 153.253 86.4921 153.253C88.263 153.301 90.0339 153.301 91.7569 153.397C93.5278 153.445 95.2987 153.493 97.0217 153.588C100.564 153.732 104.057 153.828 107.599 154.02C107.886 154.02 108.078 154.259 108.078 154.546C107.982 156.223 107.886 157.9 107.791 159.528L107.456 164.51C107.264 167.768 107.025 171.025 106.786 174.235ZM106.69 174.139L106.833 164.175L106.929 159.289C106.977 157.66 107.025 156.079 107.073 154.451L107.551 154.978C104.01 154.834 100.516 154.642 96.9739 154.451C95.203 154.355 93.4321 154.259 91.709 154.115C89.9382 154.02 88.1673 153.876 86.4442 153.732L86.7314 153.493C86.6357 155.121 86.4921 156.75 86.3964 158.427C86.3006 160.055 86.2049 161.684 86.1571 163.361C86.1092 164.989 86.0613 166.666 86.0135 168.295L85.9177 173.229L85.6306 172.845C87.3536 172.893 89.1245 172.941 90.8475 173.037C92.5706 173.133 94.2936 173.229 96.0645 173.372C97.7875 173.468 99.5584 173.612 101.329 173.756C103.1 173.851 104.871 173.995 106.69 174.139Z" fill="black"/>
<path d="M131.435 175.336C129.711 175.336 127.988 175.288 126.265 175.288C124.495 175.24 122.771 175.24 120.953 175.192C119.182 175.145 117.411 175.097 115.592 175.001C113.821 174.953 112.003 174.857 110.232 174.713C110.04 174.713 109.849 174.522 109.897 174.33L110.232 169.396C110.375 167.768 110.471 166.139 110.567 164.462C110.662 162.834 110.71 161.205 110.758 159.528C110.806 157.9 110.854 156.223 110.902 154.594C110.902 154.451 111.045 154.355 111.141 154.355C112.912 154.403 114.683 154.403 116.406 154.498C118.177 154.546 119.948 154.594 121.671 154.69C125.212 154.834 128.706 154.93 132.248 155.121C132.535 155.121 132.727 155.361 132.727 155.648C132.631 157.325 132.535 159.001 132.44 160.63L132.105 165.612C131.961 168.917 131.722 172.175 131.435 175.336ZM131.387 175.288L131.53 165.324L131.626 160.438C131.674 158.81 131.722 157.229 131.77 155.6L132.248 156.127C128.706 155.983 125.212 155.792 121.671 155.6C119.9 155.504 118.129 155.409 116.406 155.265C114.635 155.169 112.864 155.025 111.141 154.882L111.428 154.642C111.332 156.271 111.189 157.9 111.093 159.576C110.997 161.205 110.902 162.834 110.854 164.51C110.806 166.139 110.758 167.815 110.71 169.444L110.615 174.378L110.232 173.995C111.955 174.043 113.726 174.091 115.449 174.187C117.172 174.282 118.895 174.378 120.666 174.522C122.389 174.618 124.159 174.761 125.93 174.905C127.749 175.001 129.568 175.145 131.387 175.288Z" fill="black"/>
<path d="M156.131 176.486C154.408 176.486 152.685 176.438 150.962 176.438C149.191 176.39 147.468 176.39 145.65 176.342C143.879 176.294 142.108 176.246 140.289 176.151C138.518 176.103 136.699 176.007 134.928 175.863C134.737 175.863 134.546 175.672 134.593 175.48L134.928 170.546C135.072 168.917 135.168 167.289 135.263 165.612C135.359 163.983 135.407 162.355 135.455 160.678C135.503 159.049 135.551 157.373 135.598 155.744C135.598 155.6 135.742 155.504 135.838 155.504C137.609 155.552 139.38 155.552 141.103 155.648C142.874 155.696 144.644 155.744 146.367 155.84C149.909 155.983 153.403 156.079 156.945 156.271C157.232 156.271 157.424 156.51 157.424 156.798C157.328 158.474 157.232 160.151 157.136 161.78L156.801 166.762C156.61 170.067 156.371 173.324 156.131 176.486ZM156.036 176.39L156.179 166.426L156.275 161.54C156.323 159.911 156.371 158.331 156.418 156.702L156.897 157.229C153.355 157.085 149.861 156.894 146.32 156.702C144.549 156.606 142.778 156.51 141.055 156.367C139.284 156.271 137.513 156.127 135.79 155.983L136.077 155.744C135.981 157.373 135.838 159.001 135.742 160.678C135.646 162.307 135.551 163.935 135.503 165.612C135.455 167.241 135.407 168.917 135.359 170.546L135.263 175.48L134.881 175.097C136.604 175.145 138.374 175.192 140.098 175.288C141.821 175.384 143.544 175.48 145.314 175.624C147.038 175.719 148.808 175.863 150.579 176.007C152.446 176.103 154.217 176.246 156.036 176.39Z" fill="black"/>
<path d="M180.78 177.588C179.057 177.588 177.334 177.54 175.611 177.54C173.84 177.492 172.117 177.492 170.298 177.444C168.528 177.396 166.757 177.348 164.938 177.252C163.167 177.205 161.348 177.109 159.577 176.965C159.386 176.965 159.194 176.773 159.242 176.582L159.577 171.648C159.721 170.019 159.817 168.39 159.912 166.714C160.008 165.085 160.056 163.456 160.104 161.78C160.152 160.151 160.2 158.475 160.247 156.846C160.247 156.702 160.391 156.606 160.487 156.606C162.258 156.654 164.029 156.654 165.752 156.75C167.522 156.798 169.293 156.846 171.016 156.942C174.558 157.085 178.052 157.181 181.594 157.373C181.881 157.373 182.073 157.612 182.073 157.9C181.977 159.576 181.881 161.253 181.785 162.882L181.45 167.863C181.307 171.169 181.067 174.426 180.78 177.588ZM180.732 177.54L180.876 167.576L180.972 162.69C181.02 161.061 181.067 159.48 181.115 157.852L181.594 158.379C178.052 158.235 174.558 158.043 171.016 157.852C169.245 157.756 167.475 157.66 165.752 157.516C163.981 157.421 162.21 157.277 160.487 157.133L160.774 156.894C160.678 158.522 160.535 160.151 160.439 161.828C160.343 163.456 160.247 165.085 160.2 166.762C160.152 168.39 160.104 170.067 160.056 171.696L159.96 176.63L159.577 176.246C161.3 176.294 163.071 176.342 164.794 176.438C166.517 176.534 168.24 176.63 170.011 176.773C171.734 176.869 173.505 177.013 175.276 177.157C177.095 177.252 178.914 177.396 180.732 177.54Z" fill="black"/>
<path d="M205.477 178.737C203.754 178.737 202.031 178.689 200.308 178.689C198.537 178.641 196.814 178.641 194.996 178.593C193.225 178.546 191.454 178.498 189.635 178.402C187.864 178.354 186.046 178.258 184.275 178.114C184.083 178.114 183.892 177.923 183.94 177.731L184.275 172.797C184.418 171.169 184.514 169.54 184.61 167.863C184.705 166.235 184.753 164.606 184.801 162.929C184.849 161.301 184.897 159.624 184.945 157.995C184.945 157.852 185.088 157.756 185.184 157.756C186.955 157.804 188.726 157.804 190.449 157.899C192.22 157.947 193.991 157.995 195.714 158.091C199.255 158.235 202.749 158.331 206.291 158.522C206.578 158.522 206.77 158.762 206.77 159.049C206.674 160.726 206.578 162.402 206.483 164.031L206.148 169.013C205.956 172.318 205.717 175.576 205.477 178.737ZM205.382 178.689L205.525 168.725L205.621 163.839C205.669 162.211 205.717 160.63 205.765 159.001L206.243 159.528C202.701 159.384 199.208 159.193 195.666 159.001C193.895 158.905 192.124 158.81 190.401 158.666C188.63 158.57 186.859 158.426 185.136 158.283L185.423 158.043C185.328 159.672 185.184 161.301 185.088 162.977C184.993 164.606 184.897 166.235 184.849 167.911C184.801 169.54 184.753 171.216 184.705 172.845L184.61 177.779L184.227 177.396C185.95 177.444 187.721 177.492 189.444 177.588C191.167 177.683 192.89 177.779 194.661 177.875C196.384 177.971 198.155 178.114 199.925 178.258C201.792 178.354 203.563 178.498 205.382 178.689Z" fill="black"/>
<path d="M230.126 179.887C228.403 179.887 226.68 179.839 224.957 179.839C223.186 179.791 221.463 179.791 219.645 179.743C217.874 179.695 216.103 179.647 214.284 179.552C212.513 179.504 210.694 179.408 208.924 179.264C208.732 179.264 208.541 179.073 208.588 178.881L208.924 173.947C209.067 172.318 209.163 170.69 209.259 169.013C209.354 167.384 209.402 165.756 209.45 164.079C209.498 162.45 209.546 160.774 209.594 159.145C209.594 159.001 209.737 158.906 209.833 158.906C211.604 158.953 213.375 158.953 215.098 159.049C216.869 159.097 218.64 159.145 220.363 159.241C223.904 159.385 227.398 159.48 230.94 159.672C231.227 159.672 231.419 159.911 231.419 160.199C231.323 161.876 231.227 163.552 231.132 165.181L230.796 170.163C230.653 173.42 230.414 176.677 230.126 179.887ZM230.079 179.791L230.222 169.827L230.318 164.941C230.366 163.313 230.414 161.732 230.461 160.103L230.94 160.63C227.398 160.486 223.904 160.295 220.363 160.103C218.592 160.007 216.821 159.911 215.098 159.768C213.327 159.672 211.556 159.528 209.833 159.385L210.12 159.145C210.024 160.774 209.881 162.402 209.785 164.079C209.689 165.708 209.594 167.336 209.546 169.013C209.498 170.642 209.45 172.318 209.402 173.947L209.306 178.881L208.924 178.498C210.647 178.546 212.417 178.594 214.14 178.689C215.864 178.785 217.587 178.881 219.357 179.025C221.08 179.121 222.851 179.264 224.622 179.408C226.441 179.504 228.26 179.647 230.079 179.791Z" fill="black"/>
<path d="M192.171 89.6391C192.889 90.166 193.512 90.6929 194.134 91.3157C194.756 91.8905 195.33 92.5132 195.857 93.1839C196.383 93.8545 196.862 94.5731 197.388 95.2437C197.915 95.9144 198.537 96.4892 199.159 97.064C199.781 97.6389 200.404 98.2137 201.026 98.8364C201.648 99.4592 202.222 100.034 202.797 100.657C203.898 101.95 204.951 103.291 205.86 104.728V104.776H205.812C204.424 103.723 203.228 102.573 202.031 101.327C201.457 100.705 200.882 100.082 200.356 99.4113C199.781 98.7885 199.303 98.07 198.776 97.3993C198.25 96.7287 197.723 96.0581 197.149 95.4353C196.575 94.8126 195.857 94.2857 195.235 93.7108C194.612 93.136 194.086 92.4653 193.559 91.7947C193.033 91.1241 192.506 90.4534 192.076 89.687V89.6391C192.124 89.5912 192.171 89.5912 192.171 89.6391Z" fill="black"/>
<path d="M205.908 89.6381C205.477 90.3087 204.951 90.8356 204.424 91.4105C203.898 91.9853 203.371 92.5122 202.749 92.9434C202.127 93.4224 201.504 93.8056 200.882 94.2846C200.308 94.7637 199.781 95.3385 199.255 95.9133C198.776 96.4882 198.25 97.063 197.723 97.5899C197.197 98.1169 196.67 98.6438 196.096 99.1707C194.947 100.177 193.751 101.087 192.411 101.901H192.363V101.853C193.272 100.608 194.325 99.506 195.426 98.4522C196 97.9253 196.575 97.4462 197.149 96.9672C197.723 96.4882 198.346 96.0091 198.968 95.578C199.59 95.1469 200.164 94.6679 200.739 94.1409C201.265 93.614 201.744 92.9913 202.27 92.4164C202.797 91.8416 203.371 91.3626 203.993 90.8835C204.615 90.4045 205.19 89.9734 205.908 89.5901H205.956C205.908 89.6381 205.908 89.6381 205.908 89.6381Z" fill="black"/>
<path d="M191.07 113.542C191.788 114.069 192.41 114.595 193.033 115.218C193.655 115.793 194.229 116.416 194.756 117.086C195.282 117.757 195.761 118.476 196.287 119.146C196.814 119.817 197.436 120.392 198.058 120.967C198.68 121.541 199.303 122.116 199.925 122.739C200.547 123.362 201.121 123.937 201.696 124.559C202.797 125.853 203.849 127.194 204.759 128.631V128.679H204.711C203.323 127.625 202.126 126.475 200.93 125.23C200.356 124.607 199.781 123.984 199.255 123.314C198.68 122.691 198.202 121.973 197.675 121.302C197.149 120.631 196.622 119.961 196.048 119.338C195.474 118.715 194.756 118.188 194.134 117.613C193.511 117.039 192.985 116.368 192.458 115.697C191.932 115.027 191.405 114.356 190.975 113.59V113.542C191.022 113.542 191.07 113.542 191.07 113.542Z" fill="black"/>
<path d="M204.807 113.59C204.376 114.26 203.849 114.787 203.323 115.362C202.796 115.937 202.27 116.464 201.648 116.895C201.026 117.374 200.403 117.757 199.781 118.236C199.207 118.715 198.68 119.29 198.154 119.865C197.675 120.44 197.149 121.014 196.622 121.541C196.096 122.068 195.569 122.595 194.995 123.122C193.846 124.128 192.65 125.038 191.31 125.853H191.262V125.805C192.171 124.559 193.224 123.458 194.325 122.404C194.899 121.877 195.474 121.398 196.048 120.919C196.622 120.44 197.244 119.961 197.867 119.529C198.489 119.098 199.063 118.619 199.638 118.092C200.164 117.565 200.643 116.943 201.169 116.368C201.696 115.793 202.27 115.314 202.892 114.835C203.514 114.356 204.089 113.925 204.807 113.542H204.855C204.807 113.542 204.807 113.59 204.807 113.59Z" fill="black"/>
<path d="M189.97 137.493C190.688 138.02 191.31 138.547 191.932 139.17C192.554 139.744 193.129 140.367 193.655 141.038C194.182 141.708 194.66 142.427 195.187 143.098C195.713 143.768 196.335 144.343 196.958 144.918C197.58 145.493 198.202 146.068 198.824 146.69C199.446 147.313 200.021 147.888 200.595 148.511C201.696 149.804 202.749 151.145 203.658 152.582V152.63H203.61C202.222 151.576 201.026 150.427 199.829 149.181C199.255 148.559 198.681 147.936 198.154 147.265C197.58 146.642 197.101 145.924 196.575 145.253C196.048 144.583 195.522 143.912 194.947 143.289C194.373 142.667 193.655 142.14 193.033 141.565C192.411 140.99 191.884 140.319 191.358 139.649C190.831 138.978 190.305 138.307 189.874 137.541V137.493C189.922 137.493 189.97 137.493 189.97 137.493Z" fill="black"/>
<path d="M203.706 137.493C203.275 138.164 202.749 138.691 202.222 139.265C201.696 139.84 201.169 140.367 200.547 140.798C199.925 141.277 199.303 141.661 198.681 142.14C198.106 142.619 197.58 143.194 197.053 143.768C196.575 144.343 196.048 144.918 195.522 145.445C194.995 145.972 194.469 146.499 193.894 147.026C192.746 148.032 191.549 148.942 190.209 149.756H190.161V149.708C191.071 148.463 192.123 147.361 193.224 146.307C193.799 145.78 194.373 145.301 194.947 144.822C195.522 144.343 196.144 143.864 196.766 143.433C197.388 143.002 197.963 142.523 198.537 141.996C199.063 141.469 199.542 140.846 200.069 140.271C200.595 139.697 201.169 139.218 201.792 138.739C202.414 138.26 202.988 137.828 203.706 137.445H203.754C203.706 137.493 203.706 137.493 203.706 137.493Z" fill="black"/>
<path d="M204.616 166.426C204.472 169.205 203.371 171.983 201.313 173.995C199.303 176.055 196.335 177.109 193.464 176.917C192.028 176.821 190.64 176.438 189.348 175.767C188.103 175.097 186.954 174.235 186.045 173.181C184.178 171.073 183.078 168.295 183.126 165.468C183.173 162.642 184.418 159.768 186.524 157.804C187.577 156.798 188.821 156.031 190.209 155.552C191.549 155.025 193.033 154.834 194.469 154.882C195.905 154.978 197.341 155.313 198.633 155.984C199.925 156.606 201.074 157.516 201.983 158.618C203.898 160.774 204.711 163.648 204.616 166.426ZM204.52 166.426C204.568 165.037 204.328 163.648 203.802 162.403C203.275 161.157 202.51 159.959 201.552 159.049C199.638 157.181 197.053 155.984 194.421 155.888C191.789 155.792 189.108 156.702 187.146 158.475C185.184 160.247 183.891 162.786 183.652 165.468C183.556 166.81 183.7 168.199 184.178 169.492C184.609 170.786 185.327 171.983 186.284 172.989C188.151 175.001 190.879 176.103 193.512 176.151C196.192 176.199 198.824 175.288 200.882 173.564C201.935 172.702 202.797 171.6 203.419 170.402C204.089 169.157 204.424 167.768 204.52 166.426Z" fill="black"/>
<path d="M57.2004 121.493L22.7397 128.966L32.1207 191.192C32.1207 191.192 47.3887 184.007 48.1066 184.246C48.8246 184.486 78.9298 186.929 79.2648 186.45C79.5999 185.971 80.4135 126.667 79.2648 126.332C78.1161 125.996 67.7301 125.086 67.7301 125.086L66.9643 122.164L57.5833 122.835L57.2004 121.493Z" fill="#77F169"/>
<path d="M66.5333 124.176C68.3042 124.08 70.0751 124.032 71.846 123.984L77.1587 123.888C77.3501 123.888 77.4937 124.032 77.4937 124.224C77.5416 126.811 77.5416 129.397 77.5894 131.984C77.5894 134.571 77.5894 137.158 77.5416 139.744C77.4459 144.918 77.2544 150.091 77.3023 155.265C77.3023 160.438 77.4937 165.612 77.5416 170.785L77.6373 178.546C77.6373 181.132 77.6852 183.719 77.6852 186.306C77.6852 186.593 77.4458 186.833 77.1587 186.833C74.957 186.833 72.7075 186.833 70.5058 186.785L63.853 186.689C61.6514 186.689 59.4019 186.593 57.2002 186.545C54.9985 186.498 52.749 186.402 50.5474 186.354C50.4995 186.354 50.4995 186.354 50.4995 186.306C50.4995 186.258 50.4995 186.258 50.5474 186.258C52.749 186.162 54.9985 186.114 57.2002 186.066C59.4019 186.019 61.6514 185.971 63.853 185.923L70.5058 185.827C72.7075 185.827 74.957 185.779 77.1587 185.779L76.6322 186.306C76.6322 183.719 76.6322 181.132 76.6801 178.546L76.7758 170.785C76.8236 165.612 77.0151 160.438 77.0151 155.265C77.063 150.091 76.9194 144.918 76.7758 139.744C76.7279 137.158 76.7279 134.571 76.7279 131.984C76.7279 129.397 76.7758 126.811 76.8236 124.224L77.1587 124.559L71.846 124.463C70.0751 124.415 68.3042 124.368 66.5333 124.272C66.4854 124.272 66.4854 124.272 66.5333 124.176C66.4854 124.224 66.5333 124.176 66.5333 124.176Z" fill="black"/>
<path d="M71.7979 184.15C72.3244 184.007 72.8988 183.911 73.4252 183.863C73.9517 183.815 74.5261 183.767 75.0525 183.767L74.6218 184.198C74.6218 183.575 74.6697 182.905 74.7654 182.282C74.8611 181.659 74.909 180.989 74.8611 180.366C74.8132 179.743 74.7175 179.073 74.6697 178.45C74.6218 177.827 74.5739 177.156 74.5261 176.534L75.3876 176.869C75.1004 177.252 74.8132 177.588 74.5261 177.923C74.2389 178.258 73.9039 178.594 73.5688 178.929C72.8988 179.6 72.2287 180.222 71.5108 180.797H71.4629V180.749C71.8936 179.887 72.4201 179.121 72.9466 178.402C73.2338 178.019 73.4731 177.636 73.7603 177.3C74.0474 176.917 74.3346 176.582 74.6697 176.246L74.7175 176.198C74.909 176.007 75.1961 176.007 75.3876 176.151C75.4833 176.246 75.5312 176.39 75.5312 176.534C75.4833 177.156 75.4833 177.827 75.3876 178.45C75.2919 179.073 75.1961 179.743 75.1961 180.366C75.1483 180.989 75.1961 181.659 75.2919 182.282C75.3876 182.905 75.4833 183.575 75.4354 184.198V184.246C75.4354 184.486 75.244 184.677 75.0047 184.629C74.4782 184.629 73.9039 184.581 73.3774 184.534C72.8509 184.486 72.2765 184.39 71.7501 184.246C71.7501 184.246 71.7501 184.246 71.7979 184.15C71.7501 184.198 71.7979 184.15 71.7979 184.15Z" fill="black"/>
<path d="M75.0526 126.284C75.1962 127.433 75.3398 128.679 75.3876 130.02C75.4355 130.691 75.4355 131.361 75.4355 132.032C75.4355 132.703 75.3398 133.373 75.2919 134.044V134.092C75.2919 134.235 75.1483 134.331 75.0047 134.331C74.909 134.331 74.8611 134.283 74.8133 134.235C74.3347 133.517 73.8082 132.894 73.2817 132.224C72.7074 131.601 72.133 130.978 71.5587 130.403C70.9365 129.828 70.41 129.206 69.8356 128.583C69.2613 127.96 68.6869 127.337 68.1604 126.715C67.969 126.475 68.0169 126.188 68.2083 125.996C68.304 125.9 68.3998 125.9 68.5433 125.9C69.1177 125.9 69.692 125.948 70.2664 125.948C70.8407 125.996 71.4151 125.996 71.9416 126.044C73.0424 126.044 74.0954 126.188 75.0526 126.284ZM75.0047 126.379C73.8082 126.523 72.7074 126.619 71.6544 126.715C71.1279 126.763 70.6014 126.81 70.0749 126.81C69.5485 126.81 69.0698 126.858 68.5433 126.858L68.9262 125.996C69.4527 126.619 69.9792 127.29 70.5057 127.96C71.0322 128.631 71.5587 129.301 72.0373 129.972C72.5159 130.643 72.9945 131.361 73.521 131.984C74.0475 132.655 74.6218 133.277 75.1962 133.852L74.7654 133.996C74.7176 133.373 74.6218 132.75 74.6218 132.128C74.574 131.505 74.6218 130.882 74.6697 130.259C74.7176 129.062 74.8133 127.816 75.0047 126.379Z" fill="black"/>
<path d="M56.5782 123.649C58.2056 123.41 59.8329 123.266 61.4602 123.074L66.39 122.547C66.5814 122.547 66.725 122.643 66.725 122.835C67.2515 127.96 67.778 133.134 68.1609 138.26C68.5438 143.433 68.7831 148.607 69.2617 153.732C69.6924 158.906 70.2668 164.031 70.8411 169.157C71.3676 174.283 71.8462 179.456 72.3249 184.582C72.3727 184.869 72.1334 185.109 71.8941 185.109C66.6771 185.588 61.4602 186.019 56.1953 186.402L52.2707 186.689L48.346 186.929C45.7136 187.12 43.129 187.264 40.4966 187.408C40.4487 187.408 40.4487 187.408 40.4487 187.36C40.4487 187.312 40.4487 187.312 40.4966 187.312C43.0811 186.977 45.7136 186.689 48.2981 186.402L52.2228 185.971L56.1475 185.588C61.3644 185.061 66.5814 184.582 71.7984 184.103L71.3198 184.63C70.889 179.456 70.5061 174.33 70.1232 169.157C69.7882 163.983 69.4531 158.858 68.9745 153.684C68.5438 148.511 67.8737 143.385 67.3472 138.26C66.8207 133.134 66.4378 127.96 66.1028 122.787L66.4378 123.074L61.508 123.41C59.8807 123.505 58.2056 123.601 56.5782 123.649C56.5304 123.649 56.5304 123.649 56.5304 123.601C56.5304 123.697 56.5304 123.649 56.5782 123.649Z" fill="black"/>
<path d="M63.0869 183.288C63.6134 183.097 64.1399 183.001 64.6664 182.905C65.1929 182.809 65.7193 182.713 66.2458 182.665C66.7723 182.618 67.2988 182.57 67.8731 182.57C68.3996 182.57 68.974 182.618 69.5004 182.618L69.309 182.809C69.309 182.186 69.2611 181.516 69.1654 180.893C69.0697 180.27 68.9261 179.648 68.7825 178.977C68.6868 178.354 68.5911 177.684 68.4953 177.061C68.3996 176.438 68.3518 175.767 68.3039 175.145L69.2133 175.384C68.7825 176.007 68.3039 176.582 67.8253 177.157C67.3466 177.731 66.8202 178.306 66.2458 178.833H66.198V178.785C66.4851 178.067 66.868 177.396 67.2509 176.726C67.6338 176.055 68.0167 175.432 68.4475 174.809C68.5911 174.57 68.9261 174.522 69.1175 174.666C69.2611 174.761 69.309 174.905 69.3569 175.001V175.049C69.4526 175.672 69.4526 176.342 69.5004 176.965C69.5483 177.588 69.5483 178.258 69.5483 178.881C69.5483 179.504 69.5004 180.175 69.5004 180.797C69.5004 181.42 69.5483 182.091 69.6919 182.713C69.6919 182.809 69.644 182.905 69.5483 182.905H69.5004C68.974 183.001 68.4475 183.144 67.921 183.24C67.3945 183.336 66.868 183.384 66.2937 183.432C65.7672 183.48 65.1929 183.48 64.6664 183.48C64.1399 183.48 63.5655 183.432 63.0391 183.384C63.0391 183.384 63.0391 183.336 63.0869 183.288C63.0391 183.288 63.0391 183.288 63.0869 183.288Z" fill="black"/>
<path d="M64.523 125.038C64.8102 126.14 65.0016 127.433 65.1931 128.727C65.2888 129.397 65.3845 130.068 65.3845 130.739C65.4324 131.409 65.3845 132.08 65.4324 132.751V132.799C65.4324 132.942 65.3367 133.038 65.1931 133.038C65.0974 133.038 65.0495 132.99 65.0016 132.942C64.4752 132.272 63.9008 131.649 63.2786 131.074C62.6564 130.499 62.0342 129.972 61.3641 129.397C60.6941 128.871 60.1197 128.296 59.4975 127.721C58.8753 127.146 58.2531 126.571 57.6787 125.996C57.4873 125.805 57.4873 125.469 57.6787 125.278C57.7745 125.182 57.8702 125.134 57.9659 125.134C58.5403 125.086 59.1146 125.038 59.689 125.038C60.2633 125.038 60.8376 124.99 61.3641 124.99C62.465 124.99 63.5179 125.038 64.523 125.038ZM64.4273 125.134C63.2307 125.374 62.1778 125.565 61.1248 125.757C60.5983 125.853 60.0718 125.901 59.5932 125.996C59.0667 126.044 58.5881 126.14 58.0616 126.188L58.3967 125.326C58.971 125.901 59.5454 126.523 60.1197 127.146C60.6941 127.769 61.2684 128.392 61.7949 129.014C62.3214 129.637 62.8957 130.308 63.4701 130.93C64.0444 131.553 64.6666 132.128 65.3367 132.655L64.9059 132.846C64.8102 132.224 64.6666 131.601 64.6188 131.026C64.523 130.403 64.523 129.829 64.4752 129.206C64.3794 127.865 64.4273 126.571 64.4273 125.134Z" fill="black"/>
<path d="M67.0121 182.809L49.9732 186.067C47.1015 186.593 44.2298 187.168 41.3581 187.647L32.7429 189.228C32.5036 189.276 32.3121 189.132 32.2643 188.893L31.5942 185.061L30.9241 181.228L29.6319 173.564L27.0952 158.235L25.8029 150.57L25.1328 146.738L24.4628 142.906C23.5534 137.828 22.5961 132.751 21.6868 127.625C21.6389 127.481 21.7346 127.338 21.8782 127.338C27.5738 126.284 33.2694 125.182 39.0128 124.176L56.1474 121.062C56.4346 121.014 56.6739 121.206 56.7218 121.446C57.679 126.571 58.5405 131.697 59.4021 136.822L60.7422 144.487L62.0345 152.151L64.5712 167.432L67.0121 182.809ZM66.9643 182.761L64.0447 167.384L61.2208 152.151L59.8328 144.535L58.4927 136.966C57.5833 131.888 56.6739 126.859 55.8124 121.781L56.3867 122.164L39.2521 125.134C33.5087 126.092 27.8131 127.05 22.0697 128.008L22.2611 127.721C23.1226 132.799 23.9363 137.924 24.8457 143.002L25.5157 146.834L26.1858 150.666L27.5738 158.283L30.4455 173.516L31.8335 181.133L32.5036 184.965L33.1737 188.797L32.695 188.462L41.2145 187.025C44.0383 186.546 46.9101 186.067 49.7339 185.587L66.9643 182.761Z" fill="black"/>
<path d="M53.802 153.636C54.2328 156.079 53.802 158.714 52.414 160.87C51.0739 163.073 48.6808 164.606 46.1441 164.989C44.8518 165.181 43.5595 165.085 42.3151 164.798C41.0707 164.462 39.922 163.935 38.9169 163.169C36.8589 161.684 35.3751 159.48 34.8487 156.99C34.3222 154.499 34.8487 151.768 36.2845 149.613C37.0025 148.559 37.9597 147.601 39.0605 146.882C40.1613 146.163 41.4058 145.684 42.6502 145.445C43.9424 145.253 45.2826 145.253 46.527 145.589C47.7714 145.876 48.968 146.499 49.9731 147.265C52.079 148.846 53.3713 151.193 53.802 153.636ZM53.7063 153.636C53.467 152.439 53.0362 151.241 52.3183 150.283C51.6004 149.277 50.7389 148.463 49.6859 147.792C47.6278 146.547 45.1869 146.02 42.8895 146.451C40.5921 146.882 38.4383 148.175 37.0982 150.092C35.7102 152.008 35.088 154.451 35.423 156.846C35.6145 158.043 35.9973 159.193 36.6196 160.247C37.2418 161.301 38.1033 162.163 39.1084 162.882C41.1186 164.271 43.7031 164.654 46.0005 164.175C48.3457 163.696 50.4517 162.403 51.9354 160.534C52.6533 159.576 53.2277 158.475 53.5627 157.325C53.8499 156.127 53.8977 154.834 53.7063 153.636Z" fill="black"/>
<path d="M24.415 129.445C24.8458 130.834 25.1808 132.08 25.4202 133.278C25.5637 133.9 25.7073 134.475 25.7552 135.098C25.8509 135.721 25.8509 136.295 25.9466 136.966L25.468 136.87C25.9466 136.2 26.4253 135.481 26.8082 134.763C27.191 134.044 27.5739 133.278 27.909 132.511C28.244 131.745 28.6269 130.978 29.0577 130.26C29.4406 129.541 29.8235 128.775 30.2542 128.056L30.7807 128.823C30.3021 128.918 29.7756 128.966 29.2491 129.062C28.7226 129.11 28.244 129.158 27.7175 129.206C26.7124 129.302 25.6116 129.349 24.415 129.445ZM24.3672 129.397C25.2766 129.11 26.3295 128.823 27.3825 128.535C27.909 128.391 28.4833 128.248 29.0098 128.152C29.5841 128.056 30.1106 127.912 30.685 127.817C30.9721 127.769 31.2115 127.96 31.2593 128.248C31.2593 128.391 31.2593 128.487 31.2115 128.583C30.7807 129.302 30.3499 130.02 29.9192 130.739C29.4884 131.457 29.0098 132.176 28.5312 132.846C28.0526 133.517 27.5739 134.236 27.1432 134.954C26.7124 135.673 26.3295 136.391 25.9945 137.206C25.9466 137.349 25.803 137.397 25.6595 137.349C25.6116 137.301 25.5637 137.253 25.5159 137.206V137.158C25.3244 136.535 25.133 135.864 25.0373 135.194C24.8937 134.523 24.7979 133.852 24.7022 133.23C24.5108 131.793 24.3672 130.547 24.3672 129.397Z" fill="black"/>
<path d="M34.4183 186.45C34.0833 185.348 33.7004 184.102 33.4132 182.857C33.2696 182.234 33.126 181.564 33.0303 180.893C32.9346 180.222 32.8867 179.552 32.8389 178.881V178.833C32.8389 178.689 32.9346 178.594 33.0782 178.546C33.1739 178.546 33.2218 178.546 33.2696 178.641C33.844 179.264 34.4662 179.791 35.1362 180.318C35.8063 180.845 36.4764 181.324 37.1465 181.803C37.8165 182.282 38.4866 182.809 39.1567 183.288C39.8267 183.815 40.4968 184.294 41.119 184.869C41.3583 185.06 41.3583 185.396 41.1669 185.587C41.0711 185.683 40.9754 185.731 40.8797 185.779C40.3053 185.875 39.731 185.971 39.2045 186.019C38.6302 186.066 38.1037 186.162 37.5293 186.21C36.4285 186.354 35.3756 186.402 34.4183 186.45ZM34.4662 186.402C35.6149 186.066 36.6678 185.779 37.7208 185.492C38.2473 185.348 38.7259 185.252 39.2524 185.108C39.731 185.013 40.2575 184.869 40.7361 184.821L40.4968 185.731C39.8267 185.204 39.2524 184.629 38.6302 184.054C38.008 183.48 37.3858 182.953 36.8114 182.33C36.2371 181.755 35.6149 181.132 34.9927 180.605C34.3705 180.031 33.7004 179.552 32.9825 179.073L33.4132 178.833C33.5568 179.456 33.7482 180.031 33.8918 180.605C34.0354 181.18 34.0833 181.803 34.179 182.426C34.2747 183.671 34.3705 184.965 34.4662 186.402Z" fill="black"/>
<path d="M64.4756 181.085C64.0449 179.695 63.7098 178.45 63.4705 177.252C63.3269 176.63 63.1833 176.055 63.1355 175.432C63.0397 174.809 63.0398 174.235 62.944 173.564L63.4226 173.66C62.944 174.33 62.4654 175.049 62.0825 175.767C61.6996 176.486 61.3167 177.252 60.9817 178.019C60.6466 178.785 60.2637 179.552 59.833 180.27C59.4501 180.989 59.0672 181.755 58.6364 182.474L58.11 181.707C58.5886 181.612 59.1151 181.564 59.6415 181.468C60.168 181.42 60.6466 181.372 61.1731 181.324C62.1782 181.228 63.2791 181.18 64.4756 181.085ZM64.5713 181.133C63.662 181.42 62.609 181.707 61.556 181.995C61.0295 182.139 60.4552 182.282 59.9287 182.378C59.3544 182.474 58.8279 182.618 58.2535 182.713C57.9664 182.761 57.7271 182.57 57.6792 182.282C57.6792 182.139 57.6792 182.043 57.7271 181.947C58.1578 181.228 58.5886 180.51 59.0193 179.791C59.4501 179.073 59.9287 178.354 60.4073 177.684C60.886 177.013 61.3646 176.294 61.7953 175.576C62.2261 174.857 62.609 174.139 62.944 173.324C62.9919 173.181 63.1355 173.133 63.2791 173.181C63.3269 173.229 63.3748 173.276 63.4226 173.324V173.372C63.6141 173.995 63.8055 174.666 63.9013 175.336C64.0449 176.007 64.1406 176.678 64.2363 177.3C64.4278 178.737 64.5235 179.983 64.5713 181.133Z" fill="black"/>
<path d="M54.5204 124.08C54.8555 125.182 55.2384 126.427 55.5255 127.673C55.6691 128.296 55.8127 128.966 55.9084 129.637C56.0042 130.308 56.052 130.978 56.0999 131.649V131.697C56.0999 131.84 56.0042 131.936 55.8606 131.984C55.7649 131.984 55.717 131.984 55.6691 131.888C55.0948 131.266 54.4726 130.739 53.8025 130.212C53.1324 129.685 52.4624 129.206 51.7923 128.727C51.1222 128.248 50.4522 127.721 49.7821 127.242C49.112 126.715 48.442 126.236 47.8198 125.661C47.5804 125.469 47.5804 125.134 47.7719 124.942C47.8676 124.847 47.9633 124.799 48.0591 124.751C48.6334 124.655 49.2078 124.559 49.7342 124.511C50.3086 124.463 50.8351 124.368 51.4094 124.32C52.5102 124.176 53.5632 124.128 54.5204 124.08ZM54.4726 124.128C53.3239 124.463 52.2709 124.751 51.218 125.038C50.6915 125.182 50.2129 125.278 49.6864 125.421C49.2078 125.517 48.6813 125.661 48.2027 125.709L48.442 124.799C49.112 125.326 49.6864 125.901 50.3086 126.475C50.9308 127.05 51.553 127.577 52.1273 128.2C52.7017 128.775 53.3239 129.397 53.9461 129.924C54.5683 130.499 55.2384 130.978 55.9563 131.457L55.5255 131.697C55.382 131.074 55.1905 130.499 55.0469 129.924C54.9033 129.35 54.8555 128.727 54.7598 128.104C54.664 126.859 54.5683 125.613 54.4726 124.128Z" fill="black"/>
<path d="M4.12141 87.7218C6.15679 87.7218 7.80679 86.0704 7.80679 84.0333C7.80679 81.9962 6.15679 80.3448 4.12141 80.3448C2.08603 80.3448 0.436035 81.9962 0.436035 84.0333C0.436035 86.0704 2.08603 87.7218 4.12141 87.7218Z" fill="#0049E5"/>
<path d="M104.68 36.6096C106.715 36.6096 108.365 34.9582 108.365 32.9211C108.365 30.884 106.715 29.2325 104.68 29.2325C102.644 29.2325 100.994 30.884 100.994 32.9211C100.994 34.9582 102.644 36.6096 104.68 36.6096Z" fill="#0049E5"/>
<path d="M139.332 210.449C140.68 210.449 141.773 209.355 141.773 208.006C141.773 206.657 140.68 205.563 139.332 205.563C137.983 205.563 136.891 206.657 136.891 208.006C136.891 209.355 137.983 210.449 139.332 210.449Z" fill="#F089C0"/>
<path d="M19.9636 104.44C21.6289 104.44 22.9789 103.089 22.9789 101.422C22.9789 99.7555 21.6289 98.4044 19.9636 98.4044C18.2982 98.4044 16.9482 99.7555 16.9482 101.422C16.9482 103.089 18.2982 104.44 19.9636 104.44Z" fill="#ECCEFF"/>
<path d="M7.27999 190.521C9.0246 190.521 10.4389 189.106 10.4389 187.36C10.4389 185.614 9.0246 184.198 7.27999 184.198C5.53538 184.198 4.12109 185.614 4.12109 187.36C4.12109 189.106 5.53538 190.521 7.27999 190.521Z" fill="#FAE058"/>
<path d="M68.0648 164.989C69.0429 164.989 69.8357 164.196 69.8357 163.217C69.8357 162.238 69.0429 161.444 68.0648 161.444C67.0868 161.444 66.2939 162.238 66.2939 163.217C66.2939 164.196 67.0868 164.989 68.0648 164.989Z" fill="#ECCEFF"/>
<path d="M173.409 50.214C176.158 50.214 178.387 47.9835 178.387 45.2321C178.387 42.4807 176.158 40.2502 173.409 40.2502C170.66 40.2502 168.432 42.4807 168.432 45.2321C168.432 47.9835 170.66 50.214 173.409 50.214Z" fill="#0049E5"/>
<path d="M144.931 12.1791C148.024 12.1791 150.531 9.66984 150.531 6.57448C150.531 3.47913 148.024 0.969849 144.931 0.969849C141.839 0.969849 139.332 3.47913 139.332 6.57448C139.332 9.66984 141.839 12.1791 144.931 12.1791Z" fill="#77F169"/>
<path d="M265.496 133.996C267.188 133.996 268.559 132.624 268.559 130.93C268.559 129.237 267.188 127.865 265.496 127.865C263.805 127.865 262.433 129.237 262.433 130.93C262.433 132.624 263.805 133.996 265.496 133.996Z" fill="#FAE058"/>
<path d="M199.542 211.551C199.833 211.551 200.069 211.315 200.069 211.024C200.069 210.733 199.833 210.497 199.542 210.497C199.251 210.497 199.016 210.733 199.016 211.024C199.016 211.315 199.251 211.551 199.542 211.551Z" fill="#ECCEFF"/>
<path d="M200.116 33.6875C202.786 33.6875 204.95 31.5214 204.95 28.8493C204.95 26.1772 202.786 24.0111 200.116 24.0111C197.447 24.0111 195.282 26.1772 195.282 28.8493C195.282 31.5214 197.447 33.6875 200.116 33.6875Z" fill="#ECCEFF"/>
<path d="M79.8391 48.1541C80.4735 48.1541 80.9878 47.6394 80.9878 47.0044C80.9878 46.3695 80.4735 45.8547 79.8391 45.8547C79.2047 45.8547 78.6904 46.3695 78.6904 47.0044C78.6904 47.6394 79.2047 48.1541 79.8391 48.1541Z" fill="#ECCEFF"/>
</svg>
