<svg width="151" height="223" viewBox="0 0 151 223" fill="none" xmlns="http://www.w3.org/2000/svg">
<path d="M125.844 218.056H44.6688C41.5322 218.056 39.0229 215.552 39.0229 212.423V51.6985C39.0229 48.5692 41.5322 46.0657 44.6688 46.0657H125.844C128.981 46.0657 131.49 48.5692 131.49 51.6985V212.36C131.49 215.49 128.981 218.056 125.844 218.056Z" fill="#0049E5"/>
<path d="M70.8279 66.1562C63.4882 66.1562 58.4697 66.1562 58.4697 66.1562L55.3958 59.2716L43.4767 59.96C43.4767 59.96 37.7053 204.412 43.4767 206.477C49.248 208.542 63.9273 207.791 63.9273 207.791L122.77 202.284V56.5803L112.545 55.7667C112.545 55.7667 106.021 66.1562 103.323 66.9698C100.626 67.7835 70.8279 66.1562 70.8279 66.1562Z" fill="#ECCEFF"/>
<path d="M123.586 220.872L91.0906 220.997L58.5954 221.185C53.2004 221.248 47.7427 221.248 42.3478 221.248C40.9049 221.248 39.3994 220.684 38.3329 219.683C37.2037 218.682 36.5137 217.305 36.3255 215.865C36.2627 215.114 36.2627 214.488 36.2627 213.8V211.797V207.729C36.2 196.901 36.2627 186.136 36.2627 175.308L36.4509 142.888L36.5137 126.678L36.5764 110.468C36.6391 99.6404 36.5764 88.8754 36.5764 78.0478L36.5137 61.8377V57.7695V55.7667C36.5137 55.0782 36.4509 54.4524 36.5764 53.7013C36.7646 52.2618 37.4547 50.9475 38.5838 50.0087C39.6503 49.0699 41.0931 48.5066 42.536 48.5066L107.526 48.2562H123.774C125.28 48.2562 126.785 48.8821 127.914 49.8835C129.044 50.8849 129.796 52.2618 129.985 53.7639C130.047 54.515 130.047 55.2034 130.047 55.8919V57.8947V61.9628V94.3831C130.047 115.976 129.985 137.631 129.796 159.224L129.545 191.644L129.483 207.854V211.922V213.925C129.483 214.613 129.483 215.302 129.42 215.99C129.232 217.367 128.542 218.619 127.475 219.495C126.346 220.371 124.966 220.872 123.586 220.872ZM123.586 220.747C124.903 220.747 126.283 220.246 127.287 219.37C128.291 218.494 128.981 217.242 129.169 215.928C129.232 215.302 129.232 214.613 129.232 213.925V211.922V207.854L129.169 191.644L128.918 159.224C128.73 137.631 128.667 115.976 128.667 94.3831V61.9628V57.8947V55.8919C128.667 55.2034 128.667 54.515 128.604 53.9517C128.479 52.7625 127.852 51.6359 126.973 50.8223C126.095 50.0087 124.903 49.5706 123.711 49.508L107.464 49.4454L42.4105 49.1324C41.1558 49.1324 39.8385 49.5706 38.8975 50.4468C37.9565 51.2604 37.2665 52.4496 37.0783 53.7013C37.0155 54.3272 37.0155 55.0157 37.0155 55.7041V57.7069V61.7751L36.9528 77.9852C36.9528 88.8128 36.8901 99.5778 36.9528 110.405L37.0155 126.616L37.0783 142.826L37.2665 175.246C37.2665 186.074 37.3292 196.839 37.2665 207.666V211.734V213.737C37.2665 214.426 37.2665 215.114 37.3292 215.677C37.4547 216.929 38.082 218.056 39.023 218.869C39.9639 219.683 41.1558 220.184 42.4105 220.184L58.6581 220.309L91.1534 220.559L123.586 220.747Z" fill="black"/>
<path d="M57.1525 57.7069L59.0972 60.7737L60.0382 62.2758C60.3519 62.7765 60.7282 63.2772 61.1674 63.5901C61.6065 63.9656 62.1711 64.216 62.7357 64.3412C63.3003 64.4663 63.9276 64.4663 64.4922 64.4663H68.0679C72.8983 64.4663 77.6659 64.4663 82.4963 64.4038L96.9247 64.2786H100.5H102.32C102.884 64.2786 103.449 64.1534 103.951 63.9031C104.453 63.6527 104.892 63.3398 105.268 62.9017C105.582 62.4635 105.895 61.9629 106.209 61.4622L108.091 58.3954L108.593 57.6443C108.781 57.394 108.969 57.081 109.22 56.8933C109.659 56.3926 110.224 56.0171 110.851 55.8293C111.479 55.5789 112.169 55.5164 112.796 55.5164H114.615H118.191C118.818 55.5164 119.508 55.5789 120.136 55.8293C120.763 56.0796 121.328 56.4552 121.829 56.8933C122.268 57.394 122.645 57.9573 122.896 58.5831C123.021 58.8961 123.084 59.209 123.147 59.5845C123.209 59.8975 123.209 60.273 123.209 60.5233V64.0908V71.2884C123.272 80.8642 123.209 90.5027 123.209 100.079L123.021 128.869L122.959 143.264L122.896 157.659C122.833 167.235 122.896 176.873 122.896 186.449L122.959 200.844V202.659C122.959 203.285 122.77 203.911 122.519 204.537C121.955 205.726 120.888 206.602 119.634 206.915C119.006 207.103 118.316 207.103 117.752 207.103H115.933H112.357L54.6432 207.353H47.429C46.0489 207.291 44.7316 206.665 43.8533 205.538C43.4142 204.975 43.1005 204.349 42.9123 203.723C42.8496 203.41 42.7869 203.035 42.7869 202.722C42.7869 202.409 42.7869 202.096 42.7869 201.783L42.7241 187.388V158.598C42.7241 139.383 42.7869 120.232 42.9751 101.017L43.226 72.2272L43.2887 65.0296V61.4622C43.2887 60.8363 43.2887 60.273 43.3514 59.6471C43.4142 59.0212 43.6651 58.458 43.9788 57.8947C44.6061 56.8307 45.7353 56.0796 46.9899 55.9545C47.6172 55.8919 48.1818 55.8919 48.8091 55.8919H50.6284H52.4476C53.0749 55.8919 53.6395 55.8293 54.2668 55.9545C55.396 55.8919 56.4625 56.6429 57.1525 57.7069ZM57.0271 57.7695C56.3997 56.7681 55.3333 56.0796 54.1414 55.8919C53.5768 55.8293 52.9495 55.8919 52.3221 55.8293H50.5029H48.6837C48.0564 55.8293 47.4918 55.8293 46.9272 55.8919C45.7353 56.0796 44.6688 56.7681 44.1042 57.7695C43.7906 58.2702 43.6024 58.8335 43.5396 59.3968C43.4769 59.9601 43.5396 60.5859 43.5396 61.1492V64.7167L43.6024 71.9142L43.8533 100.704C44.0415 119.919 44.1042 139.07 44.1042 158.285V187.075L44.0415 201.47C44.0415 201.783 44.0415 202.096 44.0415 202.346C44.0415 202.597 44.1042 202.847 44.167 203.097C44.2924 203.598 44.5434 204.036 44.857 204.474C45.4843 205.288 46.4881 205.788 47.4918 205.851H54.706L112.42 206.101H115.995H117.814C118.442 206.101 119.006 206.101 119.508 205.976C120.575 205.726 121.516 204.912 122.018 203.911C122.268 203.41 122.394 202.847 122.394 202.284V200.469L122.457 186.073C122.457 176.498 122.519 166.859 122.457 157.283L122.394 142.888L122.331 128.493L122.143 99.703C122.143 90.1271 122.08 80.4887 122.143 70.9128V63.7153V60.1478C122.143 59.8349 122.143 59.5845 122.08 59.3342C122.018 59.0838 122.018 58.8335 121.892 58.5831C121.704 58.0824 121.453 57.6443 121.077 57.2688C120.324 56.5178 119.32 56.0796 118.191 56.1422H114.615H112.796C112.231 56.1422 111.667 56.2048 111.165 56.3926C110.663 56.5803 110.161 56.8933 109.785 57.2688C109.597 57.4566 109.408 57.6443 109.283 57.8947L108.781 58.6457L106.836 61.6499C106.523 62.1506 106.209 62.6513 105.77 63.152C105.331 63.6527 104.829 64.0282 104.202 64.3412C103.637 64.5915 102.947 64.7793 102.32 64.7793H100.5H96.9247L82.4963 64.6541C77.6659 64.5915 72.8983 64.5915 68.0679 64.5915H64.4922C63.9276 64.5915 63.3003 64.6541 62.6729 64.4663C62.0456 64.3412 61.481 64.0908 61.0419 63.7153C60.5401 63.3398 60.1637 62.8391 59.85 62.3384L58.909 60.8363L57.0271 57.7695Z" fill="black"/>
<path d="M84.0019 56.5803C84.0019 57.5817 84.5665 58.5205 85.3193 59.0212C86.0721 59.5219 86.8876 59.8349 87.7659 59.8974C88.6441 59.96 89.6478 59.8349 90.3379 59.1464C91.0279 58.5205 91.4043 57.5191 91.2789 56.5803C91.1534 55.6415 90.7143 54.8905 90.087 54.2646C89.4596 53.7013 88.6441 53.3884 87.7659 53.3884C86.9503 53.3884 86.1348 53.6387 85.3193 54.1394C84.6293 54.7027 84.0019 55.5789 84.0019 56.5803ZM83.8765 56.5803C83.8765 55.5789 84.1274 54.5149 84.7547 53.5761C85.382 52.6373 86.574 52.074 87.7659 52.074C88.9578 52.074 90.1497 52.5747 90.9025 53.451C91.718 54.2646 92.0944 55.5163 91.9689 56.5803C91.8435 57.7069 91.3416 58.6457 90.6516 59.4593C89.9615 60.2104 88.9578 60.8988 87.7659 60.9614C87.2013 61.024 86.6367 60.8988 86.0721 60.6485C85.5702 60.3981 85.0684 60.0226 84.7547 59.5845C84.1274 58.7083 83.9392 57.5817 83.8765 56.5803Z" fill="black"/>
<path d="M74.4668 56.5803C74.4668 57.2688 74.9059 57.8946 75.4705 58.2076C76.0351 58.5205 76.5369 58.6457 77.1015 58.7709C77.6661 58.8335 78.3562 58.8335 78.858 58.3328C79.3599 57.8946 79.5481 57.2062 79.4226 56.5803C79.2971 55.9544 78.9835 55.4537 78.5444 55.0782C78.1052 54.7027 77.6034 54.5775 77.0388 54.5149C76.5369 54.5149 75.9723 54.6401 75.4078 54.953C74.9059 55.266 74.4668 55.8918 74.4668 56.5803ZM74.3413 56.5803C74.3413 55.8918 74.4668 55.0782 74.9059 54.3898C75.1568 54.0768 75.4705 53.7639 75.8469 53.5135C76.2233 53.3258 76.6624 53.2006 77.1015 53.2006C77.9798 53.2006 78.858 53.5761 79.4226 54.2646C79.9872 54.8905 80.2381 55.7667 80.1127 56.5803C79.9872 57.3939 79.6108 58.0824 79.109 58.6457C78.6071 59.209 77.917 59.7097 77.0388 59.8349C76.2233 59.96 75.2823 59.5219 74.8432 58.8335C74.4668 58.0824 74.3413 57.3314 74.3413 56.5803Z" fill="black"/>
<path d="M142.907 108.09C146.649 108.09 149.682 105.063 149.682 101.33C149.682 97.5971 146.649 94.5708 142.907 94.5708C139.166 94.5708 136.132 97.5971 136.132 101.33C136.132 105.063 139.166 108.09 142.907 108.09Z" fill="#ECCEFF"/>
<path d="M91.0277 32.6094C92.8293 32.6094 94.2898 31.1523 94.2898 29.3549C94.2898 27.5574 92.8293 26.1003 91.0277 26.1003C89.2261 26.1003 87.7656 27.5574 87.7656 29.3549C87.7656 31.1523 89.2261 32.6094 91.0277 32.6094Z" fill="#0049E5"/>
<path d="M137.199 47.1296C140.352 47.1296 142.907 44.5797 142.907 41.4342C142.907 38.2887 140.352 35.7387 137.199 35.7387C134.046 35.7387 131.49 38.2887 131.49 41.4342C131.49 44.5797 134.046 47.1296 137.199 47.1296Z" fill="#FAE058"/>
<path d="M55.3959 11.6426C56.4699 11.6426 57.3406 10.774 57.3406 9.70241C57.3406 8.63087 56.4699 7.76221 55.3959 7.76221C54.3218 7.76221 53.4512 8.63087 53.4512 9.70241C53.4512 10.774 54.3218 11.6426 55.3959 11.6426Z" fill="#ECCEFF"/>
<path d="M6.71583 101.33C10.2151 101.33 13.0518 98.5001 13.0518 95.0089C13.0518 91.5178 10.2151 88.6876 6.71583 88.6876C3.21658 88.6876 0.379883 91.5178 0.379883 95.0089C0.379883 98.5001 3.21658 101.33 6.71583 101.33Z" fill="#77F169"/>
<path d="M23.0887 137.381C24.232 137.381 25.1589 136.456 25.1589 135.315C25.1589 134.174 24.232 133.25 23.0887 133.25C21.9454 133.25 21.0186 134.174 21.0186 135.315C21.0186 136.456 21.9454 137.381 23.0887 137.381Z" fill="#ECCEFF"/>
<path d="M24.0926 61.0866C27.4879 61.0866 30.2403 58.3405 30.2403 54.953C30.2403 51.5656 27.4879 48.8195 24.0926 48.8195C20.6973 48.8195 17.9448 51.5656 17.9448 54.953C17.9448 58.3405 20.6973 61.0866 24.0926 61.0866Z" fill="#ECCEFF"/>
<path d="M136.132 171.553C137.761 171.553 139.081 170.236 139.081 168.612C139.081 166.987 137.761 165.67 136.132 165.67C134.504 165.67 133.184 166.987 133.184 168.612C133.184 170.236 134.504 171.553 136.132 171.553Z" fill="#FAE058"/>
<path d="M99.8102 11.6426C102.824 11.6426 105.268 9.20478 105.268 6.19754C105.268 3.19029 102.824 0.752441 99.8102 0.752441C96.796 0.752441 94.3525 3.19029 94.3525 6.19754C94.3525 9.20478 96.796 11.6426 99.8102 11.6426Z" fill="#ECCEFF"/>
<path d="M50.5027 35.9891C53.2398 35.9891 55.4586 33.7754 55.4586 31.0447C55.4586 28.314 53.2398 26.1003 50.5027 26.1003C47.7657 26.1003 45.5469 28.314 45.5469 31.0447C45.5469 33.7754 47.7657 35.9891 50.5027 35.9891Z" fill="#FAE058"/>
<path d="M110.726 59.8349C110.601 60.8988 110.663 62.0254 110.726 63.0894C110.726 63.3397 110.789 63.6527 110.851 63.8404C110.789 63.903 111.102 63.9656 111.353 63.9656C111.855 64.0282 112.42 64.0282 112.984 64.0282C115.18 64.0282 117.376 64.0908 119.571 63.903L119.446 64.0282C119.446 63.4023 119.383 62.7765 119.383 62.1506V61.9628H119.571L120.449 61.9002L120.199 62.1506L120.136 60.3981L120.449 60.7111H119.258H119.007V60.3981C118.944 59.8974 118.881 59.3342 118.818 58.8335L119.132 59.1464C117.689 59.0212 116.184 58.9586 114.741 58.896C113.988 58.896 113.235 58.8335 112.545 58.9586C112.169 59.0212 111.792 59.0838 111.479 59.209C111.102 59.2716 110.789 59.5219 110.726 59.8349ZM110.663 59.8349C110.663 59.3967 111.102 59.209 111.416 59.0212C111.792 58.896 112.106 58.7709 112.482 58.7083C113.235 58.5205 113.988 58.4579 114.741 58.3953C116.246 58.2702 117.752 58.3328 119.258 58.4579H119.509V58.7083C119.571 59.209 119.571 59.7723 119.634 60.3356L119.32 60.0852H120.512H120.826V60.3356L120.763 62.088V62.3383H120.512L119.634 62.2758L119.822 62.088C119.822 62.7139 119.759 63.3397 119.759 63.9656V64.0908H119.634C118.505 64.1534 117.438 64.216 116.309 64.3411C115.18 64.4663 114.114 64.5915 112.984 64.5915C112.42 64.5915 111.855 64.5915 111.291 64.4663C111.165 64.4663 110.977 64.4037 110.851 64.3411C110.789 64.3411 110.663 64.2786 110.601 64.216C110.538 64.1534 110.475 64.1534 110.475 64.0282C110.475 63.9656 110.475 63.9656 110.412 63.903C110.35 63.5901 110.35 63.3397 110.35 63.0268C110.475 62.0254 110.601 60.9614 110.663 59.8349Z" fill="black"/>
<path d="M115.682 58.6457V64.3412C115.682 64.3412 111.541 64.5915 110.663 64.0908V60.1478C110.663 60.1478 110.35 59.1464 112.169 58.9587C113.988 58.7709 115.682 58.6457 115.682 58.6457Z" fill="black"/>
<path d="M45.6098 63.0894C45.6098 63.0894 45.1079 65.7807 45.6098 65.8432C46.1116 65.9684 47.4917 65.8432 47.4917 65.8432L47.6172 62.8391L45.6098 63.0894Z" fill="black"/>
<path d="M48.1191 65.7181L48.3073 61.7125H50.252V65.9058L48.1191 65.7181Z" fill="black"/>
<path d="M51.0679 65.9058L51.3815 60.0852L53.7026 59.8349L54.0163 65.7181L51.0679 65.9058Z" fill="black"/>
<path d="M68.4445 104.022H52.0087C50.9422 104.022 50.064 103.145 50.064 102.081V85.6209C50.064 84.5569 50.9422 83.6807 52.0087 83.6807H68.5072C69.5737 83.6807 70.4519 84.5569 70.4519 85.6209V102.081C70.3892 103.145 69.5109 104.022 68.4445 104.022Z" fill="#0049E5"/>
<path d="M92.0316 104.022H75.5331C74.4666 104.022 73.5884 103.145 73.5884 102.081V85.6209C73.5884 84.5569 74.4666 83.6807 75.5331 83.6807H92.0316C93.0981 83.6807 93.9763 84.5569 93.9763 85.6209V102.081C93.9763 103.145 93.1608 104.022 92.0316 104.022Z" fill="#FAE058"/>
<path d="M115.682 104.022H99.1835C98.117 104.022 97.2388 103.145 97.2388 102.081V85.6209C97.2388 84.5569 98.117 83.6807 99.1835 83.6807H115.682C116.748 83.6807 117.627 84.5569 117.627 85.6209V102.081C117.627 103.145 116.748 104.022 115.682 104.022Z" fill="#77F169"/>
<path d="M67.0018 101.956C63.7397 101.956 60.4776 102.144 57.2155 102.269C55.5845 102.332 53.9535 102.394 52.3224 102.457H51.1305H50.5032C50.2523 102.457 50.0013 102.394 49.7504 102.332C48.7467 102.019 48.0566 101.017 48.0566 99.9534C48.1194 96.6988 48.3076 93.4443 48.3703 90.1897C48.3703 88.5625 48.3703 86.9352 48.3703 85.3079V84.1188V83.4929C48.3703 83.2425 48.3703 83.0548 48.433 82.8044C48.684 81.9282 49.5622 81.2398 50.5659 81.1772C53.828 81.052 57.0901 80.9894 60.3521 80.9268L65.2453 80.8642H66.4372H67.0645C67.3154 80.8642 67.6291 80.9268 67.88 80.9894C68.9465 81.3023 69.6992 82.3663 69.6992 83.4929C69.6992 86.7474 69.6365 90.002 69.4483 93.2565L69.1974 98.1383C69.1974 98.5138 69.1346 98.952 69.1346 99.3275V99.9534C69.1346 100.141 69.0719 100.391 69.0092 100.579C68.6328 101.393 67.88 101.956 67.0018 101.956ZM67.0018 101.831C67.8173 101.831 68.5701 101.268 68.7583 100.517C68.8837 100.141 68.821 99.7656 68.821 99.3275C68.821 98.952 68.821 98.5138 68.7583 98.1383L68.5073 93.2565C68.3191 90.002 68.2564 86.7474 68.2564 83.4929C68.2564 82.9296 67.88 82.4289 67.3781 82.3037C67.2527 82.2412 67.1272 82.2411 67.0018 82.2411H66.3744H65.1825L60.2894 82.1786C57.0273 82.116 53.7653 82.0534 50.5032 81.9282C49.8131 81.8656 49.1231 82.3663 48.9349 82.9922C48.8722 83.18 48.8722 83.3051 48.8094 83.4929V84.1188V85.3079C48.8094 86.9352 48.8094 88.5625 48.8094 90.1897C48.8722 93.4443 49.0604 96.6988 49.1231 99.9534C49.1231 100.579 49.5622 101.08 50.1268 101.268C50.2523 101.33 50.3777 101.33 50.5659 101.33H51.1932H52.3852C54.0162 101.33 55.6472 101.393 57.2783 101.518C60.4776 101.643 63.7397 101.831 67.0018 101.831Z" fill="black"/>
<path d="M90.5892 101.956C87.3271 101.956 84.065 102.144 80.8029 102.269C79.1719 102.332 77.5409 102.394 75.9098 102.457H74.7179H74.0906C73.8397 102.457 73.5887 102.394 73.3378 102.332C72.3341 102.019 71.644 101.017 71.644 99.9534C71.7068 96.6988 71.895 93.4443 71.9577 90.1897C71.9577 88.5625 71.9577 86.9352 71.9577 85.3079V84.1188V83.4929C71.9577 83.2425 71.9577 83.0548 72.0204 82.8044C72.2714 81.9282 73.1496 81.2398 74.1533 81.1772C77.4154 81.052 80.6775 80.9894 83.9395 80.9268L88.8326 80.8642H90.0246H90.6519C90.9028 80.8642 91.2165 80.9268 91.4674 80.9894C92.5338 81.3023 93.2866 82.3663 93.2866 83.4929C93.2866 86.7474 93.2239 90.002 93.0357 93.2565L92.7848 98.1383C92.7848 98.5138 92.722 98.952 92.722 99.3275V99.9534C92.722 100.141 92.6593 100.391 92.5966 100.579C92.2829 101.393 91.4674 101.956 90.5892 101.956ZM90.5892 101.831C91.4047 101.831 92.1575 101.268 92.3457 100.517C92.4711 100.141 92.4084 99.7656 92.4084 99.3275C92.4084 98.952 92.4084 98.5138 92.3457 98.1383L92.0947 93.2565C91.9065 90.002 91.8438 86.7474 91.8438 83.4929C91.8438 82.9296 91.4674 82.4289 90.9655 82.3037C90.8401 82.2412 90.7146 82.2411 90.5892 82.2411H89.9618H88.7699L83.8768 82.1786C80.6147 82.116 77.3527 82.0534 74.0906 81.9282C73.4005 81.8656 72.7105 82.3663 72.5223 82.9922C72.4596 83.18 72.4596 83.3051 72.3968 83.4929V84.1188V85.3079C72.3968 86.9352 72.3968 88.5625 72.3968 90.1897C72.4596 93.4443 72.6478 96.6988 72.7105 99.9534C72.7105 100.579 73.1496 101.08 73.7142 101.268C73.8397 101.33 73.9651 101.33 74.1533 101.33H74.7807H75.9726C77.6036 101.33 79.2346 101.393 80.8657 101.518C84.065 101.643 87.3271 101.831 90.5892 101.831Z" fill="black"/>
<path d="M114.177 101.956C110.914 101.956 107.652 102.144 104.39 102.269C102.759 102.332 101.128 102.394 99.4972 102.457H98.3053H97.678C97.4271 102.457 97.1761 102.394 96.9252 102.332C95.9215 102.019 95.2314 101.017 95.2314 99.9534C95.2942 96.6988 95.4824 93.4443 95.5451 90.1897C95.5451 88.5625 95.5451 86.9352 95.5451 85.3079V84.1188V83.4929C95.5451 83.2425 95.5451 83.0548 95.6078 82.8044C95.8588 81.9282 96.737 81.2398 97.7407 81.1772C101.003 81.052 104.265 80.9894 107.527 80.9268L112.42 80.8642H113.612H114.239C114.49 80.8642 114.804 80.9268 115.055 80.9894C116.121 81.3023 116.874 82.3663 116.874 83.4929C116.874 86.7474 116.811 90.002 116.623 93.2565L116.372 98.1383C116.372 98.5138 116.309 98.952 116.309 99.3275V99.9534C116.309 100.141 116.247 100.391 116.184 100.579C115.87 101.393 115.055 101.956 114.177 101.956ZM114.177 101.831C114.992 101.831 115.745 101.268 115.933 100.517C116.059 100.141 115.996 99.7656 115.996 99.3275C115.996 98.952 115.996 98.5138 115.933 98.1383L115.682 93.2565C115.494 90.002 115.431 86.7474 115.431 83.4929C115.431 82.9296 115.055 82.4289 114.553 82.3037C114.427 82.2412 114.302 82.2411 114.177 82.2411H113.549H112.357L107.464 82.1786C104.202 82.116 100.94 82.0534 97.678 81.9282C96.988 81.8656 96.2979 82.3663 96.1097 82.9922C96.047 83.18 96.047 83.3051 95.9842 83.4929V84.1188V85.3079C95.9842 86.9352 95.9842 88.5625 95.9842 90.1897C96.047 93.4443 96.2352 96.6988 96.2979 99.9534C96.2979 100.579 96.737 101.08 97.3016 101.268C97.4271 101.33 97.5525 101.33 97.7407 101.33H98.3681H99.56C101.191 101.33 102.822 101.393 104.453 101.518C107.652 101.643 110.914 101.831 114.177 101.831Z" fill="black"/>
<path d="M68.4445 131.435H52.0087C50.9422 131.435 50.064 130.559 50.064 129.495V113.034C50.064 111.97 50.9422 111.094 52.0087 111.094H68.5072C69.5737 111.094 70.4519 111.97 70.4519 113.034V129.495C70.3892 130.559 69.5109 131.435 68.4445 131.435Z" fill="#77F169"/>
<path d="M92.0316 131.435H75.5331C74.4666 131.435 73.5884 130.559 73.5884 129.495V113.034C73.5884 111.97 74.4666 111.094 75.5331 111.094H92.0316C93.0981 111.094 93.9763 111.97 93.9763 113.034V129.495C93.9763 130.559 93.1608 131.435 92.0316 131.435Z" fill="#0049E5"/>
<path d="M115.682 131.435H99.1835C98.117 131.435 97.2388 130.559 97.2388 129.495V113.034C97.2388 111.97 98.117 111.094 99.1835 111.094H115.682C116.748 111.094 117.627 111.97 117.627 113.034V129.495C117.627 130.559 116.748 131.435 115.682 131.435Z" fill="#77F169"/>
<path d="M67.0018 129.369C63.7397 129.369 60.4776 129.557 57.2155 129.682C55.5845 129.745 53.9535 129.807 52.3224 129.87H51.1305H50.5032C50.2523 129.87 50.0013 129.807 49.7504 129.745C48.7467 129.432 48.0566 128.431 48.0566 127.367C48.1194 124.112 48.3076 120.858 48.3703 117.603C48.3703 115.976 48.3703 114.348 48.3703 112.721V111.532V110.906C48.3703 110.656 48.3703 110.468 48.433 110.218C48.684 109.341 49.5622 108.653 50.5659 108.59C53.828 108.465 57.0901 108.403 60.3521 108.34L65.2453 108.277H66.4372H67.0645C67.3154 108.277 67.6291 108.34 67.88 108.403C68.9465 108.716 69.6992 109.78 69.6992 110.906C69.6992 114.161 69.6365 117.415 69.4483 120.67L69.1974 125.552C69.1974 125.927 69.1346 126.365 69.1346 126.741V127.367C69.1346 127.554 69.0719 127.805 69.0092 127.992C68.6328 128.806 67.88 129.369 67.0018 129.369ZM67.0018 129.244C67.8173 129.244 68.5701 128.681 68.7583 127.93C68.8837 127.554 68.821 127.179 68.821 126.741C68.821 126.365 68.821 125.927 68.7583 125.552L68.5073 120.67C68.3191 117.415 68.2564 114.161 68.2564 110.906C68.2564 110.343 67.88 109.842 67.3781 109.717C67.2527 109.654 67.1272 109.654 67.0018 109.654H66.3744H65.1825L60.2894 109.592C57.0273 109.529 53.7653 109.467 50.5032 109.341C49.8131 109.279 49.1231 109.78 48.9349 110.405C48.8722 110.593 48.8722 110.718 48.8094 110.906V111.532V112.721C48.8094 114.348 48.8094 115.976 48.8094 117.603C48.8722 120.858 49.0604 124.112 49.1231 127.367C49.1231 127.992 49.5622 128.493 50.1268 128.681C50.2523 128.744 50.3777 128.744 50.5659 128.744H51.1932H52.3852C54.0162 128.744 55.6472 128.806 57.2783 128.931C60.4776 129.056 63.7397 129.244 67.0018 129.244Z" fill="black"/>
<path d="M90.5892 129.369C87.3271 129.369 84.065 129.557 80.8029 129.682C79.1719 129.745 77.5409 129.807 75.9098 129.87H74.7179H74.0906C73.8397 129.87 73.5887 129.807 73.3378 129.745C72.3341 129.432 71.644 128.431 71.644 127.367C71.7068 124.112 71.895 120.858 71.9577 117.603C71.9577 115.976 71.9577 114.348 71.9577 112.721V111.532V110.906C71.9577 110.656 71.9577 110.468 72.0204 110.218C72.2714 109.341 73.1496 108.653 74.1533 108.59C77.4154 108.465 80.6775 108.403 83.9395 108.34L88.8326 108.277H90.0246H90.6519C90.9028 108.277 91.2165 108.34 91.4674 108.403C92.5338 108.716 93.2866 109.78 93.2866 110.906C93.2866 114.161 93.2239 117.415 93.0357 120.67L92.7848 125.552C92.7848 125.927 92.722 126.365 92.722 126.741V127.367C92.722 127.554 92.6593 127.805 92.5966 127.992C92.2829 128.806 91.4674 129.369 90.5892 129.369ZM90.5892 129.244C91.4047 129.244 92.1575 128.681 92.3457 127.93C92.4711 127.554 92.4084 127.179 92.4084 126.741C92.4084 126.365 92.4084 125.927 92.3457 125.552L92.0947 120.67C91.9065 117.415 91.8438 114.161 91.8438 110.906C91.8438 110.343 91.4674 109.842 90.9655 109.717C90.8401 109.654 90.7146 109.654 90.5892 109.654H89.9618H88.7699L83.8768 109.592C80.6147 109.529 77.3527 109.467 74.0906 109.341C73.4005 109.279 72.7105 109.78 72.5223 110.405C72.4596 110.593 72.4596 110.718 72.3968 110.906V111.532V112.721C72.3968 114.348 72.3968 115.976 72.3968 117.603C72.4596 120.858 72.6478 124.112 72.7105 127.367C72.7105 127.992 73.1496 128.493 73.7142 128.681C73.8397 128.744 73.9651 128.744 74.1533 128.744H74.7807H75.9726C77.6036 128.744 79.2346 128.806 80.8657 128.931C84.065 129.056 87.3271 129.244 90.5892 129.244Z" fill="black"/>
<path d="M114.177 129.369C110.914 129.369 107.652 129.557 104.39 129.682C102.759 129.745 101.128 129.807 99.4972 129.87H98.3053H97.678C97.4271 129.87 97.1761 129.807 96.9252 129.745C95.9215 129.432 95.2314 128.431 95.2314 127.367C95.2942 124.112 95.4824 120.858 95.5451 117.603C95.5451 115.976 95.5451 114.348 95.5451 112.721V111.532V110.906C95.5451 110.656 95.5451 110.468 95.6078 110.218C95.8588 109.341 96.737 108.653 97.7407 108.59C101.003 108.465 104.265 108.403 107.527 108.34L112.42 108.277H113.612H114.239C114.49 108.277 114.804 108.34 115.055 108.403C116.121 108.716 116.874 109.78 116.874 110.906C116.874 114.161 116.811 117.415 116.623 120.67L116.372 125.552C116.372 125.927 116.309 126.365 116.309 126.741V127.367C116.309 127.554 116.247 127.805 116.184 127.992C115.87 128.806 115.055 129.369 114.177 129.369ZM114.177 129.244C114.992 129.244 115.745 128.681 115.933 127.93C116.059 127.554 115.996 127.179 115.996 126.741C115.996 126.365 115.996 125.927 115.933 125.552L115.682 120.67C115.494 117.415 115.431 114.161 115.431 110.906C115.431 110.343 115.055 109.842 114.553 109.717C114.427 109.654 114.302 109.654 114.177 109.654H113.549H112.357L107.464 109.592C104.202 109.529 100.94 109.467 97.678 109.341C96.988 109.279 96.2979 109.78 96.1097 110.405C96.047 110.593 96.047 110.718 95.9842 110.906V111.532V112.721C95.9842 114.348 95.9842 115.976 95.9842 117.603C96.047 120.858 96.2352 124.112 96.2979 127.367C96.2979 127.992 96.737 128.493 97.3016 128.681C97.4271 128.744 97.5525 128.744 97.7407 128.744H98.3681H99.56C101.191 128.744 102.822 128.806 104.453 128.931C107.652 129.056 110.914 129.244 114.177 129.244Z" fill="black"/>
<path d="M68.4445 158.848H52.0087C50.9422 158.848 50.064 157.972 50.064 156.908V140.447C50.064 139.383 50.9422 138.507 52.0087 138.507H68.5072C69.5737 138.507 70.4519 139.383 70.4519 140.447V156.908C70.3892 157.972 69.5109 158.848 68.4445 158.848Z" fill="#0049E5"/>
<path d="M92.0316 158.848H75.5331C74.4666 158.848 73.5884 157.972 73.5884 156.908V140.447C73.5884 139.383 74.4666 138.507 75.5331 138.507H92.0316C93.0981 138.507 93.9763 139.383 93.9763 140.447V156.908C93.9763 157.972 93.1608 158.848 92.0316 158.848Z" fill="#FAE058"/>
<path d="M115.682 158.848H99.1835C98.117 158.848 97.2388 157.972 97.2388 156.908V140.447C97.2388 139.383 98.117 138.507 99.1835 138.507H115.682C116.748 138.507 117.627 139.383 117.627 140.447V156.908C117.627 157.972 116.748 158.848 115.682 158.848Z" fill="#FAE058"/>
<path d="M67.0018 156.783C63.7397 156.783 60.4776 156.97 57.2155 157.096C55.5845 157.158 53.9535 157.221 52.3224 157.283H51.1305H50.5032C50.2523 157.283 50.0013 157.221 49.7504 157.158C48.7467 156.845 48.0566 155.844 48.0566 154.78C48.1194 151.525 48.3076 148.271 48.3703 145.016C48.3703 143.389 48.3703 141.762 48.3703 140.134V138.945V138.319C48.3703 138.069 48.3703 137.881 48.433 137.631C48.684 136.755 49.5622 136.066 50.5659 136.004C53.828 135.878 57.0901 135.816 60.3521 135.753L65.2453 135.691H66.4372H67.0645C67.3154 135.691 67.6291 135.753 67.88 135.816C68.9465 136.129 69.6992 137.193 69.6992 138.319C69.6992 141.574 69.6365 144.828 69.4483 148.083L69.1974 152.965C69.1974 153.34 69.1346 153.778 69.1346 154.154V154.78C69.1346 154.968 69.0719 155.218 69.0092 155.406C68.6328 156.219 67.88 156.783 67.0018 156.783ZM67.0018 156.657C67.8173 156.657 68.5701 156.094 68.7583 155.343C68.8837 154.968 68.821 154.592 68.821 154.154C68.821 153.778 68.821 153.34 68.7583 152.965L68.5073 148.083C68.3191 144.828 68.2564 141.574 68.2564 138.319C68.2564 137.756 67.88 137.255 67.3781 137.13C67.2527 137.068 67.1272 137.068 67.0018 137.068H66.3744H65.1825L60.2894 137.005C57.0273 136.942 53.7653 136.88 50.5032 136.755C49.8131 136.692 49.1231 137.193 48.9349 137.819C48.8722 138.006 48.8722 138.132 48.8094 138.319V138.945V140.134C48.8094 141.762 48.8094 143.389 48.8094 145.016C48.8722 148.271 49.0604 151.525 49.1231 154.78C49.1231 155.406 49.5622 155.906 50.1268 156.094C50.2523 156.157 50.3777 156.157 50.5659 156.157H51.1932H52.3852C54.0162 156.157 55.6472 156.219 57.2783 156.344C60.4776 156.47 63.7397 156.657 67.0018 156.657Z" fill="black"/>
<path d="M90.5892 156.783C87.3271 156.783 84.065 156.97 80.8029 157.096C79.1719 157.158 77.5409 157.221 75.9098 157.283H74.7179H74.0906C73.8397 157.283 73.5887 157.221 73.3378 157.158C72.3341 156.845 71.644 155.844 71.644 154.78C71.7068 151.525 71.895 148.271 71.9577 145.016C71.9577 143.389 71.9577 141.762 71.9577 140.134V138.945V138.319C71.9577 138.069 71.9577 137.881 72.0204 137.631C72.2714 136.755 73.1496 136.066 74.1533 136.004C77.4154 135.878 80.6775 135.816 83.9395 135.753L88.8326 135.691H90.0246H90.6519C90.9028 135.691 91.2165 135.753 91.4674 135.816C92.5338 136.129 93.2866 137.193 93.2866 138.319C93.2866 141.574 93.2239 144.828 93.0357 148.083L92.7848 152.965C92.7848 153.34 92.722 153.778 92.722 154.154V154.78C92.722 154.968 92.6593 155.218 92.5966 155.406C92.2829 156.219 91.4674 156.783 90.5892 156.783ZM90.5892 156.657C91.4047 156.657 92.1575 156.094 92.3457 155.343C92.4711 154.968 92.4084 154.592 92.4084 154.154C92.4084 153.778 92.4084 153.34 92.3457 152.965L92.0947 148.083C91.9065 144.828 91.8438 141.574 91.8438 138.319C91.8438 137.756 91.4674 137.255 90.9655 137.13C90.8401 137.068 90.7146 137.068 90.5892 137.068H89.9618H88.7699L83.8768 137.005C80.6147 136.942 77.3527 136.88 74.0906 136.755C73.4005 136.692 72.7105 137.193 72.5223 137.819C72.4596 138.006 72.4596 138.132 72.3968 138.319V138.945V140.134C72.3968 141.762 72.3968 143.389 72.3968 145.016C72.4596 148.271 72.6478 151.525 72.7105 154.78C72.7105 155.406 73.1496 155.906 73.7142 156.094C73.8397 156.157 73.9651 156.157 74.1533 156.157H74.7807H75.9726C77.6036 156.157 79.2346 156.219 80.8657 156.344C84.065 156.47 87.3271 156.657 90.5892 156.657Z" fill="black"/>
<path d="M114.177 156.783C110.914 156.783 107.652 156.97 104.39 157.096C102.759 157.158 101.128 157.221 99.4972 157.283H98.3053H97.678C97.4271 157.283 97.1761 157.221 96.9252 157.158C95.9215 156.845 95.2314 155.844 95.2314 154.78C95.2942 151.525 95.4824 148.271 95.5451 145.016C95.5451 143.389 95.5451 141.762 95.5451 140.134V138.945V138.319C95.5451 138.069 95.5451 137.881 95.6078 137.631C95.8588 136.755 96.737 136.066 97.7407 136.004C101.003 135.878 104.265 135.816 107.527 135.753L112.42 135.691H113.612H114.239C114.49 135.691 114.804 135.753 115.055 135.816C116.121 136.129 116.874 137.193 116.874 138.319C116.874 141.574 116.811 144.828 116.623 148.083L116.309 152.965C116.309 153.34 116.247 153.778 116.247 154.154V154.78C116.247 154.968 116.184 155.218 116.121 155.406C115.87 156.219 115.055 156.783 114.177 156.783ZM114.177 156.657C114.992 156.657 115.745 156.094 115.933 155.343C116.059 154.968 115.996 154.592 115.996 154.154C115.996 153.778 115.996 153.34 115.933 152.965L115.682 148.083C115.494 144.828 115.431 141.574 115.431 138.319C115.431 137.756 115.055 137.255 114.553 137.13C114.427 137.068 114.302 137.068 114.177 137.068H113.549H112.357L107.464 137.005C104.202 136.942 100.94 136.88 97.678 136.755C96.988 136.692 96.2979 137.193 96.1097 137.819C96.047 138.006 96.047 138.132 95.9842 138.319V138.945V140.134C95.9842 141.762 95.9842 143.389 95.9842 145.016C96.047 148.271 96.2352 151.525 96.2979 154.78C96.2979 155.406 96.737 155.906 97.3016 156.094C97.4271 156.157 97.5525 156.157 97.7407 156.157H98.3681H99.56C101.191 156.157 102.822 156.219 104.453 156.344C107.652 156.47 110.914 156.657 114.177 156.657Z" fill="black"/>
<path d="M68.4445 186.261H52.0087C50.9422 186.261 50.064 185.385 50.064 184.321V167.861C50.064 166.797 50.9422 165.92 52.0087 165.92H68.5072C69.5737 165.92 70.4519 166.797 70.4519 167.861V184.321C70.3892 185.385 69.5109 186.261 68.4445 186.261Z" fill="#77F169"/>
<path d="M92.0316 186.261H75.5331C74.4666 186.261 73.5884 185.385 73.5884 184.321V167.861C73.5884 166.797 74.4666 165.92 75.5331 165.92H92.0316C93.0981 165.92 93.9763 166.797 93.9763 167.861V184.321C93.9763 185.385 93.1608 186.261 92.0316 186.261Z" fill="#0049E5"/>
<path d="M115.682 186.261H99.1835C98.117 186.261 97.2388 185.385 97.2388 184.321V167.861C97.2388 166.797 98.117 165.92 99.1835 165.92H115.682C116.748 165.92 117.627 166.797 117.627 167.861V184.321C117.627 185.385 116.748 186.261 115.682 186.261Z" fill="#77F169"/>
<path d="M67.0018 184.196C63.7397 184.196 60.4776 184.384 57.2155 184.509C55.5845 184.571 53.9535 184.634 52.3224 184.697H51.1305H50.5032C50.2523 184.697 50.0013 184.634 49.7504 184.571C48.7467 184.258 48.0566 183.257 48.0566 182.193C48.1194 178.939 48.3076 175.684 48.3703 172.429C48.3703 170.802 48.3703 169.175 48.3703 167.548V166.358V165.733C48.3703 165.482 48.3703 165.294 48.433 165.044C48.684 164.168 49.5622 163.479 50.5659 163.417C53.828 163.292 57.0901 163.229 60.3521 163.167L65.2453 163.104H66.4372H67.0645C67.3154 163.104 67.6291 163.167 67.88 163.229C68.9465 163.542 69.6992 164.606 69.6992 165.733C69.6992 168.987 69.6365 172.242 69.4483 175.496L69.1974 180.378C69.1974 180.754 69.1346 181.192 69.1346 181.567V182.193C69.1346 182.381 69.0719 182.631 69.0092 182.819C68.6328 183.633 67.88 184.196 67.0018 184.196ZM67.0018 184.071C67.8173 184.071 68.5701 183.507 68.7583 182.756C68.8837 182.381 68.821 182.005 68.821 181.567C68.821 181.192 68.821 180.754 68.7583 180.378L68.5073 175.496C68.3191 172.242 68.2564 168.987 68.2564 165.733C68.2564 165.169 67.88 164.669 67.3781 164.543C67.2527 164.481 67.1272 164.481 67.0018 164.481H66.3744H65.1825L60.2894 164.418C57.0273 164.356 53.7653 164.293 50.5032 164.168C49.8131 164.105 49.1231 164.606 48.9349 165.232C48.8722 165.42 48.8722 165.545 48.8094 165.733V166.358V167.548C48.8094 169.175 48.8094 170.802 48.8094 172.429C48.8722 175.684 49.0604 178.939 49.1231 182.193C49.1231 182.819 49.5622 183.32 50.1268 183.507C50.2523 183.57 50.3777 183.57 50.5659 183.57H51.1932H52.3852C54.0162 183.57 55.6472 183.633 57.2783 183.758C60.4776 183.883 63.7397 184.071 67.0018 184.071Z" fill="black"/>
<path d="M90.5892 184.196C87.3271 184.196 84.065 184.384 80.8029 184.509C79.1719 184.571 77.5409 184.634 75.9098 184.697H74.7179H74.0906C73.8397 184.697 73.5887 184.634 73.3378 184.571C72.3341 184.258 71.644 183.257 71.644 182.193C71.7068 178.939 71.895 175.684 71.9577 172.429C71.9577 170.802 71.9577 169.175 71.9577 167.548V166.358V165.733C71.9577 165.482 71.9577 165.294 72.0204 165.044C72.2714 164.168 73.1496 163.479 74.1533 163.417C77.4154 163.292 80.6775 163.229 83.9395 163.167L88.8326 163.104H90.0246H90.6519C90.9028 163.104 91.2165 163.167 91.4674 163.229C92.5338 163.542 93.2866 164.606 93.2866 165.733C93.2866 168.987 93.2239 172.242 93.0357 175.496L92.7848 180.378C92.7848 180.754 92.722 181.192 92.722 181.567V182.193C92.722 182.381 92.6593 182.631 92.5966 182.819C92.2829 183.633 91.4674 184.196 90.5892 184.196ZM90.5892 184.071C91.4047 184.071 92.1575 183.507 92.3457 182.756C92.4711 182.381 92.4084 182.005 92.4084 181.567C92.4084 181.192 92.4084 180.754 92.3457 180.378L92.0947 175.496C91.9065 172.242 91.8438 168.987 91.8438 165.733C91.8438 165.169 91.4674 164.669 90.9655 164.543C90.8401 164.481 90.7146 164.481 90.5892 164.481H89.9618H88.7699L83.8768 164.418C80.6147 164.356 77.3527 164.293 74.0906 164.168C73.4005 164.105 72.7105 164.606 72.5223 165.232C72.4596 165.42 72.4596 165.545 72.3968 165.733V166.358V167.548C72.3968 169.175 72.3968 170.802 72.3968 172.429C72.4596 175.684 72.6478 178.939 72.7105 182.193C72.7105 182.819 73.1496 183.32 73.7142 183.507C73.8397 183.57 73.9651 183.57 74.1533 183.57H74.7807H75.9726C77.6036 183.57 79.2346 183.633 80.8657 183.758C84.065 183.883 87.3271 184.071 90.5892 184.071Z" fill="black"/>
<path d="M114.177 184.196C110.914 184.196 107.652 184.384 104.39 184.509C102.759 184.571 101.128 184.634 99.4972 184.697H98.3053H97.678C97.4271 184.697 97.1761 184.634 96.9252 184.571C95.9215 184.258 95.2314 183.257 95.2314 182.193C95.2942 178.939 95.4824 175.684 95.5451 172.429C95.5451 170.802 95.5451 169.175 95.5451 167.548V166.358V165.733C95.5451 165.482 95.5451 165.294 95.6078 165.044C95.8588 164.168 96.737 163.479 97.7407 163.417C101.003 163.292 104.265 163.229 107.527 163.167L112.42 163.104H113.612H114.239C114.49 163.104 114.804 163.167 115.055 163.229C116.121 163.542 116.874 164.606 116.874 165.733C116.874 168.987 116.811 172.242 116.623 175.496L116.372 180.378C116.372 180.754 116.309 181.192 116.309 181.567V182.193C116.309 182.381 116.247 182.631 116.184 182.819C115.87 183.633 115.055 184.196 114.177 184.196ZM114.177 184.071C114.992 184.071 115.745 183.507 115.933 182.756C116.059 182.381 115.996 182.005 115.996 181.567C115.996 181.192 115.996 180.754 115.933 180.378L115.682 175.496C115.494 172.242 115.431 168.987 115.431 165.733C115.431 165.169 115.055 164.669 114.553 164.543C114.427 164.481 114.302 164.481 114.177 164.481H113.549H112.357L107.464 164.418C104.202 164.356 100.94 164.293 97.678 164.168C96.988 164.105 96.2979 164.606 96.1097 165.232C96.047 165.42 96.047 165.545 95.9842 165.733V166.358V167.548C95.9842 169.175 95.9842 170.802 95.9842 172.429C96.047 175.684 96.2352 178.939 96.2979 182.193C96.2979 182.819 96.737 183.32 97.3016 183.507C97.4271 183.57 97.5525 183.57 97.7407 183.57H98.3681H99.56C101.191 183.57 102.822 183.633 104.453 183.758C107.652 183.883 110.914 184.071 114.177 184.071Z" fill="black"/>
<path d="M126.844 220.056H45.6688C42.5322 220.056 40.0229 217.552 40.0229 214.423V53.6985C40.0229 50.5692 42.5322 48.0657 45.6688 48.0657H126.844C129.981 48.0657 132.49 50.5692 132.49 53.6985V214.36C132.49 217.49 129.981 220.056 126.844 220.056Z" fill="#0049E5"/>
<path d="M71.8279 68.1562C64.4882 68.1562 59.4697 68.1562 59.4697 68.1562L56.3958 61.2716L44.4767 61.96C44.4767 61.96 38.7053 206.412 44.4767 208.477C50.248 210.542 64.9273 209.791 64.9273 209.791L123.77 204.284V58.5803L113.545 57.7667C113.545 57.7667 107.021 68.1562 104.323 68.9698C101.626 69.7835 71.8279 68.1562 71.8279 68.1562Z" fill="#ECCEFF"/>
<path d="M124.586 222.872L92.0906 222.997L59.5954 223.185C54.2004 223.248 48.7427 223.248 43.3478 223.248C41.9049 223.248 40.3994 222.684 39.3329 221.683C38.2037 220.682 37.5137 219.305 37.3255 217.865C37.2627 217.114 37.2627 216.488 37.2627 215.8V213.797V209.729C37.2 198.901 37.2627 188.136 37.2627 177.308L37.4509 144.888L37.5137 128.678L37.5764 112.468C37.6391 101.64 37.5764 90.8754 37.5764 80.0478L37.5137 63.8377V59.7695V57.7667C37.5137 57.0782 37.4509 56.4524 37.5764 55.7013C37.7646 54.2618 38.4547 52.9475 39.5838 52.0087C40.6503 51.0699 42.0931 50.5066 43.536 50.5066L108.526 50.2562H124.774C126.28 50.2562 127.785 50.8821 128.914 51.8835C130.044 52.8849 130.796 54.2618 130.985 55.7639C131.047 56.515 131.047 57.2034 131.047 57.8919V59.8947V63.9628V96.3831C131.047 117.976 130.985 139.631 130.796 161.224L130.545 193.644L130.483 209.854V213.922V215.925C130.483 216.613 130.483 217.302 130.42 217.99C130.232 219.367 129.542 220.619 128.475 221.495C127.346 222.371 125.966 222.872 124.586 222.872ZM124.586 222.747C125.903 222.747 127.283 222.246 128.287 221.37C129.291 220.494 129.981 219.242 130.169 217.928C130.232 217.302 130.232 216.613 130.232 215.925V213.922V209.854L130.169 193.644L129.918 161.224C129.73 139.631 129.667 117.976 129.667 96.3831V63.9628V59.8947V57.8919C129.667 57.2034 129.667 56.515 129.604 55.9517C129.479 54.7625 128.852 53.6359 127.973 52.8223C127.095 52.0087 125.903 51.5706 124.711 51.508L108.464 51.4454L43.4105 51.1324C42.1558 51.1324 40.8385 51.5706 39.8975 52.4468C38.9565 53.2604 38.2665 54.4496 38.0783 55.7013C38.0155 56.3272 38.0155 57.0157 38.0155 57.7041V59.7069V63.7751L37.9528 79.9852C37.9528 90.8128 37.8901 101.578 37.9528 112.405L38.0155 128.616L38.0783 144.826L38.2665 177.246C38.2665 188.074 38.3292 198.839 38.2665 209.666V213.734V215.737C38.2665 216.426 38.2665 217.114 38.3292 217.677C38.4547 218.929 39.082 220.056 40.023 220.869C40.9639 221.683 42.1558 222.184 43.4105 222.184L59.6581 222.309L92.1534 222.559L124.586 222.747Z" fill="black"/>
<path d="M58.1525 59.7069L60.0972 62.7737L61.0382 64.2758C61.3519 64.7765 61.7282 65.2772 62.1674 65.5901C62.6065 65.9656 63.1711 66.216 63.7357 66.3412C64.3003 66.4663 64.9276 66.4663 65.4922 66.4663H69.0679C73.8983 66.4663 78.6659 66.4663 83.4963 66.4038L97.9247 66.2786H101.5H103.32C103.884 66.2786 104.449 66.1534 104.951 65.9031C105.453 65.6527 105.892 65.3398 106.268 64.9017C106.582 64.4635 106.895 63.9629 107.209 63.4622L109.091 60.3954L109.593 59.6443C109.781 59.394 109.969 59.081 110.22 58.8933C110.659 58.3926 111.224 58.0171 111.851 57.8293C112.479 57.5789 113.169 57.5164 113.796 57.5164H115.615H119.191C119.818 57.5164 120.508 57.5789 121.136 57.8293C121.763 58.0796 122.328 58.4552 122.829 58.8933C123.268 59.394 123.645 59.9573 123.896 60.5831C124.021 60.8961 124.084 61.209 124.147 61.5845C124.209 61.8975 124.209 62.273 124.209 62.5233V66.0908V73.2884C124.272 82.8642 124.209 92.5027 124.209 102.079L124.021 130.869L123.959 145.264L123.896 159.659C123.833 169.235 123.896 178.873 123.896 188.449L123.959 202.844V204.659C123.959 205.285 123.77 205.911 123.519 206.537C122.955 207.726 121.888 208.602 120.634 208.915C120.006 209.103 119.316 209.103 118.752 209.103H116.933H113.357L55.6432 209.353H48.429C47.0489 209.291 45.7316 208.665 44.8533 207.538C44.4142 206.975 44.1005 206.349 43.9123 205.723C43.8496 205.41 43.7869 205.035 43.7869 204.722C43.7869 204.409 43.7869 204.096 43.7869 203.783L43.7241 189.388V160.598C43.7241 141.383 43.7869 122.232 43.9751 103.017L44.226 74.2272L44.2887 67.0296V63.4622C44.2887 62.8363 44.2887 62.273 44.3514 61.6471C44.4142 61.0212 44.6651 60.458 44.9788 59.8947C45.6061 58.8307 46.7353 58.0796 47.9899 57.9545C48.6172 57.8919 49.1818 57.8919 49.8091 57.8919H51.6284H53.4476C54.0749 57.8919 54.6395 57.8293 55.2668 57.9545C56.396 57.8919 57.4625 58.6429 58.1525 59.7069ZM58.0271 59.7695C57.3997 58.7681 56.3333 58.0796 55.1414 57.8919C54.5768 57.8293 53.9495 57.8919 53.3221 57.8293H51.5029H49.6837C49.0564 57.8293 48.4918 57.8293 47.9272 57.8919C46.7353 58.0796 45.6688 58.7681 45.1042 59.7695C44.7906 60.2702 44.6024 60.8335 44.5396 61.3968C44.4769 61.9601 44.5396 62.5859 44.5396 63.1492V66.7167L44.6024 73.9142L44.8533 102.704C45.0415 121.919 45.1042 141.07 45.1042 160.285V189.075L45.0415 203.47C45.0415 203.783 45.0415 204.096 45.0415 204.346C45.0415 204.597 45.1042 204.847 45.167 205.097C45.2924 205.598 45.5434 206.036 45.857 206.474C46.4843 207.288 47.4881 207.788 48.4918 207.851H55.706L113.42 208.101H116.995H118.814C119.442 208.101 120.006 208.101 120.508 207.976C121.575 207.726 122.516 206.912 123.018 205.911C123.268 205.41 123.394 204.847 123.394 204.284V202.469L123.457 188.073C123.457 178.498 123.519 168.859 123.457 159.283L123.394 144.888L123.331 130.493L123.143 101.703C123.143 92.1271 123.08 82.4887 123.143 72.9128V65.7153V62.1478C123.143 61.8349 123.143 61.5845 123.08 61.3342C123.018 61.0838 123.018 60.8335 122.892 60.5831C122.704 60.0824 122.453 59.6443 122.077 59.2688C121.324 58.5178 120.32 58.0796 119.191 58.1422H115.615H113.796C113.231 58.1422 112.667 58.2048 112.165 58.3926C111.663 58.5803 111.161 58.8933 110.785 59.2688C110.597 59.4566 110.408 59.6443 110.283 59.8947L109.781 60.6457L107.836 63.6499C107.523 64.1506 107.209 64.6513 106.77 65.152C106.331 65.6527 105.829 66.0282 105.202 66.3412C104.637 66.5915 103.947 66.7793 103.32 66.7793H101.5H97.9247L83.4963 66.6541C78.6659 66.5915 73.8983 66.5915 69.0679 66.5915H65.4922C64.9276 66.5915 64.3003 66.6541 63.6729 66.4663C63.0456 66.3412 62.481 66.0908 62.0419 65.7153C61.5401 65.3398 61.1637 64.8391 60.85 64.3384L59.909 62.8363L58.0271 59.7695Z" fill="black"/>
<path d="M85.0019 58.5803C85.0019 59.5817 85.5665 60.5205 86.3193 61.0212C87.0721 61.5219 87.8876 61.8349 88.7659 61.8974C89.6441 61.96 90.6478 61.8349 91.3379 61.1464C92.0279 60.5205 92.4043 59.5191 92.2789 58.5803C92.1534 57.6415 91.7143 56.8905 91.087 56.2646C90.4596 55.7013 89.6441 55.3884 88.7659 55.3884C87.9503 55.3884 87.1348 55.6387 86.3193 56.1394C85.6293 56.7027 85.0019 57.5789 85.0019 58.5803ZM84.8765 58.5803C84.8765 57.5789 85.1274 56.5149 85.7547 55.5761C86.382 54.6373 87.574 54.074 88.7659 54.074C89.9578 54.074 91.1497 54.5747 91.9025 55.451C92.718 56.2646 93.0944 57.5163 92.9689 58.5803C92.8435 59.7069 92.3416 60.6457 91.6516 61.4593C90.9615 62.2104 89.9578 62.8988 88.7659 62.9614C88.2013 63.024 87.6367 62.8988 87.0721 62.6485C86.5702 62.3981 86.0684 62.0226 85.7547 61.5845C85.1274 60.7083 84.9392 59.5817 84.8765 58.5803Z" fill="black"/>
<path d="M75.4668 58.5803C75.4668 59.2688 75.9059 59.8946 76.4705 60.2076C77.0351 60.5205 77.5369 60.6457 78.1015 60.7709C78.6661 60.8335 79.3562 60.8335 79.858 60.3328C80.3599 59.8946 80.5481 59.2062 80.4226 58.5803C80.2971 57.9544 79.9835 57.4537 79.5444 57.0782C79.1052 56.7027 78.6034 56.5775 78.0388 56.5149C77.5369 56.5149 76.9723 56.6401 76.4078 56.953C75.9059 57.266 75.4668 57.8918 75.4668 58.5803ZM75.3413 58.5803C75.3413 57.8918 75.4668 57.0782 75.9059 56.3898C76.1568 56.0768 76.4705 55.7639 76.8469 55.5135C77.2233 55.3258 77.6624 55.2006 78.1015 55.2006C78.9798 55.2006 79.858 55.5761 80.4226 56.2646C80.9872 56.8905 81.2381 57.7667 81.1127 58.5803C80.9872 59.3939 80.6108 60.0824 80.109 60.6457C79.6071 61.209 78.917 61.7097 78.0388 61.8349C77.2233 61.96 76.2823 61.5219 75.8432 60.8335C75.4668 60.0824 75.3413 59.3314 75.3413 58.5803Z" fill="black"/>
<path d="M143.907 110.09C147.649 110.09 150.682 107.063 150.682 103.33C150.682 99.5971 147.649 96.5708 143.907 96.5708C140.166 96.5708 137.132 99.5971 137.132 103.33C137.132 107.063 140.166 110.09 143.907 110.09Z" fill="#ECCEFF"/>
<path d="M92.0277 34.6094C93.8293 34.6094 95.2898 33.1523 95.2898 31.3549C95.2898 29.5574 93.8293 28.1003 92.0277 28.1003C90.2261 28.1003 88.7656 29.5574 88.7656 31.3549C88.7656 33.1523 90.2261 34.6094 92.0277 34.6094Z" fill="#0049E5"/>
<path d="M138.199 49.1296C141.352 49.1296 143.907 46.5797 143.907 43.4342C143.907 40.2887 141.352 37.7387 138.199 37.7387C135.046 37.7387 132.49 40.2887 132.49 43.4342C132.49 46.5797 135.046 49.1296 138.199 49.1296Z" fill="#FAE058"/>
<path d="M56.3959 13.6426C57.4699 13.6426 58.3406 12.774 58.3406 11.7024C58.3406 10.6309 57.4699 9.76221 56.3959 9.76221C55.3218 9.76221 54.4512 10.6309 54.4512 11.7024C54.4512 12.774 55.3218 13.6426 56.3959 13.6426Z" fill="#ECCEFF"/>
<path d="M7.71583 103.33C11.2151 103.33 14.0518 100.5 14.0518 97.0089C14.0518 93.5178 11.2151 90.6876 7.71583 90.6876C4.21658 90.6876 1.37988 93.5178 1.37988 97.0089C1.37988 100.5 4.21658 103.33 7.71583 103.33Z" fill="#77F169"/>
<path d="M24.0887 139.381C25.232 139.381 26.1589 138.456 26.1589 137.315C26.1589 136.174 25.232 135.25 24.0887 135.25C22.9454 135.25 22.0186 136.174 22.0186 137.315C22.0186 138.456 22.9454 139.381 24.0887 139.381Z" fill="#ECCEFF"/>
<path d="M25.0926 63.0866C28.4879 63.0866 31.2403 60.3405 31.2403 56.953C31.2403 53.5656 28.4879 50.8195 25.0926 50.8195C21.6973 50.8195 18.9448 53.5656 18.9448 56.953C18.9448 60.3405 21.6973 63.0866 25.0926 63.0866Z" fill="#ECCEFF"/>
<path d="M137.132 173.553C138.761 173.553 140.081 172.236 140.081 170.612C140.081 168.987 138.761 167.67 137.132 167.67C135.504 167.67 134.184 168.987 134.184 170.612C134.184 172.236 135.504 173.553 137.132 173.553Z" fill="#FAE058"/>
<path d="M100.81 13.6426C103.824 13.6426 106.268 11.2048 106.268 8.19754C106.268 5.19029 103.824 2.75244 100.81 2.75244C97.796 2.75244 95.3525 5.19029 95.3525 8.19754C95.3525 11.2048 97.796 13.6426 100.81 13.6426Z" fill="#ECCEFF"/>
<path d="M51.5027 37.9891C54.2398 37.9891 56.4586 35.7754 56.4586 33.0447C56.4586 30.314 54.2398 28.1003 51.5027 28.1003C48.7657 28.1003 46.5469 30.314 46.5469 33.0447C46.5469 35.7754 48.7657 37.9891 51.5027 37.9891Z" fill="#FAE058"/>
<path d="M111.726 61.8349C111.601 62.8988 111.663 64.0254 111.726 65.0894C111.726 65.3397 111.789 65.6527 111.851 65.8404C111.789 65.903 112.102 65.9656 112.353 65.9656C112.855 66.0282 113.42 66.0282 113.984 66.0282C116.18 66.0282 118.376 66.0908 120.571 65.903L120.446 66.0282C120.446 65.4023 120.383 64.7765 120.383 64.1506V63.9628H120.571L121.449 63.9002L121.199 64.1506L121.136 62.3981L121.449 62.7111H120.258H120.007V62.3981C119.944 61.8974 119.881 61.3342 119.818 60.8335L120.132 61.1464C118.689 61.0212 117.184 60.9586 115.741 60.896C114.988 60.896 114.235 60.8335 113.545 60.9586C113.169 61.0212 112.792 61.0838 112.479 61.209C112.102 61.2716 111.789 61.5219 111.726 61.8349ZM111.663 61.8349C111.663 61.3967 112.102 61.209 112.416 61.0212C112.792 60.896 113.106 60.7709 113.482 60.7083C114.235 60.5205 114.988 60.4579 115.741 60.3953C117.246 60.2702 118.752 60.3328 120.258 60.4579H120.509V60.7083C120.571 61.209 120.571 61.7723 120.634 62.3356L120.32 62.0852H121.512H121.826V62.3356L121.763 64.088V64.3383H121.512L120.634 64.2758L120.822 64.088C120.822 64.7139 120.759 65.3397 120.759 65.9656V66.0908H120.634C119.505 66.1534 118.438 66.216 117.309 66.3411C116.18 66.4663 115.114 66.5915 113.984 66.5915C113.42 66.5915 112.855 66.5915 112.291 66.4663C112.165 66.4663 111.977 66.4037 111.851 66.3411C111.789 66.3411 111.663 66.2786 111.601 66.216C111.538 66.1534 111.475 66.1534 111.475 66.0282C111.475 65.9656 111.475 65.9656 111.412 65.903C111.35 65.5901 111.35 65.3397 111.35 65.0268C111.475 64.0254 111.601 62.9614 111.663 61.8349Z" fill="black"/>
<path d="M116.682 60.6457V66.3412C116.682 66.3412 112.541 66.5915 111.663 66.0908V62.1478C111.663 62.1478 111.35 61.1464 113.169 60.9587C114.988 60.7709 116.682 60.6457 116.682 60.6457Z" fill="black"/>
<path d="M46.6098 65.0894C46.6098 65.0894 46.1079 67.7807 46.6098 67.8432C47.1116 67.9684 48.4917 67.8432 48.4917 67.8432L48.6172 64.8391L46.6098 65.0894Z" fill="black"/>
<path d="M49.1191 67.7181L49.3073 63.7125H51.252V67.9058L49.1191 67.7181Z" fill="black"/>
<path d="M52.0679 67.9058L52.3815 62.0852L54.7026 61.8349L55.0163 67.7181L52.0679 67.9058Z" fill="black"/>
<path d="M69.4445 106.022H53.0087C51.9422 106.022 51.064 105.145 51.064 104.081V87.6209C51.064 86.5569 51.9422 85.6807 53.0087 85.6807H69.5072C70.5737 85.6807 71.4519 86.5569 71.4519 87.6209V104.081C71.3892 105.145 70.5109 106.022 69.4445 106.022Z" fill="#0049E5"/>
<path d="M93.0316 106.022H76.5331C75.4666 106.022 74.5884 105.145 74.5884 104.081V87.6209C74.5884 86.5569 75.4666 85.6807 76.5331 85.6807H93.0316C94.0981 85.6807 94.9763 86.5569 94.9763 87.6209V104.081C94.9763 105.145 94.1608 106.022 93.0316 106.022Z" fill="#FAE058"/>
<path d="M116.682 106.022H100.183C99.117 106.022 98.2388 105.145 98.2388 104.081V87.6209C98.2388 86.5569 99.117 85.6807 100.183 85.6807H116.682C117.748 85.6807 118.627 86.5569 118.627 87.6209V104.081C118.627 105.145 117.748 106.022 116.682 106.022Z" fill="#77F169"/>
<path d="M68.0018 103.956C64.7397 103.956 61.4776 104.144 58.2155 104.269C56.5845 104.332 54.9535 104.394 53.3224 104.457H52.1305H51.5032C51.2523 104.457 51.0013 104.394 50.7504 104.332C49.7467 104.019 49.0566 103.017 49.0566 101.953C49.1194 98.6988 49.3076 95.4443 49.3703 92.1897C49.3703 90.5625 49.3703 88.9352 49.3703 87.3079V86.1188V85.4929C49.3703 85.2425 49.3703 85.0548 49.433 84.8044C49.684 83.9282 50.5622 83.2398 51.5659 83.1772C54.828 83.052 58.0901 82.9894 61.3521 82.9268L66.2453 82.8642H67.4372H68.0645C68.3154 82.8642 68.6291 82.9268 68.88 82.9894C69.9465 83.3023 70.6992 84.3663 70.6992 85.4929C70.6992 88.7474 70.6365 92.002 70.4483 95.2565L70.1974 100.138C70.1974 100.514 70.1346 100.952 70.1346 101.327V101.953C70.1346 102.141 70.0719 102.391 70.0092 102.579C69.6328 103.393 68.88 103.956 68.0018 103.956ZM68.0018 103.831C68.8173 103.831 69.5701 103.268 69.7583 102.517C69.8837 102.141 69.821 101.766 69.821 101.327C69.821 100.952 69.821 100.514 69.7583 100.138L69.5073 95.2565C69.3191 92.002 69.2564 88.7474 69.2564 85.4929C69.2564 84.9296 68.88 84.4289 68.3781 84.3037C68.2527 84.2412 68.1272 84.2411 68.0018 84.2411H67.3744H66.1825L61.2894 84.1786C58.0273 84.116 54.7653 84.0534 51.5032 83.9282C50.8131 83.8656 50.1231 84.3663 49.9349 84.9922C49.8722 85.18 49.8722 85.3051 49.8094 85.4929V86.1188V87.3079C49.8094 88.9352 49.8094 90.5625 49.8094 92.1897C49.8722 95.4443 50.0604 98.6988 50.1231 101.953C50.1231 102.579 50.5622 103.08 51.1268 103.268C51.2523 103.33 51.3777 103.33 51.5659 103.33H52.1932H53.3852C55.0162 103.33 56.6472 103.393 58.2783 103.518C61.4776 103.643 64.7397 103.831 68.0018 103.831Z" fill="black"/>
<path d="M91.5892 103.956C88.3271 103.956 85.065 104.144 81.8029 104.269C80.1719 104.332 78.5409 104.394 76.9098 104.457H75.7179H75.0906C74.8397 104.457 74.5887 104.394 74.3378 104.332C73.3341 104.019 72.644 103.017 72.644 101.953C72.7068 98.6988 72.895 95.4443 72.9577 92.1897C72.9577 90.5625 72.9577 88.9352 72.9577 87.3079V86.1188V85.4929C72.9577 85.2425 72.9577 85.0548 73.0204 84.8044C73.2714 83.9282 74.1496 83.2398 75.1533 83.1772C78.4154 83.052 81.6775 82.9894 84.9395 82.9268L89.8326 82.8642H91.0246H91.6519C91.9028 82.8642 92.2165 82.9268 92.4674 82.9894C93.5338 83.3023 94.2866 84.3663 94.2866 85.4929C94.2866 88.7474 94.2239 92.002 94.0357 95.2565L93.7848 100.138C93.7848 100.514 93.722 100.952 93.722 101.327V101.953C93.722 102.141 93.6593 102.391 93.5966 102.579C93.2829 103.393 92.4674 103.956 91.5892 103.956ZM91.5892 103.831C92.4047 103.831 93.1575 103.268 93.3457 102.517C93.4711 102.141 93.4084 101.766 93.4084 101.327C93.4084 100.952 93.4084 100.514 93.3457 100.138L93.0947 95.2565C92.9065 92.002 92.8438 88.7474 92.8438 85.4929C92.8438 84.9296 92.4674 84.4289 91.9655 84.3037C91.8401 84.2412 91.7146 84.2411 91.5892 84.2411H90.9618H89.7699L84.8768 84.1786C81.6147 84.116 78.3527 84.0534 75.0906 83.9282C74.4005 83.8656 73.7105 84.3663 73.5223 84.9922C73.4596 85.18 73.4596 85.3051 73.3968 85.4929V86.1188V87.3079C73.3968 88.9352 73.3968 90.5625 73.3968 92.1897C73.4596 95.4443 73.6478 98.6988 73.7105 101.953C73.7105 102.579 74.1496 103.08 74.7142 103.268C74.8397 103.33 74.9651 103.33 75.1533 103.33H75.7807H76.9726C78.6036 103.33 80.2346 103.393 81.8657 103.518C85.065 103.643 88.3271 103.831 91.5892 103.831Z" fill="black"/>
<path d="M115.177 103.956C111.914 103.956 108.652 104.144 105.39 104.269C103.759 104.332 102.128 104.394 100.497 104.457H99.3053H98.678C98.4271 104.457 98.1761 104.394 97.9252 104.332C96.9215 104.019 96.2314 103.017 96.2314 101.953C96.2942 98.6988 96.4824 95.4443 96.5451 92.1897C96.5451 90.5625 96.5451 88.9352 96.5451 87.3079V86.1188V85.4929C96.5451 85.2425 96.5451 85.0548 96.6078 84.8044C96.8588 83.9282 97.737 83.2398 98.7407 83.1772C102.003 83.052 105.265 82.9894 108.527 82.9268L113.42 82.8642H114.612H115.239C115.49 82.8642 115.804 82.9268 116.055 82.9894C117.121 83.3023 117.874 84.3663 117.874 85.4929C117.874 88.7474 117.811 92.002 117.623 95.2565L117.372 100.138C117.372 100.514 117.309 100.952 117.309 101.327V101.953C117.309 102.141 117.247 102.391 117.184 102.579C116.87 103.393 116.055 103.956 115.177 103.956ZM115.177 103.831C115.992 103.831 116.745 103.268 116.933 102.517C117.059 102.141 116.996 101.766 116.996 101.327C116.996 100.952 116.996 100.514 116.933 100.138L116.682 95.2565C116.494 92.002 116.431 88.7474 116.431 85.4929C116.431 84.9296 116.055 84.4289 115.553 84.3037C115.427 84.2412 115.302 84.2411 115.177 84.2411H114.549H113.357L108.464 84.1786C105.202 84.116 101.94 84.0534 98.678 83.9282C97.988 83.8656 97.2979 84.3663 97.1097 84.9922C97.047 85.18 97.047 85.3051 96.9842 85.4929V86.1188V87.3079C96.9842 88.9352 96.9842 90.5625 96.9842 92.1897C97.047 95.4443 97.2352 98.6988 97.2979 101.953C97.2979 102.579 97.737 103.08 98.3016 103.268C98.4271 103.33 98.5525 103.33 98.7407 103.33H99.3681H100.56C102.191 103.33 103.822 103.393 105.453 103.518C108.652 103.643 111.914 103.831 115.177 103.831Z" fill="black"/>
<path d="M69.4445 133.435H53.0087C51.9422 133.435 51.064 132.559 51.064 131.495V115.034C51.064 113.97 51.9422 113.094 53.0087 113.094H69.5072C70.5737 113.094 71.4519 113.97 71.4519 115.034V131.495C71.3892 132.559 70.5109 133.435 69.4445 133.435Z" fill="#77F169"/>
<path d="M93.0316 133.435H76.5331C75.4666 133.435 74.5884 132.559 74.5884 131.495V115.034C74.5884 113.97 75.4666 113.094 76.5331 113.094H93.0316C94.0981 113.094 94.9763 113.97 94.9763 115.034V131.495C94.9763 132.559 94.1608 133.435 93.0316 133.435Z" fill="#0049E5"/>
<path d="M116.682 133.435H100.183C99.117 133.435 98.2388 132.559 98.2388 131.495V115.034C98.2388 113.97 99.117 113.094 100.183 113.094H116.682C117.748 113.094 118.627 113.97 118.627 115.034V131.495C118.627 132.559 117.748 133.435 116.682 133.435Z" fill="#77F169"/>
<path d="M68.0018 131.369C64.7397 131.369 61.4776 131.557 58.2155 131.682C56.5845 131.745 54.9535 131.807 53.3224 131.87H52.1305H51.5032C51.2523 131.87 51.0013 131.807 50.7504 131.745C49.7467 131.432 49.0566 130.431 49.0566 129.367C49.1194 126.112 49.3076 122.858 49.3703 119.603C49.3703 117.976 49.3703 116.348 49.3703 114.721V113.532V112.906C49.3703 112.656 49.3703 112.468 49.433 112.218C49.684 111.341 50.5622 110.653 51.5659 110.59C54.828 110.465 58.0901 110.403 61.3521 110.34L66.2453 110.277H67.4372H68.0645C68.3154 110.277 68.6291 110.34 68.88 110.403C69.9465 110.716 70.6992 111.78 70.6992 112.906C70.6992 116.161 70.6365 119.415 70.4483 122.67L70.1974 127.552C70.1974 127.927 70.1346 128.365 70.1346 128.741V129.367C70.1346 129.554 70.0719 129.805 70.0092 129.992C69.6328 130.806 68.88 131.369 68.0018 131.369ZM68.0018 131.244C68.8173 131.244 69.5701 130.681 69.7583 129.93C69.8837 129.554 69.821 129.179 69.821 128.741C69.821 128.365 69.821 127.927 69.7583 127.552L69.5073 122.67C69.3191 119.415 69.2564 116.161 69.2564 112.906C69.2564 112.343 68.88 111.842 68.3781 111.717C68.2527 111.654 68.1272 111.654 68.0018 111.654H67.3744H66.1825L61.2894 111.592C58.0273 111.529 54.7653 111.467 51.5032 111.341C50.8131 111.279 50.1231 111.78 49.9349 112.405C49.8722 112.593 49.8722 112.718 49.8094 112.906V113.532V114.721C49.8094 116.348 49.8094 117.976 49.8094 119.603C49.8722 122.858 50.0604 126.112 50.1231 129.367C50.1231 129.992 50.5622 130.493 51.1268 130.681C51.2523 130.744 51.3777 130.744 51.5659 130.744H52.1932H53.3852C55.0162 130.744 56.6472 130.806 58.2783 130.931C61.4776 131.056 64.7397 131.244 68.0018 131.244Z" fill="black"/>
<path d="M91.5892 131.369C88.3271 131.369 85.065 131.557 81.8029 131.682C80.1719 131.745 78.5409 131.807 76.9098 131.87H75.7179H75.0906C74.8397 131.87 74.5887 131.807 74.3378 131.745C73.3341 131.432 72.644 130.431 72.644 129.367C72.7068 126.112 72.895 122.858 72.9577 119.603C72.9577 117.976 72.9577 116.348 72.9577 114.721V113.532V112.906C72.9577 112.656 72.9577 112.468 73.0204 112.218C73.2714 111.341 74.1496 110.653 75.1533 110.59C78.4154 110.465 81.6775 110.403 84.9395 110.34L89.8326 110.277H91.0246H91.6519C91.9028 110.277 92.2165 110.34 92.4674 110.403C93.5338 110.716 94.2866 111.78 94.2866 112.906C94.2866 116.161 94.2239 119.415 94.0357 122.67L93.7848 127.552C93.7848 127.927 93.722 128.365 93.722 128.741V129.367C93.722 129.554 93.6593 129.805 93.5966 129.992C93.2829 130.806 92.4674 131.369 91.5892 131.369ZM91.5892 131.244C92.4047 131.244 93.1575 130.681 93.3457 129.93C93.4711 129.554 93.4084 129.179 93.4084 128.741C93.4084 128.365 93.4084 127.927 93.3457 127.552L93.0947 122.67C92.9065 119.415 92.8438 116.161 92.8438 112.906C92.8438 112.343 92.4674 111.842 91.9655 111.717C91.8401 111.654 91.7146 111.654 91.5892 111.654H90.9618H89.7699L84.8768 111.592C81.6147 111.529 78.3527 111.467 75.0906 111.341C74.4005 111.279 73.7105 111.78 73.5223 112.405C73.4596 112.593 73.4596 112.718 73.3968 112.906V113.532V114.721C73.3968 116.348 73.3968 117.976 73.3968 119.603C73.4596 122.858 73.6478 126.112 73.7105 129.367C73.7105 129.992 74.1496 130.493 74.7142 130.681C74.8397 130.744 74.9651 130.744 75.1533 130.744H75.7807H76.9726C78.6036 130.744 80.2346 130.806 81.8657 130.931C85.065 131.056 88.3271 131.244 91.5892 131.244Z" fill="black"/>
<path d="M115.177 131.369C111.914 131.369 108.652 131.557 105.39 131.682C103.759 131.745 102.128 131.807 100.497 131.87H99.3053H98.678C98.4271 131.87 98.1761 131.807 97.9252 131.745C96.9215 131.432 96.2314 130.431 96.2314 129.367C96.2942 126.112 96.4824 122.858 96.5451 119.603C96.5451 117.976 96.5451 116.348 96.5451 114.721V113.532V112.906C96.5451 112.656 96.5451 112.468 96.6078 112.218C96.8588 111.341 97.737 110.653 98.7407 110.59C102.003 110.465 105.265 110.403 108.527 110.34L113.42 110.277H114.612H115.239C115.49 110.277 115.804 110.34 116.055 110.403C117.121 110.716 117.874 111.78 117.874 112.906C117.874 116.161 117.811 119.415 117.623 122.67L117.372 127.552C117.372 127.927 117.309 128.365 117.309 128.741V129.367C117.309 129.554 117.247 129.805 117.184 129.992C116.87 130.806 116.055 131.369 115.177 131.369ZM115.177 131.244C115.992 131.244 116.745 130.681 116.933 129.93C117.059 129.554 116.996 129.179 116.996 128.741C116.996 128.365 116.996 127.927 116.933 127.552L116.682 122.67C116.494 119.415 116.431 116.161 116.431 112.906C116.431 112.343 116.055 111.842 115.553 111.717C115.427 111.654 115.302 111.654 115.177 111.654H114.549H113.357L108.464 111.592C105.202 111.529 101.94 111.467 98.678 111.341C97.988 111.279 97.2979 111.78 97.1097 112.405C97.047 112.593 97.047 112.718 96.9842 112.906V113.532V114.721C96.9842 116.348 96.9842 117.976 96.9842 119.603C97.047 122.858 97.2352 126.112 97.2979 129.367C97.2979 129.992 97.737 130.493 98.3016 130.681C98.4271 130.744 98.5525 130.744 98.7407 130.744H99.3681H100.56C102.191 130.744 103.822 130.806 105.453 130.931C108.652 131.056 111.914 131.244 115.177 131.244Z" fill="black"/>
<path d="M69.4445 160.848H53.0087C51.9422 160.848 51.064 159.972 51.064 158.908V142.447C51.064 141.383 51.9422 140.507 53.0087 140.507H69.5072C70.5737 140.507 71.4519 141.383 71.4519 142.447V158.908C71.3892 159.972 70.5109 160.848 69.4445 160.848Z" fill="#0049E5"/>
<path d="M93.0316 160.848H76.5331C75.4666 160.848 74.5884 159.972 74.5884 158.908V142.447C74.5884 141.383 75.4666 140.507 76.5331 140.507H93.0316C94.0981 140.507 94.9763 141.383 94.9763 142.447V158.908C94.9763 159.972 94.1608 160.848 93.0316 160.848Z" fill="#FAE058"/>
<path d="M116.682 160.848H100.183C99.117 160.848 98.2388 159.972 98.2388 158.908V142.447C98.2388 141.383 99.117 140.507 100.183 140.507H116.682C117.748 140.507 118.627 141.383 118.627 142.447V158.908C118.627 159.972 117.748 160.848 116.682 160.848Z" fill="#FAE058"/>
<path d="M68.0018 158.783C64.7397 158.783 61.4776 158.97 58.2155 159.096C56.5845 159.158 54.9535 159.221 53.3224 159.283H52.1305H51.5032C51.2523 159.283 51.0013 159.221 50.7504 159.158C49.7467 158.845 49.0566 157.844 49.0566 156.78C49.1194 153.525 49.3076 150.271 49.3703 147.016C49.3703 145.389 49.3703 143.762 49.3703 142.134V140.945V140.319C49.3703 140.069 49.3703 139.881 49.433 139.631C49.684 138.755 50.5622 138.066 51.5659 138.004C54.828 137.878 58.0901 137.816 61.3521 137.753L66.2453 137.691H67.4372H68.0645C68.3154 137.691 68.6291 137.753 68.88 137.816C69.9465 138.129 70.6992 139.193 70.6992 140.319C70.6992 143.574 70.6365 146.828 70.4483 150.083L70.1974 154.965C70.1974 155.34 70.1346 155.778 70.1346 156.154V156.78C70.1346 156.968 70.0719 157.218 70.0092 157.406C69.6328 158.219 68.88 158.783 68.0018 158.783ZM68.0018 158.657C68.8173 158.657 69.5701 158.094 69.7583 157.343C69.8837 156.968 69.821 156.592 69.821 156.154C69.821 155.778 69.821 155.34 69.7583 154.965L69.5073 150.083C69.3191 146.828 69.2564 143.574 69.2564 140.319C69.2564 139.756 68.88 139.255 68.3781 139.13C68.2527 139.068 68.1272 139.068 68.0018 139.068H67.3744H66.1825L61.2894 139.005C58.0273 138.942 54.7653 138.88 51.5032 138.755C50.8131 138.692 50.1231 139.193 49.9349 139.819C49.8722 140.006 49.8722 140.132 49.8094 140.319V140.945V142.134C49.8094 143.762 49.8094 145.389 49.8094 147.016C49.8722 150.271 50.0604 153.525 50.1231 156.78C50.1231 157.406 50.5622 157.906 51.1268 158.094C51.2523 158.157 51.3777 158.157 51.5659 158.157H52.1932H53.3852C55.0162 158.157 56.6472 158.219 58.2783 158.344C61.4776 158.47 64.7397 158.657 68.0018 158.657Z" fill="black"/>
<path d="M91.5892 158.783C88.3271 158.783 85.065 158.97 81.8029 159.096C80.1719 159.158 78.5409 159.221 76.9098 159.283H75.7179H75.0906C74.8397 159.283 74.5887 159.221 74.3378 159.158C73.3341 158.845 72.644 157.844 72.644 156.78C72.7068 153.525 72.895 150.271 72.9577 147.016C72.9577 145.389 72.9577 143.762 72.9577 142.134V140.945V140.319C72.9577 140.069 72.9577 139.881 73.0204 139.631C73.2714 138.755 74.1496 138.066 75.1533 138.004C78.4154 137.878 81.6775 137.816 84.9395 137.753L89.8326 137.691H91.0246H91.6519C91.9028 137.691 92.2165 137.753 92.4674 137.816C93.5338 138.129 94.2866 139.193 94.2866 140.319C94.2866 143.574 94.2239 146.828 94.0357 150.083L93.7848 154.965C93.7848 155.34 93.722 155.778 93.722 156.154V156.78C93.722 156.968 93.6593 157.218 93.5966 157.406C93.2829 158.219 92.4674 158.783 91.5892 158.783ZM91.5892 158.657C92.4047 158.657 93.1575 158.094 93.3457 157.343C93.4711 156.968 93.4084 156.592 93.4084 156.154C93.4084 155.778 93.4084 155.34 93.3457 154.965L93.0947 150.083C92.9065 146.828 92.8438 143.574 92.8438 140.319C92.8438 139.756 92.4674 139.255 91.9655 139.13C91.8401 139.068 91.7146 139.068 91.5892 139.068H90.9618H89.7699L84.8768 139.005C81.6147 138.942 78.3527 138.88 75.0906 138.755C74.4005 138.692 73.7105 139.193 73.5223 139.819C73.4596 140.006 73.4596 140.132 73.3968 140.319V140.945V142.134C73.3968 143.762 73.3968 145.389 73.3968 147.016C73.4596 150.271 73.6478 153.525 73.7105 156.78C73.7105 157.406 74.1496 157.906 74.7142 158.094C74.8397 158.157 74.9651 158.157 75.1533 158.157H75.7807H76.9726C78.6036 158.157 80.2346 158.219 81.8657 158.344C85.065 158.47 88.3271 158.657 91.5892 158.657Z" fill="black"/>
<path d="M115.177 158.783C111.914 158.783 108.652 158.97 105.39 159.096C103.759 159.158 102.128 159.221 100.497 159.283H99.3053H98.678C98.4271 159.283 98.1761 159.221 97.9252 159.158C96.9215 158.845 96.2314 157.844 96.2314 156.78C96.2942 153.525 96.4824 150.271 96.5451 147.016C96.5451 145.389 96.5451 143.762 96.5451 142.134V140.945V140.319C96.5451 140.069 96.5451 139.881 96.6078 139.631C96.8588 138.755 97.737 138.066 98.7407 138.004C102.003 137.878 105.265 137.816 108.527 137.753L113.42 137.691H114.612H115.239C115.49 137.691 115.804 137.753 116.055 137.816C117.121 138.129 117.874 139.193 117.874 140.319C117.874 143.574 117.811 146.828 117.623 150.083L117.309 154.965C117.309 155.34 117.247 155.778 117.247 156.154V156.78C117.247 156.968 117.184 157.218 117.121 157.406C116.87 158.219 116.055 158.783 115.177 158.783ZM115.177 158.657C115.992 158.657 116.745 158.094 116.933 157.343C117.059 156.968 116.996 156.592 116.996 156.154C116.996 155.778 116.996 155.34 116.933 154.965L116.682 150.083C116.494 146.828 116.431 143.574 116.431 140.319C116.431 139.756 116.055 139.255 115.553 139.13C115.427 139.068 115.302 139.068 115.177 139.068H114.549H113.357L108.464 139.005C105.202 138.942 101.94 138.88 98.678 138.755C97.988 138.692 97.2979 139.193 97.1097 139.819C97.047 140.006 97.047 140.132 96.9842 140.319V140.945V142.134C96.9842 143.762 96.9842 145.389 96.9842 147.016C97.047 150.271 97.2352 153.525 97.2979 156.78C97.2979 157.406 97.737 157.906 98.3016 158.094C98.4271 158.157 98.5525 158.157 98.7407 158.157H99.3681H100.56C102.191 158.157 103.822 158.219 105.453 158.344C108.652 158.47 111.914 158.657 115.177 158.657Z" fill="black"/>
<path d="M69.4445 188.261H53.0087C51.9422 188.261 51.064 187.385 51.064 186.321V169.861C51.064 168.797 51.9422 167.92 53.0087 167.92H69.5072C70.5737 167.92 71.4519 168.797 71.4519 169.861V186.321C71.3892 187.385 70.5109 188.261 69.4445 188.261Z" fill="#77F169"/>
<path d="M93.0316 188.261H76.5331C75.4666 188.261 74.5884 187.385 74.5884 186.321V169.861C74.5884 168.797 75.4666 167.92 76.5331 167.92H93.0316C94.0981 167.92 94.9763 168.797 94.9763 169.861V186.321C94.9763 187.385 94.1608 188.261 93.0316 188.261Z" fill="#0049E5"/>
<path d="M116.682 188.261H100.183C99.117 188.261 98.2388 187.385 98.2388 186.321V169.861C98.2388 168.797 99.117 167.92 100.183 167.92H116.682C117.748 167.92 118.627 168.797 118.627 169.861V186.321C118.627 187.385 117.748 188.261 116.682 188.261Z" fill="#77F169"/>
<path d="M68.0018 186.196C64.7397 186.196 61.4776 186.384 58.2155 186.509C56.5845 186.571 54.9535 186.634 53.3224 186.697H52.1305H51.5032C51.2523 186.697 51.0013 186.634 50.7504 186.571C49.7467 186.258 49.0566 185.257 49.0566 184.193C49.1194 180.939 49.3076 177.684 49.3703 174.429C49.3703 172.802 49.3703 171.175 49.3703 169.548V168.358V167.733C49.3703 167.482 49.3703 167.294 49.433 167.044C49.684 166.168 50.5622 165.479 51.5659 165.417C54.828 165.292 58.0901 165.229 61.3521 165.167L66.2453 165.104H67.4372H68.0645C68.3154 165.104 68.6291 165.167 68.88 165.229C69.9465 165.542 70.6992 166.606 70.6992 167.733C70.6992 170.987 70.6365 174.242 70.4483 177.496L70.1974 182.378C70.1974 182.754 70.1346 183.192 70.1346 183.567V184.193C70.1346 184.381 70.0719 184.631 70.0092 184.819C69.6328 185.633 68.88 186.196 68.0018 186.196ZM68.0018 186.071C68.8173 186.071 69.5701 185.507 69.7583 184.756C69.8837 184.381 69.821 184.005 69.821 183.567C69.821 183.192 69.821 182.754 69.7583 182.378L69.5073 177.496C69.3191 174.242 69.2564 170.987 69.2564 167.733C69.2564 167.169 68.88 166.669 68.3781 166.543C68.2527 166.481 68.1272 166.481 68.0018 166.481H67.3744H66.1825L61.2894 166.418C58.0273 166.356 54.7653 166.293 51.5032 166.168C50.8131 166.105 50.1231 166.606 49.9349 167.232C49.8722 167.42 49.8722 167.545 49.8094 167.733V168.358V169.548C49.8094 171.175 49.8094 172.802 49.8094 174.429C49.8722 177.684 50.0604 180.939 50.1231 184.193C50.1231 184.819 50.5622 185.32 51.1268 185.507C51.2523 185.57 51.3777 185.57 51.5659 185.57H52.1932H53.3852C55.0162 185.57 56.6472 185.633 58.2783 185.758C61.4776 185.883 64.7397 186.071 68.0018 186.071Z" fill="black"/>
<path d="M91.5892 186.196C88.3271 186.196 85.065 186.384 81.8029 186.509C80.1719 186.571 78.5409 186.634 76.9098 186.697H75.7179H75.0906C74.8397 186.697 74.5887 186.634 74.3378 186.571C73.3341 186.258 72.644 185.257 72.644 184.193C72.7068 180.939 72.895 177.684 72.9577 174.429C72.9577 172.802 72.9577 171.175 72.9577 169.548V168.358V167.733C72.9577 167.482 72.9577 167.294 73.0204 167.044C73.2714 166.168 74.1496 165.479 75.1533 165.417C78.4154 165.292 81.6775 165.229 84.9395 165.167L89.8326 165.104H91.0246H91.6519C91.9028 165.104 92.2165 165.167 92.4674 165.229C93.5338 165.542 94.2866 166.606 94.2866 167.733C94.2866 170.987 94.2239 174.242 94.0357 177.496L93.7848 182.378C93.7848 182.754 93.722 183.192 93.722 183.567V184.193C93.722 184.381 93.6593 184.631 93.5966 184.819C93.2829 185.633 92.4674 186.196 91.5892 186.196ZM91.5892 186.071C92.4047 186.071 93.1575 185.507 93.3457 184.756C93.4711 184.381 93.4084 184.005 93.4084 183.567C93.4084 183.192 93.4084 182.754 93.3457 182.378L93.0947 177.496C92.9065 174.242 92.8438 170.987 92.8438 167.733C92.8438 167.169 92.4674 166.669 91.9655 166.543C91.8401 166.481 91.7146 166.481 91.5892 166.481H90.9618H89.7699L84.8768 166.418C81.6147 166.356 78.3527 166.293 75.0906 166.168C74.4005 166.105 73.7105 166.606 73.5223 167.232C73.4596 167.42 73.4596 167.545 73.3968 167.733V168.358V169.548C73.3968 171.175 73.3968 172.802 73.3968 174.429C73.4596 177.684 73.6478 180.939 73.7105 184.193C73.7105 184.819 74.1496 185.32 74.7142 185.507C74.8397 185.57 74.9651 185.57 75.1533 185.57H75.7807H76.9726C78.6036 185.57 80.2346 185.633 81.8657 185.758C85.065 185.883 88.3271 186.071 91.5892 186.071Z" fill="black"/>
<path d="M115.177 186.196C111.914 186.196 108.652 186.384 105.39 186.509C103.759 186.571 102.128 186.634 100.497 186.697H99.3053H98.678C98.4271 186.697 98.1761 186.634 97.9252 186.571C96.9215 186.258 96.2314 185.257 96.2314 184.193C96.2942 180.939 96.4824 177.684 96.5451 174.429C96.5451 172.802 96.5451 171.175 96.5451 169.548V168.358V167.733C96.5451 167.482 96.5451 167.294 96.6078 167.044C96.8588 166.168 97.737 165.479 98.7407 165.417C102.003 165.292 105.265 165.229 108.527 165.167L113.42 165.104H114.612H115.239C115.49 165.104 115.804 165.167 116.055 165.229C117.121 165.542 117.874 166.606 117.874 167.733C117.874 170.987 117.811 174.242 117.623 177.496L117.372 182.378C117.372 182.754 117.309 183.192 117.309 183.567V184.193C117.309 184.381 117.247 184.631 117.184 184.819C116.87 185.633 116.055 186.196 115.177 186.196ZM115.177 186.071C115.992 186.071 116.745 185.507 116.933 184.756C117.059 184.381 116.996 184.005 116.996 183.567C116.996 183.192 116.996 182.754 116.933 182.378L116.682 177.496C116.494 174.242 116.431 170.987 116.431 167.733C116.431 167.169 116.055 166.669 115.553 166.543C115.427 166.481 115.302 166.481 115.177 166.481H114.549H113.357L108.464 166.418C105.202 166.356 101.94 166.293 98.678 166.168C97.988 166.105 97.2979 166.606 97.1097 167.232C97.047 167.42 97.047 167.545 96.9842 167.733V168.358V169.548C96.9842 171.175 96.9842 172.802 96.9842 174.429C97.047 177.684 97.2352 180.939 97.2979 184.193C97.2979 184.819 97.737 185.32 98.3016 185.507C98.4271 185.57 98.5525 185.57 98.7407 185.57H99.3681H100.56C102.191 185.57 103.822 185.633 105.453 185.758C108.652 185.883 111.914 186.071 115.177 186.071Z" fill="black"/>
</svg>
