<svg width="233" height="180" viewBox="0 0 233 180" fill="none" xmlns="http://www.w3.org/2000/svg">
<path d="M196.573 153.496C196.573 153.496 170.939 172.41 146.894 169.708C122.85 167.006 105.167 156.873 105.167 156.873C105.167 156.873 116.586 181.674 147.135 179.744C177.684 177.814 195.754 164.931 196.573 153.496Z" fill="#0049E5"/>
<path d="M203.993 92.5057L201.44 105.727C201.44 105.727 162.121 124.641 127.669 111.662C93.2169 98.6819 126.705 111.662 126.705 111.662C126.705 111.662 189.201 122.325 203.993 92.5057Z" fill="#0049E5"/>
<path d="M98.854 106.691C98.854 106.691 101.793 123.242 101.119 128.26C100.444 133.278 100.059 141.963 100.059 141.963C100.059 141.963 132.294 158.996 153.833 156.632C175.371 154.267 198.018 146.065 200.379 140.13C202.74 134.195 198.982 114.412 198.982 114.412C198.982 114.412 171.179 128.163 153.447 127.054C122.898 125.22 98.854 106.691 98.854 106.691Z" fill="#0049E5"/>
<path d="M25.9507 100.853C20.9395 104.761 24.5533 107.367 20.0722 110.503C15.591 113.64 16.5547 113.205 13.7118 116.39C10.8689 119.575 13.6636 123.773 13.7118 131.107C13.76 138.441 18.9639 146.692 26.8662 148.574C34.8167 150.456 63.1011 147.03 73.509 145.534C83.9169 144.038 97.7941 140.998 97.7941 140.998C97.7941 140.998 96.734 128.887 96.8304 119.816C96.8786 110.745 94.8066 95.4971 94.8066 95.4971C94.8066 95.4971 85.2179 94.6769 84.9769 92.5056C84.736 90.3342 71.2443 86.1846 66.5704 88.6937C61.8483 91.2028 49.9949 88.9349 44.8391 91.2028C39.6833 93.4706 25.9507 100.853 25.9507 100.853Z" fill="#FAE058"/>
<path d="M148.918 62.9275C143.521 62.9757 138.125 63.3135 132.776 64.0373C127.428 64.8093 122.127 65.9191 117.068 67.6561C114.514 68.5247 112.057 69.5862 109.647 70.7925C107.286 72.047 105.022 73.5428 103.094 75.3281L102.372 76.0037L101.697 76.7274C101.215 77.2099 100.83 77.7407 100.444 78.2715C100.251 78.5127 100.059 78.8022 99.866 79.0917L99.3359 79.912C99.1914 80.2015 99.0468 80.491 98.9023 80.7805C98.7577 81.0701 98.565 81.3596 98.4686 81.6491C97.4567 84.0616 97.0231 86.7637 97.2158 89.3693C97.4086 91.9749 98.2277 94.5805 99.7214 96.8C101.167 99.0196 103.143 100.901 105.311 102.494C109.647 105.63 114.707 107.753 119.863 109.345C122.465 110.117 125.067 110.793 127.717 111.372C130.367 111.903 133.017 112.385 135.667 112.771C138.317 113.157 141.016 113.447 143.714 113.64C146.412 113.833 149.111 113.978 151.809 114.074C154.507 114.122 157.206 114.171 159.904 114.026C162.602 113.881 165.253 113.543 167.903 113.109C173.203 112.192 178.407 110.745 183.37 108.718C188.333 106.692 193.103 104.134 197.199 100.66C198.211 99.7916 199.175 98.8749 200.042 97.9098C200.909 96.8965 201.728 95.8833 202.403 94.7252C203.029 93.5672 203.608 92.4092 203.897 91.1546C204.186 89.9001 204.282 88.5973 204.138 87.2945C203.8 84.6889 202.644 82.2763 201.006 80.2015C199.367 78.1267 197.392 76.3414 195.223 74.7974C190.887 71.7093 185.924 69.4897 180.816 67.7526C178.262 66.8841 175.66 66.1603 173.059 65.5813C171.758 65.2436 170.408 65.0023 169.107 64.7611C167.758 64.5198 166.457 64.2785 165.108 64.0855C162.458 63.6513 159.76 63.41 157.061 63.217C154.315 63.024 151.616 62.9757 148.918 62.9275ZM148.918 62.831C154.315 62.831 159.711 63.1205 165.108 63.796C166.457 63.9408 167.806 64.182 169.107 64.375C170.457 64.6163 171.758 64.8576 173.107 65.1471C175.757 65.7261 178.407 66.3534 180.961 67.1736C186.117 68.7659 191.176 70.9855 195.705 74.0736C197.97 75.6176 200.042 77.4512 201.728 79.6708C203.415 81.8421 204.716 84.4477 205.053 87.2462C205.198 88.6455 205.15 90.0931 204.812 91.4441C204.475 92.8434 203.897 94.098 203.222 95.3042C202.548 96.5105 201.68 97.6203 200.765 98.6336C199.849 99.6469 198.837 100.612 197.777 101.48C193.585 105.003 188.67 107.56 183.659 109.587C173.54 113.64 162.554 115.28 151.761 114.653C146.364 114.46 140.968 113.929 135.619 113.157C130.271 112.385 124.97 111.275 119.766 109.731C117.164 108.959 114.61 108.043 112.153 106.933C109.696 105.823 107.238 104.569 105.022 102.976C102.805 101.384 100.781 99.5021 99.1914 97.2343C97.6013 94.9665 96.6376 92.2644 96.4449 89.5141C96.2521 86.7637 96.6858 83.9651 97.7459 81.4078C98.8059 78.8505 100.541 76.5827 102.564 74.7491C104.588 72.8673 106.901 71.3715 109.31 70.1652C111.719 68.9107 114.273 67.9456 116.875 67.1254C122.031 65.4848 127.379 64.4715 132.776 63.796C138.125 63.1688 143.521 62.831 148.918 62.831Z" fill="black"/>
<path d="M147.424 65.4848C142.654 65.5331 137.835 65.8226 133.113 66.5463C128.391 67.2701 123.717 68.3799 119.284 70.1169C117.068 70.9855 114.9 71.9988 112.876 73.205C110.852 74.4596 108.973 75.8589 107.383 77.6442C106.612 78.5127 105.937 79.4777 105.359 80.491C104.781 81.5043 104.347 82.5658 104.058 83.7239C103.769 84.8337 103.673 85.9917 103.673 87.1497C103.673 88.3078 103.913 89.4658 104.251 90.5756C104.588 91.6854 105.118 92.7469 105.696 93.7602C106.034 94.2427 106.323 94.7735 106.66 95.2077L107.19 95.9315L107.768 96.607C109.31 98.3923 111.141 99.9364 113.069 101.287C116.972 103.99 121.356 106.016 125.886 107.512C128.15 108.236 130.463 108.911 132.776 109.394C135.089 109.876 137.45 110.31 139.811 110.6C144.533 111.227 149.352 111.468 154.122 111.372C163.662 111.227 173.251 109.731 182.021 106.064C186.357 104.183 190.501 101.722 193.778 98.3441C194.549 97.4755 195.32 96.607 195.994 95.642C196.621 94.677 197.199 93.6637 197.633 92.6021C198.018 91.5406 198.307 90.3826 198.355 89.2728C198.404 88.1148 198.259 87.005 197.874 85.9434C197.488 84.8819 196.91 83.8686 196.284 82.9036C195.609 81.9386 194.838 81.07 194.019 80.2498C192.381 78.6092 190.453 77.1617 188.478 75.9071C184.478 73.3498 180.093 71.468 175.564 69.9722C173.299 69.2484 170.987 68.5729 168.674 68.0421C166.361 67.5114 164 67.0289 161.639 66.6911C159.278 66.3533 156.917 66.0638 154.507 65.9191C152.195 65.5813 149.785 65.4848 147.424 65.4848ZM147.424 65.3883C152.195 65.3883 157.013 65.6778 161.735 66.2568C166.505 66.8358 171.227 67.8009 175.805 69.2002C180.431 70.5995 184.864 72.433 189.008 74.9904C191.08 76.2449 193.007 77.6924 194.742 79.4295C195.609 80.298 196.428 81.2148 197.103 82.2281C197.777 83.2414 198.404 84.3511 198.837 85.5092C199.223 86.6672 199.464 87.97 199.367 89.2245C199.319 90.4791 199.03 91.7336 198.596 92.8917C198.163 94.0497 197.536 95.1595 196.862 96.1728C196.187 97.186 195.368 98.1028 194.549 99.0196C191.08 102.494 186.839 105.003 182.406 106.885C177.925 108.766 173.251 109.973 168.529 110.745C163.807 111.517 158.989 111.903 154.17 111.903C144.581 111.903 134.944 110.745 125.789 107.801C123.525 107.078 121.26 106.209 119.092 105.196C116.923 104.183 114.803 103.024 112.779 101.722C110.756 100.371 108.877 98.8266 107.286 97.0413L106.708 96.3658C106.515 96.1245 106.323 95.8833 106.13 95.642C105.745 95.1595 105.407 94.6287 105.07 94.1462C104.925 93.9049 104.781 93.6154 104.636 93.3259C104.492 93.0364 104.347 92.7952 104.203 92.5056L103.817 91.6854L103.528 90.8168C103.143 89.6588 102.902 88.4043 102.853 87.198C102.805 85.9434 102.902 84.7372 103.239 83.5309C103.817 81.1183 105.118 78.8987 106.756 77.1134C108.395 75.2799 110.37 73.8323 112.442 72.626C114.514 71.3715 116.731 70.4065 118.995 69.5862C123.525 67.9456 128.247 66.9806 133.017 66.3533C135.378 66.0638 137.787 65.8226 140.148 65.6778C142.606 65.4366 145.015 65.3883 147.424 65.3883Z" fill="black"/>
<path d="M105.648 94.2427C105.648 87.005 125.886 73.3499 149.256 73.3499C172.625 73.3499 196.139 84.0134 196.139 96.3658C196.139 96.3658 186.599 111.613 151.087 111.613C115.574 111.613 105.648 94.2427 105.648 94.2427Z" fill="black"/>
<path d="M96.8305 90.3827C96.6859 91.6372 96.5414 92.94 96.4932 94.1945C96.445 95.4491 96.3968 96.7518 96.4932 98.0064C96.5414 98.6337 96.6378 99.2609 96.7341 99.8882C96.7823 100.178 96.9269 100.467 96.975 100.805C97.0714 101.143 97.1678 101.432 97.216 101.77C97.5051 103.025 97.6496 104.279 97.7942 105.582C98.3724 110.648 98.7097 115.763 98.9506 120.878C99.047 123.435 99.1434 125.992 99.1434 128.55C99.1434 129.852 99.1434 131.107 99.0952 132.41C99.047 133.712 98.9988 134.919 98.9988 136.222C99.1915 141.24 100.3 146.258 102.131 150.987C103.914 155.715 106.516 160.154 109.792 164.014C111.43 165.944 113.261 167.682 115.237 169.322C117.164 170.963 119.333 172.314 121.549 173.52L123.236 174.389C123.814 174.678 124.392 174.919 124.97 175.161C126.127 175.691 127.331 176.126 128.488 176.56C129.066 176.801 129.692 176.946 130.319 177.139C130.945 177.332 131.523 177.525 132.15 177.67L133.981 178.104C134.27 178.152 134.607 178.249 134.896 178.345L135.812 178.538C140.823 179.503 145.883 179.744 150.99 179.6C156.049 179.455 161.109 178.828 166.072 177.67C168.529 177.042 170.939 176.319 173.3 175.354C174.504 174.919 175.612 174.34 176.769 173.858C177.877 173.279 179.034 172.748 180.094 172.072C181.202 171.445 182.262 170.77 183.274 170.046C184.286 169.322 185.298 168.55 186.261 167.73C188.189 166.138 190.02 164.352 191.61 162.422C194.838 158.562 197.44 154.171 199.078 149.394C199.898 147.03 200.476 144.569 200.668 142.06C200.717 140.854 200.717 139.551 200.717 138.248V134.436C200.668 129.322 200.669 124.207 200.765 119.141C200.813 116.583 200.909 114.026 201.102 111.469C201.295 108.911 201.536 106.354 202.018 103.845C202.114 103.218 202.259 102.59 202.403 101.963L202.837 100.081C203.126 98.8267 203.367 97.5721 203.608 96.3176C204.09 93.8085 204.475 91.2994 204.523 88.7421C204.523 88.6939 204.523 88.6938 204.571 88.6938C204.62 88.6938 204.62 88.6939 204.62 88.7421C204.62 91.2994 204.282 93.8568 203.897 96.3658C203.704 97.6204 203.463 98.8749 203.222 100.129C202.981 101.384 202.692 102.639 202.451 103.893C202.018 106.402 201.825 108.911 201.68 111.469C201.536 114.026 201.536 116.535 201.488 119.092C201.439 124.207 201.536 129.273 201.584 134.388L201.632 138.2C201.632 139.503 201.68 140.757 201.584 142.06C201.391 144.666 200.813 147.223 199.994 149.635C199.175 152.096 198.115 154.461 196.814 156.68C195.513 158.9 194.067 161.071 192.381 163.001C190.694 164.979 188.863 166.765 186.839 168.405C185.876 169.226 184.816 169.998 183.756 170.721C182.696 171.397 181.587 172.121 180.479 172.748C179.371 173.423 178.214 173.954 177.058 174.533C175.853 175.016 174.697 175.595 173.492 176.029C171.083 176.946 168.626 177.621 166.12 178.249C161.109 179.358 156.001 179.937 150.894 179.986C145.786 180.082 140.679 179.696 135.667 178.731C130.656 177.766 125.789 176.077 121.26 173.665C116.779 171.252 112.683 168.019 109.262 164.207C105.889 160.347 103.143 155.908 101.263 151.131C100.3 148.719 99.577 146.258 98.9988 143.749C98.4688 141.24 98.0833 138.682 98.0351 136.077C97.9869 134.774 98.0833 133.471 98.1315 132.217C98.1797 130.962 98.2278 129.659 98.2278 128.405C98.2278 125.848 98.1797 123.338 98.0833 120.781C97.8906 115.715 97.6496 110.6 97.1678 105.534C97.0232 104.279 96.8787 103.025 96.6859 101.77C96.6378 101.432 96.5414 101.143 96.4932 100.853C96.445 100.564 96.3005 100.226 96.2523 99.8882C96.1077 99.2609 96.0595 98.5854 96.0114 97.9581C95.915 95.4008 96.2041 92.8435 96.5896 90.3344C96.5896 90.2862 96.6378 90.2861 96.6378 90.2861C96.7823 90.3344 96.8305 90.3827 96.8305 90.3827Z" fill="black"/>
<path d="M111.286 106.354C114.948 107.753 118.61 109.201 122.32 110.407C124.151 111.034 126.031 111.565 127.91 112.096L130.753 112.868C131.716 113.109 132.632 113.35 133.596 113.543C137.402 114.46 141.257 115.184 145.16 115.618C149.063 116.052 152.966 116.149 156.869 115.956C160.772 115.763 164.675 115.425 168.529 114.846C169.493 114.701 170.457 114.508 171.421 114.364C171.902 114.267 172.384 114.219 172.866 114.122L174.312 113.833C175.275 113.64 176.239 113.447 177.155 113.206L179.997 112.53C187.562 110.6 194.935 107.898 202.114 104.713C202.162 104.713 202.162 104.713 202.162 104.713V104.762C198.693 106.595 195.176 108.332 191.465 109.78C187.803 111.275 184.045 112.482 180.238 113.495C176.432 114.508 172.529 115.184 168.626 115.715C164.723 116.245 160.772 116.438 156.869 116.438C155.905 116.438 154.893 116.438 153.93 116.39C152.966 116.342 151.954 116.294 150.99 116.294L148.051 116.101L145.112 115.859C141.209 115.522 137.306 115.039 133.451 114.267C125.741 112.675 118.273 109.876 111.286 106.402C111.286 106.402 111.238 106.354 111.286 106.354C111.286 106.354 111.238 106.354 111.286 106.354Z" fill="black"/>
<path d="M97.7943 105.678C99.529 107.222 101.408 108.67 103.336 110.021C105.263 111.372 107.239 112.627 109.262 113.833C111.286 115.039 113.358 116.149 115.43 117.162C117.55 118.224 119.67 119.141 121.838 120.057C124.007 120.974 126.175 121.794 128.392 122.566C129.5 122.952 130.608 123.29 131.765 123.628L133.451 124.11C134.029 124.255 134.559 124.4 135.137 124.545C139.715 125.654 144.389 126.282 149.063 126.571C150.219 126.668 151.424 126.668 152.58 126.716C153.159 126.764 153.737 126.716 154.315 126.716H156.05C157.206 126.716 158.411 126.668 159.567 126.619L163.085 126.523C164.241 126.475 165.397 126.33 166.602 126.233L168.337 126.089C168.915 126.04 169.493 125.992 170.071 125.896C172.384 125.558 174.697 125.317 177.01 124.834C181.587 123.966 186.165 122.759 190.405 120.829L191.947 120.057C192.477 119.768 193.007 119.575 193.489 119.237L194.983 118.32C195.465 118.031 195.947 117.645 196.428 117.307C196.669 117.114 196.91 116.969 197.151 116.776L197.826 116.197L198.5 115.618L199.127 114.991C199.946 114.171 200.765 113.302 201.343 112.289C201.343 112.289 201.391 112.241 201.391 112.289C201.391 112.289 201.44 112.337 201.391 112.337C200.861 113.399 200.139 114.364 199.319 115.232L198.693 115.908L198.018 116.487L197.344 117.066C197.103 117.259 196.862 117.452 196.621 117.596C196.139 117.934 195.706 118.32 195.176 118.658L193.682 119.623C193.2 119.961 192.67 120.202 192.14 120.492L190.55 121.312C189.442 121.794 188.382 122.277 187.273 122.711L183.9 123.917C181.636 124.593 179.323 125.22 177.01 125.654C174.697 126.185 172.336 126.426 169.975 126.716C169.397 126.812 168.819 126.812 168.192 126.861L166.409 127.005C165.253 127.102 164.048 127.198 162.892 127.247C160.531 127.295 158.17 127.343 155.809 127.343C153.448 127.295 151.087 127.15 148.726 126.909C144.052 126.475 139.378 125.703 134.8 124.641C130.223 123.628 125.645 122.325 121.26 120.636C116.875 118.899 112.635 116.776 108.588 114.267C106.564 113.013 104.637 111.662 102.757 110.214C101.794 109.49 100.926 108.766 100.011 107.946C99.1435 107.174 98.228 106.354 97.457 105.534V105.485C97.7461 105.63 97.7943 105.63 97.7943 105.678Z" fill="black"/>
<path d="M201.391 80.0085C202.307 79.6707 203.222 79.3812 204.138 79.1882C205.053 78.9469 206.017 78.8022 206.981 78.6574C208.908 78.4162 210.835 78.3197 212.763 78.5609C214.69 78.7539 216.617 79.1882 218.4 79.9602C218.834 80.1532 219.316 80.3462 219.75 80.5875C220.183 80.8287 220.617 81.07 221.002 81.3595C221.821 81.8903 222.592 82.5658 223.219 83.3378C223.845 84.1098 224.327 85.0749 224.568 86.0399C224.616 86.2812 224.664 86.5224 224.713 86.7637C224.761 87.0049 224.761 87.2462 224.809 87.4874C224.809 87.7287 224.857 87.9217 224.905 88.163C224.905 88.4042 225.002 88.5972 225.05 88.8385C225.339 89.707 225.724 90.5755 226.158 91.4441C226.592 92.3126 227.025 93.1811 227.411 94.0497C228.23 95.7867 228.856 97.6203 229.097 99.5503C229.338 101.48 229.194 103.459 228.567 105.292C228.23 106.209 227.845 107.126 227.411 107.946C226.929 108.815 226.447 109.635 225.869 110.407C224.809 111.999 223.652 113.543 222.448 115.039C220.087 118.031 217.581 120.974 215.076 123.869C212.57 126.764 210.016 129.611 207.607 132.554C206.402 134.05 205.198 135.498 204.089 137.042C203.559 137.814 202.981 138.586 202.499 139.406C202.018 140.226 201.584 141.047 201.343 142.012C201.343 142.06 201.295 142.06 201.295 142.06C201.247 142.06 201.247 142.012 201.247 142.012C201.391 141.047 201.825 140.178 202.258 139.31C202.692 138.441 203.174 137.621 203.704 136.8C204.764 135.208 205.872 133.616 207.029 132.12C209.39 129.08 211.847 126.137 214.305 123.242C216.81 120.347 219.316 117.452 221.725 114.508C222.93 113.012 224.134 111.565 225.243 110.021C225.821 109.249 226.303 108.477 226.833 107.657C227.314 106.836 227.7 106.016 228.085 105.147C228.76 103.41 229.001 101.48 228.808 99.5986C228.615 97.7168 227.989 95.8832 227.17 94.1944C226.736 93.3259 226.303 92.5056 225.869 91.6371C225.435 90.8168 224.953 89.9483 224.616 89.0315C224.423 88.5972 224.375 88.0182 224.279 87.584C224.231 87.3427 224.231 87.1497 224.182 86.9084C224.134 86.6672 224.086 86.4742 224.038 86.2329C223.797 85.3644 223.315 84.5441 222.737 83.8686C222.159 83.1448 221.436 82.5658 220.665 82.0833C219.894 81.5525 219.075 81.1665 218.208 80.7805C216.473 80.0567 214.642 79.5742 212.811 79.3329C210.932 79.0917 209.052 79.0434 207.173 79.2364C205.294 79.3812 203.415 79.6707 201.536 80.2015C201.487 80.2015 201.488 80.2015 201.488 80.1532C201.391 80.0085 201.391 80.0085 201.391 80.0085Z" fill="black"/>
<path d="M201.391 116.245C202.114 112.723 203.174 109.201 204.571 105.871C205.969 102.542 207.751 99.2607 210.305 96.5586C211.558 95.2076 213.052 94.0978 214.738 93.2775C216.425 92.5055 218.256 92.1195 220.087 92.2643C221.002 92.3125 221.918 92.5055 222.737 92.9398C223.556 93.3741 224.231 94.0978 224.616 94.9181C225.002 95.7866 225.194 96.7034 225.194 97.6202C225.194 98.537 225.146 99.4537 224.953 100.371C224.616 102.156 224.086 103.941 223.363 105.63C222.689 107.319 221.87 108.959 220.954 110.552C219.171 113.736 217.147 116.728 214.931 119.623C213.823 121.07 212.666 122.47 211.462 123.821C210.257 125.172 209.052 126.475 207.896 127.874C205.583 130.624 203.367 133.471 201.295 136.414C201.295 136.414 201.247 136.463 201.247 136.414C201.247 136.414 201.198 136.366 201.247 136.366C203.029 133.23 205.101 130.238 207.366 127.391C208.474 125.944 209.679 124.593 210.835 123.193C211.992 121.794 213.1 120.395 214.208 118.996C216.377 116.149 218.448 113.205 220.279 110.117C221.195 108.573 222.014 106.981 222.785 105.34C223.508 103.7 224.182 102.059 224.568 100.322C224.761 99.4537 224.857 98.5852 224.905 97.6684C224.905 96.7999 224.761 95.8831 224.423 95.1111C224.086 94.3391 223.46 93.6636 222.689 93.2293C221.918 92.795 221.05 92.602 220.135 92.602C218.352 92.5055 216.569 92.9398 215.027 93.7601C213.485 94.5803 212.136 95.7866 210.932 97.0894C208.571 99.7433 206.788 102.88 205.294 106.161C203.8 109.442 202.596 112.819 201.536 116.294C201.536 116.342 201.487 116.342 201.487 116.342C201.391 116.294 201.391 116.294 201.391 116.245Z" fill="black"/>
<path d="M218.69 92.5056C218.449 93.6154 218.015 94.6769 217.533 95.7384C217.052 96.7517 216.521 97.765 215.895 98.73C215.558 99.2125 215.22 99.6468 214.883 100.129C214.546 100.564 214.16 101.046 213.871 101.48C213.197 102.397 212.57 103.362 211.944 104.279C210.691 106.209 209.246 107.946 207.607 109.587C205.969 111.179 204.138 112.578 202.162 113.736H202.114V113.688C203.704 112.047 205.343 110.552 206.885 108.911C207.704 108.139 208.426 107.319 209.246 106.499C209.631 106.064 209.968 105.678 210.402 105.244C210.788 104.858 211.173 104.424 211.558 103.989C212.329 103.169 213.004 102.252 213.63 101.336C214.257 100.371 214.739 99.3573 215.22 98.344C215.51 97.8615 215.751 97.3307 216.04 96.8965C216.329 96.414 216.618 95.9314 216.907 95.4489C217.485 94.4839 218.015 93.5189 218.642 92.5538C218.642 92.5538 218.69 92.5056 218.69 92.5538C218.69 92.4573 218.69 92.5056 218.69 92.5056Z" fill="black"/>
<path d="M99.0473 140.42C100.83 141.867 102.806 143.073 104.781 144.28C105.793 144.859 106.757 145.438 107.817 145.92L109.359 146.692L110.901 147.416C115.093 149.346 119.381 150.938 123.814 152.241C128.199 153.544 132.68 154.702 137.258 155.329L140.679 155.812L144.148 156.053C145.305 156.149 146.461 156.246 147.617 156.246L151.087 156.294H152.821C153.4 156.294 153.978 156.294 154.556 156.294L158.025 156.149L159.76 156.053L160.627 156.005L161.495 155.908L164.916 155.57L166.65 155.377L168.337 155.088L171.71 154.509C172.288 154.412 172.818 154.268 173.396 154.123L175.083 153.737L176.769 153.351C177.347 153.206 177.877 153.013 178.407 152.868C182.84 151.662 187.081 149.877 191.032 147.609C191.562 147.368 191.996 147.03 192.477 146.692L193.923 145.775C194.405 145.438 194.838 145.1 195.32 144.762L195.995 144.231C196.236 144.038 196.428 143.845 196.669 143.701C198.452 142.253 200.091 140.613 201.392 138.731C201.392 138.731 201.44 138.682 201.44 138.731C201.44 138.731 201.488 138.779 201.44 138.779C200.235 140.806 198.693 142.543 196.959 144.087C196.766 144.28 196.525 144.473 196.332 144.666L195.658 145.196C195.224 145.582 194.742 145.92 194.308 146.306L192.863 147.319C192.381 147.657 191.899 147.995 191.417 148.284C187.466 150.745 183.13 152.627 178.697 153.882C178.118 154.026 177.588 154.219 177.01 154.364L175.324 154.75C174.167 154.991 173.059 155.281 171.902 155.522L168.481 156.053L166.747 156.294L165.012 156.439L161.543 156.728L160.675 156.777H159.808L158.073 156.825L154.604 156.873C154.026 156.873 153.448 156.873 152.87 156.825L151.135 156.728L147.666 156.584C147.087 156.584 146.509 156.487 145.931 156.439L144.196 156.294L140.727 156.005L137.306 155.522C134.993 155.281 132.728 154.847 130.464 154.461L129.596 154.316C129.307 154.268 129.018 154.171 128.729 154.123L127.043 153.737L125.356 153.351L124.489 153.158L123.67 152.917L120.345 151.952C119.237 151.614 118.177 151.18 117.068 150.794C115.96 150.408 114.9 149.925 113.84 149.491C113.31 149.25 112.78 149.057 112.25 148.815L110.708 148.043C106.564 145.968 102.565 143.556 99.1436 140.42V140.371C98.9991 140.371 99.0473 140.371 99.0473 140.42Z" fill="black"/>
<path d="M198.982 151.469C195.947 154.557 192.333 157.018 188.623 159.189C186.743 160.299 184.816 161.216 182.84 162.133L179.853 163.387C178.841 163.773 177.829 164.111 176.769 164.449C176.239 164.593 175.757 164.786 175.227 164.931L173.685 165.365L172.143 165.8C171.613 165.945 171.083 166.089 170.553 166.186C168.433 166.62 166.313 167.103 164.193 167.392L161.013 167.875L157.784 168.212L156.194 168.357C155.664 168.454 155.134 168.454 154.604 168.502L151.376 168.647L149.738 168.743C149.207 168.743 148.677 168.743 148.099 168.743L144.871 168.695C143.811 168.695 142.703 168.598 141.643 168.55L138.414 168.309C134.126 167.778 129.837 167.151 125.645 165.945C121.453 164.786 117.406 163.242 113.551 161.264C111.623 160.251 109.744 159.189 107.961 157.935C106.179 156.728 104.444 155.377 102.95 153.833V153.785H102.998C104.588 155.233 106.371 156.439 108.202 157.549C110.033 158.707 111.913 159.672 113.84 160.589C117.695 162.422 121.742 163.821 125.886 164.931C129.982 166.089 134.222 166.813 138.462 167.392L141.643 167.682C142.703 167.778 143.763 167.923 144.823 167.923L148.051 168.068C148.581 168.068 149.111 168.116 149.641 168.116H151.231C153.351 168.068 155.52 168.116 157.64 167.875L160.868 167.585C161.928 167.44 162.988 167.247 164.048 167.054C166.169 166.765 168.24 166.138 170.312 165.655C170.842 165.558 171.324 165.365 171.854 165.221L173.396 164.738L174.938 164.256C175.468 164.111 175.95 163.87 176.432 163.725C180.479 162.326 184.382 160.589 188.189 158.562C191.947 156.535 195.609 154.219 198.838 151.421H198.886C198.982 151.421 198.982 151.469 198.982 151.469Z" fill="black"/>
<path d="M131.572 134.243C125.308 131.445 122.127 142.012 128.054 144.376C133.933 146.692 140.679 138.296 131.572 134.243Z" fill="black"/>
<path d="M164.434 135.739C159.037 136.173 153.978 145.196 162.94 145.534C171.806 145.872 170.65 135.257 164.434 135.739Z" fill="black"/>
<path d="M198.934 127.15C198.693 122.615 193.874 124.979 194.212 131.348C194.549 137.766 199.271 133.375 198.934 127.15Z" fill="black"/>
<path d="M102.95 130.866C102.565 134.919 106.805 137.331 107.287 133.761C107.817 130.19 103.528 125.124 102.95 130.866Z" fill="black"/>
<path d="M96.2521 95.6421C95.433 94.8218 94.4693 94.1463 93.4092 93.8568C92.8792 93.712 92.3009 93.8085 91.8191 94.098C91.2891 94.3393 90.6627 94.484 90.0845 94.484C89.5062 94.484 88.8798 94.291 88.398 93.905C88.1571 93.712 87.9161 93.4707 87.8198 93.1812C87.7716 93.133 87.7716 93.0365 87.7234 92.94C87.7234 92.8435 87.6752 92.7952 87.6752 92.6987C87.6752 92.6505 87.6752 92.5057 87.627 92.4575C87.627 92.4575 87.627 92.4092 87.5788 92.361C87.4343 92.168 87.1934 92.0232 87.0006 91.8302C86.7597 91.6854 86.5188 91.5407 86.2779 91.3959C85.796 91.1064 85.266 90.8652 84.736 90.6239C82.664 89.6589 80.4957 88.8869 78.3274 88.2596C76.1109 87.6323 73.8944 87.1016 71.6297 87.0533C71.0515 87.0533 70.5215 87.0533 69.9914 87.1498C69.4614 87.2463 68.9314 87.3911 68.4013 87.5841C67.3413 87.9218 66.3294 88.4043 65.4139 89.0799C65.173 89.2246 64.9802 89.4176 64.6911 89.5624C64.5948 89.6106 64.5466 89.6589 64.4502 89.7071C64.3538 89.7554 64.2575 89.8036 64.1129 89.8036C63.9684 89.8036 63.8238 89.7554 63.7274 89.7071C63.5829 89.6589 63.5347 89.5624 63.4865 89.5141C63.342 89.3694 63.2456 89.2246 63.1492 89.1281C63.0528 89.0316 62.9565 88.8386 62.9565 88.8386C62.8601 88.7421 62.6192 88.6456 62.3783 88.5491C61.3664 88.3078 60.21 88.3078 59.0535 88.3561C56.7888 88.4526 54.5242 88.7421 52.2595 89.1281C49.9948 89.5141 47.7301 89.9966 45.61 90.7204C45.08 90.9134 44.5499 91.1064 44.1163 91.3959C43.9235 91.5407 43.6826 91.6854 43.4417 91.8784L42.7189 92.361C41.7552 93.0365 40.7433 93.6638 39.5869 94.0498C39.0087 94.2428 38.4787 94.3875 37.9486 94.5805C37.4186 94.7253 36.8886 94.9665 36.3585 95.1596C35.2985 95.5938 34.2384 96.0763 33.2265 96.5588C31.1546 97.5239 29.0826 98.5372 27.1071 99.6952C26.0952 100.274 25.1315 100.901 24.216 101.577C23.7341 101.915 23.3005 102.253 22.8668 102.639C22.4332 103.025 22.0477 103.411 21.7104 103.845C21.5658 104.086 21.4213 104.327 21.3249 104.569C21.2767 104.713 21.2767 104.81 21.2285 104.955V105.389C21.2285 105.968 21.2285 106.547 21.2767 107.126C21.2767 107.415 21.3249 107.705 21.2767 108.043C21.2285 108.187 21.1804 108.38 21.0358 108.477C20.9394 108.573 20.7949 108.67 20.6503 108.766C20.1203 109.056 19.5421 109.201 19.0602 109.49C18.5784 109.78 18.1929 110.166 17.9038 110.648C17.6147 111.131 17.422 111.662 17.2292 112.192C16.9883 112.723 16.7956 113.302 16.3137 113.736C16.0728 113.929 15.6873 114.026 15.4946 114.122C15.2536 114.219 15.0609 114.412 14.82 114.605C14.0008 115.377 13.2781 116.294 12.6517 117.21C12.0253 118.176 11.4952 119.189 11.0616 120.202C10.6279 121.264 10.3388 122.373 10.387 123.483C10.4352 124.014 10.5797 124.545 10.917 124.979C11.2543 125.461 11.5916 125.944 11.8807 126.427C12.5071 127.44 12.989 128.501 13.3263 129.611C13.6635 130.721 13.8563 131.927 13.9527 133.085C13.9527 133.375 13.9527 133.664 14.0008 133.954C14.0008 134.099 14.0008 134.195 14.049 134.34C14.0972 134.485 14.0972 134.581 14.1454 134.726C14.2899 135.257 14.5309 135.739 14.7718 136.27C15.2536 137.283 15.88 138.248 16.4583 139.213C17.7111 141.143 19.0602 142.977 20.5058 144.762C21.9513 146.547 23.4932 148.236 25.0833 149.877C26.7216 151.469 28.4081 153.013 30.2873 154.316C32.1183 155.619 34.142 156.728 36.2622 157.356C36.5513 157.404 36.7922 157.5 37.0813 157.549L37.9004 157.693C38.4787 157.79 39.0087 157.935 39.5869 157.983C40.6952 158.176 41.8516 158.321 42.9598 158.369C43.538 158.417 44.0681 158.369 44.5981 158.321C44.839 158.272 45.1281 158.224 45.3691 158.176C45.61 158.128 45.9473 157.983 46.3328 157.983C47.1037 157.983 47.6337 158.321 48.1638 158.465C48.6456 158.659 49.2238 158.803 49.7539 158.9C51.9704 159.382 54.2351 159.624 56.5479 159.72C57.7043 159.768 58.8126 159.817 59.969 159.817C61.1255 159.817 62.2337 159.768 63.342 159.575C63.872 159.479 64.4502 159.382 64.9321 159.189L65.3175 159.045C65.4139 158.996 65.5585 158.948 65.6548 158.852C65.8957 158.707 65.9439 158.61 66.1848 158.321C66.2812 158.176 66.4258 158.079 66.5703 157.983C66.7149 157.886 66.8594 157.79 67.004 157.693C67.1485 157.597 67.3413 157.549 67.4858 157.5L67.7268 157.452H67.9677C68.6423 157.452 69.2687 157.693 69.7987 157.886C70.8588 158.321 71.9188 158.852 72.9307 158.707C74.1353 158.61 75.2918 158.61 76.4 158.61C78.6647 158.562 80.9775 158.465 83.0977 157.693C83.3386 157.597 83.6277 157.5 83.8686 157.356C84.1096 157.211 84.3505 157.114 84.5914 156.921C84.8323 156.777 85.0251 156.632 85.266 156.439L85.9406 155.86C86.8079 155.136 87.6752 154.364 88.6871 153.689C89.1689 153.351 89.699 153.061 90.2772 152.868C90.8554 152.675 91.4818 152.579 92.06 152.627C92.3491 152.627 92.6382 152.675 92.9273 152.724C93.2165 152.772 93.5056 152.868 93.7947 152.868C94.3247 152.965 94.9029 152.917 95.433 152.772C96.5412 152.482 97.5531 151.952 98.5168 151.324C99.4805 150.697 100.348 149.973 101.215 149.153H101.263V149.201C100.444 150.021 99.5768 150.794 98.6131 151.469C97.6494 152.145 96.6376 152.724 95.4811 153.013C94.9029 153.158 94.3247 153.254 93.6983 153.158C93.4092 153.11 93.1201 153.061 92.831 153.013C92.5419 152.965 92.2528 152.917 92.0118 152.965C91.4818 152.965 90.9036 153.061 90.3736 153.254C89.8435 153.447 89.3617 153.737 88.928 154.026C88.0125 154.654 87.1452 155.474 86.2779 156.198L85.6033 156.777C85.3624 156.97 85.1214 157.163 84.8805 157.307C84.6396 157.5 84.3505 157.597 84.1096 157.79C83.8686 157.935 83.5795 158.031 83.2904 158.176C81.0739 159.045 78.6647 159.189 76.4 159.286C75.2436 159.334 74.0871 159.286 72.9789 159.431C72.3043 159.527 71.6779 159.382 71.0997 159.189C70.5215 158.996 69.9914 158.755 69.4614 158.562C68.9314 158.369 68.4013 158.176 67.9677 158.224C67.4858 158.224 67.1004 158.417 66.7631 158.803L66.474 159.141C66.3294 159.286 66.1849 159.382 66.0403 159.479C65.8957 159.575 65.7512 159.624 65.6066 159.72C65.4621 159.768 65.3175 159.865 65.173 159.913C64.5948 160.106 64.0165 160.251 63.4383 160.347C61.0773 160.733 58.7644 160.685 56.4515 160.589C54.1387 160.444 51.8258 160.251 49.513 159.768C48.9347 159.624 48.3565 159.527 47.7783 159.286L47.3446 159.141C47.2001 159.093 47.1037 159.045 46.9592 158.996C46.7182 158.9 46.4773 158.852 46.2846 158.852C46.0918 158.852 45.8991 158.9 45.5618 158.996C45.2727 159.093 44.9354 159.141 44.6463 159.189C44.0199 159.286 43.4417 159.286 42.8153 159.238C41.6107 159.189 40.4542 159.045 39.346 158.803C38.7678 158.707 38.1895 158.61 37.6113 158.465L36.744 158.272C36.4549 158.224 36.1658 158.128 35.8767 158.031C33.5638 157.356 31.4919 156.198 29.6127 154.798C27.7335 153.447 25.9506 151.855 24.3124 150.263C21.0358 146.982 18.1447 143.315 15.6873 139.358C15.0609 138.345 14.4827 137.38 14.0008 136.318C13.7599 135.787 13.519 135.257 13.3263 134.678C13.2781 134.533 13.2299 134.388 13.2299 134.243C13.1817 134.098 13.1817 133.905 13.1817 133.761C13.1817 133.471 13.1817 133.182 13.1817 132.892C13.1335 131.782 12.989 130.624 12.6517 129.563C12.3144 128.501 11.8807 127.44 11.3025 126.475C11.0134 125.992 10.7243 125.51 10.387 125.027C10.2906 124.931 10.2424 124.786 10.1461 124.641C10.0497 124.496 10.0015 124.352 9.95333 124.207C9.85696 123.917 9.80877 123.58 9.80877 123.29C9.76059 122.084 10.1461 120.926 10.5797 119.864C11.0616 118.803 11.6398 117.789 12.2662 116.824C12.9408 115.859 13.6154 114.943 14.5309 114.171C14.7718 113.978 15.0127 113.785 15.2536 113.64C15.5909 113.495 15.7837 113.495 16.0246 113.302C16.4101 112.964 16.651 112.434 16.8437 111.903C17.0365 111.372 17.2774 110.841 17.5665 110.311C17.8556 109.78 18.2893 109.345 18.8193 109.056C19.3493 108.766 19.9276 108.622 20.4094 108.332C20.6503 108.187 20.8431 108.043 20.8912 107.801C20.9394 107.56 20.8912 107.271 20.8912 106.981C20.8431 106.402 20.8431 105.823 20.8431 105.244V104.81C20.8912 104.665 20.8912 104.472 20.9394 104.327C21.0358 104.038 21.1804 103.748 21.3731 103.507C21.7104 103.025 22.1441 102.59 22.5777 102.204C23.0114 101.818 23.4932 101.432 23.9269 101.094C24.8424 100.419 25.8543 99.7917 26.818 99.1644C28.7935 97.9581 30.8173 96.8966 32.9374 95.8833C33.9975 95.4008 35.0094 94.87 36.0694 94.4358C36.5995 94.1945 37.1295 94.0015 37.7077 93.8085C38.2859 93.6155 38.8159 93.4707 39.346 93.2777C40.406 92.8917 41.3216 92.3127 42.2852 91.6372L42.9598 91.1547C43.2008 90.9617 43.3935 90.8169 43.6826 90.6239C44.2126 90.2861 44.7909 90.0931 45.3209 89.9001C47.5374 89.1281 49.8021 88.6456 52.0667 88.2113C54.3314 87.8253 56.6443 87.4876 59.0053 87.4393C60.1618 87.4393 61.3182 87.3911 62.571 87.6806C62.8601 87.7771 63.1974 87.8736 63.5347 88.2113C63.7274 88.4043 63.7274 88.5008 63.8238 88.5973C63.872 88.6939 63.9684 88.7904 64.0165 88.8869C64.0647 88.8869 64.0647 88.9351 64.1129 88.9351H64.1611C64.2093 88.9351 64.2575 88.8869 64.3056 88.8869C64.4984 88.7421 64.7393 88.5974 64.9802 88.4043C65.9439 87.7288 67.0522 87.1981 68.1604 86.8603C68.7386 86.7155 69.2687 86.5225 69.8951 86.426C70.4733 86.3295 71.0997 86.3295 71.6779 86.3295C74.039 86.426 76.3036 87.0051 78.5201 87.6806C80.7366 88.3561 82.9049 89.2246 84.9769 90.2379C85.5069 90.4792 86.0369 90.7687 86.5188 91.0582C86.7597 91.2029 87.0006 91.3477 87.2416 91.5407C87.4825 91.7337 87.7234 91.8785 87.9161 92.168C87.9643 92.2645 88.0125 92.3127 88.0125 92.4575V92.6505C88.0125 92.6987 88.0125 92.7952 88.0607 92.8435C88.0607 92.8917 88.1089 92.94 88.1089 93.0365C88.2052 93.2777 88.3498 93.4707 88.5907 93.6638C88.9762 94.0015 89.5544 94.1945 90.0845 94.2428C90.6145 94.291 91.1927 94.1463 91.6746 93.9533C92.2046 93.712 92.8792 93.6155 93.4574 93.7603C94.0356 93.905 94.5656 94.1945 95.0475 94.5323C95.5293 94.87 95.963 95.2561 96.3485 95.6903V95.7386C96.3003 95.6421 96.2521 95.6421 96.2521 95.6421Z" fill="black"/>
<path d="M42.6226 91.7336C46.3328 92.4574 50.0431 93.4707 53.6087 94.8217C55.3916 95.4972 57.1262 96.3658 58.7645 97.3308C60.4028 98.2958 61.9929 99.5021 63.2938 100.95C63.9684 101.673 64.4985 102.494 64.9803 103.314C65.4622 104.182 65.8476 105.051 66.0886 106.016C66.6186 107.898 66.6668 109.828 66.6186 111.758C66.6186 112.723 66.5222 113.64 66.5222 114.605C66.5222 115.57 66.5222 116.487 66.5222 117.452C66.5222 118.417 66.5222 119.333 66.474 120.298C66.474 120.781 66.4259 121.264 66.3777 121.746C66.3295 122.229 66.2331 122.711 65.9922 123.194C65.8476 123.435 65.6067 123.724 65.2212 123.724C64.8839 123.773 64.5948 123.628 64.4021 123.483C63.9684 123.194 63.583 122.856 63.2457 122.518C62.9084 122.18 62.5711 121.794 62.282 121.457C61.9447 121.071 61.7037 120.733 61.3665 120.395C60.0655 119.092 58.4754 118.079 56.8853 117.114C53.6569 115.184 50.2358 113.495 46.8629 111.758C45.1764 110.889 43.4899 110.021 41.8035 109.056C41.3698 108.815 40.9843 108.573 40.5507 108.284C40.1652 107.994 39.7315 107.753 39.3461 107.271C39.2497 107.126 39.1533 106.981 39.1533 106.692L39.2497 106.354L39.3461 105.63L39.4906 104.231C39.9243 100.467 40.3098 96.6553 40.8398 92.8917C40.8398 92.8434 40.888 92.8434 40.888 92.8434C40.9362 92.8434 40.9362 92.8917 40.9362 92.8917C40.7434 96.7035 40.5025 100.467 40.2616 104.279L40.1652 105.678L40.117 106.402L40.0688 106.74C40.0688 106.692 40.0688 106.74 40.117 106.788C40.3098 107.029 40.7434 107.319 41.1289 107.56C41.5144 107.801 41.8998 108.043 42.3335 108.284C43.9718 109.201 45.6583 110.021 47.3929 110.889C50.7658 112.578 54.1869 114.315 57.4153 116.39C59.0054 117.403 60.6437 118.513 61.9929 119.912C62.3302 120.25 62.6193 120.684 62.9084 121.022C63.1975 121.408 63.4866 121.746 63.8239 122.084C64.113 122.422 64.4503 122.759 64.8358 123.001C65.0285 123.097 65.1731 123.194 65.3176 123.194C65.4622 123.194 65.5585 123.097 65.6549 122.952C65.8476 122.615 65.944 122.132 66.0404 121.698C66.1367 121.264 66.1367 120.781 66.1849 120.298C66.2331 119.333 66.2813 118.417 66.2813 117.452C66.2813 116.487 66.2813 115.57 66.3295 114.605C66.3777 113.64 66.3777 112.723 66.3777 111.758C66.3777 109.876 66.2331 107.946 65.6067 106.209C65.3176 105.341 64.9321 104.472 64.4503 103.7C63.9684 102.928 63.3902 102.204 62.7638 101.529C61.511 100.178 59.9691 99.0678 58.379 98.1028C56.7889 97.1378 55.1025 96.2693 53.3678 95.5455C49.8985 94.0497 46.2847 92.9399 42.6226 91.8301C42.5744 91.8301 42.5744 91.7819 42.5744 91.7819C42.5744 91.7336 42.5744 91.7336 42.6226 91.7336Z" fill="black"/>
<path d="M63.2459 88.5008C64.0651 89.2246 64.7397 90.1896 65.2215 91.2512C65.4624 91.7819 65.607 92.3609 65.6552 92.94V93.1812C65.6552 93.2295 65.6552 93.2295 65.6552 93.326C65.6552 93.3742 65.6552 93.4707 65.607 93.519C65.5588 93.8085 65.3179 94.0015 65.1733 94.098C64.7878 94.291 64.4987 94.291 64.2096 94.3392C63.005 94.3392 61.9931 94.0015 60.8849 93.8085C59.8248 93.5672 58.7166 93.4225 57.6083 93.2777C56.5001 93.133 55.44 92.9882 54.3318 92.747C53.2717 92.5539 52.1634 92.3127 51.1034 92.0714C48.9833 91.5889 46.8631 91.0099 44.743 90.5756C44.6948 90.5756 44.6948 90.5274 44.6948 90.5274C44.6948 90.5274 44.6948 90.4791 44.743 90.4791C45.8513 90.3826 46.9595 90.4309 48.0678 90.5756C49.176 90.6721 50.2361 90.8651 51.3443 91.1064C52.4044 91.3477 53.4644 91.5889 54.5245 91.8784C55.5846 92.1197 56.6446 92.4574 57.7047 92.7952C58.7648 93.0847 59.8248 93.3742 60.8849 93.519C61.9449 93.6637 63.1014 93.6637 64.1133 93.5672C64.3542 93.519 64.5951 93.4707 64.7397 93.4225C64.7878 93.3742 64.7878 93.3742 64.7878 93.3742C64.7878 93.3742 64.7878 93.326 64.7878 93.2777V93.0847C64.7397 92.6022 64.6433 92.0714 64.4987 91.5889C64.2096 90.5756 63.7278 89.6106 63.1496 88.6456V88.5973C63.1977 88.4526 63.2459 88.5008 63.2459 88.5008Z" fill="black"/>
<path d="M65.3661 88.5008C66.3297 89.4658 67.1489 90.5273 67.8717 91.6854C68.2089 92.2644 68.5462 92.8917 68.8353 93.5189L69.0281 94.0014L69.1726 94.484C69.2208 94.6287 69.269 94.8217 69.269 95.0147C69.269 95.1112 69.3172 95.2077 69.3172 95.256C69.3172 95.3042 69.3654 95.3525 69.3654 95.449C69.5581 95.9798 69.9918 96.5105 70.4254 96.993C70.8591 97.5238 71.2928 98.0063 71.7264 98.4888C72.6419 99.4539 73.5574 100.419 74.5211 101.384C76.3522 103.314 78.2314 105.244 80.1106 107.126C82.038 109.008 83.9653 110.841 85.8927 112.723C86.8564 113.688 87.8201 114.605 88.6393 115.715C89.0729 116.245 89.5066 116.824 89.7475 117.548C89.7957 117.645 89.7957 117.693 89.8439 117.741C89.8439 117.741 89.8921 117.789 89.8439 117.789C89.8439 117.789 89.8439 117.741 89.7957 117.741C89.7957 117.741 89.7475 117.693 89.6993 117.645C89.6993 117.645 89.5066 117.548 89.362 117.645C89.2657 117.693 89.1693 117.789 89.1693 117.838C89.1693 117.838 89.1693 117.886 89.1211 117.886C89.1211 117.838 89.1211 117.596 89.0729 117.452C89.0247 117.114 88.9765 116.776 88.9284 116.487C88.5429 113.833 88.1092 111.179 87.7719 108.525C87.4828 105.871 87.1937 103.169 87.0973 100.467C87.0492 99.1161 87.0492 97.7651 87.0973 96.414C87.1455 95.7385 87.1937 95.063 87.2901 94.3875C87.3864 93.7119 87.4828 93.0364 87.7237 92.4091C87.7237 92.3609 87.7719 92.3609 87.7719 92.3609L87.8201 92.4091C87.5792 93.7119 87.5792 95.063 87.6274 96.414C87.6756 97.7651 87.7719 99.0678 87.9165 100.419C88.1574 103.073 88.4947 105.727 88.8802 108.38C89.2175 111.034 89.6029 113.688 89.8921 116.342C89.9402 116.68 89.9884 117.017 89.9884 117.355C89.9884 117.548 90.0366 117.693 89.9884 117.934C89.9884 117.934 89.9884 117.982 89.9884 118.031V118.079C89.9884 118.127 89.9402 118.127 89.9402 118.175C89.9402 118.224 89.8439 118.32 89.7475 118.368C89.6029 118.465 89.362 118.368 89.362 118.368C89.2657 118.32 89.2175 118.272 89.2175 118.272L89.1693 118.224C89.1211 118.127 89.0729 118.079 89.0729 118.031C89.0247 117.934 89.0247 117.838 88.9765 117.741C88.7838 117.162 88.4465 116.631 88.061 116.101C87.2901 115.039 86.4228 114.026 85.5554 113.013C83.7726 111.034 81.8934 109.104 79.9178 107.271C77.9423 105.437 75.9185 103.7 73.9429 101.866C72.9792 100.95 72.0155 99.9846 71.1 98.9713C70.6664 98.4888 70.1845 97.9581 69.799 97.4273C69.3654 96.8965 68.9799 96.3658 68.6908 95.5937L68.5944 95.256C68.5462 95.1595 68.5462 95.1112 68.5462 95.0147C68.4981 94.87 68.4981 94.7252 68.4499 94.5322L68.3535 94.0497L68.209 93.5672C68.0162 92.9399 67.7271 92.3609 67.438 91.7819C66.8116 90.6238 66.0888 89.4658 65.3179 88.4043V88.356C65.3179 88.4525 65.3179 88.4525 65.3661 88.5008Z" fill="black"/>
<path d="M90.7592 94.2909C91.0483 95.642 91.2893 96.9448 91.4338 98.2958C91.6266 99.6469 91.7711 100.998 91.8193 102.349C91.8675 103.7 91.8193 105.051 91.9157 106.402C92.012 107.753 92.1566 109.104 92.3493 110.455C92.5421 111.806 92.7348 113.157 92.8312 114.508C92.9757 115.859 93.0721 117.21 93.1203 118.561V119.092C93.1203 119.237 93.1203 119.382 93.1685 119.526C93.2167 119.816 93.313 120.057 93.4576 120.298C93.7467 120.781 94.2285 121.119 94.8068 121.408C95.385 121.698 96.0114 121.891 96.6378 121.987C97.2642 122.132 97.9388 122.229 98.6133 122.277C98.6615 122.277 98.6615 122.325 98.6615 122.325C98.6615 122.325 98.6615 122.373 98.6133 122.373C97.2642 122.566 95.8668 122.518 94.4695 122.084C93.7949 121.843 93.1203 121.457 92.6384 120.781C92.3975 120.443 92.253 120.057 92.1566 119.671C92.1084 119.478 92.1084 119.285 92.1084 119.092V118.61L91.9157 114.557C91.8193 113.206 91.8193 111.854 91.8193 110.503C91.8193 109.152 91.7229 107.801 91.5784 106.45C91.4338 105.099 91.1929 103.748 91.0002 102.445C90.8074 101.094 90.7592 99.7434 90.6629 98.3923C90.6147 97.0413 90.5665 95.6902 90.6147 94.3392C90.6629 94.2427 90.6629 94.2427 90.7592 94.2909C90.711 94.2427 90.7592 94.2427 90.7592 94.2909Z" fill="black"/>
<path d="M20.9878 107.56C22.0479 107.222 23.1079 107.078 24.168 106.885C25.2281 106.74 26.2881 106.595 27.3964 106.547C28.4564 106.499 29.5647 106.547 30.6247 106.402C31.6848 106.306 32.7449 106.064 33.7567 105.727L34.094 105.582C34.1904 105.534 34.2868 105.485 34.3831 105.389C34.4795 105.292 34.6241 105.051 34.7204 104.858C34.9132 104.376 35.0577 103.893 35.2023 103.411C35.4914 102.397 35.7323 101.336 35.9732 100.322C36.5033 98.2476 37.0333 96.1728 37.7079 94.098C37.7079 94.0497 37.7561 94.0497 37.7561 94.0497L37.8043 94.098C37.7079 96.2693 37.4188 98.4406 36.9369 100.564C36.696 101.625 36.4069 102.687 36.0214 103.7C35.8287 104.231 35.6359 104.713 35.3468 105.244C35.2023 105.485 35.0577 105.775 34.7204 105.968C34.5759 106.016 34.4313 106.113 34.2868 106.161L33.8531 106.257C33.564 106.306 33.3231 106.354 33.034 106.402C32.7449 106.45 32.5039 106.45 32.2148 106.499C31.6848 106.547 31.1548 106.643 30.6247 106.74C29.5647 106.933 28.5046 107.174 27.4445 107.367C25.3244 107.657 23.1561 107.753 20.9878 107.657C20.9878 107.657 20.9396 107.657 20.9878 107.56C20.9396 107.608 20.9396 107.608 20.9878 107.56Z" fill="black"/>
<path d="M19.2533 108.863C22.1444 109.201 25.0355 109.635 27.9266 110.117C29.3721 110.359 30.8176 110.6 32.2632 110.938C32.6005 111.034 32.986 111.082 33.3714 111.179C33.516 111.179 33.8533 111.324 34.046 111.517C34.1424 111.613 34.2388 111.661 34.2869 111.758C34.3351 111.854 34.4315 111.951 34.4797 112.047C34.9133 112.771 35.0579 113.495 35.2506 114.267C35.7807 117.21 35.8288 120.154 36.0216 123.049C36.118 124.496 36.2143 125.944 36.3589 127.44C36.5034 128.887 36.6962 130.335 37.0335 131.734C37.1298 132.072 37.2262 132.458 37.2744 132.844C37.2744 132.94 37.3226 133.037 37.3226 133.133C37.3226 133.23 37.3226 133.326 37.3226 133.471C37.3226 133.519 37.3226 133.568 37.2744 133.664C37.2744 133.712 37.2262 133.809 37.178 133.857C37.1298 134.002 36.8889 134.147 36.7444 134.147C36.4071 134.195 36.2143 134.098 36.0216 134.05C35.8288 133.954 35.6361 133.905 35.4916 133.809C35.1543 133.616 34.8652 133.423 34.5279 133.23C33.3232 132.41 32.1186 131.589 30.8658 130.914C30.5285 130.769 30.2394 130.576 29.9021 130.479C29.5648 130.335 29.2757 130.238 28.8903 130.093C28.1675 129.852 27.4929 129.563 26.8183 129.225C25.4691 128.598 24.2163 127.874 22.9154 127.102L19.2051 124.786C18.916 124.593 18.5787 124.4 18.2896 124.255C18.1451 124.159 18.0005 124.11 17.856 124.062C17.8078 124.062 17.8078 124.062 17.7596 124.062C17.7114 124.062 17.7114 124.062 17.6632 124.062C17.5187 124.062 17.4223 124.014 17.3741 123.966C17.3259 123.917 17.2777 123.869 17.2296 123.821C17.1814 123.724 17.1332 123.676 17.1332 123.628C16.9405 123.193 16.9405 122.807 16.8923 122.47C16.8441 122.084 16.7959 121.746 16.7959 121.36C16.6032 118.417 16.6032 115.473 16.6995 112.578C16.6995 112.53 16.6995 112.53 16.7477 112.53C16.7959 112.53 16.7959 112.53 16.7959 112.578C17.0368 115.473 17.1814 118.417 17.5187 121.312C17.5669 121.649 17.615 122.035 17.6632 122.373C17.7114 122.711 17.8078 123.097 17.9041 123.338C17.9041 123.338 17.9523 123.386 17.9041 123.386C17.9041 123.386 17.9041 123.338 17.856 123.338C17.8078 123.29 17.7596 123.29 17.6632 123.29H17.615H17.6632H17.7596C17.8078 123.29 17.856 123.29 17.9041 123.29C17.9523 123.29 18.0487 123.338 18.0969 123.338C18.3378 123.387 18.4824 123.483 18.6751 123.58C19.0124 123.724 19.3497 123.917 19.687 124.11C20.988 124.834 22.1926 125.606 23.4454 126.33C24.6982 127.054 25.951 127.777 27.252 128.405C27.8784 128.742 28.553 129.032 29.2275 129.273C29.5648 129.37 29.9503 129.514 30.2876 129.659C30.6249 129.804 30.9622 129.997 31.2995 130.142C32.6005 130.865 33.8051 131.782 34.9615 132.603C35.2506 132.796 35.5397 133.037 35.8288 133.23C35.9734 133.326 36.118 133.423 36.2625 133.471C36.4071 133.519 36.5516 133.568 36.5998 133.568C36.5998 133.568 36.5998 133.568 36.5998 133.519C36.5998 133.519 36.5998 133.471 36.5998 133.423C36.648 133.278 36.5998 133.133 36.5998 132.94C36.5516 132.603 36.5034 132.265 36.4071 131.879C36.118 130.431 36.0216 128.935 35.9252 127.488L35.5879 123.097C35.4434 121.649 35.2988 120.202 35.1061 118.754C34.9133 117.307 34.6724 115.859 34.3351 114.46C34.1906 113.784 33.9496 113.061 33.6605 112.53C33.6124 112.433 33.5642 112.433 33.516 112.337C33.4678 112.289 33.4196 112.24 33.3714 112.192L33.3232 112.144H33.2751C33.2751 112.144 33.1787 112.096 33.0823 112.096L32.0223 111.854C30.6249 111.565 29.1794 111.275 27.7338 110.938C24.8909 110.359 21.9998 109.731 19.1569 109.056C19.1088 109.056 19.1088 109.008 19.1088 109.008C19.2051 108.911 19.2533 108.863 19.2533 108.863Z" fill="black"/>
<path d="M14.4347 114.46C14.5793 115.087 14.6274 115.666 14.6756 116.294C14.7238 116.921 14.7238 117.5 14.6274 118.127C14.5311 118.754 14.3865 119.333 14.3383 119.961C14.2902 120.588 14.3383 121.167 14.4347 121.794C14.5311 122.422 14.6274 123.001 14.6756 123.58L14.7238 124.014L14.8202 124.4C14.8202 124.448 14.8684 124.496 14.8684 124.545V124.593V124.641C14.9166 124.738 14.9166 124.786 14.9166 124.931C14.9166 125.027 14.8684 125.22 14.8202 125.317C14.772 125.365 14.7238 125.413 14.7238 125.461C14.6756 125.51 14.6274 125.51 14.6274 125.558C14.4829 125.654 14.3383 125.703 14.242 125.703C13.8083 125.799 13.5192 125.751 13.1819 125.703C12.8446 125.654 12.5555 125.606 12.2664 125.51C11.64 125.365 11.0618 125.124 10.5317 124.834C10.4836 124.834 10.4836 124.786 10.5317 124.786L10.5799 124.738C11.2063 124.689 11.8327 124.738 12.4109 124.738C12.7001 124.738 12.9892 124.738 13.2783 124.738C13.5674 124.738 13.8565 124.738 14.0492 124.689C14.0974 124.689 14.0974 124.641 14.0974 124.689C14.0974 124.689 14.0974 124.689 14.0492 124.738L14.001 124.786C13.9529 124.834 13.9529 124.931 13.9529 124.931C13.9529 124.979 13.9529 124.979 13.9529 124.979C13.9529 124.979 13.9529 124.979 13.9529 124.931L13.9047 124.834C13.8565 124.738 13.8565 124.593 13.8083 124.496L13.7601 124.014V123.531C13.7601 122.904 13.8083 122.277 13.9047 121.698C14.001 121.07 14.0492 120.491 14.0492 119.864C14.0492 119.237 13.9047 118.658 13.8565 118.031C13.8565 117.741 13.8565 117.403 13.8565 117.114C13.8565 116.824 13.9047 116.487 13.9529 116.197C14.0492 115.57 14.1456 114.991 14.3383 114.364C14.3383 114.412 14.3865 114.412 14.4347 114.46C14.3865 114.412 14.4347 114.412 14.4347 114.46Z" fill="black"/>
<path d="M13.7118 129.611C14.4346 130.238 15.3019 130.673 16.121 131.155C16.9402 131.638 17.8075 132.072 18.6266 132.554C20.3131 133.471 21.9995 134.34 23.686 135.305C25.3243 136.27 26.9626 137.331 28.649 138.296C30.3355 139.261 32.022 140.178 33.7084 141.143C34.5276 141.626 35.3949 142.108 36.1658 142.735C36.5513 143.025 36.9368 143.363 37.2741 143.797C37.4186 143.99 37.5632 144.231 37.7078 144.424C37.8523 144.617 37.9487 144.858 38.0932 145.1C38.5751 146.016 38.816 147.126 38.5269 148.236C38.3823 148.767 38.045 149.249 37.6596 149.684C37.2741 150.07 36.7922 150.407 36.3104 150.6C35.3467 151.035 34.2866 151.179 33.3229 151.179C32.3593 151.228 31.3474 151.179 30.3837 151.083C28.4563 150.89 26.5289 150.6 24.6497 150.166C24.6015 150.166 24.6015 150.118 24.6015 150.118L24.6497 150.07C26.5771 150.214 28.5045 150.359 30.3837 150.359C31.3474 150.359 32.2629 150.359 33.2266 150.263C34.1903 150.214 35.0576 150.07 35.8285 149.684C36.214 149.539 36.5513 149.249 36.8886 149.008C37.1777 148.719 37.3705 148.381 37.515 147.995C37.7559 147.223 37.6114 146.354 37.2259 145.534C37.1295 145.341 37.0332 145.148 36.8886 144.955L36.5031 144.376C36.2622 144.038 35.9249 143.7 35.5876 143.411C34.8649 142.784 34.0939 142.205 33.3229 141.674C31.7328 140.564 30.0946 139.599 28.4081 138.682C26.7216 137.766 24.9388 136.993 23.2042 136.125C21.4695 135.256 19.7831 134.291 18.1448 133.326C17.3256 132.844 16.5065 132.313 15.7355 131.734C15.3501 131.445 14.9646 131.155 14.5791 130.817C14.1936 130.48 13.8563 130.19 13.519 129.804V129.756C13.6636 129.611 13.7118 129.611 13.7118 129.611Z" fill="black"/>
<path d="M37.804 113.688L38.2377 116.824L38.7196 120.009C39.0568 122.132 39.4423 124.255 39.7796 126.378C40.5024 130.624 41.2252 134.822 41.8034 139.117C41.9479 140.178 42.0925 141.24 42.1888 142.301C42.2852 143.363 42.478 144.424 42.3816 145.582C42.3816 145.582 42.3816 145.631 42.478 145.727C42.5743 145.775 42.6225 145.872 42.7671 145.92C42.9598 146.017 43.2007 146.161 43.4417 146.21C43.9235 146.403 44.4535 146.547 44.9836 146.644C46.0436 146.885 47.0555 147.078 48.1156 147.223C50.2357 147.561 52.3558 147.754 54.5241 147.898C56.6443 148.091 58.8126 148.188 60.9327 148.236C61.4627 148.236 61.9928 148.236 62.5228 148.236C62.7155 148.236 63.0046 148.14 63.1492 148.043C63.3419 147.947 63.4865 147.802 63.6792 147.609C63.9683 147.223 64.3056 146.74 64.6429 146.306C64.7393 146.21 64.8357 146.113 64.8838 145.968L64.932 145.872V145.824C64.932 145.824 64.9802 145.775 64.9802 145.727C65.0284 145.534 65.0766 145.293 65.0766 145.052C65.0766 144.038 64.932 142.977 64.7393 141.915C64.5465 140.854 64.3538 139.84 64.1129 138.779C63.631 136.704 63.101 134.629 62.4264 132.603C62.2819 132.12 62.0891 131.589 61.8964 131.107C61.7037 130.624 61.5109 130.142 61.27 129.708C60.7881 128.887 60.0172 128.164 59.2462 127.488C57.6561 126.089 55.9215 124.882 54.1387 123.676C52.3558 122.47 50.573 121.312 48.742 120.202C46.9109 119.092 45.0799 117.982 43.2489 116.873L40.4542 115.232L39.0568 114.412L38.3823 114.026L38.045 113.833L37.8522 113.736C37.8522 113.736 37.804 113.736 37.804 113.688ZM37.7559 113.592C37.9004 113.592 37.9004 113.64 37.9968 113.688L38.1895 113.785L38.575 113.978L39.2978 114.315L40.7433 115.039C41.707 115.522 42.6707 116.004 43.5862 116.487C45.4654 117.5 47.3928 118.513 49.2238 119.575C51.103 120.636 52.934 121.746 54.7651 122.904C56.5961 124.062 58.3307 125.317 60.0172 126.716C60.8363 127.44 61.6555 128.212 62.2819 129.225C62.571 129.756 62.7637 130.238 62.9565 130.769C63.1492 131.3 63.2937 131.782 63.4865 132.313C64.1129 134.388 64.6429 136.463 65.0766 138.586C65.3175 139.647 65.5102 140.709 65.6548 141.77C65.7994 142.832 65.9439 143.942 65.8957 145.052C65.8957 145.341 65.8475 145.631 65.7512 145.968C65.703 146.065 65.703 146.113 65.6548 146.21L65.5584 146.354L65.5102 146.451C65.4139 146.547 65.3175 146.644 65.2693 146.74C64.932 147.126 64.6429 147.561 64.2574 147.995C64.0647 148.188 63.8238 148.429 63.5347 148.574C63.2456 148.719 62.9565 148.767 62.6192 148.815C62.0409 148.815 61.5109 148.767 60.9809 148.767C56.6924 148.477 52.404 148.091 48.1638 147.512C47.1037 147.368 46.0436 147.223 44.9836 146.982C44.4535 146.885 43.9235 146.74 43.3935 146.596C43.1525 146.499 42.8634 146.403 42.6225 146.306C42.478 146.258 42.3816 146.161 42.237 146.065C42.1407 145.968 41.9479 145.775 41.9961 145.486C41.9961 144.473 41.8034 143.411 41.6588 142.349L41.1288 139.165C40.406 134.919 39.7314 130.673 39.1532 126.426C38.8641 124.303 38.575 122.18 38.3341 120.009C38.1895 118.947 38.0932 117.886 37.9968 116.776L37.9004 115.184C37.7559 114.701 37.7559 114.122 37.7559 113.592Z" fill="black"/>
<path d="M68.3054 105.727C68.9799 109.78 69.51 113.929 69.8954 118.031C70.0882 120.106 70.2327 122.18 70.2809 124.255C70.2809 124.786 70.2809 125.317 70.2809 125.847C70.2809 126.378 70.2327 126.909 70.1846 127.44C70.0882 128.453 70.0882 129.466 70.1364 130.48C70.2327 132.506 70.6182 134.533 71.1964 136.511C71.7747 138.489 72.5456 140.419 73.4129 142.253C73.943 143.073 74.8585 143.604 75.8222 143.894C76.7859 144.183 77.7977 144.328 78.8578 144.376C80.8816 144.473 82.9535 144.183 84.8809 143.556C85.3627 143.411 85.8446 143.218 86.2301 142.977C86.6637 142.735 87.0492 142.446 87.1937 142.108C87.2419 142.06 87.2419 141.915 87.2901 141.77L87.3865 141.384L87.4829 140.612C87.531 140.082 87.6274 139.599 87.6756 139.068C87.8683 137.042 87.9647 134.967 88.0129 132.892C88.0129 130.817 87.9647 128.791 87.772 126.764C87.5792 124.738 87.2419 122.711 86.6637 120.781L86.4228 120.057C86.3746 119.961 86.2301 119.72 86.0855 119.527C85.7964 119.141 85.4591 118.755 85.1218 118.368C84.4472 117.596 83.7245 116.873 82.9535 116.197C81.4598 114.75 79.966 113.399 78.3759 112.048C76.7859 110.697 75.2439 109.394 73.5575 108.187C72.7383 107.608 71.871 106.981 71.0037 106.499C70.57 106.257 70.0882 106.016 69.6063 105.823C69.3654 105.727 69.1245 105.678 68.8836 105.63C68.739 105.534 68.4499 105.582 68.3054 105.727ZM68.209 105.678C68.4499 105.437 68.6908 105.389 68.9799 105.389C69.269 105.389 69.51 105.437 69.7509 105.534C70.2809 105.678 70.7146 105.92 71.1964 106.113C72.1119 106.595 73.0274 107.126 73.8948 107.705C75.6294 108.863 77.3159 110.069 78.906 111.372C80.5443 112.675 82.0862 114.026 83.6281 115.425C84.399 116.149 85.1218 116.873 85.8446 117.596C86.1819 117.982 86.5673 118.369 86.9046 118.803C87.0492 119.044 87.2419 119.237 87.3865 119.575L87.6274 120.347C88.2538 122.373 88.5911 124.448 88.7838 126.523C88.9766 128.598 88.9766 130.721 88.9284 132.796C88.8802 134.871 88.7357 136.945 88.4466 139.02C88.3984 139.551 88.302 140.033 88.2056 140.564C88.1093 141.095 88.0611 141.577 87.8202 142.156C87.6756 142.446 87.4347 142.687 87.2419 142.88C87.001 143.073 86.7601 143.218 86.5192 143.315C86.0373 143.556 85.5555 143.749 85.0254 143.894C83.0017 144.473 80.8816 144.617 78.8096 144.521C77.7496 144.473 76.7377 144.328 75.7258 143.99C74.7621 143.652 73.702 143.17 73.1238 142.253C72.642 141.288 72.2083 140.371 71.8228 139.406C71.3892 138.441 71.0037 137.476 70.6664 136.511C69.9918 134.533 69.51 132.506 69.3172 130.383C69.2209 129.322 69.2209 128.26 69.3172 127.199C69.3654 126.668 69.3654 126.185 69.4136 125.654C69.4136 125.124 69.4618 124.641 69.4136 124.11C69.4136 122.036 69.269 120.009 69.1727 117.934C68.8836 113.929 68.5463 109.828 68.209 105.678Z" fill="black"/>
<path d="M98.8541 139.309C97.8905 139.792 96.8786 140.226 95.8185 140.564C94.7584 140.902 93.6984 141.24 92.5901 141.384C92.301 141.433 92.0119 141.433 91.7228 141.433C91.4337 141.433 91.0964 141.384 90.7109 141.191C90.5182 141.095 90.3255 140.854 90.2773 140.612C90.2291 140.371 90.2773 140.13 90.2773 139.985C90.3255 139.744 90.3736 139.503 90.4218 139.213C90.6146 138.151 90.7109 137.09 90.8555 135.98C91.0964 133.809 91.0964 131.638 91.0482 129.466C90.9519 127.295 91 125.124 91 122.952C91 122.663 91.241 122.47 91.4819 122.47C91.6264 122.47 91.771 122.566 91.8674 122.663C92.4938 123.531 93.072 124.4 93.6502 125.268C94.2284 126.137 94.8066 127.005 95.3848 127.922C95.9631 128.791 96.4931 129.707 97.0713 130.624C97.6013 131.541 98.1314 132.458 98.6614 133.375V133.423H98.6132C97.9386 132.603 97.2641 131.782 96.6377 130.962C95.9631 130.142 95.3367 129.273 94.7103 128.453C94.0839 127.584 93.4575 126.764 92.8792 125.896C92.2528 125.027 91.6746 124.159 91.0964 123.29L92.0119 123C91.9156 125.172 91.8674 127.343 91.6264 129.514C91.4337 131.686 91.2892 133.857 91.2892 136.028C91.2892 137.138 91.2892 138.2 91.241 139.309C91.241 139.599 91.1928 139.889 91.1446 140.178C91.1446 140.323 91.1446 140.323 91.1446 140.371C91.1446 140.371 91.1446 140.419 91.1928 140.419C91.2892 140.468 91.5301 140.516 91.771 140.564C92.0119 140.564 92.2529 140.564 92.542 140.516C93.5538 140.419 94.6139 140.178 95.674 139.937L98.8541 139.165C98.9023 139.165 98.9023 139.165 98.9023 139.213C98.9023 139.261 98.8541 139.309 98.8541 139.309Z" fill="black"/>
<path d="M39.4905 62.8792C40.8743 62.8792 41.9961 61.7559 41.9961 60.3701C41.9961 58.9844 40.8743 57.8611 39.4905 57.8611C38.1067 57.8611 36.9849 58.9844 36.9849 60.3701C36.9849 61.7559 38.1067 62.8792 39.4905 62.8792Z" fill="#ECCEFF"/>
<path d="M80.1105 78.754C81.6007 78.754 82.8088 77.5442 82.8088 76.0519C82.8088 74.5596 81.6007 73.3499 80.1105 73.3499C78.6202 73.3499 77.4121 74.5596 77.4121 76.0519C77.4121 77.5442 78.6202 78.754 80.1105 78.754Z" fill="#FAE058"/>
<path d="M83.9167 177.959C85.886 177.959 87.4824 176.36 87.4824 174.388C87.4824 172.416 85.886 170.818 83.9167 170.818C81.9475 170.818 80.3511 172.416 80.3511 174.388C80.3511 176.36 81.9475 177.959 83.9167 177.959Z" fill="#0049E5"/>
<path d="M5.03856 104.81C6.12964 104.81 7.01413 103.924 7.01413 102.832C7.01413 101.739 6.12964 100.853 5.03856 100.853C3.94748 100.853 3.06299 101.739 3.06299 102.832C3.06299 103.924 3.94748 104.81 5.03856 104.81Z" fill="#ECCEFF"/>
<path d="M46.3328 86.6189C47.211 86.6189 47.9229 85.906 47.9229 85.0266C47.9229 84.1472 47.211 83.4343 46.3328 83.4343C45.4546 83.4343 44.7427 84.1472 44.7427 85.0266C44.7427 85.906 45.4546 86.6189 46.3328 86.6189Z" fill="#0049E5"/>
<path d="M5.42414 63.8925C8.21836 63.8925 10.4835 61.6242 10.4835 58.8261C10.4835 56.028 8.21836 53.7597 5.42414 53.7597C2.62991 53.7597 0.364746 56.028 0.364746 58.8261C0.364746 61.6242 2.62991 63.8925 5.42414 63.8925Z" fill="#FAE058"/>
<path d="M200.187 47.3906C202.422 47.3906 204.234 45.5759 204.234 43.3375C204.234 41.099 202.422 39.2843 200.187 39.2843C197.951 39.2843 196.139 41.099 196.139 43.3375C196.139 45.5759 197.951 47.3906 200.187 47.3906Z" fill="#0049E5"/>
<path d="M124.681 37.2577C127.662 37.2577 130.078 34.8381 130.078 31.8535C130.078 28.8689 127.662 26.4493 124.681 26.4493C121.701 26.4493 119.285 28.8689 119.285 31.8535C119.285 34.8381 121.701 37.2577 124.681 37.2577Z" fill="#77F169"/>
<path d="M107.335 49.7065C108.532 49.7065 109.503 48.7344 109.503 47.5352C109.503 46.336 108.532 45.3639 107.335 45.3639C106.137 45.3639 105.167 46.336 105.167 47.5352C105.167 48.7344 106.137 49.7065 107.335 49.7065Z" fill="#0049E5"/>
<path d="M6.05059 151.421C7.67391 151.421 8.98986 150.103 8.98986 148.477C8.98986 146.852 7.67391 145.534 6.05059 145.534C4.42728 145.534 3.11133 146.852 3.11133 148.477C3.11133 150.103 4.42728 151.421 6.05059 151.421Z" fill="#77F169"/>
<path d="M230.639 141.963C231.518 141.963 232.229 141.25 232.229 140.371C232.229 139.492 231.518 138.779 230.639 138.779C229.761 138.779 229.049 139.492 229.049 140.371C229.049 141.25 229.761 141.963 230.639 141.963Z" fill="#ECCEFF"/>
<path d="M219.942 73.4463C222.577 73.4463 224.712 71.3076 224.712 68.6694C224.712 66.0311 222.577 63.8925 219.942 63.8925C217.308 63.8925 215.172 66.0311 215.172 68.6694C215.172 71.3076 217.308 73.4463 219.942 73.4463Z" fill="#F089C0"/>
<path d="M181.491 55.9791C182.555 55.9791 183.418 55.115 183.418 54.0491C183.418 52.9831 182.555 52.119 181.491 52.119C180.426 52.119 179.563 52.9831 179.563 54.0491C179.563 55.115 180.426 55.9791 181.491 55.9791Z" fill="#F089C0"/>
<path d="M70.5215 28.3312C71.7723 28.3312 72.7862 27.3158 72.7862 26.0634C72.7862 24.8109 71.7723 23.7955 70.5215 23.7955C69.2708 23.7955 68.2568 24.8109 68.2568 26.0634C68.2568 27.3158 69.2708 28.3312 70.5215 28.3312Z" fill="#F089C0"/>
<path d="M81.1707 6.42499C82.7142 6.42499 83.9654 5.17202 83.9654 3.62641C83.9654 2.08079 82.7142 0.82782 81.1707 0.82782C79.6272 0.82782 78.376 2.08079 78.376 3.62641C78.376 5.17202 79.6272 6.42499 81.1707 6.42499Z" fill="#FAE058"/>
</svg>
