<svg width="328" height="218" viewBox="0 0 328 218" fill="none" xmlns="http://www.w3.org/2000/svg">
<ellipse cx="58.5" cy="56.5" rx="28.5" ry="8.5" fill="#88A2FF"/>
<ellipse cx="220.5" cy="151.5" rx="58.5" ry="48.5" fill="#FEEC72"/>
<ellipse cx="10" cy="209" rx="10" ry="9" fill="#FEEC72"/>
<ellipse cx="117" cy="130" rx="10" ry="9" fill="#FF5EAD"/>
<ellipse cx="162" cy="39" rx="10" ry="9" fill="#FFA2D0"/>
<ellipse cx="318" cy="9" rx="10" ry="9" fill="#493BEB"/>
<ellipse cx="69" cy="106.5" rx="18" ry="21.5" fill="#32E27C"/>
<path fill-rule="evenodd" clip-rule="evenodd" d="M195.878 55.0639C197.607 51.4131 201.312 46.4756 201.215 47.8561C201.118 49.2365 205.268 66.677 206.14 67.1515C207.013 67.626 222.741 68.4443 222.515 69.1272C222.289 69.8102 222.493 69.9996 220.46 71.0032C219.105 71.6723 214.3 74.6798 206.047 80.0257C205.571 80.1852 205.578 80.771 206.065 81.7831C206.797 83.3011 208.637 91.4574 209.329 94.0106C210.02 96.5637 211.319 103.375 210.388 103.999C209.457 104.622 205.535 99.9988 204.722 98.9708C203.909 97.9427 198.549 85.9867 196.949 85.8749C195.35 85.7631 191.419 90.5896 190.572 91.4498C189.724 92.3099 180.903 101.154 177.949 101.339C174.994 101.524 176.106 99.2093 178.35 95.6053C179.845 93.2025 182.884 87.5665 187.466 78.6971C185.547 77.6776 183.839 76.8677 182.342 76.2673C180.096 75.3668 173.008 72.4626 172.014 72.0883C171.021 71.714 174.297 70.5716 176.75 69.345C179.204 68.1183 188.36 65.9082 191.312 66.1146C193.203 61.1814 194.725 57.4978 195.878 55.0639Z" stroke="#263238" stroke-width="5" stroke-linecap="round" stroke-linejoin="round"/>
<path fill-rule="evenodd" clip-rule="evenodd" d="M132.706 59.8739C133.569 55.9278 137.073 50.184 137.289 51.5508C137.506 52.9176 145.472 68.9776 146.429 69.2437C147.386 69.5098 162.895 66.7691 162.828 67.4853C162.762 68.2015 163.003 68.3403 161.248 69.7755C160.078 70.7323 156.073 74.7434 149.234 81.809C148.807 82.0713 148.944 82.6407 149.647 83.5171C150.702 84.8317 154.33 92.3649 155.578 94.6971C156.826 97.0293 159.624 103.374 158.857 104.191C158.089 105.008 153.228 101.385 152.205 100.567C151.181 99.7477 143.269 89.3039 141.685 89.5547C140.102 89.8055 137.358 95.3927 136.725 96.4214C136.093 97.4501 129.488 108.052 126.65 108.897C123.813 109.742 124.376 107.236 125.751 103.22C126.668 100.542 128.361 94.367 130.83 84.6943C128.732 84.1324 126.885 83.7275 125.291 83.4793C122.9 83.1071 115.34 81.8719 114.288 81.7306C113.236 81.5894 116.171 79.7394 118.286 77.9923C120.4 76.2452 125.232 73.44 128.155 72.9771C130.613 66.8725 132.13 62.5047 132.706 59.8739Z" stroke="#263238" stroke-width="5" stroke-linecap="round" stroke-linejoin="round"/>
<path d="M143.826 126.23C168.119 177.052 248.869 88.8561 145.645 121.256" stroke="#263238" stroke-width="5" stroke-linecap="round" stroke-linejoin="round"/>
</svg>
