<svg width="80" height="72" viewBox="0 0 80 72" fill="none" xmlns="http://www.w3.org/2000/svg">
<path d="M6.64453 28.5692C6.64453 28.5692 2.53857 31.3109 1.8101 35.5103C1.08162 39.7098 1.8101 47.3036 1.8101 47.3036L29.7792 46.4985C29.7792 46.4985 31.2141 48.348 34.7461 49.7406C38.2781 51.1332 50.309 54.2664 52.8476 52.0688C55.3862 49.8711 55.7395 46.5203 55.7395 46.5203C55.7395 46.5203 58.543 44.7143 58.543 43.2782C58.543 41.8421 57.9028 38.9047 57.9028 38.9047C57.9028 38.9047 59.5584 39.4051 59.4481 36.8811C59.3377 34.3353 60.0662 32.2682 57.9028 32.203C57.9028 32.203 74.0838 31.3979 75.8057 31.3979C79.2494 31.3979 79.2273 25.1531 75.298 25.1096H52.2957C52.2957 25.1096 51.788 21.0624 46.8653 19.2347C41.9425 17.407 42.3399 17.407 39.4701 19.2347C36.6004 21.0624 31.0375 29.4831 31.0375 29.4831L6.64453 28.5692Z" fill="#0049E5"/>
<path d="M5.78355 27.9166C6.84315 27.8949 7.88068 27.9166 8.94028 27.9601C9.99989 28.0037 11.0374 28.0472 12.097 28.1124L13.6643 28.2648C14.1941 28.3083 14.7019 28.3736 15.2317 28.3953C16.2913 28.4606 17.3288 28.4823 18.3884 28.5041C19.448 28.5041 20.4855 28.5259 21.5451 28.5476C22.6047 28.5694 23.6423 28.5911 24.7019 28.6347L27.8586 28.7652C28.3884 28.787 28.9182 28.8087 29.4259 28.8305C29.6908 28.8305 29.9557 28.8522 30.2206 28.8522C30.4855 28.8522 30.7504 28.8522 31.0153 28.8522C31.0374 28.8522 31.0374 28.8522 31.0374 28.874C31.0374 28.8958 31.0374 28.8958 31.0153 28.8958C30.4855 28.961 29.9557 29.0263 29.448 29.0481C28.9182 29.0916 28.3884 29.0916 27.8586 29.1134C27.3288 29.1351 26.799 29.1351 26.2692 29.1351C25.7394 29.1351 25.2096 29.1351 24.6798 29.1134C23.6202 29.0916 22.5827 29.0263 21.5231 28.9828C20.4635 28.9175 19.4259 28.8522 18.3663 28.7652C17.3067 28.6782 16.2692 28.5911 15.2096 28.5694C14.15 28.5259 13.1125 28.5476 12.0529 28.5259C10.9933 28.5041 9.95574 28.4171 8.89613 28.33C7.83653 28.243 6.799 28.1342 5.76147 28.0037C5.78355 27.9601 5.76147 27.9384 5.78355 27.9166Z" fill="black"/>
<path d="M31.5232 36.8593C31.192 36.3153 30.883 35.7496 30.6402 35.1621C30.3753 34.5746 30.1545 33.9654 30.0221 33.3561C29.8675 32.7251 29.8013 32.0941 29.8455 31.4414C29.8455 31.3543 29.8455 31.2673 29.8675 31.202L29.9117 30.9627C29.9338 30.8756 29.9338 30.8104 29.9558 30.7233L30.0441 30.484C30.1766 30.1794 30.3311 29.8965 30.5077 29.6136C31.2141 28.5257 32.053 27.5683 32.9139 26.6109C33.7748 25.6535 34.6799 24.7614 35.607 23.8693C36.5342 22.9772 37.4834 22.1286 38.4327 21.28C38.9183 20.8666 39.3819 20.4314 39.8896 20.018C40.3753 19.6046 40.8609 19.1911 41.3686 18.7995C41.6335 18.6036 41.8984 18.4513 42.2075 18.299C42.5165 18.1685 42.8256 18.0814 43.1567 18.0597C43.819 17.9944 44.4591 18.1685 45.0772 18.3643C46.2914 18.7995 47.4613 19.3652 48.6092 19.9092C49.1832 20.192 49.7572 20.4749 50.3311 20.7795C50.9051 21.0842 51.4569 21.4105 51.9867 21.8022C52.4945 22.1939 53.0022 22.6943 53.2671 23.3036C53.532 23.9346 53.5982 24.6091 53.5761 25.2401C53.5541 25.8929 53.4658 26.5239 53.3995 27.1549C53.3112 27.7859 53.2009 28.4169 53.0684 29.0479C52.958 29.6789 52.8035 30.2881 52.6711 30.8974C52.6048 31.202 52.5386 31.5066 52.4945 31.8113L52.4724 32.0288L52.4503 32.2464V32.464L52.4724 32.5728C52.4724 32.6163 52.4724 32.6163 52.4945 32.7034C52.5165 32.9645 52.3841 33.1603 52.2516 33.2909C52.1192 33.4214 51.9647 33.5302 51.8101 33.6172C51.5011 33.7913 51.17 33.9001 50.8388 33.9654C50.1766 34.1177 49.4923 34.0959 48.83 33.9219C48.1677 33.726 47.5717 33.3344 47.1744 32.7904C46.9757 32.5293 46.8212 32.2247 46.6887 31.9201L46.5121 31.4849L46.3576 31.0279C45.9382 29.8312 45.6512 28.5474 45.6733 27.2637C45.6733 26.6327 45.7836 25.9799 46.0044 25.3706C46.2251 24.7614 46.5563 24.2174 47.0198 23.7387H47.0419V23.7605C46.6225 24.2392 46.3134 24.8049 46.1368 25.3924C45.9602 25.9799 45.894 26.6109 45.894 27.2419C45.894 27.8729 45.9823 28.4822 46.1368 29.0914C46.2693 29.7007 46.468 30.2881 46.6887 30.8756L46.8653 31.3108L47.0419 31.746C47.1744 32.0288 47.3068 32.29 47.4834 32.5293C47.8587 33.008 48.3664 33.3344 48.9625 33.4867C49.5364 33.639 50.1766 33.639 50.7505 33.5085C51.0375 33.4432 51.3245 33.3344 51.5894 33.2038C51.7218 33.1386 51.8322 33.0515 51.9205 32.9645C52.0088 32.8774 52.053 32.7686 52.053 32.7251C52.053 32.7251 52.053 32.6599 52.0309 32.6163L52.0088 32.4858V32.2247L52.0309 31.9636L52.053 31.7242C52.0971 31.3978 52.1633 31.0932 52.2296 30.7668L52.6269 28.9173C52.7594 28.3081 52.8697 27.6771 52.958 27.0678C53.0463 26.4368 53.1346 25.8276 53.1567 25.1966C53.1788 24.5873 53.1346 23.9563 52.9139 23.4124C52.6931 22.8684 52.2516 22.4114 51.766 22.0198C51.2803 21.6281 50.7285 21.3017 50.1766 20.9971C49.6247 20.6707 49.0507 20.3879 48.4989 20.0833C47.9249 19.7786 47.373 19.4958 46.7991 19.2129C46.2251 18.93 45.6512 18.6689 45.0331 18.4731C44.4371 18.2773 43.7969 18.1032 43.1788 18.1685C42.8697 18.1902 42.5607 18.2773 42.2737 18.4078C41.9867 18.5384 41.7218 18.7124 41.479 18.9083C40.4856 19.6916 39.5585 20.5619 38.6313 21.4323C37.7042 22.3027 36.7991 23.1948 35.894 24.1086C34.9889 25.0007 34.1059 25.9146 33.245 26.8502C32.3841 27.7859 31.5232 28.7215 30.8388 29.7659C30.0441 30.7668 30.0441 32.0724 30.287 33.2909C30.5519 34.5094 31.0154 35.7061 31.6115 36.8158V36.8376C31.5452 36.8811 31.5232 36.8811 31.5232 36.8593Z" fill="black"/>
<path d="M45.6952 27.4813C45.5627 27.0678 45.3641 26.7415 45.1654 26.3716C45.0771 26.1757 45.0109 25.9799 44.8784 25.8058C44.746 25.6318 44.5914 25.5012 44.4148 25.3707C44.2382 25.2619 44.0616 25.1313 43.885 25.0008C43.7084 24.8702 43.5318 24.7614 43.3773 24.6309C43.0462 24.3697 42.7371 24.0869 42.406 23.7823V23.7605H42.4281C42.8917 23.8258 43.289 24.0216 43.6643 24.2827C43.8409 24.4133 43.9954 24.5656 44.172 24.7179C44.2382 24.8049 44.3265 24.8702 44.3928 24.9572C44.459 25.0443 44.5252 25.1313 44.5914 25.2183C44.7239 25.4142 44.8563 25.5665 44.9888 25.7406C45.0771 25.8276 45.1433 25.8929 45.2316 25.9581C45.3199 26.0234 45.4082 26.1105 45.4744 26.1975C45.5407 26.2845 45.6069 26.3716 45.651 26.4804C45.6952 26.5891 45.7393 26.6979 45.7614 26.8067C45.8276 27.0243 45.8056 27.2854 45.7173 27.4813C45.7393 27.503 45.7173 27.503 45.6952 27.4813C45.6952 27.503 45.6952 27.503 45.6952 27.4813Z" fill="black"/>
<path d="M52.8255 28.4604C52.1853 28.591 51.7217 28.9609 51.2802 29.3526C51.0595 29.5484 50.7946 29.7442 50.64 30.0271C50.5517 30.1576 50.5076 30.3099 50.4414 30.4405C50.3972 30.5928 50.3531 30.7451 50.3531 30.8974C50.331 31.0497 50.331 31.2021 50.331 31.3544C50.331 31.4196 50.331 31.5067 50.331 31.572V31.7895C50.331 31.9419 50.3531 32.0942 50.3751 32.2247C50.3972 32.4206 50.3972 32.3988 50.4634 32.4641C50.5297 32.5076 50.6842 32.5511 50.8166 32.5946C50.9491 32.6164 51.1036 32.6381 51.2581 32.6381C51.5672 32.6599 51.8762 32.6599 52.2074 32.6817C52.2294 32.6817 52.2294 32.6817 52.2294 32.7034C52.2294 32.7034 52.2294 32.7252 52.2074 32.7252C51.8983 32.8557 51.5893 32.9428 51.2581 32.9863C51.1036 33.008 50.927 33.0298 50.7504 33.008C50.5738 32.9863 50.3972 32.9645 50.1985 32.8557C50.1102 32.7905 49.9999 32.7034 49.9557 32.5729C49.9336 32.5511 49.9336 32.5076 49.9336 32.4858V32.4423V32.4206V32.29C49.9336 32.1159 49.9116 31.9636 49.9336 31.7895L49.9557 31.5502C49.9778 31.4632 49.9778 31.3761 49.9999 31.3108C50.0219 31.1585 50.0882 30.9845 50.1323 30.8322C50.1765 30.6798 50.2648 30.5275 50.331 30.3752C50.4193 30.2229 50.4634 30.0924 50.5517 29.94C50.6842 29.6572 50.8387 29.3526 51.0374 29.0914C51.1478 28.9609 51.2581 28.8521 51.4127 28.7433C51.5451 28.6345 51.6996 28.5692 51.8542 28.504C52.1632 28.3734 52.5385 28.3081 52.8475 28.4169C52.8255 28.4169 52.8475 28.4169 52.8255 28.4604C52.8255 28.4387 52.8255 28.4604 52.8255 28.4604Z" fill="black"/>
<path d="M53.3332 25.066C54.6798 24.979 56.0264 24.9355 57.3729 24.892C58.7195 24.8702 60.0661 24.8485 61.4127 24.8702C62.7592 24.892 64.1058 24.9573 65.4524 24.979C66.799 25.0008 68.1456 24.9573 69.4921 24.9355C70.8387 24.892 72.1853 24.8702 73.5319 24.8702C74.2162 24.8702 74.8784 24.8702 75.5628 24.892C76.2692 24.9137 76.9535 25.0878 77.5937 25.4142C77.9027 25.5883 78.1897 25.7841 78.4546 26.0452C78.6974 26.3063 78.9182 26.5892 79.0948 26.8938C79.4259 27.5248 79.5363 28.2646 79.3597 28.9609C79.2934 29.309 79.1389 29.6354 78.9403 29.9183C78.7416 30.2011 78.4987 30.4622 78.2338 30.6798C77.9689 30.8974 77.6599 31.0497 77.3288 31.1803C77.0197 31.3108 76.6665 31.3761 76.3354 31.4196C76.3133 31.4196 76.3133 31.4196 76.3133 31.3979C76.3133 31.3761 76.3133 31.3761 76.3354 31.3761C76.9756 31.202 77.6157 30.9409 78.1014 30.5058C78.3442 30.2882 78.565 30.0488 78.7195 29.766C78.874 29.4831 78.9844 29.2002 79.0285 28.8956C79.1389 28.2864 79.0285 27.6336 78.7195 27.1114C78.565 26.8503 78.3663 26.5892 78.1455 26.3716C77.9248 26.154 77.6599 25.9799 77.3729 25.8276C77.0859 25.6753 76.799 25.5665 76.4899 25.4795C76.1809 25.4142 75.8718 25.3489 75.5407 25.3272C74.8784 25.2836 74.1941 25.2836 73.5319 25.2619C72.1853 25.2401 70.8387 25.1966 69.4921 25.1531C68.1456 25.1096 66.799 25.0878 65.4524 25.1096C64.7901 25.1096 64.1058 25.1313 63.4436 25.1531L61.4347 25.2184C60.0882 25.2401 58.7416 25.2401 57.395 25.2184C56.0484 25.1966 54.7019 25.1531 53.3553 25.0878C53.3111 25.1096 53.3111 25.1096 53.3332 25.066C53.3111 25.0878 53.3111 25.066 53.3332 25.066Z" fill="black"/>
<path d="M75.7836 31.398C74.8123 31.5721 73.841 31.6591 72.8697 31.7461C71.8984 31.8332 70.905 31.8984 69.9337 31.9202H68.4547C67.969 31.9202 67.4834 31.9202 66.9757 31.9202C66.0044 31.942 65.011 32.0072 64.0397 32.0725C63.0684 32.1378 62.075 32.2031 61.1037 32.2466C60.1324 32.2901 59.139 32.3119 58.1677 32.3336C57.1964 32.3336 56.203 32.3336 55.2317 32.2683C54.2604 32.2248 53.2671 32.1595 52.2958 32.0072C52.2737 32.0072 52.2737 31.9855 52.2737 31.9855L52.2958 31.9637C54.2604 31.9637 56.203 31.8984 58.1677 31.8549C59.139 31.8332 60.1324 31.8332 61.1037 31.8332C62.075 31.8332 63.0684 31.8332 64.0397 31.8332C65.011 31.8332 66.0044 31.8332 66.9757 31.7679C67.947 31.7244 68.9183 31.6156 69.9117 31.5285C71.8763 31.398 73.8189 31.3545 75.7836 31.3327C75.8057 31.3327 75.8057 31.3327 75.8057 31.3545C75.7836 31.398 75.7836 31.398 75.7836 31.398Z" fill="black"/>
<path d="M56.9536 32.0941C57.1523 32.0506 57.373 32.0289 57.5717 32.0289C57.682 32.0289 57.7924 32.0289 57.8807 32.0506C57.9911 32.0506 58.1015 32.0724 58.1898 32.0941C58.6092 32.1594 59.0507 32.3553 59.3377 32.7034C59.6467 33.0515 59.7571 33.465 59.8454 33.8784C59.9337 34.2918 59.9779 34.6835 60.022 35.0969C60.0662 35.5103 60.1103 35.9019 60.1103 36.3154C60.1103 36.7288 60.0882 37.164 59.9337 37.5774C59.7792 37.9908 59.4481 38.3825 59.0728 38.5783C58.6975 38.7959 58.256 38.8829 57.8587 38.9264C57.8366 38.9264 57.8366 38.9264 57.8366 38.9047C57.8366 38.9047 57.8366 38.8829 57.8587 38.8829C58.2339 38.7088 58.5871 38.5348 58.8962 38.2954C59.2052 38.0561 59.4039 37.7514 59.5143 37.4251C59.7571 36.7288 59.6909 35.9019 59.8013 35.0969C59.8454 34.7052 59.8454 34.2918 59.713 33.9001C59.6026 33.5085 59.3598 33.1821 59.0728 32.9645C59.0066 32.8992 58.9403 32.8339 58.852 32.7904C58.7637 32.7469 58.6975 32.6816 58.6092 32.6381C58.4326 32.5511 58.2781 32.464 58.0794 32.4205C57.9028 32.3553 57.7041 32.3117 57.5055 32.2682C57.3068 32.2247 57.1081 32.2029 56.9094 32.1594C56.9315 32.1377 56.9315 32.1159 56.9536 32.0941C56.9315 32.0941 56.9315 32.0941 56.9536 32.0941Z" fill="black"/>
<path d="M46.8651 32.0072C46.6444 32.1595 46.4015 32.3118 46.2029 32.4859C46.0042 32.6599 45.8276 32.8558 45.6731 33.0734C45.364 33.5085 45.2095 34.009 45.1433 34.5312C45.055 35.5539 44.9667 36.7941 45.8938 37.3163C46.3353 37.5992 46.8651 37.7297 47.3949 37.8603C47.9247 37.9691 48.4766 38.0344 49.0285 38.0779C50.1322 38.1649 51.236 38.1214 52.3397 38.0779C53.4435 38.0344 54.5693 38.0126 55.6951 38.1649C56.247 38.2302 56.821 38.339 57.3508 38.5783C57.6157 38.6871 57.8806 38.8612 58.1013 39.0788C58.3221 39.2964 58.4987 39.5792 58.587 39.8839L58.609 39.9927L58.6311 40.1015C58.6311 40.1667 58.6532 40.2538 58.6532 40.319L58.6753 40.7325C58.6973 41.0153 58.6973 41.2982 58.6973 41.5593C58.6753 42.125 58.6311 42.6908 58.4324 43.2347C58.2558 43.7787 57.9247 44.2792 57.5274 44.6708C57.1079 45.0625 56.6223 45.3453 56.1146 45.5629C56.0925 45.5629 56.0925 45.5629 56.0925 45.5412V45.5194C56.5561 45.2365 57.0196 44.9102 57.3508 44.4967C57.704 44.1051 57.9468 43.6264 58.1013 43.1259C58.2338 42.6255 58.2779 42.0815 58.2779 41.5593C58.2779 41.2982 58.2558 41.0153 58.2338 40.7542L58.1896 40.3626C58.1896 40.2973 58.1675 40.232 58.1675 40.1667L58.1455 40.0797L58.1234 39.9927C57.9909 39.5357 57.6157 39.1876 57.1521 38.9918C56.6885 38.7742 56.1587 38.6436 55.6289 38.5566C54.5472 38.3825 53.4435 38.3608 52.3397 38.2955C51.236 38.252 50.1322 38.2302 49.0064 38.1867C48.7194 38.1649 48.4545 38.1649 48.1675 38.1432C47.8806 38.1214 47.6157 38.0996 47.3287 38.0561C46.7768 37.9691 46.2029 37.8603 45.6731 37.5774C45.4082 37.4251 45.1653 37.2293 45.0108 36.9682C44.8342 36.7071 44.768 36.4025 44.7238 36.1196C44.6797 35.8367 44.6797 35.5539 44.7018 35.271C44.7018 34.9881 44.7459 34.7053 44.7901 34.4224C44.8784 33.8567 45.0991 33.3127 45.4744 32.8775C45.8497 32.4423 46.3353 32.116 46.843 31.8984C46.8651 31.8984 46.8651 31.8984 46.8651 31.9201C46.8872 31.9854 46.8872 32.0072 46.8651 32.0072Z" fill="black"/>
<path d="M46.9094 37.9256C46.6224 37.9909 46.3575 38.0779 46.1146 38.2302C45.8718 38.3825 45.6731 38.5566 45.5186 38.796C45.3641 39.0135 45.2537 39.2746 45.1654 39.5357C45.0992 39.7969 45.033 40.058 45.033 40.3408C45.0109 40.6237 45.0109 40.8848 45.033 41.1677C45.055 41.4505 45.0771 41.7334 45.0992 41.9945C45.1433 42.2556 45.1875 42.5167 45.342 42.7343C45.4745 42.9301 45.6952 43.1042 45.9381 43.213C46.4237 43.4523 46.9756 43.5394 47.5275 43.6264C48.0793 43.7134 48.6533 43.7787 49.2052 43.8222C50.331 43.931 51.4789 44.0181 52.6268 44.1921C53.2007 44.2792 53.7526 44.4097 54.3266 44.5838C54.6136 44.6708 54.8785 44.7796 55.1434 44.9102C55.4083 45.0407 55.6732 45.193 55.8718 45.4106C56.0926 45.6065 56.2692 45.8676 56.3575 46.1722C56.3796 46.2375 56.3796 46.3245 56.4016 46.3898C56.4016 46.4551 56.4016 46.5421 56.4237 46.6074C56.4237 46.7597 56.4016 46.8902 56.4016 47.0425C56.3575 47.6083 56.225 48.174 56.0043 48.6962C55.8056 49.2402 55.5186 49.7406 55.2096 50.1976C54.8785 50.6763 54.5032 51.1115 54.0617 51.4813C53.8409 51.6772 53.5981 51.8295 53.3553 51.9818C53.0904 52.1124 52.8034 52.1994 52.5164 52.2429C51.9425 52.3517 51.3685 52.3299 50.7946 52.3082C49.6467 52.2647 48.5208 52.1559 47.3729 52.0906C46.799 52.0688 46.2471 52.0906 45.6731 52.0688C45.0992 52.0688 44.5252 52.0253 43.9513 52.0036C41.6555 51.873 39.3818 51.6337 37.1301 51.155C36.5782 51.0462 36.0043 50.8939 35.4524 50.7415C34.9005 50.5892 34.3486 50.4152 33.7968 50.2193C33.267 50.0235 32.7151 49.7842 32.2294 49.4795C31.9866 49.3272 31.7217 49.1749 31.501 49.0008L31.3244 48.8703L31.1698 48.718L30.8387 48.4351C30.4414 48.0217 30.044 47.5648 29.8453 46.999C29.6246 46.4333 29.6246 45.8241 29.7129 45.2801C29.8012 44.7144 29.9336 44.1704 29.9999 43.6264C30.0661 43.0824 30.044 42.5167 29.9336 41.951C29.9336 41.9292 29.9336 41.9292 29.9557 41.9292C29.9778 41.9292 29.9778 41.9292 29.9778 41.951C30.1102 42.495 30.1765 43.0824 30.1323 43.6482C30.1102 44.2139 29.9999 44.7796 29.9336 45.3236C29.8674 45.8676 29.8895 46.4333 30.1102 46.912C30.331 47.4124 30.6842 47.8259 31.0815 48.1958C31.8762 48.9791 32.8917 49.4578 33.9513 49.8277C35.0109 50.1976 36.1146 50.4804 37.2184 50.698C38.3222 50.9156 39.448 51.0897 40.5738 51.242C41.6996 51.3943 42.8255 51.5031 43.9734 51.5901C44.5473 51.6337 45.0992 51.6554 45.6731 51.6772C46.225 51.6989 46.8211 51.6989 47.395 51.7425C48.5429 51.8077 49.6687 51.9818 50.8166 52.0688C51.3906 52.1124 51.9425 52.1341 52.4943 52.0471C52.7813 52.0036 53.0462 51.9383 53.289 51.8295C53.5319 51.6989 53.7747 51.5466 53.9734 51.3508C54.8343 50.6328 55.4966 49.6754 55.8718 48.6309C56.0705 48.1087 56.1809 47.5648 56.225 46.999C56.225 46.8685 56.225 46.7162 56.225 46.5856C56.225 46.5203 56.225 46.4551 56.203 46.3898C56.1809 46.3245 56.1809 46.2592 56.1588 46.194C56.0705 45.9546 55.916 45.737 55.7173 45.5629C55.32 45.2148 54.7681 45.019 54.2383 44.8667C53.7085 44.7144 53.1345 44.6273 52.5826 44.5403C51.4568 44.388 50.331 44.3009 49.1831 44.1921C48.6091 44.1269 48.0352 44.0833 47.4612 43.9746C47.1743 43.931 46.8873 43.8658 46.6003 43.8005C46.4679 43.7787 46.3133 43.7134 46.1809 43.6699C46.0484 43.6047 45.8939 43.5611 45.7614 43.4959C45.4965 43.3653 45.2316 43.1695 45.055 42.8866C44.8784 42.6037 44.8343 42.2991 44.8122 42.0163C44.7901 41.7334 44.7681 41.4505 44.7681 41.1677C44.746 40.8848 44.7681 40.6019 44.7901 40.2973C44.8564 39.7316 45.0109 39.1441 45.3862 38.6872C45.5628 38.4478 45.8056 38.2737 46.0484 38.1214C46.3133 37.9909 46.6003 37.9256 46.8873 37.8821C46.9094 37.8821 46.9094 37.8821 46.9094 37.9038C46.9314 37.9038 46.9314 37.9256 46.9094 37.9256Z" fill="black"/>
<path d="M29.9558 46.9119C28.7638 46.9989 27.5717 47.0425 26.3797 47.0642C25.1876 47.086 23.9956 47.1077 22.8035 47.086C21.6115 47.0642 20.4194 46.9989 19.2274 46.9772C18.0353 46.9554 16.8433 46.9989 15.6512 47.086C14.4592 47.1513 13.2671 47.2383 12.0971 47.3036C10.9051 47.3688 9.71302 47.4559 8.54305 47.5211C6.15894 47.6299 3.79691 47.717 1.39073 47.7605C1.36865 47.7605 1.36865 47.7605 1.36865 47.7387C1.36865 47.717 1.36865 47.717 1.39073 47.717C3.75276 47.4124 6.13686 47.2165 8.4989 47.0642C9.69095 46.9989 10.883 46.9554 12.0751 46.9119C13.2671 46.8684 14.4592 46.8466 15.6512 46.8684C16.8433 46.8684 18.0353 46.8684 19.2274 46.8684C20.4194 46.8466 21.6115 46.7814 22.8035 46.7596C23.9956 46.7378 25.1876 46.7378 26.3797 46.7814C27.5717 46.8031 28.7638 46.8466 29.9558 46.9337C29.9558 46.8684 29.9779 46.8901 29.9558 46.9119C29.9779 46.9119 29.9558 46.9119 29.9558 46.9119Z" fill="black"/>
<path d="M45.7174 43.2781C45.2097 43.4522 44.7903 43.7786 44.5254 44.192C44.2605 44.6054 44.106 45.0841 44.0397 45.5846C44.0176 45.8239 43.9956 46.085 44.0176 46.3461C44.0397 46.6072 44.106 46.8466 44.2605 47.0642C44.3929 47.2818 44.5916 47.4776 44.8124 47.5864C45.0331 47.6952 45.3201 47.7605 45.5629 47.8693C46.0706 48.0216 46.5784 48.1956 47.0861 48.3697C47.5938 48.5438 48.1015 48.6961 48.6093 48.8484C49.6247 49.1748 50.6402 49.4794 51.6777 49.7405C51.6998 49.7405 51.6998 49.7623 51.6998 49.7623L51.6777 49.784C51.1258 49.8058 50.596 49.7405 50.0442 49.6535C49.5144 49.5664 48.9845 49.4359 48.4547 49.2836C47.9249 49.1313 47.4172 48.9354 46.9316 48.7396C46.4238 48.5438 45.9382 48.3262 45.4525 48.0868C45.2097 47.9781 44.9669 47.8475 44.7241 47.7169C44.4812 47.5864 44.2825 47.3688 44.128 47.1512C43.819 46.6943 43.6424 46.1286 43.6644 45.5846C43.6865 45.0189 43.8852 44.4531 44.2384 44.0179C44.5916 43.5828 45.1435 43.2564 45.6954 43.2564C45.7395 43.2346 45.7395 43.2564 45.7174 43.2781C45.7395 43.2781 45.7395 43.2781 45.7174 43.2781Z" fill="black"/>
<path d="M44.9227 47.6955C45.0993 47.6737 45.2759 47.7172 45.4304 47.8478C45.4967 47.9131 45.585 48.0219 45.585 48.1306C45.607 48.2394 45.585 48.37 45.5187 48.457C45.4084 48.6311 45.2318 48.6964 45.1214 48.8052C44.9889 48.8922 44.8786 49.001 44.7682 49.1316C44.6578 49.2621 44.5474 49.3709 44.415 49.4362C44.2825 49.5232 44.1501 49.6102 43.9956 49.6755C43.7086 49.7843 43.3775 49.8714 43.0243 49.7843C43.0022 49.7843 43.0022 49.7626 43.0022 49.7626C43.0022 49.7626 43.0022 49.7626 43.0022 49.7408C43.2671 49.545 43.5099 49.3927 43.7748 49.2621C43.9073 49.1968 44.0397 49.1533 44.1942 49.088C44.3267 49.0228 44.4812 48.9792 44.6137 48.9357C44.7682 48.8922 44.9006 48.8052 44.9889 48.6964C45.0993 48.5876 45.1214 48.4353 45.1435 48.3265C45.1435 48.2177 45.1655 48.1959 45.1214 48.0871C45.0772 48.0001 44.9669 47.8913 44.8565 47.7607C44.9006 47.7172 44.9006 47.6955 44.9227 47.6955C44.9006 47.6955 44.9227 47.6955 44.9227 47.6955Z" fill="black"/>
<path d="M49.1609 49.2184C49.2713 49.2837 49.3375 49.349 49.4258 49.4142C49.4921 49.4795 49.5583 49.5448 49.5804 49.6318C49.6024 49.7189 49.6245 49.8494 49.6687 49.9147C49.7128 50.0017 49.8011 50.0453 49.8894 50.0888C49.9777 50.1323 50.0881 50.1758 50.1543 50.2411C50.2426 50.2846 50.3088 50.3499 50.3751 50.4152C50.5075 50.5457 50.6179 50.7198 50.6841 50.9374C50.6841 50.9591 50.6841 50.9591 50.662 50.9809C50.4192 50.9809 50.2205 50.8721 50.066 50.7633C49.9777 50.698 49.9336 50.611 49.8673 50.5457C49.8011 50.4587 49.757 50.3716 49.7128 50.2628C49.6687 50.154 49.6245 50.067 49.5583 50.0017C49.4921 49.9365 49.3596 49.8929 49.2713 49.8277C49.2272 49.8059 49.2051 49.7624 49.183 49.6971C49.1609 49.6536 49.1389 49.6101 49.1168 49.5448C49.0947 49.436 49.0726 49.3272 49.1168 49.1967C49.1168 49.2184 49.1389 49.1967 49.1609 49.2184C49.1389 49.1967 49.1389 49.1967 49.1609 49.2184Z" fill="black"/>
<path d="M62.9359 26.5024C62.98 26.5894 63.0242 26.6765 63.0462 26.7635C63.0683 26.8505 63.0904 26.9376 63.0904 27.0464C63.1125 27.2204 63.1125 27.4163 63.0462 27.5903C63.0021 27.7644 62.8917 27.9385 62.8476 28.0908C62.8034 28.2648 62.7813 28.4389 62.7813 28.613C62.7813 28.7871 62.7593 28.9829 62.7372 29.157C62.7151 29.331 62.671 29.5051 62.6268 29.6792C62.4944 30.0056 62.3398 30.3319 62.097 30.6148C62.097 30.6148 62.0749 30.6148 62.0529 30.6148C62.0529 30.6148 62.0529 30.6148 62.0529 30.593C62.0308 30.2231 62.097 29.875 62.1853 29.5269C62.2295 29.3528 62.2957 29.2005 62.3619 29.0264C62.4281 28.8523 62.4944 28.7 62.5827 28.5477C62.671 28.3954 62.7151 28.2213 62.7372 28.0473C62.7593 27.8732 62.7151 27.6991 62.7151 27.525C62.7151 27.351 62.7372 27.1769 62.7813 27.0246C62.8034 26.9376 62.8034 26.8505 62.8255 26.7635C62.8476 26.6765 62.8696 26.5894 62.8917 26.5024C62.8917 26.5024 62.9138 26.5024 62.9359 26.5024Z" fill="black"/>
<path d="M61.5894 26.5239C61.5894 26.6979 61.5673 26.8503 61.5232 27.0026C61.479 27.1549 61.4349 27.2854 61.3466 27.416C61.2583 27.5465 61.1479 27.6553 61.0817 27.7859C61.0154 27.9164 60.9934 28.0687 60.9713 28.2211C60.9713 28.3734 60.9492 28.5257 60.9271 28.678C60.9051 28.8303 60.883 28.9609 60.8609 29.1132C60.7947 29.396 60.7064 29.6571 60.6622 29.9618C60.6622 29.9835 60.6402 29.9835 60.6402 29.9835C60.6402 29.9835 60.6402 29.9835 60.6181 29.9835C60.5739 29.9182 60.5298 29.853 60.4856 29.7659C60.4636 29.6789 60.4415 29.6136 60.4194 29.5266C60.3973 29.3743 60.3753 29.2002 60.3973 29.0479C60.4194 28.8956 60.4636 28.7433 60.5298 28.591C60.5519 28.5257 60.596 28.4386 60.6181 28.3734C60.6622 28.3081 60.7064 28.2428 60.7505 28.1775C60.8388 28.047 60.9051 27.9164 60.9492 27.7641C60.9934 27.6118 60.9713 27.4595 61.0154 27.3072C61.0596 27.1549 61.1258 27.0243 61.2141 26.8938C61.3024 26.7632 61.4128 26.6544 61.5452 26.5456C61.5673 26.5021 61.5894 26.5021 61.5894 26.5239Z" fill="black"/>
<path d="M70.7505 26.5241C70.7725 26.6982 70.7284 26.8505 70.7063 27.0028C70.6622 27.1551 70.6401 27.2857 70.5518 27.4163C70.4635 27.5468 70.3531 27.6556 70.309 27.8079C70.2427 27.9385 70.2427 28.0908 70.2427 28.2431C70.2427 28.3954 70.2648 28.5477 70.2427 28.6783C70.2427 28.8306 70.2427 28.9611 70.2427 29.0917C70.2207 29.3745 70.1986 29.6139 70.2427 29.9403C70.2427 29.962 70.2427 29.962 70.2207 29.962H70.1986C70.0441 29.875 69.9337 29.7227 69.8675 29.5704C69.8012 29.4181 69.7571 29.244 69.7571 29.0917C69.7571 28.9176 69.7792 28.7653 69.8233 28.613C69.8675 28.4607 69.9116 28.3084 69.9999 28.1778C70.0661 28.0473 70.1324 27.8949 70.1765 27.7426C70.1986 27.5903 70.1986 27.438 70.2207 27.2639C70.2427 27.1116 70.309 26.9811 70.3973 26.8505C70.4856 26.72 70.5739 26.5894 70.7284 26.5024C70.7284 26.5024 70.7284 26.5024 70.7505 26.5241Z" fill="black"/>
<path d="M12.1855 22.8685C12.5878 22.8685 12.914 22.547 12.914 22.1505C12.914 21.7539 12.5878 21.4324 12.1855 21.4324C11.7832 21.4324 11.457 21.7539 11.457 22.1505C11.457 22.547 11.7832 22.8685 12.1855 22.8685Z" fill="#0049E5"/>
<path d="M23.3333 24.3481C23.7478 24.3481 24.0839 24.0169 24.0839 23.6083C24.0839 23.1997 23.7478 22.8685 23.3333 22.8685C22.9188 22.8685 22.5828 23.1997 22.5828 23.6083C22.5828 24.0169 22.9188 24.3481 23.3333 24.3481Z" fill="#ECCEFF"/>
<path d="M28.1457 52.9827C28.7187 52.9827 29.1832 52.5248 29.1832 51.96C29.1832 51.3952 28.7187 50.9374 28.1457 50.9374C27.5727 50.9374 27.1082 51.3952 27.1082 51.96C27.1082 52.5248 27.5727 52.9827 28.1457 52.9827Z" fill="#0049E5"/>
<path d="M11.17 59.8803C12.1331 59.8803 12.9139 59.1107 12.9139 58.1614C12.9139 57.212 12.1331 56.4424 11.17 56.4424C10.2068 56.4424 9.42603 57.212 9.42603 58.1614C9.42603 59.1107 10.2068 59.8803 11.17 59.8803Z" fill="#FAE058"/>
<path d="M37.969 71.4561C39.3101 71.4561 40.3973 70.3845 40.3973 69.0626C40.3973 67.7407 39.3101 66.6691 37.969 66.6691C36.6279 66.6691 35.5408 67.7407 35.5408 69.0626C35.5408 70.3845 36.6279 71.4561 37.969 71.4561Z" fill="#F089C0"/>
<path d="M47.1744 60.9902C47.9668 60.9902 48.6093 60.3569 48.6093 59.5758C48.6093 58.7947 47.9668 58.1615 47.1744 58.1615C46.3819 58.1615 45.7395 58.7947 45.7395 59.5758C45.7395 60.3569 46.3819 60.9902 47.1744 60.9902Z" fill="#0049E5"/>
<path d="M60.4855 54.0053C61.5828 54.0053 62.4723 53.1285 62.4723 52.047C62.4723 50.9654 61.5828 50.0887 60.4855 50.0887C59.3883 50.0887 58.4988 50.9654 58.4988 52.047C58.4988 53.1285 59.3883 54.0053 60.4855 54.0053Z" fill="#F089C0"/>
<path d="M57.3951 18.4513C57.9803 18.4513 58.4547 17.9837 58.4547 17.4069C58.4547 16.8301 57.9803 16.3625 57.3951 16.3625C56.8099 16.3625 56.3354 16.8301 56.3354 17.4069C56.3354 17.9837 56.8099 18.4513 57.3951 18.4513Z" fill="#FAE058"/>
<path d="M39.8673 16.0796C40.611 16.0796 41.2139 15.4854 41.2139 14.7523C41.2139 14.0193 40.611 13.425 39.8673 13.425C39.1236 13.425 38.5208 14.0193 38.5208 14.7523C38.5208 15.4854 39.1236 16.0796 39.8673 16.0796Z" fill="#ECCEFF"/>
<path d="M66.6004 40.4495C67.0393 40.4495 67.3951 40.0988 67.3951 39.6662C67.3951 39.2336 67.0393 38.8829 66.6004 38.8829C66.1615 38.8829 65.8057 39.2336 65.8057 39.6662C65.8057 40.0988 66.1615 40.4495 66.6004 40.4495Z" fill="#0049E5"/>
<path d="M67.8366 19.1479C68.7022 19.1479 69.4039 18.4562 69.4039 17.603C69.4039 16.7498 68.7022 16.0581 67.8366 16.0581C66.971 16.0581 66.2693 16.7498 66.2693 17.603C66.2693 18.4562 66.971 19.1479 67.8366 19.1479Z" fill="#0049E5"/>
<path d="M34.1941 2.32817C34.694 2.32817 35.0992 1.92876 35.0992 1.43606C35.0992 0.943358 34.694 0.543945 34.1941 0.543945C33.6943 0.543945 33.2891 0.943358 33.2891 1.43606C33.2891 1.92876 33.6943 2.32817 34.1941 2.32817Z" fill="#0049E5"/>
<path d="M1.3465 25.8061C1.76102 25.8061 2.09705 25.4749 2.09705 25.0663C2.09705 24.6577 1.76102 24.3265 1.3465 24.3265C0.931981 24.3265 0.595947 24.6577 0.595947 25.0663C0.595947 25.4749 0.931981 25.8061 1.3465 25.8061Z" fill="#F089C0"/>
<path d="M24.4812 8.96457C25.5297 8.96457 26.3797 8.12677 26.3797 7.09331C26.3797 6.05984 25.5297 5.22205 24.4812 5.22205C23.4327 5.22205 22.5828 6.05984 22.5828 7.09331C22.5828 8.12677 23.4327 8.96457 24.4812 8.96457Z" fill="#F089C0"/>
<path d="M26.3354 61.4033C26.7621 61.4033 27.108 61.0623 27.108 60.6417C27.108 60.2211 26.7621 59.8802 26.3354 59.8802C25.9087 59.8802 25.5627 60.2211 25.5627 60.6417C25.5627 61.0623 25.9087 61.4033 26.3354 61.4033Z" fill="#ECCEFF"/>
<path d="M62.4945 36.1413C63.0066 36.1413 63.4217 35.7321 63.4217 35.2274C63.4217 34.7227 63.0066 34.3135 62.4945 34.3135C61.9825 34.3135 61.5674 34.7227 61.5674 35.2274C61.5674 35.7321 61.9825 36.1413 62.4945 36.1413Z" fill="#0049E5"/>
<path d="M73.0242 53.6356C73.4874 53.6356 73.863 53.2654 73.863 52.8088C73.863 52.3521 73.4874 51.9819 73.0242 51.9819C72.5609 51.9819 72.1853 52.3521 72.1853 52.8088C72.1853 53.2654 72.5609 53.6356 73.0242 53.6356Z" fill="#0049E5"/>
<path d="M53.5319 5.22227C54.2146 5.22227 54.768 4.67673 54.768 4.00377C54.768 3.33082 54.2146 2.78528 53.5319 2.78528C52.8491 2.78528 52.2957 3.33082 52.2957 4.00377C52.2957 4.67673 52.8491 5.22227 53.5319 5.22227Z" fill="#FAE058"/>
</svg>
