<?xml version="1.0" encoding="utf-8"?>
<!-- Generator: Adobe Illustrator 25.4.1, SVG Export Plug-In . SVG Version: 6.00 Build 0)  -->
<svg version="1.1" id="Capa_1" xmlns="http://www.w3.org/2000/svg" xmlns:xlink="http://www.w3.org/1999/xlink" x="0px" y="0px"
	 viewBox="0 0 402.9 258.6" style="enable-background:new 0 0 402.9 258.6;" xml:space="preserve">
<style type="text/css">
	.st0{fill:#FAE058;}
	.st1{fill:#ECCEFF;}
	.st2{fill:#F089C0;}
	.st3{fill:#77F169;}
	.st4{fill:#0049E5;}
</style>
<g>
	<path class="st0" d="M169.4,191.8l2.4,15.3h-5.4l-3.4,12.6l-4.1,2.7l1.6,15.3h7.2l-2.4,15.3l-108.2,3l-7-3v-12.9l-5.5-2.4
		l-3.1-13.8l3.1-1.5l1.7-15.3l5.4-3.5v-11.8l53.2-3.1c0,0-36.9-22.8-36.9-45.4s19.9-61,52.3-61s58.8,22.8,58.8,50.9
		s-24.6,54.3-40.2,56.5L169.4,191.8z"/>
	<path class="st0" d="M175.2,145.9v15.3h12.5l-3.6,12.2l-4.8,6.3l2.1,24.4l-6.2,7.3v11h12.5v11.5l-12.5,7c0,0-4.2,17.5,0,14.8
		C179.4,253,297,253,297,253v-11.4l4.8-3.9v-11.6l-8.9-1.4v-17.6h4.2l-4.2-30.6h12.5l84.9,79.5l9.5-13.6L318,157.8l-8.8,12.9
		l-3.9-9.5h-12.5v-15.3H175.2z"/>
	<path d="M292.4,253.2l-13.6,0.3l-13.7,0.2c-9.2,0.1-18.4,0.2-27.7,0.2c-9.3,0-18.6-0.2-27.8-0.4c-9.3-0.2-18.5-0.2-27.7-0.1
		c-0.2,0-0.4-0.2-0.4-0.4l0,0c0-4.8-0.1-9.6-0.2-14.4c0-0.3,0.2-0.5,0.5-0.5l0,0c9.2-0.2,18.4-0.3,27.6-0.4l27.6-0.1
		c4.6,0,9.2,0,13.8,0l13.8,0.1l13.8,0.2l13.8,0.3l0,0c0.3,0,0.5,0.2,0.5,0.5c0,2.5-0.1,4.9-0.2,7.3L292.4,253.2z M292.2,253.1
		l-0.2-7.2c-0.1-2.4-0.2-4.7-0.2-7.1l0.5,0.5l-13.8,0.3l-13.8,0.2l-13.8,0.1c-4.6,0-9.2,0-13.8,0l-27.6-0.1
		c-9.2-0.1-18.4-0.2-27.6-0.4l0.5-0.5c-0.1,4.8-0.2,9.6-0.2,14.4l-0.4-0.4c9.2,0.1,18.4,0.1,27.5-0.1c9.1-0.1,18.2-0.4,27.3-0.4
		c9.1,0,18.3,0.1,27.5,0.2l13.9,0.2L292.2,253.1z"/>
	<path d="M296.8,238.9l-13.6,0.3l-13.7,0.2c-9.2,0.1-18.4,0.2-27.7,0.2c-9.3,0-18.6-0.2-27.8-0.4c-9.3-0.2-18.5-0.2-27.7-0.1
		c-0.2,0-0.4-0.2-0.4-0.4l0,0c0-4.8-0.1-9.6-0.2-14.4c0-0.3,0.2-0.5,0.5-0.5l0,0c9.2-0.2,18.4-0.3,27.6-0.4l27.6-0.1
		c4.6,0,9.2,0,13.8,0l13.8,0.1l13.8,0.2l13.8,0.3l0,0c0.3,0,0.5,0.2,0.5,0.5c0,2.5-0.1,4.9-0.2,7.3L296.8,238.9z M296.7,238.7
		l-0.2-7.2c-0.1-2.4-0.2-4.7-0.2-7.1l0.5,0.5l-13.8,0.3l-13.8,0.2l-13.8,0.1c-4.6,0-9.2,0-13.8,0l-27.6-0.1
		c-9.2-0.1-18.4-0.2-27.6-0.4l0.5-0.5c-0.1,4.8-0.2,9.6-0.2,14.4l-0.4-0.4c9.2,0.1,18.4,0.1,27.5-0.1c9.1-0.1,18.2-0.4,27.3-0.4
		c9.1,0,18.3,0.1,27.5,0.2l13.9,0.2L296.7,238.7z"/>
	<path d="M292.9,222.5l-14.5,0.3l-14.6,0.2l-14.7,0.1c-4.9,0-9.8,0.1-14.8,0.1c-9.9,0-19.8-0.2-29.6-0.3c-9.9-0.1-19.7-0.2-29.5-0.1
		c-0.2,0-0.4-0.2-0.4-0.4l0,0c0-5.1-0.1-10.2-0.2-15.3c0-0.3,0.2-0.5,0.5-0.5l0,0c9.8-0.2,19.6-0.3,29.4-0.4
		c9.8,0,19.6-0.2,29.4-0.1c9.8,0,19.6,0,29.4,0.1l14.7,0.2l14.7,0.3l0,0c0.3,0,0.5,0.2,0.5,0.5c0,2.6-0.1,5.2-0.2,7.8L292.9,222.5z
		 M292.7,222.3l-0.4-15.2l0.5,0.5l-14.7,0.3l-14.7,0.2c-9.8,0.1-19.6,0.1-29.4,0.1c-9.8,0-19.6-0.1-29.4-0.1
		c-9.8-0.1-19.6-0.2-29.4-0.4l0.5-0.5c-0.1,5.1-0.2,10.2-0.2,15.3l-0.4-0.4c9.8,0.1,19.6,0,29.3-0.1c9.7-0.1,19.4-0.4,29.2-0.3
		c4.9,0,9.7,0,14.6,0.1l14.7,0.1l14.8,0.2L292.7,222.3z"/>
	<path d="M297,207.2l-14.5,0.3l-14.6,0.2l-14.7,0.1c-4.9,0-9.8,0.1-14.8,0.1c-9.9,0-19.8-0.2-29.6-0.3c-9.9-0.1-19.7-0.2-29.5-0.1
		c-0.2,0-0.4-0.2-0.4-0.4l0,0c0-5.1-0.1-10.2-0.2-15.3c0-0.3,0.2-0.5,0.5-0.5l0,0c9.8-0.2,19.6-0.3,29.4-0.4
		c9.8,0,19.6-0.2,29.4-0.1c9.8,0,19.6,0,29.4,0.1l14.7,0.2l14.7,0.3l0,0c0.3,0,0.5,0.2,0.5,0.5c0,2.6-0.1,5.2-0.2,7.8L297,207.2z
		 M296.9,207l-0.4-15.2l0.5,0.5l-14.7,0.3l-14.7,0.2c-9.8,0.1-19.6,0.1-29.4,0.1c-9.8,0-19.6-0.1-29.4-0.1
		c-9.8-0.1-19.6-0.2-29.4-0.4l0.5-0.5c-0.1,5.1-0.2,10.2-0.2,15.3l-0.4-0.4c9.8,0.1,19.6,0,29.3-0.1c9.7-0.1,19.4-0.4,29.2-0.3
		c4.9,0,9.7,0,14.6,0.1l14.7,0.1l14.8,0.2L296.9,207z"/>
	<path d="M171,253.2l-13.6,0.3l-13.7,0.2c-9.2,0.1-18.4,0.2-27.7,0.2c-9.3,0-18.6-0.2-27.8-0.4c-9.3-0.2-18.5-0.2-27.7-0.1
		c-0.2,0-0.4-0.2-0.4-0.4l0,0c0-4.8-0.1-9.6-0.2-14.4c0-0.3,0.2-0.5,0.5-0.5l0,0c9.2-0.2,18.4-0.3,27.6-0.4l27.6-0.1
		c4.6,0,9.2,0,13.8,0l13.8,0.1l13.8,0.2l13.8,0.3l0,0c0.3,0,0.5,0.2,0.5,0.5c0,2.5-0.1,4.9-0.2,7.3L171,253.2z M170.9,253.1
		l-0.2-7.2c-0.1-2.4-0.2-4.7-0.2-7.1l0.5,0.5l-13.8,0.3l-13.8,0.2l-13.8,0.1c-4.6,0-9.2,0-13.8,0l-27.6-0.1
		c-9.2-0.1-18.4-0.2-27.6-0.4l0.5-0.5c-0.1,4.8-0.2,9.6-0.2,14.4l-0.4-0.4c9.2,0.1,18.4,0.1,27.5-0.1c9.1-0.1,18.2-0.4,27.3-0.4
		c9.1,0,18.3,0.1,27.5,0.2l13.9,0.2L170.9,253.1z"/>
	<path d="M165.9,238.9l-13.6,0.3l-13.7,0.2c-9.2,0.1-18.4,0.2-27.7,0.2c-9.3,0-18.6-0.2-27.8-0.4c-9.3-0.2-18.5-0.2-27.7-0.1
		c-0.2,0-0.4-0.2-0.4-0.4l0,0c0-4.8-0.1-9.6-0.2-14.4c0-0.3,0.2-0.5,0.5-0.5l0,0c9.2-0.2,18.4-0.3,27.6-0.4l27.6-0.1
		c4.6,0,9.2,0,13.8,0l13.8,0.1l13.8,0.2l13.8,0.3l0,0c0.3,0,0.5,0.2,0.5,0.5c0,2.5-0.1,4.9-0.2,7.3L165.9,238.9z M165.8,238.7
		l-0.2-7.2c-0.1-2.4-0.2-4.7-0.2-7.1l0.5,0.5l-13.8,0.3l-13.8,0.2l-13.8,0.1c-4.6,0-9.2,0-13.8,0L83,225.4
		c-9.2-0.1-18.4-0.2-27.6-0.4l0.5-0.5c-0.1,4.8-0.2,9.6-0.2,14.4l-0.4-0.4c9.2,0.1,18.4,0.1,27.5-0.1c9.1-0.1,18.2-0.4,27.3-0.4
		c9.1,0,18.3,0.1,27.5,0.2l13.9,0.2L165.8,238.7z"/>
	<path d="M166.5,222.5l-14.5,0.3l-14.6,0.2l-14.7,0.1c-4.9,0-9.8,0.1-14.8,0.1c-9.9,0-19.8-0.2-29.6-0.3c-9.9-0.1-19.7-0.2-29.5-0.1
		c-0.2,0-0.4-0.2-0.4-0.4l0,0c0-5.1-0.1-10.2-0.2-15.3c0-0.3,0.2-0.5,0.5-0.5l0,0c9.8-0.2,19.6-0.3,29.4-0.4
		c9.8,0,19.6-0.2,29.4-0.1c9.8,0,19.6,0,29.4,0.1l14.7,0.2l14.7,0.3l0,0c0.3,0,0.5,0.2,0.5,0.5c0,2.6-0.1,5.2-0.2,7.8L166.5,222.5z
		 M166.3,222.3l-0.4-15.2l0.5,0.5l-14.7,0.3L137,208c-9.8,0.1-19.6,0.1-29.4,0.1c-9.8,0-19.6-0.1-29.4-0.1
		c-9.8-0.1-19.6-0.2-29.4-0.4l0.5-0.5c-0.1,5.1-0.2,10.2-0.2,15.3l-0.4-0.4c9.8,0.1,19.6,0,29.3-0.1c9.7-0.1,19.4-0.4,29.2-0.3
		c4.9,0,9.7,0,14.6,0.1l14.7,0.1l14.8,0.2L166.3,222.3z"/>
	<path d="M169.5,207.2l-14.5,0.3l-14.6,0.2l-14.7,0.1c-4.9,0-9.8,0.1-14.8,0.1c-9.9,0-19.8-0.2-29.6-0.3c-9.9-0.1-19.7-0.2-29.5-0.1
		c-0.2,0-0.4-0.2-0.4-0.4l0,0c0-5.1-0.1-10.2-0.2-15.3c0-0.3,0.2-0.5,0.5-0.5l0,0c9.8-0.2,19.6-0.3,29.4-0.4
		c9.8,0,19.6-0.2,29.4-0.1c9.8,0,19.6,0,29.4,0.1l14.7,0.2l14.7,0.3l0,0c0.3,0,0.5,0.2,0.5,0.5c0,2.6-0.1,5.2-0.2,7.8L169.5,207.2z
		 M169.3,207l-0.4-15.2l0.5,0.5l-14.7,0.3l-14.7,0.2c-9.8,0.1-19.6,0.1-29.4,0.1c-9.8,0-19.6-0.1-29.4-0.1
		c-9.8-0.1-19.6-0.2-29.4-0.4l0.5-0.5c-0.1,5.1-0.2,10.2-0.2,15.3l-0.4-0.4c9.8,0.1,19.6,0,29.3-0.1c9.7-0.1,19.4-0.4,29.2-0.3
		c4.9,0,9.7,0,14.6,0.1l14.7,0.1l14.8,0.2L169.3,207z"/>
	<path d="M297,191.9l-14.5,0.3l-14.6,0.2l-14.7,0.1c-4.9,0-9.8,0.1-14.8,0.1c-9.9,0-19.8-0.2-29.6-0.3c-9.9-0.1-19.7-0.2-29.5-0.1
		c-0.2,0-0.4-0.2-0.4-0.4l0,0c0-5.1-0.1-10.2-0.2-15.3c0-0.3,0.2-0.5,0.5-0.5l0,0c9.8-0.2,19.6-0.3,29.4-0.4
		c9.8,0,19.6-0.2,29.4-0.1c9.8,0,19.6,0,29.4,0.1l14.7,0.2L297,176l0,0c0.3,0,0.5,0.2,0.5,0.5c0,2.6-0.1,5.2-0.2,7.8L297,191.9z
		 M296.9,191.7l-0.4-15.2l0.5,0.5l-14.7,0.3l-14.7,0.2c-9.8,0.1-19.6,0.1-29.4,0.1c-9.8,0-19.6-0.1-29.4-0.1
		c-9.8-0.1-19.6-0.2-29.4-0.4l0.5-0.5c-0.1,5.1-0.2,10.2-0.2,15.3l-0.4-0.4c9.8,0.1,19.6,0,29.3-0.1c9.7-0.1,19.4-0.4,29.2-0.3
		c4.9,0,9.7,0,14.6,0.1l14.7,0.1l14.8,0.2L296.9,191.7z"/>
	<path d="M305.3,176.6l-14.5,0.3l-14.6,0.2l-14.7,0.1c-4.9,0-9.8,0.1-14.8,0.1c-9.9,0-19.8-0.2-29.6-0.3c-9.9-0.1-19.7-0.2-29.5-0.1
		c-0.2,0-0.4-0.2-0.4-0.4l0,0c0-5.1-0.1-10.2-0.2-15.3c0-0.3,0.2-0.5,0.5-0.5l0,0c9.8-0.2,19.6-0.3,29.4-0.4
		c9.8,0,19.6-0.2,29.4-0.1c9.8,0,19.6,0,29.4,0.1l14.7,0.2l14.7,0.3l0,0c0.3,0,0.5,0.2,0.5,0.5c0,2.6-0.1,5.2-0.2,7.8L305.3,176.6z
		 M305.2,176.4l-0.4-15.2l0.5,0.5l-14.7,0.3l-14.7,0.2c-9.8,0.1-19.6,0.1-29.4,0.1c-9.8,0-19.6-0.1-29.4-0.1
		c-9.8-0.1-19.6-0.2-29.4-0.4l0.5-0.5c-0.1,5.1-0.2,10.2-0.2,15.3l-0.4-0.4c9.8,0.1,19.6,0,29.3-0.1c9.7-0.1,19.4-0.4,29.2-0.3
		c4.9,0,9.7,0,14.6,0.1l14.7,0.1l14.8,0.2L305.2,176.4z"/>
	<path d="M297,161.3l-14.5,0.3l-14.6,0.2l-14.7,0.1c-4.9,0-9.8,0.1-14.8,0.1c-9.9,0-19.8-0.2-29.6-0.3c-9.9-0.1-19.7-0.2-29.5-0.1
		c-0.2,0-0.4-0.2-0.4-0.4l0,0c0-5.1-0.1-10.2-0.2-15.3c0-0.3,0.2-0.5,0.5-0.5l0,0c9.8-0.2,19.6-0.3,29.4-0.4
		c9.8,0,19.6-0.2,29.4-0.1c9.8,0,19.6,0,29.4,0.1l14.7,0.2l14.7,0.3l0,0c0.3,0,0.5,0.2,0.5,0.5c0,2.6-0.1,5.2-0.2,7.8L297,161.3z
		 M296.9,161.1l-0.4-15.2l0.5,0.5l-14.7,0.3l-14.7,0.2c-9.8,0.1-19.6,0.1-29.4,0.1c-9.8,0-19.6-0.1-29.4-0.1
		c-9.8-0.1-19.6-0.2-29.4-0.4l0.5-0.5c-0.1,5.1-0.2,10.2-0.2,15.3l-0.4-0.4c9.8,0.1,19.6,0,29.3-0.1c9.7-0.1,19.4-0.4,29.2-0.3
		c4.9,0,9.7,0,14.6,0.1l14.7,0.1l14.8,0.2L296.9,161.1z"/>
	<path d="M388.7,253.1l-10.3-10.2l-10.3-10.3l-10.3-10.5c-3.4-3.5-6.9-7-10.3-10.6c-6.9-7.1-13.6-14.4-20.3-21.6
		c-6.7-7.2-13.5-14.3-20.4-21.3c-0.1-0.1-0.1-0.4,0-0.5l0,0c3.7-3.6,7.2-7.2,10.9-10.8c0.2-0.2,0.6-0.2,0.8,0l0,0
		c6.9,6.9,13.8,13.9,20.7,20.9c6.8,7,13.7,14,20.5,21c6.8,7.1,13.6,14.1,20.3,21.2l10.1,10.7l10,10.8l0,0c0.2,0.2,0.2,0.5,0,0.7
		c-1.9,1.8-3.8,3.5-5.7,5.2L388.7,253.1z M388.7,252.9l10.7-10.9l0,0.7l-10.4-10.4l-10.3-10.5c-6.9-6.9-13.7-14-20.5-21
		c-6.8-7-13.6-14.2-20.3-21.2c-6.8-7.1-13.5-14.2-20.2-21.4l0.8,0c-3.7,3.5-7.5,7-11.1,10.5l0-0.5c6.7,7.1,13.6,14.1,20.4,21
		c6.9,6.9,13.8,13.7,20.5,20.7c3.4,3.5,6.8,7,10.1,10.6l10.1,10.7l10.1,10.8L388.7,252.9z"/>
	<path d="M179.3,135.9c-0.1-7.3-1.5-14.6-4.4-21.3c-2.9-6.7-7.1-12.8-12.3-17.8c-10.4-10.1-24.6-15.9-39.1-16
		c-14.4-0.2-29,5.4-39.3,15.8c-5.2,5.1-9.3,11.3-12,18c-2.8,6.7-4.1,14-4,21.2c0.1,7.2,1.6,14.4,4.4,21.1c2.8,6.6,6.9,12.7,12,17.8
		c10.2,10.2,24.5,16,38.8,16c7.2,0,14.3-1.4,21-4.1c6.7-2.7,12.8-6.7,18-11.7c5.2-5,9.4-11.1,12.3-17.8
		C177.8,150.5,179.2,143.2,179.3,135.9z M179.5,135.9c0.1,14.7-5.7,29.3-16,40c-5.1,5.3-11.4,9.6-18.2,12.5
		c-6.8,2.9-14.3,4.4-21.7,4.4c-7.4,0-14.9-1.4-21.8-4.3c-6.9-2.9-13.2-7.1-18.4-12.4c-5.2-5.3-9.4-11.6-12.2-18.5
		c-2.8-6.9-4.1-14.3-4.1-21.7c0.1-7.4,1.7-14.7,4.5-21.5c2.8-6.8,7-13,12.2-18.2l4.1-3.7c1.5-1.1,2.9-2.2,4.4-3.3
		c1.6-1,3.1-2,4.7-2.9c1.7-0.8,3.3-1.7,5-2.4c6.8-2.9,14.2-4.5,21.6-4.6c7.4,0,14.9,1.4,21.7,4.3c6.8,2.9,13.1,7.1,18.2,12.5
		C173.8,106.6,179.5,121.3,179.5,135.9z"/>
	<path d="M162.9,135.9c0-5.2-1.1-10.3-3.2-15c-2.1-4.7-5.1-9-8.8-12.5c-7.4-7-17.3-11.1-27.5-11.2c-10.1-0.2-20.4,3.7-27.7,11
		c-7.3,7.2-11.5,17.5-11.2,27.7c0.1,5.1,1.2,10.2,3.2,14.8c2,4.7,4.9,8.9,8.5,12.5c7.2,7.1,17.2,11.2,27.3,11.2
		c10.1,0.1,20.1-4,27.5-11c3.7-3.5,6.7-7.8,8.8-12.5C161.8,146.2,162.9,141.1,162.9,135.9z M163.1,135.9c0,5.2-1,10.4-2.9,15.2
		c-1.9,4.9-4.7,9.4-8.4,13.2c-3.6,3.8-8,6.9-12.9,9c-4.9,2.1-10.2,3.1-15.5,3.2c-5.3,0-10.6-1-15.5-3.1c-4.9-2.1-9.4-5.1-13.1-8.9
		c-3.7-3.8-6.7-8.3-8.6-13.2c-2-4.9-2.9-10.2-2.8-15.4c0.1-5.2,1.2-10.4,3.2-15.2c2-4.8,5-9.2,8.7-12.9c3.7-3.7,8-6.7,12.8-8.8
		c4.8-2.1,10-3.2,15.3-3.3c5.3,0,10.6,1,15.5,3c4.9,2,9.3,5.1,12.9,8.9C159.2,115.2,163.1,125.6,163.1,135.9z"/>
	<g>
		<g>
			<path d="M121.7,148.4c1.1,0.1,2.3,0.1,3.4-0.2c1.1-0.2,2.1-0.9,2.7-1.8c0.6-0.9,0.6-2.2,0.2-3.1c-0.5-1-1.5-1.5-2.5-2
				c-4.1-1.8-8.7-2.7-12.6-5.7c-1.9-1.5-3.4-3.6-3.9-6.1c-0.3-1.2-0.3-2.4-0.2-3.6c0.1-1.2,0.3-2.4,0.7-3.6c0.8-2.3,2.6-4.4,4.7-5.6
				c2.1-1.3,4.5-1.9,6.8-2.2l-0.7,0.7l0.5-5.2l0-0.1c0-0.3,0.2-0.5,0.5-0.5l1.7-0.2c0.6,0,1.1,0,1.7,0c1.1,0,2.2,0.1,3.3,0.5
				c0.5,0.2,1.1,0.5,1.5,0.9c0.5,0.4,0.7,1,0.9,1.6c0.3,1.2,0.1,2.3,0,3.3l-0.3-0.4c1.5,0.3,2.9,0.7,4.3,1.3
				c1.4,0.6,2.7,1.3,3.7,2.5c0.5,0.6,0.9,1.3,1,2.1c0.1,0.8,0.1,1.6-0.1,2.3c-0.2,0.8-0.6,1.5-1.1,2.1c-0.5,0.6-1,1.1-1.7,1.6
				c-0.1,0.1-0.3,0.1-0.4,0l0,0c-1-0.8-2.2-1.4-3.5-1.8c-1.2-0.5-2.5-0.8-3.8-0.9c-1.3-0.2-2.6-0.2-3.9-0.1
				c-1.3,0.1-2.5,0.6-3.1,1.4c-0.3,0.4-0.4,0.9-0.4,1.5c0.1,0.5,0.3,0.9,0.7,1.2c1,0.7,2.2,1.2,3.5,1.7c2.5,1,5.1,2,7.5,3.3
				c2.4,1.4,4.8,3.2,6.2,5.8c0.7,1.3,1.1,2.8,1.2,4.2c0.1,1.5,0.1,2.9-0.2,4.3c-0.3,1.4-0.8,2.9-1.6,4.1c-0.8,1.3-1.8,2.3-3,3.2
				c-2.4,1.7-5.3,2.6-8,2.9l0.9-1l-0.4,5.1l0,0.1c0,0.5-0.4,0.8-0.8,0.9l-1.7,0.2c-0.6,0-1.1,0-1.7,0c-1.1,0-2.2-0.1-3.4-0.5
				c-0.6-0.2-1.2-0.5-1.7-0.9c-0.6-0.5-0.9-1.2-1.1-1.8c-0.3-1.3-0.1-2.4,0-3.4l0.7,0.9c-1.7-0.3-3.4-0.8-5-1.6
				c-1.6-0.7-3.1-1.6-4.3-3c-0.6-0.7-1-1.6-1.1-2.5c-0.2-0.9-0.1-1.8,0.2-2.7c0.3-0.9,0.8-1.7,1.5-2.2c0.7-0.6,1.4-1.1,2.2-1.4l0,0
				c0.1,0,0.2,0,0.3,0c1.3,1.3,2.9,2.3,4.6,3.1C118,147.9,119.9,148.3,121.7,148.4z M121.7,148.6c-1.9-0.1-3.8-0.5-5.5-1.3
				c-1.7-0.8-3.4-1.8-4.8-3l0.3,0c-0.7,0.4-1.4,0.9-2,1.4c-0.6,0.6-1,1.2-1.2,2c-0.2,0.7-0.2,1.6,0,2.3c0.2,0.7,0.6,1.4,1.1,2
				c1,1.1,2.5,1.9,4,2.5c1.5,0.6,3.1,0.9,4.7,1.2c0.4,0.1,0.7,0.4,0.7,0.8l0,0c-0.1,1.1-0.1,2,0.1,2.8c0.1,0.4,0.3,0.7,0.5,0.9
				c0.3,0.2,0.7,0.4,1.1,0.5c0.8,0.2,1.8,0.4,2.8,0.3l1.5,0l1.5-0.2l-0.8,0.9l0.3-5.1c0-0.5,0.4-0.9,0.9-1l0,0
				c2.6-0.4,5.1-1.1,7.1-2.5c2-1.4,3.4-3.6,3.9-6c0.5-2.4,0.4-5.1-0.8-7.3c-1.1-2.2-3.2-3.9-5.4-5.2c-2.3-1.4-4.7-2.4-7.2-3.4
				c-1.2-0.5-2.5-1.1-3.7-2c-0.7-0.5-1.2-1.4-1.2-2.2c-0.1-0.8,0.2-1.7,0.7-2.3c1.1-1.3,2.7-1.7,4.1-1.7c1.4-0.1,2.8,0.1,4.2,0.3
				c1.4,0.2,2.7,0.6,4,1.1c1.3,0.5,2.5,1.1,3.6,2l-0.4,0c0.6-0.4,1.1-0.9,1.5-1.4c0.5-0.5,0.8-1.1,1-1.8c0.4-1.3,0.2-2.8-0.7-3.9
				c-0.9-1.1-2.2-1.7-3.5-2.3c-1.3-0.6-2.7-0.9-4.2-1.2c-0.2,0-0.3-0.2-0.3-0.4l0,0c0.1-1.1,0.2-2.1-0.1-3c-0.1-0.5-0.4-0.9-0.7-1.1
				c-0.3-0.3-0.8-0.5-1.2-0.6c-0.9-0.3-2-0.4-3-0.3c-0.5,0-1,0-1.5,0.1l-1.5,0.3l0.5-0.6l-0.2,5.2c0,0.4-0.3,0.6-0.6,0.7l0,0
				c-2.2,0.4-4.3,1-6.1,2.1c-1.8,1.1-3.2,2.8-3.9,4.8c-0.7,1.9-0.9,4.2-0.5,6.3c0.4,2,1.6,3.9,3.2,5.4c1.6,1.4,3.7,2.5,5.7,3.4
				c1,0.5,2.1,0.9,3.1,1.4c1,0.5,2.1,0.9,3.2,1.4c1,0.6,2.1,1.2,2.6,2.4c0.5,1.1,0.3,2.4-0.3,3.4c-0.7,1-1.7,1.7-2.9,1.9
				C124,148.7,122.9,148.7,121.7,148.6z"/>
		</g>
	</g>
	<circle class="st1" cx="228" cy="110.1" r="6"/>
	<circle class="st2" cx="323.5" cy="229.6" r="2.1"/>
	<circle class="st3" cx="284.6" cy="114.7" r="4.5"/>
	<circle class="st2" cx="41.3" cy="174.5" r="1.9"/>
	<circle class="st4" cx="132.1" cy="45" r="8.6"/>
	<circle class="st4" cx="44.1" cy="123.9" r="4.7"/>
	<circle class="st2" cx="67.2" cy="57.9" r="4.3"/>
	<circle class="st3" cx="165.2" cy="12.6" r="10"/>
	<circle class="st1" cx="188.5" cy="76.2" r="2.2"/>
	<circle class="st1" cx="8.6" cy="210.7" r="5.3"/>
	<circle class="st2" cx="201.2" cy="121.5" r="2.4"/>
	<circle class="st2" cx="233.9" cy="69.9" r="7.7"/>
	<circle class="st4" cx="321.9" cy="140.9" r="5"/>
</g>
</svg>
