<svg width="196" height="196" viewBox="0 0 196 196" fill="none" xmlns="http://www.w3.org/2000/svg">
<path d="M114.329 97.7001C116.62 94.5409 125.016 65.8667 118.923 67.7672C116.654 68.4765 113.906 77.8045 112.688 77.8045C112.471 77.8045 104.917 52.8926 94.9732 66.0867C85.0293 79.2808 129.818 159.212 135.49 164.377" stroke="black" stroke-width="7" stroke-linecap="round" stroke-linejoin="round"/>
<path d="M98.4021 127.941C86.1574 129.932 76.0931 122.225 67.2044 112.514C38.0465 80.667 62.6399 19.157 109.577 30.8606C153.278 41.7567 151.353 114.32 109.037 124.87" stroke="black" stroke-width="7" stroke-linecap="round" stroke-linejoin="round"/>
<path d="M84.4177 85.448C80.8246 86.295 78.7908 86.2991 76.5137 83.5122" stroke="black" stroke-width="7" stroke-linecap="round" stroke-linejoin="round"/>
<path d="M89.2812 108.301C92.3077 107.137 95.332 107.217 98.4013 107.681" stroke="black" stroke-width="7" stroke-linecap="round" stroke-linejoin="round"/>
<path d="M136.876 164.305C134.852 163.026 142.66 139.846 142.155 139.676C139.358 138.742 122.083 139.508 117.887 139.676C81.9079 141.115 65.7633 126.613 53.4102 166.201" stroke="black" stroke-width="7" stroke-linecap="round" stroke-linejoin="round"/>
<path d="M69.8262 143.096C70.8169 150.389 71.0354 158.17 71.6502 165.593" stroke="black" stroke-width="7" stroke-linecap="round" stroke-linejoin="round"/>
</svg>
