<?xml version="1.0" encoding="utf-8"?>
<!-- Generator: Adobe Illustrator 25.4.1, SVG Export Plug-In . SVG Version: 6.00 Build 0)  -->
<svg version="1.1" id="Capa_1" xmlns="http://www.w3.org/2000/svg" xmlns:xlink="http://www.w3.org/1999/xlink" x="0px" y="0px"
	 viewBox="0 0 578.79 564.81" style="enable-background:new 0 0 578.79 564.81;" xml:space="preserve">
<style type="text/css">
	.st0{fill:#FAE058;}
</style>
<ellipse class="st0" cx="302.75" cy="301.08" rx="269.12" ry="254.92"/>
<g>
	<g>
		<path d="M552.82,271.08c-0.05,34.44-6.84,68.88-20.22,100.87l-2.63,5.94c-0.89,1.97-1.69,4-2.66,5.94l-2.91,5.82l-1.46,2.91
			c-0.48,0.98-0.97,1.94-1.52,2.88l-3.18,5.69c-1.08,1.89-2.07,3.84-3.26,5.65l-3.46,5.54c-1.16,1.84-2.28,3.72-3.56,5.48
			c-9.75,14.46-20.95,28.02-33.44,40.36c-24.98,24.67-55.17,44.34-88.11,57.19c-32.92,12.93-68.42,19.13-103.67,18.56
			c-35.26-0.62-70.25-8.12-102.53-21.53c-32.31-13.4-61.91-32.69-87.21-56.43c-25.29-23.74-46.22-52.14-60.84-83.7
			c-1.77-3.96-3.44-7.98-5.19-11.96c-1.56-4.06-3.05-8.14-4.58-12.22l-3.98-12.44l-3.32-12.65c-3.94-16.99-6.27-34.41-6.67-51.93
			c-0.88-35.02,5.66-70.52,19.71-103.01C42.01,135.5,63.17,106.12,89,81.84c25.83-24.31,56.42-43.58,89.54-56.48
			c16.55-6.48,33.73-11.33,51.2-14.58c17.48-3.23,35.25-4.8,53.01-4.78c35.5,0.21,71.02,6.88,103.95,20.05
			c4.17,1.52,8.16,3.46,12.21,5.25c4.07,1.74,7.98,3.84,11.93,5.83c3.97,1.95,7.77,4.24,11.6,6.44c3.87,2.14,7.55,4.59,11.26,6.99
			c14.78,9.68,28.49,20.89,41,33.23c12.49,12.37,23.67,25.96,33.41,40.44c1.28,1.76,2.4,3.65,3.56,5.49l3.46,5.54
			c1.2,1.82,2.18,3.77,3.26,5.66l3.18,5.7c0.54,0.94,1.04,1.91,1.52,2.89l1.46,2.92l2.91,5.83c0.97,1.94,1.77,3.96,2.66,5.94
			l2.63,5.95C546.12,202.16,552.88,236.64,552.82,271.08z M550.92,271.08l-0.4-12.81l-1.08-12.76l-1.82-12.67
			c-0.8-4.19-1.66-8.37-2.52-12.55c-3.83-16.62-9.57-32.78-17.02-48.04c-1.95-3.77-3.84-7.57-5.89-11.28l-3.21-5.49l-1.6-2.74
			c-0.52-0.92-1.06-1.83-1.67-2.7l-3.5-5.3c-1.19-1.75-2.27-3.56-3.56-5.24l-3.75-5.11c-1.26-1.7-2.46-3.43-3.83-5.04
			c-10.42-13.27-22.21-25.38-34.94-36.26c-25.49-21.78-54.87-38.48-86.01-49.83c-15.58-5.66-31.64-9.98-47.95-12.8
			c-16.32-2.78-32.86-4.23-49.42-4.16c-33.11,0.16-66.12,6.08-97.1,17.65c-30.96,11.58-59.86,28.87-84.47,51.09
			c-24.63,22.18-44.84,49.26-59.13,79.29c-1.74,3.77-3.36,7.6-5.06,11.4l-4.46,11.66l-3.88,11.88l-3.25,12.09
			c-3.89,16.24-6.13,32.92-6.57,49.72c-0.85,33.57,5.52,67.55,19.17,98.57c13.56,31.04,33.99,59.1,59.16,81.82
			c25.14,22.79,55.03,40.06,86.8,51.14c31.8,11.14,65.44,16,98.79,15.48c33.37-0.66,66.48-6.82,97.65-18.44
			c31.14-11.62,60.44-28.52,85.91-50.37c12.74-10.91,24.5-23.05,34.92-36.34c1.37-1.61,2.57-3.35,3.83-5.05l3.75-5.12
			c1.29-1.68,2.38-3.49,3.56-5.25l3.5-5.3c0.6-0.87,1.14-1.78,1.67-2.7l1.6-2.74l3.21-5.49c2.05-3.71,3.93-7.52,5.88-11.29
			c7.45-15.27,13.17-31.44,16.98-48.08c0.86-4.18,1.71-8.36,2.5-12.55l1.8-12.68l1.05-12.77L550.92,271.08z"/>
	</g>
</g>
<g>
	<path d="M164.95,342.09c2.64,0.67,5.17,1.48,7.62,2.36c2.47,0.85,4.91,1.71,7.28,2.64c0.6,0.22,1.18,0.48,1.77,0.71l1.79,0.66
		l3.52,1.4c2.3,1,4.67,1.86,6.96,2.83c2.28,0.99,4.58,1.91,6.86,2.87l3.39,1.46c1.15,0.45,2.27,0.94,3.41,1.41l3.37,1.47
		c1.13,0.46,2.26,0.95,3.37,1.46c1.11,0.51,2.21,1.07,3.31,1.61c1.11,0.53,2.21,1.07,3.3,1.65l6.54,3.59
		c1.09,0.62,2.18,1.26,3.29,1.86l3.35,1.75c2.23,1.22,4.53,2.26,6.88,3.2c2.33,1.01,4.73,1.74,7.16,2.4
		c9.73,2.55,20.01,2.57,29.89,0.77l7.35-1.47l3.62-0.87c1.2-0.27,2.41-0.51,3.6-0.8c2.39-0.62,4.77-1.08,7.14-1.65l3.54-0.84
		l1.77-0.41l1.75-0.49c9.37-2.53,18.4-5.92,27.55-9.04c1.14-0.4,2.29-0.79,3.44-1.16c1.15-0.38,2.29-0.82,3.44-1.22
		c2.3-0.8,4.62-1.57,6.92-2.43c2.3-0.85,4.65-1.62,6.94-2.54c2.32-0.85,4.66-1.69,6.99-2.61l14.19-5.36
		c2.38-0.92,4.82-1.79,7.27-2.67c2.43-0.91,4.92-1.77,7.5-2.54l0.03-0.01c0.53-0.16,1.08,0.14,1.24,0.67
		c0.09,0.31,0.02,0.64-0.16,0.88c-1.62,2.14-3.33,4.19-5.09,6.2c-1.77,1.99-3.66,3.84-5.55,5.72c-3.83,3.67-7.89,7.11-12.17,10.27
		c-2.1,1.65-4.34,3.08-6.55,4.57c-2.22,1.48-4.51,2.86-6.84,4.17c-1.17,0.65-2.3,1.37-3.5,1.97c-1.2,0.6-2.38,1.23-3.59,1.81
		c-2.39,1.23-4.86,2.29-7.35,3.3c-9.96,4.08-20.65,6.37-31.34,7.67l-2,0.26l-2.02,0.18l-4.02,0.35c-1.34,0.14-2.69,0.15-4.04,0.17
		c-1.35,0.03-2.69,0.02-4.04,0.01c-2.69-0.06-5.39-0.33-8.06-0.56c-2.68-0.32-5.34-0.72-7.97-1.12c-10.56-1.85-20.7-3.85-31.03-5.17
		c-2.58-0.34-5.2-0.55-7.82-0.84c-1.31-0.12-2.63-0.24-3.96-0.32c-1.33-0.1-2.65-0.25-3.98-0.36l-4.01-0.38
		c-1.33-0.15-2.65-0.35-3.99-0.53c-1.34-0.17-2.65-0.42-3.99-0.62c-1.31-0.29-2.62-0.57-3.91-0.9c-1.3-0.32-2.59-0.68-3.87-1.06
		c-1.26-0.42-2.52-0.87-3.76-1.35c-1.24-0.48-2.47-0.98-3.69-1.52c-1.21-0.55-2.39-1.17-3.58-1.75c-1.18-0.61-2.37-1.2-3.54-1.83
		c-1.17-0.63-2.3-1.32-3.44-1.99c-2.28-1.36-4.54-2.74-6.69-4.29c-4.36-3.01-8.48-6.34-12.34-9.98c-1.9-1.86-3.8-3.7-5.56-5.72
		c-1.75-2.02-3.44-4.11-5-6.34c-0.32-0.46-0.21-1.08,0.25-1.4c0.25-0.17,0.55-0.22,0.82-0.15L164.95,342.09z"/>
</g>
<g>
	<path d="M419.65,195.61c-8.34,5-16.31,8.96-24.2,12.93l-11.74,5.78c-3.88,1.94-7.87,3.59-12.07,5c-4.18,1.45-8.53,2.77-12.74,4.51
		c-4.17,1.77-8.13,4.03-11.58,6.91c-3.43,2.89-6.55,6.16-9.11,9.87c-2.65,3.64-4.67,7.73-6.66,11.69l-7.05-9.7
		c1.15-0.6,2.07-1.08,3.1-1.6c1-0.51,2.01-0.97,3.03-1.42c2.03-0.89,4.1-1.67,6.19-2.37c4.2-1.35,8.49-2.39,12.84-3.31
		c8.69-1.81,17.8-2.68,26.92-1.39c4.56,0.62,9.08,1.73,13.49,3.23c4.39,1.6,8.67,3.6,12.6,6.14c3.94,2.54,7.51,5.65,10.55,9.09
		c3.02,3.49,5.42,7.42,7.05,11.6c0.2,0.52-0.06,1.1-0.57,1.3c-0.28,0.11-0.57,0.08-0.81-0.04l-0.05-0.02
		c-3.94-1.97-7.52-3.83-11.21-5.24c-3.69-1.39-7.28-2.55-10.92-3.39c-3.65-0.8-7.26-1.46-10.91-1.88
		c-3.66-0.41-7.34-0.61-11.04-0.77c-3.7-0.15-7.44-0.19-11.23-0.26c-3.79-0.07-7.62-0.06-11.5,0.09c-3.88,0.14-7.77,0.52-11.67,0.96
		l-11.69,1.1l-2.83,0.27c-3.12,0.29-5.89-2-6.18-5.12c-0.18-1.9,0.63-3.69,1.97-4.85c1.87-1.59,3.69-3.2,5.58-4.71l5.62-4.49
		c3.69-3,7.29-5.98,10.78-9.11c3.5-3.11,6.83-6.42,10.13-9.96c1.69-1.71,3.32-3.55,5.09-5.22c0.88-0.84,1.74-1.73,2.65-2.55
		c0.91-0.81,1.83-1.63,2.77-2.4c3.78-3.09,7.97-5.6,12.43-7.47c4.44-1.9,9.05-3.41,13.75-4.52c4.7-1.1,9.51-1.79,14.36-1.97
		c2.43-0.08,4.87-0.05,7.32,0.16c2.45,0.2,4.89,0.57,7.36,1.26c0.54,0.15,0.86,0.72,0.71,1.26c-0.07,0.26-0.24,0.47-0.46,0.6
		L419.65,195.61z"/>
</g>
<g>
	<path d="M114.62,166.98c-0.7-2.74-0.69-5.18-0.5-7.54c0.22-2.35,0.74-4.56,1.46-6.65c0.73-2.09,1.68-4.06,2.8-5.92
		c0.58-0.91,1.16-1.83,1.88-2.64c0.72-0.81,1.53-1.55,2.44-2.22c3.66-2.65,8.74-3.88,12.02-6.51c1.67-1.31,3.09-2.84,4.34-4.57
		c0.64-0.85,1.21-1.79,1.75-2.77c0.57-0.95,1.09-1.97,1.62-3.01c0.51-1.05,1.09-2.06,1.67-3.08c0.29-0.51,0.59-1.01,0.9-1.51
		c0.33-0.47,0.65-0.96,1.01-1.41c0.35-0.46,0.7-0.92,1.08-1.35c0.36-0.45,0.75-0.87,1.16-1.26l2.49-2.35
		c1.74-1.49,3.48-3.05,5.42-4.34c1.89-1.35,4.02-2.41,6.2-3.26c4.45-1.59,9.32-2.19,14.12-1.82c1.21,0.12,2.42,0.32,3.6,0.53
		c1.18,0.2,2.38,0.62,3.54,0.99c2.32,0.74,4.57,1.99,6.65,3.54c0.52,0.39,0.63,1.13,0.24,1.66c-0.05,0.06-0.1,0.12-0.16,0.18
		l-0.08,0.07c-2.01,1.76-3.86,2.93-5.6,4.27l-1.29,0.9c-0.43,0.28-0.85,0.55-1.26,0.88c-0.83,0.59-1.63,1.16-2.44,1.66
		c-3.18,2.2-6.12,4.12-9.2,5.77c-1.52,0.89-3.15,1.48-4.81,2.17c-1.7,0.58-3.4,1.25-5.15,1.9c-1.71,0.74-3.42,1.5-5.31,2.11
		c-0.95,0.29-1.94,0.56-2.94,0.85c-1,0.28-2.06,0.51-3.07,0.83c-4.15,1.12-7.76,3.28-10.02,6.63c-2.34,3.32-2.6,8.32-3.99,12.11
		c-0.68,1.92-1.76,3.51-3.06,4.96c-1.27,1.47-2.65,2.87-4.17,4.19c-1.53,1.32-3.21,2.57-5.1,3.73c-1.91,1.15-3.95,2.26-6.54,3.15
		l-0.06,0.02c-0.66,0.23-1.38-0.12-1.6-0.78C114.64,167.04,114.63,167.01,114.62,166.98z"/>
</g>
<g>
	<ellipse cx="188.63" cy="231.15" rx="36.7" ry="43.03"/>
	<path d="M225.63,231.15c-0.04,5.26-0.7,10.51-2.04,15.65c-1.37,5.12-3.45,10.18-6.54,14.71c-3.08,4.51-7.18,8.5-12.13,11.21
		c-4.92,2.74-10.64,4.15-16.29,3.96c-5.65-0.19-11.14-1.99-15.82-4.84l-1.73-1.11c-0.28-0.19-0.58-0.36-0.85-0.56l-0.8-0.63
		c-1.06-0.85-2.17-1.64-3.1-2.62c-0.97-0.94-1.99-1.82-2.83-2.87l-1.33-1.51c-0.45-0.5-0.8-1.07-1.22-1.6
		c-6.46-8.53-10.04-19-10.66-29.78c-0.22-5.39,0.28-10.89,1.82-16.16c1.51-5.28,4.01-10.32,7.37-14.77
		c3.35-4.45,7.63-8.31,12.64-11.06c4.98-2.77,10.75-4.28,16.51-4.24c5.76,0.05,11.48,1.64,16.4,4.44
		c4.94,2.81,9.01,6.85,12.08,11.38c3.08,4.55,5.15,9.61,6.53,14.74C224.98,220.64,225.62,225.9,225.63,231.15z M225.03,231.15
		c-0.05-5.19-1.02-10.39-2.94-15.16c-1.88-4.79-4.71-9.13-8.1-12.78c-0.43-0.45-0.81-0.95-1.28-1.36l-1.37-1.25
		c-0.88-0.86-1.87-1.59-2.84-2.34c-0.93-0.8-2.01-1.38-3.02-2.03c-0.98-0.72-2.12-1.15-3.16-1.73c-4.29-2.1-8.98-3.23-13.69-3.18
		c-4.71,0.04-9.35,1.24-13.58,3.38c-4.23,2.15-8.01,5.28-11.11,9.03c-3.1,3.75-5.51,8.12-7.25,12.76c-1.72,4.65-2.83,9.6-3.11,14.66
		c-0.23,5.05,0.29,10.21,1.79,15.1c1.48,4.89,3.86,9.54,7.1,13.48c0.41,0.49,0.78,1.01,1.24,1.46l1.35,1.35
		c0.87,0.93,1.87,1.72,2.86,2.5c0.96,0.83,2.07,1.45,3.12,2.13c1.02,0.73,2.22,1.17,3.32,1.74c4.54,2.05,9.46,2.97,14.27,2.78
		c9.67-0.39,18.65-5.21,25.42-12.54c3.37-3.68,6.2-8.02,8.08-12.82C224.06,241.55,225.02,236.35,225.03,231.15z"/>
</g>
</svg>
