<svg width="113" height="111" viewBox="0 0 113 111" fill="none" xmlns="http://www.w3.org/2000/svg">
<path d="M59.1537 110.237C88.6852 110.237 112.625 87.4035 112.625 59.2363C112.625 31.0691 88.6852 8.23514 59.1537 8.23514C29.6222 8.23514 5.68213 31.0691 5.68213 59.2363C5.68213 87.4035 29.6222 110.237 59.1537 110.237Z" fill="#FAE058"/>
<path d="M108.84 53.2343C108.83 60.1246 107.481 67.0149 104.822 73.415L104.3 74.6034C104.123 74.9976 103.964 75.4037 103.771 75.7918L103.193 76.9562L102.903 77.5384C102.808 77.7345 102.71 77.9266 102.601 78.1146L101.969 79.253C101.755 79.6311 101.558 80.0213 101.321 80.3834L100.634 81.4918C100.403 81.8599 100.181 82.236 99.9266 82.5881C97.9893 85.4811 95.764 88.194 93.2824 90.6628C88.3191 95.5985 82.3206 99.5338 75.7757 102.105C69.2349 104.692 62.1814 105.932 55.1775 105.818C48.1717 105.694 41.2195 104.193 34.8058 101.51C28.3861 98.8296 22.5049 94.9703 17.478 90.2207C12.4531 85.4711 8.29454 79.7892 5.38968 73.4751C5.038 72.6828 4.70619 71.8785 4.35848 71.0823C4.04852 70.27 3.75248 69.4537 3.44848 68.6374L2.65769 66.1486L1.99804 63.6177C1.2152 60.2186 0.752251 56.7334 0.672775 53.2282C0.497928 46.2219 1.79736 39.1195 4.58896 32.6193C7.34678 26.1091 11.5511 20.2312 16.6832 15.3735C21.8154 10.5099 27.8934 6.65459 34.474 4.07372C37.7623 2.77728 41.1758 1.80696 44.6469 1.15674C48.12 0.51052 51.6508 0.196415 55.1795 0.200416C62.233 0.24243 69.2905 1.57688 75.8334 4.21177C76.6619 4.51587 77.4547 4.904 78.2594 5.26212C79.068 5.61024 79.8449 6.03038 80.6298 6.42851C81.4186 6.81864 82.1736 7.2768 82.9346 7.71694C83.7035 8.14509 84.4347 8.63525 85.1718 9.11541C88.1085 11.0521 90.8325 13.2948 93.3181 15.7637C95.7998 18.2385 98.0211 20.9574 99.9564 23.8544C100.211 24.2065 100.433 24.5846 100.664 24.9527L101.351 26.0611C101.59 26.4252 101.784 26.8154 101.999 27.1935L102.631 28.3339C102.738 28.5219 102.837 28.716 102.933 28.9121L103.223 29.4963L103.801 30.6627C103.994 31.0508 104.153 31.4549 104.33 31.8511L104.852 33.0415C107.509 39.4456 108.852 46.3439 108.84 53.2343ZM108.462 53.2343L108.383 50.6714L108.168 48.1185L107.807 45.5837C107.648 44.7454 107.477 43.9091 107.306 43.0728C106.545 39.7477 105.404 36.5146 103.924 33.4616C103.537 32.7073 103.161 31.9471 102.754 31.2048L102.116 30.1065L101.798 29.5583C101.695 29.3742 101.588 29.1922 101.466 29.0181L100.771 27.9578C100.535 27.6076 100.32 27.2455 100.064 26.9094L99.3186 25.8871C99.0682 25.5469 98.8298 25.2008 98.5576 24.8787C96.4872 22.2238 94.1447 19.801 91.6153 17.6243C86.5507 13.2668 80.7132 9.92569 74.526 7.65492C71.4304 6.52254 68.2394 5.65825 64.9988 5.09406C61.7562 4.53788 58.4698 4.24778 55.1795 4.26178C48.6009 4.29379 42.0421 5.47819 35.8867 7.79297C29.7352 10.1097 23.9931 13.5689 19.1033 18.0144C14.2096 22.4519 10.194 27.8697 7.35473 33.8777C7.00901 34.632 6.68713 35.3983 6.34936 36.1585L5.4632 38.4913L4.69228 40.8681L4.04654 43.2869C3.27363 46.536 2.82857 49.8731 2.74114 53.2343C2.57226 59.9505 3.83791 66.7488 6.55004 72.9549C9.24428 79.165 13.3035 84.7789 18.3046 89.3244C23.2996 93.8839 29.2385 97.3391 35.5509 99.5558C41.8692 101.785 48.5532 102.757 55.1795 102.653C61.8098 102.521 68.3884 101.288 74.5816 98.9636C80.7688 96.6389 86.5905 93.2577 91.6511 88.8862C94.1824 86.7035 96.519 84.2747 98.5894 81.6158C98.8616 81.2937 99.1 80.9456 99.3504 80.6055L100.095 79.5811C100.352 79.245 100.568 78.8829 100.803 78.5308L101.498 77.4704C101.617 77.2963 101.725 77.1143 101.83 76.9302L102.148 76.382L102.786 75.2837C103.193 74.5414 103.567 73.7792 103.954 73.0249C105.434 69.9699 106.571 66.7348 107.328 63.4057C107.499 62.5694 107.668 61.7331 107.825 60.8948L108.182 58.358L108.391 55.8031L108.462 53.2343Z" fill="black"/>
<path d="M31.774 67.441C32.2985 67.575 32.8012 67.7371 33.288 67.9132C33.7788 68.0832 34.2636 68.2553 34.7345 68.4413C34.8537 68.4854 34.9689 68.5374 35.0862 68.5834L35.4418 68.7154L36.1412 68.9955C36.5982 69.1956 37.0691 69.3676 37.5241 69.5617C37.9771 69.7598 38.4341 69.9438 38.8871 70.1359L39.5607 70.428C39.7892 70.518 40.0117 70.6161 40.2382 70.7101L40.9078 71.0042C41.1323 71.0962 41.3568 71.1943 41.5774 71.2963C41.7979 71.3983 42.0165 71.5104 42.235 71.6184C42.4556 71.7244 42.6741 71.8325 42.8907 71.9485L44.1902 72.6668C44.4067 72.7908 44.6233 72.9188 44.8438 73.0389L45.5095 73.389C45.9525 73.6331 46.4095 73.8411 46.8764 74.0292C47.3394 74.2313 47.8162 74.3773 48.2991 74.5094C50.2323 75.0195 52.2749 75.0235 54.2379 74.6634L55.6983 74.3693L56.4176 74.1953C56.656 74.1413 56.8964 74.0932 57.1328 74.0352C57.6077 73.9112 58.0806 73.8191 58.5515 73.7051L59.2549 73.537L59.6065 73.455L59.9542 73.357C61.816 72.8508 63.6101 72.1726 65.4282 71.5484C65.6547 71.4684 65.8832 71.3903 66.1117 71.3163C66.3402 71.2403 66.5667 71.1522 66.7952 71.0722C67.2521 70.9122 67.7131 70.7581 68.1701 70.5861C68.6271 70.416 69.094 70.2619 69.549 70.0779C70.01 69.9078 70.4749 69.7398 70.9379 69.5557L73.7573 68.4833C74.2302 68.2993 74.715 68.1252 75.2017 67.9492C75.6846 67.7671 76.1793 67.5951 76.6919 67.441L76.6979 67.439C76.8032 67.407 76.9125 67.467 76.9443 67.573C76.9621 67.6351 76.9482 67.7011 76.9125 67.7491C76.5906 68.1773 76.2508 68.5874 75.9011 68.9895C75.5495 69.3877 75.1739 69.7578 74.7984 70.1339C74.0374 70.8681 73.2307 71.5564 72.3803 72.1886C71.9631 72.5187 71.518 72.8048 71.0789 73.1029C70.6378 73.399 70.1828 73.6751 69.7199 73.9372C69.4874 74.0672 69.2629 74.2113 69.0245 74.3313C68.786 74.4514 68.5516 74.5774 68.3112 74.6934C67.8363 74.9395 67.3455 75.1516 66.8508 75.3537C64.8718 76.1699 62.7478 76.6281 60.6238 76.8882L60.2265 76.9402L59.8251 76.9762L59.0264 77.0462C58.7601 77.0742 58.4919 77.0762 58.2237 77.0802C57.9554 77.0862 57.6892 77.0842 57.4209 77.0822C56.8865 77.0702 56.35 77.0162 55.8195 76.9702C55.287 76.9062 54.7585 76.8262 54.2359 76.7461C52.1378 76.376 50.123 75.9759 48.0706 75.7118C47.558 75.6438 47.0374 75.6017 46.5168 75.5437C46.2565 75.5197 45.9943 75.4957 45.73 75.4797C45.4657 75.4597 45.2035 75.4297 44.9392 75.4077L44.1425 75.3316C43.8782 75.3016 43.6159 75.2616 43.3497 75.2256C43.0834 75.1916 42.8232 75.1416 42.5569 75.1016C42.2966 75.0436 42.0363 74.9875 41.78 74.9215C41.5217 74.8575 41.2654 74.7855 41.0111 74.7094C40.7608 74.6254 40.5104 74.5354 40.264 74.4394C40.0177 74.3433 39.7733 74.2433 39.5309 74.1352C39.2904 74.0252 39.056 73.9012 38.8196 73.7851C38.5851 73.6631 38.3487 73.5451 38.1162 73.419C37.8837 73.293 37.6592 73.1549 37.4327 73.0209C36.9797 72.7488 36.5306 72.4727 36.1035 72.1626C35.2372 71.5604 34.4186 70.8942 33.6516 70.1659C33.2741 69.7938 32.8966 69.4257 32.5469 69.0215C32.1992 68.6174 31.8634 68.1993 31.5534 67.7531C31.4899 67.6611 31.5117 67.537 31.6031 67.473C31.6528 67.439 31.7124 67.429 31.766 67.443L31.774 67.441Z" fill="black"/>
<path d="M82.3803 38.1352C80.7232 39.1355 79.1397 39.9278 77.572 40.7221L75.2394 41.8784C74.4684 42.2666 73.6757 42.5967 72.8412 42.8788C72.0106 43.1689 71.1463 43.433 70.3099 43.7811C69.4813 44.1352 68.6945 44.5874 68.009 45.1635C67.3275 45.7417 66.7076 46.396 66.199 47.1382C65.6724 47.8665 65.2711 48.6847 64.8757 49.477L63.4749 47.5363C63.7034 47.4163 63.8862 47.3203 64.0909 47.2162C64.2895 47.1142 64.4902 47.0222 64.6929 46.9321C65.0962 46.7541 65.5075 46.598 65.9228 46.458C66.7573 46.1879 67.6097 45.9798 68.474 45.7958C70.2006 45.4336 72.0106 45.2596 73.8227 45.5177C74.7287 45.6417 75.6268 45.8638 76.503 46.1639C77.3753 46.484 78.2257 46.8841 79.0065 47.3923C79.7894 47.9005 80.4987 48.5227 81.1027 49.2109C81.7028 49.9091 82.1796 50.6954 82.5035 51.5317C82.5432 51.6357 82.4916 51.7518 82.3902 51.7918C82.3346 51.8138 82.277 51.8078 82.2293 51.7838L82.2194 51.7798C81.4365 51.3856 80.7252 51.0135 79.992 50.7314C79.2589 50.4533 78.5456 50.2212 77.8223 50.0532C77.0971 49.8931 76.3798 49.7611 75.6546 49.6771C74.9274 49.595 74.1962 49.555 73.4611 49.523C72.7259 49.493 71.9828 49.485 71.2298 49.471C70.4768 49.457 69.7158 49.459 68.9449 49.489C68.1739 49.517 67.401 49.593 66.6261 49.6811L64.3035 49.9011L63.7412 49.9552C63.1212 50.0132 62.5709 49.555 62.5132 48.9308C62.4775 48.5507 62.6384 48.1926 62.9047 47.9605C63.2762 47.6424 63.6378 47.3203 64.0134 47.0182L65.13 46.1199C65.8632 45.5197 66.5784 44.9235 67.2719 44.2973C67.9673 43.675 68.6289 43.0128 69.2846 42.3046C69.6204 41.9625 69.9443 41.5943 70.2959 41.2602C70.4708 41.0922 70.6417 40.9141 70.8225 40.7501C71.0033 40.588 71.1861 40.424 71.3728 40.2699C72.1239 39.6517 72.9564 39.1495 73.8426 38.7754C74.7248 38.3953 75.6407 38.0932 76.5746 37.8711C77.5084 37.651 78.4641 37.513 79.4278 37.477C79.9106 37.461 80.3954 37.467 80.8822 37.509C81.369 37.549 81.8538 37.623 82.3445 37.7611C82.4518 37.7911 82.5154 37.9051 82.4856 38.0131C82.4717 38.0652 82.4379 38.1072 82.3942 38.1332L82.3803 38.1352Z" fill="black"/>
<path d="M21.7742 32.4072C21.6351 31.859 21.6371 31.3709 21.6748 30.8987C21.7185 30.4286 21.8218 29.9864 21.9649 29.5683C22.1099 29.1501 22.2987 28.756 22.5212 28.3839C22.6365 28.2018 22.7517 28.0177 22.8948 27.8557C23.0378 27.6936 23.1988 27.5456 23.3796 27.4115C24.1068 26.8814 25.1161 26.6353 25.7678 26.1091C26.0996 25.847 26.3818 25.5409 26.6302 25.1948C26.7573 25.0247 26.8706 24.8367 26.9779 24.6406C27.0911 24.4505 27.1944 24.2465 27.2997 24.0384C27.4011 23.8283 27.5163 23.6263 27.6316 23.4222C27.6892 23.3202 27.7488 23.2201 27.8104 23.1201C27.8759 23.0261 27.9395 22.928 28.011 22.838C28.0806 22.746 28.1501 22.6539 28.2256 22.5679C28.2972 22.4779 28.3747 22.3938 28.4561 22.3158L28.9509 21.8457C29.2966 21.5476 29.6423 21.2355 30.0278 20.9774C30.4033 20.7073 30.8265 20.4952 31.2596 20.3252C32.1438 20.007 33.1114 19.887 34.0651 19.961C34.3056 19.985 34.546 20.0251 34.7804 20.0671C35.0149 20.1071 35.2533 20.1911 35.4838 20.2651C35.9448 20.4132 36.3918 20.6633 36.8051 20.9734C36.9084 21.0514 36.9303 21.1994 36.8528 21.3055C36.8428 21.3175 36.8329 21.3295 36.821 21.3415L36.8051 21.3555C36.4057 21.7076 36.0381 21.9417 35.6924 22.2098L35.4361 22.3898C35.3507 22.4459 35.2672 22.4999 35.1858 22.5659C35.0208 22.6839 34.8619 22.798 34.701 22.898C34.0691 23.3382 33.485 23.7223 32.873 24.0524C32.571 24.2305 32.2471 24.3485 31.9173 24.4866C31.5795 24.6026 31.2418 24.7366 30.894 24.8667C30.5543 25.0147 30.2145 25.1668 29.839 25.2888C29.6502 25.3468 29.4535 25.4009 29.2549 25.4589C29.0562 25.5149 28.8455 25.5609 28.6449 25.6249C27.8203 25.849 27.103 26.2812 26.654 26.9514C26.1891 27.6156 26.1374 28.6159 25.8612 29.3742C25.7261 29.7583 25.5115 30.0764 25.2532 30.3665C25.0009 30.6606 24.7267 30.9407 24.4247 31.2048C24.1207 31.4689 23.7869 31.719 23.4114 31.9511C23.0319 32.1811 22.6265 32.4032 22.1119 32.5813L22.1 32.5853C21.9689 32.6313 21.8258 32.5613 21.7821 32.4292C21.7781 32.4192 21.7761 32.4132 21.7742 32.4072Z" fill="black"/>
<path d="M36.479 53.8545C40.5062 53.8545 43.7709 50.0001 43.7709 45.2456C43.7709 40.491 40.5062 36.6367 36.479 36.6367C32.4517 36.6367 29.187 40.491 29.187 45.2456C29.187 50.0001 32.4517 53.8545 36.479 53.8545Z" fill="black"/>
<path d="M43.8307 45.2456C43.8228 46.2979 43.6916 47.3483 43.4254 48.3766C43.1532 49.401 42.7399 50.4133 42.1259 51.3196C41.514 52.2219 40.6993 53.0202 39.7158 53.5623C38.7383 54.1105 37.6018 54.3926 36.4792 54.3546C35.3566 54.3166 34.2657 53.9565 33.3359 53.3863L32.9921 53.1642C32.9365 53.1262 32.8769 53.0922 32.8233 53.0522L32.6643 52.9261C32.4537 52.7561 32.2331 52.598 32.0484 52.402C31.8556 52.2139 31.653 52.0378 31.4861 51.8278L31.2218 51.5257C31.1324 51.4256 31.0629 51.3116 30.9794 51.2056C29.6959 49.499 28.9846 47.4043 28.8614 45.2476C28.8177 44.1692 28.917 43.0688 29.223 42.0145C29.523 40.9581 30.0197 39.9498 30.6873 39.0595C31.3529 38.1692 32.2033 37.3969 33.1988 36.8467C34.1883 36.2925 35.3347 35.9904 36.4792 35.9984C37.6236 36.0084 38.7601 36.3266 39.7377 36.8867C40.7192 37.4489 41.5279 38.2572 42.1379 39.1635C42.7498 40.0738 43.1611 41.0862 43.4353 42.1125C43.7016 43.1428 43.8287 44.1952 43.8307 45.2456ZM43.7115 45.2456C43.7016 44.2072 43.5088 43.1669 43.1273 42.2125C42.7538 41.2542 42.1915 40.3859 41.5179 39.6557C41.4325 39.5656 41.357 39.4656 41.2636 39.3836L40.9914 39.1335C40.8166 38.9614 40.6199 38.8154 40.4271 38.6653C40.2423 38.5053 40.0278 38.3892 39.8271 38.2592C39.6324 38.1152 39.4059 38.0291 39.1992 37.9131C38.3468 37.4929 37.415 37.2669 36.4792 37.2769C35.5433 37.2849 34.6214 37.525 33.7809 37.9531C32.9405 38.3832 32.1894 39.0095 31.5735 39.7597C30.9575 40.51 30.4787 41.3843 30.133 42.3126C29.7912 43.2429 29.5707 44.2332 29.5151 45.2456C29.4694 46.2559 29.5727 47.2882 29.8707 48.2666C30.1648 49.2449 30.6377 50.1752 31.2814 50.9635C31.3629 51.0615 31.4364 51.1655 31.5278 51.2556L31.796 51.5257C31.9689 51.7117 32.1676 51.8698 32.3643 52.0258C32.555 52.1919 32.7756 52.3159 32.9842 52.452C33.1869 52.598 33.4253 52.6861 33.6438 52.8001C34.5459 53.2102 35.5235 53.3943 36.4792 53.3563C38.4005 53.2783 40.1847 52.3139 41.5299 50.8474C42.1995 50.1112 42.7617 49.2429 43.1353 48.2826C43.5188 47.3263 43.7095 46.2859 43.7115 45.2456Z" fill="black"/>
</svg>
