<?xml version="1.0" encoding="utf-8"?>
<!-- Generator: Adobe Illustrator 25.4.1, SVG Export Plug-In . SVG Version: 6.00 Build 0)  -->
<svg version="1.1" id="Capa_1" xmlns="http://www.w3.org/2000/svg" xmlns:xlink="http://www.w3.org/1999/xlink" x="0px" y="0px"
	 viewBox="0 0 362.4 330.9" style="enable-background:new 0 0 362.4 330.9;" xml:space="preserve">
<style type="text/css">
	.st0{fill:#0049E5;}
	.st1{fill:#ECCEFF;}
	.st2{fill:#FAE058;}
	.st3{fill:#F089C0;}
</style>
<g>
	<path class="st0" d="M30.1,131.3c0,0-18.6,12.6-21.9,31.9s0,54.2,0,54.2l126.7-3.7c0,0,6.5,8.5,22.5,14.9s70.5,20.8,82,10.7
		s13.1-25.5,13.1-25.5s12.7-8.3,12.7-14.9c0-6.6-2.9-20.1-2.9-20.1s7.5,2.3,7-9.3c-0.5-11.7,2.8-21.2-7-21.5c0,0,73.3-3.7,81.1-3.7
		c15.6,0,15.5-28.7-2.3-28.9H236.9c0,0-2.3-18.6-24.6-27s-20.5-8.4-33.5,0s-38.2,47.1-38.2,47.1L30.1,131.3z"/>
	<path d="M26.2,128.3c4.8-0.1,9.5,0,14.3,0.2c4.8,0.2,9.5,0.4,14.3,0.7l7.1,0.7c2.4,0.2,4.7,0.5,7.1,0.6c4.8,0.3,9.5,0.4,14.3,0.5
		c4.8,0,9.5,0.1,14.3,0.2c4.8,0.1,9.5,0.2,14.3,0.4l14.3,0.6c2.4,0.1,4.8,0.2,7.1,0.3c1.2,0,2.4,0.1,3.6,0.1c1.2,0,2.4,0,3.6,0h0
		c0.1,0,0.1,0,0.1,0.1c0,0.1,0,0.1-0.1,0.1c-2.4,0.3-4.8,0.6-7.1,0.7c-2.4,0.2-4.8,0.2-7.2,0.3c-2.4,0.1-4.8,0.1-7.2,0.1
		c-2.4,0-4.8,0-7.2-0.1c-4.8-0.1-9.5-0.4-14.3-0.6c-4.8-0.3-9.5-0.6-14.3-1c-4.8-0.4-9.5-0.8-14.3-0.9c-4.8-0.2-9.5-0.1-14.3-0.2
		c-4.8-0.1-9.5-0.5-14.3-0.9c-4.8-0.4-9.5-0.9-14.2-1.5C26.2,128.5,26.1,128.4,26.2,128.3C26.2,128.3,26.2,128.3,26.2,128.3z"/>
	<path d="M142.8,169.4c-1.5-2.5-2.9-5.1-4-7.8c-1.2-2.7-2.2-5.5-2.8-8.3c-0.7-2.9-1-5.8-0.8-8.8c0-0.4,0-0.8,0.1-1.1l0.2-1.1
		c0.1-0.4,0.1-0.7,0.2-1.1l0.4-1.1c0.6-1.4,1.3-2.7,2.1-4c3.2-5,7-9.4,10.9-13.8c3.9-4.4,8-8.5,12.2-12.6c4.2-4.1,8.5-8,12.8-11.9
		c2.2-1.9,4.3-3.9,6.6-5.8c2.2-1.9,4.4-3.8,6.7-5.6c1.2-0.9,2.4-1.6,3.8-2.3c1.4-0.6,2.8-1,4.3-1.1c3-0.3,5.9,0.5,8.7,1.4
		c5.5,2,10.8,4.6,16,7.1c2.6,1.3,5.2,2.6,7.8,4c2.6,1.4,5.1,2.9,7.5,4.7c2.3,1.8,4.6,4.1,5.8,6.9c1.2,2.9,1.5,6,1.4,8.9
		c-0.1,3-0.5,5.9-0.8,8.8c-0.4,2.9-0.9,5.8-1.5,8.7c-0.5,2.9-1.2,5.7-1.8,8.5c-0.3,1.4-0.6,2.8-0.8,4.2l-0.1,1l-0.1,1l0,1l0.1,0.5
		c0,0.2,0,0.2,0.1,0.6c0.1,1.2-0.5,2.1-1.1,2.7c-0.6,0.6-1.3,1.1-2,1.5c-1.4,0.8-2.9,1.3-4.4,1.6c-3,0.7-6.1,0.6-9.1-0.2
		c-3-0.9-5.7-2.7-7.5-5.2c-0.9-1.2-1.6-2.6-2.2-4l-0.8-2l-0.7-2.1c-1.9-5.5-3.2-11.4-3.1-17.3c0-2.9,0.5-5.9,1.5-8.7
		c1-2.8,2.5-5.3,4.6-7.5c0,0,0.1,0,0.1,0c0,0,0,0.1,0,0.1c-1.9,2.2-3.3,4.8-4.1,7.5c-0.8,2.7-1.1,5.6-1.1,8.5c0,2.9,0.4,5.7,1.1,8.5
		c0.6,2.8,1.5,5.5,2.5,8.2l0.8,2l0.8,2c0.6,1.3,1.2,2.5,2,3.6c1.7,2.2,4,3.7,6.7,4.4c2.6,0.7,5.5,0.7,8.1,0.1
		c1.3-0.3,2.6-0.8,3.8-1.4c0.6-0.3,1.1-0.7,1.5-1.1c0.4-0.4,0.6-0.9,0.6-1.1c0,0,0-0.3-0.1-0.5l-0.1-0.6l0-1.2l0.1-1.2l0.1-1.1
		c0.2-1.5,0.5-2.9,0.8-4.4l1.8-8.5c0.6-2.8,1.1-5.7,1.5-8.5c0.4-2.9,0.8-5.7,0.9-8.6c0.1-2.8-0.1-5.7-1.1-8.2c-1-2.5-3-4.6-5.2-6.4
		c-2.2-1.8-4.7-3.3-7.2-4.7c-2.5-1.5-5.1-2.8-7.6-4.2c-2.6-1.4-5.1-2.7-7.7-4c-2.6-1.3-5.2-2.5-8-3.4c-2.7-0.9-5.6-1.7-8.4-1.4
		c-1.4,0.1-2.8,0.5-4.1,1.1c-1.3,0.6-2.5,1.4-3.6,2.3c-4.5,3.6-8.7,7.6-12.9,11.6c-4.2,4-8.3,8.1-12.4,12.3
		c-4.1,4.1-8.1,8.3-12,12.6c-3.9,4.3-7.8,8.6-10.9,13.4c-3.6,4.6-3.6,10.6-2.5,16.2c1.2,5.6,3.3,11.1,6,16.2c0,0,0,0.1,0,0.1
		C142.9,169.5,142.8,169.5,142.8,169.4z"/>
	<path d="M207,126.3c-0.6-1.9-1.5-3.4-2.4-5.1c-0.4-0.9-0.7-1.8-1.3-2.6c-0.6-0.8-1.3-1.4-2.1-2c-0.8-0.5-1.6-1.1-2.4-1.7
		c-0.8-0.6-1.6-1.1-2.3-1.7c-1.5-1.2-2.9-2.5-4.4-3.9c0,0,0-0.1,0-0.1c0,0,0.1,0,0.1,0c2.1,0.3,3.9,1.2,5.6,2.4
		c0.8,0.6,1.5,1.3,2.3,2c0.3,0.4,0.7,0.7,1,1.1c0.3,0.4,0.6,0.8,0.9,1.2c0.6,0.9,1.2,1.6,1.8,2.4c0.4,0.4,0.7,0.7,1.1,1
		c0.4,0.3,0.8,0.7,1.1,1.1c0.3,0.4,0.6,0.8,0.8,1.3c0.2,0.5,0.4,1,0.5,1.5c0.3,1,0.2,2.2-0.2,3.1C207.2,126.4,207.1,126.4,207,126.3
		C207,126.4,207,126.4,207,126.3L207,126.3z"/>
	<path d="M239.3,130.8c-2.9,0.6-5,2.3-7,4.1c-1,0.9-2.2,1.8-2.9,3.1c-0.4,0.6-0.6,1.3-0.9,1.9c-0.2,0.7-0.4,1.4-0.4,2.1
		c-0.1,0.7-0.1,1.4-0.1,2.1c0,0.3,0,0.7,0,1l0,1c0,0.7,0.1,1.4,0.2,2c0.1,0.9,0.1,0.8,0.4,1.1c0.3,0.2,1,0.4,1.6,0.6
		c0.6,0.1,1.3,0.2,2,0.2c1.4,0.1,2.8,0.1,4.3,0.2c0.1,0,0.1,0,0.1,0.1c0,0,0,0.1-0.1,0.1c-1.4,0.6-2.8,1-4.3,1.2
		c-0.7,0.1-1.5,0.2-2.3,0.1c-0.8-0.1-1.6-0.2-2.5-0.7c-0.4-0.3-0.9-0.7-1.1-1.3c-0.1-0.1-0.1-0.3-0.1-0.4l0-0.2l0-0.1l0-0.6
		c0-0.8-0.1-1.5,0-2.3l0.1-1.1c0.1-0.4,0.1-0.8,0.2-1.1c0.1-0.7,0.4-1.5,0.6-2.2c0.2-0.7,0.6-1.4,0.9-2.1c0.4-0.7,0.6-1.3,1-2
		c0.6-1.3,1.3-2.7,2.2-3.9c0.5-0.6,1-1.1,1.7-1.6c0.6-0.5,1.3-0.8,2-1.1c1.4-0.6,3.1-0.9,4.5-0.4
		C239.3,130.6,239.4,130.6,239.3,130.8C239.3,130.7,239.3,130.8,239.3,130.8z"/>
	<path d="M241.6,115.2c6.1-0.4,12.2-0.6,18.3-0.8c6.1-0.1,12.2-0.2,18.3-0.1c6.1,0.1,12.2,0.4,18.3,0.5c6.1,0.1,12.2-0.1,18.3-0.2
		c6.1-0.2,12.2-0.3,18.3-0.3c3.1,0,6.1,0,9.2,0.1c3.2,0.1,6.3,0.9,9.2,2.4c1.4,0.8,2.7,1.7,3.9,2.9c1.1,1.2,2.1,2.5,2.9,3.9
		c1.5,2.9,2,6.3,1.2,9.5c-0.3,1.6-1,3.1-1.9,4.4c-0.9,1.3-2,2.5-3.2,3.5c-1.2,1-2.6,1.7-4.1,2.3c-1.4,0.6-3,0.9-4.5,1.1
		c-0.1,0-0.1,0-0.1-0.1c0-0.1,0-0.1,0.1-0.1c2.9-0.8,5.8-2,8-4c1.1-1,2.1-2.1,2.8-3.4c0.7-1.3,1.2-2.6,1.4-4c0.5-2.8,0-5.8-1.4-8.2
		c-0.7-1.2-1.6-2.4-2.6-3.4c-1-1-2.2-1.8-3.5-2.5c-1.3-0.7-2.6-1.2-4-1.6c-1.4-0.3-2.8-0.6-4.3-0.7c-3-0.2-6.1-0.2-9.1-0.3
		c-6.1-0.1-12.2-0.3-18.3-0.5c-6.1-0.2-12.2-0.3-18.3-0.2c-3,0-6.1,0.1-9.1,0.2l-9.1,0.3c-6.1,0.1-12.2,0.1-18.3,0
		s-12.2-0.3-18.3-0.6C241.5,115.4,241.5,115.4,241.6,115.2C241.5,115.3,241.5,115.2,241.6,115.2z"/>
	<path d="M343.3,144.3c-4.4,0.8-8.8,1.2-13.2,1.6c-4.4,0.4-8.9,0.7-13.3,0.8l-6.7,0c-2.2,0-4.4,0-6.7,0c-4.4,0.1-8.9,0.4-13.3,0.7
		c-4.4,0.3-8.9,0.6-13.3,0.8c-4.4,0.2-8.9,0.3-13.3,0.4c-4.4,0-8.9,0-13.3-0.3c-4.4-0.2-8.9-0.5-13.3-1.2c-0.1,0-0.1-0.1-0.1-0.1
		c0,0,0.1-0.1,0.1-0.1c8.9,0,17.7-0.3,26.6-0.5c4.4-0.1,8.9-0.1,13.3-0.1c4.4,0,8.9,0,13.3,0c4.4,0,8.9,0,13.3-0.3
		c4.4-0.2,8.8-0.7,13.3-1.1c8.9-0.6,17.7-0.8,26.6-0.9c0.1,0,0.1,0,0.1,0.1C343.3,144.3,343.3,144.3,343.3,144.3z"/>
	<path d="M258,147.5c0.9-0.2,1.9-0.3,2.8-0.3c0.5,0,1,0,1.4,0.1c0.5,0,1,0.1,1.4,0.2c1.9,0.3,3.9,1.2,5.2,2.8
		c1.4,1.6,1.9,3.5,2.3,5.4c0.4,1.9,0.6,3.7,0.8,5.6c0.2,1.9,0.4,3.7,0.4,5.6c0,1.9-0.1,3.9-0.8,5.8c-0.7,1.9-2.2,3.7-3.9,4.6
		c-1.7,1-3.7,1.4-5.5,1.6c-0.1,0-0.1,0-0.1-0.1c0,0,0-0.1,0.1-0.1c1.7-0.8,3.3-1.6,4.7-2.7c1.4-1.1,2.3-2.5,2.8-4
		c1.1-3.2,0.8-7,1.3-10.7c0.2-1.8,0.2-3.7-0.4-5.5c-0.5-1.8-1.6-3.3-2.9-4.3c-0.3-0.3-0.6-0.6-1-0.8c-0.4-0.2-0.7-0.5-1.1-0.7
		c-0.8-0.4-1.5-0.8-2.4-1c-0.8-0.3-1.7-0.5-2.6-0.7c-0.9-0.2-1.8-0.3-2.7-0.5l0,0C257.9,147.7,257.9,147.6,258,147.5
		C257.9,147.5,257.9,147.5,258,147.5z"/>
	<path d="M212.3,147.1c-1,0.7-2.1,1.4-3,2.2c-0.9,0.8-1.7,1.7-2.4,2.7c-1.4,2-2.1,4.3-2.4,6.7c-0.4,4.7-0.8,10.4,3.4,12.8
		c2,1.3,4.4,1.9,6.8,2.5c2.4,0.5,4.9,0.8,7.4,1c5,0.4,10,0.2,15,0c5-0.2,10.1-0.3,15.2,0.4c2.5,0.3,5.1,0.8,7.5,1.9
		c1.2,0.5,2.4,1.3,3.4,2.3c1,1,1.8,2.3,2.2,3.7l0.1,0.5l0.1,0.5c0,0.3,0.1,0.7,0.1,1l0.1,1.9c0.1,1.3,0.1,2.6,0.1,3.8
		c-0.1,2.6-0.3,5.2-1.2,7.7c-0.8,2.5-2.3,4.8-4.1,6.6c-1.9,1.8-4.1,3.1-6.4,4.1c-0.1,0-0.1,0-0.1-0.1c0,0,0-0.1,0-0.1
		c2.1-1.3,4.2-2.8,5.7-4.7c1.6-1.8,2.7-4,3.4-6.3c0.6-2.3,0.8-4.8,0.8-7.2c0-1.2-0.1-2.5-0.2-3.7l-0.2-1.8c0-0.3-0.1-0.6-0.1-0.9
		l-0.1-0.4l-0.1-0.4c-0.6-2.1-2.3-3.7-4.4-4.6c-2.1-1-4.5-1.6-6.9-2c-4.9-0.8-9.9-0.9-14.9-1.2c-5-0.2-10-0.3-15.1-0.5
		c-1.3-0.1-2.5-0.1-3.8-0.2c-1.3-0.1-2.5-0.2-3.8-0.4c-2.5-0.4-5.1-0.9-7.5-2.2c-1.2-0.7-2.3-1.6-3-2.8c-0.8-1.2-1.1-2.6-1.3-3.9
		c-0.2-1.3-0.2-2.6-0.1-3.9c0-1.3,0.2-2.6,0.4-3.9c0.4-2.6,1.4-5.1,3.1-7.1c1.7-2,3.9-3.5,6.2-4.5c0.1,0,0.1,0,0.1,0.1
		C212.4,147,212.4,147.1,212.3,147.1z"/>
	<path d="M212.5,174.3c-1.3,0.3-2.5,0.7-3.6,1.4c-1.1,0.7-2,1.5-2.7,2.6c-0.7,1-1.2,2.2-1.6,3.4c-0.3,1.2-0.6,2.4-0.6,3.7
		c-0.1,1.3-0.1,2.5,0,3.8c0.1,1.3,0.2,2.6,0.3,3.8c0.2,1.2,0.4,2.4,1.1,3.4c0.6,0.9,1.6,1.7,2.7,2.2c2.2,1.1,4.7,1.5,7.2,1.9
		c2.5,0.4,5.1,0.7,7.6,0.9c5.1,0.5,10.3,0.9,15.5,1.7c2.6,0.4,5.1,1,7.7,1.8c1.3,0.4,2.5,0.9,3.7,1.5c1.2,0.6,2.4,1.3,3.3,2.3
		c1,0.9,1.8,2.1,2.2,3.5c0.1,0.3,0.1,0.7,0.2,1c0,0.3,0,0.7,0.1,1c0,0.7-0.1,1.3-0.1,2c-0.2,2.6-0.8,5.2-1.8,7.6
		c-0.9,2.5-2.2,4.8-3.6,6.9c-1.5,2.2-3.2,4.2-5.2,5.9c-1,0.9-2.1,1.6-3.2,2.3c-1.2,0.6-2.5,1-3.8,1.2c-2.6,0.5-5.2,0.4-7.8,0.3
		c-5.2-0.2-10.3-0.7-15.5-1c-2.6-0.1-5.1,0-7.7-0.1c-2.6,0-5.2-0.2-7.8-0.3c-10.4-0.6-20.7-1.7-30.9-3.9c-2.5-0.5-5.1-1.2-7.6-1.9
		c-2.5-0.7-5-1.5-7.5-2.4c-2.4-0.9-4.9-2-7.1-3.4c-1.1-0.7-2.3-1.4-3.3-2.2l-0.8-0.6l-0.7-0.7l-1.5-1.3c-1.8-1.9-3.6-4-4.5-6.6
		c-1-2.6-1-5.4-0.6-7.9c0.4-2.6,1-5.1,1.3-7.6c0.3-2.5,0.2-5.1-0.3-7.7c0-0.1,0-0.1,0.1-0.1c0.1,0,0.1,0,0.1,0.1
		c0.6,2.5,0.9,5.2,0.7,7.8c-0.1,2.6-0.6,5.2-0.9,7.7c-0.3,2.5-0.2,5.1,0.8,7.3c1,2.3,2.6,4.2,4.4,5.9c3.6,3.6,8.2,5.8,13,7.5
		c4.8,1.7,9.8,3,14.8,4c5,1,10.1,1.8,15.2,2.5c5.1,0.7,10.2,1.2,15.4,1.6c2.6,0.2,5.1,0.3,7.7,0.4c2.5,0.1,5.2,0.1,7.8,0.3
		c5.2,0.3,10.3,1.1,15.5,1.5c2.6,0.2,5.1,0.3,7.6-0.1c1.3-0.2,2.5-0.5,3.6-1c1.1-0.6,2.2-1.3,3.1-2.2c3.9-3.3,6.9-7.7,8.6-12.5
		c0.9-2.4,1.4-4.9,1.6-7.5c0-0.6,0-1.3,0-1.9c0-0.3,0-0.6-0.1-0.9c-0.1-0.3-0.1-0.6-0.2-0.9c-0.4-1.1-1.1-2.1-2-2.9
		c-1.8-1.6-4.3-2.5-6.7-3.2c-2.4-0.7-5-1.1-7.5-1.5c-5.1-0.7-10.2-1.1-15.4-1.6c-2.6-0.3-5.2-0.5-7.8-1c-1.3-0.2-2.6-0.5-3.9-0.8
		c-0.6-0.1-1.3-0.4-1.9-0.6c-0.6-0.3-1.3-0.5-1.9-0.8c-1.2-0.6-2.4-1.5-3.2-2.8c-0.8-1.3-1-2.7-1.1-4c-0.1-1.3-0.2-2.6-0.2-3.9
		c-0.1-1.3,0-2.6,0.1-4c0.3-2.6,1-5.3,2.7-7.4c0.8-1.1,1.9-1.9,3-2.6c1.2-0.6,2.5-0.9,3.8-1.1c0.1,0,0.1,0,0.1,0.1
		C212.6,174.2,212.6,174.3,212.5,174.3L212.5,174.3z"/>
	<path d="M135.7,215.6c-5.4,0.4-10.8,0.6-16.2,0.7c-5.4,0.1-10.8,0.2-16.2,0.1c-5.4-0.1-10.8-0.4-16.2-0.5
		c-5.4-0.1-10.8,0.1-16.2,0.5c-5.4,0.3-10.8,0.7-16.1,1c-5.4,0.3-10.8,0.7-16.1,1c-10.8,0.5-21.5,0.9-32.4,1.1c-0.1,0-0.1,0-0.1-0.1
		c0-0.1,0-0.1,0.1-0.1c10.7-1.4,21.5-2.3,32.2-3c5.4-0.3,10.8-0.5,16.2-0.7c5.4-0.2,10.8-0.3,16.2-0.2c5.4,0,10.8,0,16.2,0
		c5.4-0.1,10.8-0.4,16.2-0.5c5.4-0.1,10.8-0.1,16.2,0.1c5.4,0.1,10.8,0.3,16.2,0.7C135.7,215.4,135.8,215.5,135.7,215.6
		C135.8,215.6,135.7,215.6,135.7,215.6z"/>
	<path d="M207.1,198.9c-2.3,0.8-4.2,2.3-5.4,4.2c-1.2,1.9-1.9,4.1-2.2,6.4c-0.1,1.1-0.2,2.3-0.1,3.5c0.1,1.2,0.4,2.3,1.1,3.3
		c0.6,1,1.5,1.9,2.5,2.4c1,0.5,2.3,0.8,3.4,1.3c2.3,0.7,4.6,1.5,6.9,2.3c2.3,0.8,4.6,1.5,6.9,2.2c4.6,1.5,9.2,2.9,13.9,4.1
		c0.1,0,0.1,0.1,0.1,0.1c0,0-0.1,0.1-0.1,0.1c-2.5,0.1-4.9-0.2-7.4-0.6c-2.4-0.4-4.8-1-7.2-1.7c-2.4-0.7-4.7-1.6-6.9-2.5
		c-2.3-0.9-4.5-1.9-6.7-3c-1.1-0.5-2.2-1.1-3.3-1.7c-1.1-0.6-2-1.6-2.7-2.6c-1.4-2.1-2.2-4.7-2.1-7.2c0.1-2.6,1-5.2,2.6-7.2
		c1.6-2,4.1-3.5,6.6-3.5C207.2,198.7,207.2,198.8,207.1,198.9C207.2,198.9,207.2,198.9,207.1,198.9z"/>
	<path d="M203.5,219.2c0.8-0.1,1.6,0.1,2.3,0.7c0.3,0.3,0.7,0.8,0.7,1.3c0.1,0.5,0,1.1-0.3,1.5c-0.5,0.8-1.3,1.1-1.8,1.6
		c-0.6,0.4-1.1,0.9-1.6,1.5c-0.5,0.6-1,1.1-1.6,1.4c-0.6,0.4-1.2,0.8-1.9,1.1c-1.3,0.5-2.8,0.9-4.4,0.5c-0.1,0-0.1-0.1-0.1-0.1
		c0,0,0,0,0-0.1l0,0c1.2-0.9,2.3-1.6,3.5-2.2c0.6-0.3,1.2-0.5,1.9-0.8c0.6-0.3,1.3-0.5,1.9-0.7c0.7-0.2,1.3-0.6,1.7-1.1
		c0.5-0.5,0.6-1.2,0.7-1.7c0-0.5,0.1-0.6-0.1-1.1c-0.2-0.4-0.7-0.9-1.2-1.5l0,0C203.4,219.3,203.4,219.2,203.5,219.2
		C203.4,219.2,203.5,219.2,203.5,219.2z"/>
	<path d="M222.7,226.2c0.5,0.3,0.8,0.6,1.2,0.9c0.3,0.3,0.6,0.6,0.7,1c0.1,0.4,0.2,1,0.4,1.3c0.2,0.4,0.6,0.6,1,0.8
		c0.4,0.2,0.9,0.4,1.2,0.7c0.4,0.2,0.7,0.5,1,0.8c0.6,0.6,1.1,1.4,1.4,2.4c0,0.1,0,0.1-0.1,0.2c0,0,0,0,0,0c-1.1,0-2-0.5-2.7-1
		c-0.4-0.3-0.6-0.7-0.9-1c-0.3-0.4-0.5-0.8-0.7-1.3c-0.2-0.5-0.4-0.9-0.7-1.2c-0.3-0.3-0.9-0.5-1.3-0.8c-0.2-0.1-0.3-0.3-0.4-0.6
		c-0.1-0.2-0.2-0.4-0.3-0.7c-0.1-0.5-0.2-1,0-1.6C222.5,226.2,222.6,226.1,222.7,226.2C222.6,226.1,222.6,226.1,222.7,226.2
		L222.7,226.2z"/>
	<path d="M285.1,121.8c0.2,0.4,0.4,0.8,0.5,1.2c0.1,0.4,0.2,0.8,0.2,1.3c0.1,0.8,0.1,1.7-0.2,2.5c-0.2,0.8-0.7,1.6-0.9,2.3
		c-0.2,0.8-0.3,1.6-0.3,2.4c0,0.8-0.1,1.7-0.2,2.5c-0.1,0.8-0.3,1.6-0.5,2.4c-0.6,1.5-1.3,3-2.4,4.3c0,0-0.1,0-0.2,0c0,0,0,0,0-0.1
		c-0.1-1.7,0.2-3.3,0.6-4.9c0.2-0.8,0.5-1.5,0.8-2.3c0.3-0.8,0.6-1.5,1-2.2c0.4-0.7,0.6-1.5,0.7-2.3c0.1-0.8-0.1-1.6-0.1-2.4
		c0-0.8,0.1-1.6,0.3-2.3c0.1-0.4,0.1-0.8,0.2-1.2c0.1-0.4,0.2-0.8,0.3-1.2l0,0C284.9,121.8,285,121.8,285.1,121.8
		C285.1,121.8,285.1,121.8,285.1,121.8z"/>
	<path d="M279,121.9c0,0.8-0.1,1.5-0.3,2.2c-0.2,0.7-0.4,1.3-0.8,1.9c-0.4,0.6-0.9,1.1-1.2,1.7c-0.3,0.6-0.4,1.3-0.5,2
		c0,0.7-0.1,1.4-0.2,2.1c-0.1,0.7-0.2,1.3-0.3,2c-0.3,1.3-0.7,2.5-0.9,3.9l0,0c0,0.1-0.1,0.1-0.1,0.1c0,0,0,0-0.1,0
		c-0.2-0.3-0.4-0.6-0.6-1c-0.1-0.4-0.2-0.7-0.3-1.1c-0.1-0.7-0.2-1.5-0.1-2.2c0.1-0.7,0.3-1.4,0.6-2.1c0.1-0.3,0.3-0.7,0.4-1
		c0.2-0.3,0.4-0.6,0.6-0.9c0.4-0.6,0.7-1.2,0.9-1.9c0.2-0.7,0.1-1.4,0.3-2.1c0.2-0.7,0.5-1.3,0.9-1.9c0.4-0.6,0.9-1.1,1.5-1.6
		C278.9,121.8,279,121.8,279,121.9C279,121.9,279,121.9,279,121.9z"/>
	<path d="M320.5,121.9c0.1,0.8-0.1,1.5-0.2,2.2c-0.2,0.7-0.3,1.3-0.7,1.9c-0.4,0.6-0.9,1.1-1.1,1.8c-0.3,0.6-0.3,1.3-0.3,2
		c0,0.7,0.1,1.4,0,2c0,0.7,0,1.3,0,1.9c-0.1,1.3-0.2,2.4,0,3.9c0,0.1,0,0.1-0.1,0.1c0,0-0.1,0-0.1,0c-0.7-0.4-1.2-1.1-1.5-1.8
		c-0.3-0.7-0.5-1.5-0.5-2.2c0-0.8,0.1-1.5,0.3-2.2c0.2-0.7,0.4-1.4,0.8-2c0.3-0.6,0.6-1.3,0.8-2c0.1-0.7,0.1-1.4,0.2-2.2
		c0.1-0.7,0.4-1.3,0.8-1.9c0.4-0.6,0.8-1.2,1.5-1.6C320.4,121.8,320.4,121.8,320.5,121.9C320.5,121.9,320.5,121.9,320.5,121.9z"/>
	<circle class="st0" cx="55.2" cy="101.8" r="3.3"/>
	<circle class="st1" cx="105.7" cy="108.5" r="3.4"/>
	<circle class="st0" cx="127.5" cy="238.8" r="4.7"/>
	<circle class="st2" cx="50.6" cy="267.3" r="7.9"/>
	<circle class="st3" cx="172" cy="317.4" r="11"/>
	<circle class="st0" cx="213.7" cy="273.8" r="6.5"/>
	<circle class="st3" cx="274" cy="239.2" r="9"/>
	<circle class="st2" cx="260" cy="80" r="4.8"/>
	<circle class="st1" cx="180.6" cy="67.8" r="6.1"/>
	<circle class="st0" cx="301.7" cy="182.3" r="3.6"/>
	<circle class="st0" cx="307.3" cy="80.9" r="7.1"/>
	<circle class="st0" cx="154.9" cy="6.6" r="4.1"/>
	<circle class="st3" cx="6.1" cy="115.2" r="3.4"/>
	<circle class="st3" cx="110.9" cy="32.6" r="8.6"/>
	<circle class="st1" cx="119.3" cy="278.7" r="3.5"/>
	<circle class="st0" cx="283.1" cy="161.9" r="4.2"/>
	<circle class="st0" cx="330.8" cy="242.7" r="3.8"/>
	<circle class="st2" cx="242.5" cy="18.4" r="5.6"/>
</g>
</svg>
