<svg width="261" height="317" viewBox="0 0 261 317" fill="none" xmlns="http://www.w3.org/2000/svg">
<path d="M139.439 145.784C139.439 145.784 144.385 185.77 141.112 195.495C137.766 205.219 136.893 215.379 130.273 219.37C123.653 223.289 129.763 228.514 129.763 228.514L173.339 306.019C173.339 306.019 233.064 311.824 240.703 303.769C248.341 295.714 248.559 283.74 248.559 283.74C248.559 283.74 188.543 245.713 181.195 235.771C173.848 225.829 155.007 204.856 155.007 204.856C155.007 204.856 150.86 204.348 156.389 197.672C161.918 190.995 163.372 183.956 163.154 173.071C162.936 162.185 172.83 157.831 164.391 154.783C156.025 151.735 148.969 167.991 148.969 167.991C148.969 167.991 139.584 151.3 139.439 145.784Z" fill="#FAE058"/>
<path d="M104.738 91.0666C104.738 91.0666 108.23 87.0027 110.34 90.3409C112.522 93.6065 113.904 95.8562 113.904 95.8562C113.904 95.8562 117.324 90.3409 121.179 96.5819C124.962 102.823 128.963 113.926 128.963 113.926C128.963 113.926 125.617 113.418 126.126 116.321C126.635 119.224 119.651 93.2437 110.995 96.9447C110.995 96.8722 108.521 92.9534 104.738 91.0666Z" fill="#FAE058"/>
<path d="M104.738 93.1711C101.901 92.3003 99.7915 94.2596 100.228 97.8156C100.664 101.371 101.028 104.637 101.174 105.581C101.319 106.524 95.4995 102.75 94.8447 107.177C94.19 111.604 97.0271 146.728 96.8816 150.284C96.7362 153.84 93.6808 148.469 90.5527 148.615C87.3518 148.76 85.1694 149.558 88.0793 156.017C90.9891 162.475 89.4614 180.836 89.8979 184.899C90.2617 188.963 101.683 199.196 93.8263 210.299C85.9696 221.402 39.1205 305.365 39.1205 305.365C39.1205 305.365 53.7427 315.743 66.1097 316.614C78.4767 317.485 91.5711 309.647 92.0803 307.47C92.5896 305.293 116.087 239.762 121.979 228.732C127.872 217.701 136.311 214 137.984 199.051C139.657 184.101 137.911 152.243 136.602 139.035C135.292 125.828 134.201 122.344 133.401 119.369C132.6 116.393 126.271 114.797 127.581 122.054C128.89 129.311 124.962 126.408 124.598 121.546C124.235 116.611 120.306 101.879 117.251 99.9201C114.123 97.9607 109.54 99.8475 109.54 99.8475C109.54 99.8475 108.012 94.1871 104.738 93.1711Z" fill="#0049E5"/>
<path d="M92.0076 310.01C95.4267 299.923 98.9913 289.908 102.629 279.966L108.157 265.017C110.049 260.009 112.013 255.075 113.904 250.14C115.869 245.205 117.906 240.27 120.015 235.408C121.034 232.941 122.125 230.546 123.216 228.079C123.798 226.845 124.307 225.684 124.889 224.45C125.18 223.869 125.471 223.216 125.835 222.636C126.126 222.055 126.49 221.475 126.926 220.967C128.672 218.935 130.636 217.12 132.309 215.089C133.983 213.057 135.365 210.734 136.311 208.34C137.329 205.872 138.056 203.332 138.493 200.72C138.638 200.067 138.711 199.413 138.784 198.76L139.075 196.801C139.22 195.495 139.293 194.188 139.439 192.882C139.802 187.584 139.657 182.287 139.511 176.989C139.366 171.692 139.075 166.394 138.711 161.096C138.347 155.799 137.911 150.501 137.402 145.276C136.893 139.979 136.311 134.754 135.583 129.456C135.219 126.843 134.783 124.231 134.274 121.691L134.055 120.748L133.764 119.804C133.692 119.514 133.619 119.151 133.473 118.933L133.328 118.571C133.255 118.425 133.182 118.353 133.11 118.208C132.819 117.7 132.382 117.337 131.946 116.974C131.436 116.684 130.927 116.393 130.418 116.321C129.909 116.248 129.327 116.248 128.89 116.539C128.745 116.539 128.672 116.684 128.527 116.756C128.381 116.829 128.308 116.901 128.236 116.974L127.945 117.264L127.726 117.627C127.144 118.571 127.072 119.877 127.144 121.11C127.363 123.723 127.654 126.408 127.945 129.021C128.236 131.633 128.454 134.318 128.672 136.931C128.89 139.616 129.036 142.228 129.036 144.913C129.036 145.567 128.963 146.292 128.818 146.945L128.527 148.905L127.945 152.824C127.581 155.436 127.217 158.049 126.999 160.734C126.999 160.806 126.926 160.806 126.926 160.806C126.853 160.806 126.853 160.734 126.853 160.734C126.999 158.049 127.217 155.436 127.508 152.751L127.945 148.76C128.09 147.453 128.308 146.075 128.308 144.841C128.308 142.228 128.017 139.543 127.726 136.931L126.853 129.021C126.562 126.408 126.199 123.723 125.98 121.11C125.835 119.732 125.908 118.208 126.635 116.829C126.999 116.103 127.654 115.595 128.308 115.16C129.036 114.797 129.909 114.724 130.636 114.797C131.436 114.869 132.164 115.232 132.746 115.668C133.328 116.103 133.91 116.611 134.346 117.264C134.419 117.409 134.565 117.555 134.637 117.772L134.856 118.28C135.001 118.643 135.074 118.933 135.219 119.296L135.51 120.312L135.729 121.328C136.311 123.941 136.674 126.626 137.111 129.238C138.638 139.761 139.511 150.429 140.166 161.024C140.457 166.322 140.675 171.619 140.748 176.989C140.821 179.674 140.748 182.287 140.675 184.972L140.53 188.963L140.239 192.955C139.73 198.252 138.784 203.55 136.747 208.557C135.729 211.025 134.346 213.347 132.6 215.379C130.927 217.483 128.963 219.298 127.29 221.33C126.853 221.838 126.562 222.346 126.271 222.926C125.98 223.507 125.689 224.087 125.398 224.668C124.817 225.829 124.307 227.063 123.798 228.296C122.78 230.764 121.761 233.231 120.815 235.698C118.851 240.633 116.96 245.568 115.068 250.575C107.43 270.387 99.937 290.271 92.1531 310.082C92.1531 310.155 92.0804 310.155 92.0804 310.155C92.0076 310.082 91.9349 310.083 92.0076 310.01Z" fill="black"/>
<path d="M126.999 118.716C127.508 118.571 128.017 118.498 128.454 118.425C128.89 118.353 129.4 118.353 129.691 118.353C129.763 118.353 129.763 118.353 129.836 118.353H129.909C129.909 118.353 129.909 118.353 129.982 118.353C130.054 118.353 130.127 118.28 130.2 118.28C130.491 118.208 130.709 118.425 130.782 118.498C130.855 118.643 130.855 118.716 130.927 118.788C131 119.079 131 119.369 131.073 119.587C131.146 120.095 131.291 120.603 131.437 121.111C131.582 121.619 131.727 122.127 131.655 122.707C131.582 123.288 131.509 123.868 131 124.449C130.709 124.739 130.345 124.957 129.982 124.957C129.618 125.029 129.254 124.957 128.963 124.812C128.381 124.594 128.017 124.158 127.726 123.723C127.726 123.65 127.726 123.65 127.726 123.578C127.726 123.578 127.726 123.578 127.799 123.578C128.308 123.65 128.818 123.723 129.181 123.723C129.618 123.723 129.691 123.578 129.836 123.36C129.982 123.142 130.2 122.852 130.273 122.417C130.418 121.981 130.491 121.546 130.636 121.111C130.782 120.675 130.782 120.167 130.564 119.659C130.491 119.441 130.345 119.224 130.2 119.151C130.2 119.151 130.127 119.079 130.127 119.151C130.127 119.151 130.2 119.296 130.345 119.224C130.418 119.224 130.418 119.224 130.491 119.224C130.491 119.224 130.491 119.224 130.418 119.224L130.273 119.296C130.2 119.369 130.127 119.369 130.054 119.441C129.763 119.587 129.472 119.587 129.181 119.587C128.89 119.587 128.672 119.514 128.381 119.514C127.872 119.369 127.363 119.224 126.926 118.788C126.926 118.861 126.926 118.788 126.999 118.716C126.926 118.716 126.926 118.716 126.999 118.716Z" fill="black"/>
<path d="M127.508 130.109C126.271 126.19 125.253 122.272 124.089 118.353C122.925 114.434 121.688 110.515 120.306 106.742C119.579 104.855 118.779 102.968 117.76 101.299C117.251 100.428 116.596 99.6298 115.869 99.0493C115.505 98.759 115.068 98.5413 114.559 98.3961C114.05 98.251 113.613 98.1059 113.104 98.1059C112.159 98.0333 111.14 98.1784 110.413 98.9041C109.685 99.5573 109.394 100.573 109.321 101.517C109.249 102.533 109.394 103.476 109.612 104.492C109.831 105.508 110.049 106.451 110.267 107.467C111.213 111.459 112.231 115.45 112.959 119.441C113.322 121.473 113.686 123.505 113.904 125.537C114.05 126.553 114.05 127.642 114.123 128.658L114.195 131.706C114.414 139.906 114.705 148.034 114.705 156.234C114.705 156.307 114.705 156.307 114.632 156.307C114.559 156.307 114.559 156.307 114.559 156.234C113.686 148.107 113.031 139.906 112.668 131.706C112.595 130.69 112.595 129.674 112.595 128.658C112.595 127.642 112.522 126.626 112.45 125.682C112.304 123.65 112.013 121.691 111.649 119.659C110.995 115.668 110.194 111.604 109.54 107.613C109.394 106.597 109.176 105.581 109.03 104.565C108.885 103.549 108.739 102.46 108.885 101.444C109.03 100.428 109.321 99.3395 110.194 98.5413C110.995 97.743 112.159 97.5253 113.177 97.5979C113.686 97.5979 114.268 97.743 114.705 97.8881C115.214 97.9607 115.723 98.251 116.16 98.5413C117.033 99.1218 117.76 99.9927 118.342 100.791C119.579 102.46 120.524 104.347 121.325 106.234C122.925 110.007 124.089 113.999 125.107 117.99C126.126 121.981 126.853 125.973 127.581 130.037C127.581 130.109 127.581 130.109 127.508 130.109C127.508 130.182 127.581 130.182 127.508 130.109Z" fill="black"/>
<path d="M108.958 101.662C110.122 101.226 111.286 101.081 112.45 101.081C113.032 101.081 113.613 101.226 114.195 101.372L114.414 101.444C114.414 101.444 114.559 101.444 114.632 101.517C114.705 101.517 114.777 101.589 114.777 101.662C114.923 101.88 114.996 102.025 114.996 102.17C115.068 102.46 115.141 102.75 115.141 103.113C115.214 103.694 115.287 104.347 115.287 104.927C115.287 105.581 115.141 106.161 114.923 106.814C114.705 107.395 114.341 108.048 113.759 108.483C113.177 108.919 112.377 109.136 111.649 109.064H111.504C111.431 109.064 111.358 108.991 111.286 108.991C110.704 108.411 110.122 107.83 109.612 107.177V107.105H109.685C110.485 107.322 111.213 107.685 111.94 108.048L111.577 107.903C112.013 107.83 112.377 107.613 112.668 107.322C112.959 107.032 113.322 106.669 113.541 106.234C113.832 105.798 113.977 105.29 114.195 104.782C114.414 104.274 114.559 103.694 114.559 103.186C114.559 102.678 114.341 101.879 113.977 102.242C113.395 102.387 112.813 102.533 112.231 102.533C111.067 102.533 109.903 102.387 108.739 101.952C108.885 101.734 108.885 101.734 108.958 101.662Z" fill="black"/>
<path d="M110.267 98.6864C109.685 97.3076 108.885 96.0013 107.866 94.9128C107.357 94.3322 106.775 93.8968 106.193 93.5339C105.902 93.3888 105.539 93.2437 105.248 93.1711C105.102 93.1711 104.957 93.0985 104.738 93.0259H104.229C104.084 93.0259 103.865 93.026 103.72 93.0985L103.211 93.1711C102.92 93.3162 102.556 93.3888 102.265 93.5339C101.974 93.7516 101.683 93.8968 101.392 94.0419L100.519 94.6951C99.5733 95.4208 99.7188 97.0173 99.937 98.4687C100.155 99.9201 100.519 101.517 100.446 103.113C100.519 104.565 100.737 106.161 100.955 107.613C101.465 110.66 102.119 113.636 102.847 116.684C103.574 119.659 104.229 122.707 104.738 125.755C105.029 127.279 105.248 128.803 105.466 130.327L105.611 131.488L105.684 132.722C105.684 133.52 105.684 134.246 105.684 135.044C105.611 141.212 105.466 147.381 104.957 153.477C104.957 153.549 104.884 153.549 104.884 153.549C104.884 153.549 104.811 153.549 104.811 153.477C104.375 147.308 104.156 141.14 104.084 135.044V132.722L104.011 131.633L103.938 130.472C103.793 128.948 103.574 127.424 103.356 125.9L102.047 116.756C101.61 113.708 101.101 110.66 100.519 107.685L100.083 105.435C100.01 105.073 99.937 104.71 99.8643 104.274C99.7915 103.911 99.7188 103.476 99.7188 103.113C99.6461 101.589 99.1368 100.21 98.8458 98.6138C98.7003 97.8156 98.5548 97.0173 98.6276 96.1465C98.6276 95.711 98.7731 95.2756 98.9186 94.8402C98.9913 94.6225 99.1368 94.4048 99.2823 94.1871C99.4278 94.0419 99.6461 93.8242 99.7916 93.6791L100.737 92.9534C101.101 92.7357 101.465 92.518 101.828 92.3728C102.192 92.2277 102.629 92.0825 103.065 91.9374C103.283 91.9374 103.502 91.8648 103.72 91.8648C103.938 91.8648 104.156 91.7923 104.375 91.8648L105.029 91.9374C105.248 91.9374 105.466 92.0825 105.684 92.1551C106.121 92.3002 106.484 92.518 106.848 92.7357C107.503 93.2437 108.157 93.7517 108.594 94.4048C109.103 95.0579 109.467 95.711 109.831 96.4367C110.194 97.1624 110.413 97.8881 110.631 98.6864C110.631 98.759 110.631 98.759 110.558 98.759C110.34 98.759 110.267 98.6864 110.267 98.6864Z" fill="black"/>
<path d="M99.2095 95.711C99.937 95.4208 100.664 95.3482 101.392 95.2756C102.119 95.2031 102.847 95.1305 103.574 95.2756L104.593 95.4208H104.666C104.738 95.4208 104.811 95.4208 104.884 95.4208C105.102 95.4933 105.175 95.5659 105.175 95.6385C105.248 95.7836 105.248 95.8562 105.32 96.0013C105.393 96.219 105.393 96.3642 105.466 96.5819L105.975 98.759C106.121 99.4847 106.193 100.283 105.975 101.154C105.902 101.589 105.684 102.025 105.393 102.387C105.102 102.75 104.666 103.113 104.156 103.258C103.938 103.331 103.647 103.403 103.429 103.403C103.211 103.403 103.065 103.403 102.847 103.403C102.483 103.403 102.047 103.331 101.683 103.258C101.319 103.186 100.883 103.041 100.519 102.823C100.155 102.605 99.7915 102.242 99.7915 101.807C99.7915 101.734 99.7915 101.734 99.8643 101.734H99.937C100.155 101.952 100.446 102.025 100.737 102.097C101.028 102.097 101.392 102.097 101.683 102.097C102.047 102.097 102.338 102.025 102.701 101.952C102.847 101.952 103.065 101.879 103.211 101.879C103.356 101.879 103.429 101.807 103.574 101.807C104.011 101.662 104.302 101.371 104.593 100.791C104.811 100.21 104.957 99.5573 105.102 98.9041C105.175 98.1784 105.175 97.4527 104.957 96.7996C104.884 96.6545 104.811 96.5093 104.738 96.3642C104.666 96.2916 104.666 96.219 104.593 96.219C104.593 96.219 104.52 96.219 104.666 96.2916C104.738 96.2916 104.738 96.2916 104.811 96.2916H104.738H104.666C104.229 96.4367 103.865 96.5093 103.502 96.5819C102.774 96.6545 102.047 96.5819 101.319 96.5093C100.592 96.4367 99.8643 96.2916 99.1368 96.0013C99.1368 95.8562 99.1368 95.7836 99.2095 95.711C99.1368 95.711 99.2095 95.711 99.2095 95.711Z" fill="black"/>
<path d="M100.228 105.073C99.5733 104.71 98.8458 104.419 98.1184 104.347C97.3909 104.274 96.6634 104.492 96.0814 104.855C95.4995 105.218 94.9902 105.871 94.6993 106.379C94.4083 106.959 94.3355 107.685 94.2628 108.411C93.9718 111.386 94.2628 114.507 94.3355 117.555C94.481 120.603 94.5538 123.723 94.8447 126.771C94.9902 128.295 95.2085 129.819 95.354 131.343C95.5722 132.867 95.7905 134.391 95.936 135.987C96.1542 139.108 96.2997 142.156 96.4452 145.276C96.5179 148.397 96.5907 151.445 96.5907 154.565C96.5179 157.686 96.4452 160.734 96.2269 163.854C96.1542 165.378 96.0087 166.975 95.7905 168.499C95.7177 169.297 95.645 170.023 95.4267 170.821L95.2085 171.982L94.9175 173.143C94.9175 173.216 94.8447 173.216 94.8447 173.216L94.772 173.143C94.9902 171.619 94.9902 170.095 95.063 168.571C95.063 167.047 95.063 165.523 95.063 163.927L94.9902 154.71L95.063 145.494C95.063 142.446 95.1357 139.326 95.1357 136.278C95.063 133.23 94.6993 130.109 94.3355 127.061C93.9718 124.013 93.3898 120.965 93.0988 117.845C92.9533 116.321 92.8078 114.724 92.8078 113.2C92.8078 111.676 92.8078 110.08 93.0988 108.483C93.2443 107.685 93.3898 106.887 93.8263 106.089C94.3355 105.363 94.9175 104.782 95.645 104.347C96.3724 103.911 97.3181 103.839 98.1184 103.984C98.9186 104.129 99.646 104.565 100.228 105.073V105.145C100.301 105.073 100.228 105.073 100.228 105.073Z" fill="black"/>
<path d="M95.7904 150.646C94.3355 149.34 92.8806 148.034 91.0619 147.453C90.1889 147.163 89.2432 147.091 88.2975 147.308C87.861 147.381 87.4245 147.599 86.988 147.744C86.5516 147.961 86.1878 148.179 85.8241 148.469C85.5331 148.76 85.3876 149.122 85.3876 149.485C85.3876 149.848 85.5331 150.284 85.7513 150.719C86.1878 151.517 86.6971 152.388 87.2063 153.259C88.2247 155.001 89.025 156.815 89.3887 158.847C89.6069 159.863 89.6797 160.806 89.6797 161.822C89.6797 162.838 89.6797 163.782 89.6069 164.798L89.4614 170.603C89.3887 174.522 89.2432 178.368 89.3887 182.214C89.4614 184.174 89.5342 186.061 89.8252 187.947C90.1162 189.834 90.4799 191.721 91.4256 193.318C92.4441 194.914 93.608 196.583 94.4082 198.397C95.2085 200.212 95.7177 202.171 95.5722 204.203C95.4994 206.162 94.8447 208.122 94.1173 209.936C93.6808 210.807 93.317 211.75 92.7351 212.549C92.5168 212.984 92.2258 213.419 92.0076 213.782L91.1346 215.016C88.734 218.136 86.3333 221.112 84.2964 224.45C76.076 237.658 68.7285 251.446 61.2356 265.017C53.8154 278.66 46.3225 292.375 38.7568 306.019C38.7568 306.019 38.684 306.091 38.684 306.019C38.684 306.019 38.6113 305.946 38.684 305.946C42.0304 298.907 45.5222 291.94 49.0868 284.973L54.4701 274.596C56.2888 271.112 58.1075 267.702 59.9989 264.291C63.6362 257.397 67.4918 250.648 71.4202 243.899C75.3485 237.15 79.3496 230.473 83.7144 224.015L85.3876 221.62C85.6786 221.184 85.9696 220.822 86.2606 220.459L87.2063 219.298C88.3702 217.701 89.7524 216.322 90.8436 214.726L91.7166 213.565C92.0076 213.129 92.2258 212.766 92.4441 212.331C92.9533 211.533 93.3898 210.662 93.8263 209.791C94.6265 208.049 95.1357 206.162 95.2085 204.276C95.2812 202.389 94.8447 200.502 93.9718 198.76C93.1715 197.019 91.9348 195.495 90.8436 193.898C89.7524 192.156 89.3159 190.124 88.9522 188.238C88.6612 186.278 88.443 184.319 88.3702 182.359C88.2247 178.441 88.2247 174.522 88.3702 170.603L88.5885 164.798C88.5885 163.854 88.6612 162.838 88.6612 161.895C88.6612 160.951 88.5885 160.008 88.3702 159.065C88.0065 157.25 87.3518 155.436 86.4061 153.767C85.9696 152.896 85.4604 152.098 85.0239 151.154C84.8056 150.719 84.6601 150.211 84.5874 149.558C84.5874 148.977 84.9511 148.324 85.3149 147.961C85.7513 147.599 86.1878 147.381 86.6243 147.163C87.0608 146.945 87.57 146.8 88.0792 146.728C89.0977 146.583 90.1889 146.655 91.1346 147.018C93.026 147.744 94.481 149.195 95.7904 150.574V150.646C95.7904 150.646 95.8632 150.646 95.7904 150.646Z" fill="black"/>
<path d="M86.3334 147.671C86.8426 147.816 87.2063 148.034 87.6428 148.324C88.0065 148.614 88.2975 148.905 88.5158 149.34C88.734 149.776 88.8068 150.284 88.9522 150.646C89.0977 151.082 89.3887 151.445 89.6797 151.808C89.9707 152.17 90.1889 152.533 90.4072 153.041C90.5527 153.477 90.7709 153.985 90.6982 154.565C90.6254 155.146 90.2617 155.799 89.7525 156.089C89.2432 156.379 88.734 156.452 88.2248 156.379C88.152 156.379 88.152 156.307 88.152 156.307C88.152 156.307 88.152 156.307 88.152 156.234C88.5158 155.872 88.734 155.581 88.9522 155.218C89.0977 154.928 89.0977 154.71 89.0977 154.42C89.0977 154.13 89.0977 153.767 89.025 153.404C88.9522 153.041 88.8795 152.533 88.8795 152.098C88.8795 151.662 88.734 151.227 88.5158 150.864C88.2975 150.501 87.861 150.284 87.4973 149.993C87.2063 149.703 86.9881 149.34 86.7698 148.977C86.5516 148.614 86.3333 148.179 86.2606 147.671C86.1879 147.744 86.2606 147.671 86.3334 147.671Z" fill="black"/>
<path d="M94.4082 105.871C94.9902 105.435 95.6449 105.218 96.3724 105.073C97.0271 104.927 97.7546 104.855 98.5548 105.218C98.9186 105.363 99.355 105.726 99.5005 106.234C99.5005 106.379 99.5733 106.451 99.5733 106.597V106.814C99.5733 106.959 99.5733 107.177 99.5733 107.322C99.5733 107.975 99.646 108.629 99.7188 109.354C99.7915 110.08 99.7915 110.806 99.4278 111.531C99.2823 111.894 98.9913 112.257 98.7003 112.547C98.3366 112.838 97.9001 113.055 97.4636 113.128C96.5907 113.273 95.8632 112.983 95.2085 112.692C94.5537 112.33 94.0445 111.894 93.5353 111.386C93.5353 111.386 93.5353 111.314 93.5353 111.241H93.608C94.3355 111.314 94.9175 111.531 95.5722 111.604C96.1542 111.676 96.7361 111.749 97.1726 111.604C97.6091 111.531 97.9001 111.314 98.1911 110.878C98.4821 110.443 98.7003 109.862 98.9186 109.282C99.1368 108.701 99.1368 107.975 99.0641 107.395C99.0641 107.25 98.9913 107.105 98.9186 106.887L98.8458 106.669C98.8458 106.597 98.7731 106.597 98.7731 106.524C98.6276 106.379 98.4821 106.379 98.1911 106.379C97.6819 106.306 97.0999 106.234 96.4452 106.234C95.7904 106.161 95.1357 106.161 94.481 106.016C94.4082 106.016 94.3355 105.943 94.4082 105.871C94.3355 105.943 94.4082 105.871 94.4082 105.871Z" fill="black"/>
<path d="M113.031 97.8156C113.613 96.5093 114.559 95.4208 115.723 94.5499C116.305 94.1145 116.96 93.7516 117.687 93.5339C118.051 93.3888 118.415 93.3162 118.779 93.3162C119.142 93.2437 119.651 93.2436 120.015 93.3888C120.815 93.6791 121.397 94.2596 121.834 94.8402C122.27 95.4207 122.634 96.0013 122.998 96.6544L125.035 100.21C125.762 101.371 126.344 102.605 126.926 103.911C127.508 105.145 128.09 106.379 128.527 107.685C129.472 110.225 130.345 112.838 131 115.523C131 115.595 131 115.595 130.927 115.595H130.855C129.327 113.273 128.163 110.806 127.072 108.266C126.562 107.032 126.126 105.726 125.617 104.419C125.108 103.113 124.671 101.879 124.235 100.573C123.798 99.267 123.289 98.0333 122.489 96.8721C122.125 96.2916 121.688 95.7836 121.179 95.3482C120.67 94.9128 120.161 94.6225 119.651 94.5499C119.36 94.5499 119.215 94.5499 118.851 94.5499C118.56 94.5499 118.269 94.6951 117.978 94.7676C117.396 94.9128 116.814 95.203 116.232 95.4933C115.068 96.0739 114.05 96.9447 113.031 97.8881H112.959C113.031 97.8881 113.031 97.8881 113.031 97.8156Z" fill="black"/>
<path d="M103.429 92.5179C102.92 91.8648 102.701 90.9214 102.992 89.978C103.211 89.0346 104.011 88.2363 104.884 87.946C105.102 87.8735 105.32 87.8009 105.539 87.8009L106.193 87.7283C106.63 87.7283 106.993 87.6558 107.43 87.6558C107.866 87.5832 108.23 87.5106 108.667 87.5106C108.885 87.5106 109.103 87.5106 109.321 87.5106C109.54 87.5832 109.758 87.5832 109.976 87.6558C110.849 88.0186 111.504 88.6717 112.013 89.3249C112.522 89.978 113.031 90.6311 113.395 91.3568C114.123 92.8082 114.777 94.2596 115.141 95.8562C115.141 95.9287 115.141 95.9287 115.068 95.9287H114.996C113.832 94.7676 112.886 93.4614 112.013 92.1551C111.213 90.8488 110.558 89.3249 109.54 88.454C109.03 87.946 108.157 87.946 107.43 88.1638C106.702 88.3815 105.902 88.7443 105.393 89.1797C105.102 89.3974 104.884 89.5426 104.593 89.7603C104.375 89.978 104.156 90.1957 104.011 90.486C103.72 91.0665 103.574 91.7923 103.574 92.5905C103.574 92.518 103.574 92.5179 103.429 92.5179C103.502 92.5179 103.429 92.5179 103.429 92.5179Z" fill="black"/>
<path d="M136.602 130.182C137.256 131.633 137.765 133.085 138.275 134.609C138.784 136.132 139.22 137.584 139.511 139.18C139.802 140.704 140.021 142.301 140.384 143.825C140.748 145.349 141.257 146.8 141.839 148.252C142.494 149.703 143.076 151.154 143.658 152.606L145.477 156.96C146.641 159.863 147.659 162.766 149.114 165.596V165.668H149.041C147.877 164.507 147.004 163.201 146.204 161.822C145.404 160.443 144.749 158.992 144.094 157.541C143.44 156.089 142.931 154.565 142.421 153.114C141.912 151.59 141.476 150.066 141.112 148.542C140.748 147.018 140.384 145.494 139.948 143.97C139.511 142.446 138.857 140.995 138.347 139.543C137.838 138.019 137.474 136.495 137.183 134.971C136.893 133.447 136.602 131.851 136.456 130.327C136.456 130.254 136.456 130.254 136.529 130.254C136.602 130.182 136.602 130.182 136.602 130.182Z" fill="black"/>
<path d="M143.221 186.278C143.44 182.069 144.167 177.933 145.258 173.796C145.84 171.764 146.495 169.732 147.295 167.773C148.096 165.814 149.114 163.927 150.278 162.113C151.515 160.371 152.897 158.702 154.57 157.323C156.17 155.944 158.135 154.928 160.099 154.202C162.063 153.477 164.318 153.041 166.428 153.694C167.446 154.057 168.465 154.71 169.047 155.581C169.701 156.525 169.92 157.686 169.92 158.774C169.847 159.863 169.556 161.024 168.974 161.967C168.683 162.475 168.465 162.838 168.174 163.346C167.955 163.782 167.665 164.217 167.519 164.725C166.719 166.612 166.137 168.571 165.7 170.603C164.827 174.667 164.609 178.804 164.9 182.868C164.9 183.375 164.973 183.956 164.9 184.537C164.9 185.117 164.755 185.698 164.682 186.206C164.464 187.294 164.027 188.31 163.591 189.326C162.645 191.286 161.481 193.1 160.317 194.769C159.08 196.511 157.844 198.18 156.607 199.849C156.025 200.72 155.443 201.591 154.934 202.461C154.425 203.332 153.988 204.276 153.77 205.292C153.77 205.364 153.697 205.364 153.697 205.364C153.624 205.364 153.624 205.292 153.624 205.292C153.697 204.203 154.061 203.187 154.497 202.244C154.934 201.3 155.443 200.357 156.025 199.413C157.116 197.599 158.28 195.858 159.371 194.116C160.463 192.374 161.554 190.56 162.354 188.673C162.718 187.73 163.081 186.786 163.3 185.843C163.372 185.335 163.445 184.899 163.518 184.391C163.518 183.883 163.518 183.521 163.445 182.94C163.081 178.658 163.518 174.377 164.464 170.24C164.973 168.136 165.628 166.104 166.573 164.217C166.792 163.709 167.083 163.274 167.374 162.766C167.665 162.33 168.028 161.822 168.246 161.459C168.828 160.661 169.119 159.718 169.265 158.774C169.338 157.831 169.192 156.815 168.683 155.944C168.174 155.073 167.301 154.493 166.428 154.13C164.464 153.477 162.354 153.84 160.39 154.638C159.881 154.783 159.444 155.073 159.008 155.291C158.498 155.509 158.062 155.799 157.625 156.017C157.189 156.307 156.752 156.597 156.389 156.887C156.025 157.25 155.588 157.541 155.225 157.903C153.77 159.355 152.46 160.951 151.442 162.766C149.26 166.249 147.732 170.095 146.422 174.087C145.186 178.078 144.167 182.142 143.44 186.278C143.44 186.351 143.367 186.351 143.367 186.351C143.221 186.351 143.221 186.278 143.221 186.278Z" fill="black"/>
<path d="M125.689 223.724C127.726 226.7 129.691 229.748 131.582 232.796C133.473 235.844 135.292 238.964 137.038 242.085L139.584 246.874C140.384 248.471 141.257 250.067 142.13 251.664C143.876 254.784 145.768 257.905 147.659 260.953C149.551 264.001 151.442 267.121 153.261 270.169C155.079 273.29 156.898 276.41 158.571 279.531C161.99 285.844 165.264 292.303 168.101 298.907C168.101 298.979 168.101 298.979 168.028 298.979H167.956C164.318 292.738 160.754 286.57 157.189 280.256C155.443 277.136 153.77 273.943 152.024 270.822C150.278 267.702 148.605 264.509 146.932 261.316C145.258 258.122 143.585 255.002 141.694 251.881C139.875 248.761 137.838 245.786 135.947 242.738C134.055 239.69 132.309 236.569 130.564 233.376C128.818 230.256 127.144 227.063 125.544 223.797V223.724C125.617 223.652 125.689 223.652 125.689 223.724Z" fill="black"/>
<path d="M155.152 201.736C161.554 210.081 168.101 218.282 175.012 226.192C176.685 228.151 178.504 230.111 180.25 231.997C181.195 232.941 182.068 233.884 183.014 234.828C183.96 235.698 184.906 236.642 185.924 237.513C186.942 238.311 187.888 239.182 188.979 239.98L192.107 242.375C194.217 243.971 196.4 245.423 198.509 246.947L211.458 255.945C215.75 258.993 220.115 261.969 224.407 265.017C232.991 271.113 241.503 277.281 249.869 283.667C249.869 283.667 249.941 283.74 249.869 283.74C249.869 283.74 249.796 283.812 249.796 283.74C240.921 278.079 232.191 272.201 223.534 266.178C219.242 263.13 214.95 260.082 210.731 256.961C206.439 253.841 202.292 250.72 198.073 247.455C195.963 245.858 193.926 244.189 191.816 242.665C189.707 241.069 187.67 239.472 185.633 237.803C181.559 234.392 177.776 230.764 174.139 226.917C170.574 223.071 167.228 218.935 164.027 214.798C160.899 210.589 157.844 206.308 155.079 201.808V201.736C155.079 201.663 155.152 201.663 155.152 201.736Z" fill="black"/>
<path d="M149.987 124.739C156.752 123.215 166.937 119.732 167.955 121.836C168.974 123.941 149.987 124.739 149.987 124.739Z" fill="black"/>
<path d="M129.763 96.5819C129.763 96.5819 141.039 79.4554 143.294 78.8023C145.549 78.1491 145.622 81.1245 144.385 82.2131C143.076 83.229 129.763 96.5819 129.763 96.5819Z" fill="black"/>
<path d="M110.922 52.2417C108.812 51.5886 109.54 78.4394 109.758 80.3262C109.976 82.2131 110.922 82.3582 110.922 80.3262C110.922 78.2943 116.014 53.7657 110.922 52.2417Z" fill="black"/>
<path d="M94.2628 93.8242C94.2628 93.8242 82.405 75.3189 80.9501 73.5772C79.4951 71.8355 76.367 73.2144 78.7677 75.6092C81.0956 78.004 94.2628 93.8242 94.2628 93.8242Z" fill="black"/>
<path d="M76.8762 114.144C76.8762 114.144 59.7807 108.12 57.0163 107.032C54.2519 105.943 52.2877 108.701 56.5798 109.862C60.8719 111.023 76.8762 114.144 76.8762 114.144Z" fill="black"/>
<path d="M73.3116 176.046C68.3648 179.965 63.7818 186.278 61.5266 188.093C59.2715 189.907 61.4539 193.535 63.709 190.052C65.9642 186.569 73.3116 176.046 73.3116 176.046Z" fill="black"/>
<path d="M67.3464 143.897C67.3464 143.897 48.3594 142.881 45.8133 143.897C43.2671 144.913 44.2856 148.034 48.3594 146.873C52.3605 145.712 67.3464 143.897 67.3464 143.897Z" fill="black"/>
<path d="M78.6222 220.241C82.0774 220.241 84.8784 217.447 84.8784 214C84.8784 210.553 82.0774 207.759 78.6222 207.759C75.1669 207.759 72.3659 210.553 72.3659 214C72.3659 217.447 75.1669 220.241 78.6222 220.241Z" fill="#0049E5"/>
<path d="M187.961 84.9707C191.416 84.9707 194.217 82.1765 194.217 78.7297C194.217 75.2829 191.416 72.4887 187.961 72.4887C184.506 72.4887 181.705 75.2829 181.705 78.7297C181.705 82.1765 184.506 84.9707 187.961 84.9707Z" fill="#0049E5"/>
<path d="M31.9913 211.025C34.1207 211.025 35.8469 209.303 35.8469 207.178C35.8469 205.054 34.1207 203.332 31.9913 203.332C29.8619 203.332 28.1357 205.054 28.1357 207.178C28.1357 209.303 29.8619 211.025 31.9913 211.025Z" fill="#77F169"/>
<path d="M4.34743 92.8082C6.47681 92.8082 8.20302 91.0862 8.20302 88.962C8.20302 86.8379 6.47681 85.1158 4.34743 85.1158C2.21804 85.1158 0.491837 86.8379 0.491837 88.962C0.491837 91.0862 2.21804 92.8082 4.34743 92.8082Z" fill="#77F169"/>
<path d="M256.707 210.879C258.796 210.879 260.49 209.19 260.49 207.106C260.49 205.022 258.796 203.332 256.707 203.332C254.618 203.332 252.924 205.022 252.924 207.106C252.924 209.19 254.618 210.879 256.707 210.879Z" fill="#F089C0"/>
<path d="M125.544 302.753C127.633 302.753 129.327 301.063 129.327 298.979C129.327 296.895 127.633 295.206 125.544 295.206C123.455 295.206 121.761 296.895 121.761 298.979C121.761 301.063 123.455 302.753 125.544 302.753Z" fill="#F089C0"/>
<path d="M249.068 161.532C251.158 161.532 252.851 159.842 252.851 157.758C252.851 155.674 251.158 153.985 249.068 153.985C246.979 153.985 245.286 155.674 245.286 157.758C245.286 159.842 246.979 161.532 249.068 161.532Z" fill="#F089C0"/>
<path d="M76.8762 8.0466C78.9654 8.0466 80.6591 6.35708 80.6591 4.27296C80.6591 2.18884 78.9654 0.499329 76.8762 0.499329C74.787 0.499329 73.0934 2.18884 73.0934 4.27296C73.0934 6.35708 74.787 8.0466 76.8762 8.0466Z" fill="#F089C0"/>
</svg>
