<?xml version="1.0" encoding="utf-8"?>
<!-- Generator: Adobe Illustrator 25.4.1, SVG Export Plug-In . SVG Version: 6.00 Build 0)  -->
<svg version="1.1" id="Capa_1" xmlns="http://www.w3.org/2000/svg" xmlns:xlink="http://www.w3.org/1999/xlink" x="0px" y="0px"
	 viewBox="0 0 535.4 370.9" style="enable-background:new 0 0 535.4 370.9;" xml:space="preserve">
<style type="text/css">
	.st0{fill:#0049E5;}
	.st1{fill:#FAE058;}
	.st2{fill:#77F169;}
	.st3{fill:#F089C0;}
</style>
<g>
	<path class="st0" d="M275.8,117c0,0,2.9,9.8,1.5,15.1c-1.4,5.4-0.2,10.7-22.4,11.4c-22.1,0.7-49.5-1.7-59.9,4.2
		c-10.4,5.9-15.4,14-4.7,15.6c10.7,1.6,28.4,2.3,28.4,2.3s-2.8,1.6,0.7,6.1s-2.8,9.8,2.8,14.7s9.3,7.2,7.2,12.1
		c-2.1,4.9,5.8,7.5,6.8,13.3c0.9,5.8-3.3,7.7,8.9,11.6c12.1,4,17.9,7.9,20.5,7.9s5-18,12-19.6s4.6-11.2,12.2-10.3
		s16.4,7.5,14.8,19.1c0,0,22.2-0.6,22.9,14.2c0.7,14.9,9.6,27.7,9.8,30.7c0.2,3,19.2,18.2,19.2,18.2s10.5-1.3,16.6,8.5
		c6.1,9.8,71.4,58.6,89.8,66.3c18.4,7.7,59-11.7,59-11.7s9.8-36.8,4.9-39.8c-4.9-3-56.4-35.7-80.4-44.7c-24-9.1-73.3-31.2-88.1-43.6
		c0,0-4.1,11.9-13,11s-24.1-3.6-23.4-14.4c0.7-10.8,8.5-20.6,8.5-20.6s-15.8-13.7-16.5-23.1s-7.7-15.8-11.7-22.4
		c-3.9-6.5-8.5-23.3-9.5-29.8C291.9,113.1,283.1,112.2,275.8,117z"/>
	<path class="st1" d="M360.7,288.1c-4.7,0.7-10.1,0.8-8.1,11.9c2,11.1,8.7,10.2,14.2,9.5c5.4-0.7,8.9-6.3,8.9-6.3L360.7,288.1z"/>
	<path class="st1" d="M316.9,161.5c0.7,0.9,4.2,14.4,8.9,18.9c4.7,4.4,11.7,11.9,11.7,11.9s-3.7,12.1-7.9,18.6
		c-4.2,6.5,9,22.1,19.3,12.9s13-22.2,11.9-26.2c-1.2-4,1.7-16.8-2.3-18.6c-4-1.9-4.5-4.9-15.6-6.1
		C331.6,171.8,316.9,161.5,316.9,161.5z"/>
	<path class="st1" d="M322,242.2c0,0,2.1-10.8-6.7-14.4s-12,2.2-12,2.2s-4.2-15.3-5.8-18.1c-1.6-2.8-8.1-6-12.3,1.1
		c-4.3,7-14.6,2.6-13,9.1c1.6,6.4,4.8,24.8,5.3,31.6c0.5,6.8,0.2,13.5,6.8,13.5s9.9,5.4,15.3,6.4c5.4,1,13.1,1.7,13.1,1.7
		s2.8,15.4,9.5,13.7c6.8-1.6,18.5-10.5,18.5-10.5l-3.3-3.3c0,0-1.2,0.2-2.6-3.5c-1.4-3.7-8.3-15.9-10.9-19.1
		C321.3,249.4,322,242.2,322,242.2z"/>
	<path class="st1" d="M165.9,16.8c3.5,2.1,88.9,95.1,98.6,101.6c9.7,6.5,10.5,15.8-5.3,16.5c-15.7,0.7-61.4-2-65.6,3.5
		c-4.2,5.6-79.5-45.9-89.9-64.9S57.6,21,57.6,21s60.6-11.9,68-10.5C133.1,11.9,165.9,16.8,165.9,16.8z"/>
	<g>
		<path d="M268.9,234.8c-2,0.1-4.1,0.1-6.1-0.1c-2-0.2-4.1-0.7-6-1.5c-3.9-1.6-6.9-4.6-10.6-6c-1.9-0.7-3.8-1.2-5.8-1.7
			c-1-0.2-2-0.5-3-0.8c-1-0.3-2.1-0.8-2.9-1.7c-0.4-0.5-0.7-1.1-0.8-1.7c-0.1-0.6-0.1-1.1-0.2-1.6c-0.1-1-0.3-2-0.5-2.9
			c-0.4-2-1-3.9-1.7-5.8c-0.7-1.9-1.5-3.7-2.6-5.3c-0.3-0.4-0.6-0.8-0.9-1c-0.1-0.2-0.3-0.3-0.5-0.4l-0.7-0.5
			c-1.1-0.8-1.6-2-1.8-3.1c-0.5-2.2-0.3-4.3-0.6-6.1c-0.1-0.2-0.1-0.4-0.2-0.6c-0.1-0.2-0.2-0.3-0.2-0.4c0-0.1-0.1-0.1-0.1-0.1
			c-0.1,0-0.1-0.1-0.2-0.2c-0.3-0.2-0.5-0.3-0.7-0.5c-0.9-0.7-1.7-1.4-2.4-2.2c-1.4-1.6-2.6-3.5-3.1-5.7c-0.1-0.6-0.2-1.1-0.2-1.8
			l0-0.5l0.1-0.4l0.1-0.8c0.2-1,0.4-2,0.3-2.8c0-0.9-0.3-1.7-0.8-2.5c-0.2-0.4-0.5-0.8-0.8-1.2c-0.1-0.2-0.3-0.4-0.5-0.7
			c-0.2-0.2-0.3-0.5-0.4-0.7c-0.5-1-0.8-2.2-0.6-3.4c0.2-1.2,0.6-2.2,1.4-3.2l0.6,1.3c-3.2,0.1-6.5,0.1-9.7,0.1
			c-3.2,0-6.5-0.1-9.8-0.5c-3.2-0.4-6.5-1-9.5-2.5c-1.5-0.8-2.9-1.8-3.7-3.4c-0.2-0.4-0.3-0.8-0.4-1.2c-0.1-0.4-0.1-0.9-0.1-1.3
			c0-0.8,0-1.6,0-2.5c0.1-1.6,0.7-3.4,1.8-4.6c1.1-1.3,2.4-2.3,3.8-3.2c1.4-0.9,2.7-1.8,4.1-2.6c0.7-0.4,1.4-0.8,2.1-1.2
			c0.7-0.4,1.5-0.7,2.2-1.1c6-2.7,12.7-3.3,19.1-3.5c3.2-0.1,6.5,0,9.7,0.1c3.2,0.1,6.5,0.1,9.7,0.1c6.5-0.1,12.9-0.2,19.3-0.7
			c3.2-0.2,6.4-0.6,9.5-1.1c1.6-0.3,3.1-0.6,4.5-1.2c0.7-0.3,1.4-0.6,1.8-1c0.2-0.3,0.5-0.5,0.7-0.8c0.2-0.3,0.4-0.6,0.6-0.9
			c1.4-2.5,1.3-5.7,0.9-8.9c-0.2-1.6-0.4-3.2-0.6-4.9c-0.1-0.8-0.1-1.5-0.3-2.1c-0.1-0.3-0.3-0.5-0.2-0.4c0.1,0,0.2,0,0.2,0
			c0,0-0.1,0.1-0.1,0l-1.6-0.1c-0.2-0.2-0.2-0.3-0.2-0.5c0-0.1-0.1-0.3-0.1-0.4c0-0.3,0-0.5,0-0.8c0.1-0.5,0.3-0.9,0.6-1.2
			c0.5-0.7,1-1.1,1.6-1.5c1.1-0.8,2.3-1.3,3.4-1.7c2.2-1,4.5-2,7.1-2.5c1.3-0.3,2.6-0.4,4-0.2c1.3,0.2,2.7,0.7,3.7,1.2
			c1.1,0.5,2.4,1.1,3.4,2.1c1,1.1,1.6,2.3,2,3.5c0.5,1.2,0.8,2.4,1.2,3.6c0.3,1.2,0.6,2.5,0.8,3.7c0.4,2.5,0.6,4.9,0.9,7.3
			c0.6,4.8,1.7,9.4,4.1,13.5c1.2,2,2.7,3.8,4.4,5.5c1.8,1.7,3.4,3.7,4.7,5.7c2.8,4.2,4.3,9,5.7,13.6c0.7,2.3,1.5,4.6,2.6,6.7
			c1.1,2.1,2.5,4.1,4,5.9c3.1,3.7,6.5,7.2,10.1,10.4c0,0,0,0.1,0,0.1c0,0-0.1,0-0.1,0c-3.7-3.1-7.3-6.4-10.6-10.1
			c-1.6-1.8-3.1-3.8-4.3-6c-1.2-2.2-2-4.5-2.8-6.8c-0.8-2.3-1.5-4.6-2.5-6.8c-0.9-2.2-2-4.3-3.4-6.3c-1.3-2-2.9-3.8-4.6-5.4
			c-1.8-1.7-3.5-3.6-4.8-5.8c-2.6-4.3-3.9-9.3-4.6-14.1c-0.4-2.4-0.6-4.9-1-7.2c-0.2-1.2-0.4-2.3-0.8-3.4c-0.3-1.2-0.7-2.3-1.1-3.4
			c-0.4-1.1-0.9-2.1-1.6-2.8c-0.7-0.7-1.7-1.2-2.8-1.7c-1.1-0.5-2.1-0.9-3.2-1.1c-1.1-0.1-2.2,0-3.3,0.2c-2.2,0.5-4.4,1.4-6.6,2.4
			c-1.1,0.5-2.2,0.9-3.1,1.5c-0.4,0.3-0.8,0.6-1.1,1c-0.1,0.2-0.2,0.3-0.2,0.4c0,0,0,0.1,0,0.1c0,0,0,0,0,0l-0.1-0.1l-1.6-0.1
			c0.3-0.3,0.5-0.4,1-0.6c0.4-0.1,1-0.1,1.4,0.1c0.2,0.1,0.4,0.3,0.5,0.4c0.1,0.1,0.2,0.3,0.3,0.4c0.1,0.3,0.3,0.5,0.3,0.8
			c0.3,1,0.3,1.8,0.4,2.7c0.1,1.5,0.3,3.1,0.5,4.8c0.2,1.6,0.3,3.3,0.2,5c-0.1,1.7-0.5,3.5-1.4,5.1c-0.2,0.4-0.5,0.7-0.8,1.1
			c-0.3,0.3-0.6,0.7-0.9,1c-0.8,0.7-1.6,1-2.4,1.3c-1.6,0.6-3.2,0.9-4.9,1.2c-3.2,0.6-6.5,0.8-9.7,1c-6.5,0.4-13,0.4-19.5,0.3
			c-6.5-0.1-13-0.5-19.4-0.6c-6.4,0-13,0.6-18.9,3.2c-0.7,0.3-1.5,0.7-2.2,1c-0.7,0.4-1.4,0.8-2.1,1.2c-1.4,0.8-2.8,1.7-4.1,2.6
			c-1.3,0.9-2.6,1.9-3.6,3.1c-1,1.2-1.5,2.7-1.6,4.3c-0.1,0.8,0,1.6,0,2.4c0,0.4,0.1,0.8,0.1,1.1c0.1,0.4,0.2,0.7,0.4,1.1
			c0.7,1.3,2,2.3,3.4,3c2.8,1.4,6.1,1.9,9.2,2.2c3.2,0.3,6.4,0.3,9.6,0.2c3.2-0.1,6.5-0.2,9.7-0.3c0.4,0,0.8,0.3,0.8,0.7
			c0,0.2-0.1,0.4-0.2,0.5l0,0.1c-0.5,0.6-0.9,1.5-1,2.3c-0.1,0.8,0.1,1.7,0.5,2.5c0.1,0.2,0.2,0.4,0.3,0.6c0.1,0.2,0.2,0.4,0.4,0.6
			c0.3,0.4,0.6,0.9,0.9,1.4c0.5,1,1,2.1,1,3.3c0.1,2.3-0.9,4.3-0.4,5.9c0.5,1.8,1.6,3.5,2.8,4.9c0.6,0.7,1.3,1.4,2,2
			c0.2,0.1,0.4,0.3,0.6,0.4c0.1,0,0.3,0.2,0.4,0.3c0.1,0.1,0.3,0.2,0.4,0.4c0.2,0.3,0.4,0.6,0.5,0.9c0.1,0.3,0.2,0.6,0.3,0.9
			c0.2,1.1,0.2,2.2,0.3,3.2c0,1,0.1,2,0.3,2.9c0.2,0.9,0.5,1.7,1.1,2.1l0.2,0.2l0.4,0.3c0.3,0.2,0.5,0.4,0.7,0.6
			c0.4,0.4,0.7,0.9,1.1,1.3c1.2,1.8,2,3.8,2.7,5.7c0.7,2,1.2,4,1.7,6c0.2,1,0.4,2,0.5,3.1c0.1,1.2,0.1,1.9,0.6,2.5
			c0.5,0.6,1.4,1,2.3,1.4c0.9,0.3,1.9,0.6,2.9,0.8c2,0.5,4,1,5.9,1.8c1.9,0.8,3.7,2,5.4,3.1c1.7,1.2,3.3,2.3,5.1,3.2
			c3.7,1.7,7.8,2.1,11.9,2c0.1,0,0.1,0,0.1,0.1C269,234.7,269,234.8,268.9,234.8z"/>
		<path d="M299.7,138.4c2.4,3,5,5.9,7.6,8.7c2.6,2.8,5.4,5.5,8.3,7.8c1.5,1.2,3.1,2.1,4.8,3.1l4.9,3c3.3,2,6.6,3.9,10,5.4
			c1.7,0.7,3.5,1.4,5.3,1.8c0.9,0.2,1.8,0.4,2.8,0.6c1,0.2,1.9,0.3,2.9,0.5c3.8,0.8,7.6,2.3,10.6,4.9c1.5,1.2,2.8,2.7,4.1,4.1
			c1.4,1.4,2.1,3.5,2.2,5.4c0.1,2-0.1,3.9-0.1,5.8c0,0.9,0.1,1.9,0.3,2.8c0.1,0.9,0.4,1.8,0.7,2.8c1,3.9,0.2,8-1.2,11.7
			c-1.3,3.7-3.2,7.2-5.3,10.4c-1.1,1.6-2.1,3.2-3.4,4.8c-0.6,0.8-1.3,1.5-2,2.2c-0.8,0.7-1.5,1.3-2.4,1.9c-1.7,1.1-3.6,2-5.7,2.3
			c-2,0.4-4.2,0.3-6.2-0.2c-4-1-7.6-3.4-9.9-6.7c-1.2-1.7-2.1-3.6-2.5-5.6c-0.4-2-0.2-4.2,0.6-6.1c0.4-1,1-1.8,1.6-2.6
			c0.6-0.7,1.2-1.5,1.8-2.2c1.1-1.5,2.2-3.1,3.1-4.8c1.8-3.3,3.1-7,3.6-10.8c0-0.1,0.1-0.1,0.1-0.1c0.1,0,0.1,0.1,0.1,0.1
			c-0.2,3.9-1.2,7.7-2.9,11.2c-0.8,1.8-1.8,3.5-2.9,5.1c-0.5,0.8-1.1,1.6-1.7,2.4c-0.2,0.4-0.5,0.7-0.7,1.1
			c-0.2,0.4-0.5,0.8-0.6,1.2c-0.6,1.6-0.8,3.5-0.4,5.2c0.4,1.7,1.2,3.4,2.3,4.8c2.2,2.9,5.4,5,8.9,5.8c1.7,0.4,3.5,0.5,5.3,0.2
			c1.7-0.3,3.4-1,4.9-2c3.1-1.9,5.2-5.1,7.4-8.2c1-1.6,2.1-3.2,3-4.9c0.9-1.6,1.8-3.4,2.4-5.1c1.3-3.5,2.3-7.3,1.6-10.9
			c-0.2-0.9-0.5-1.9-0.6-2.9c-0.1-1-0.2-2-0.1-3c0-2,0.3-3.9,0.2-5.7c-0.1-1.9-0.7-3.7-2-5.1c-1.2-1.5-2.6-2.9-4-4
			c-3-2.4-6.6-3.7-10.4-4.3c-0.9-0.2-1.9-0.3-2.8-0.4c-1-0.1-2-0.2-2.9-0.4c-1.9-0.4-3.8-0.9-5.7-1.6c-3.7-1.4-7.1-3.4-10.3-5.5
			l-4.9-3.1c-1.6-1-3.3-2.1-4.8-3.3c-3-2.5-5.7-5.4-8.2-8.3c-1.3-1.5-2.4-3-3.6-4.5c-1.2-1.5-2.3-3.1-3.4-4.7c0,0,0-0.1,0-0.1
			C299.6,138.4,299.6,138.4,299.7,138.4z"/>
		<path d="M334.9,205.4c-0.8,1-1.6,2-2.4,3c-0.7,1-1.5,2.1-1.4,3.1c0.1,0.9,0.9,1.7,1.8,2.5l2.8,2.4c1.9,1.6,3.7,3.4,5.9,4.6
			c1.1,0.6,2.2,1.1,3.4,1.2c1.2,0.2,2.4-0.2,3-1.1c0.3-0.4,0.5-1,0.8-1.6c0.2-0.6,0.4-1.1,0.6-1.7c0.3-1.1,0.5-2.3,0.5-3.4
			c-0.1-2.3-1.1-4.4-2.6-6.2c-1.5-1.8-3.4-3.1-5.6-3.9c-1.1-0.4-2.3-0.6-3.5-0.4C336.9,203.9,335.7,204.4,334.9,205.4z M334.8,205.3
			c0.8-1,2-1.7,3.2-2c1.3-0.4,2.6-0.5,3.9-0.3c2.7,0.3,5.2,1.8,7,3.8c0.9,1,1.7,2.2,2.2,3.5c0.5,1.3,0.7,2.7,0.7,4.1
			c0,1.4-0.3,2.7-0.8,4c-0.2,0.6-0.5,1.2-0.9,1.8c-0.2,0.3-0.3,0.6-0.5,0.8c-0.2,0.3-0.4,0.6-0.6,0.8c-0.5,0.5-1.2,0.9-1.9,1.1
			c-0.7,0.1-1.4,0.1-2,0c-1.3-0.3-2.5-0.8-3.6-1.3c-2.3-1.1-4.5-2.4-6.6-3.8c-1-0.8-2-1.5-3-2.4c-0.5-0.5-1-1-1.3-1.6
			c-0.4-0.6-0.6-1.4-0.5-2.2c0.1-0.8,0.5-1.5,0.9-2c0.4-0.5,0.9-1,1.4-1.4C333.1,207.1,334,206.3,334.8,205.3z"/>
		<path d="M358.5,214c13.1,8.4,26.4,16.4,39.8,24l5.1,2.9c1.7,0.9,3.4,1.8,5.1,2.8c3.4,1.8,6.9,3.6,10.4,5.1l2.7,1.2
			c0.9,0.4,1.8,0.7,2.7,1.1l5.4,2c3.7,1.3,7.3,2.7,10.9,4.1c7.3,2.8,14.4,5.8,21.5,9c7.1,3.2,14.1,6.5,21.1,9.9
			c7,3.5,13.8,7.2,20.6,11c6.8,3.9,13.5,7.8,19.8,12.4c0,0,0.1,0.1,0,0.1c0,0-0.1,0.1-0.1,0c-6.6-4-13.5-7.6-20.4-11.2
			c-6.9-3.6-13.8-7-20.8-10.4c-7-3.4-13.9-6.9-20.9-10.1c-7-3.3-14.1-6.5-21.2-9.7c-7.1-3.2-14.4-5.7-21.6-8.7
			c-7.2-3-14.3-6.3-21.2-9.9c-6.9-3.6-13.5-7.7-20.1-11.9c-6.5-4.2-12.9-8.7-19.1-13.4c0,0-0.1-0.1,0-0.1
			C358.4,214,358.4,214,358.5,214z"/>
		<path d="M271.6,118.5c-3.9-3.4-7.6-6.9-11.3-10.5c-3.7-3.6-7.3-7.2-10.8-11c-3.5-3.8-6.8-7.7-10.4-11.4
			c-3.5-3.7-7.2-7.4-10.8-10.9c-3.7-3.6-7.3-7.2-10.9-10.9c-3.6-3.7-7.2-7.4-10.6-11.2c-1.7-1.9-3.5-3.8-5.1-5.7
			c-1.7-1.9-3.4-3.9-5-5.8c-1.7-2-3.3-4-4.9-6c-1.6-2-3.1-4.1-4.5-6.2c0,0,0-0.1,0-0.1c0,0,0.1,0,0.1,0l0,0l2.5,2.9
			c0.8,1,1.8,1.9,2.6,2.8c1.7,1.9,3.5,3.7,5.3,5.6l10.6,11.2l10.4,11.3c3.5,3.8,6.9,7.6,10.3,11.4c3.4,3.8,6.9,7.6,10.5,11.3
			c1.8,1.8,3.7,3.6,5.5,5.4l5.6,5.3c3.7,3.6,7.2,7.3,10.7,11.1c3.5,3.7,7,7.6,10.3,11.5c0,0,0,0.1,0,0.1
			C271.7,118.5,271.7,118.5,271.6,118.5z"/>
		<path d="M193.6,146.7c-13.1-7.2-25.8-14.9-38.2-23.2c-6.2-4.2-12.2-8.5-18.3-12.8l-18.4-12.6c-6.2-4.2-12.2-8.6-18.1-13.2
			c-1.5-1.1-2.9-2.4-4.3-3.6c-1.4-1.2-2.9-2.4-4.2-3.7c-1.4-1.3-2.8-2.6-4.1-3.9l-3.8-4.1c-5.1-5.5-9.9-11.2-14.4-17.1
			c-2.3-3-4.4-6-6.5-9.1c-2.1-3.1-4-6.3-5.8-9.6c0,0,0-0.1,0-0.1c0,0,0.1,0,0.1,0c2,3.1,4.2,6.1,6.4,9.1c2.2,3,4.6,5.9,6.9,8.7
			c4.7,5.7,9.7,11.3,14.7,16.7l3.8,4c1.3,1.3,2.6,2.6,4,3.9c1.3,1.3,2.7,2.5,4.1,3.7c1.4,1.2,2.8,2.5,4.2,3.6
			c5.7,4.7,11.6,9.3,17.5,13.8c3,2.2,5.9,4.5,9,6.6l4.6,3.2c1.5,1.1,3.1,2.1,4.6,3.1c1.6,1,3.1,2.1,4.7,3.1l4.7,3l9.5,5.9
			c12.6,8,25,16.1,37.4,24.4c0,0,0.1,0.1,0,0.1C193.7,146.7,193.6,146.7,193.6,146.7z"/>
		<path d="M337.4,271.8c-0.1,0.4-0.1,0.6-0.2,0.8c-0.1,0.2-0.1,0.3-0.3,0.3c-0.2,0-0.5-0.1-0.7,0c-0.2,0.1-0.2,0.3-0.1,0.5
			c0.1,0.3,0.1,0.4,0.1,0.6c0,0.2,0,0.3-0.1,0.5c-0.1,0.1-0.2,0.3-0.4,0.4c-0.2,0.1-0.4,0.3-0.8,0.4l0,0c-0.1,0-0.1,0-0.2,0
			c-0.6-0.5-0.7-1-0.6-1.5c0.1-0.2,0.2-0.4,0.4-0.6c0.1-0.2,0.4-0.3,0.7-0.4c0.3-0.1,0.5-0.2,0.6-0.4c0.1-0.2,0-0.6,0.1-0.8
			c0.1-0.3,0.4-0.3,0.6-0.3c0.3,0,0.6,0.1,0.9,0.4C337.4,271.7,337.4,271.7,337.4,271.8L337.4,271.8z"/>
		<path d="M345.5,278.7c-3.9,4.6-8.2,8.8-13.5,12c-2.7,1.5-5.8,2.5-9,2.4c-3.2,0-6.4-1.3-8.7-3.6c-1.1-1.2-2-2.5-2.6-4
			c-0.4-0.7-0.6-1.5-0.8-2.2c-0.2-0.8-0.4-1.5-0.5-2.3c-0.5-2.9-1.3-5.8-2.1-8.7c-1.6-5.8-3.5-11.5-4.9-17.3c-0.7-2.9-1.2-5.9-1.3-9
			l0-9c0.1-3,0.1-6.1,0.9-9.1c0.4-1.5,1.1-3.1,2.6-4.3c0.7-0.6,1.6-0.9,2.5-1.1c0.4-0.1,0.9-0.1,1.3-0.1l1.2,0.1
			c3.1,0.2,6.3,1,9,2.9c2.7,1.9,4.5,4.7,5.6,7.6c2.2,5.9,2.4,12.1,2,18.2l-0.2-0.5c1.2,1.7,2.2,3.3,3.2,5.1c1,1.7,1.9,3.5,2.7,5.3
			c1.7,3.6,2.9,7.4,3.4,11.4c0,0.1,0,0.1-0.1,0.1c-0.1,0-0.1,0-0.1-0.1c-0.4-1.9-1-3.8-1.7-5.6c-0.7-1.8-1.6-3.6-2.5-5.3
			c-0.9-1.7-1.9-3.4-3-5.1c-1.1-1.6-2.2-3.3-3.3-4.8c-0.1-0.1-0.2-0.3-0.2-0.5l0,0l0-4.4c-0.1-1.5-0.2-3-0.4-4.4
			c-0.3-2.9-0.9-5.8-2-8.5c-1-2.7-2.6-5.1-4.9-6.7c-2.2-1.7-5-2.4-7.9-2.7l-1.1-0.1c-0.3,0-0.6,0-0.9,0c-0.6,0.1-1.2,0.3-1.6,0.7
			c-1,0.7-1.6,2-2,3.3c-0.8,2.7-1,5.7-1.2,8.7c-0.2,3-0.3,6-0.5,9c-0.1,2.9,0.3,5.9,0.9,8.8c1.2,5.9,3.3,11.5,5.3,17.2
			c1,2.8,1.9,5.7,2.6,8.7c0.7,2.8,1.9,5.5,3.8,7.5c1.9,2,4.6,3.1,7.5,3.2c2.8,0.1,5.7-0.6,8.2-2c2.6-1.3,5-3.1,7.3-5
			c2.3-1.9,4.6-3.9,6.7-5.9c0,0,0.1,0,0.1,0C345.5,278.6,345.5,278.7,345.5,278.7z"/>
		<path d="M375.1,299.5c-2.1-2.6-4.1-5.1-6.4-7.5c-1.1-1.2-2.3-2.3-3.5-3.2c-1.2-0.9-2.6-1.6-3.9-1.7c-1.6,0-3.2,0.1-4.7,0.4
			c-1.5,0.4-3,1-4.2,2.1c-1.1,1.1-1.8,2.6-1.9,4.2c0,0.2,0,0.4,0,0.6l0,0.6c0,0.4,0,0.8,0.1,1.2l0.2,1.2l0.4,1.1
			c0.5,1.5,1.2,3,1.9,4.5c0.7,1.5,1.5,2.9,2.3,4.1c0.9,1.3,1.9,2.4,3.2,3.1c1.2,0.7,2.6,1.1,4.1,1c0.7,0,1.4-0.2,2.2-0.4
			c0.7-0.2,1.5-0.5,2.3-0.7c1.5-0.5,3-1.1,4.4-1.8c2.8-1.4,4.9-4,6.8-6.6c0,0,0.1-0.1,0.1,0c0,0,0.1,0.1,0,0.1
			c-0.7,1.5-1.5,3-2.5,4.3c-1,1.3-2.2,2.6-3.7,3.5c-1.4,1-3,1.7-4.5,2.3c-0.8,0.3-1.5,0.6-2.3,0.9c-0.8,0.3-1.7,0.5-2.6,0.6
			c-1.8,0.2-3.8-0.3-5.3-1.3c-1.5-1-2.7-2.4-3.6-3.9c-1.9-2.9-2.9-6.1-3.7-9.4c-0.4-1.6-0.5-3.4-0.4-5c0.2-1.7,0.9-3.3,2.1-4.6
			c1.2-1.2,2.7-2.1,4.3-2.7c1.6-0.6,3.3-0.9,5-1c1,0,1.9,0.2,2.8,0.5c0.8,0.4,1.6,0.8,2.3,1.4c1.4,1,2.6,2.3,3.6,3.6
			c2.1,2.6,3.9,5.5,5.3,8.3l0,0c0,0,0,0.1,0,0.1C375.2,299.6,375.1,299.6,375.1,299.5z"/>
		<path d="M350.8,294.7c0.2-0.1,0.3-0.1,0.4-0.1l0.3-0.1l0.6-0.1c0.4-0.1,0.9-0.2,1.3-0.2c0.9-0.1,1.7-0.2,2.6-0.3
			c1.7-0.1,3.4-0.2,5.2,0c0.4,0.1,0.8,0.1,1.3,0.2c0.6,0.1,1.1,0.5,1.4,0.8c0.7,0.8,1,1.7,1.2,2.5c0.4,1.7,0.5,3.5-0.1,5.4
			c-0.3,0.9-0.9,1.8-1.7,2.4c-0.8,0.6-1.8,0.9-2.8,1c-1,0.1-2-0.1-2.9-0.4c-0.9-0.3-1.8-0.8-2.5-1.4c-1.5-1.2-2.6-2.7-3.3-4.4
			C351,298.4,350.7,296.6,350.8,294.7z M350.9,294.9c0.6,1.5,1.3,3.1,2.2,4.4c0.9,1.4,2,2.5,3.2,3.4c0.6,0.5,1.3,0.8,2,1.1
			c0.7,0.2,1.4,0.4,2.1,0.4c1.4,0,2.8-0.6,3.7-1.9c0.4-0.7,0.7-1.5,0.7-2.3c0.1-0.8,0-1.7-0.3-2.4c-0.3-0.8-0.7-1.5-1.3-1.9
			c-0.3-0.2-0.6-0.3-0.9-0.3c-0.4,0-0.8,0-1.2,0c-1.7,0.1-3.4,0-5.1-0.1c-0.9,0-1.7-0.1-2.6-0.2c-0.4,0-0.9-0.1-1.3-0.2l-0.6-0.1
			l-0.3-0.1C351.1,294.9,350.9,295,350.9,294.9z"/>
		<path d="M373.2,296.5c3.4,2.7,6.8,5.5,10.2,8.4c3.4,2.8,6.7,5.7,10,8.6l4.9,4.4c1.6,1.5,3.3,3,4.9,4.4c1.7,1.4,3.4,2.8,5.2,4.1
			c1.7,1.3,3.6,2.6,5.3,3.9c7.2,5,14.4,10.1,21.7,14.8c7.3,4.8,14.7,9.5,22.5,13.6c0,0,0.1,0.1,0,0.1c0,0-0.1,0.1-0.1,0
			c-8.3-3-16.1-7.3-23.6-12c-1.8-1.2-3.7-2.4-5.5-3.7l-5.4-3.9c-1.8-1.3-3.5-2.7-5.3-4c-1.7-1.3-3.4-2.7-5.1-4.2
			c-3.4-2.8-6.8-5.6-10.2-8.3c-3.5-2.7-7-5.3-10.5-8c-1.7-1.4-3.4-2.8-5-4.3c-1.7-1.4-3.3-2.9-4.9-4.4c-3.2-3-6.3-6.1-9.3-9.4
			c0,0,0-0.1,0-0.1C373.1,296.4,373.2,296.4,373.2,296.5z"/>
		<path d="M337.5,271.7c1,0.4,1.9,1,2.7,1.5c0.8,0.6,1.7,1.2,2.4,2c0.7,0.8,1.3,1.7,2,2.4c0.7,0.7,1.6,1.3,2.5,1.8
			c0.9,0.5,1.8,1,2.6,1.6c0.8,0.6,1.7,1.1,2.5,1.8c1.6,1.3,3,2.7,4.4,4.3c0,0,0,0.1,0,0.1c0,0-0.1,0-0.1,0c-2.1-0.5-3.9-1.6-5.6-2.8
			c-0.8-0.6-1.6-1.3-2.4-2c-0.8-0.7-1.5-1.4-2.1-2.3c-0.7-0.8-1.4-1.5-2.2-2.1c-0.8-0.6-1.8-1-2.7-1.6c-0.9-0.6-1.6-1.3-2.3-2.1
			c-0.7-0.8-1.3-1.6-1.9-2.5C337.3,271.8,337.3,271.7,337.5,271.7C337.4,271.7,337.4,271.7,337.5,271.7z"/>
		<path d="M307.6,241.2c0.6,0.5,1.4,0.8,2.2,0.7c0.8-0.1,1.4-0.6,1.8-1.2c0.5-0.6,0.9-1.2,1.3-1.9c0.4-0.7,0.7-1.3,1-2
			c0.6-1.4,1.3-3,0.8-4.5c-0.5-1.5-1.9-2.5-3.4-3c-0.7-0.3-1.5-0.4-2.3-0.5c-0.4,0-0.8-0.1-1.2-0.1c-0.2,0-0.4,0-0.6,0l-0.3,0
			c-0.1,0-0.1,0-0.1,0c-0.1,0-0.5,0.5-0.7,1.2c-0.2,0.7-0.3,1.4-0.3,2.2c-0.1,1.5,0,3.1,0.1,4.7C306,238.4,306.4,240.1,307.6,241.2z
			 M307.5,241.4c-2.4-2.3-4-5.9-3.8-9.4c0-0.9,0.1-1.8,0.5-2.7c0.2-0.5,0.4-0.9,0.7-1.4c0.3-0.4,0.9-1,1.7-1c0.2,0,0.4,0,0.5,0
			l0.3,0c0.2,0,0.4,0.1,0.7,0.1c0.4,0.1,0.9,0.2,1.3,0.3c0.8,0.3,1.7,0.6,2.4,1.1c1.5,0.9,2.9,2.1,3.6,3.7c0.7,1.7,0.6,3.6,0.2,5.3
			c-0.5,1.7-1.5,3.3-3.1,4.3c-0.8,0.5-1.7,0.8-2.6,0.7C308.9,242.3,308.1,241.9,307.5,241.4z"/>
		<path d="M302.6,236c-0.2-5.3-0.6-10.7-1.6-15.8c-0.2-1.3-0.5-2.6-0.9-3.8c-0.3-1.3-0.7-2.5-1.3-3.7c-1-2.3-2.4-4.5-4.6-5.5
			c-1.1-0.5-2.3-0.5-3.6-0.5c-1.3,0.1-2.5,0.3-3.7,0.8c-1.2,0.5-2.2,1.3-3,2.3c-0.8,1-1.4,2.2-1.8,3.4c-0.8,2.5-1,5.2-1,7.8
			c0,2.7,0.3,5.3,0.6,8c1.3,10.6,3.1,21.1,5.7,31.4c0.3,1.3,0.7,2.6,1,3.8c0.4,1.3,0.8,2.4,1.4,3.5c1.2,2.2,3.1,4,5.2,5.5
			c1,0.8,2.1,1.5,3.3,2.1c1.2,0.7,2.3,1,3.6,1.1c2.6,0.3,5.3,0.2,7.9,0c0.1,0,0.1,0,0.1,0.1c0,0,0,0.1-0.1,0.1l0,0
			c-10.4,4-23.4-4.5-24.5-15.7c-1.4-5.2-2.3-10.5-3.1-15.8c-0.8-5.3-1.3-10.7-1.6-16c-0.2-2.7-0.2-5.4-0.2-8.1
			c0.1-2.7,0.3-5.4,1.1-8c0.4-1.3,0.9-2.6,1.8-3.7c0.8-1.1,1.9-2.1,3.2-2.8c1.3-0.7,2.6-1,4-1.2c0.3-0.1,0.7-0.1,1-0.1
			c0.3,0,0.7,0,1.1,0c0.4,0,0.7,0,1.1,0.1c0.4,0.1,0.7,0.1,1.1,0.3c1.4,0.5,2.6,1.5,3.5,2.6c0.9,1.1,1.6,2.4,2.1,3.7
			c1.1,2.6,1.7,5.3,2.1,7.9c0.8,5.4,0.8,10.8,0.2,16.1C302.8,236,302.8,236.1,302.6,236C302.7,236.1,302.6,236,302.6,236z"/>
		<path d="M284.7,210.2c1.1-0.8,2.4-1.2,3.7-1.4c1.3-0.2,2.8,0,4.1,0.7c0.3,0.2,0.6,0.4,0.9,0.7c0.2,0.3,0.5,0.5,0.7,0.8
			c0.4,0.6,0.7,1.2,0.9,1.9c0.4,1.3,0.5,2.7,0.4,4c-0.1,1.3-0.5,2.6-1.3,3.7c-0.4,0.5-0.9,1.1-1.6,1.4c-0.6,0.4-1.4,0.5-2,0.7
			c-1.3,0.3-2.6,0.3-4,0.2c-1.3-0.1-2.6-0.3-4-0.8c-0.4-0.1-0.6-0.4-0.7-0.8l0,0c-0.2-1-0.2-2-0.1-3c0.1-1,0.2-1.9,0.4-2.9
			c0.2-1,0.5-1.9,0.9-2.8c0.2-0.4,0.4-0.9,0.7-1.3C284,211,284.4,210.6,284.7,210.2z M284.8,210.4c-0.1,0.5-0.3,0.8-0.4,1.3
			c-0.1,0.4-0.2,0.9-0.3,1.3c-0.2,0.9-0.3,1.8-0.3,2.7c0,0.9,0,1.8,0,2.7c0,0.9,0.1,1.8,0.2,2.6l-0.7-0.8c1,0.3,2.3,0.6,3.4,0.8
			c1.2,0.2,2.4,0.2,3.6,0.2c0.6,0,1.2,0,1.7-0.2c0.6-0.1,1-0.5,1.4-0.8c0.8-0.8,1.2-2.1,1.2-3.3c0-1.2-0.5-2.4-1-3.4
			c-0.1-0.3-0.3-0.5-0.5-0.7c-0.1-0.2-0.3-0.5-0.5-0.7c-0.3-0.4-0.7-0.8-1.1-1.1C289.9,209.9,287.2,210,284.8,210.4z"/>
		<path d="M281.3,215.8c-1.5-0.2-3-0.1-4.3,0.4c-1.3,0.5-2.5,1.3-3.4,2.3c-0.8,1-1.4,2.4-1.8,3.7c-0.4,1.4-0.6,2.8-0.8,4.3
			c-0.2,1.4-0.3,2.9-0.3,4.4c0,0.7,0,1.5,0.1,2.2c0.1,0.7,0.2,1.5,0.3,2.2c0.3,1.5,0.8,2.9,1.1,4.4c0.4,1.5,0.8,2.9,1.1,4.4
			c0.8,2.9,1.4,5.9,1.9,8.9l0.8,4.4c0.3,1.4,0.5,3,0.9,4.3c0.8,2.7,2.4,5.2,4.6,6.8c1.1,0.8,2.5,1.3,3.9,1.4
			c1.4,0.1,2.9-0.1,4.3-0.6c0.1,0,0.1,0,0.1,0.1c0,0,0,0.1,0,0.1c-1.3,0.8-2.8,1.3-4.4,1.4c-1.6,0.1-3.3-0.3-4.7-1.1
			c-2.9-1.6-4.9-4.4-5.9-7.5c-0.1-0.4-0.2-0.8-0.3-1.2l-0.2-1.1c-0.1-0.8-0.3-1.5-0.4-2.3l-0.6-4.5c-0.4-3-0.7-6-1.1-9
			c-0.2-1.5-0.4-3-0.7-4.4c-0.3-1.5-0.8-2.9-1.1-4.4c-0.7-3-1.2-6-1.1-9.1c0.1-1.5,0.3-3.1,0.8-4.6c0.5-1.5,1.1-3,2.3-4.3
			c2.4-2.4,6.1-3.1,8.9-1.8c0.1,0,0.1,0.1,0.1,0.1C281.4,215.8,281.4,215.8,281.3,215.8L281.3,215.8z"/>
		<path d="M272.3,218.8c0,0,0.1,0,0.1,0l0.1,0l0.1,0l0.2-0.1l0.5-0.1c0.3,0,0.6-0.1,0.9-0.1c0.6-0.1,1.3-0.1,1.9,0
			c0.6,0,1.3,0.1,1.9,0.3c0.2,0,0.3,0.1,0.5,0.1c0.1,0,0.1,0,0.3,0.1c0.2,0.1,0.3,0.2,0.4,0.3c0.4,0.4,0.5,0.8,0.6,1.2
			c0.3,1.5-0.1,2.7-0.3,4c-0.3,1.2-0.5,2.5-1.1,3.7c-0.3,0.6-0.9,1.3-1.8,1.5l-0.3,0.1l-0.2,0c-0.2,0-0.3,0-0.5,0
			c-0.3,0-0.7,0-1.1,0c-0.7,0-1.7-0.4-2.3-1.2c-0.6-0.7-0.8-1.4-0.9-2.1c-0.2-1.4-0.2-2.6,0-3.9c0.1-0.6,0.2-1.2,0.3-1.9
			C271.9,220,272.1,219.3,272.3,218.8z M272.4,218.9c0.6,2.3,0.6,5,1.1,7.1c0.1,0.5,0.3,1,0.5,1.3c0.2,0.3,0.4,0.4,0.9,0.6
			c0.2,0.1,0.5,0.1,0.8,0.1l0.8,0c0.4,0,0.8-0.2,1.2-0.5c0.8-0.8,1.3-2,1.4-3.2c0.1-1.2-0.2-2.5-0.6-3.3c-0.1-0.2-0.2-0.4-0.3-0.4
			c0.1,0.1-0.2-0.1-0.5-0.2c-0.5-0.2-1.1-0.3-1.7-0.4c-0.6-0.1-1.2-0.3-1.8-0.4c-0.3-0.1-0.6-0.2-0.9-0.3l-0.5-0.1l-0.2-0.1
			L272.4,218.9L272.4,218.9C272.4,219,272.4,219,272.4,218.9z"/>
	</g>
	<circle class="st1" cx="345.9" cy="98.7" r="8.5"/>
	<circle class="st0" cx="153.5" cy="218.1" r="8.6"/>
	<circle class="st0" cx="281.1" cy="336.6" r="1.7"/>
	<circle class="st0" cx="16.3" cy="147.6" r="9.1"/>
	<circle class="st2" cx="89.4" cy="208.7" r="5.3"/>
	<circle class="st2" cx="126.4" cy="147.2" r="3.8"/>
	<circle class="st1" cx="184.3" cy="314.6" r="9.3"/>
	<circle class="st0" cx="211" cy="253.7" r="10.8"/>
	<circle class="st0" cx="274.8" cy="79.3" r="4.7"/>
	<circle class="st3" cx="398.3" cy="208.6" r="5.2"/>
	<circle class="st0" cx="447.3" cy="135.3" r="3.2"/>
	<circle class="st3" cx="387.9" cy="140.6" r="5.2"/>
</g>
</svg>
