<?xml version="1.0" encoding="utf-8"?>
<!-- Generator: Adobe Illustrator 25.4.1, SVG Export Plug-In . SVG Version: 6.00 Build 0)  -->
<svg version="1.1" id="Capa_1" xmlns="http://www.w3.org/2000/svg" xmlns:xlink="http://www.w3.org/1999/xlink" x="0px" y="0px"
	 viewBox="0 0 368.4 450.6" style="enable-background:new 0 0 368.4 450.6;" xml:space="preserve">
<style type="text/css">
	.st0{fill:#FAE058;}
	.st1{fill:#0049E5;}
	.st2{fill:#77F169;}
	.st3{fill:#F089C0;}
</style>
<path class="st0" d="M195.8,206.4c0,0,6.8,55.1,2.3,68.5c-4.6,13.4-5.8,27.4-14.9,32.9c-9.1,5.4-0.7,12.6-0.7,12.6l59.9,106.8
	c0,0,82.1,8,92.6-3.1s10.8-27.6,10.8-27.6s-82.5-52.4-92.6-66.1c-10.1-13.7-36-42.6-36-42.6s-5.7-0.7,1.9-9.9
	c7.6-9.2,9.6-18.9,9.3-33.9c-0.3-15,13.3-21,1.7-25.2c-11.5-4.2-21.2,18.2-21.2,18.2S196,214,195.8,206.4z"/>
<path class="st0" d="M148.1,131c0,0,4.8-5.6,7.7-1c3,4.5,4.9,7.6,4.9,7.6s4.7-7.6,10,1c5.2,8.6,10.7,23.9,10.7,23.9
	s-4.6-0.7-3.9,3.3c0.7,4-8.9-31.8-20.8-26.7C156.7,139,153.3,133.6,148.1,131z"/>
<path class="st1" d="M148.1,133.9c-3.9-1.2-6.8,1.5-6.2,6.4c0.6,4.9,1.1,9.4,1.3,10.7c0.2,1.3-7.8-3.9-8.7,2.2s3,54.5,2.8,59.4
	c-0.2,4.9-4.4-2.5-8.7-2.3c-4.4,0.2-7.4,1.3-3.4,10.2s1.9,34.2,2.5,39.8c0.5,5.6,16.2,19.7,5.4,35c-10.8,15.3-75.2,131-75.2,131
	S78,440.6,95,441.8s35-9.6,35.7-12.6c0.7-3,33-93.3,41.1-108.5s19.7-20.3,22-40.9c2.3-20.6-0.1-64.5-1.9-82.7s-3.3-23-4.4-27.1
	c-1.1-4.1-9.8-6.3-8,3.7c1.8,10-3.6,6-4.1-0.7c-0.5-6.8-5.9-27.1-10.1-29.8c-4.3-2.7-10.6-0.1-10.6-0.1S152.6,135.3,148.1,133.9z"/>
<path d="M130.6,432.7c4.7-13.9,9.6-27.7,14.6-41.4l7.6-20.6c2.6-6.9,5.3-13.7,7.9-20.5c2.7-6.8,5.5-13.6,8.4-20.3
	c1.4-3.4,2.9-6.7,4.4-10.1c0.8-1.7,1.5-3.3,2.3-5c0.4-0.8,0.8-1.7,1.3-2.5c0.4-0.8,0.9-1.6,1.5-2.3c2.4-2.8,5.1-5.3,7.4-8.1
	c2.3-2.8,4.2-6,5.5-9.3c1.4-3.4,2.4-6.9,3-10.5c0.2-0.9,0.3-1.8,0.4-2.7l0.4-2.7c0.2-1.8,0.3-3.6,0.5-5.4c0.5-7.3,0.3-14.6,0.1-21.9
	c-0.2-7.3-0.6-14.6-1.1-21.9c-0.5-7.3-1.1-14.6-1.8-21.8c-0.7-7.3-1.5-14.5-2.5-21.8c-0.5-3.6-1.1-7.2-1.8-10.7l-0.3-1.3l-0.4-1.3
	c-0.1-0.4-0.2-0.9-0.4-1.2l-0.2-0.5c-0.1-0.2-0.2-0.3-0.3-0.5c-0.4-0.7-1-1.2-1.6-1.7c-0.7-0.4-1.4-0.8-2.1-0.9
	c-0.7-0.1-1.5-0.1-2.1,0.3c-0.2,0-0.3,0.2-0.5,0.3c-0.2,0.1-0.3,0.2-0.4,0.3l-0.4,0.4l-0.3,0.5c-0.8,1.3-0.9,3.1-0.8,4.8
	c0.3,3.6,0.7,7.3,1.1,10.9c0.4,3.6,0.7,7.3,1,10.9c0.3,3.7,0.5,7.3,0.5,11c0,0.9-0.1,1.9-0.3,2.8l-0.4,2.7l-0.8,5.4
	c-0.5,3.6-1,7.2-1.3,10.9c0,0.1-0.1,0.1-0.1,0.1c-0.1,0-0.1-0.1-0.1-0.1c0.2-3.7,0.5-7.3,0.9-11l0.6-5.5c0.2-1.8,0.5-3.7,0.5-5.4
	c0-3.6-0.4-7.3-0.8-10.9l-1.2-10.9c-0.4-3.6-0.9-7.3-1.2-10.9c-0.2-1.9-0.1-4,0.9-5.9c0.5-1,1.4-1.7,2.3-2.3c1-0.5,2.2-0.6,3.2-0.5
	c1.1,0.1,2.1,0.6,2.9,1.2c0.8,0.6,1.6,1.3,2.2,2.2c0.1,0.2,0.3,0.4,0.4,0.7l0.3,0.7c0.2,0.5,0.3,0.9,0.5,1.4l0.4,1.4l0.3,1.4
	c0.8,3.6,1.3,7.3,1.9,10.9c2.1,14.5,3.3,29.2,4.2,43.8c0.4,7.3,0.7,14.6,0.8,22c0.1,3.7,0,7.3-0.1,11l-0.2,5.5l-0.4,5.5
	c-0.7,7.3-2,14.6-4.8,21.5c-1.4,3.4-3.3,6.6-5.7,9.4c-2.3,2.9-5,5.4-7.3,8.2c-0.6,0.7-1,1.4-1.4,2.2c-0.4,0.8-0.8,1.6-1.2,2.4
	c-0.8,1.6-1.5,3.3-2.2,5c-1.4,3.4-2.8,6.8-4.1,10.2c-2.7,6.8-5.3,13.6-7.9,20.5c-10.5,27.3-20.8,54.7-31.5,82c0,0.1-0.1,0.1-0.1,0.1
	C130.6,432.8,130.5,432.8,130.6,432.7z"/>
<path d="M178.7,169.1c0.7-0.2,1.4-0.3,2-0.4c0.6-0.1,1.3-0.1,1.7-0.1c0.1,0,0.1,0,0.2,0l0.1,0c0,0,0,0,0.1,0c0.1,0,0.2-0.1,0.3-0.1
	c0.4-0.1,0.7,0.2,0.8,0.3c0.1,0.2,0.1,0.3,0.2,0.4c0.1,0.4,0.1,0.8,0.2,1.1c0.1,0.7,0.3,1.4,0.5,2.1c0.2,0.7,0.4,1.4,0.3,2.2
	c-0.1,0.8-0.2,1.6-0.9,2.4c-0.4,0.4-0.9,0.7-1.4,0.7c-0.5,0.1-1,0-1.4-0.2c-0.8-0.3-1.3-0.9-1.7-1.5c0-0.1,0-0.1,0-0.2
	c0,0,0,0,0.1,0c0.7,0.1,1.4,0.2,1.9,0.2c0.6,0,0.7-0.2,0.9-0.5c0.2-0.3,0.5-0.7,0.6-1.3c0.2-0.6,0.3-1.2,0.5-1.8
	c0.2-0.6,0.2-1.3-0.1-2c-0.1-0.3-0.3-0.6-0.5-0.7c0,0-0.1-0.1-0.1,0c0,0,0.1,0.2,0.3,0.1c0.1,0,0.1,0,0.2,0c0,0,0,0-0.1,0l-0.2,0.1
	c-0.1,0.1-0.2,0.1-0.3,0.2c-0.4,0.2-0.8,0.2-1.2,0.2c-0.4,0-0.7-0.1-1.1-0.1c-0.7-0.2-1.4-0.4-2-1
	C178.6,169.3,178.6,169.2,178.7,169.1C178.6,169.1,178.6,169.1,178.7,169.1z"/>
<path d="M179.4,184.8c-1.7-5.4-3.1-10.8-4.7-16.2c-1.6-5.4-3.3-10.8-5.2-16c-1-2.6-2.1-5.2-3.5-7.5c-0.7-1.2-1.6-2.3-2.6-3.1
	c-0.5-0.4-1.1-0.7-1.8-0.9c-0.7-0.2-1.3-0.4-2-0.4c-1.3-0.1-2.7,0.1-3.7,1.1c-1,0.9-1.4,2.3-1.5,3.6c-0.1,1.4,0.1,2.7,0.4,4.1
	c0.3,1.4,0.6,2.7,0.9,4.1c1.3,5.5,2.7,11,3.7,16.5c0.5,2.8,1,5.6,1.3,8.4c0.2,1.4,0.2,2.9,0.3,4.3l0.1,4.2
	c0.3,11.3,0.7,22.5,0.7,33.8c0,0.1,0,0.1-0.1,0.1c-0.1,0-0.1,0-0.1-0.1c-1.2-11.2-2.1-22.5-2.6-33.8c-0.1-1.4-0.1-2.8-0.1-4.2
	c0-1.4-0.1-2.8-0.2-4.1c-0.2-2.8-0.6-5.5-1.1-8.3c-0.9-5.5-2-11.1-2.9-16.6c-0.2-1.4-0.5-2.8-0.7-4.2c-0.2-1.4-0.4-2.9-0.2-4.3
	c0.2-1.4,0.6-2.9,1.8-4c1.1-1.1,2.7-1.4,4.1-1.3c0.7,0,1.5,0.2,2.1,0.4c0.7,0.1,1.4,0.5,2,0.9c1.2,0.8,2.2,2,3,3.1
	c1.7,2.3,3,4.9,4.1,7.5c2.2,5.2,3.8,10.7,5.2,16.2c1.4,5.5,2.4,11,3.4,16.6c0,0.1,0,0.1-0.1,0.1
	C179.5,184.9,179.4,184.9,179.4,184.8z"/>
<path d="M153.9,145.6c1.6-0.6,3.2-0.8,4.8-0.8c0.8,0,1.6,0.2,2.4,0.4l0.3,0.1c0,0,0.2,0,0.3,0.1c0.1,0,0.2,0.1,0.2,0.2
	c0.2,0.3,0.3,0.5,0.3,0.7c0.1,0.4,0.2,0.8,0.2,1.3c0.1,0.8,0.2,1.7,0.2,2.5c0,0.9-0.2,1.7-0.5,2.6c-0.3,0.8-0.8,1.7-1.6,2.3
	c-0.8,0.6-1.9,0.9-2.9,0.8l-0.2,0c-0.1,0-0.2-0.1-0.3-0.1c-0.8-0.8-1.6-1.6-2.3-2.5c0,0,0-0.1,0-0.1c0,0,0.1,0,0.1,0
	c1.1,0.3,2.1,0.8,3.1,1.3l-0.5-0.2c0.6-0.1,1.1-0.4,1.5-0.8c0.4-0.4,0.9-0.9,1.2-1.5c0.4-0.6,0.6-1.3,0.9-2c0.3-0.7,0.5-1.5,0.5-2.2
	c0-0.7-0.3-1.8-0.8-1.3c-0.8,0.2-1.6,0.4-2.4,0.4c-1.6,0-3.2-0.2-4.8-0.8C153.8,145.7,153.8,145.7,153.9,145.6
	C153.9,145.6,153.9,145.6,153.9,145.6z"/>
<path d="M155.7,141.5c-0.8-1.9-1.9-3.7-3.3-5.2c-0.7-0.8-1.5-1.4-2.3-1.9c-0.4-0.2-0.9-0.4-1.3-0.5c-0.2,0-0.4-0.1-0.7-0.2l-0.7,0
	c-0.2,0-0.5,0-0.7,0.1l-0.7,0.1c-0.4,0.2-0.9,0.3-1.3,0.5c-0.4,0.3-0.8,0.5-1.2,0.7l-1.2,0.9c-1.3,1-1.1,3.2-0.8,5.2
	c0.3,2,0.8,4.2,0.7,6.4c0.1,2,0.4,4.2,0.7,6.2c0.7,4.2,1.6,8.3,2.6,12.5c1,4.1,1.9,8.3,2.6,12.5c0.4,2.1,0.7,4.2,1,6.3l0.2,1.6
	l0.1,1.7c0,1.1,0,2.1,0,3.2c-0.1,8.5-0.3,17-1,25.4c0,0.1-0.1,0.1-0.1,0.1c0,0-0.1,0-0.1-0.1l0,0c-0.6-8.5-0.9-17-1-25.4l0-3.2
	l-0.1-1.5l-0.1-1.6c-0.2-2.1-0.5-4.2-0.8-6.3l-1.8-12.6c-0.6-4.2-1.3-8.4-2.1-12.5l-0.6-3.1c-0.1-0.5-0.2-1-0.3-1.6
	c-0.1-0.5-0.2-1.1-0.2-1.6c-0.1-2.1-0.8-4-1.2-6.2c-0.2-1.1-0.4-2.2-0.3-3.4c0-0.6,0.2-1.2,0.4-1.8c0.1-0.3,0.3-0.6,0.5-0.9
	c0.2-0.2,0.5-0.5,0.7-0.7l1.3-1c0.5-0.3,1-0.6,1.5-0.8c0.5-0.2,1.1-0.4,1.7-0.6c0.3,0,0.6-0.1,0.9-0.1c0.3,0,0.6-0.1,0.9,0l0.9,0.1
	c0.3,0,0.6,0.2,0.9,0.3c0.6,0.2,1.1,0.5,1.6,0.8c0.9,0.7,1.8,1.4,2.4,2.3c0.7,0.9,1.2,1.8,1.7,2.8c0.5,1,0.8,2,1.1,3.1
	c0,0.1,0,0.1-0.1,0.1C155.8,141.6,155.7,141.5,155.7,141.5z"/>
<path d="M140.5,137.4c1-0.4,2-0.5,3-0.6c1-0.1,2-0.2,3,0l1.4,0.2l0.1,0l0,0c0.1,0,0.2,0,0.3,0c0.3,0.1,0.4,0.2,0.4,0.3
	c0.1,0.2,0.1,0.3,0.2,0.5c0.1,0.3,0.1,0.5,0.2,0.8l0.7,3c0.2,1,0.3,2.1,0,3.3c-0.1,0.6-0.4,1.2-0.8,1.7c-0.4,0.5-1,1-1.7,1.2
	c-0.3,0.1-0.7,0.2-1,0.2c-0.3,0-0.5,0-0.8,0c-0.5,0-1.1-0.1-1.6-0.2c-0.5-0.1-1.1-0.3-1.6-0.6c-0.5-0.3-1-0.8-1-1.4
	c0-0.1,0-0.1,0.1-0.1c0,0,0.1,0,0.1,0l0,0c0.3,0.3,0.7,0.4,1.1,0.5c0.4,0,0.9,0,1.3,0c0.5,0,0.9-0.1,1.4-0.2c0.2,0,0.5-0.1,0.7-0.1
	c0.2,0,0.3-0.1,0.5-0.1c0.6-0.2,1-0.6,1.4-1.4c0.3-0.8,0.5-1.7,0.7-2.6c0.1-1,0.1-2-0.2-2.9c-0.1-0.2-0.2-0.4-0.3-0.6
	c-0.1-0.1-0.1-0.2-0.2-0.2c0,0-0.1,0,0.1,0.1c0.1,0,0.1,0,0.2,0l-0.1,0l-0.1,0c-0.6,0.2-1.1,0.3-1.6,0.4c-1,0.1-2,0-3-0.1
	c-1-0.1-2-0.3-3-0.7C140.4,137.6,140.4,137.5,140.5,137.4C140.4,137.4,140.5,137.4,140.5,137.4z"/>
<path d="M141.9,150.3c-0.9-0.5-1.9-0.9-2.9-1c-1-0.1-2,0.2-2.8,0.7c-0.8,0.5-1.5,1.4-1.9,2.1c-0.4,0.8-0.5,1.8-0.6,2.8
	c-0.4,4.1,0,8.4,0.1,12.6c0.2,4.2,0.3,8.5,0.7,12.7c0.2,2.1,0.5,4.2,0.7,6.3c0.3,2.1,0.6,4.2,0.8,6.4c0.3,4.3,0.5,8.5,0.7,12.8
	c0.1,4.3,0.2,8.5,0.2,12.8c-0.1,4.3-0.2,8.5-0.5,12.8c-0.1,2.1-0.3,4.3-0.6,6.4c-0.1,1.1-0.2,2.1-0.5,3.2l-0.3,1.6l-0.4,1.6
	c0,0.1-0.1,0.1-0.1,0.1c0,0-0.1-0.1-0.1-0.1l0,0c0.3-2.1,0.3-4.2,0.4-6.3c0-2.1,0-4.2,0-6.4l-0.1-12.7l0.1-12.7
	c0-4.2,0.1-8.5,0.1-12.7c-0.1-4.2-0.6-8.5-1.1-12.7c-0.5-4.2-1.3-8.4-1.7-12.7c-0.2-2.1-0.4-4.3-0.4-6.4c0-2.1,0-4.3,0.4-6.5
	c0.2-1.1,0.4-2.2,1-3.3c0.7-1,1.5-1.8,2.5-2.4c1-0.6,2.3-0.7,3.4-0.5c1.1,0.2,2.1,0.8,2.9,1.5c0,0,0,0.1,0,0.1
	C142,150.3,141.9,150.3,141.9,150.3L141.9,150.3z"/>
<path d="M135.8,213.1c-2-1.8-4-3.6-6.5-4.4c-1.2-0.4-2.5-0.5-3.8-0.2c-0.6,0.1-1.2,0.4-1.8,0.6c-0.6,0.3-1.1,0.6-1.6,1
	c-0.4,0.4-0.6,0.9-0.6,1.4c0,0.5,0.2,1.1,0.5,1.7c0.6,1.1,1.3,2.3,2,3.5c1.4,2.4,2.5,4.9,3,7.7c0.3,1.4,0.4,2.7,0.4,4.1
	c0,1.4,0,2.7-0.1,4.1l-0.2,8c-0.1,5.4-0.3,10.7-0.1,16c0.1,2.7,0.2,5.3,0.6,7.9c0.4,2.6,0.9,5.2,2.2,7.4c1.4,2.2,3,4.5,4.1,7
	c1.1,2.5,1.8,5.2,1.6,8c-0.1,2.7-1,5.4-2,7.9c-0.6,1.2-1.1,2.5-1.9,3.6c-0.3,0.6-0.7,1.2-1,1.7l-1.2,1.7c-3.3,4.3-6.6,8.4-9.4,13
	c-11.3,18.2-21.4,37.2-31.7,55.9c-10.2,18.8-20.5,37.7-30.9,56.5c0,0-0.1,0.1-0.1,0c0,0-0.1-0.1,0-0.1c4.6-9.7,9.4-19.3,14.3-28.9
	l7.4-14.3c2.5-4.8,5-9.5,7.6-14.2c5-9.5,10.3-18.8,15.7-28.1c5.4-9.3,10.9-18.5,16.9-27.4l2.3-3.3c0.4-0.6,0.8-1.1,1.2-1.6l1.3-1.6
	c1.6-2.2,3.5-4.1,5-6.3l1.2-1.6c0.4-0.6,0.7-1.1,1-1.7c0.7-1.1,1.3-2.3,1.9-3.5c1.1-2.4,1.8-5,1.9-7.6c0.1-2.6-0.5-5.2-1.7-7.6
	c-1.1-2.4-2.8-4.5-4.3-6.7c-1.5-2.4-2.1-5.2-2.6-7.8c-0.4-2.7-0.7-5.4-0.8-8.1c-0.2-5.4-0.2-10.8,0-16.2l0.3-8c0-1.3,0.1-2.7,0.1-4
	c0-1.3-0.1-2.6-0.4-3.9c-0.5-2.5-1.4-5-2.7-7.3c-0.6-1.2-1.3-2.3-1.9-3.6c-0.3-0.6-0.5-1.3-0.6-2.2c0-0.8,0.5-1.7,1-2.2
	c0.6-0.5,1.2-0.8,1.8-1.1c0.6-0.3,1.3-0.5,2-0.6c1.4-0.2,2.9-0.1,4.2,0.4c2.6,1,4.6,3,6.4,4.9c0,0,0,0.1,0,0.1
	C135.9,213.1,135.8,213.1,135.8,213.1z"/>
<path d="M122.8,209c0.7,0.2,1.2,0.5,1.8,0.9c0.5,0.4,0.9,0.8,1.2,1.4c0.3,0.6,0.4,1.3,0.6,1.8c0.2,0.6,0.6,1.1,1,1.6
	c0.4,0.5,0.7,1,1,1.7c0.2,0.6,0.5,1.3,0.4,2.1c-0.1,0.8-0.6,1.7-1.3,2.1c-0.7,0.4-1.4,0.5-2.1,0.4c-0.1,0-0.1-0.1-0.1-0.1
	c0,0,0,0,0-0.1l0,0c0.5-0.5,0.8-0.9,1.1-1.4c0.2-0.4,0.2-0.7,0.2-1.1c0-0.4,0-0.9-0.1-1.4c-0.1-0.5-0.2-1.2-0.2-1.8
	c0-0.6-0.2-1.2-0.5-1.7c-0.3-0.5-0.9-0.8-1.4-1.2c-0.4-0.4-0.7-0.9-1-1.4c-0.3-0.5-0.6-1.1-0.7-1.8C122.6,209.1,122.7,209,122.8,209
	C122.8,209,122.8,209,122.8,209z"/>
<path d="M133.9,151.4c0.8-0.6,1.7-0.9,2.7-1.1c0.9-0.2,1.9-0.3,3,0.2c0.5,0.2,1.1,0.7,1.3,1.4c0,0.2,0.1,0.3,0.1,0.5l0,0.3
	c0,0.2,0,0.5,0,0.7c0,0.9,0.1,1.8,0.2,2.8c0.1,1,0.1,2-0.4,3c-0.2,0.5-0.6,1-1,1.4c-0.5,0.4-1.1,0.7-1.7,0.8
	c-1.2,0.2-2.2-0.2-3.1-0.6c-0.9-0.5-1.6-1.1-2.3-1.8c0,0,0-0.1,0-0.2c0,0,0.1,0,0.1,0c1,0.1,1.8,0.4,2.7,0.5c0.8,0.1,1.6,0.2,2.2,0
	c0.6-0.1,1-0.4,1.4-1c0.4-0.6,0.7-1.4,1-2.2c0.3-0.8,0.3-1.8,0.2-2.6c0-0.2-0.1-0.4-0.2-0.7l-0.1-0.3c0-0.1-0.1-0.1-0.1-0.2
	c-0.2-0.2-0.4-0.2-0.8-0.2c-0.7-0.1-1.5-0.2-2.4-0.2c-0.9-0.1-1.8-0.1-2.7-0.3C133.9,151.6,133.8,151.5,133.9,151.4
	C133.8,151.5,133.9,151.4,133.9,151.4z"/>
<path d="M159.5,140.3c0.8-1.8,2.1-3.3,3.7-4.5c0.8-0.6,1.7-1.1,2.7-1.4c0.5-0.2,1-0.3,1.5-0.3c0.5-0.1,1.2-0.1,1.7,0.1
	c1.1,0.4,1.9,1.2,2.5,2c0.6,0.8,1.1,1.6,1.6,2.5l2.8,4.9c1,1.6,1.8,3.3,2.6,5.1c0.8,1.7,1.6,3.4,2.2,5.2c1.3,3.5,2.5,7.1,3.4,10.8
	c0,0.1,0,0.1-0.1,0.1c0,0-0.1,0-0.1,0c-2.1-3.2-3.7-6.6-5.2-10.1c-0.7-1.7-1.3-3.5-2-5.3c-0.7-1.8-1.3-3.5-1.9-5.3
	c-0.6-1.8-1.3-3.5-2.4-5.1c-0.5-0.8-1.1-1.5-1.8-2.1c-0.7-0.6-1.4-1-2.1-1.1c-0.4,0-0.6,0-1.1,0c-0.4,0-0.8,0.2-1.2,0.3
	c-0.8,0.2-1.6,0.6-2.4,1c-1.6,0.8-3,2-4.4,3.3l0,0c0,0-0.1,0-0.1,0C159.5,140.4,159.5,140.4,159.5,140.3z"/>
<path d="M146.3,133c-0.7-0.9-1-2.2-0.6-3.5c0.3-1.3,1.4-2.4,2.6-2.8c0.3-0.1,0.6-0.2,0.9-0.2l0.9-0.1c0.6,0,1.1-0.1,1.7-0.1
	c0.6-0.1,1.1-0.2,1.7-0.2c0.3,0,0.6,0,0.9,0c0.3,0.1,0.6,0.1,0.9,0.2c1.2,0.5,2.1,1.4,2.8,2.3c0.7,0.9,1.4,1.8,1.9,2.8
	c1,2,1.9,4,2.4,6.2c0,0.1,0,0.1-0.1,0.1c0,0-0.1,0-0.1,0c-1.6-1.6-2.9-3.4-4.1-5.2c-1.1-1.8-2-3.9-3.4-5.1c-0.7-0.7-1.9-0.7-2.9-0.4
	c-1,0.3-2.1,0.8-2.8,1.4c-0.4,0.3-0.7,0.5-1.1,0.8c-0.3,0.3-0.6,0.6-0.8,1c-0.4,0.8-0.6,1.8-0.6,2.9l0,0
	C146.5,133,146.5,133,146.3,133C146.4,133,146.3,133,146.3,133z"/>
<path d="M191.9,184.9c0.9,2,1.6,4,2.3,6.1c0.7,2.1,1.3,4.1,1.7,6.3c0.4,2.1,0.7,4.3,1.2,6.4c0.5,2.1,1.2,4.1,2,6.1
	c0.9,2,1.7,4,2.5,6l2.5,6c1.6,4,3,8,5,11.9l0,0c0,0,0,0.1,0,0.1c0,0-0.1,0-0.1,0c-1.6-1.6-2.8-3.4-3.9-5.3c-1.1-1.9-2-3.9-2.9-5.9
	c-0.9-2-1.6-4.1-2.3-6.1c-0.7-2.1-1.3-4.2-1.8-6.3c-0.5-2.1-1-4.2-1.6-6.3c-0.6-2.1-1.5-4.1-2.2-6.1c-0.7-2.1-1.2-4.2-1.6-6.3
	c-0.4-2.1-0.8-4.3-1-6.4c0-0.1,0-0.1,0.1-0.1C191.9,184.9,191.9,184.9,191.9,184.9z"/>
<path d="M201,262.2c0.3-5.8,1.3-11.5,2.8-17.2c0.8-2.8,1.7-5.6,2.8-8.3c1.1-2.7,2.5-5.3,4.1-7.8c1.7-2.4,3.6-4.7,5.9-6.6
	c2.2-1.9,4.9-3.3,7.6-4.3c2.7-1,5.8-1.6,8.7-0.7c1.4,0.5,2.8,1.4,3.6,2.6c0.9,1.3,1.2,2.9,1.2,4.4c-0.1,1.5-0.5,3.1-1.3,4.4
	c-0.4,0.7-0.7,1.2-1.1,1.9c-0.3,0.6-0.7,1.2-0.9,1.9c-1.1,2.6-1.9,5.3-2.5,8.1c-1.2,5.6-1.5,11.3-1.1,16.9c0,0.7,0.1,1.5,0,2.3
	c0,0.8-0.2,1.6-0.3,2.3c-0.3,1.5-0.9,2.9-1.5,4.3c-1.3,2.7-2.9,5.2-4.5,7.5c-1.7,2.4-3.4,4.7-5.1,7c-0.8,1.2-1.6,2.4-2.3,3.6
	c-0.7,1.2-1.3,2.5-1.6,3.9c0,0.1-0.1,0.1-0.1,0.1c-0.1,0-0.1-0.1-0.1-0.1c0.1-1.5,0.6-2.9,1.2-4.2c0.6-1.3,1.3-2.6,2.1-3.9
	c1.5-2.5,3.1-4.9,4.6-7.3c1.5-2.4,3-4.9,4.1-7.5c0.5-1.3,1-2.6,1.3-3.9c0.1-0.7,0.2-1.3,0.3-2c0-0.7,0-1.2-0.1-2
	c-0.5-5.9,0.1-11.8,1.4-17.5c0.7-2.9,1.6-5.7,2.9-8.3c0.3-0.7,0.7-1.3,1.1-2c0.4-0.6,0.9-1.3,1.2-1.8c0.8-1.1,1.2-2.4,1.4-3.7
	c0.1-1.3-0.1-2.7-0.8-3.9c-0.7-1.2-1.9-2-3.1-2.5c-2.7-0.9-5.6-0.4-8.3,0.7c-0.7,0.2-1.3,0.6-1.9,0.9c-0.7,0.3-1.3,0.7-1.9,1
	c-0.6,0.4-1.2,0.8-1.7,1.2c-0.5,0.5-1.1,0.9-1.6,1.4c-2,2-3.8,4.2-5.2,6.7c-3,4.8-5.1,10.1-6.9,15.6c-1.7,5.5-3.1,11.1-4.1,16.8
	c0,0.1-0.1,0.1-0.1,0.1C201,262.3,201,262.2,201,262.2L201,262.2z"/>
<path d="M176.9,313.8c2.8,4.1,5.5,8.3,8.1,12.5c2.6,4.2,5.1,8.5,7.5,12.8l3.5,6.6c1.1,2.2,2.3,4.4,3.5,6.6c2.4,4.3,5,8.6,7.6,12.8
	c2.6,4.2,5.2,8.5,7.7,12.7c2.5,4.3,5,8.6,7.3,12.9c4.7,8.7,9.2,17.6,13.1,26.7c0,0.1,0,0.1-0.1,0.1c0,0-0.1,0-0.1,0
	c-5-8.6-9.9-17.1-14.8-25.8c-2.4-4.3-4.7-8.7-7.1-13c-2.4-4.3-4.7-8.7-7-13.1c-2.3-4.4-4.6-8.7-7.2-13c-2.5-4.3-5.3-8.4-7.9-12.6
	c-2.6-4.2-5-8.5-7.4-12.9c-2.4-4.3-4.7-8.7-6.9-13.2c0,0,0-0.1,0-0.1C176.8,313.7,176.9,313.7,176.9,313.8z"/>
<path d="M217.4,283.5c8.8,11.5,17.8,22.8,27.3,33.7c2.3,2.7,4.8,5.4,7.2,8c1.3,1.3,2.5,2.6,3.8,3.9c1.3,1.2,2.6,2.5,4,3.7
	c1.4,1.1,2.7,2.3,4.2,3.4l4.3,3.3c2.9,2.2,5.9,4.2,8.8,6.3l17.8,12.4c5.9,4.2,11.9,8.3,17.8,12.5c11.8,8.4,23.5,16.9,35,25.7
	c0,0,0.1,0.1,0,0.1c0,0-0.1,0.1-0.1,0c-12.2-7.8-24.2-15.9-36.1-24.2c-5.9-4.2-11.8-8.4-17.6-12.7c-5.9-4.3-11.6-8.6-17.4-13.1
	c-2.9-2.2-5.7-4.5-8.6-6.6c-2.9-2.2-5.7-4.4-8.5-6.7c-5.6-4.7-10.8-9.7-15.8-15c-4.9-5.3-9.5-11-13.9-16.7
	c-4.3-5.8-8.5-11.7-12.3-17.9c0,0,0-0.1,0-0.1C217.3,283.4,217.4,283.4,217.4,283.5z"/>
<path d="M210.3,177.4c9.3-2.1,23.3-6.9,24.7-4C236.4,176.3,210.3,177.4,210.3,177.4z"/>
<path d="M182.5,138.6c0,0,15.5-23.6,18.6-24.5c3.1-0.9,3.2,3.2,1.5,4.7C200.8,120.2,182.5,138.6,182.5,138.6z"/>
<path d="M156.6,77.5c-2.9-0.9-1.9,36.1-1.6,38.7s1.6,2.8,1.6,0S163.6,79.6,156.6,77.5z"/>
<path d="M133.7,134.8c0,0-16.3-25.5-18.3-27.9c-2-2.4-6.3-0.5-3,2.8C115.6,113,133.7,134.8,133.7,134.8z"/>
<path d="M109.8,162.8c0,0-23.5-8.3-27.3-9.8c-3.8-1.5-6.5,2.3-0.6,3.9S109.8,162.8,109.8,162.8z"/>
<path d="M104.9,248.1c-6.8,5.4-13.1,14.1-16.2,16.6c-3.1,2.5-0.1,7.5,3,2.7S104.9,248.1,104.9,248.1z"/>
<path d="M96.7,203.8c0,0-26.1-1.4-29.6,0s-2.1,5.7,3.5,4.1C76.1,206.3,96.7,203.8,96.7,203.8z"/>
<circle class="st1" cx="112.2" cy="300.4" r="8.6"/>
<circle class="st1" cx="262.5" cy="114" r="8.6"/>
<circle class="st2" cx="48.1" cy="291" r="5.3"/>
<circle class="st2" cx="10.1" cy="128.1" r="5.3"/>
<circle class="st3" cx="357" cy="290.9" r="5.2"/>
<circle class="st3" cx="176.7" cy="417.5" r="5.2"/>
<circle class="st3" cx="346.5" cy="222.9" r="5.2"/>
<circle class="st3" cx="109.8" cy="11.4" r="5.2"/>
</svg>
