<svg width="250" height="247" viewBox="0 0 250 247" fill="none" xmlns="http://www.w3.org/2000/svg">
<path d="M53.1495 55.883C55.3358 55.883 57.1081 54.1107 57.1081 51.9244C57.1081 49.7381 55.3358 47.9658 53.1495 47.9658C50.9632 47.9658 49.1909 49.7381 49.1909 51.9244C49.1909 54.1107 50.9632 55.883 53.1495 55.883Z" fill="#FAE058"/>
<path d="M16.7512 128.783C18.0857 128.783 19.1675 127.701 19.1675 126.367C19.1675 125.032 18.0857 123.95 16.7512 123.95C15.4168 123.95 14.335 125.032 14.335 126.367C14.335 127.701 15.4168 128.783 16.7512 128.783Z" fill="#0049E5"/>
<path d="M84.5614 213.147C86.8045 213.147 88.6228 211.329 88.6228 209.086C88.6228 206.843 86.8045 205.024 84.5614 205.024C82.3184 205.024 80.5 206.843 80.5 209.086C80.5 211.329 82.3184 213.147 84.5614 213.147Z" fill="#0049E5"/>
<path d="M3.33301 71.8203C5.00821 71.8203 6.36622 70.4622 6.36622 68.7871C6.36622 67.1119 5.00821 65.7538 3.33301 65.7538C1.65782 65.7538 0.299805 67.1119 0.299805 68.7871C0.299805 70.4622 1.65782 71.8203 3.33301 71.8203Z" fill="#77F169"/>
<path d="M107.13 10.0764C109.913 10.0764 112.169 7.82074 112.169 5.03821C112.169 2.25568 109.913 0 107.13 0C104.348 0 102.092 2.25568 102.092 5.03821C102.092 7.82074 104.348 10.0764 107.13 10.0764Z" fill="#ECCEFF"/>
<path d="M72.994 33.1597C74.0445 33.1597 74.8962 32.3081 74.8962 31.2575C74.8962 30.207 74.0445 29.3553 72.994 29.3553C71.9434 29.3553 71.0918 30.207 71.0918 31.2575C71.0918 32.3081 71.9434 33.1597 72.994 33.1597Z" fill="#77F169"/>
<path d="M130.985 81.9995C132.263 81.9995 133.298 80.9637 133.298 79.686C133.298 78.4083 132.263 77.3726 130.985 77.3726C129.707 77.3726 128.671 78.4083 128.671 79.686C128.671 80.9637 129.707 81.9995 130.985 81.9995Z" fill="#ECCEFF"/>
<path d="M141.524 34.702C143.426 34.702 144.969 33.1598 144.969 31.2575C144.969 29.3551 143.426 27.813 141.524 27.813C139.622 27.813 138.08 29.3551 138.08 31.2575C138.08 33.1598 139.622 34.702 141.524 34.702Z" fill="#FAE058"/>
<path d="M162.294 52.2843C166.467 52.2843 169.851 48.9008 169.851 44.727C169.851 40.5532 166.467 37.1697 162.294 37.1697C158.12 37.1697 154.736 40.5532 154.736 44.727C154.736 48.9008 158.12 52.2843 162.294 52.2843Z" fill="#ECCEFF"/>
<path d="M104.355 63.3375C109.494 63.3375 113.66 59.1714 113.66 54.0323C113.66 48.8931 109.494 44.727 104.355 44.727C99.2154 44.727 95.0493 48.8931 95.0493 54.0323C95.0493 59.1714 99.2154 63.3375 104.355 63.3375Z" fill="#0049E5"/>
<path d="M147.488 202.66C150.81 202.66 153.503 199.967 153.503 196.645C153.503 193.323 150.81 190.63 147.488 190.63C144.166 190.63 141.473 193.323 141.473 196.645C141.473 199.967 144.166 202.66 147.488 202.66Z" fill="#ECCEFF"/>
<path d="M109.392 185.848C110.642 185.848 111.654 184.836 111.654 183.586C111.654 182.337 110.642 181.324 109.392 181.324C108.143 181.324 107.13 182.337 107.13 183.586C107.13 184.836 108.143 185.848 109.392 185.848Z" fill="#FAE058"/>
<path d="M119.315 246.975C122.467 246.975 125.021 244.42 125.021 241.269C125.021 238.117 122.467 235.562 119.315 235.562C116.163 235.562 113.608 238.117 113.608 241.269C113.608 244.42 116.163 246.975 119.315 246.975Z" fill="#ECCEFF"/>
<path d="M214.784 56.8598C219.696 56.8598 223.678 52.8778 223.678 47.9658C223.678 43.0538 219.696 39.0718 214.784 39.0718C209.872 39.0718 205.89 43.0538 205.89 47.9658C205.89 52.8778 209.872 56.8598 214.784 56.8598Z" fill="#77F169"/>
<path d="M248.406 127.138C249.286 127.138 250 126.424 250 125.544C250 124.664 249.286 123.95 248.406 123.95C247.526 123.95 246.812 124.664 246.812 125.544C246.812 126.424 247.526 127.138 248.406 127.138Z" fill="#FAE058"/>
<path d="M174.838 205.024C177.166 205.024 179.053 203.137 179.053 200.809C179.053 198.48 177.166 196.593 174.838 196.593C172.509 196.593 170.622 198.48 170.622 200.809C170.622 203.137 172.509 205.024 174.838 205.024Z" fill="#FAE058"/>
<path d="M155.096 59.5846L150.469 82.2051L145.74 104.774C142.552 119.837 139.365 134.849 136.075 149.861L126.152 194.897L123.685 206.155L121.268 217.414L116.487 239.983C116.436 240.138 116.333 240.24 116.179 240.189L109.136 238.647C108.981 238.595 108.878 238.441 108.93 238.287C112.117 223.224 115.253 208.16 118.441 193.149L123.222 170.579L128.106 148.01C131.345 132.999 134.635 117.935 137.925 102.923C141.216 87.9117 144.557 72.8998 147.95 57.888C147.95 57.8366 148.002 57.8366 148.002 57.8366C148.053 57.8366 148.053 57.888 148.053 57.888C144.969 72.9513 141.832 88.0145 138.696 103.078C135.509 118.141 132.373 133.153 129.134 148.216L124.302 170.785L119.418 193.303C116.179 208.315 112.837 223.326 109.547 238.338L109.341 237.978L116.333 239.572L116.025 239.778L120.96 217.26L123.428 206.001L125.844 194.742L135.303 149.604C138.491 134.541 141.781 119.529 145.071 104.517L150.058 81.9995L155.148 59.4817C155.148 59.4303 155.199 59.4303 155.199 59.4303C155.096 59.5332 155.096 59.5846 155.096 59.5846Z" fill="black"/>
<path d="M160.649 52.2843C160.649 54.2379 159.981 56.2943 158.593 57.8366C157.256 59.4303 155.097 60.3043 153.04 60.2529C152.012 60.2015 150.984 59.9445 150.058 59.5332C149.133 59.0705 148.311 58.4536 147.591 57.7338C146.203 56.2943 145.329 54.3407 145.226 52.2843C145.123 50.2279 145.894 48.1201 147.385 46.6292C148.105 45.858 148.979 45.2411 149.956 44.8298C150.932 44.4185 152.012 44.2129 153.04 44.2129C154.12 44.2129 155.148 44.4185 156.125 44.8812C157.102 45.2925 157.924 45.9608 158.644 46.732C159.981 48.2743 160.649 50.3307 160.649 52.2843ZM160.546 52.2843C160.546 51.3075 160.341 50.3307 159.878 49.4567C159.467 48.5828 158.85 47.8116 158.13 47.1947C156.69 45.9608 154.891 45.2925 153.04 45.2925C151.19 45.2925 149.39 46.0123 148.053 47.2975C146.717 48.5828 145.894 50.3821 145.791 52.2843C145.74 53.2097 145.894 54.1865 146.254 55.1119C146.614 56.0373 147.128 56.8598 147.848 57.5282C149.236 58.8648 151.189 59.5332 153.092 59.4304C154.942 59.3789 156.742 58.6592 158.181 57.4253C158.901 56.8084 159.518 56.0373 159.929 55.1633C160.341 54.2379 160.546 53.2611 160.546 52.2843Z" fill="black"/>
<path d="M165.687 153.717C164.505 155.208 163.476 156.802 162.602 158.498C162.191 159.321 161.78 160.195 161.471 161.12C161.163 161.994 160.906 162.919 160.752 163.845C160.443 165.695 160.495 167.598 161.112 169.346C161.729 171.094 162.962 172.584 164.402 173.716C165.841 174.898 167.538 175.772 169.286 176.44L170.622 176.954L171.959 177.417L174.684 178.291L180.133 180.09C181.933 180.707 183.732 181.324 185.531 181.993C187.331 182.661 189.13 183.329 190.93 184.049C192.729 184.769 194.477 185.591 196.173 186.414C197.87 187.288 199.567 188.162 201.212 189.19C202.857 190.218 204.399 191.298 205.89 192.532C207.329 193.817 208.718 195.154 209.849 196.747C210.98 198.29 211.905 200.038 212.471 201.888C213.036 203.739 213.242 205.693 213.19 207.595C213.139 209.549 212.728 211.399 212.213 213.25L211.956 213.044C212.933 212.479 213.91 211.811 214.784 211.039C215.658 210.32 216.481 209.497 217.252 208.623C218.794 206.927 220.131 205.024 221.262 202.968C221.519 202.454 221.827 201.94 222.033 201.426C222.29 200.912 222.547 200.397 222.753 199.832L223.37 198.238C223.575 197.673 223.781 197.159 224.038 196.593C224.963 194.434 226.043 192.326 227.174 190.321C228.356 188.265 229.59 186.311 230.927 184.357C232.263 182.455 233.703 180.553 235.194 178.754C235.965 177.88 236.736 176.954 237.559 176.132C238.381 175.258 239.204 174.435 240.129 173.664C241.003 172.893 241.98 172.173 243.008 171.505C244.036 170.888 245.167 170.322 246.453 170.168L245.99 170.579C246.35 168.369 246.401 166.055 246.299 163.845C246.196 161.583 245.887 159.321 245.373 157.11C244.345 152.689 242.546 148.422 239.924 144.72C238.638 142.869 237.147 141.07 235.554 139.476C235.348 139.271 235.142 139.065 234.937 138.859L234.32 138.294C233.909 137.934 233.497 137.523 233.035 137.163C232.109 136.443 231.235 135.723 230.31 135.106C226.557 132.484 222.444 130.377 218.126 128.783C218.074 128.783 218.074 128.731 218.074 128.731C218.074 128.68 218.126 128.68 218.126 128.68C222.496 130.12 226.763 132.073 230.567 134.644C231.544 135.261 232.469 135.98 233.395 136.7C233.857 137.06 234.268 137.471 234.731 137.831L235.4 138.397C235.605 138.602 235.811 138.808 236.016 139.014C237.713 140.607 239.255 142.407 240.592 144.257C243.317 148.01 245.27 152.38 246.35 156.904C246.864 159.166 247.224 161.48 247.327 163.845C247.43 166.158 247.378 168.523 247.018 170.837C246.967 171.042 246.813 171.248 246.607 171.248H246.556C245.527 171.402 244.499 171.865 243.574 172.43C242.597 172.996 241.723 173.716 240.849 174.435C239.101 175.926 237.507 177.623 236.016 179.371C232.983 182.867 230.31 186.671 227.945 190.681C226.763 192.686 225.683 194.742 224.758 196.85C224.501 197.364 224.295 197.93 224.089 198.444L223.421 200.089C223.215 200.655 222.907 201.169 222.65 201.683C222.393 202.197 222.084 202.711 221.827 203.225C220.645 205.281 219.257 207.184 217.663 208.88C216.84 209.754 216.018 210.525 215.092 211.296C214.167 212.016 213.242 212.736 212.162 213.301C212.059 213.353 211.956 213.301 211.905 213.199C211.905 213.147 211.854 213.096 211.905 213.044C212.419 211.245 212.83 209.343 212.933 207.441C212.985 205.539 212.83 203.636 212.265 201.837C211.699 200.038 210.774 198.341 209.643 196.85C208.512 195.359 207.175 193.971 205.684 192.789C204.193 191.606 202.6 190.527 201.006 189.601C199.361 188.625 197.664 187.802 195.968 186.979C194.22 186.208 192.472 185.437 190.724 184.769C188.976 184.049 187.177 183.432 185.377 182.764C183.578 182.147 181.779 181.53 179.979 180.913L174.53 179.114L171.805 178.188L170.468 177.726L169.132 177.211C167.332 176.492 165.584 175.566 164.093 174.281C162.602 173.047 161.317 171.402 160.7 169.5C160.032 167.649 160.032 165.593 160.443 163.69C160.855 161.788 161.574 159.989 162.5 158.292C163.425 156.596 164.556 155.054 165.79 153.614H165.841C165.687 153.665 165.687 153.665 165.687 153.717Z" fill="black"/>
<path d="M136.434 146.005C139.159 145.697 141.935 145.903 144.609 146.314C147.333 146.725 150.007 147.291 152.629 148.113C155.251 148.936 157.77 149.964 160.289 150.992C162.808 152.072 165.276 153.151 167.692 154.539C168.874 155.208 170.057 155.979 171.136 156.853C172.216 157.727 173.193 158.755 173.964 159.938C174.735 161.12 175.249 162.611 175.095 164.102C175.044 164.873 174.838 165.593 174.478 166.261C174.118 166.929 173.398 167.546 172.627 167.803C171.856 168.06 171.085 168.009 170.365 167.906C169.646 167.803 168.977 167.598 168.309 167.392C166.972 166.981 165.738 166.415 164.453 166.004C163.836 165.798 163.168 165.644 162.551 165.644C162.242 165.644 161.985 165.695 161.728 165.85C161.471 166.004 161.317 166.21 161.214 166.467C161.009 167.032 160.957 167.7 161.009 168.369C161.06 169.037 161.163 169.705 161.266 170.374C161.266 170.425 161.266 170.425 161.214 170.425C161.163 170.425 161.163 170.425 161.163 170.374C160.957 169.705 160.803 169.037 160.7 168.369C160.597 167.7 160.546 166.981 160.752 166.261C160.854 165.901 161.06 165.541 161.42 165.284C161.78 165.027 162.191 164.976 162.551 164.924C163.322 164.873 163.99 165.027 164.659 165.181C165.995 165.541 167.281 166.004 168.566 166.364C169.183 166.518 169.851 166.724 170.468 166.775C171.085 166.878 171.702 166.827 172.267 166.672C172.782 166.518 173.193 166.158 173.501 165.644C173.758 165.13 173.964 164.513 174.015 163.896C174.17 162.662 173.758 161.428 173.09 160.349C172.422 159.269 171.548 158.241 170.52 157.367C169.543 156.493 168.463 155.67 167.332 154.899C165.07 153.408 162.654 152.175 160.135 151.198C157.616 150.221 154.994 149.501 152.372 148.833C149.75 148.165 147.128 147.496 144.454 146.982C141.781 146.468 139.108 146.057 136.434 146.005C136.434 146.108 136.383 146.057 136.434 146.005C136.434 146.005 136.383 146.005 136.434 146.005Z" fill="black"/>
<path d="M154.685 61.2297C156.793 61.4868 158.901 61.7952 161.008 62.1551C163.116 62.515 165.173 62.9263 167.28 63.3376C171.445 64.2115 175.609 65.1883 179.67 66.4222C183.783 67.6046 187.845 68.8899 191.803 70.3808C195.762 71.9231 199.72 73.5168 203.525 75.419C207.329 77.3212 211.082 79.3776 214.629 81.7425C216.429 82.9249 218.177 84.1073 219.873 85.3926C221.57 86.6779 223.215 88.0145 224.809 89.4026C227.996 92.2302 230.926 95.3662 233.446 98.7593C236.016 102.204 238.073 106.008 239.563 110.018C239.615 110.172 239.563 110.327 239.461 110.429L223.061 124.31L206.609 138.14L190.158 151.969C187.433 154.282 184.657 156.596 181.932 158.909C180.596 160.092 179.208 161.223 177.871 162.405L175.866 164.205C175.198 164.822 174.581 165.438 173.912 166.055H173.861V166.004C174.478 165.387 175.095 164.719 175.763 164.102L177.717 162.251C179.002 161.017 180.339 159.835 181.675 158.601C184.349 156.185 187.022 153.82 189.695 151.455L197.818 144.412L201.88 140.916L205.992 137.42C211.442 132.793 216.943 128.166 222.444 123.59L230.721 116.753L239.049 109.915L238.946 110.327C237.558 106.368 235.605 102.564 233.189 99.1192C230.772 95.6232 227.842 92.5386 224.706 89.7111C221.518 86.9349 218.074 84.4158 214.475 82.1537C210.876 79.9431 207.123 77.9381 203.268 76.1901C199.412 74.4422 195.505 72.7456 191.546 71.3062C187.588 69.8153 183.578 68.4786 179.516 67.2447C171.393 64.8285 163.116 62.8235 154.736 61.384C154.685 61.384 154.685 61.3326 154.685 61.3326C154.634 61.2297 154.685 61.2297 154.685 61.2297Z" fill="black"/>
<path d="M150.264 81.9481C153.914 82.2566 157.513 82.8735 161.06 83.6447C164.607 84.4158 168.155 85.2898 171.65 86.3694C175.146 87.5004 178.539 88.7857 181.933 90.1224C185.326 91.459 188.719 92.7957 192.009 94.2866C198.641 97.2684 205.016 101.021 210.722 105.648C213.55 108.013 216.172 110.584 218.537 113.36C220.85 116.187 222.907 119.221 224.603 122.459V122.511H224.552C222.598 119.426 220.387 116.547 217.971 113.874L216.12 111.92C215.812 111.612 215.503 111.252 215.144 110.995L214.167 110.07L213.19 109.144L212.162 108.27C211.493 107.705 210.825 107.088 210.105 106.522L207.998 104.826C207.278 104.26 206.558 103.746 205.838 103.232C205.478 102.975 205.119 102.718 204.759 102.461L203.628 101.69C202.857 101.176 202.137 100.661 201.366 100.199C198.332 98.2452 195.145 96.4972 191.906 94.8521C188.667 93.207 185.326 91.7161 181.933 90.4822C178.539 89.2484 175.044 88.2202 171.548 87.2434C164.556 85.2898 157.513 83.4904 150.367 82.1023C150.315 82.1023 150.315 82.0509 150.315 82.0509C150.212 81.9481 150.212 81.9481 150.264 81.9481Z" fill="black"/>
<path d="M145.894 102.204C148.978 102.564 152.012 103.181 154.993 103.849C158.027 104.517 161.008 105.288 163.939 106.214C165.43 106.676 166.869 107.191 168.309 107.705L172.678 109.298C175.557 110.378 178.488 111.355 181.367 112.486C187.125 114.696 192.729 117.421 197.921 120.866C200.491 122.665 202.908 124.619 205.067 126.829C207.226 129.091 209.128 131.61 210.414 134.438C210.414 134.489 210.414 134.489 210.414 134.489H210.362C208.769 131.867 206.764 129.503 204.553 127.446C202.342 125.39 199.875 123.488 197.355 121.791C194.836 120.095 192.163 118.552 189.49 117.061C186.765 115.622 184.04 114.285 181.213 113C178.436 111.715 175.557 110.584 172.627 109.607C169.697 108.63 166.715 107.859 163.733 107.036C157.821 105.391 151.857 103.797 145.894 102.307C145.842 102.307 145.842 102.255 145.842 102.255C145.842 102.204 145.842 102.204 145.894 102.204Z" fill="black"/>
<path d="M141.524 122.459C143.992 122.716 146.459 123.128 148.927 123.59C151.395 124.105 153.811 124.721 156.176 125.441C158.541 126.212 160.906 127.086 163.219 127.96C165.584 128.834 167.898 129.657 170.211 130.582C172.524 131.508 174.838 132.484 177.049 133.718C179.259 134.901 181.418 136.237 183.372 137.78C185.326 139.373 187.176 141.121 188.719 143.126C190.261 145.131 191.443 147.393 192.06 149.861C192.06 149.913 192.06 149.913 192.009 149.913C192.009 149.913 191.958 149.913 191.958 149.861C191.032 147.548 189.695 145.44 188.05 143.64C186.457 141.79 184.606 140.145 182.652 138.654C180.699 137.163 178.642 135.826 176.483 134.541C174.375 133.307 172.165 132.176 169.903 131.096C167.692 130.017 165.378 129.04 163.014 128.269C160.649 127.498 158.232 126.881 155.816 126.264L148.619 124.362C146.202 123.745 143.786 123.128 141.37 122.511C141.318 122.511 141.318 122.459 141.318 122.459C141.473 122.459 141.524 122.459 141.524 122.459Z" fill="black"/>
<path d="M148.465 147.445C150.264 140.504 152.32 133.615 154.634 126.778C155.816 123.385 157.05 119.992 158.181 116.599C159.312 113.206 160.392 109.761 161.42 106.317C163.476 99.4276 165.687 92.59 168.001 85.8039C169.183 82.4108 170.417 79.0177 171.702 75.676L172.679 73.1569C172.987 72.3344 173.347 71.5118 173.707 70.6892C174.067 69.8667 174.427 69.0441 174.787 68.2215L176.021 65.8053C176.021 65.8053 176.072 65.7538 176.072 65.8053C176.072 65.8053 176.123 65.8567 176.072 65.8567L175.044 68.3244L174.118 70.8435C173.501 72.54 172.987 74.2366 172.37 75.9331L168.926 86.1638L165.43 96.343C164.299 99.7361 163.065 103.129 161.883 106.522C160.7 109.915 159.518 113.308 158.438 116.753C157.924 118.449 157.41 120.197 156.896 121.894L155.405 127.086C153.297 133.975 151.035 140.762 148.567 147.496C148.567 147.548 148.516 147.548 148.516 147.548C148.465 147.496 148.413 147.496 148.465 147.445Z" fill="black"/>
<path d="M200.286 74.3394C197.356 80.9199 194.168 87.3976 190.878 93.8239L188.307 98.605C187.433 100.199 186.611 101.792 185.788 103.386C184.143 106.574 182.601 109.864 181.059 113.103C179.516 116.393 178.025 119.632 176.432 122.871C174.889 126.11 173.347 129.348 171.753 132.587L166.972 142.252C166.201 143.898 165.327 145.491 164.607 147.085L163.425 149.501L162.294 151.969C162.294 152.02 162.242 152.02 162.242 151.969L162.191 151.918L163.116 149.347L164.145 146.828C164.813 145.131 165.533 143.486 166.304 141.841C167.795 138.551 169.286 135.261 170.828 132.022C172.37 128.783 174.015 125.544 175.609 122.357C177.254 119.118 178.899 115.93 180.596 112.743C182.292 109.555 183.937 106.368 185.531 103.129C187.125 99.8903 188.564 96.6 190.158 93.3612C193.294 86.8835 196.687 80.5086 200.235 74.2365C200.235 74.2365 200.286 74.1851 200.286 74.2365C200.337 74.2879 200.337 74.2879 200.286 74.3394Z" fill="black"/>
<path d="M172.782 159.115C176.586 152.946 180.648 146.931 184.863 141.019C186.971 138.088 189.182 135.209 191.341 132.279C193.449 129.348 195.505 126.315 197.51 123.333C201.52 117.318 205.736 111.355 210.003 105.494C212.162 102.564 214.373 99.6847 216.635 96.8571L218.331 94.7493L219.205 93.7211L220.079 92.6928L221.879 90.6364L223.832 88.7343H223.884V88.7857L222.136 90.8421L220.491 93.0013C219.359 94.3894 218.331 95.9317 217.252 97.3712C216.172 98.8107 215.144 100.302 214.064 101.741L210.877 106.162L204.451 114.902C202.343 117.832 200.132 120.711 197.973 123.642C195.814 126.521 193.654 129.503 191.598 132.484C190.57 133.975 189.593 135.518 188.565 137.009L185.583 141.533C181.521 147.548 177.254 153.408 172.885 159.218C172.885 159.218 172.833 159.269 172.833 159.218C172.782 159.166 172.782 159.166 172.782 159.115Z" fill="black"/>
<path d="M223.884 131.148C222.033 133.307 220.131 135.415 218.177 137.471C216.223 139.528 214.27 141.584 212.265 143.538C210.208 145.491 208.152 147.393 206.147 149.398C204.142 151.403 202.188 153.46 200.286 155.516C198.384 157.573 196.43 159.681 194.477 161.686C192.523 163.742 190.57 165.747 188.565 167.752C186.56 169.757 184.503 171.711 182.447 173.664C180.339 175.566 178.334 177.52 176.072 179.268H176.021V179.216C178.026 177.211 179.928 175.155 181.881 173.099C183.835 171.042 185.788 169.037 187.793 167.032C189.798 165.027 191.803 163.022 193.808 161.069C195.813 159.064 197.87 157.11 199.926 155.156C201.983 153.203 203.988 151.249 205.941 149.193C207.895 147.136 209.746 145.029 211.699 142.972C213.653 140.916 215.658 138.911 217.663 136.957C219.668 135.004 221.724 133.05 223.832 131.148H223.884C223.935 131.096 223.935 131.148 223.884 131.148Z" fill="black"/>
<path d="M239.358 143.178C237.61 145.029 235.811 146.828 233.96 148.627C232.109 150.427 230.31 152.175 228.407 153.871C226.505 155.568 224.552 157.213 222.701 158.961C220.85 160.709 219.051 162.508 217.303 164.359L206.815 175.463C205.067 177.314 203.319 179.165 201.623 181.067C200.8 181.993 199.926 182.969 199.155 183.946C198.384 184.923 197.561 185.951 197.047 187.082C197.047 187.134 196.996 187.134 196.996 187.134L196.944 187.082C197.304 185.848 198.024 184.717 198.692 183.638C199.052 183.124 199.412 182.558 199.823 182.044C200.183 181.53 200.594 181.016 201.006 180.502C202.599 178.497 204.296 176.594 205.993 174.692C207.741 172.79 209.54 170.991 211.339 169.191C213.139 167.392 214.989 165.644 216.892 163.896C218.794 162.148 220.645 160.452 222.444 158.652C224.243 156.853 225.991 155.002 227.791 153.151C229.59 151.352 231.492 149.604 233.394 147.908C235.296 146.211 237.25 144.566 239.255 142.972H239.306C239.358 143.178 239.358 143.178 239.358 143.178Z" fill="black"/>
<path d="M239.255 175.104C239.358 173.973 239.358 172.842 239.255 171.762C239.152 170.631 238.998 169.551 238.792 168.472C238.33 166.312 237.61 164.205 236.685 162.2C235.811 160.195 234.68 158.19 233.292 156.442C231.903 154.694 230.258 153.1 228.562 151.712C225.015 148.936 221.21 146.571 217.252 144.566C213.293 142.509 209.129 140.762 204.964 139.014C204.913 139.014 204.913 138.962 204.913 138.962L204.964 138.911C209.334 139.99 213.653 141.584 217.714 143.589C218.742 144.103 219.719 144.669 220.696 145.183C221.673 145.8 222.65 146.365 223.575 147.034C224.5 147.702 225.426 148.319 226.351 149.039C227.277 149.707 228.099 150.53 228.922 151.249C230.567 152.843 232.109 154.488 233.549 156.185C234.988 157.933 236.376 159.783 237.404 161.788C238.433 163.845 239.152 166.055 239.512 168.317C239.872 170.58 239.872 172.893 239.307 175.104C239.307 175.155 239.255 175.155 239.255 175.155V175.104Z" fill="black"/>
<path d="M185.942 155.105C188.359 154.539 190.929 154.282 193.397 154.282C195.916 154.282 198.435 154.539 200.903 155.105C203.37 155.67 205.735 156.544 208.049 157.521C210.362 158.498 212.573 159.629 214.732 161.017C215.246 161.377 215.812 161.686 216.326 162.045C216.84 162.405 217.354 162.817 217.817 163.176C218.742 163.999 219.719 164.822 220.593 165.747C221.518 166.621 222.289 167.649 223.061 168.626C223.472 169.14 223.78 169.654 224.14 170.168L224.706 170.939C224.86 171.196 225.014 171.453 225.22 171.762C227.842 176.08 229.538 180.913 230.464 185.797C230.464 185.848 230.464 185.848 230.412 185.848C230.361 185.848 230.361 185.848 230.361 185.797C228.818 181.067 226.865 176.492 224.243 172.276C224.089 172.019 223.935 171.762 223.78 171.505L223.266 170.734C222.906 170.22 222.598 169.706 222.238 169.243C221.467 168.266 220.747 167.289 219.873 166.415C219.051 165.49 218.177 164.667 217.303 163.793C216.84 163.382 216.377 162.971 215.915 162.559C215.452 162.148 214.938 161.788 214.475 161.428C212.47 159.938 210.311 158.704 207.997 157.778C205.684 156.853 203.268 156.287 200.8 155.876C195.916 155.002 190.98 154.745 185.994 155.156C185.942 155.156 185.942 155.156 185.942 155.105C185.891 155.156 185.942 155.105 185.942 155.105Z" fill="black"/>
<path d="M176.843 163.176C179.619 163.074 182.447 163.279 185.223 163.742C187.999 164.205 190.724 164.822 193.346 165.798C195.968 166.775 198.538 167.958 200.955 169.294C203.422 170.631 205.787 172.122 207.998 173.818C210.209 175.515 212.265 177.468 214.013 179.731C215.709 181.993 217.2 184.409 218.331 186.979C220.542 192.172 221.467 197.827 221.365 203.431C221.365 203.482 221.365 203.482 221.313 203.482C221.262 203.482 221.262 203.482 221.262 203.431C220.748 197.878 219.565 192.429 217.355 187.442C216.224 184.923 214.887 182.558 213.242 180.347C211.597 178.137 209.694 176.132 207.638 174.281C205.582 172.43 203.268 170.837 200.8 169.603C198.333 168.369 195.711 167.392 193.089 166.621C187.845 164.976 182.396 163.845 176.843 163.331C176.792 163.279 176.792 163.228 176.843 163.176C176.792 163.176 176.792 163.176 176.843 163.176Z" fill="black"/>
<path d="M168.463 85.9067L161.78 106.008L145.894 102.255L150.213 81.9995L168.463 85.9067Z" fill="black"/>
<path d="M155.405 125.647L148.516 147.445C148.516 147.445 139.313 145.491 136.486 146.005L141.575 122.459L155.405 125.647Z" fill="black"/>
<path d="M181.059 112.589L171.702 131.559L155.405 125.647L161.78 106.008L181.059 112.589Z" fill="black"/>
<path d="M190.724 93.2069L200.286 74.2879C200.286 74.2879 180.236 65.7024 176.072 65.7538L168.514 85.8553C168.463 85.9067 179.208 89.3512 190.724 93.2069Z" fill="black"/>
<path d="M210.362 106.059L198.744 122.048L181.059 112.589L190.724 93.2069L210.362 106.059Z" fill="black"/>
<path d="M185.737 140.504L172.782 159.166C172.782 159.166 166.356 153.666 162.243 152.02L171.702 131.559C171.702 131.559 182.601 137.06 185.737 140.504Z" fill="black"/>
<path d="M239.306 110.172L224.5 122.511C224.5 122.511 216.532 110.121 210.311 106.06L223.832 88.7343C223.883 88.7343 236.068 98.605 239.306 110.172Z" fill="black"/>
<path d="M210.362 134.387C210.362 134.387 204.656 125.184 198.744 122.048L185.737 140.504C185.737 140.504 190.878 146.005 192.06 149.913L210.362 134.387Z" fill="black"/>
<path d="M165.584 153.768C165.584 153.768 160.135 160.195 160.289 165.953C160.289 165.953 161.523 164.77 163.682 165.387C165.841 166.004 172.679 168.574 174.015 165.953C175.352 163.331 175.146 157.984 165.584 153.768Z" fill="black"/>
<path d="M185.943 155.156C185.943 155.156 195.813 153.614 199.926 155.465L190.21 165.284C190.21 165.284 179.825 163.125 176.792 163.228L185.943 155.156Z" fill="black"/>
<path d="M204.964 138.911L213.19 141.995L223.883 131.096L217.56 128.32L204.964 138.911Z" fill="black"/>
<path d="M229.59 152.175L217.714 163.639C217.714 163.639 209.848 156.236 199.978 155.465L213.19 141.995C213.19 141.995 226.351 147.599 229.59 152.175Z" fill="black"/>
<path d="M207.638 173.818C207.638 173.818 198.075 183.278 196.996 187.134C196.996 187.134 181.675 180.296 176.843 179.473L190.261 165.284C190.261 165.284 204.347 169.603 207.638 173.818Z" fill="black"/>
<path d="M230.412 185.848C230.412 185.848 225.323 194.434 223.883 197.878C222.444 201.323 221.313 203.379 221.313 203.379C221.313 203.379 221.261 183.329 207.638 173.818L217.714 163.639C217.714 163.639 227.996 174.127 230.412 185.848Z" fill="black"/>
<path d="M229.59 152.175L239.306 143.178C239.306 143.178 248.663 154.591 246.504 170.734C246.504 170.734 242.597 171.813 239.563 174.898C239.563 174.898 242.648 163.176 229.59 152.175Z" fill="black"/>
<path d="M128.62 148.01C126.666 140.607 124.918 133.101 123.427 125.595C122.708 121.843 122.039 118.038 121.268 114.285C120.497 110.532 119.623 106.779 118.749 103.078C117.824 99.3248 116.95 95.6232 116.127 91.8703C115.305 88.1173 114.431 84.3644 113.659 80.6114C112.117 73.1055 110.575 65.5996 109.29 57.9909C109.29 57.9395 109.29 57.9395 109.341 57.9395C109.392 57.9395 109.392 57.9395 109.392 57.9909C111.346 65.4454 113.043 72.8999 114.739 80.4058C115.562 84.1587 116.333 87.9117 117.104 91.6646C117.875 95.4176 118.595 99.1705 119.315 102.975C120.034 106.728 120.805 110.481 121.628 114.234C122.451 117.987 123.427 121.688 124.301 125.441C125.998 132.947 127.489 140.453 128.774 148.01C128.774 148.062 128.774 148.062 128.723 148.062C128.671 148.062 128.62 148.062 128.62 148.01Z" fill="black"/>
<path d="M128.723 182.147C129.34 184.563 129.905 186.928 130.471 189.344L132.116 196.542C133.196 201.374 134.275 206.155 135.303 210.988C135.818 213.404 136.332 215.821 136.794 218.237L138.234 225.486C138.696 227.902 139.159 230.318 139.673 232.735C140.187 235.151 140.65 237.567 141.216 239.983L141.01 239.881C143.323 239.367 145.688 238.852 148.002 238.287L147.848 238.544L145.74 229.444L143.683 220.293L141.678 211.142L140.65 206.567L139.673 201.991L137.72 192.84L135.869 183.689C134.635 177.571 133.453 171.453 132.27 165.336C132.27 165.284 132.27 165.284 132.322 165.284C132.373 165.284 132.373 165.284 132.373 165.336C133.864 171.402 135.303 177.468 136.64 183.535L138.696 192.686L140.701 201.837L141.678 206.413L142.655 210.988L144.557 220.139L146.408 229.29L148.259 238.493C148.259 238.595 148.207 238.75 148.105 238.75C145.74 239.212 143.426 239.726 141.061 240.241C140.959 240.241 140.907 240.189 140.856 240.138C140.342 237.721 139.828 235.305 139.262 232.889C138.748 230.473 138.182 228.056 137.617 225.691L135.92 218.494C135.355 216.078 134.841 213.661 134.327 211.296C133.298 206.464 132.27 201.631 131.293 196.799L129.854 189.55C129.391 187.134 128.929 184.717 128.466 182.301C128.466 182.25 128.466 182.25 128.517 182.25C128.671 182.095 128.723 182.147 128.723 182.147Z" fill="black"/>
<path d="M102.349 59.5846C104.56 68.3243 106.565 77.0641 108.416 85.9066C109.29 90.3279 110.112 94.7492 110.986 99.1705C111.912 103.592 112.888 107.962 113.917 112.332C114.945 116.701 115.973 121.071 116.95 125.493C117.927 129.862 118.903 134.284 119.88 138.654C121.731 147.445 123.479 156.287 125.073 165.181C125.073 165.233 125.073 165.233 125.021 165.233C124.97 165.233 124.97 165.233 124.97 165.181C122.759 156.442 120.754 147.65 118.801 138.911C117.824 134.489 116.95 130.12 116.024 125.698C115.099 121.277 114.225 116.856 113.402 112.434C112.529 108.013 111.655 103.592 110.678 99.2219C109.701 94.852 108.621 90.4822 107.593 86.0609C105.64 77.2697 103.84 68.4785 102.298 59.5846C102.298 59.5331 102.298 59.5331 102.349 59.5331C102.298 59.5331 102.349 59.5331 102.349 59.5846Z" fill="black"/>
<path d="M96.7967 52.2843C96.7967 53.2611 97.0023 54.2379 97.465 55.1119C97.8763 55.9859 98.4932 56.757 99.213 57.3739C100.652 58.6078 102.452 59.3275 104.303 59.3789C106.153 59.4818 108.107 58.8134 109.546 57.4768C110.215 56.8084 110.78 55.9859 111.14 55.0605C111.5 54.1865 111.603 53.2097 111.603 52.2329C111.5 50.3307 110.677 48.5314 109.341 47.2461C108.004 45.9608 106.153 45.2411 104.354 45.2411C102.503 45.2411 100.704 45.9094 99.2644 47.1433C98.5446 47.7602 97.9277 48.5314 97.5164 49.4053C97.0023 50.3307 96.7967 51.3075 96.7967 52.2843ZM96.6938 52.2843C96.6938 50.2793 97.3622 48.2743 98.6988 46.732C99.3672 45.9608 100.241 45.2925 101.218 44.8812C102.195 44.4185 103.223 44.2129 104.303 44.2129C105.382 44.2129 106.41 44.4185 107.387 44.8298C108.364 45.2411 109.238 45.858 109.958 46.6292C111.449 48.1201 112.22 50.2793 112.117 52.2843C112.014 54.3407 111.14 56.2943 109.752 57.7338C109.032 58.4536 108.21 59.0705 107.284 59.5332C106.359 59.9959 105.331 60.2529 104.303 60.2529C102.195 60.3043 100.087 59.4303 98.7503 57.8366C97.3622 56.2943 96.6938 54.2893 96.6938 52.2843Z" fill="black"/>
<path d="M91.7586 153.614C93.0439 155.054 94.1235 156.647 95.0489 158.292C95.9743 159.989 96.7454 161.788 97.1053 163.69C97.4652 165.593 97.4652 167.598 96.8483 169.5C96.2313 171.402 94.9461 172.996 93.4552 174.281C91.9643 175.515 90.2163 176.44 88.417 177.211L87.0803 177.726L85.7436 178.188L83.0189 179.114L77.5694 180.913C75.77 181.53 73.9707 182.095 72.1713 182.764C70.3719 183.381 68.5726 184.049 66.8246 184.769C65.0253 185.437 63.2773 186.208 61.5808 186.979C59.8842 187.802 58.1363 188.625 56.5426 189.601C54.8974 190.578 53.3037 191.606 51.8642 192.789C50.3733 193.971 49.0367 195.359 47.9056 196.85C46.7746 198.341 45.8492 200.038 45.2837 201.837C44.7182 203.636 44.5126 205.539 44.6154 207.441C44.6668 209.343 45.1295 211.194 45.6436 213.044C45.695 213.147 45.5922 213.25 45.4893 213.301C45.4379 213.301 45.3865 213.301 45.3351 213.301C44.2555 212.736 43.3301 212.068 42.4047 211.296C41.4793 210.577 40.6568 209.754 39.8342 208.88C38.2405 207.184 36.801 205.23 35.67 203.225C35.3615 202.711 35.0531 202.197 34.8474 201.683C34.5904 201.169 34.2819 200.655 34.0763 200.089L33.4079 198.444C33.2023 197.93 32.9966 197.364 32.7396 196.85C31.8142 194.742 30.7346 192.686 29.5522 190.681C27.1873 186.671 24.5139 182.867 21.4807 179.371C19.9898 177.623 18.3961 175.926 16.6482 174.435C15.7742 173.716 14.8488 172.996 13.9234 172.43C12.9466 171.865 11.9184 171.351 10.9416 171.248H10.8902C10.6846 171.196 10.4789 171.042 10.4275 170.837C10.0676 168.472 10.0162 166.158 10.119 163.845C10.2219 161.531 10.5817 159.218 11.0958 156.904C12.1755 152.38 14.1291 148.01 16.8538 144.257C18.2419 142.355 19.7328 140.556 21.4293 139.014C21.635 138.808 21.8406 138.602 22.0462 138.397L22.7146 137.831C23.1773 137.471 23.5886 137.06 24.0512 136.7C24.9766 136.032 25.902 135.261 26.8788 134.644C30.7346 132.073 35.0016 130.12 39.3201 128.68C39.3715 128.68 39.3715 128.68 39.3715 128.731C39.3715 128.783 39.3715 128.783 39.3201 128.783C35.0016 130.377 30.8888 132.484 27.1359 135.106C26.1591 135.723 25.2851 136.494 24.4111 137.163C23.9484 137.523 23.5371 137.934 23.1259 138.294L22.5089 138.859C22.3033 139.065 22.0977 139.271 21.892 139.476C20.2469 141.07 18.8074 142.818 17.5221 144.72C14.9002 148.422 13.1008 152.689 12.0726 157.11C11.5585 159.321 11.2501 161.583 11.1473 163.845C11.0444 166.107 11.0958 168.42 11.4557 170.579L10.993 170.168C12.2783 170.322 13.4093 170.888 14.4375 171.505C15.4657 172.122 16.3911 172.842 17.3165 173.664C18.1905 174.435 19.0644 175.258 19.887 176.132C20.7096 176.954 21.4807 177.88 22.2519 178.754C23.7942 180.553 25.1823 182.404 26.5189 184.357C27.8556 186.26 29.1409 188.265 30.2719 190.321C31.4543 192.377 32.4825 194.434 33.4079 196.593C33.665 197.107 33.8706 197.673 34.0763 198.238L34.6932 199.832C34.8988 200.397 35.1559 200.86 35.4129 201.426C35.67 201.94 35.927 202.454 36.1841 202.968C37.3151 204.973 38.6004 206.875 40.1941 208.623C40.9652 209.497 41.7878 210.268 42.6618 211.039C43.5358 211.759 44.4611 212.479 45.4893 213.044L45.2323 213.25C44.7182 211.399 44.3069 209.497 44.2555 207.595C44.2041 205.693 44.4097 203.739 44.9752 201.888C45.5408 200.038 46.4661 198.29 47.5972 196.747C48.7282 195.205 50.1163 193.817 51.5558 192.532C53.0467 191.298 54.589 190.167 56.2341 189.19C57.8792 188.162 59.5758 187.288 61.2723 186.414C63.0203 185.591 64.7682 184.769 66.5162 184.049C68.3155 183.329 70.0635 182.661 71.9143 181.993C73.7136 181.324 75.513 180.707 77.3123 180.09L82.7618 178.291L85.4866 177.417L86.8232 176.954L88.1599 176.44C89.9079 175.721 91.6044 174.847 93.0439 173.716C94.4834 172.533 95.7172 171.094 96.3342 169.346C97.0025 167.598 97.0539 165.695 96.694 163.845C96.5398 162.919 96.2828 161.994 95.9743 161.12C95.6658 160.246 95.2545 159.372 94.8433 158.498C93.9693 156.802 92.9411 155.208 91.7586 153.717V153.665C91.7072 153.614 91.7072 153.614 91.7586 153.614Z" fill="black"/>
<path d="M120.908 146.108C118.183 146.16 115.51 146.571 112.888 147.085C110.215 147.599 107.593 148.267 104.971 148.936C102.349 149.604 99.7271 150.324 97.208 151.301C94.6889 152.277 92.2212 153.511 90.0106 155.002C88.8796 155.722 87.7999 156.596 86.8231 157.47C85.8463 158.344 84.921 159.372 84.2526 160.452C83.5843 161.531 83.2244 162.817 83.3272 163.999C83.3786 164.616 83.5843 165.233 83.8413 165.747C84.0984 166.261 84.5097 166.621 85.0752 166.775C85.5893 166.929 86.2062 166.981 86.8745 166.878C87.4915 166.775 88.1598 166.621 88.7767 166.467C90.062 166.107 91.3472 165.644 92.6839 165.284C93.3523 165.13 94.072 164.976 94.7917 165.027C95.1516 165.027 95.5629 165.13 95.9228 165.387C96.2826 165.644 96.4883 166.004 96.5911 166.364C96.7967 167.084 96.7453 167.803 96.6425 168.472C96.5397 169.14 96.3855 169.808 96.1798 170.477C96.1798 170.528 96.1284 170.528 96.1284 170.528L96.077 170.477C96.1798 169.808 96.2826 169.14 96.334 168.472C96.3855 167.803 96.3341 167.135 96.1284 166.569C96.0256 166.312 95.8199 166.055 95.6143 165.953C95.3573 165.798 95.1002 165.747 94.7917 165.747C94.1748 165.747 93.5579 165.953 92.8896 166.107C91.6043 166.518 90.3705 167.032 89.0338 167.495C88.3654 167.701 87.6971 167.906 86.9774 168.009C86.2576 168.112 85.4865 168.163 84.7153 167.906C83.9442 167.701 83.2244 167.084 82.8645 166.364C82.5047 165.644 82.299 164.924 82.2476 164.205C82.1448 162.714 82.6075 161.223 83.3786 160.04C84.1498 158.807 85.178 157.83 86.2062 156.956C87.2858 156.082 88.4169 155.311 89.6507 154.642C92.0156 153.306 94.5347 152.175 97.0538 151.095C99.5729 150.015 102.092 149.039 104.714 148.216C107.336 147.393 110.009 146.828 112.734 146.417C115.459 146.005 118.183 145.8 120.908 146.108C120.908 146.005 120.96 146.005 120.908 146.108C120.908 146.108 120.96 146.057 120.908 146.108Z" fill="black"/>
<path d="M102.658 61.3325C94.2779 62.772 86.0008 64.777 77.878 67.1933C73.8166 68.3757 69.8066 69.7638 65.848 71.2547C61.8894 72.6942 57.9822 74.3907 54.1264 76.1387C50.2706 77.9381 46.5177 79.8916 42.919 82.1023C39.3202 84.3129 35.8757 86.832 32.6883 89.6596C29.5523 92.4872 26.6219 95.5718 24.2056 99.0677C21.7379 102.512 19.7843 106.317 18.4476 110.275L18.3448 109.864L26.6733 116.701L34.9504 123.539C40.4513 128.115 45.9522 132.741 51.4017 137.368L55.5145 140.864L59.5759 144.36L67.6987 151.403C70.3721 153.768 73.0454 156.133 75.7188 158.549C77.0554 159.732 78.3407 160.966 79.6773 162.2L81.6309 164.05C82.2479 164.667 82.8648 165.336 83.5331 165.953V166.004H83.4817C82.8134 165.387 82.1965 164.77 81.5281 164.153L79.5231 162.354C78.1864 161.171 76.7984 160.04 75.4617 158.858C72.737 156.544 70.0122 154.231 67.236 151.918L50.7847 138.088L34.3334 124.259L17.9335 110.378C17.8307 110.275 17.7793 110.121 17.8307 109.967C19.3216 105.957 21.378 102.152 23.9485 98.7078C26.4677 95.2633 29.398 92.1273 32.5855 89.3511C34.1792 87.9631 35.8243 86.575 37.5209 85.3411C39.2174 84.0559 40.9654 82.8734 42.7647 81.691C46.312 79.3775 50.065 77.2697 53.8694 75.3675C57.6737 73.4654 61.6323 71.8202 65.5909 70.3293C69.6009 68.8384 73.6623 67.5532 77.7238 66.3707C81.8366 65.1883 85.9494 64.2115 90.1136 63.2861C92.1701 62.8234 94.2779 62.4635 96.3857 62.1037C98.4935 61.7438 100.601 61.4353 102.709 61.1783C102.761 61.1783 102.761 61.1783 102.761 61.2297C102.709 61.2811 102.709 61.3325 102.658 61.3325Z" fill="black"/>
<path d="M107.13 82.0509C99.9839 83.439 92.9407 85.1869 85.9489 87.1919C82.453 88.1687 78.9571 89.1969 75.564 90.4308C72.1709 91.716 68.8293 93.1555 65.5904 94.8007C62.3516 96.4972 59.2155 98.2452 56.1309 100.147C55.3598 100.61 54.64 101.124 53.8689 101.638L52.7378 102.409C52.378 102.666 52.0181 102.923 51.6582 103.181C50.9385 103.746 50.1673 104.209 49.499 104.774L47.3912 106.471C46.6714 107.036 46.0031 107.653 45.3348 108.219L44.3065 109.093L43.3298 110.018L42.353 110.944C42.0445 111.252 41.6846 111.56 41.3762 111.869L39.5254 113.822C37.1091 116.496 34.9499 119.426 32.9449 122.459C32.9449 122.459 32.8935 122.511 32.8935 122.459C32.8935 122.459 32.842 122.408 32.8935 122.408C34.5386 119.169 36.595 116.136 38.9599 113.308C41.3248 110.532 43.9467 107.962 46.7742 105.597C52.4808 100.97 58.8043 97.2169 65.4876 94.2351C68.8293 92.7442 72.1709 91.3562 75.564 90.0709C78.9571 88.7342 82.3502 87.449 85.8461 86.318C89.342 85.2383 92.8893 84.313 96.4366 83.5932C99.9839 82.8735 103.583 82.2565 107.233 81.8967C107.284 81.8967 107.284 81.8967 107.284 81.9481C107.181 81.9995 107.13 82.0509 107.13 82.0509Z" fill="black"/>
<path d="M111.5 102.307C105.537 103.797 99.5731 105.391 93.6609 107.036C90.6791 107.807 87.6973 108.63 84.767 109.607C81.8366 110.584 78.9576 111.715 76.1814 113C73.4053 114.285 70.6291 115.622 67.9044 117.061C65.1796 118.501 62.5577 120.095 60.0386 121.791C57.5195 123.488 55.1032 125.338 52.8411 127.446C50.6305 129.503 48.6255 131.867 47.0318 134.489C47.0318 134.489 46.9804 134.541 46.9804 134.489C46.9804 134.489 46.929 134.438 46.9804 134.438C48.2656 131.61 50.1678 129.091 52.327 126.829C54.4863 124.567 56.9026 122.614 59.4731 120.866C64.6655 117.421 70.2692 114.696 76.0272 112.486C78.9062 111.355 81.8366 110.378 84.7155 109.298L89.0854 107.705C90.5249 107.191 92.0158 106.676 93.4553 106.214C96.3857 105.288 99.4189 104.517 102.401 103.849C105.434 103.181 108.467 102.615 111.5 102.204C111.552 102.204 111.552 102.204 111.552 102.255C111.5 102.255 111.5 102.307 111.5 102.307Z" fill="black"/>
<path d="M115.819 122.562C113.402 123.179 110.986 123.796 108.57 124.413L101.372 126.315C98.9559 126.932 96.5396 127.549 94.1748 128.32C91.8099 129.091 89.4964 130.068 87.2858 131.148C85.0751 132.227 82.8645 133.358 80.7053 134.592C78.5974 135.826 76.4896 137.214 74.536 138.705C72.5824 140.196 70.7831 141.841 69.1379 143.692C67.5442 145.543 66.1561 147.65 65.2307 149.913C65.2307 149.964 65.1793 149.964 65.1793 149.964L65.1279 149.913C65.7449 147.496 66.9787 145.183 68.4696 143.178C70.0119 141.173 71.8627 139.373 73.8163 137.831C75.8213 136.289 77.9805 134.952 80.1397 133.77C82.3504 132.536 84.6124 131.559 86.9773 130.634C89.2908 129.708 91.6557 128.886 93.9691 128.012C96.334 127.138 98.6475 126.264 101.012 125.493C103.377 124.721 105.845 124.156 108.261 123.642C110.729 123.128 113.197 122.716 115.664 122.511C115.716 122.511 115.716 122.511 115.716 122.562C115.87 122.511 115.87 122.511 115.819 122.562Z" fill="black"/>
<path d="M108.827 147.496C106.359 140.762 104.046 133.924 101.989 127.086L100.498 121.894C99.9842 120.146 99.5215 118.449 98.956 116.753C97.8764 113.308 96.694 109.915 95.5115 106.522C94.3291 103.129 93.0952 99.7361 91.9642 96.343L88.4683 86.1637L85.0238 75.9331C84.4069 74.2365 83.8928 72.54 83.2759 70.8435L82.3505 68.3243L81.3223 65.8567C81.3223 65.8052 81.3223 65.8052 81.3737 65.8052H81.4251L82.6589 68.2215C83.0188 69.0441 83.3787 69.8667 83.7385 70.6892C84.0984 71.5118 84.4583 72.3344 84.7668 73.1569L85.7436 75.676C87.0288 79.0177 88.2627 82.4108 89.4451 85.8039C91.7586 92.59 93.9692 99.4276 96.0256 106.317C97.0538 109.761 98.1334 113.206 99.2645 116.599C100.396 119.992 101.629 123.385 102.812 126.778C105.074 133.615 107.13 140.504 108.981 147.445C108.981 147.496 108.981 147.496 108.93 147.496C108.827 147.496 108.827 147.496 108.827 147.496Z" fill="black"/>
<path d="M57.1081 74.2879C60.6554 80.56 64.0484 86.9349 67.1845 93.4126C68.7268 96.6514 70.2177 99.9417 71.8114 103.181C73.4051 106.419 75.0503 109.607 76.7468 112.794C78.4433 115.982 80.0885 119.169 81.7336 122.408C83.3273 125.647 84.9725 128.834 86.5148 132.073C88.0571 135.312 89.5994 138.602 91.0389 141.893C91.7586 143.538 92.4784 145.183 93.1981 146.879L94.2263 149.398L95.1517 151.969C95.1517 152.02 95.1517 152.02 95.1003 152.02C95.1003 152.02 95.0489 152.02 95.0489 151.969L93.9179 149.501L92.7354 147.085C91.9643 145.44 91.1417 143.846 90.3705 142.252L85.5894 132.587C83.9957 129.348 82.4533 126.11 80.911 122.871C79.3173 119.632 77.8264 116.342 76.2841 113.103C74.7418 109.812 73.1995 106.574 71.5544 103.386C70.7318 101.792 69.8578 100.199 69.0353 98.605L66.4647 93.8239C63.1745 87.3976 59.987 80.9199 57.0566 74.3393C57.0566 74.2879 57.0566 74.2879 57.1081 74.2879C57.1081 74.2365 57.1081 74.2879 57.1081 74.2879Z" fill="black"/>
<path d="M84.5098 159.218C80.1399 153.46 75.8729 147.548 71.8114 141.533L68.8296 137.009C67.8528 135.518 66.8246 133.975 65.7964 132.484C63.74 129.503 61.5808 126.572 59.4216 123.642C57.2623 120.763 55.0517 117.832 52.9438 114.902L46.5176 106.162L43.3301 101.741C42.2505 100.302 41.2223 98.8107 40.1427 97.3712C39.0631 95.9317 38.0349 94.4408 36.9038 93.0013L35.2587 90.8421L33.5107 88.7857V88.7343H33.5622L35.5157 90.6364L37.3151 92.6928L38.1891 93.7211L39.0631 94.7493L40.7596 96.8571C43.0217 99.6847 45.2323 102.564 47.3915 105.494C51.6586 111.355 55.8742 117.267 59.8842 123.333C61.8892 126.315 63.9457 129.348 66.0535 132.279C68.1613 135.209 70.372 138.088 72.5312 141.019C76.7468 146.931 80.8083 152.946 84.6126 159.115V159.166C84.5098 159.218 84.5098 159.218 84.5098 159.218Z" fill="black"/>
<path d="M33.5109 131.096C35.6187 132.999 37.6751 134.952 39.6801 136.906C41.6851 138.911 43.6901 140.864 45.6437 142.921C47.5459 144.977 49.4481 147.085 51.4017 149.141C53.3553 151.198 55.3603 153.151 57.4167 155.105C59.4731 157.059 61.5295 159.012 63.5345 161.017C65.5395 163.022 67.5959 164.976 69.5495 166.981C71.5031 168.986 73.5081 171.042 75.4617 173.047C77.4153 175.104 79.3175 177.16 81.3225 179.165V179.216H81.2711C79.009 177.468 76.9526 175.515 74.8962 173.613C72.8398 171.659 70.7834 169.705 68.7784 167.7C66.7734 165.695 64.8198 163.69 62.8662 161.634C60.9126 159.629 58.959 157.521 57.0568 155.465C55.1546 153.408 53.201 151.352 51.196 149.347C49.191 147.342 47.0832 145.44 45.0782 143.486C43.0732 141.533 41.1196 139.476 39.166 137.42C37.2124 135.363 35.3102 133.256 33.4595 131.096V131.045C33.4595 131.045 33.5109 131.045 33.5109 131.096Z" fill="black"/>
<path d="M18.0877 143.126C20.0927 144.72 22.0463 146.365 23.9485 148.062C25.8506 149.758 27.7528 151.506 29.5522 153.306C31.3516 155.105 33.0995 157.007 34.8989 158.807C36.6982 160.606 38.6004 162.354 40.4512 164.05C42.3534 165.798 44.2041 167.546 46.0035 169.346C47.8029 171.145 49.6022 172.944 51.3502 174.847C53.0981 176.749 54.7947 178.651 56.337 180.656C56.7483 181.17 57.1081 181.684 57.5194 182.198C57.8793 182.712 58.2906 183.226 58.6504 183.792C59.3702 184.872 60.0385 185.951 60.3984 187.236C60.3984 187.288 60.3984 187.288 60.347 187.288C60.347 187.288 60.2956 187.288 60.2956 187.236C59.7815 186.054 59.0103 185.077 58.1877 184.1C57.4166 183.124 56.5426 182.147 55.7201 181.221C54.0235 179.319 52.2756 177.468 50.5276 175.618L40.0399 164.41C38.2919 162.56 36.4926 160.709 34.6418 159.012C32.791 157.264 30.8374 155.619 28.9353 153.923C27.0331 152.226 25.2337 150.427 23.3829 148.679C21.5322 146.931 19.7842 145.08 17.9849 143.229V143.178C18.0363 143.126 18.0363 143.126 18.0877 143.126Z" fill="black"/>
<path d="M17.9849 175.104C17.4194 172.893 17.4194 170.58 17.7793 168.317C18.1392 166.055 18.8589 163.845 19.8871 161.788C20.9667 159.732 22.3034 157.933 23.7429 156.185C25.1824 154.437 26.7247 152.792 28.3698 151.249C29.1924 150.478 30.0149 149.707 30.9403 149.039C31.8143 148.319 32.7397 147.651 33.7165 147.034C34.6419 146.365 35.6187 145.8 36.5955 145.183C37.5723 144.617 38.6005 144.052 39.5773 143.589C43.6387 141.584 47.9571 140.042 52.327 138.911C52.3784 138.911 52.3784 138.911 52.3784 138.962C52.3784 138.962 52.3784 139.014 52.327 139.014C48.1628 140.71 44.05 142.509 40.04 144.566C36.0299 146.571 32.2256 148.936 28.7297 151.712C26.9817 153.1 25.3366 154.694 23.9999 156.442C22.6119 158.19 21.5322 160.195 20.6583 162.2C19.7329 164.205 19.0131 166.312 18.5504 168.472C18.3448 169.551 18.1906 170.631 18.0877 171.762C17.9849 172.893 17.9849 173.973 18.0877 175.104C18.0877 175.155 18.0877 175.155 18.0363 175.155C18.0363 175.155 17.9849 175.155 17.9849 175.104Z" fill="black"/>
<path d="M71.4001 155.208C66.4133 154.797 61.4779 155.105 56.5939 155.928C54.1777 156.339 51.71 156.904 49.3965 157.83C47.083 158.755 44.9238 159.989 42.9188 161.48C42.4561 161.84 41.942 162.2 41.4793 162.611C41.0166 163.022 40.5539 163.433 40.0912 163.845C39.2172 164.719 38.2919 165.541 37.5207 166.467C36.6467 167.341 35.927 168.369 35.1558 169.294C34.796 169.808 34.4361 170.322 34.1276 170.785L33.6135 171.556C33.4593 171.813 33.3051 172.07 33.1508 172.327C30.5289 176.492 28.6267 181.119 27.033 185.848C27.033 185.9 26.9816 185.9 26.9816 185.9L26.9302 185.848C27.8556 180.913 29.6035 176.132 32.174 171.813C32.3283 171.556 32.4825 171.248 32.6881 170.991L33.2536 170.22C33.6135 169.706 33.9734 169.191 34.3333 168.677C35.1558 167.701 35.927 166.724 36.801 165.798C37.6235 164.873 38.6003 164.05 39.5771 163.228C40.0912 162.817 40.5539 162.457 41.068 162.097C41.5821 161.737 42.0962 161.377 42.6617 161.069C44.7696 159.732 47.0316 158.601 49.3451 157.573C51.6585 156.596 54.0234 155.722 56.4911 155.156C58.9588 154.591 61.4779 154.385 63.997 154.334C66.5161 154.334 69.0352 154.54 71.4515 155.156C71.5029 155.156 71.5029 155.208 71.5029 155.208C71.4515 155.208 71.4001 155.208 71.4001 155.208Z" fill="black"/>
<path d="M80.4997 163.279C74.9474 163.793 69.5493 164.924 64.2541 166.57C61.6321 167.392 59.0102 168.317 56.5425 169.551C54.0748 170.785 51.7614 172.379 49.7049 174.23C47.6485 176.08 45.7463 178.085 44.1012 180.296C42.5075 182.507 41.1194 184.923 39.9884 187.391C37.7777 192.429 36.5953 197.878 36.0812 203.379C36.0812 203.431 36.0298 203.431 36.0298 203.431C35.9784 203.431 35.9784 203.431 35.9784 203.379C35.8756 197.827 36.8009 192.172 39.0116 186.928C40.1426 184.357 41.6335 181.941 43.3301 179.679C45.078 177.469 47.1344 175.464 49.3451 173.767C51.5557 172.07 53.9206 170.58 56.3883 169.243C58.856 167.906 61.3751 166.672 63.997 165.747C66.6189 164.822 69.3951 164.153 72.1199 163.691C74.896 163.279 77.6722 163.022 80.4997 163.125C80.5511 163.176 80.5511 163.176 80.4997 163.279C80.5511 163.279 80.5511 163.228 80.4997 163.279Z" fill="black"/>
<path d="M88.8794 85.9067L95.6142 106.008L111.449 102.255L107.13 81.9995L88.8794 85.9067Z" fill="black"/>
<path d="M101.938 125.647L108.827 147.445C108.827 147.445 118.029 145.491 120.857 146.005L115.767 122.459L101.938 125.647Z" fill="black"/>
<path d="M76.2842 112.589L85.6409 131.559L101.938 125.647L95.6145 106.008L76.2842 112.589Z" fill="black"/>
<path d="M66.619 93.2069L57.0566 74.2879C57.0566 74.2879 77.1067 65.7024 81.2709 65.7538L88.8282 85.8553C88.8796 85.9067 78.1349 89.3512 66.619 93.2069Z" fill="black"/>
<path d="M46.98 106.059L58.5987 122.048L76.2839 112.589L66.6187 93.2069L46.98 106.059Z" fill="black"/>
<path d="M71.606 140.504L84.5614 159.166C84.5614 159.166 90.9876 153.666 95.1005 152.02L85.641 131.559C85.641 131.559 74.742 137.06 71.606 140.504Z" fill="black"/>
<path d="M18.0361 110.172L32.8423 122.511C32.8423 122.511 40.8109 110.121 47.0316 106.06L33.5106 88.7343C33.5106 88.7343 21.275 98.605 18.0361 110.172Z" fill="black"/>
<path d="M46.98 134.387C46.98 134.387 52.6865 125.184 58.5987 122.048L71.6055 140.504C71.6055 140.504 66.4645 146.005 65.2821 149.913L46.98 134.387Z" fill="black"/>
<path d="M91.8099 153.768C91.8099 153.768 97.2594 160.195 97.1052 165.953C97.1052 165.953 95.8713 164.77 93.7121 165.387C91.5529 166.004 84.7153 168.574 83.3786 165.953C82.042 163.331 82.1962 157.984 91.8099 153.768Z" fill="black"/>
<path d="M71.4001 155.156C71.4001 155.156 61.5293 153.614 57.4165 155.465L67.1331 165.284C67.1331 165.284 77.5179 163.125 80.5512 163.228L71.4001 155.156Z" fill="black"/>
<path d="M52.3783 138.911L44.1527 141.995L33.5107 131.096L39.7828 128.32L52.3783 138.911Z" fill="black"/>
<path d="M27.7529 152.175L39.6801 163.639C39.6801 163.639 47.5459 156.236 57.4167 155.465L44.2042 141.995C44.1528 141.995 30.9918 147.599 27.7529 152.175Z" fill="black"/>
<path d="M49.7051 173.818C49.7051 173.818 59.2674 183.278 60.347 187.134C60.347 187.134 75.6673 180.296 80.4999 179.473L67.0818 165.284C67.0818 165.284 52.9953 169.603 49.7051 173.818Z" fill="black"/>
<path d="M26.9302 185.848C26.9302 185.848 32.0198 194.434 33.4593 197.878C34.8988 201.323 36.0298 203.379 36.0298 203.379C36.0298 203.379 36.0812 183.329 49.7049 173.818L39.6285 163.639C39.6799 163.639 29.3465 174.127 26.9302 185.848Z" fill="black"/>
<path d="M27.7526 152.175L18.0361 143.178C18.0361 143.178 8.6794 154.591 10.8386 170.734C10.8386 170.734 14.7458 171.813 17.779 174.898C17.779 174.898 14.6944 163.176 27.7526 152.175Z" fill="black"/>
</svg>
