<svg width="238" height="152" viewBox="0 0 238 152" fill="none" xmlns="http://www.w3.org/2000/svg">
<path d="M99.9086 113.22L101.338 122.331H98.1215L96.0962 129.834L93.6539 131.442L94.607 140.554H98.8959L97.4663 149.665L33.0136 151.452L28.8438 149.665V141.983L25.5676 140.554L23.7209 132.336L25.5676 131.442L26.5802 122.331L29.7969 120.247V113.22L61.4871 111.374C61.4871 111.374 39.5065 97.7958 39.5065 84.3372C39.5065 70.8786 51.3606 48.0108 70.6606 48.0108C89.9607 48.0108 105.687 61.5886 105.687 78.3225C105.687 95.0565 91.0329 110.659 81.7403 111.969L99.9086 113.22Z" fill="#FAE058"/>
<path d="M103.363 85.8856V94.9969H110.809L108.665 102.262L105.806 106.014L107.057 120.545L103.363 124.892V131.442H110.809V138.291L103.363 142.459C103.363 142.459 100.862 152.881 103.363 151.273C105.865 149.665 175.917 149.665 175.917 149.665V142.876L178.777 140.554V133.646L173.475 132.812V122.331H175.977L173.475 104.108H180.921L231.494 151.452L237.153 143.353L188.427 92.9722L183.185 100.654L180.862 94.9969H173.416V85.8856H103.363Z" fill="#FAE058"/>
<path d="M173.177 149.784L165.076 149.963L156.915 150.082C151.435 150.142 145.955 150.201 140.415 150.201C134.875 150.201 129.335 150.082 123.855 149.963C118.315 149.844 112.835 149.844 107.354 149.903C107.235 149.903 107.116 149.784 107.116 149.665C107.116 146.807 107.057 143.948 106.997 141.09C106.997 140.911 107.116 140.792 107.295 140.792C112.775 140.673 118.255 140.613 123.736 140.554L140.177 140.494C142.917 140.494 145.657 140.494 148.397 140.494L156.617 140.554L164.838 140.673L173.058 140.852C173.237 140.852 173.356 140.971 173.356 141.149C173.356 142.638 173.296 144.067 173.237 145.497L173.177 149.784ZM173.058 149.725L172.939 145.437C172.879 144.008 172.82 142.638 172.82 141.209L173.118 141.507L164.897 141.685L156.677 141.804L148.456 141.864C145.716 141.864 142.976 141.864 140.236 141.864L123.795 141.804C118.315 141.745 112.835 141.685 107.354 141.566L107.652 141.268C107.593 144.127 107.533 146.985 107.533 149.844L107.295 149.606C112.775 149.665 118.255 149.665 123.676 149.546C129.097 149.486 134.518 149.308 139.938 149.308C145.359 149.308 150.839 149.367 156.319 149.427L164.599 149.546L173.058 149.725Z" fill="black"/>
<path d="M175.798 141.268L167.697 141.447L159.536 141.566C154.056 141.626 148.576 141.685 143.036 141.685C137.496 141.685 131.956 141.566 126.476 141.447C120.936 141.328 115.456 141.328 109.976 141.387C109.856 141.387 109.737 141.268 109.737 141.149C109.737 138.291 109.678 135.432 109.618 132.574C109.618 132.395 109.737 132.276 109.916 132.276C115.396 132.157 120.877 132.097 126.357 132.038L142.798 131.978C145.538 131.978 148.278 131.978 151.018 131.978L159.238 132.038L167.459 132.157L175.679 132.336C175.858 132.336 175.977 132.455 175.977 132.633C175.977 134.122 175.917 135.551 175.858 136.981L175.798 141.268ZM175.739 141.149L175.62 136.862C175.56 135.432 175.501 134.063 175.501 132.633L175.798 132.931L167.578 133.11L159.358 133.229L151.137 133.288C148.397 133.288 145.657 133.288 142.917 133.288L126.476 133.229C120.996 133.169 115.515 133.11 110.035 132.991L110.333 132.693C110.273 135.551 110.214 138.41 110.214 141.268L109.976 141.03C115.456 141.09 120.936 141.09 126.357 140.971C131.778 140.911 137.198 140.732 142.619 140.732C148.04 140.732 153.52 140.792 159 140.852L167.28 140.971L175.739 141.149Z" fill="black"/>
<path d="M173.475 131.502L164.838 131.681L156.141 131.8L147.384 131.859C144.466 131.859 141.547 131.919 138.568 131.919C132.671 131.919 126.774 131.8 120.936 131.74C115.039 131.681 109.201 131.621 103.364 131.681C103.244 131.681 103.125 131.561 103.125 131.442C103.125 128.405 103.066 125.368 103.006 122.331C103.006 122.152 103.125 122.033 103.304 122.033C109.142 121.914 114.979 121.855 120.817 121.795C126.655 121.795 132.492 121.676 138.33 121.735C144.168 121.735 150.005 121.735 155.843 121.795L164.6 121.914L173.356 122.093C173.535 122.093 173.654 122.212 173.654 122.391C173.654 123.939 173.594 125.487 173.535 127.036L173.475 131.502ZM173.356 131.383L173.118 122.331L173.416 122.629L164.659 122.807L155.903 122.927C150.065 122.986 144.227 122.986 138.39 122.986C132.552 122.986 126.714 122.927 120.877 122.927C115.039 122.867 109.201 122.807 103.364 122.688L103.661 122.391C103.602 125.428 103.542 128.465 103.542 131.502L103.304 131.264C109.142 131.323 114.979 131.264 120.757 131.204C126.536 131.145 132.314 130.966 138.151 131.026C141.07 131.026 143.929 131.026 146.848 131.085L155.605 131.145L164.421 131.264L173.356 131.383Z" fill="black"/>
<path d="M175.917 122.391L167.28 122.569L158.583 122.688L149.827 122.748C146.908 122.748 143.989 122.807 141.01 122.807C135.113 122.807 129.216 122.688 123.378 122.629C117.481 122.569 111.643 122.51 105.806 122.569C105.687 122.569 105.567 122.45 105.567 122.331C105.567 119.294 105.508 116.257 105.448 113.22C105.448 113.041 105.567 112.922 105.746 112.922C111.584 112.803 117.421 112.743 123.259 112.684C129.097 112.684 134.934 112.565 140.772 112.624C146.61 112.624 152.448 112.624 158.285 112.684L167.042 112.803L175.798 112.981C175.977 112.981 176.096 113.101 176.096 113.279C176.096 114.828 176.037 116.376 175.977 117.924L175.917 122.391ZM175.858 122.271L175.62 113.22L175.917 113.517L167.161 113.696L158.404 113.815C152.567 113.875 146.729 113.875 140.891 113.875C135.054 113.875 129.216 113.815 123.378 113.815C117.541 113.756 111.703 113.696 105.865 113.577L106.163 113.279C106.103 116.316 106.044 119.353 106.044 122.391L105.806 122.152C111.643 122.212 117.481 122.152 123.259 122.093C129.037 122.033 134.815 121.855 140.653 121.914C143.572 121.914 146.431 121.914 149.35 121.974L158.106 122.033L166.923 122.152L175.858 122.271Z" fill="black"/>
<path d="M100.862 149.784L92.7603 149.963L84.5995 150.082C79.1192 150.142 73.639 150.201 68.0991 150.201C62.5593 150.201 57.0194 150.082 51.5392 149.963C45.9993 149.844 40.5191 149.844 35.0388 149.903C34.9197 149.903 34.8005 149.784 34.8005 149.665C34.8005 146.807 34.741 143.948 34.6814 141.09C34.6814 140.911 34.8005 140.792 34.9792 140.792C40.4595 140.673 45.9398 140.613 51.42 140.554L67.8608 140.494C70.601 140.494 73.3411 140.494 76.0812 140.494L84.3016 140.554L92.522 140.673L100.742 140.852C100.921 140.852 101.04 140.971 101.04 141.149C101.04 142.638 100.981 144.067 100.921 145.497L100.862 149.784ZM100.802 149.725L100.683 145.437C100.623 144.008 100.564 142.638 100.564 141.209L100.862 141.507L92.6412 141.685L84.4208 141.804L76.2004 141.864C73.4603 141.864 70.7201 141.864 67.98 141.864L51.5392 141.804C46.0589 141.745 40.5786 141.685 35.0984 141.566L35.3962 141.268C35.3366 144.127 35.2771 146.985 35.2771 149.844L35.0388 149.606C40.5191 149.665 45.9993 149.665 51.42 149.546C56.8407 149.486 62.2614 149.308 67.6821 149.308C73.1028 149.308 78.5831 149.367 84.0634 149.427L92.3433 149.546L100.802 149.725Z" fill="black"/>
<path d="M97.8235 141.268L89.7222 141.447L81.5614 141.566C76.0811 141.626 70.6009 141.685 65.061 141.685C59.5212 141.685 53.9814 141.566 48.5011 141.447C42.9613 141.328 37.481 141.328 32.0007 141.387C31.8816 141.387 31.7624 141.268 31.7624 141.149C31.7624 138.291 31.7029 135.432 31.6433 132.574C31.6433 132.395 31.7624 132.276 31.9412 132.276C37.4214 132.157 42.9017 132.097 48.382 132.038L64.8228 131.978C67.5629 131.978 70.303 131.978 73.0432 131.978L81.2636 132.038L89.484 132.157L97.7044 132.336C97.8831 132.336 98.0022 132.455 98.0022 132.633C98.0022 134.122 97.9426 135.551 97.8831 136.981L97.8235 141.268ZM97.7639 141.149L97.6448 136.862C97.5852 135.432 97.5257 134.063 97.5257 132.633L97.8235 132.931L89.6031 133.11L81.3827 133.229L73.1623 133.288C70.4222 133.288 67.682 133.288 64.9419 133.288L48.4415 133.229C42.9613 133.169 37.481 133.11 32.0007 132.991L32.2986 132.693C32.239 135.551 32.1794 138.41 32.1794 141.268L31.9412 141.03C37.4214 141.09 42.9017 141.09 48.3224 140.971C53.7431 140.911 59.1638 140.732 64.5845 140.732C70.0052 140.732 75.4855 140.792 80.9657 140.852L89.2457 140.971L97.7639 141.149Z" fill="black"/>
<path d="M98.181 131.502L89.5436 131.681L80.8467 131.8L72.0902 131.859C69.1713 131.859 66.2525 131.919 63.2741 131.919C57.3769 131.919 51.4796 131.8 45.6419 131.74C39.7447 131.681 33.907 131.621 28.0693 131.681C27.9502 131.681 27.8311 131.561 27.8311 131.442C27.8311 128.405 27.7715 125.368 27.7119 122.331C27.7119 122.152 27.8311 122.033 28.0098 122.033C33.8474 121.914 39.6851 121.855 45.5228 121.795C51.3605 121.795 57.1981 121.676 63.0358 121.735C68.8735 121.735 74.7112 121.735 80.5489 121.795L89.3054 121.914L98.0619 122.093C98.2406 122.093 98.3597 122.212 98.3597 122.391C98.3597 123.939 98.3002 125.487 98.2406 127.036L98.181 131.502ZM98.0619 131.383L97.8236 122.331L98.1215 122.629L89.3649 122.807L80.6084 122.867C74.7707 122.927 68.9331 122.927 63.0954 122.927C57.2577 122.927 51.42 122.867 45.5824 122.867C39.7447 122.807 33.907 122.748 28.0693 122.629L28.3672 122.331C28.3076 125.368 28.248 128.405 28.248 131.442L28.0098 131.204C33.8474 131.264 39.6851 131.204 45.4632 131.145C51.2413 131.085 57.0194 130.906 62.8571 130.966C65.776 130.966 68.6352 130.966 71.5541 131.026L80.3106 131.085L89.1267 131.204L98.0619 131.383Z" fill="black"/>
<path d="M99.9681 122.391L91.3307 122.569L82.6338 122.688L73.8773 122.748C70.9584 122.748 68.0396 122.807 65.0612 122.807C59.164 122.807 53.2667 122.688 47.429 122.629C41.5318 122.569 35.6941 122.51 29.8564 122.569C29.7373 122.569 29.6182 122.45 29.6182 122.331C29.6182 119.294 29.5586 116.257 29.499 113.22C29.499 113.041 29.6182 112.922 29.7969 112.922C35.6345 112.803 41.4722 112.743 47.3099 112.684C53.1476 112.684 58.9852 112.565 64.8229 112.624C70.6606 112.624 76.4983 112.624 82.336 112.684L91.0925 112.803L99.849 112.981C100.028 112.981 100.147 113.101 100.147 113.279C100.147 114.828 100.087 116.376 100.028 117.924L99.9681 122.391ZM99.849 122.271L99.6107 113.22L99.9086 113.517L91.152 113.696L82.3955 113.815C76.5578 113.875 70.7202 113.875 64.8825 113.875C59.0448 113.875 53.2071 113.815 47.3695 113.815C41.5318 113.756 35.6941 113.696 29.8564 113.577L30.1543 113.279C30.0947 116.316 30.0351 119.353 30.0351 122.391L29.7969 122.152C35.6345 122.212 41.4722 122.152 47.2503 122.093C53.0284 122.033 58.8065 121.855 64.6442 121.914C67.5631 121.914 70.4223 121.914 73.3412 121.974L82.0977 122.033L90.9138 122.152L99.849 122.271Z" fill="black"/>
<path d="M175.917 113.279L167.28 113.458L158.583 113.577L149.826 113.637C146.908 113.637 143.989 113.696 141.01 113.696C135.113 113.696 129.216 113.577 123.378 113.517C117.481 113.458 111.643 113.398 105.806 113.458C105.687 113.458 105.567 113.339 105.567 113.22C105.567 110.183 105.508 107.145 105.448 104.108C105.448 103.93 105.567 103.811 105.746 103.811C111.584 103.691 117.421 103.632 123.259 103.572C129.097 103.572 134.934 103.453 140.772 103.513C146.61 103.513 152.447 103.513 158.285 103.572L167.042 103.691L175.917 103.811C176.096 103.811 176.215 103.93 176.215 104.108C176.215 105.657 176.156 107.205 176.096 108.753L175.917 113.279ZM175.858 113.16L175.619 104.108L175.917 104.406L167.161 104.585L158.404 104.704C152.567 104.763 146.729 104.763 140.891 104.763C135.054 104.763 129.216 104.704 123.378 104.704C117.541 104.644 111.703 104.585 105.865 104.466L106.163 104.168C106.103 107.205 106.044 110.242 106.044 113.279L105.806 113.041C111.643 113.101 117.481 113.041 123.259 112.981C129.037 112.922 134.815 112.743 140.653 112.803C143.572 112.803 146.431 112.803 149.35 112.862L158.106 112.922L166.923 113.041L175.858 113.16Z" fill="black"/>
<path d="M180.862 104.168L172.224 104.346L163.527 104.466L154.771 104.525C151.852 104.525 148.933 104.585 145.955 104.585C140.058 104.585 134.16 104.466 128.323 104.406C122.425 104.346 116.588 104.287 110.75 104.346C110.631 104.346 110.512 104.227 110.512 104.108C110.512 101.071 110.452 98.034 110.393 94.9969C110.393 94.8182 110.512 94.6991 110.69 94.6991C116.528 94.58 122.366 94.5205 128.203 94.4609C134.041 94.4609 139.879 94.3418 145.716 94.4014C151.554 94.4014 157.392 94.4014 163.23 94.4609L171.986 94.58L180.743 94.7587C180.921 94.7587 181.04 94.8778 181.04 95.0564C181.04 96.6048 180.981 98.1531 180.921 99.7015L180.862 104.168ZM180.802 104.049L180.564 94.9969L180.862 95.2947L172.105 95.4733L163.349 95.5924C157.511 95.652 151.673 95.652 145.836 95.652C139.998 95.652 134.16 95.5924 128.323 95.5924C122.485 95.5329 116.647 95.4733 110.81 95.3542L111.107 95.0564C111.048 98.0936 110.988 101.131 110.988 104.168L110.75 103.93C116.588 103.989 122.425 103.93 128.203 103.87C133.982 103.811 139.76 103.632 145.597 103.691C148.516 103.691 151.375 103.691 154.294 103.751L163.051 103.811L171.867 103.93L180.802 104.049Z" fill="black"/>
<path d="M175.917 95.0565L167.28 95.2351L158.583 95.3542L149.827 95.4138C146.908 95.4138 143.989 95.4733 141.01 95.4733C135.113 95.4733 129.216 95.3542 123.378 95.2947C117.481 95.2351 111.643 95.1756 105.806 95.2351C105.687 95.2351 105.567 95.116 105.567 94.9969C105.567 91.9598 105.508 88.9227 105.448 85.8856C105.448 85.7069 105.567 85.5878 105.746 85.5878C111.584 85.4687 117.421 85.4092 123.259 85.3496C129.097 85.3496 134.934 85.2305 140.772 85.2901C146.61 85.2901 152.448 85.2901 158.285 85.3496L167.042 85.4687L175.798 85.6474C175.977 85.6474 176.096 85.7665 176.096 85.9451C176.096 87.4935 176.037 89.0418 175.977 90.5901L175.917 95.0565ZM175.858 94.9374L175.62 85.8856L175.917 86.1833L167.161 86.362L158.404 86.4811C152.567 86.5406 146.729 86.5406 140.891 86.5406C135.054 86.5406 129.216 86.4811 123.378 86.4811C117.541 86.4215 111.703 86.362 105.865 86.2429L106.163 85.9451C106.103 88.9822 106.044 92.0194 106.044 95.0565L105.806 94.8183C111.643 94.8778 117.481 94.8183 123.259 94.7587C129.037 94.6992 134.815 94.5205 140.653 94.5801C143.572 94.5801 146.431 94.5801 149.35 94.6396L158.106 94.6992L166.923 94.8183L175.858 94.9374Z" fill="black"/>
<path d="M230.541 149.725L224.406 143.65L218.27 137.517L212.135 131.264C210.11 129.179 208.025 127.095 205.999 124.951C201.889 120.723 197.898 116.376 193.907 112.088C189.916 107.8 185.865 103.572 181.755 99.4037C181.696 99.3441 181.696 99.1655 181.755 99.1059C183.959 96.9621 186.044 94.8182 188.248 92.6744C188.367 92.5553 188.605 92.5553 188.725 92.6744C192.835 96.7834 196.945 100.952 201.055 105.121C205.106 109.289 209.216 113.458 213.267 117.626C217.317 121.855 221.368 126.023 225.359 130.251L231.375 136.623L237.332 143.055C237.451 143.174 237.451 143.353 237.332 143.472C236.2 144.544 235.069 145.556 233.937 146.568L230.541 149.725ZM230.541 149.606L236.915 143.114V143.531L230.72 137.338L224.585 131.085C220.474 126.976 216.424 122.748 212.373 118.579C208.323 114.411 204.272 110.123 200.281 105.954C196.23 101.726 192.239 97.498 188.248 93.2103H188.725C186.521 95.2946 184.257 97.3789 182.113 99.4632V99.1655C186.104 103.394 190.214 107.562 194.264 111.671C198.375 115.78 202.485 119.83 206.476 123.998C208.501 126.083 210.527 128.167 212.492 130.311L218.509 136.683L224.525 143.114L230.541 149.606Z" fill="black"/>
<path d="M105.806 79.9304C105.746 75.5832 104.912 71.2359 103.185 67.246C101.457 63.256 98.9553 59.6234 95.8578 56.6458C89.6627 50.6311 81.204 47.1771 72.5666 47.1176C63.9888 46.9985 55.2919 50.3334 49.1564 56.5267C46.0588 59.5638 43.6165 63.256 42.0082 67.246C40.3403 71.2359 39.5659 75.5832 39.6255 79.8709C39.685 84.1586 40.5786 88.4463 42.2465 92.4362C43.9144 96.3666 46.3567 99.9992 49.3946 103.036C55.4706 109.111 63.9888 112.565 72.5071 112.565C76.796 112.565 81.0253 111.731 85.0164 110.123C89.0074 108.515 92.6411 106.133 95.7386 103.155C98.8362 100.178 101.338 96.5453 103.066 92.5553C104.912 88.6249 105.746 84.2777 105.806 79.9304ZM105.925 79.9304C105.984 88.6845 102.529 97.379 96.3939 103.751C93.3559 106.907 89.6031 109.468 85.5525 111.195C81.5019 112.922 77.0342 113.815 72.6262 113.815C68.2182 113.815 63.7506 112.981 59.6404 111.254C55.5302 109.527 51.7774 107.026 48.6798 103.87C45.5823 100.714 43.0804 96.9621 41.4125 92.8531C39.7446 88.744 38.9702 84.3372 38.9702 79.9304C39.0298 75.5236 39.9829 71.1764 41.6508 67.1269C43.3187 63.0774 45.8206 59.3852 48.9181 56.2885L51.3604 54.0851C52.2539 53.43 53.0879 52.775 53.9814 52.1199C54.9345 51.5244 55.828 50.9289 56.7811 50.3929C57.7937 49.9165 58.7468 49.3805 59.7595 48.9637C63.8101 47.2367 68.2182 46.2839 72.6262 46.2243C77.0342 46.2243 81.5019 47.058 85.5525 48.785C89.6031 50.512 93.3559 53.0132 96.3939 56.2289C102.529 62.4818 105.925 71.2359 105.925 79.9304Z" fill="black"/>
<path d="M96.0367 79.9304C96.0367 76.8337 95.3814 73.7966 94.1305 70.9977C92.8795 68.1988 91.0925 65.6381 88.8885 63.5538C84.4804 59.3852 78.5832 56.9435 72.5072 56.884C66.4909 56.7649 60.3553 59.0874 56.0069 63.4346C51.6584 67.7224 49.1565 73.8561 49.3352 79.9304C49.3948 82.9675 50.0501 86.0046 51.2414 88.744C52.4328 91.5429 54.1603 94.0441 56.3047 96.1879C60.5936 100.416 66.5504 102.858 72.5668 102.858C78.5832 102.917 84.54 100.476 88.9481 96.307C91.1521 94.2227 92.9391 91.662 94.19 88.8631C95.3814 86.0642 96.0367 83.0271 96.0367 79.9304ZM96.1558 79.9304C96.1558 83.0271 95.5601 86.1237 94.4283 88.9822C93.2965 91.9002 91.6286 94.58 89.4246 96.843C87.2801 99.106 84.6591 100.952 81.7403 102.203C78.8215 103.453 75.6644 104.049 72.5072 104.108C69.3501 104.108 66.193 103.513 63.2742 102.262C60.3554 101.012 57.6748 99.2251 55.4708 96.9621C53.2667 94.6991 51.4797 92.0193 50.3479 89.1013C49.1565 86.1833 48.6204 83.0271 48.68 79.9304C48.7396 76.8337 49.3948 73.737 50.5862 70.8786C51.7775 68.0201 53.5646 65.3998 55.7686 63.1964C57.9726 60.993 60.5341 59.2065 63.3933 57.9559C66.2526 56.7053 69.3501 56.0503 72.5072 55.9907C75.6644 55.9907 78.8215 56.5862 81.7403 57.7773C84.6591 58.9683 87.2801 60.8144 89.4246 63.0773C93.8326 67.6032 96.1558 73.7966 96.1558 79.9304Z" fill="black"/>
<path d="M71.4945 87.3743C72.1498 87.4339 72.8646 87.4339 73.5198 87.2552C74.1751 87.1361 74.7708 86.7192 75.1282 86.1833C75.4856 85.6473 75.4856 84.8732 75.2473 84.3372C74.9495 83.7417 74.3538 83.4439 73.7581 83.1462C71.3158 82.0742 68.5757 81.5383 66.2525 79.7517C65.1207 78.8585 64.2272 77.6079 63.9294 76.1191C63.7507 75.4045 63.7507 74.6899 63.8103 73.9752C63.8698 73.2606 63.989 72.546 64.2272 71.8314C64.7038 70.4617 65.776 69.2111 67.0269 68.4965C68.2779 67.7223 69.7075 67.365 71.0776 67.1864L70.6606 67.6032L70.9584 64.5066V64.447C70.9584 64.2684 71.0776 64.1493 71.2563 64.1493L72.2689 64.0302C72.6263 64.0302 72.9242 64.0302 73.2816 64.0302C73.9368 64.0302 74.5921 64.0897 75.2473 64.3279C75.5452 64.447 75.9026 64.6257 76.1408 64.8639C76.4387 65.1021 76.5578 65.4594 76.6769 65.8167C76.8557 66.5313 76.7365 67.1864 76.6769 67.7819L76.4983 67.5437C77.3918 67.7223 78.2257 67.9605 79.0597 68.3179C79.8936 68.6752 80.668 69.092 81.2637 69.8066C81.5615 70.1639 81.7998 70.5808 81.8594 71.0572C81.9189 71.5336 81.9189 72.01 81.7998 72.4269C81.6807 72.9033 81.4424 73.3202 81.1446 73.6775C80.8467 74.0348 80.5489 74.3325 80.1319 74.6303C80.0723 74.6899 79.9532 74.6899 79.8936 74.6303C79.298 74.1539 78.5831 73.7966 77.8087 73.5584C77.0939 73.2606 76.3195 73.082 75.5452 73.0224C74.7708 72.9033 73.9964 72.9033 73.222 72.9629C72.4476 73.0224 71.7328 73.3202 71.3754 73.7966C71.1967 74.0348 71.1371 74.3325 71.1371 74.6899C71.1967 74.9876 71.3158 75.2258 71.5541 75.4045C72.1498 75.8213 72.8646 76.1191 73.639 76.4168C75.1282 77.0124 76.677 77.6079 78.1066 78.382C79.5362 79.2158 80.9659 80.2877 81.7998 81.836C82.2168 82.6102 82.4551 83.5035 82.5146 84.3372C82.5742 85.2305 82.5742 86.0642 82.3955 86.8979C82.2168 87.7316 81.9189 88.6249 81.4424 89.3395C80.9659 90.1137 80.3702 90.7092 79.6554 91.2451C78.2257 92.2575 76.4983 92.7935 74.8899 92.9721L75.426 92.3766L75.1878 95.4137V95.4733C75.1878 95.7711 74.9495 95.9497 74.7112 96.0093L73.6986 96.1284C73.3411 96.1284 73.0433 96.1284 72.6859 96.1284C72.0306 96.1284 71.3754 96.0688 70.6606 95.8306C70.3032 95.7115 69.9458 95.5329 69.6479 95.2946C69.2905 94.9969 69.1118 94.58 68.9927 94.2227C68.814 93.4485 68.9331 92.7935 68.9927 92.198L69.4096 92.7339C68.397 92.5553 67.3843 92.2575 66.4312 91.7811C65.4782 91.3643 64.5846 90.8283 63.8698 89.9946C63.5124 89.5777 63.2741 89.0417 63.2146 88.5058C63.0954 87.9698 63.155 87.4339 63.3337 86.8979C63.5124 86.3619 63.8102 85.8855 64.2272 85.5878C64.6442 85.2305 65.0612 84.9327 65.5377 84.754C65.5973 84.754 65.6569 84.754 65.7164 84.754C66.4908 85.5282 67.4439 86.1237 68.4566 86.6001C69.2905 87.0766 70.4223 87.3148 71.4945 87.3743ZM71.4945 87.4934C70.3627 87.4339 69.2309 87.1957 68.2183 86.7192C67.2056 86.2428 66.193 85.6473 65.359 84.9327H65.5377C65.1207 85.1709 64.7038 85.4687 64.3464 85.7664C63.989 86.1237 63.7507 86.481 63.6315 86.9574C63.5124 87.3743 63.5124 87.9103 63.6315 88.3271C63.7507 88.744 63.989 89.1609 64.2868 89.5182C64.8825 90.1732 65.776 90.6496 66.6695 91.0069C67.563 91.3643 68.5161 91.5429 69.4692 91.7216C69.7075 91.7811 69.8862 91.9598 69.8862 92.198C69.8266 92.853 69.8266 93.389 69.9458 93.8654C70.0053 94.1036 70.1245 94.2823 70.2436 94.4014C70.4223 94.5205 70.6606 94.6396 70.8988 94.6991C71.3754 94.8182 71.9711 94.9373 72.5668 94.8778H73.4603L74.3538 94.7587L73.8773 95.2946L74.056 92.2575C74.056 91.9598 74.2942 91.7216 74.5921 91.662C76.1408 91.4238 77.63 91.0069 78.8214 90.1732C80.0128 89.3395 80.8467 88.0294 81.1446 86.6001C81.4424 85.1709 81.3828 83.563 80.668 82.2529C80.0128 80.9428 78.7618 79.9304 77.4513 79.1562C76.0813 78.3225 74.6516 77.727 73.1624 77.1315C72.4476 76.8337 71.6732 76.4764 70.9584 75.9404C70.5414 75.6427 70.2436 75.1067 70.2436 74.6303C70.184 74.1539 70.3627 73.6179 70.6606 73.2606C71.3158 72.4865 72.2689 72.2482 73.1029 72.2482C73.9368 72.1887 74.7708 72.3078 75.6047 72.4269C76.4387 72.546 77.2131 72.7842 77.9875 73.082C78.7618 73.3797 79.4767 73.737 80.1319 74.273H79.8936C80.251 74.0348 80.5489 73.737 80.7872 73.4393C81.085 73.1415 81.2637 72.7842 81.3828 72.3673C81.6211 71.5932 81.502 70.6999 80.9659 70.0448C80.4297 69.3898 79.6554 69.0325 78.881 68.6752C78.1066 68.3179 77.2726 68.1392 76.3791 67.9605C76.26 67.9605 76.2004 67.8414 76.2004 67.7223C76.26 67.0673 76.3195 66.4718 76.1408 65.9358C76.0813 65.638 75.9026 65.3998 75.7239 65.2807C75.5452 65.1021 75.2473 64.983 75.009 64.9234C74.4729 64.7448 73.8177 64.6852 73.222 64.7448C72.9242 64.7448 72.6263 64.7448 72.3285 64.8043L71.435 64.983L71.7328 64.6257L71.6137 67.7223C71.6137 67.9605 71.435 68.0796 71.2563 68.1392C69.9458 68.3774 68.6948 68.7347 67.6226 69.3898C66.5504 70.0448 65.7164 71.0572 65.2995 72.2482C64.8825 73.3797 64.7633 74.7494 65.0016 76C65.2399 77.191 65.9547 78.3225 66.9078 79.2158C67.8609 80.0495 69.1118 80.7046 70.3032 81.2405C70.8988 81.5383 71.5541 81.7765 72.1498 82.0742C72.7455 82.372 73.4007 82.6102 74.056 82.9079C74.6516 83.2653 75.3069 83.6226 75.6047 84.3372C75.9026 84.9923 75.7834 85.7664 75.426 86.3619C75.009 86.9574 74.4134 87.3743 73.6986 87.4934C72.8646 87.553 72.2093 87.553 71.4945 87.4934Z" fill="black"/>
<path d="M134.815 68.1392C136.789 68.1392 138.389 66.5395 138.389 64.5661C138.389 62.5928 136.789 60.993 134.815 60.993C132.841 60.993 131.241 62.5928 131.241 64.5661C131.241 66.5395 132.841 68.1392 134.815 68.1392Z" fill="#ECCEFF"/>
<path d="M191.703 136.981C192.394 136.981 192.954 136.421 192.954 135.73C192.954 135.039 192.394 134.479 191.703 134.479C191.012 134.479 190.452 135.039 190.452 135.73C190.452 136.421 191.012 136.981 191.703 136.981Z" fill="#F089C0"/>
<path d="M168.531 69.9853C170.011 69.9853 171.211 68.7855 171.211 67.3055C171.211 65.8255 170.011 64.6257 168.531 64.6257C167.05 64.6257 165.85 65.8255 165.85 67.3055C165.85 68.7855 167.05 69.9853 168.531 69.9853Z" fill="#77F169"/>
<path d="M23.6018 104.049C24.2268 104.049 24.7336 103.542 24.7336 102.917C24.7336 102.292 24.2268 101.786 23.6018 101.786C22.9767 101.786 22.47 102.292 22.47 102.917C22.47 103.542 22.9767 104.049 23.6018 104.049Z" fill="#F089C0"/>
<path d="M77.6895 30.9196C80.5188 30.9196 82.8124 28.6266 82.8124 25.7981C82.8124 22.9697 80.5188 20.6767 77.6895 20.6767C74.8602 20.6767 72.5667 22.9697 72.5667 25.7981C72.5667 28.6266 74.8602 30.9196 77.6895 30.9196Z" fill="#0049E5"/>
<path d="M25.2697 75.5832C26.8159 75.5832 28.0694 74.33 28.0694 72.7842C28.0694 71.2384 26.8159 69.9853 25.2697 69.9853C23.7234 69.9853 22.47 71.2384 22.47 72.7842C22.47 74.33 23.7234 75.5832 25.2697 75.5832Z" fill="#0049E5"/>
<path d="M39.0299 36.041C40.4446 36.041 41.5914 34.8945 41.5914 33.4803C41.5914 32.0661 40.4446 30.9196 39.0299 30.9196C37.6153 30.9196 36.4685 32.0661 36.4685 33.4803C36.4685 34.8945 37.6153 36.041 39.0299 36.041Z" fill="#F089C0"/>
<path d="M97.4065 12.4586C100.696 12.4586 103.363 9.79242 103.363 6.50348C103.363 3.21455 100.696 0.54834 97.4065 0.54834C94.1167 0.54834 91.4497 3.21455 91.4497 6.50348C91.4497 9.79242 94.1167 12.4586 97.4065 12.4586Z" fill="#77F169"/>
<path d="M111.286 45.6883C112.01 45.6883 112.597 45.1018 112.597 44.3782C112.597 43.6546 112.01 43.0681 111.286 43.0681C110.562 43.0681 109.976 43.6546 109.976 44.3782C109.976 45.1018 110.562 45.6883 111.286 45.6883Z" fill="#ECCEFF"/>
<path d="M4.12293 127.631C5.86656 127.631 7.28004 126.218 7.28004 124.475C7.28004 122.732 5.86656 121.319 4.12293 121.319C2.37931 121.319 0.96582 122.732 0.96582 124.475C0.96582 126.218 2.37931 127.631 4.12293 127.631Z" fill="#ECCEFF"/>
<path d="M118.851 72.7842C119.641 72.7842 120.281 72.1443 120.281 71.355C120.281 70.5656 119.641 69.9258 118.851 69.9258C118.061 69.9258 117.421 70.5656 117.421 71.355C117.421 72.1443 118.061 72.7842 118.851 72.7842Z" fill="#F089C0"/>
<path d="M138.33 45.2119C140.863 45.2119 142.917 43.1589 142.917 40.6264C142.917 38.094 140.863 36.041 138.33 36.041C135.797 36.041 133.743 38.094 133.743 40.6264C133.743 43.1589 135.797 45.2119 138.33 45.2119Z" fill="#F089C0"/>
<path d="M190.75 85.8856C192.395 85.8856 193.728 84.5525 193.728 82.908C193.728 81.2635 192.395 79.9304 190.75 79.9304C189.105 79.9304 187.771 81.2635 187.771 82.908C187.771 84.5525 189.105 85.8856 190.75 85.8856Z" fill="#0049E5"/>
</svg>
