<?xml version="1.0" encoding="utf-8"?>
<!-- Generator: Adobe Illustrator 25.4.1, SVG Export Plug-In . SVG Version: 6.00 Build 0)  -->
<svg version="1.1" id="Capa_1" xmlns="http://www.w3.org/2000/svg" xmlns:xlink="http://www.w3.org/1999/xlink" x="0px" y="0px"
	 viewBox="0 0 678.1 707.5" style="enable-background:new 0 0 678.1 707.5;" xml:space="preserve">
<style type="text/css">
	.st0{fill:#0049E5;}
	.st1{fill:#F089C0;}
	.st2{fill:#FAE058;}
	.st3{fill:#ECCEFF;}
	.st4{fill:#77F169;}
</style>
<g>
	<path class="st0" d="M336.5,233.4c0,0-0.3-17.4-1.5-17.2c-1.2,0.2-2.7,1.3-2.7,1.3s-0.8,13.1-1.7,15.9S336.5,233.4,336.5,233.4z"/>
	<path class="st0" d="M400.5,200.4c0,0,8.9,11.6,5.6,15.8c-3.4,4.2,6.7-0.9,6.7-0.9s-4.4-14.3-7.5-16.2
		C402.3,197.3,400.5,200.4,400.5,200.4z"/>
	<path class="st0" d="M300.7,271.2c-0.1-2.2,14.9-35.1,28-38.6s17.2-1.6,23.8-4.9c6.5-3.3,9-10.4,26.9-10.1
		c17.9,0.3,20.8-6.5,36.4-5.1c15.5,1.4,12.6,9.1,32.3-10.6c19.7-19.7,72.9-54.8,89.9-53.5c17.1,1.3,42.4,14.3,36.3,40.7
		s-40.9,133.6-40,141.5s14,7,0,16.3c-14,9.3-1,18.2-8.9,19.6c-7.9,1.4-29.4,8.9-35.4-10.7s-10.2-18.4-1.3-31.8s-0.8-19.5,7.3-31.6
		c8.1-12.1,3.4-38.7,3.4-38.7S470.5,283,463,292.4c-7.6,9.3-31.6,21-46.9,22.4c-15.2,1.4-34.4,7-34.4,7s-52.5,68.5-45.8,84.3
		c6.7,15.8,45.1,50.8,56.4,76.4c11.3,25.6,41.9,41.9,35.9,47.5c-6,5.6,25.5,14.4,14.2,17.7s-34.9,11.1-39.1,18.9
		c-4.3,7.8-12.1,5.8-19.8-8.2c-7.8-14-107.4-129.1-116.3-140.3c-9-11.2-17.7-19,4.2-58.5C293.3,320.3,301.6,289.2,300.7,271.2z"/>
	<path class="st1" d="M221.1,113.4c0,0,12.5,36.8,9.2,44.7c0,0,40.2,24.8,53.7,47.7s20.8,38.5,20.8,38.5s20.5-30.3,30.1-31.9
		c9.6-1.6,22.5-11.4,31.2-13.3c8.7-1.9,29.1,0,29.1,0s8.3-7.9,20.4-3.3c12.1,4.7,27.4,3.3,27.4,3.3l7.7-7c0,0-43.3-47.1-45.4-55.5
		c-2.1-8.4,0.4-23.9-9-32.9S377,84.7,366.1,88.3c-10.9,3.7-22.8,12.2-33.8,10.9c-11.1-1.2-45.2,2.2-53.3,2
		C270.9,101.1,221.1,113.4,221.1,113.4z"/>
	<g>
		<path d="M284.5,80.5c0.8,0.2,1.8,0.2,2.6,0.2c0.9,0,1.8,0,2.7-0.1c1.8-0.2,3.6-0.4,5.3-0.8c3.4-0.8,6.8-2.3,9.2-4.7
			c2.4-2.4,3.5-5.9,3.4-9.3c0-1.7-0.4-3.3-1-5c-0.6-1.7-1.3-3.3-2.1-4.9c-1.6-3.2-3.5-6.3-5.7-9.1c-2.2-2.8-4.7-5.5-7.6-7.6
			c-3-2.2-5.4-5-8-7.4c-2.6-2.5-5.7-4.4-9.1-5.4c-3.4-1-7-1-10.5-0.6c-0.9,0-1.8,0.2-2.6,0.4c-0.9,0.2-1.8,0.2-2.6,0.5l-2.6,0.7
			c-0.9,0.2-1.6,0.6-2.5,0.9c-3.2,1.3-6.2,3.2-8.6,5.8c-2.4,2.5-4.1,5.6-5,9c-1,3.3-1.2,6.9-0.7,10.3c0.2,0.8,0.3,1.7,0.6,2.5
			l0.4,1.2l0.5,1.2c0.3,0.8,0.8,1.6,1.2,2.4l1.2,2.4c3.2,6.5,6.3,13.1,9.1,19.8c0,0.1,0,0.1-0.1,0.1c0,0-0.1,0-0.1,0l-10.3-19.1
			l-1.3-2.4c-0.4-0.8-0.9-1.5-1.3-2.4l-0.6-1.3l-0.5-1.3c-0.3-0.9-0.5-1.8-0.7-2.7c-0.7-3.7-0.5-7.6,0.5-11.2c1-3.6,2.9-7.1,5.6-9.8
			c2.6-2.7,5.9-4.8,9.4-6.1c3.5-1.4,7.2-1.9,10.9-2.3c3.7-0.3,7.5-0.1,11,1.1c3.6,1.2,6.6,3.4,9.3,5.9c1.3,1.3,2.6,2.6,3.8,3.9
			c1.3,1.3,2.6,2.5,4.1,3.5c6,4.2,10.7,10.1,14.4,16.5c0.9,1.6,1.7,3.3,2.3,5.1c0.3,0.9,0.6,1.8,0.8,2.7l0.2,0.7l0.1,0.7
			c0.1,0.5,0.1,1,0.1,1.4c0,1.9-0.2,3.8-0.9,5.6c-0.7,1.8-1.8,3.5-3.2,4.8c-1.4,1.3-3,2.3-4.8,3.1c-1.7,0.7-3.5,1.2-5.3,1.6
			c-1.8,0.3-3.7,0.5-5.5,0.5c-0.9,0-1.8,0-2.7-0.1c-0.9-0.1-1.8-0.2-2.7-0.5c0,0-0.1-0.1-0.1-0.1C284.3,80.5,284.4,80.5,284.5,80.5
			L284.5,80.5z"/>
	</g>
	<g>
		<path d="M308.4,69.3c0.6,1.2,1.1,2.3,1.6,3.5c0.3,0.6,0.5,1.2,0.7,1.7c0.3,0.6,0.4,1.2,0.6,1.8c0.4,1.2,0.6,2.5,1,3.7
			c0.5,1.2,1.1,2.3,1.9,3.3c0.4,0.5,0.8,1,1.1,1.5l1.1,1.6c0.7,1.1,1.4,2.1,2.1,3.1c1.3,2.1,2.7,4.2,4.1,6.4c0,0,0,0.1,0,0.1
			c0,0-0.1,0-0.1,0c-2.3-1.3-4.2-3.2-5.7-5.3c-0.8-1.1-1.4-2.2-2-3.4c-0.6-1.1-1.1-2.3-1.5-3.6c-0.4-1.2-0.9-2.4-1.5-3.5
			c-0.6-1.1-1.4-2.2-2-3.3c-0.6-1.1-1-2.4-1.3-3.7c-0.3-1.3-0.5-2.6-0.3-3.9C308.2,69.3,308.3,69.3,308.4,69.3
			C308.4,69.3,308.4,69.3,308.4,69.3z"/>
	</g>
	<g>
		<path d="M257.4,90.3c0.8-0.1,1.5,0,2.2,0.2c0.7,0.2,1.3,0.5,1.9,1c0.5,0.5,0.9,1.1,1.5,1.6c0.5,0.4,1.1,0.8,1.8,1.1
			c0.3,0.2,0.6,0.3,0.9,0.5c0.3,0.2,0.6,0.4,0.8,0.7c0.6,0.5,1,1,1.5,1.6c0.8,1.3,1.2,2.8,1,4.2c0,0.1-0.1,0.1-0.1,0.1
			c0,0,0,0-0.1,0l0,0c-1-1.1-1.7-2.1-2.5-3.1c-0.4-0.5-0.7-1.1-1.1-1.6c-0.4-0.5-0.8-1.1-1.1-1.7c-0.4-0.6-0.8-1.1-1.4-1.4
			c-0.6-0.4-1.3-0.4-1.9-0.7c-0.6-0.2-1.2-0.6-1.7-1c-0.5-0.4-1.1-0.8-1.5-1.4l0,0C257.3,90.4,257.3,90.3,257.4,90.3
			C257.4,90.3,257.4,90.3,257.4,90.3z"/>
	</g>
	<path d="M261.1,39.6c1.6-0.4,2.6,3,0.7,3.7s-11.4,6.5-11.9,9.1s-0.9,4.2-0.9,4.2s-0.8,1.2-0.3-4.2S254.8,41.2,261.1,39.6z"/>
	<path d="M270.8,34.6c-0.7,1,0.2,1.4,1.6,1.6c1.4,0.2,9.2-4.1,12.3-3.7c0,0-3.5-1.9-5.5-1.2C277.2,31.9,271.6,33.2,270.8,34.6z"/>
	<g>
		<path d="M254.8,56.7c-0.3-0.5-0.3-1-0.3-1.4c0.1-0.4,0.2-0.9,0.5-1.2c0.3-0.3,0.8-0.5,1.1-0.8c0.3-0.3,0.5-0.7,0.6-1.1
			c0.1-0.2,0.2-0.4,0.3-0.7c0.1-0.2,0.3-0.4,0.4-0.6c0.3-0.4,0.7-0.7,1.1-0.9c0.9-0.4,1.9-0.3,2.8,0.2c0.1,0,0.1,0.1,0,0.2
			c0,0,0,0,0,0l0,0c-0.7,0.7-1.3,1.1-1.8,1.5c-0.3,0.2-0.6,0.3-0.9,0.5c-0.3,0.2-0.7,0.3-1.1,0.5c-0.4,0.2-0.7,0.4-0.9,0.8
			c-0.2,0.4-0.1,0.9-0.1,1.2c-0.1,0.4-0.3,0.7-0.5,1c-0.3,0.3-0.5,0.6-1,0.9l0,0C254.9,56.8,254.8,56.7,254.8,56.7
			C254.8,56.7,254.8,56.7,254.8,56.7z"/>
	</g>
	<g>
		<path d="M279.6,40.8c0-0.5,0.2-0.8,0.5-1.1c0.2-0.2,0.5-0.5,0.9-0.5c0.4,0,0.8,0.2,1.1,0.2c0.3,0,0.6-0.2,0.9-0.4
			c0.3-0.3,0.6-0.4,0.9-0.5c0.3-0.1,0.7-0.2,1-0.2c0.7,0.1,1.4,0.5,1.8,1.2c0,0.1,0,0.1,0,0.2l0,0c-0.7,0.5-1.3,0.7-1.8,0.7
			c-0.3,0-0.5,0-0.8-0.1c-0.3,0-0.6-0.1-0.9-0.3c-0.3-0.1-0.6-0.2-0.9,0c-0.3,0.1-0.4,0.5-0.6,0.8c-0.2,0.2-0.5,0.3-0.8,0.3
			c-0.3,0-0.6,0-1.1-0.1l0,0C279.7,40.9,279.6,40.8,279.6,40.8z"/>
	</g>
	<g>
		<path d="M277.6,61.9c0.5-0.5,1.1-0.9,1.6-1.2c0.6-0.3,1.1-0.6,1.8-0.7c0.6-0.1,1.4-0.1,2-0.3c0.6-0.2,1.1-0.6,1.6-1.1
			c0.4-0.5,0.9-0.9,1.4-1.4c0.5-0.4,0.9-0.9,1.4-1.2c1-0.7,1.9-1.5,3.2-2.2l0,0c0.1,0,0.1,0,0.2,0c0,0,0,0,0,0.1
			c-0.2,1.4-1,2.7-1.9,3.7c-0.5,0.5-1.1,0.9-1.7,1.2c-0.6,0.4-1.2,0.6-1.9,0.8c-0.7,0.2-1.3,0.4-1.9,0.7c-0.6,0.4-1,0.9-1.6,1.3
			c-0.6,0.4-1.2,0.5-1.9,0.6c-0.7,0.1-1.4,0.1-2.1-0.1C277.5,62.1,277.5,62,277.6,61.9C277.5,61.9,277.5,61.9,277.6,61.9L277.6,61.9
			z"/>
	</g>
	<g>
		<path d="M268.8,39.2c0.9-0.1,1.7-0.1,2.5,0c0.8,0.1,1.6,0.3,2.3,0.7c0.7,0.4,1.4,0.9,2.1,1.3c0.7,0.3,1.5,0.5,2.3,0.6
			c0.8,0.1,1.6,0.3,2.4,0.7c0.8,0.4,1.6,0.8,2.2,1.7c0.6,0.8,0.8,2,0.5,3c-0.3,1-0.9,1.6-1.6,2.1c0,0-0.1,0-0.1,0c0,0,0,0,0-0.1l0,0
			c0.1-0.9,0.3-1.6,0.2-2.2c-0.1-0.6-0.3-1.1-0.7-1.5c-0.3-0.4-0.8-0.9-1.4-1.3l-1.9-1.3c-0.7-0.5-1.4-0.8-2.1-1
			c-0.8-0.2-1.6-0.2-2.4-0.3c-0.8-0.1-1.5-0.4-2.2-0.8c-0.7-0.4-1.4-0.7-2.1-1.3C268.7,39.4,268.7,39.3,268.8,39.2
			C268.8,39.2,268.8,39.2,268.8,39.2z"/>
	</g>
	<g>
		<path d="M273.5,46.7c0.2,0.5,0.2,0.9,0.2,1.2c0,0.3-0.1,0.7-0.3,0.9c-0.2,0.3-0.7,0.5-0.8,0.8c-0.2,0.3-0.2,0.7-0.1,1
			c0.1,0.4,0.2,0.7,0.2,1c0.1,0.3,0.1,0.5,0.2,0.7c0,0.2-0.1,0.2,0,0.4c0,0.2,0.3,0.5,0.6,0.8l0,0c0.1,0,0.1,0.1,0,0.2c0,0,0,0,0,0
			c-0.3,0.3-0.8,0.5-1.4,0.4c-0.6-0.1-1.1-0.7-1.3-1.2c-0.2-0.5-0.1-1,0-1.4c0.1-0.4,0.3-0.8,0.6-1.1c0.3-0.3,0.5-0.6,0.5-1
			c0.1-0.4-0.1-0.8-0.1-1.2c0-0.4,0.2-0.7,0.5-1c0.3-0.3,0.6-0.5,1.1-0.6C273.4,46.6,273.4,46.6,273.5,46.7L273.5,46.7z"/>
	</g>
	<g>
		<path d="M281.4,43.6c0.2-0.4,0.5-0.5,0.7-0.6c0.2-0.1,0.4-0.1,0.6,0.1c0.2,0.2,0.3,0.5,0.4,0.7c0.2,0.1,0.4,0.1,0.6,0
			c0.3-0.1,0.5-0.1,0.8,0c0.2,0.1,0.5,0.2,0.7,0.4c0.2,0.3,0.3,0.6,0.2,1c-0.1,0.2-0.1,0.4-0.2,0.5c-0.1,0.1-0.3,0.2-0.5,0.3
			c-0.1,0-0.1,0-0.2,0l0,0c-0.6-0.6-0.8-0.3-0.9-0.3c-0.1,0-0.1-0.1-0.1-0.3c-0.1-0.1-0.1-0.3-0.2-0.6c-0.1-0.2-0.2-0.4-0.4-0.4
			c-0.2,0-0.4,0.3-0.6,0.3c-0.2,0.1-0.3,0-0.5-0.2c-0.1-0.2-0.3-0.4-0.4-0.8l0,0C281.3,43.8,281.3,43.7,281.4,43.6z"/>
	</g>
	<path d="M288.3,36.1c2.2,2.9-1.1-10.8-5.3-9.6c-4.2,1.2-8.8,0.2-5.4-5.2c3.3-5.4-4.1-5.8-7-9.6c-2.9-3.8-8-11-13.2-4.5
		c-5.1,6.5-6.3,1-9.7,5.9c-3.3,4.9-6.8-6.6-11.7,3.5c-4.9,10.1-7.5,13.6-7.5,17.8s3.1,8.3-0.9,15.7s-3.7,30.3,10.2,35.4
		c0,0,1.6-8.5,7.6-6.1c6,2.4,3.8-2.1,3.8-2.1s-6.7-12.3-9.8-19.2s-2.5-21.7,9.2-28.4C260.3,22.9,277.2,21.3,288.3,36.1z"/>
	<g>
		<path d="M237.9,85.4c1,2.4,2.2,4.5,3.6,6.4c0.7,1,1.4,2.1,2.4,2.8c1,0.7,2.2,1.2,3.4,1.5c1.2,0.3,2.4,0.5,3.6,0.5
			c1.2,0,2.3-0.2,3.2-0.6c2-0.8,3.6-2.7,5.2-4.8c0,0,0.1-0.1,0.1,0c0,0,0,0.1,0,0.1c-0.2,1.3-0.7,2.6-1.4,3.8
			c-0.7,1.2-1.8,2.3-3.1,2.9c-1.4,0.6-2.9,0.7-4.3,0.5c-0.7-0.1-1.4-0.3-2-0.5c-0.6-0.3-1.2-0.5-1.8-0.9c-1.2-0.7-2.3-1.3-3.4-2
			c-1.1-0.7-2.3-1.3-3.3-2.3c-1-1-1.7-2.2-2.1-3.5c-0.4-1.3-0.7-2.7-0.4-4C237.7,85.4,237.8,85.3,237.9,85.4
			C237.9,85.3,237.9,85.4,237.9,85.4L237.9,85.4z"/>
	</g>
	<g>
		<path d="M243.4,84.5c-0.5,0.6-0.9,1.1-1.1,1.5c-0.1,0.4,0,0.8,0,1.4c0,0.3,0.1,0.6,0.1,0.9c0.1,0.3,0.2,0.7,0.4,0.9
			c0.4,0.6,1,1,1.6,1.2c1.3,0.4,2.5,0.7,3.7,0.8c1.2,0.2,2.5,0.3,4,0.3l0,0c0.1,0,0.1,0,0.1,0.1c0,0,0,0.1,0,0.1
			c-1,1.3-2.7,1.7-4.3,1.7c-0.8,0-1.6-0.3-2.3-0.6c-0.7-0.3-1.4-0.8-1.9-1.4c-0.5-0.6-1-1.2-1.5-1.7c-0.5-0.5-1.2-1-1.6-1.7
			c-0.4-0.7-0.4-2,0.2-2.7c0.6-0.8,1.5-1,2.3-0.9C243.4,84.3,243.4,84.3,243.4,84.5C243.4,84.4,243.4,84.4,243.4,84.5L243.4,84.5z"
			/>
	</g>
	<g>
		<path d="M244.6,88.3c-0.7-0.4-0.5-1.2-0.1-1.4c0.3-0.1,0.6,0.1,0.8,0c0.2,0,0.3-0.2,0.4-0.4c0.1-0.3,0.3-0.4,0.5-0.5
			c0.2-0.1,0.4-0.2,0.6-0.2c0.4,0.1,0.8,0.3,1.1,1c0,0.1,0,0.1,0,0.2l0,0c-0.2,0.3-0.3,0.5-0.5,0.7c-0.1,0.2-0.3,0.3-0.4,0.3
			c-0.1,0-0.2,0-0.4-0.1c-0.1,0-0.3-0.1-0.5-0.3c-0.2-0.1-0.4-0.2-0.5,0c-0.1,0.1,0,0.5,0,0.6c0,0.2-0.2,0.1-0.9,0.3l-0.1,0
			C244.7,88.4,244.7,88.4,244.6,88.3z"/>
	</g>
	<g>
		<path d="M302.5,247.4c-0.5-5-1.7-10-3.5-14.7c-1.9-4.7-4.5-9-7.5-13c-6.1-8-13.4-15.1-20.2-22.6c-3.4-3.7-6.9-7.4-10-11.5
			c-1.5-2-3.2-3.7-5.1-5.3c-1.9-1.7-3.9-3.2-5.9-4.7c-8.1-6-16.6-11.5-25.2-16.8l0,0c-0.3-0.2-0.4-0.5-0.4-0.8
			c0.6-3.6,0.5-7.4,0.4-11.1c-0.1-3.7-0.4-7.5-0.9-11.2c-0.8-7.4-1.9-14.9-3.4-22.2c0-0.2,0.1-0.4,0.3-0.4c0,0,0.1,0,0.1,0
			c3,0.3,6,0,8.9-0.4c3-0.5,5.9-1.1,8.8-1.8c5.8-1.5,11.6-3.4,17.1-5.7c2.8-1.1,5.4-2.7,8.4-3.5c1.5-0.5,3-0.7,4.5-0.8
			c1.5-0.1,3.1,0,4.6,0c6,0.2,12-0.1,18.1-0.3c6-0.3,12-0.8,18-1.5c3-0.4,6-0.9,8.8-1.7c2.8-0.8,5.7-1.9,8.6-2.8
			c2.9-0.9,6.1-1.4,9.1-1.5c1.5-0.1,3.1,0,4.5-0.1c1.5-0.1,2.9-0.3,4.3-0.7c2.7-0.8,5.5-2.2,8.3-3.3c2.8-1.1,5.7-2.1,8.6-3l0,0
			c0,0,0.1,0,0.1,0c4.5-0.7,9-0.7,13.5-0.1c4.5,0.6,8.9,1.9,12.9,4.1c2,1.1,3.9,2.4,5.6,4c0.8,0.8,1.6,1.6,2.4,2.5
			c0.4,0.4,0.7,0.9,1.1,1.3c0.4,0.5,0.7,0.9,1,1.3c2.6,3.4,5.6,6.7,8.5,9.9c0.3,0.3,0.4,0.9,0.1,1.2l0,0c-2,3.3-3.4,7.6-1.2,10.8
			c0.5,0.9,1.1,1.8,1.5,2.9c0.5,1.1,0.7,2.2,0.9,3.3c0.3,2.1,0.5,4.2,0.8,6.3c0.3,1.8,1.4,3.7,2.4,5.4c1.1,1.8,2.2,3.5,3.4,5.2
			c2.4,3.4,5,6.8,7.6,10.1c5.2,6.6,10.7,13,16.4,19.2c2.9,3.1,5.7,6.2,8.7,9.1c3,3,6,5.9,9.3,8.5c0,0,0.1,0.1,0,0.1
			c0,0-0.1,0.1-0.1,0c-3.4-2.5-6.5-5.4-9.6-8.2c-3.1-2.9-6.1-5.9-9-8.9c-5.8-6.1-11.5-12.4-16.9-18.9c-2.7-3.3-5.3-6.6-7.8-10
			c-1.2-1.7-2.4-3.5-3.5-5.3c-0.5-0.9-1.1-1.9-1.6-2.8c-0.5-1-0.9-2-1.2-3.2c-0.3-2.1-0.5-4.2-0.8-6.3c-0.2-1-0.4-1.9-0.8-2.8
			c-0.4-0.9-0.9-1.8-1.5-2.7l-0.4-0.7l-0.4-0.8c-0.2-0.3-0.2-0.6-0.3-0.9c-0.1-0.3-0.2-0.6-0.2-0.9c-0.2-1.2-0.2-2.4,0-3.5
			c0.4-2.3,1.3-4.3,2.5-6.2l0.1,1.3c-3-3.3-6-6.5-8.7-10.1c-0.3-0.5-0.7-0.9-1-1.3c-0.3-0.4-0.6-0.9-1-1.2c-0.7-0.8-1.4-1.6-2.2-2.3
			c-1.6-1.4-3.3-2.7-5.2-3.7c-3.7-2-7.9-3.2-12.2-3.8c-4.3-0.6-8.7-0.6-12.9,0l0.1,0c-2.9,0.9-5.7,1.8-8.5,2.9
			c-2.8,1-5.5,2.4-8.5,3.3c-1.5,0.4-3.1,0.7-4.7,0.7c-1.6,0.1-3.1,0-4.5,0.1c-3,0.1-5.9,0.5-8.7,1.3c-2.9,0.8-5.7,1.8-8.7,2.7
			c-3,0.8-6,1.2-9,1.6c-6,0.7-12.1,1-18.1,1.3c-6,0.2-12.1,0.3-18.2,0.1c-3-0.1-6-0.3-8.9,0.6c-2.9,0.8-5.5,2.4-8.3,3.5
			c-5.6,2.3-11.4,4.1-17.3,5.6c-2.9,0.8-5.9,1.4-8.9,1.9c-3,0.5-6,0.8-9.1,0.5l0.4-0.5c0.8,3.7,1.4,7.4,2.1,11.1
			c0.6,3.7,1.2,7.4,1.7,11.2c0.5,3.7,0.9,7.5,1.1,11.3c0.2,3.8,0.3,7.6-0.2,11.4l-0.4-0.8c4.4,2.6,8.7,5.3,12.9,8
			c4.2,2.8,8.5,5.6,12.5,8.7c2,1.6,4,3.1,5.9,4.8c1.9,1.6,3.8,3.6,5.3,5.6c3,4,6.4,7.7,9.8,11.5c3.4,3.7,6.9,7.4,10.3,11.2
			c3.4,3.8,6.7,7.7,9.7,11.8c6.1,8.2,9.9,18.2,10.4,28.3c0,0.1,0,0.1-0.1,0.1C302.5,247.5,302.5,247.5,302.5,247.4z"/>
	</g>
	<g>
		<path d="M332.2,232.6c-0.2-1.3-0.2-2.6-0.2-3.9c0-1.3,0-2.6,0.2-3.8c0.1-1.3,0.4-2.5,0.6-3.8c0.1-0.6,0.1-1.3,0-1.9
			c0-0.3-0.1-0.6-0.2-0.9c-0.1-0.1-0.1-0.3-0.2-0.4c0,0-0.1-0.1-0.1-0.1c0,0-0.1,0,0.1,0l-0.3-0.6c0.5-0.7,1.1-1.3,2.1-1.7
			c0.5-0.1,1.1-0.1,1.6,0.1c0.5,0.2,0.9,0.6,1.2,1c0.6,0.8,0.9,1.6,1.2,2.5c0.2,0.8,0.4,1.7,0.5,2.5c0.1,1.7,0,3.3-0.3,4.9
			c-0.3,1.6-0.8,3.2-1.7,4.6c0,0-0.1,0.1-0.1,0c0,0,0-0.1,0-0.1l0,0c0.2-1.6,0.2-3.1,0.2-4.7c0-1.5-0.1-3.1-0.2-4.6
			c-0.1-0.8-0.1-1.5-0.2-2.2c-0.1-0.7-0.3-1.4-0.6-1.9c-0.3-0.5-0.6-0.9-1.2-0.9c-0.6,0-1.3,0.4-1.8,0.9l-0.3-0.6
			c0.3,0,0.4,0.1,0.5,0.2c0.1,0.1,0.2,0.2,0.2,0.3c0.1,0.2,0.2,0.3,0.2,0.5c0.1,0.3,0.2,0.7,0.2,1c0.1,0.7,0.2,1.3,0.3,2
			c0.2,1.3,0.3,2.6,0.3,3.9c-0.1,1.3-0.2,2.6-0.5,3.8c-0.3,1.3-0.5,2.5-1,3.8C332.4,232.6,332.3,232.7,332.2,232.6
			C332.2,232.6,332.2,232.6,332.2,232.6z"/>
	</g>
	<g>
		<path d="M410.8,208.8c-0.7-1.4-1.3-2.6-2-3.8c-0.4-0.6-0.8-1.1-1.2-1.7c-0.4-0.5-0.8-1.1-1.3-1.6c-0.4-0.5-0.9-1.1-1.5-1.5
			c-0.6-0.4-1.2-0.7-1.9-0.7c-1.4,0-2.1,1.4-2.4,2.6l-0.5-1c1.2,0.4,2.2,1,3.2,1.7c0.5,0.4,0.9,0.8,1.3,1.3c0.4,0.5,0.7,1,1,1.5
			c0.5,1.1,0.9,2.2,1.1,3.4c0.1,1.2,0,2.4-0.5,3.5c0,0.1-0.1,0.1-0.1,0.1c0,0-0.1,0-0.1-0.1c-0.1-1.1-0.4-2.2-0.7-3.1
			c-0.4-1-0.9-1.9-1.4-2.7c-0.3-0.4-0.6-0.8-0.9-1.2c-0.3-0.4-0.6-0.7-1-1.1c-0.7-0.7-1.6-1.3-2.5-1.8l-0.2-0.1
			c-0.3-0.2-0.5-0.6-0.3-0.9c0.4-0.8,0.9-1.4,1.6-2c0.7-0.5,1.6-0.8,2.4-0.7c0.8,0,1.6,0.4,2.2,0.7c0.7,0.3,1.4,0.7,2.1,1.1
			c0.7,0.4,1.3,0.9,1.8,1.5c0.5,0.6,0.9,1.3,1.2,2c0.6,1.4,0.9,3,0.8,4.5C411,208.8,411,208.9,410.8,208.8
			C410.9,208.9,410.8,208.8,410.8,208.8z"/>
	</g>
	<g>
		<path d="M344.3,216.3c-0.3,0.4-0.6,0.6-0.9,0.7c-0.3,0.1-0.6,0.2-1,0.1c-0.3-0.1-0.7-0.4-1-0.4c-0.3,0-0.7,0.1-0.9,0.4
			c-0.3,0.2-0.6,0.4-0.9,0.6c-0.3,0.1-0.6,0.3-0.9,0.3c-0.6,0.1-1.3,0-2.1-0.4c-0.1,0-0.1-0.1-0.1-0.2c0,0,0,0,0,0
			c0.4-0.8,1.1-1.2,1.7-1.5c0.3-0.1,0.7-0.1,1-0.1c0.3,0,0.7,0.1,1.1,0.2c0.4,0.1,0.7,0.2,1,0.1c0.3-0.1,0.6-0.5,0.9-0.6
			c0.3-0.2,0.7-0.1,1,0c0.3,0.1,0.7,0.2,1.1,0.6C344.4,216.2,344.4,216.3,344.3,216.3z"/>
	</g>
	<g>
		<path d="M332.3,217.6c-1.7,1.6-3.4,3.1-5.1,4.6c-1.7,1.5-3.3,3.1-5,4.6c-1.7,1.5-3.3,3.2-4.9,4.7c-0.8,0.8-1.6,1.6-2.4,2.4
			c-0.8,0.8-1.6,1.6-2.4,2.4c-3.1,3.3-6.2,6.6-8.8,10.3c-0.6,0.9-1.3,1.9-1.8,2.8l-0.8,1.5l-0.7,1.5c-0.3,0.5-0.5,1-0.6,1.6
			c-0.2,0.5-0.4,1.1-0.5,1.6c-0.3,1.1-0.5,2.2-0.5,3.2l0,0c0,2.8,0,5.6,0.1,8.4l0.1,2.1l0.1,1c0,0.2,0,0.3,0.1,0.4c0,0,0,0,0,0l0,0
			l0,0c0,0,0-0.1-0.1-0.1c-0.1-0.1-0.1-0.1-0.2-0.2c-0.2-0.1-0.6-0.1-0.7,0c0,0-0.1,0-0.1,0c-0.1,0-0.1,0.1-0.1,0.1c0,0,0,0,0,0.1
			l0,0l0-0.1l0.1-0.1l1.7-3.8c2.4-5.1,5-10.1,8-14.9c3-4.8,6.5-9.3,10.5-13.3c4-4,8.7-7.5,14.1-9.3c0.1,0,0.1,0,0.1,0.1
			c0,0,0,0.1-0.1,0.1c-5.1,2.4-9.3,6.1-13,10.2c-3.7,4.1-6.9,8.7-9.9,13.3c-3,4.7-5.8,9.5-8.3,14.5l-1.9,3.8l-0.1,0.1l0,0.1l0,0
			c0,0,0,0.1-0.1,0.1c-0.1,0.1-0.1,0.2-0.2,0.2c0,0-0.1,0.1-0.1,0.1c0,0.1-0.5,0.1-0.7,0c-0.2-0.1-0.2-0.1-0.2-0.2
			c-0.1-0.1-0.1-0.2-0.1-0.2l0-0.1c0-0.1,0-0.1,0-0.1c0-0.1,0-0.1,0-0.1c0-0.3,0-0.4,0-0.6c0-0.4,0-0.7,0-1.1l0.1-2.1l0.4-8.4l0,0
			c0-1.3,0.3-2.4,0.6-3.5c0.2-0.6,0.3-1.1,0.6-1.6c0.2-0.5,0.4-1.1,0.7-1.6l0.7-1.6l0.8-1.5c0.5-1,1.1-2,1.7-3
			c0.5-1,1.2-1.9,1.9-2.9c0.6-1,1.3-1.9,2-2.8c1.3-1.9,2.9-3.6,4.4-5.3c1.6-1.7,3.2-3.3,4.8-4.9l2.5-2.3c0.9-0.8,1.7-1.5,2.6-2.3
			c1.8-1.4,3.5-2.9,5.4-4.3c1.9-1.3,3.7-2.7,5.6-4c0,0,0.1,0,0.1,0C332.4,217.5,332.4,217.6,332.3,217.6z"/>
	</g>
	<g>
		<path d="M399.7,201.9c-0.7,0.4-1.5,0.6-2.2,0.8c-0.7,0.1-1.5,0.2-2.2,0.1c-0.8-0.1-1.5-0.4-2.3-0.4c-0.8,0-1.5,0.1-2.2,0.3
			c-0.7,0.2-1.5,0.4-2.2,0.5c-0.7,0.1-1.5,0.2-2.2,0.2c-1.5,0-3-0.2-4.5-0.8c-0.1,0-0.1-0.1-0.1-0.1c0,0,0,0,0.1-0.1
			c1.5-0.7,3-1,4.5-1.1c0.7-0.1,1.5,0,2.3,0c0.8,0,1.5,0.1,2.3,0.3c0.8,0.2,1.5,0.2,2.3,0.1c0.7-0.1,1.5-0.4,2.2-0.6
			c0.7-0.2,1.5-0.1,2.3,0c0.8,0.1,1.5,0.2,2.3,0.6C399.8,201.7,399.8,201.8,399.7,201.9C399.8,201.9,399.8,201.9,399.7,201.9z"/>
	</g>
	<g>
		<path d="M406.1,210.8c-0.9,0.4-1.8,0.5-2.7,0.6c-0.9,0.1-1.8,0.1-2.7,0c-0.9-0.1-1.8-0.5-2.7-0.6c-0.9-0.1-1.8,0-2.7,0.2
			c-0.9,0.2-1.8,0.3-2.7,0.4c-0.9,0.1-1.8,0.1-2.7,0.1c-1.8-0.1-3.6-0.4-5.4-0.7l-0.1,0c-0.1,0-0.1-0.1-0.1-0.1c0,0,0,0,0-0.1
			c0.9-0.5,1.8-0.7,2.7-0.9c0.9-0.2,1.8-0.3,2.7-0.3c0.9,0,1.8,0,2.7,0.1c0.9,0.1,1.8,0.2,2.7,0.4c0.9,0.2,1.8,0.3,2.7,0.3
			c0.9,0,1.8-0.4,2.7-0.5c0.9-0.1,1.8,0,2.7,0.1c0.9,0.2,1.8,0.3,2.7,0.7C406.2,210.6,406.2,210.7,406.1,210.8
			C406.2,210.8,406.1,210.8,406.1,210.8z"/>
	</g>
	<g>
		<path d="M374.3,202.6c0,0,0-0.1,0-0.2l0,0l0,0l0-0.1c0,0,0.1-0.1,0.1-0.1c0.1-0.1,0.2-0.1,0.3-0.1c0.2,0,0.4,0.1,0.5,0.2
			c0.3,0.2,0.5,0.4,0.8,0.7c0.4,0.5,0.8,1,1.1,1.5c0.6,1,1.2,2,1.7,3.1c0.6,1.1,1,2.2,1.2,3.5c0.2,1.3,0.1,2.6-0.5,3.8l-0.2-0.5
			c0.9,0.5,2,0.8,2.9,0.6c0.2,0,0.4-0.2,0.5-0.3c0.1-0.1,0.2-0.3,0.3-0.6c0.1-0.5,0.2-1,0.3-1.5c0.1-2-0.1-4.1-0.8-5.8
			c-0.4-0.8-0.9-1.8-1.4-2.7c-0.5-0.9-1-1.7-1.7-2.3c-0.2-0.1-0.3-0.3-0.5-0.4c-0.2-0.1-0.2-0.2-0.4-0.2c-0.3-0.1-0.8,0-1.3,0.1
			c-0.5,0.1-0.9,0.3-1.4,0.5c-0.2,0.1-0.5,0.2-0.7,0.3l-0.4,0.2C374.7,202.5,374.4,202.6,374.3,202.6z M374.5,202.4
			c0.1-0.2,0-0.2,0.1-0.3c0.1-0.1,0.2-0.2,0.3-0.3c0.2-0.2,0.4-0.4,0.6-0.6c0.4-0.4,0.9-0.7,1.4-1c0.5-0.3,1.1-0.6,1.8-0.6
			c0.3,0,0.8,0.1,1.1,0.3c0.3,0.1,0.5,0.3,0.8,0.5c1,0.7,1.8,1.7,2.4,2.6c0.3,0.5,0.6,1,0.8,1.5c0.3,0.5,0.5,1,0.7,1.6
			c0.8,2.3,0.8,4.7,0.1,6.8c-0.2,0.5-0.4,1.1-0.7,1.6c-0.1,0.3-0.3,0.5-0.6,0.8c-0.3,0.2-0.6,0.4-0.9,0.4c-0.6,0.1-1.2,0-1.7-0.1
			c-0.6-0.1-1.1-0.3-1.6-0.4c-0.2-0.1-0.3-0.2-0.2-0.4l0-0.1c0.3-1,0.1-2.1-0.3-3.1c-0.4-1-0.9-2-1.3-3.1c-0.5-1.1-0.9-2.1-1.3-3.3
			c-0.2-0.6-0.4-1.1-0.6-1.6c-0.1-0.2-0.2-0.5-0.4-0.7c-0.1-0.1-0.2-0.2-0.2-0.2c0,0-0.1,0-0.1,0
			C374.6,202.5,374.6,202.5,374.5,202.4l0,0.1l0,0l0,0C374.5,202.5,374.5,202.4,374.5,202.4z"/>
	</g>
	<g>
		<path d="M374.4,202.6c-2.5,0.2-5,0.4-7.4,0.8c-2.4,0.3-4.8,0.8-7.2,1.4c-2.3,0.6-4.7,1.2-6.8,2.5c-2.1,1.2-3.9,3.1-4.8,5.3l0-0.3
			c0.7,1.3,1.5,2.6,2.3,3.9c0.4,0.6,0.8,1.2,1.3,1.8c0.2,0.3,0.5,0.5,0.6,0.7l0,0c0,0,0,0-0.1,0c-0.2-0.1-0.2,0-0.2,0l0.5-0.2
			c2.8-1.1,5.6-2.3,8.6-3.2c2.9-0.9,5.9-1.6,9-1.9c1.5-0.2,3.1-0.2,4.7,0c1.5,0.1,3.1,0.5,4.4,1.4c0,0,0.1,0.1,0,0.1
			c0,0-0.1,0.1-0.1,0c-1.4-0.5-2.9-0.5-4.4-0.5c-1.5,0.1-2.9,0.3-4.4,0.6c-2.9,0.6-5.8,1.5-8.6,2.3l-4.3,1.4c-1.4,0.5-2.8,1-4.3,1.4
			c-0.2,0.1-0.4,0.1-0.6,0.2c-0.1,0-0.4,0.1-0.8,0c-0.1,0-0.2-0.1-0.3-0.2l-0.2-0.1c-0.4-0.4-0.6-0.7-0.8-1.1
			c-0.4-0.7-0.8-1.4-1.1-2.1c-0.7-1.4-1.3-2.8-1.9-4.2l0,0c0-0.1,0-0.2,0-0.3c1.1-2.3,2.9-4.2,5-5.8c1-0.8,2.1-1.5,3.3-2
			c1.1-0.6,2.3-1.1,3.6-1.4c2.5-0.7,5-1,7.5-1.2c2.5-0.1,5.1,0,7.6,0.5C374.5,202.4,374.5,202.5,374.4,202.6
			C374.5,202.6,374.4,202.6,374.4,202.6z"/>
	</g>
	<g>
		<path d="M349,210.6c-1.3,1.4-2.6,2.9-3.3,4.4c-0.3,0.8-0.3,1.5,0,2c0.5,0.7,1,1.6,1.4,2.5c0.9,1.7,1.6,3.5,2.8,4.9
			c0.3,0.3,0.7,0.6,1.1,0.7c0.1,0,0.2,0,0.3,0c0.1,0,0.2,0,0.3,0c0.2-0.1,0.4-0.2,0.6-0.3c0.8-0.5,1.5-1.2,2.2-1.8
			c1.4-1.3,2.9-2.6,4.5-3.7c1.6-1.1,3.2-2.2,5-3.1c3.5-1.7,7.5-2.9,11.4-2.4c0.1,0,0.1,0.1,0.1,0.1c0,0,0,0.1-0.1,0.1
			c-3.8,0.8-7.2,2.3-10.5,4.1c-1.6,0.9-3.3,1.8-4.9,2.8c-1.6,1-3.2,2-4.9,3c-0.8,0.5-1.6,1-2.5,1.5c-0.2,0.1-0.5,0.2-0.7,0.3
			c-0.2,0-0.3,0.1-0.5,0c-0.1,0-0.3,0-0.4-0.1c-0.5-0.2-1-0.5-1.3-0.8c-1.5-1.4-2.7-2.9-3.8-4.5c-0.3-0.4-0.5-0.8-0.8-1.2
			c-0.3-0.4-0.5-0.7-0.8-1.3c-0.1-0.3-0.3-0.6-0.3-0.9l-0.1-0.5c0-0.2,0-0.3,0-0.5c0-0.6,0.3-1.2,0.5-1.7c0.5-1,1.3-1.7,2-2.3
			c0.8-0.6,1.6-1.2,2.5-1.6c0.1,0,0.1,0,0.1,0.1C349.1,210.5,349,210.5,349,210.6L349,210.6z"/>
	</g>
	<g>
		<path d="M348.8,223.5c-0.5,0.4-0.9,0.7-1.4,0.9c-0.5,0.2-1,0.4-1.5,0.3c-0.5,0-1.1-0.2-1.6-0.2c-0.5,0-1,0.3-1.4,0.6
			c-0.4,0.3-0.9,0.6-1.3,0.9c-0.4,0.2-0.8,0.5-1.3,0.7c-0.9,0.4-1.7,0.5-2.8,1l0,0c-0.1,0-0.1,0-0.1-0.1c0,0,0,0,0-0.1
			c0-0.3,0.1-0.6,0.2-0.9c0.1-0.3,0.3-0.5,0.5-0.8c0.2-0.2,0.4-0.4,0.6-0.6c0.2-0.2,0.5-0.3,0.7-0.5c0.5-0.3,1-0.4,1.6-0.5
			c0.5-0.1,1.1-0.2,1.7-0.1c0.6,0,1.1,0,1.6-0.2c0.5-0.2,0.9-0.6,1.4-0.8c0.5-0.2,1-0.2,1.6-0.2c0.5,0,1.1,0.1,1.7,0.4
			C348.8,223.3,348.8,223.4,348.8,223.5C348.8,223.5,348.8,223.5,348.8,223.5z"/>
	</g>
	<g>
		<path d="M431.1,213.8c9.3-8.8,18.8-17.3,28.5-25.6c9.7-8.3,19.6-16.4,29.9-24c5.2-3.8,10.4-7.4,15.9-10.8
			c5.5-3.3,11.1-6.5,17.5-8.3c6.3-1.6,12.9-1.8,19.4-0.7c6.4,1.1,12.6,3.6,17.8,7.5c5.2,3.9,9.4,9.2,11.9,15.2
			c1.3,3,2.1,6.1,2.6,9.3c0.5,3.2,0.6,6.4,0.5,9.7c-0.4,6.4-1.3,12.7-2.3,19.1c-0.9,6.3-2.1,12.6-3.2,18.9c-2.4,12.5-5.1,25-8,37.5
			c-1.4,6.2-3,12.4-4.5,18.6c-1.6,6.2-3.2,12.4-5.3,18.4c-2.1,6-4.6,11.9-7,17.9c-1.2,3-2.4,5.9-3.4,8.9c-1,3-2,6-2.4,9.1
			c-0.1,0.8-0.1,1.5,0.1,2.2c0,0.2,0.1,0.3,0.1,0.5l0.1,0.2l0.1,0.3l0.5,1.1c0.7,1.4,1.4,2.9,2,4.4c0.6,1.6,1,3.2,1,5
			c0,1.8-0.7,3.6-1.9,4.9l-0.4,0.5c-0.2,0.2-0.3,0.3-0.5,0.4c-0.3,0.3-0.7,0.6-1,0.8c-0.7,0.4-1.5,0.9-2.3,1.1l-1.2,0.5l-1.1,0.4
			c-0.7,0.2-1.4,0.6-2.1,0.9c-1.3,0.7-2.6,1.5-3.3,2.6c-0.3,0.5-0.5,1.1-0.5,1.7c0,0.6,0.3,1.2,0.7,1.8c0.2,0.3,0.4,0.6,0.6,0.9
			l0.8,0.9c0.8,0.9,0.9,1.9,0.9,2.9c0,1.9-0.6,3.6-1.7,5c-1,1.4-2.5,2.6-4.1,3.2c-1.6,0.7-3.4,0.9-4.9,1.1c-6.4,0.6-13,0.4-19.4-1.2
			c-3.2-0.8-6.3-2-9.1-3.8c-2.8-1.8-5.3-4.2-7-7.1c-0.5-0.7-0.8-1.5-1.2-2.2c-0.3-0.8-0.7-1.6-0.9-2.3l-0.8-2.3l-0.7-2.4
			c-0.2-0.8-0.4-1.6-0.5-2.4c-0.1-0.8-0.3-1.6-0.3-2.5c-0.1-0.8,0-1.7,0.1-2.6c0.1-0.9,0.4-1.7,0.6-2.5c0.2-0.7,0.4-1.4,0.5-2.1
			c0-0.3,0-0.7,0-1l-0.2-1.1c-0.3-1.5-0.9-2.8-1.4-4.5c-1-3.2-0.8-6.9,0.5-10c1.2-3.1,3.1-5.8,4.9-8.5l2.7-3.9
			c0.9-1.3,1.8-2.6,2.4-4c1.4-2.7,1.7-5.7,1.4-8.8c-0.1-1.6-0.3-3.2-0.3-4.8c0-1.7,0.2-3.4,0.8-5c0.1-0.4,0.3-0.8,0.5-1.2
			c0.2-0.4,0.3-0.8,0.5-1.1l1.2-2.1c0.7-1.3,1.2-2.8,1.5-4.3c0.7-3,0.9-6.2,1.1-9.4c0.4-6.3,0.4-12.7,0.8-19.1
			c0.4-6.4,0.9-12.8,2.6-19.1c0.4-1.6,0.9-3.1,1.5-4.6l0.9-2.2c0.3-0.7,0.6-1.4,0.9-2.2c1.1-3,1.8-6.1,2.2-9.2
			c0.9-6.3,0.9-12.7,0.2-19c0-0.1,0-0.1,0.1-0.1c0.1,0,0.1,0,0.1,0.1c0.9,6.3,1,12.8,0.3,19.1c-0.4,3.2-1,6.4-2,9.4
			c-0.2,0.8-0.6,1.5-0.8,2.3l-0.9,2.2c-0.6,1.5-1.1,3-1.4,4.5c-1.5,6.1-2,12.5-2.2,18.9c-0.3,6.4-0.2,12.7-0.5,19.1
			c-0.2,3.2-0.4,6.4-1.1,9.6c-0.3,1.6-0.8,3.2-1.6,4.7l-1.2,2c-0.2,0.3-0.3,0.7-0.5,1c-0.2,0.3-0.3,0.7-0.4,1
			c-1,2.8-0.6,5.9-0.3,9.1c0.1,1.6,0.2,3.3,0,5c-0.2,1.7-0.7,3.3-1.5,4.8c-0.4,0.8-0.8,1.5-1.2,2.2c-0.4,0.7-0.9,1.4-1.3,2
			c-0.9,1.3-1.8,2.7-2.7,4c-1.8,2.6-3.6,5.2-4.6,8.1c-0.5,1.4-0.9,2.9-0.9,4.3c-0.1,0.7,0,1.5,0.1,2.2c0,0.4,0.1,0.7,0.2,1.1
			c0.1,0.4,0.1,0.7,0.3,1.1c0.4,1.4,1.1,3,1.5,4.6c0.1,0.4,0.1,0.9,0.2,1.3c0,0.4,0,0.9,0,1.4c-0.1,0.9-0.3,1.8-0.6,2.6
			c-0.5,1.5-0.7,2.8-0.6,4.3c0,0.7,0.2,1.5,0.3,2.2c0.2,0.8,0.3,1.5,0.5,2.3l0.6,2.3l0.8,2.2c0.5,1.5,1.1,2.8,1.9,4.1
			c1.6,2.6,3.8,4.7,6.4,6.4c2.6,1.6,5.5,2.8,8.5,3.6c6,1.6,12.4,1.8,18.6,1.3c1.6-0.1,3-0.3,4.4-0.9c1.3-0.5,2.5-1.4,3.3-2.6
			c0.8-1.1,1.3-2.5,1.3-3.9c0-0.7-0.2-1.3-0.4-1.6c0,0-0.1-0.1-0.2-0.2l-0.2-0.2l-0.4-0.5c-0.3-0.3-0.5-0.7-0.8-1.1
			c-0.5-0.8-0.8-1.7-0.9-2.7c-0.1-1,0.3-2,0.8-2.8c1.1-1.6,2.6-2.5,4.1-3.2c3-1.5,6.3-1.9,8.1-4.1c1-1,1.5-2.4,1.5-3.8
			c0-1.4-0.3-2.9-0.8-4.4c-0.5-1.5-1.2-2.9-1.9-4.3l-0.5-1.1l-0.1-0.3l-0.1-0.3c-0.1-0.2-0.1-0.5-0.2-0.7c-0.2-0.9-0.1-1.8-0.1-2.6
			c0.4-3.3,1.5-6.4,2.6-9.4c1.1-3,2.3-6,3.5-8.9c2.4-5.9,5-11.7,7.2-17.7c2.1-6,3.8-12.1,5.5-18.3c1.7-6.2,3.2-12.3,4.7-18.5
			c3-12.4,5.7-24.9,8-37.4c0.6-3.1,1.2-6.3,1.6-9.4c0.5-3.1,1-6.3,1.5-9.4c0.9-6.3,1.6-12.7,2-19c0.1-3.2-0.1-6.3-0.6-9.4
			c-0.5-3.1-1.4-6.1-2.7-9c-2.5-5.8-6.5-10.8-11.6-14.5c-5-3.7-11-6.1-17.1-7.1c-6.2-1-12.6-0.8-18.6,0.7c-6,1.6-11.6,4.7-17,8
			c-5.4,3.3-10.7,6.9-15.8,10.6c-10.3,7.5-20.3,15.4-30.1,23.5c-9.8,8.2-19.5,16.4-29,25c0,0-0.1,0-0.1,0
			C431.1,213.9,431.1,213.8,431.1,213.8z"/>
	</g>
	<g>
		<path d="M437,208.6c-1.1,0.4-2.2,0.5-3.3,0.6c-1.1,0.1-2.2,0.1-3.3,0c-1.1-0.2-2.2-0.5-3.3-0.6c-1.1-0.1-2.2,0-3.3,0.1
			c-1.1,0.2-2.2,0.3-3.3,0.3c-1.1,0-2.2,0.1-3.3,0c-2.2-0.1-4.3-0.4-6.5-1.1c-0.1,0-0.1-0.1-0.1-0.1c0,0,0-0.1,0.1-0.1
			c2.2-0.6,4.4-0.8,6.6-0.8c1.1,0,2.2,0.1,3.3,0.2c1.1,0.1,2.2,0.3,3.3,0.5c1.1,0.2,2.2,0.3,3.3,0.3c1.1,0,2.2-0.3,3.3-0.4
			c1.1-0.1,2.2,0,3.3,0.1c1.1,0.2,2.2,0.3,3.2,0.8C437.1,208.5,437.1,208.5,437,208.6C437.1,208.6,437.1,208.6,437,208.6z"/>
	</g>
	<g>
		<path d="M407.4,201.7c1.4-0.6,2.9-0.9,4.4-1.2c1.5-0.3,3-0.5,4.5-0.4c1.5,0,3,0.3,4.5,0.3c1.5,0,3-0.1,4.5-0.3
			c1.5-0.2,3-0.3,4.5-0.3c1.5,0,3,0.1,4.6,0.3c3,0.5,6.1,1.3,8.6,3.1c0,0,0.1,0.1,0,0.1c0,0-0.1,0-0.1,0c-3-0.5-5.9-0.8-8.8-1.1
			l-4.4-0.5c-1.5-0.1-3-0.3-4.4-0.5c-1.5-0.2-3-0.3-4.5-0.2c-1.5,0.1-3,0.5-4.4,0.8c-1.5,0.2-3,0.3-4.5,0.3c-1.5,0-3,0-4.5-0.1
			C407.4,201.9,407.4,201.8,407.4,201.7C407.4,201.8,407.4,201.7,407.4,201.7z"/>
	</g>
	<g>
		<path d="M298.5,271.2c0.2,1.9,0.2,3.8,0,5.6c-0.2,1.9-0.4,3.7-0.7,5.6c-0.7,3.7-1.8,7.3-3.2,10.8c-0.7,1.7-1.6,3.4-2.5,5.1
			l-2.9,4.8c-1.8,3.3-3.4,6.6-4.8,10.1c-5.9,13.7-10.7,28-14.9,42.3c-2,7.2-3.9,14.4-5.1,21.8c-0.6,3.6-1,7.4-1.8,11.1
			c-0.7,3.7-1.7,7.4-2.5,11c-0.8,3.6-1.5,7.3-0.7,10.7c0.8,3.5,2.8,6.6,5.1,9.4l14.3,17.3l28.5,34.8l14.3,17.4l14.4,17.2
			c4.8,5.7,9.7,11.5,14.6,17.1c2.5,2.8,5,5.6,7.4,8.4l3.8,4.1c1.3,1.3,2.6,2.7,4,3.9c2.8,2.6,5.4,5.2,7.9,8.1
			c1.2,1.4,2.4,2.9,3.6,4.3c1.2,1.4,2.3,3,3.8,4c0.4,0.3,0.7,0.3,1.2,0.6c0.3,0.1,0.4,0.3,0.6,0.4c0.2,0.2,0.4,0.3,0.5,0.5
			c0.7,0.7,1.2,1.5,1.8,2.3c1.1,1.6,2,3.2,3,4.8c1,1.6,2,3.2,3.1,4.7c1.1,1.5,2.3,2.9,3.8,3.8c0.7,0.4,1.6,0.7,2.4,0.7
			c0.8,0,1.7-0.2,2.5-0.6l1.3-0.6c0.5-0.2,0.9-0.4,1.6-0.4c0.2,0,0.3,0.1,0.5,0.1c0.1,0,0.2,0.1,0.2,0c0,0-0.1,0-0.1,0
			c0,0,0.2-0.1,0.4-0.2c0.3-0.2,0.7-0.5,1-0.8c2.6-2.6,4.9-5.6,7.5-8.3c1.3-1.4,2.6-2.7,4.1-3.9c1.5-1.2,3.1-2.4,5.1-2.9
			c3.8-0.7,7.5-0.8,11.1-1.6c1.8-0.4,3.5-0.9,5.3-1.6c1.7-0.7,3.6-1.3,5.4-1.7c1.9-0.4,3.8-0.7,5.7-0.9c1-0.1,1.9-0.1,2.9-0.1
			c0.5,0,1,0,1.4,0l0.7,0l0.2,0c0.1,0,0-0.1-0.3,0.1c-0.5,0.3-0.4,0.8-0.4,0.8c0,0.1,0,0.1,0,0c-0.1-0.2-0.4-0.6-0.7-0.9
			c-0.3-0.3-0.6-0.7-0.9-1c-0.6-0.7-1.3-1.3-2-1.9c-1.4-1.2-2.8-2.4-4.2-3.5c-1.5-1-3-2.1-4.6-2.5c-2.1-0.4-3.9-1.7-5.1-3.4
			c-1.2-1.6-2-3.5-2.5-5.4c-0.1-0.5-0.2-1-0.3-1.4c-0.1-0.5-0.2-1-0.3-1.3c-0.1-0.8-0.5-1.4-1.1-1.8c-0.6-0.5-1.3-0.9-2.2-1.1
			c-0.8-0.3-1.7-0.5-2.6-0.8c-0.9-0.3-1.9-0.6-2.8-1c-0.9-0.4-1.9-1.1-2.5-2l-0.5-0.7l-0.3-0.6l-0.7-1.2l-1.4-2.5l-2.8-4.9
			c-1.9-3.2-3.8-6.4-5.8-9.6c-2-3.1-4.1-6.2-6.4-9.2l-1.7-2.1c-0.6-0.7-1.2-1.4-1.8-2c-1.2-1.2-2.8-2.6-4-4.1
			c-2.5-2.9-4.6-6-6.8-9.1c-2.1-3.1-4.2-6.2-6.3-9.4c-2.1-3.1-4.2-6.2-6.3-9.3c-2.2-3-4.4-6-6.9-8.7c-0.6-0.7-1.3-1.2-2-1.8
			c-0.7-0.6-1.5-1.2-2.2-1.9c-1.4-1.3-2.8-2.6-4.1-3.9c-2.7-2.7-5.2-5.4-7.7-8.3c-2.5-2.9-4.8-5.8-7.1-8.8c-2.2-3.1-4.3-6.2-6-9.7
			c-0.8-1.7-1.5-3.6-1.5-5.7c0-1.9,0-3.8,0.1-5.7c0.2-3.8,1.1-7.6,2.5-11.2c1.4-3.6,3.1-6.9,5-10.2c0.9-1.6,2-3.2,3-4.8
			c1.1-1.6,2.1-3.1,3.2-4.7c2.2-3.1,4.4-6.1,6.5-9.2c2.1-3.1,4.2-6.2,6.2-9.4c4-6.3,8-12.7,11.9-19.1c2-3.2,3.9-6.4,5.9-9.6l1.5-2.4
			l1.6-2.3c0.6-0.7,1.1-1.5,1.7-2.2l0.9-1.1l1.1-0.9c0,0,0.1,0,0.1,0c0,0,0,0.1,0,0.1l0,0l-1,0.9l-0.9,1.1c-0.6,0.7-1.1,1.5-1.7,2.2
			l-1.6,2.3l-1.5,2.4c-2,3.2-3.9,6.4-5.7,9.7c-3.8,6.5-7.6,13-11.5,19.3c-7.6,12.9-17.9,24.3-23.2,38.2c-1.3,3.5-2.1,7-2.3,10.7
			c-0.1,1.8-0.1,3.7-0.1,5.6c0,1.7,0.7,3.4,1.4,5c1.6,3.3,3.7,6.4,5.9,9.4c2.2,3,4.6,5.9,7.1,8.7c2.5,2.8,5,5.5,7.7,8.1
			c1.3,1.3,2.7,2.6,4,3.8c0.7,0.6,1.4,1.2,2.1,1.8c0.7,0.6,1.5,1.3,2.1,2c2.7,2.8,4.9,5.8,7.1,8.9c2.2,3.1,4.3,6.2,6.4,9.3
			c2.1,3.1,4.1,6.2,6.3,9.3c2.1,3.1,4.3,6.1,6.7,8.9c1.2,1.5,2.4,2.5,3.9,4c0.7,0.7,1.3,1.4,2,2.1l1.8,2.2c2.3,3,4.4,6.2,6.4,9.3
			c2,3.2,3.9,6.4,5.8,9.7l2.8,4.9l1.3,2.5l0.7,1.2l0.3,0.6l0.3,0.5c0.9,1.2,2.6,1.8,4.3,2.3c0.9,0.3,1.8,0.5,2.7,0.9
			c0.9,0.3,1.9,0.8,2.7,1.5c0.9,0.7,1.5,1.8,1.7,2.9c0.2,0.6,0.2,1,0.3,1.4c0.1,0.4,0.2,0.9,0.3,1.3c0.4,1.7,1.1,3.4,2.1,4.8
			c1,1.4,2.4,2.4,4,2.7c1,0.2,2,0.7,2.8,1.2c0.8,0.5,1.6,1,2.4,1.6c1.5,1.1,3,2.4,4.4,3.7c0.7,0.6,1.4,1.3,2,2
			c0.3,0.3,0.7,0.7,1,1.1c0.3,0.4,0.6,0.7,0.9,1.3c0,0.1,0.1,0.2,0.1,0.4c0,0.1,0.2,0.7-0.5,1.1c-0.5,0.2-0.7,0.1-0.7,0.1l-0.2,0
			l-0.7-0.1c-0.5,0-0.9,0-1.4,0c-0.9,0-1.8,0-2.7,0.1c-1.8,0.1-3.6,0.4-5.4,0.8c-1.8,0.4-3.5,1-5.3,1.6c-1.8,0.7-3.6,1.2-5.5,1.6
			c-3.8,0.8-7.6,0.8-11.2,1.5c-1.6,0.4-3.2,1.4-4.6,2.6c-1.4,1.2-2.7,2.5-4,3.8c-2.6,2.7-4.9,5.6-7.7,8.3c-0.4,0.3-0.7,0.7-1.2,1
			c-0.2,0.1-0.5,0.3-0.9,0.4c-0.1,0-0.3,0-0.4-0.1c-0.2-0.1-0.1,0-0.2,0c-0.1,0-0.1-0.1-0.2,0c-0.3,0-0.7,0.1-1.1,0.3l-1.3,0.6
			c-0.9,0.4-1.9,0.7-2.9,0.7c-1,0-2.1-0.3-2.9-0.9c-1.7-1.1-2.9-2.6-4.1-4.1c-1.1-1.5-2.1-3.2-3.1-4.8c-1-1.6-1.9-3.2-3-4.8
			c-0.5-0.8-1.1-1.5-1.7-2.2c-0.1-0.2-0.3-0.3-0.5-0.4c-0.2-0.1-0.3-0.3-0.5-0.4c-0.3-0.2-0.9-0.4-1.3-0.7c-0.8-0.6-1.5-1.3-2.1-2
			c-0.6-0.7-1.2-1.5-1.8-2.2c-1.2-1.5-2.3-2.9-3.6-4.3c-2.4-2.8-5.1-5.5-7.8-8.1c-1.4-1.2-2.7-2.6-4-4l-3.8-4.2
			c-2.5-2.8-5-5.6-7.4-8.5c-4.9-5.7-9.8-11.3-14.7-17.1l-29-34.3L277.5,438l-14.4-17.3c-2.4-2.9-4.6-6.3-5.5-10.2
			c-0.4-1.9-0.5-3.9-0.3-5.9c0.2-1.9,0.6-3.8,1-5.6c0.9-3.7,1.8-7.3,2.5-10.9c0.8-3.7,1.2-7.3,1.8-11.1c1.2-7.5,3.2-14.7,5.3-22
			c2.1-7.2,4.5-14.3,7-21.4c2.6-7.1,5.3-14,8.4-20.9c1.5-3.4,3.2-6.8,5-10.1l3-4.8c0.9-1.6,1.8-3.3,2.5-5c1.5-3.4,2.6-7,3.4-10.6
			c0.4-1.8,0.7-3.7,0.9-5.5c0.2-1.9,0.3-3.7,0.1-5.6c0-0.1,0-0.1,0.1-0.1C298.4,271.1,298.5,271.1,298.5,271.2z"/>
	</g>
	<g>
		<path d="M386,323.3c2.8,0.2,5.6,0.2,8.4,0.1c2.8-0.1,5.5-0.5,8.2-1.1c1.3-0.3,2.7-0.7,3.9-1.1c1.2-0.5,2.6-1,4-1.5
			c2.7-0.9,5.4-1.6,8.2-2.3c5.5-1.3,11-2.5,16.3-4.2c5.4-1.6,10.6-3.7,15.6-6.3c2.5-1.3,4.8-2.8,7-4.4c1.1-0.8,2.1-1.7,3.1-2.7
			c0.4-0.5,0.9-1,1.3-1.5l0.6-0.8l0.6-0.9c3.3-4.7,7-8.9,10.9-13c7.8-8.2,16.1-15.8,24.8-23c0,0,0.1,0,0.1,0c0,0,0,0.1,0,0.1
			c-7.8,8.1-15.7,16.1-23.4,24.3c-3.8,4.1-7.6,8.2-10.9,12.7l-0.6,0.8l-0.7,0.9c-0.4,0.6-1,1.1-1.5,1.6c-1.1,1-2.2,1.9-3.4,2.7
			c-2.3,1.7-4.9,3-7.5,4.1c-5.2,2.3-10.5,4.1-15.9,5.9c-5.3,1.8-10.7,3.5-16.1,5.1c-2.7,0.8-5.4,1.6-8,2.4c-1.3,0.4-2.6,0.9-4,1.4
			c-1.4,0.5-2.8,0.8-4.2,1.1c-5.7,1-11.4,0.8-17-0.4c-0.1,0-0.1-0.1-0.1-0.1C385.9,323.4,386,323.3,386,323.3L386,323.3z"/>
	</g>
	<g>
		<path d="M237.9,86.4c-1.2,0-2.4,0.4-3.6,0.8c-1.2,0.4-2.3,1-3.3,1.6c-0.6,0.3-1,0.7-1.6,1c-0.6,0.3-1.3,0.4-1.9,0.6
			c-1.3,0.2-2.5,0.3-3.8,0.4c-5,0.2-10,0.1-15-0.1c-9.9-0.4-19.9-1.2-29.8-1.8c-4.9-0.3-9.9-0.7-14.8-0.5c-4.9,0.3-9.8,1.1-14.6,2.3
			c-4.8,1.2-9.5,2.8-14.1,4.8c-2.3,1-4.5,2.1-6.6,3.4c-1,0.7-2,1.4-2.9,2.2l-0.6,0.6c-0.2,0.2-0.3,0.4-0.5,0.7
			c-0.1,0.2-0.2,0.5-0.3,0.8c-0.1,0.3-0.1,0.5-0.2,0.8c-0.3,2.3,0.7,4.6,2,6.6c1.3,2,2.9,3.9,4.6,5.6c3.5,3.4,7.5,6.3,11.7,8.9
			c4.2,2.6,8.5,5,13,7.2c2.2,1.1,4.5,2.1,6.7,3.2c2.3,1,4.5,2,6.8,3c18.3,7.7,37.2,13.8,56.2,19.7c0.1,0,0.1,0.1,0.1,0.1
			c0,0.1-0.1,0.1-0.1,0.1c-19.3-4.6-38.5-10.3-57-17.9c-4.6-1.9-9.2-4-13.6-6.2c-4.5-2.3-8.8-4.7-13-7.4c-4.2-2.7-8.2-5.8-11.8-9.4
			c-1.8-1.8-3.4-3.8-4.7-6c-0.3-0.6-0.6-1.1-0.9-1.7c-0.3-0.6-0.5-1.2-0.7-1.8c-0.3-1.3-0.5-2.6-0.3-3.9c0-0.3,0.1-0.7,0.2-1
			c0.1-0.3,0.2-0.6,0.4-0.9c0.2-0.3,0.4-0.6,0.6-0.8l0.7-0.7c1-0.9,2-1.5,3.1-2.2c2.2-1.3,4.4-2.3,6.7-3.3c4.6-1.9,9.4-3.5,14.2-4.8
			c2.4-0.6,4.8-1.2,7.3-1.7c2.4-0.5,4.9-0.9,7.4-1.1c5-0.4,10-0.2,15-0.1c10,0.4,19.9,1.2,29.8,1.9c5,0.3,9.9,0.7,14.8,0.6
			c1.2,0,2.5-0.1,3.7-0.2c0.6-0.1,1.2-0.2,1.7-0.4c0.5-0.2,1.1-0.6,1.6-0.9c2.2-1.1,4.7-2,7.2-2c0.1,0,0.1,0,0.1,0.1
			C238,86.4,238,86.4,237.9,86.4L237.9,86.4z"/>
	</g>
	<g>
		<path d="M221.1,113.5c-2.2-0.8-4.3-1.7-6.4-2.6c-2.1-0.9-4.2-1.8-6.2-2.9c-2-1-4-2.2-6.1-3.1c-1.1-0.4-2.1-0.8-3.2-1.1
			c-0.5-0.2-1.1-0.3-1.7-0.4c-0.6-0.1-1.1-0.3-1.7-0.3c-1.1-0.2-2.2-0.4-3.3-0.5c-0.6-0.1-1.1-0.2-1.7-0.2l-1.7-0.1
			c-0.6-0.1-1.1,0-1.6,0c-0.5,0-1.1,0-1.6,0.1c-1.1,0.1-2.3,0.2-3.4,0.3c-2.3,0.1-4.6,0.1-6.9-0.1c-2.3-0.2-4.6-0.5-6.8-1.2
			c-0.1,0-0.1-0.1-0.1-0.1c0,0,0.1-0.1,0.1-0.1h0c4.6,0,9.1-0.3,13.6-0.6l3.4-0.2c0.5,0,1.2,0,1.8,0c0.6,0,1.2,0,1.8,0.1l1.8,0.2
			c0.6,0.1,1.1,0.2,1.7,0.4c1.1,0.2,2.2,0.6,3.3,1c2.2,0.8,4.3,1.6,6.5,2.3c1.1,0.4,2.2,0.7,3.3,1c1.1,0.4,2.2,0.7,3.3,1.1
			c2.2,0.8,4.2,1.9,6.2,3c2,1.1,4,2.4,5.8,3.8c0,0,0.1,0.1,0,0.1C221.2,113.5,221.1,113.5,221.1,113.5z"/>
	</g>
	<g>
		<path d="M211.2,108.2c2.4-0.4,4.8-0.6,7.3-0.8c2.4-0.2,4.8-0.3,7.3-0.2c2.4,0.1,4.8,0.4,7.3,0.4c1.2,0,2.4,0,3.6-0.1
			c1.2-0.1,2.4-0.3,3.5-0.5c2.4-0.5,4.7-1.1,7-1.6c2.3-0.6,4.6-1.2,7-1.8c2.3-0.6,4.6-1.2,6.9-1.9c2.3-0.7,4.6-1.4,6.8-2.4
			c0.1,0,0.1,0,0.1,0.1c0,0,0,0.1,0,0.1c-1.9,1.5-4.1,2.7-6.4,3.7c-2.2,1-4.6,1.8-6.9,2.5c-2.3,0.7-4.7,1.2-7.1,1.6
			c-2.4,0.5-4.8,0.8-7.3,0.9c-1.2,0.1-2.5,0.1-3.7,0.1c-1.2,0-2.4,0-3.6,0.1c-2.4,0.1-4.8,0.5-7.3,0.6c-2.4,0.2-4.8,0.1-7.3,0.1
			c-2.4-0.1-4.8-0.2-7.3-0.5C211.2,108.4,211.2,108.4,211.2,108.2C211.2,108.3,211.2,108.2,211.2,108.2z"/>
	</g>
	<g>
		<path d="M308.6,66.5c6.2-4.9,12.7-9.5,19.3-14c6.6-4.4,13.3-8.7,20.3-12.5c1.7-1,3.5-1.9,5.3-2.7l2.7-1.3l2.7-1.2
			c3.6-1.7,7.4-3.1,11.2-4.2l11.4-3.3c3.8-1,7.7-2.1,11.7-2.6c2-0.2,4-0.3,6.1,0.1c1,0.2,2,0.5,3,1c1,0.5,1.8,1.2,2.5,2
			c1.5,1.6,2.1,3.8,2.6,5.7c0.5,1.9,0.9,3.9,1.3,5.8c1.6,7.8,2.8,15.7,3.6,23.6c0.7,7.9,1,15.9,0.4,23.9c-0.3,4-0.9,8-1.8,11.8
			c-0.9,3.9-2.3,7.7-4.5,11c0,0-0.1,0.1-0.1,0c0,0-0.1-0.1,0-0.1c1.9-3.5,3-7.3,3.7-11.1c0.7-3.9,1-7.8,1.2-11.7
			c0.3-7.9-0.2-15.8-1-23.6c-0.8-7.8-1.8-15.7-3.3-23.4c-0.4-1.9-0.7-3.9-1.2-5.8c-0.2-1-0.4-1.9-0.7-2.7c-0.3-0.9-0.7-1.7-1.3-2.4
			c-0.6-0.7-1.3-1.3-2-1.7c-0.8-0.4-1.7-0.8-2.6-1c-1.8-0.4-3.8-0.4-5.7-0.3c-3.9,0.3-7.8,1.1-11.6,2.2c-3.8,1-7.6,2.1-11.4,3.3
			c-1,0.3-1.9,0.6-2.8,1c-0.9,0.3-1.9,0.6-2.8,1.1c-1.8,0.8-3.6,1.6-5.3,2.5l-2.6,1.4l-2.6,1.4c-1.7,0.9-3.4,2-5.1,3
			c-13.6,8-26.9,16.6-40.2,25.2c0,0-0.1,0-0.1,0C308.5,66.6,308.6,66.5,308.6,66.5z"/>
	</g>
	<g>
		<path d="M362.1,86.8c-0.9-1.9-1.4-4-1.6-6c-0.2-2.1-0.2-4.2,0.2-6.3c0.5-2.1,1.2-4,2-6l0.3-0.7c0.1-0.2,0.2-0.5,0.3-0.7
			c0.2-0.5,0.4-1,0.6-1.4c0.5-0.9,0.8-1.9,1.3-2.8c0.5-0.9,1-1.9,1.5-2.7l1.6-2.6c1.1-1.7,2.1-3.5,3.2-5.2c2.1-3.5,4.2-6.9,5.8-10.7
			l0,0c0-0.1,0.1-0.1,0.1-0.1c0,0,0.1,0.1,0.1,0.1c-0.2,2.1-0.8,4.1-1.5,6c-0.7,2-1.7,3.8-2.7,5.6c-2.1,3.6-4.7,6.9-7.3,10
			c-0.3,0.4-0.6,0.8-0.8,1.3c-0.3,0.4-0.6,0.8-0.8,1.3c-0.4,0.9-0.9,1.8-1.2,2.8c-0.1,0.5-0.3,1-0.4,1.5c-0.1,0.5-0.2,1-0.2,1.5
			c-0.2,1-0.2,2-0.3,3c-0.1,2-0.3,4-0.3,6c0,2,0.1,4,0.2,6.1l0,0C362.3,86.8,362.2,86.9,362.1,86.8
			C362.1,86.9,362.1,86.9,362.1,86.8z"/>
	</g>
	<g>
		<path d="M314.2,84.3c2-1.2,4-2.2,6.1-3.1c2.1-0.9,4.2-1.8,6.3-2.5c2.2-0.7,4.4-1.2,6.5-2c2.2-0.7,4.2-1.7,6.3-2.6
			c1-0.5,2.1-1,3.1-1.4l3.2-1.2c2.1-0.8,4.1-1.8,6.2-2.6c4.2-1.7,8.4-3.3,12.8-4.7c0.1,0,0.1,0,0.1,0.1c0,0,0,0.1,0,0.1
			c-3.8,2.5-7.9,4.6-12.1,6.5c-2.1,0.9-4.2,1.7-6.4,2.4c-2.2,0.7-4.4,1.2-6.6,1.9c-2.2,0.6-4.4,1.3-6.5,2.2c-2.1,0.9-4.1,2-6.2,2.9
			c-2.1,0.9-4.2,1.7-6.4,2.4c-2.2,0.7-4.3,1.4-6.6,1.9c-0.1,0-0.1,0-0.1-0.1C314.2,84.3,314.2,84.3,314.2,84.3z"/>
	</g>
	<g>
		<path d="M366.2,216.2c0.9,2.6,1.9,5.2,3.1,7.6c0.6,1.2,1.3,2.4,2.1,3.4c0.2,0.3,0.4,0.5,0.6,0.7l0.3,0.3l0.4,0.3l0.8,0.6
			c0.3,0.2,0.6,0.5,0.8,0.7c2.1,2.1,3.4,4.6,4.7,7.1c0.7,1.2,1.3,2.5,1.9,3.8c0.6,1.3,1.1,2.6,1.4,4c0.1,0.4,0.2,0.7,0.2,1.1
			l0.1,0.6c0,0.2,0,0.4,0,0.6l0,0.6c0,0.1,0,0.2,0,0.3c0.1,0.2,0,0.1,0.1,0.1c0.2,0.1,0.9-0.1,1.4-0.3c0.6-0.2,1.1-0.5,1.7-0.9
			c2.2-1.4,4.1-3.4,5.2-5.6c0.6-1.1,0.9-2.3,0.8-3.5c0-1.4-0.1-2.7-0.2-4.1c-0.2-2.7-0.5-5.5-0.9-8.2c0-0.1,0-0.1,0.1-0.1
			c0,0,0.1,0,0.1,0.1c1.1,2.6,1.8,5.3,2.3,8.1c0.2,1.4,0.4,2.8,0.6,4.2c0.2,1.5-0.2,3.2-0.8,4.5c-1.4,2.8-3.6,4.8-6.2,6.3
			c-0.6,0.4-1.3,0.7-2.1,0.9c-0.4,0.1-0.8,0.2-1.2,0.3c-0.4,0.1-0.9,0.1-1.4-0.1c-0.1,0-0.3-0.1-0.4-0.2c-0.1-0.1-0.2-0.2-0.3-0.4
			c-0.1-0.1-0.2-0.3-0.2-0.4c-0.1-0.1-0.1-0.3-0.1-0.4c0-0.3,0-0.5,0.1-0.7l0.1-0.5l0.1-0.5l0-0.5c0-0.3,0-0.6,0-1
			c-0.6-5.4-4-10.4-8-13.8c-0.2-0.2-0.5-0.4-0.8-0.6l-0.4-0.3l-0.5-0.4l-0.5-0.4l-0.4-0.4c-0.3-0.3-0.5-0.6-0.7-0.9
			c-0.9-1.2-1.6-2.5-2.1-3.8c-1-2.7-1.7-5.4-1.8-8.2c0-0.1,0-0.1,0.1-0.1C366.1,216.1,366.2,216.2,366.2,216.2z"/>
	</g>
	<g>
		<path d="M519.2,335.5c-0.8-3.3-1.8-6.6-2.3-10c-0.7-3.3-1.1-6.7-1.6-10.1c-0.3-1.7-0.4-3.4-0.6-5.1l-0.5-5.1
			c-0.2-3.4-0.5-6.8-0.7-10.2c-0.7-13.6-0.8-27.3-0.1-40.9c0.1-3.4,0.4-6.8,0.6-10.2c0.3-3.4,0.5-6.8,0.9-10.2l0.5-5.1
			c0.2-1.7,0.5-3.4,0.7-5.1l0.4-2.5l0.4-2.5c0.3-1.7,0.6-3.4,1-5.1l1.2-5c0.4-1.6,0.6-3.3,0.8-4.9c0.3-3.3,0.2-6.6-0.8-9.8
			c-0.9-3.1-2.7-6-5.1-8.2c-2.4-2.2-5.4-3.7-8.6-4.7c-3.2-0.9-6.5-1.3-9.8-1.3c-1.7,0-3.2,0.3-4.8,0.8c-0.8,0.3-1.5,0.6-2.3,1
			c-0.7,0.4-1.5,0.7-2.2,1.1c-3,1.6-5.8,3.5-8.6,5.4c-2.8,1.9-5.5,4-8.2,6c-10.8,8.3-21.1,17.2-31.3,26.2l-15.3,13.5
			c-5.1,4.5-10.2,9-15.6,13.2c-1.3,1.1-2.8,2-4.1,3c-1.3,1-2.6,2.2-3.8,3.3c-2.5,2.3-4.8,4.8-7.2,7.3c-4.6,5-9.1,10.1-13.4,15.4
			c-8.7,10.4-17.1,21.2-25.3,32.1c-8.1,10.9-16.1,22-23.5,33.3c-3.7,5.7-7.3,11.4-10.7,17.4c-1.6,3-3.2,6-4.6,9
			c-0.7,1.5-1.3,3.1-1.8,4.7c-0.5,1.6-0.9,3.2-0.8,4.6c0.2,1.5,0.6,3.1,1.2,4.7c0.3,0.8,0.6,1.6,0.9,2.3c0.3,0.8,0.6,1.5,1,2.3
			c1.4,3.1,3,6,4.6,9c3.3,5.9,6.8,11.7,10.4,17.5c7.2,11.6,14.6,23,21.8,34.5c3.6,5.8,7.2,11.6,10.6,17.5c3.4,5.9,6.8,11.9,9.6,18.1
			c1.4,3.1,2.8,6.3,3.6,9.7c0.5,1.7,0.7,3.4,1.1,5c0.3,1.7,0.6,3.4,0.8,5.1c0.5,3.4,0.7,6.8,0.7,10.3c0,1.7-0.1,3.4-0.1,5.1
			c0,0.9,0,1.7,0,2.5c0.1,0.8,0.1,1.7,0.2,2.5c0.2,1.7,0.7,3.2,1.3,4.8c0.4,0.8,0.7,1.5,1.1,2.3l1.3,2.2c1.9,2.8,4,5.5,5.9,8.3
			c1.9,2.8,3.7,5.7,5.4,8.7c1.7,3,3.3,6,4.6,9.2c0,0.1,0,0.1-0.1,0.1c-0.1,0-0.1,0-0.1-0.1l0,0c-1.3-3.1-3-6.1-4.8-9
			c-1.8-2.9-3.6-5.8-5.6-8.5c-2-2.8-4.1-5.4-6.1-8.2l-1.4-2.2c-0.4-0.8-0.8-1.5-1.2-2.3c-0.6-1.6-1.2-3.3-1.4-5
			c-0.2-0.9-0.2-1.7-0.2-2.6c0-0.9,0-1.7,0-2.6c0-1.7,0.1-3.4,0-5.1c0-3.4-0.3-6.8-0.8-10.1c-0.3-1.7-0.6-3.3-0.9-5
			c-0.4-1.6-0.7-3.3-1.2-4.9c-0.9-3.2-2.2-6.3-3.7-9.4c-2.9-6.1-6.2-12-9.7-17.9c-3.5-5.8-7.1-11.6-10.7-17.4
			c-7.3-11.5-14.7-22.9-22-34.5c-3.6-5.8-7.2-11.6-10.5-17.6c-1.6-3-3.3-6-4.7-9.2c-0.4-0.8-0.7-1.6-1-2.4c-0.3-0.8-0.6-1.6-0.9-2.4
			c-0.1-0.4-0.3-0.8-0.4-1.2l-0.3-1.3c-0.3-0.8-0.3-1.8-0.5-2.7c-0.1-2,0.4-3.7,1-5.4c0.6-1.7,1.2-3.3,1.9-4.9
			c1.4-3.1,3-6.2,4.7-9.2c3.4-6,7-11.7,10.8-17.4c7.5-11.4,15.6-22.4,23.9-33.2c8.3-10.8,16.8-21.5,25.7-31.8
			c4.4-5.2,9-10.3,13.7-15.2c2.4-2.5,4.8-4.9,7.3-7.2c1.3-1.2,2.5-2.3,3.9-3.3c1.4-1,2.8-2,4.1-3c5.4-4.2,10.5-8.6,15.7-13.1
			c5.1-4.5,10.2-9,15.3-13.6c5.1-4.5,10.2-9,15.4-13.5c5.2-4.5,10.4-8.9,15.7-13.1c2.7-2.1,5.4-4.2,8.2-6.2c2.8-2,5.6-3.9,8.6-5.6
			c0.7-0.4,1.5-0.8,2.3-1.2c0.8-0.4,1.6-0.7,2.4-1l1.3-0.4l0.6-0.2l0.7-0.1c0.9-0.2,1.8-0.2,2.6-0.3c3.5-0.1,7,0.2,10.4,1.2
			c3.4,1,6.6,2.6,9.2,5c2.6,2.4,4.6,5.5,5.6,8.9c1,3.4,1.2,7,0.9,10.5c-0.3,3.5-1.3,6.9-2,10.1c-0.4,1.6-0.7,3.3-1,5l-0.5,2.5
			l-0.4,2.5c-0.2,1.7-0.5,3.4-0.7,5l-0.6,5.1c-0.4,3.4-0.6,6.8-0.9,10.2c-0.2,3.4-0.5,6.8-0.6,10.2c-0.7,13.6-0.9,27.2-0.3,40.8
			c0.6,13.6,1.7,27.2,4.9,40.4l0,0c0,0.1,0,0.1-0.1,0.1C519.2,335.6,519.2,335.6,519.2,335.5z"/>
	</g>
	<g>
		<path d="M381.8,253.6c2.1,1.7,4.1,3.4,6,5.3c1.9,1.8,3.8,3.6,5.6,5.6c0.9,1,1.8,1.9,2.7,3l0.6,0.8l0.6,0.8
			c0.4,0.5,0.8,1.1,1.1,1.7c1.4,2.2,2.8,4.5,4.2,6.8c1.4,2.3,2.6,4.7,3.6,7.2c1,2.5,2,5,2.7,7.6c1.5,5.1,2.4,10.5,2.1,15.9
			c0,0.1-0.1,0.1-0.1,0.1c0,0-0.1,0-0.1-0.1c-1-5.2-2.3-10.3-3.9-15.3l-0.6-1.9l-0.6-1.9c-0.4-1.3-0.8-2.5-1.3-3.7
			c-0.9-2.5-1.8-4.9-2.8-7.4c-0.5-1.2-1.1-2.4-1.7-3.6c-0.6-1.2-1.3-2.3-2.1-3.4c-0.4-0.5-0.8-1-1.2-1.5l-0.7-0.7l-0.7-0.7
			c-0.5-0.4-1-0.9-1.5-1.3l-1.5-1.3c-2-1.8-3.8-3.7-5.6-5.7c-1.8-2-3.5-4-5-6.2c0,0,0-0.1,0-0.1
			C381.7,253.6,381.8,253.6,381.8,253.6z"/>
	</g>
	<g>
		<path d="M482.7,355.9c-1.9,2.8-3.5,5.7-4.8,8.8c-0.6,1.5-1.2,3.1-1.6,4.7c-0.2,0.8-0.3,1.6-0.5,2.4c-0.2,0.9-0.3,1.7-0.6,2.5
			c-1.1,3.3-3.3,6.1-5.6,8.6c-1.1,1.3-2.3,2.5-3.4,3.7c-0.6,0.6-1.1,1.2-1.6,1.9c-0.2,0.3-0.5,0.6-0.7,1c-0.1,0.2-0.2,0.3-0.2,0.4
			c0,0.1,0,0.1,0,0.2l0,0.3c-0.1,1.5,0.2,3.2,0.4,4.9c0.2,1.7,0.5,3.3,0.7,5c0.5,3.3,1.2,6.6,1.8,9.9l3.7,19.8
			c1.2,6.6,2.4,13.3,3.4,19.9c0.5,3.3,1,6.7,1.2,10.1c0.1,3.3,0.8,6.6,1.7,9.8c1.8,6.4,4.8,12.6,8.8,17.9c4,5.4,9.2,9.9,15.1,12.8
			c6,2.9,12.7,4,19.3,3.8c3.2-0.2,6.4-1.1,8.8-3.1c2.4-2,3.8-5,4.6-8.2c0.8-3.2,0.9-6.5,0.8-9.8c-0.1-3.3-0.5-6.6-1-9.9
			c-1.1-6.6-2.7-13.1-4.5-19.5c-0.9-3.2-1.9-6.4-2.9-9.6l-1.5-4.8c-0.2-0.8-0.5-1.6-0.7-2.5c-0.2-0.8-0.4-1.7-0.6-2.6
			c-0.6-6.8-0.7-13.5-0.6-20.3c0.1-3.4,0.3-6.8,0.7-10.1c0.2-1.7,0.5-3.4,0.8-5c0.2-0.8,0.4-1.7,0.7-2.5c0.3-0.8,0.6-1.6,0.9-2.4
			c1.2-3.1,2-6.3,2.5-9.7c0.4-3.3,0.5-6.7-0.3-10l0,0c0-0.1,0-0.1,0.1-0.1c0.1,0,0.1,0,0.1,0.1c1,3.3,1,6.7,0.8,10.1
			c-0.3,3.4-1,6.7-2.2,9.9c-1.3,3.1-1.7,6.4-2,9.7c-0.3,3.3-0.4,6.7-0.4,10c0,6.7,0.2,13.4,0.9,20.1c0.2,1.5,0.8,3.1,1.3,4.7
			l1.5,4.8c1,3.2,2,6.4,3,9.7c1.9,6.5,3.6,13.1,4.6,19.8c0.5,3.4,0.9,6.8,1,10.2c0.1,3.4-0.1,6.9-1,10.3c-0.8,3.4-2.4,6.8-5.3,9.1
			c-2.8,2.3-6.4,3.3-9.9,3.4c-6.9,0.1-13.8-1.3-19.8-4.4c-6.1-3.1-11.2-7.9-15.2-13.3c-4-5.5-6.9-11.7-8.9-18.1
			c-1-3.2-1.7-6.6-1.9-10c-0.3-3.3-0.9-6.6-1.5-9.9c-1.2-6.6-2.6-13.2-3.9-19.8c-1.3-6.6-2.6-13.2-3.8-19.8c-0.6-3.3-1.2-6.6-1.7-10
			c-0.2-1.7-0.5-3.3-0.7-5c-0.2-1.7-0.4-3.3-0.3-5.2l0-0.4c0-0.1,0.1-0.3,0.1-0.4c0.1-0.3,0.2-0.5,0.3-0.7c0.2-0.4,0.5-0.7,0.8-1.1
			c0.6-0.7,1.1-1.3,1.7-1.9c1.2-1.2,2.4-2.4,3.5-3.6c2.3-2.4,4.4-5,5.5-8.1c0.3-0.8,0.5-1.5,0.6-2.3l0.2-1.3
			c0.1-0.4,0.2-0.8,0.3-1.2c0.5-1.6,1.1-3.2,1.8-4.8c1.4-3.1,3.2-6,5.2-8.7c0,0,0.1-0.1,0.1,0C482.7,355.7,482.8,355.8,482.7,355.9z
			"/>
	</g>
	<g>
		<path d="M475.5,371.8c0.5,1.6,0.9,3.2,1.3,4.8c0.4,1.6,0.7,3.2,0.9,4.8c0.2,1.6,0.3,3.3,0.9,4.8c0.3,0.7,0.7,1.5,1.3,1.7
			c0.5,0.1,1.1-0.6,1.4-1.2c1.5-2.8,2.5-5.9,3.6-9c1.2-3,2.4-6.1,4-9.1c0-0.1,0.1-0.1,0.1,0c0,0,0.1,0.1,0.1,0.1
			c-0.3,3.3-1.1,6.6-2.2,9.7c-0.6,1.6-1.2,3.1-2,4.6c-0.7,1.5-1.6,3-2.8,4.3c-0.3,0.3-0.6,0.6-1,0.9c-0.3,0.3-1,0.5-1.5,0.3
			c-0.5-0.2-0.8-0.6-1.1-0.9c-0.2-0.4-0.5-0.7-0.6-1.1c-0.7-1.5-1.4-3.1-1.9-4.7c-0.5-1.6-0.7-3.3-0.8-4.9c-0.1-1.7-0.2-3.3,0.1-5
			C475.3,371.8,475.4,371.8,475.5,371.8C475.5,371.8,475.5,371.8,475.5,371.8z"/>
	</g>
	<g>
		<path d="M467.1,385c-0.9,0.2-1.7,0.9-2.2,1.6c-0.6,0.7-1,1.6-1.4,2.4c-0.8,1.7-1.4,3.5-2,5.4c-0.6,1.8-1.2,3.7-2,5.5
			c-0.2,0.5-0.4,0.9-0.7,1.4c-0.2,0.4-0.3,0.7-0.4,1.1c-0.2,0.8-0.2,1.8-0.1,2.7c0.5,7.5,2.9,15,4.3,22.5c0.1,0.4,0.2,0.6,0.4,0.8
			c0.2,0.2,0.6,0.3,1.1,0.6c0.5,0.2,1.1,0.7,1.4,1.2c0.3,0.5,0.5,1.1,0.6,1.6c0.1,0.5,0.1,1,0.1,1.5l0,1.4c0,1,0.1,1.9,0.2,2.9
			c0.3,3.8,0.7,7.7,1.3,11.5c1.1,7.6,2.7,15.2,4.7,22.6c2.1,7.4,4.5,14.7,8.4,21.2c1.9,3.2,4.4,6.1,7.4,8.3c2.9,2.3,6.3,3.9,9.9,5.1
			c3.6,1.1,7.3,1.8,11.1,2.3c1.9,0.2,3.8,0.3,5.7,0.5l2.9,0.1l1.4,0.1l0.7,0l0.7,0c1.8-0.1,3.5-0.7,5.1-1.7c1.5-1,2.9-2.3,4-3.8
			c1.1-1.5,2-3.2,2.8-4.9c0.8-1.7,1.3-3.6,1.8-5.4c0-0.1,0.1-0.1,0.1-0.1c0.1,0,0.1,0.1,0.1,0.1c-0.7,3.8-1.8,7.6-4,10.9
			c-1.1,1.7-2.4,3.2-4.1,4.3c-1.6,1.2-3.6,2-5.7,2.1l-0.8,0.1l-0.7,0l-1.5,0l-2.9,0c-1.9-0.1-3.9-0.2-5.8-0.3
			c-1.9-0.2-3.9-0.4-5.8-0.8c-1.9-0.3-3.8-0.9-5.7-1.4c-3.7-1.2-7.4-3-10.5-5.5c-3.1-2.5-5.7-5.6-7.7-9c-4-6.8-6.1-14.4-7.8-21.9
			c-1.7-7.5-3.1-15.1-4.3-22.7c-0.6-3.8-1.3-7.6-1.8-11.4c-0.1-1-0.2-1.9-0.3-2.9l-0.1-1.5c0-0.5-0.1-0.9-0.2-1.3
			c-0.1-0.4-0.2-0.8-0.4-1.1c-0.2-0.3-0.4-0.5-0.8-0.6c-0.4-0.2-0.9-0.3-1.5-0.7c-0.6-0.4-0.9-1.1-1-1.6c-0.8-3.8-1.8-7.5-2.6-11.3
			c-0.8-3.8-1.5-7.6-1.6-11.6c0-1,0-2,0.3-3.1c0.1-0.5,0.4-1.1,0.7-1.6c0.3-0.4,0.5-0.8,0.7-1.2c0.8-1.7,1.5-3.5,2.2-5.3
			c0.7-1.8,1.4-3.6,2.4-5.3c0.5-0.9,1-1.7,1.7-2.4c0.7-0.7,1.6-1.3,2.5-1.5c0.1,0,0.1,0,0.1,0.1C467.2,384.9,467.2,384.9,467.1,385z
			"/>
	</g>
	<g>
		<path d="M490.7,380.7c2.8,1.7,5.8,3.1,8.8,4.1c3.1,1.1,6.2,1.8,9.4,2.2c0.8,0.1,1.6,0.2,2.4,0.2l2.4,0.1c0.8,0,1.6-0.1,2.4-0.1
			l1.2-0.1l1.2-0.2c3.2-0.4,6.2-1.5,9.2-2.7l0.6,1.4c-2.9,1.2-5.8,2.3-8.7,3.4c-2.9,1.1-5.9,2.1-8.8,3c-3,0.9-6,1.8-9,2.5
			c-3,0.7-6.1,1.3-9.4,1.4l0.5-1.6c2.3,1.5,4.7,2.9,7.2,4.2c2.5,1.3,5,2.5,7.5,3.6c2.5,1.1,5.1,2.1,7.8,3c2.6,0.9,5.3,1.5,8.1,2l0,0
			c0.3,0.1,0.5,0.3,0.4,0.6c0,0.2-0.2,0.4-0.4,0.4c-2.8,0.7-5.6,1.2-8.4,1.5c-2.8,0.4-5.6,0.6-8.5,0.6c-2.8,0-5.7-0.2-8.5-0.8
			c-2.8-0.7-5.5-1.7-7.7-3.8l0.5-0.4c1.5,2.6,3.7,4.8,6.1,6.6c2.4,1.8,5.2,3.1,8.1,3.9c2.9,0.8,5.9,0.9,8.9,0.8
			c0.7-0.1,1.5-0.2,2.2-0.3c0.7-0.1,1.5-0.1,2.2-0.4c1.5-0.4,2.9-0.7,4.4-1.1c0.3-0.1,0.7,0.1,0.8,0.4c0.1,0.3,0,0.6-0.3,0.8
			c-2.6,1.2-5.3,2.1-8.1,2.7c-2.8,0.6-5.7,0.9-8.5,0.8c-1.4,0-2.9-0.2-4.3-0.3c-0.7-0.1-1.4-0.3-2.1-0.4c-0.4-0.1-0.7-0.1-1.1-0.2
			l-1-0.3c-2.8-0.7-5.4-2-8-3.3l1-1.5c2.3,1.7,4.8,3.2,7.3,4.6c2.5,1.4,5.1,2.6,7.8,3.6c2.7,1,5.5,1.7,8.3,2.2
			c2.8,0.4,5.6,0.4,8.4,0l0.4,2.1c-5.3,0.8-10.5,1.4-15.8,1.6c-2.7,0.1-5.3,0.1-8-0.2c-2.7-0.2-5.4-0.6-8-2
			c-0.5-0.2-0.7-0.8-0.4-1.3c0.2-0.4,0.8-0.6,1.2-0.4l0,0c5.1,2.1,10.3,4.1,15.5,5.9c2.6,0.9,5.3,1.7,7.9,2.5c2.7,0.7,5.3,1.4,8,1.6
			l0,0c0.4,0,0.6,0.3,0.6,0.7c0,0.3-0.3,0.6-0.6,0.6c-2.7,0.1-5.4,0.2-8.1,0.3c-2.7,0.1-5.4,0.2-8.1,0.2c-2.7,0-5.4,0-8.1-0.1
			c-2.7-0.1-5.4-0.2-8-0.9c-0.1,0-0.1-0.1-0.1-0.1c0-0.1,0.1-0.1,0.1-0.1l0,0c2.6,0.6,5.3,0.5,8,0.6c2.7,0,5.4-0.1,8-0.2
			c5.4-0.2,10.7-0.5,16.1-0.9l0,1.3c-2.9-0.1-5.6-0.7-8.4-1.4c-2.7-0.7-5.4-1.5-8.1-2.4c-5.3-1.7-10.5-3.7-15.7-5.7l0.8-1.7
			c2.1,1.1,4.7,1.5,7.2,1.7c2.6,0.2,5.2,0.2,7.7,0.1c5.2-0.2,10.4-0.8,15.5-1.6l0,0c0.6-0.1,1.1,0.3,1.2,0.9s-0.3,1.1-0.9,1.2l0,0
			c-3,0.5-6.1,0.5-9.1,0c-3-0.5-5.9-1.3-8.7-2.4c-2.8-1.1-5.5-2.4-8.1-3.8c-2.6-1.5-5.1-3-7.5-4.8c-0.4-0.3-0.5-0.9-0.2-1.3
			c0.3-0.4,0.8-0.5,1.2-0.3l0,0c2.4,1.3,4.8,2.6,7.5,3.2l1,0.3c0.3,0.1,0.7,0.1,1,0.2c0.7,0.1,1.3,0.3,2,0.4
			c1.4,0.2,2.7,0.3,4.1,0.3c2.7,0.1,5.5-0.1,8.2-0.7c2.7-0.5,5.4-1.3,7.9-2.4l0.5,1.2c-1.5,0.4-3,0.7-4.5,1.1
			c-0.7,0.2-1.5,0.2-2.3,0.3c-0.8,0.1-1.5,0.2-2.3,0.2c-3.1,0.1-6.2-0.2-9.2-1c-3-0.9-5.8-2.3-8.3-4.2c-2.5-1.9-4.6-4.1-6.2-6.9
			c-0.1-0.2,0-0.3,0.1-0.4c0.1-0.1,0.3-0.1,0.4,0l0,0c2,1.9,4.7,3,7.4,3.6c2.7,0.6,5.5,0.8,8.3,0.7c2.8-0.1,5.6-0.3,8.4-0.7
			c2.8-0.4,5.5-1,8.2-1.7l0.1,1c-2.8-0.4-5.6-1-8.3-1.8c-2.7-0.8-5.4-1.7-8-2.8c-2.6-1.1-5.2-2.2-7.7-3.5c-2.5-1.3-5-2.7-7.4-4.2
			c-0.4-0.3-0.5-0.8-0.3-1.2c0.2-0.2,0.4-0.4,0.7-0.4l0,0c3-0.1,6-0.7,9-1.4c3-0.7,6-1.5,8.9-2.4c5.9-1.8,11.7-3.9,17.5-6.1l0,0
			c0.4-0.2,0.8,0,1,0.4c0.2,0.4,0,0.8-0.4,1l0,0c-3.1,1.2-6.3,2.3-9.6,2.6l-1.2,0.2l-1.2,0.1c-0.8,0-1.7,0.1-2.5,0.1l-2.5-0.1
			c-0.8,0-1.6-0.2-2.5-0.3c-3.3-0.5-6.5-1.4-9.5-2.6c-3.1-1.2-6-2.7-8.7-4.6c0,0-0.1-0.1,0-0.1C490.6,380.7,490.6,380.6,490.7,380.7
			L490.7,380.7z"/>
	</g>
	<g>
		<path d="M490.7,379.3c0.1,0.1,0,0.3,0.1,0.3l0,0.2c0,0.1,0,0.2,0,0.2c0,0.1-0.1,0.3-0.1,0.4c-0.1,0.2-0.2,0.3-0.4,0.3
			c-0.2,0-0.5-0.2-0.7-0.1c-0.2,0.1-0.2,0.3-0.2,0.5c0.1,0.2,0.2,0.4,0.2,0.4c0.1,0.1,0.1,0.1,0.1,0.1c-0.1,0.1-0.2,0.4-0.5,1
			c0,0.1-0.1,0.1-0.2,0.1c-0.7,0.1-1.3-0.2-1.5-0.9c-0.1-0.3,0-0.7,0.2-1c0.1-0.3,0.4-0.5,0.7-0.5c0.3-0.1,0.5-0.1,0.6-0.3
			c0.1-0.2,0.1-0.6,0.2-0.8c0.1-0.2,0.3-0.3,0.5-0.3c0.1,0,0.2,0,0.4,0.1c0.1,0,0.1,0.1,0.2,0.1c0.1,0.1,0.1,0.1,0.2,0.3
			c0,0,0-0.1,0-0.1S490.6,379.2,490.7,379.3z"/>
	</g>
	<g>
		<path d="M492.5,392.9c-0.2,0.3-0.4,0.4-0.5,0.6c-0.1,0.1-0.1,0.2,0.1,0c0.1-0.1,0.1-0.3,0-0.3c-0.1-0.1-0.2-0.1-0.2-0.1
			c-0.1,0.1,0.1,0.2,0.3,0.2c0.2,0,0.4,0.1,0.5,0.1c0.1,0.1,0.2,0.1,0.3,0.2c0,0.2,0,0.6-0.4,1.1l0,0c0,0.1-0.1,0.1-0.2,0.1
			c-0.7,0.1-1.1,0-1.3-0.2c-0.1-0.1-0.1-0.3-0.1-0.5c0-0.2,0-0.4,0.2-0.6c0.1-0.2,0.2-0.4,0.1-0.6c0-0.1-0.1-0.2-0.1-0.4
			c0-0.2,0.1-0.5,0.3-0.6c0.4-0.3,0.7-0.2,0.9-0.1c0.2,0.2,0.3,0.4,0.3,0.8C492.6,392.8,492.6,392.8,492.5,392.9L492.5,392.9z"/>
	</g>
	<g>
		<path d="M491.5,404.1c-0.2,0.4-0.3,0.5-0.3,0.7c-0.1,0.1-0.1,0.2-0.2,0.1c-0.1-0.1-0.3-0.4-0.5-0.4c-0.1,0-0.2,0.2-0.1,0.4
			c0.1,0.2,0.2,0.3,0.2,0.4c0,0.1,0.1,0.2,0.1,0.2c-0.1,0.1-0.1,0.1-0.3,0.2c-0.1,0.1-0.4,0.2-0.7,0.4l0,0c-0.1,0-0.1,0-0.2,0
			c-0.6-0.2-0.9-0.7-0.9-1.1c0-0.2,0.1-0.4,0.3-0.6c0.1-0.2,0.4-0.3,0.7-0.3c0.3,0,0.5,0,0.6-0.2c0.1-0.1,0.1-0.5,0.3-0.7
			c0.2-0.2,0.4-0.1,0.6,0c0.2,0.1,0.4,0.3,0.5,0.7C491.6,404,491.6,404,491.5,404.1L491.5,404.1z"/>
	</g>
	<g>
		<path d="M491.6,412.5c-0.1,0.4-0.1,0.6-0.2,0.8c-0.1,0.1-0.1,0.2-0.3,0.2c-0.2-0.1-0.4-0.3-0.6-0.2c-0.2,0-0.2,0.2-0.1,0.4
			c0.1,0.2,0.2,0.4,0.2,0.4c0.1,0.1,0.1,0.2,0.1,0.2c-0.1,0.1-0.3,0.3-0.9,0.7l0,0c-0.1,0-0.1,0.1-0.2,0c-0.7-0.2-1-0.6-1-1.1
			c0-0.2,0.2-0.5,0.3-0.7c0.2-0.2,0.4-0.3,0.7-0.3c0.3,0,0.5-0.1,0.6-0.2c0.1-0.2,0.1-0.5,0.2-0.7c0.1-0.2,0.3-0.2,0.6-0.2
			c0.2,0.1,0.4,0.2,0.7,0.5C491.6,412.3,491.6,412.4,491.6,412.5L491.6,412.5z"/>
	</g>
	<g>
		<path d="M492.6,423c0.1,0.4,0.1,0.6,0.1,0.7c0,0.1,0,0.2-0.1,0.2c-0.1,0-0.5-0.1-0.6-0.1c-0.1,0.1-0.1,0.2,0.1,0.4
			c0.2,0.2,0.3,0.3,0.3,0.3c0.1,0.1,0.1,0.2,0.1,0.2c0,0.1-0.1,0.2-0.3,0.3c-0.1,0.1-0.3,0.2-0.6,0.4l0,0c-0.1,0-0.1,0-0.2,0
			c-0.7-0.1-1-0.4-1.1-0.8c0-0.2,0.1-0.4,0.2-0.5c0.1-0.2,0.3-0.3,0.5-0.4c0.2-0.1,0.4-0.2,0.4-0.3c0-0.1-0.2-0.5-0.1-0.7
			c0-0.2,0.2-0.3,0.4-0.3c0.2,0,0.5,0,0.8,0.3C492.5,422.8,492.6,422.9,492.6,423L492.6,423z"/>
	</g>
	<g>
		<path d="M492,432.6c-0.1,0.4-0.2,0.6-0.3,0.8c-0.1,0.1-0.2,0.3-0.4,0.2c-0.2-0.1-0.4-0.3-0.6-0.3c-0.2,0-0.2,0.2-0.2,0.4
			c0.2,0.5,0.4,0.2,0.4,0.2c-0.1,0-0.1,0.1-0.1,0.3c0,0.2-0.1,0.4-0.2,0.8l0,0c0,0.1-0.1,0.1-0.1,0.1c-0.7,0.2-1.2,0-1.5-0.6
			c-0.3-0.6,0.1-1.6,0.8-1.6c0.3,0,0.5,0,0.6-0.2c0.1-0.1,0.2-0.5,0.3-0.7c0.1-0.2,0.4-0.2,0.6-0.1c0.2,0.1,0.4,0.2,0.7,0.5
			C492,432.4,492,432.5,492,432.6L492,432.6z"/>
	</g>
	<g>
		<path d="M468.1,383.9c-0.1,3.2,0.4,6.3,1,9.5c0.5,3.1,1.3,6.2,2,9.3c0.7,3.1,1.5,6.2,2.3,9.3c0.8,3.1,1.6,6.2,2.4,9.3
			c0.7,3.1,1.4,6.2,2.2,9.3c0.8,3.1,1.6,6.2,2.7,9.2c0.6,1.5,1.1,3,1.9,4.4c0.8,1.4,1.6,2.7,2.8,3.7c0.6,0.5,1.3,0.8,2,0.8
			c0.7,0.1,1.4-0.1,2.1-0.5c0.7-0.3,1.3-0.8,1.8-1.3c0.2-0.3,0.5-0.5,0.7-0.8c0.2-0.3,0.4-0.6,0.6-1c1.4-2.8,2.1-5.9,2.7-9
			c0.6-3.1,1-6.3,1.4-9.4c0.7-6.3,1-12.7,1.3-19.1c0.2-6.4,0.4-12.7,0.1-19.1c-0.1-1.6-0.2-3.2-0.3-4.7c-0.1-1.6-0.3-3.2-0.8-4.6
			l-0.2-0.4c-0.1-0.2-0.2-0.3-0.3-0.5l-0.7-1l-1.3-2c-0.9-1.4-1.7-2.7-2.5-4.1c0,0,0-0.1,0-0.1c0,0,0.1,0,0.1,0
			c0.9,1.3,1.9,2.6,2.8,3.9l1.5,1.9l0.7,0.9c0.1,0.2,0.2,0.3,0.4,0.5l0.4,0.6c0.6,1.6,0.9,3.2,1.2,4.8c0.2,1.6,0.4,3.2,0.6,4.8
			c0.5,6.4,0.6,12.8,0.5,19.3c-0.2,6.4-0.7,12.8-1.5,19.2c-0.4,3.2-1,6.4-1.7,9.5c-0.7,3.1-1.7,6.3-3.3,9.2c-0.2,0.4-0.5,0.7-0.7,1
			c-0.2,0.3-0.6,0.6-0.9,0.9c-0.6,0.5-1.3,1-2.1,1.4c-0.8,0.4-1.7,0.6-2.5,0.4c-0.9-0.1-1.7-0.5-2.3-1c-1.3-1.1-2.2-2.5-2.9-3.9
			c-0.7-1.4-1.4-2.9-2-4.4c-2.3-6-4.1-12.2-5.9-18.3c-1.7-6.2-3.3-12.4-4.5-18.7c-0.6-3.2-1.1-6.3-1.5-9.5c-0.2-1.6-0.3-3.2-0.4-4.8
			c0-1.6,0-3.2,0.2-4.8c0-0.1,0.1-0.1,0.1-0.1C468.1,383.8,468.1,383.8,468.1,383.9z"/>
	</g>
	<g>
		<path d="M528.3,378.5c-3.2,4.7-6.2,9.6-7.3,15c-0.3,1.3-0.4,2.8-0.7,4.2c-0.2,1.4-0.5,2.8-0.6,4.3c-0.4,2.8-0.5,5.7-0.6,8.6
			c-0.1,2.9-0.2,5.7-0.3,8.6c-0.1,2.8-0.2,5.7-0.3,8.5c-0.1,1.4-0.1,2.8-0.1,4.2c0,1.4,0,2.8,0.2,4.1c0.1,0.3,0.1,0.6,0.2,0.9
			c0,0.2,0.1,0.2,0.1,0.3c0.1,0.1,0.2,0.2,0.3,0.3c0.5,0.4,1,0.7,1.6,0.7c1.2,0,2.5-0.8,3.4-1.9l0,0c0,0,0.1,0,0.1,0
			c0,0,0,0.1,0,0.1c-0.3,0.7-0.8,1.2-1.4,1.7c-0.6,0.5-1.3,0.9-2.1,1c-0.8,0.1-1.7-0.2-2.4-0.6c-0.2-0.1-0.3-0.2-0.5-0.4
			c-0.2-0.2-0.4-0.4-0.5-0.6c-0.2-0.4-0.4-0.8-0.5-1.2c-0.4-1.5-0.5-3-0.6-4.4c-0.1-1.5-0.1-2.9-0.1-4.3c0.1-2.9,0.3-5.7,0.6-8.6
			c0.3-2.9,0.7-5.7,1.1-8.5c0.4-2.8,0.9-5.7,1.1-8.5c0.1-1.4,0.2-2.9,0.2-4.3c0-1.4,0-2.8,0.1-4.4c0.4-3,1.7-5.7,3.2-8.2
			c1.6-2.5,3.4-4.7,5.6-6.6c0,0,0.1,0,0.1,0C528.3,378.4,528.3,378.5,528.3,378.5L528.3,378.5z"/>
	</g>
	<g>
		<path d="M454.5,551.4c2.5,1,4.9,2.1,7.2,3.7c1.1,0.8,2.2,1.6,3.1,2.7c0.9,1,1.7,2.3,1.8,3.8l-0.2-0.3c3.5,2.6,6.8,5.2,10.1,8
			c1.6,1.4,3.3,2.8,4.8,4.4c0.2,0.2,0.4,0.4,0.5,0.6l0.5,0.5c0.4,0.3,0.8,0.6,1.3,0.8c0.9,0.5,1.9,0.9,2.9,1.3c2,0.8,4,1.5,6,2.4
			c2,0.8,3.9,1.9,5.8,3c3.7,2.3,7.2,5.1,10,8.5l-0.3-0.2c1.6,0.7,3.2,1.5,4.8,2.3c1.6,0.8,3.1,1.7,4.7,2.6c1.5,0.9,3,1.9,4.5,3
			c1.4,1.1,2.8,2.3,4.1,3.6c0.1,0.2,0.2,0.4,0.2,0.6l0,0.9v0c0,0.3-0.1,0.5-0.3,0.6c-5.6,5.1-11.2,10.2-17,15.1
			c-2.9,2.5-5.7,4.9-8.8,7.3c-0.4,0.3-0.7,0.6-1.2,0.9c-0.2,0.1-0.4,0.3-0.7,0.4c-0.3,0.1-0.6,0.2-0.9,0.3c-1.2,0.2-2.3-0.4-3.1-1
			c-1.6-1.2-2.8-2.8-3.8-4.4l0.9,0c-2.8,4.4-5.7,8.7-8.9,12.8c-1.6,2.1-3.3,4-5.2,5.9c-1.8,1.8-3.9,3.6-6.4,4.5
			c-9.6,3.8-19.1,8-28.4,12.7c-4.6,2.3-9.2,4.8-13.7,7.3c-4.5,2.6-8.9,5.3-13.1,8.2c-1.1,0.7-2.1,1.5-3.1,2.3
			c-1,0.8-2.1,1.5-3.1,2.3l-3,2.4c-0.4,0.4-0.9,0.8-1.3,1.3c-0.4,0.5-0.8,0.9-1.1,1.5c-1.4,2-2.3,4.4-2.8,6.9
			c-0.5,2.4-0.8,5-0.7,7.5v0c0,0.5-0.4,0.9-0.9,0.9c-0.4,0-0.8-0.2-0.9-0.6c-1.2-3.2-2.4-6.5-3.8-9.6c-0.3-0.8-0.7-1.5-1.1-2.2
			c-0.6-0.9-0.8-2-0.8-3c0.1-2,0.9-3.8,1.8-5.3c1.9-3.1,4.4-5.6,6.9-8.1c2.6-2.4,5.3-4.6,8.1-6.7c5.6-4.1,11.5-7.9,17.6-11.2
			c3.1-1.7,6.1-3.2,9.3-4.6c3.2-1.4,6.4-2.7,9.5-4c6.3-2.8,12.3-6,17.8-10.1c2.7-2.1,5.3-4.3,7.6-6.8c2.4-2.5,4.6-5.1,7.1-7.6
			c9.6-9.9,19.9-19.3,31.5-26.8c0,0,0.1,0,0.1,0c0,0,0,0.1,0,0.1l0,0c-5.7,3.9-10.9,8.4-16,13c-5.1,4.6-10,9.5-14.6,14.6
			c-2.4,2.5-4.5,5.1-6.9,7.7c-2.3,2.6-4.9,5-7.7,7.1c-5.5,4.3-11.7,7.7-18,10.6c-3.2,1.5-6.4,2.7-9.5,4.1c-3.1,1.4-6.2,3-9.2,4.6
			c-6,3.3-11.8,7-17.3,11.1c-2.7,2.1-5.4,4.2-7.9,6.5c-2.5,2.3-4.9,4.8-6.6,7.6c-0.8,1.4-1.5,2.9-1.6,4.3c0,0.7,0.2,1.4,0.5,1.9
			c0.5,0.8,0.9,1.6,1.2,2.4c1.4,3.2,2.6,6.5,3.7,9.7l-1.8,0.3c-0.1-2.7,0.2-5.3,0.9-8c0.6-2.6,1.6-5.1,3.1-7.4
			c0.4-0.6,0.8-1.1,1.3-1.6c0.5-0.5,1-1,1.5-1.4l3.1-2.4c1-0.8,2.1-1.5,3.2-2.3c1.1-0.7,2.1-1.5,3.2-2.2
			c8.7-5.7,17.9-10.6,27.2-15.2c9.3-4.5,18.9-8.7,28.5-12.5c2.4-0.9,4.3-2.6,6.2-4.4c1.8-1.8,3.5-3.8,5.1-5.8
			c3.2-4.1,6-8.4,8.6-12.8c0.2-0.3,0.5-0.3,0.7-0.2c0.1,0,0.1,0.1,0.2,0.2l0,0c1,1.5,2.2,3,3.6,4c0.7,0.5,1.5,0.9,2.2,0.7
			c0.2,0,0.3-0.1,0.5-0.2l0.5-0.4c0.4-0.2,0.7-0.6,1.1-0.8c2.9-2.4,5.7-4.9,8.5-7.4c5.6-5.1,11.3-10.1,16.8-15.2l-0.3,0.7l0-0.9
			l0.2,0.6c-1.1-1.2-2.5-2.3-3.8-3.4c-1.4-1.1-2.8-2-4.3-2.9c-3-1.8-6.1-3.5-9.2-4.9l0,0c-0.1-0.1-0.2-0.1-0.3-0.2
			c-2.7-3.2-5.9-6-9.5-8.2c-3.6-2.2-7.5-3.8-11.5-5.4c-1-0.4-2-0.8-3-1.4c-0.5-0.2-1-0.6-1.4-1l-0.6-0.7l-0.5-0.6
			c-1.4-1.6-3-3-4.6-4.4c-3.2-2.8-6.5-5.5-9.9-8.2l0,0c-0.1-0.1-0.1-0.2-0.1-0.3c0-1.2-0.7-2.4-1.5-3.4c-0.8-1-1.8-1.9-2.9-2.7
			c-2.1-1.5-4.5-2.8-7-3.9c-0.1,0-0.1-0.1-0.1-0.1C454.4,551.4,454.4,551.4,454.5,551.4z"/>
	</g>
	<g>
		<path d="M525.4,602.5c1.2,1.9,1.8,4.1,2,6.4c0.2,2.3-0.3,4.6-1.4,6.7c-0.3,0.5-0.6,1-0.9,1.5l-1.1,1.4c-0.7,0.8-1.4,1.7-2,2.6
			c-1.3,1.8-2.5,3.6-3.8,5.4c-2.5,3.7-4.9,7.4-7.7,10.9c-1.4,1.7-2.9,3.5-4.6,5c-1.7,1.5-3.6,2.9-5.9,3.6c-0.2,0.1-0.4,0-0.6-0.1
			c-1.2-0.6-2.5-1.2-3.8-1.2c-0.7,0-1.3,0.1-1.8,0.4l-0.4,0.2l-0.3,0.3l-0.9,0.8c-1.2,0.9-2.4,1.7-3.6,2.6l-3.7,2.5
			c-4.9,3.3-9.7,6.6-14.6,10l-28.9,20.3c-4.8,3.4-9.6,6.8-14.2,10.4c-2.2,1.8-4.5,3.8-7,5.5c-2.5,1.7-5.1,3.2-8,4.2
			c-1.4,0.5-2.9,0.9-4.5,1.1c-1.5,0.2-3.2,0.1-4.7-0.4c-1.5-0.5-3-1.6-3.7-3.2c-0.7-1.5-0.9-3.2-0.7-4.7c0.2-1.6,0.6-3,1.2-4.4
			c0.6-1.4,1.3-2.7,2.1-4c1.6-2.5,3.5-4.8,5.6-6.9c0,0,0.1,0,0.1,0c0,0,0,0.1,0,0.1c-1.9,2.3-3.6,4.6-5.1,7.1
			c-0.7,1.3-1.4,2.6-1.8,3.9c-0.5,1.3-0.9,2.7-0.9,4.1c-0.1,1.4,0.1,2.8,0.7,3.9c0.6,1.1,1.7,1.9,2.9,2.3c2.5,0.8,5.4,0.1,8-0.9
			c2.6-1.1,5.1-2.5,7.5-4.1c2.4-1.7,4.5-3.6,6.9-5.4c4.7-3.6,9.6-6.9,14.4-10.2c4.9-3.3,9.8-6.6,14.7-9.8l14.8-9.6
			c4.9-3.3,9.8-6.5,14.6-9.9c2.4-1.7,4.8-3.4,7-5.3l0.8-0.7l0.4-0.5c0.2-0.1,0.4-0.3,0.5-0.4c0.7-0.4,1.6-0.6,2.4-0.6
			c1.6,0,3.1,0.5,4.5,1.2l-0.6-0.1c1.9-0.7,3.6-2.1,5.2-3.5c1.6-1.5,3-3.1,4.4-4.8c2.7-3.4,5.2-7.1,7.8-10.7c1.3-1.8,2.6-3.6,4-5.4
			c0.7-0.9,1.4-1.7,2.2-2.6l1-1.2c0.3-0.4,0.6-0.9,0.9-1.3c1.1-1.8,1.6-4,1.6-6.1c0-2.2-0.5-4.3-1.5-6.3l0,0c0,0,0-0.1,0-0.1
			C525.3,602.4,525.4,602.4,525.4,602.5z"/>
	</g>
	<g>
		<path d="M394,683.6c-1.2-2.7-2.1-5.5-2.4-8.6c-0.3-3,0.1-6.1,1.2-8.9c1.1-2.9,2.9-5.3,4.7-7.6c0.5-0.6,1-1.1,1.4-1.7
			c0.5-0.6,1-1,1.5-1.6c1-1.1,2.1-2.1,3.2-3.1l6.5-5.9c2.2-2,4.3-3.9,6.6-5.8c1.1-0.9,2.3-1.9,3.5-2.7c0.6-0.4,1.2-0.9,1.8-1.3
			l1-0.6l0.1-0.1l0,0c0,0,0.1,0,0.1,0c0.1-0.1,0.1-0.1,0.2-0.2c0.2-0.4,0.3-1.1,0.2-1.8c0-0.7-0.1-1.4-0.2-2.1
			c-0.1-0.7-0.2-1.5-0.3-2.2c0-0.7-0.1-1.5,0.3-2.3c0,0,0.1-0.1,0.1,0c0,0,0.1,0.1,0,0.1l0,0c-0.2,0.7,0,1.4,0.2,2.1
			c0.2,0.7,0.4,1.4,0.6,2.1c0.2,0.7,0.4,1.4,0.6,2.2c0.1,0.8,0.3,1.6-0.1,2.6c-0.1,0.2-0.3,0.5-0.4,0.7c-0.1,0.1-0.2,0.2-0.3,0.3
			l-0.3,0.2L423,638c-0.5,0.4-1.1,0.9-1.6,1.4l-3.3,2.9c-2.2,1.9-4.5,3.7-6.7,5.6c-1.1,0.9-2.3,1.8-3.4,2.7
			c-0.6,0.4-1.2,0.9-1.8,1.3c-0.6,0.4-1.2,0.8-1.8,1.3c-1.1,0.9-2.4,1.7-3.4,2.7c-0.5,0.5-1.1,1-1.6,1.5c-0.5,0.6-0.9,1.1-1.4,1.7
			c-1.7,2.3-3,5-3.7,7.7c-0.8,2.7-1.2,5.5-1.2,8.3c0,2.8,0.5,5.7,1,8.6c0,0.1,0,0.1-0.1,0.1C394.1,683.7,394.1,683.7,394,683.6
			L394,683.6z"/>
	</g>
	<g>
		<path d="M423.3,556.9c2.3,4,4.3,8.1,6.6,12c0.6,1,1.1,2,1.8,2.8c0.3,0.4,0.7,0.8,1.1,1.2c0.4,0.3,0.9,0.6,1.4,0.5
			c0.5,0,0.9-0.3,1.4-0.6c0.5-0.3,1-0.6,1.5-1l2.9-1.9c2-1.2,4-2.4,6.1-3.4c2.1-1,4.2-2,6.4-2.7c4.4-1.5,9-2.7,13.7-2.4
			c0.1,0,0.1,0.1,0.1,0.1c0,0,0,0.1-0.1,0.1c-4.5,1-8.7,2.6-13,4.2c-2.1,0.8-4.3,1.6-6.4,2.5l-6.3,2.6c-1,0.5-2.1,0.9-3.1,1.5
			c-0.5,0.3-1,0.6-1.5,0.9c-0.4,0.3-1,0.7-1.7,0.8c-0.7,0.1-1.3-0.2-1.9-0.5c-0.6-0.3-1-0.7-1.5-1.1c-0.9-0.8-1.7-1.7-2.4-2.7
			c-1.4-1.9-2.4-4.1-3.3-6.2c-0.9-2.2-1.6-4.4-2.1-6.7c0-0.1,0-0.1,0.1-0.1C423.2,556.8,423.3,556.9,423.3,556.9z"/>
	</g>
	<g>
		<path d="M411.5,565.4c-0.1,0.7,0.3,1.3,0.6,1.9c0.3,0.6,0.7,1.2,1.1,1.8c0.8,1.2,1.7,2.4,2.5,3.6c1.6,2.4,3.2,4.9,4.3,7.7
			c0.5,1.4,1,2.8,1.3,4.2c0.3,1.4,0.6,2.9,0.8,4.4c0.2,1.5,0.3,2.9,0.2,4.4c0,0.7-0.1,1.5-0.1,2.2c-0.1,0.7-0.2,1.5-0.3,2.2
			c-0.4,2.9-0.8,5.7-1.1,8.6c-0.3,2.9-0.5,5.7-0.5,8.5c0,2.8,0.1,5.7,1,8.2c0.4,1.3,1.1,2.5,2.1,3.4c1,0.9,2.3,1.5,3.7,1.8
			c0.1,0,0.1,0.1,0.1,0.1c0,0-0.1,0.1-0.1,0.1c-1.5,0-3-0.3-4.3-1.2c-1.3-0.9-2.3-2.2-2.9-3.6c-1.3-2.8-1.6-5.9-1.7-8.8
			c0-3,0.3-5.9,0.8-8.8c0.4-2.9,1.1-5.7,1.9-8.6c0.8-2.7,1.1-5.7,0.6-8.5c-0.5-2.8-1.7-5.5-3-8c-1.3-2.5-2.7-5-4.1-7.5
			c-0.7-1.3-1.4-2.5-2.1-3.8c-0.3-0.7-0.6-1.3-0.9-2.1c-0.2-0.7-0.4-1.5-0.1-2.3c0-0.1,0.1-0.1,0.1-0.1
			C411.5,565.3,411.5,565.3,411.5,565.4L411.5,565.4z"/>
	</g>
	<g>
		<path d="M419.2,638.6c-0.4-2.9-0.7-5.7-0.9-8.6c-0.2-2.9-0.5-5.7-0.6-8.5c0-1.4-0.1-2.9-0.1-4.3c0-1.4-0.1-2.9-0.3-4.3
			c-0.4-2.8-1-5.7-2.3-8.1c-2.8-4.9-6.3-9.4-9-14.7c-1.3-2.6-2.3-5.4-2.9-8.3c-0.5-2.9-0.6-5.9,0.1-8.7c0-0.1,0.1-0.1,0.1-0.1
			c0,0,0.1,0.1,0.1,0.1c-0.1,5.8,1.9,11.1,4.5,16c1.3,2.5,2.7,5,4.1,7.4c1.5,2.5,2.9,5,3.9,7.7c0.3,0.7,0.5,1.4,0.7,2.1
			c0.1,0.7,0.3,1.4,0.5,2.1c0.3,1.4,0.5,2.8,0.8,4.3c0.5,2.8,1.1,5.7,1.5,8.5c0.3,2.9,0.4,5.7,0.5,8.6c0,2.9-0.1,5.8-0.5,8.6
			C419.4,638.7,419.3,638.7,419.2,638.6C419.2,638.7,419.2,638.7,419.2,638.6z"/>
	</g>
	<g>
		<path d="M403.3,578.3c0,0,0-0.1,0.1-0.1l0.1-0.1l0.1-0.1l0.2-0.2l0.4-0.4l0.9-0.8l1.8-1.5l3.6-3c2.4-2,4.9-3.9,7.4-5.9
			c0.3-0.2,0.7-0.2,0.9,0.1c0.2,0.2,0.2,0.5,0.1,0.7l0,0c-2,3.5-4,6.9-6,10.3c-2,3.4-4.1,6.9-6.1,10.3l-1.1-1.3
			c2.9-1.3,5.8-2.5,8.7-3.8l8.8-3.6l0,0c0.3-0.1,0.6,0,0.8,0.3c0.1,0.2,0,0.4-0.1,0.6c-2.1,2.9-4.2,5.7-6.2,8.6
			c-2.1,2.9-4.1,5.8-6.1,8.7l-0.4-0.5c2.7-1.6,5.4-3.1,8-4.7l8-4.8c0.3-0.2,0.6-0.1,0.8,0.2c0.1,0.2,0.1,0.5,0,0.7l0,0l-6.2,7.6
			l-6.3,7.5l-1.1-1.4l12.7-5.8c0.5-0.2,1.1,0,1.3,0.5c0.2,0.4,0.1,0.8-0.2,1.1l0,0c-3.5,3.7-7,7.4-10.6,11l-1.2-1.7
			c2.1-0.8,4.2-1.6,6.3-2.4c1.1-0.4,2.1-0.7,3.3-1c0.3-0.1,0.6-0.1,1-0.2c0.1,0,0.2,0,0.4,0c0.1,0,0.2,0,0.3,0c0,0,0.3,0.1,0.4,0.2
			c0.1,0.1,0.2,0.2,0.3,0.4c0.1,0.2,0.2,0.4,0.1,0.7c0,0,0,0.1,0,0.1l0,0l0,0l-0.1,0.2c0,0.1-0.1,0.3-0.2,0.3c-0.3,0.5-0.7,1-1,1.4
			c-2.7,3.6-5.4,7.1-8.2,10.5l-0.8-1.2c1.9-0.5,3.9-0.9,5.9-1.4l2.9-0.6c0.5-0.1,1-0.2,1.5-0.3l0.4-0.1l0.1,0l0.1,0l0.1,0
			c0,0,0.1,0,0.2,0c0,0,0.2,0,0.3,0.2c0.1,0.2,0.1,0.3,0.1,0.4c0,0.1-0.1,0.3-0.1,0.3l0,0c-0.1,0.1-0.1,0.1-0.1,0.1l-0.1,0.1
			l-0.6,0.4c-1.7,1-3.4,2.1-5.1,3.2c-0.8,0.6-1.7,1.1-2.4,1.7c-0.8,0.6-1.6,1.2-2.2,2l0,0c0,0-0.1,0.1-0.1,0c0,0-0.1-0.1,0-0.1
			c0.5-0.9,1.3-1.6,2.1-2.2c0.8-0.7,1.6-1.3,2.4-1.9c1.6-1.2,3.2-2.4,4.9-3.5l0.6-0.4l0.1-0.1c0,0,0,0,0,0l0,0c0,0-0.1,0.2-0.1,0.3
			c0,0.1,0,0.2,0.1,0.4c0.1,0.1,0.3,0.2,0.2,0.2c0,0,0.1,0,0.1,0l0,0c0,0,0,0,0,0l-0.1,0l-0.3,0.1c-0.5,0.1-1,0.2-1.4,0.3l-2.9,0.8
			l-5.8,1.6c-0.4,0.1-0.8-0.1-0.9-0.5c-0.1-0.2,0-0.5,0.1-0.7l0,0c2.7-3.5,5.3-7.1,7.9-10.7c0.3-0.4,0.6-0.9,0.9-1.3c0,0,0,0,0,0
			l0,0l0,0l0,0l0,0.1c0,0.2,0,0.4,0.1,0.6c0.1,0.1,0.1,0.2,0.3,0.3c0.1,0,0.1,0.1,0.2,0.1l0.1,0c0,0,0.1,0,0.1,0c0,0,0,0-0.1,0
			c-0.2,0-0.4,0.1-0.7,0.2c-1,0.3-2,0.7-3.1,1c-2.1,0.8-4.1,1.6-6.2,2.4c-0.5,0.2-1.2,0-1.4-0.6c-0.2-0.4-0.1-0.9,0.2-1.1
			c3.5-3.7,7.1-7.3,10.6-11l1.1,1.6l-12.8,5.6l0,0c-0.5,0.2-1,0-1.2-0.5c-0.1-0.3-0.1-0.7,0.1-1l6.5-7.4l6.5-7.3l0.7,0.9l-8.1,4.5
			c-2.7,1.5-5.4,3-8.1,4.6l0,0c-0.2,0.1-0.3,0-0.4-0.1c-0.1-0.1-0.1-0.2,0-0.3c2-2.9,4-5.8,6-8.7c2-2.9,3.9-5.9,5.9-8.8l0.7,0.9
			l-8.6,4c-2.9,1.3-5.8,2.7-8.7,3.9c-0.5,0.2-1,0-1.2-0.5c-0.1-0.3-0.1-0.6,0.1-0.8c2-3.4,4.1-6.8,6.2-10.2
			c2.1-3.4,4.2-6.8,6.3-10.2l1,0.9l-7.6,5.6l-3.8,2.8l-1.9,1.4l-0.9,0.7l-0.9,0.7L403.3,578.3C403.3,578.4,403.3,578.4,403.3,578.3
			C403.3,578.3,403.2,578.3,403.3,578.3z"/>
	</g>
	<g>
		<path d="M430.1,611.6c0.4,0.1,0.6,0.3,0.7,0.6c0.1,0.2,0.2,0.4,0.1,0.7c-0.1,0.2-0.5,0.4-0.6,0.6c-0.1,0.2,0,0.4,0.1,0.7
			c0.1,0.3,0.2,0.5,0.2,0.8c0,0.2,0,0.5-0.2,0.7c-0.3,0.4-0.8,0.7-1.5,0.6c-0.1,0-0.1-0.1-0.1-0.1l0,0c-0.2-0.7-0.3-1.1-0.2-1.4
			c0-0.1,0.2-0.3,0.3-0.4c0.1-0.1,0.3-0.2,0.5-0.4c0.2-0.1,0.4-0.3,0.3-0.5c0-0.2-0.3-0.4-0.5-0.6c-0.1-0.2,0-0.3,0-0.5
			c0.1-0.2,0.3-0.4,0.6-0.6l0,0C430,611.6,430.1,611.6,430.1,611.6z"/>
	</g>
	<g>
		<path d="M427.3,601.3c0.4-0.2,0.7-0.2,1-0.2c0.3,0.1,0.6,0.1,0.7,0.4c0.2,0.3,0.2,0.7,0.3,0.9c0.2,0.2,0.4,0.3,0.7,0.4
			c0.2,0.1,0.3,0.1,0.5,0.2c0.1,0.1,0.3,0.2,0.4,0.4c0.1,0.2,0.2,0.3,0.3,0.5c0.1,0.2,0.1,0.4,0.1,0.6c-0.1,0.4-0.3,0.9-0.6,1.1
			c-0.3,0.3-0.7,0.3-1.1,0.3c-0.1,0-0.1-0.1-0.1-0.1l0,0c-0.1-0.8-0.2-1.2-0.3-1.3c0,0,0-0.1,0-0.1c0-0.1,0-0.1,0-0.2
			c0-0.2,0-0.4,0-0.7c0-0.3-0.1-0.6-0.3-0.7c-0.2-0.1-0.6,0-0.9,0c-0.3,0-0.4-0.2-0.6-0.4c-0.1-0.2-0.3-0.5-0.3-0.9l0,0
			C427.2,601.4,427.2,601.3,427.3,601.3z"/>
	</g>
	<g>
		<path d="M428.7,594.2c0.2-0.3,0.5-0.5,0.7-0.5c0.2,0,0.4,0,0.6,0.2c0.1,0.2,0.1,0.6,0.2,0.8c0.1,0.2,0.3,0.3,0.5,0.5
			c0.3,0.2,0.4,0.5,0.4,0.8c0,0.3,0,0.5-0.1,0.8c-0.3,0.3-0.7,0.5-1.4,0.3c-0.1,0-0.1-0.1-0.1-0.1l0,0c-0.1-0.3-0.2-0.6-0.3-0.8
			c-0.1-0.2-0.1-0.3-0.1-0.4c0-0.1,0.1-0.1,0.2-0.1c0,0,0.1,0,0.1,0c0.1,0,0.2,0,0.2-0.1c0.2-0.1,0.2-0.3,0.1-0.3
			c-0.1,0-0.4,0.2-0.5,0.2c-0.1,0.1-0.2,0-0.3-0.2c-0.1-0.2-0.1-0.4-0.2-0.8l0,0C428.7,594.3,428.7,594.2,428.7,594.2z"/>
	</g>
	<g>
		<path d="M427.2,584.3c0.3-0.3,0.6-0.4,0.9-0.5c0.3,0,0.6,0,0.7,0.3c0.2,0.3,0.2,0.7,0.3,0.9c0.1,0.2,0.3,0.3,0.6,0.5
			c0.3,0.2,0.5,0.5,0.6,0.7c0.1,0.3,0.1,0.6,0.1,0.9c-0.2,0.5-0.6,0.9-1.4,1c-0.1,0-0.1,0-0.2-0.1l0,0c-0.2-0.3-0.3-0.6-0.4-0.8
			c-0.1-0.2-0.1-0.4-0.1-0.5c0-0.1,0.1-0.2,0.1-0.4c0-0.1,0.1-0.1,0.1-0.2c0-0.1,0.1-0.2,0.2-0.3c0.1-0.2,0.1-0.4-0.1-0.5
			c-0.2-0.1-0.5,0.1-0.7,0.1c-0.2,0-0.3-0.1-0.4-0.2c-0.1-0.2-0.2-0.4-0.3-0.8l0,0C427.2,584.4,427.2,584.3,427.2,584.3z"/>
	</g>
	<g>
		<path d="M424.3,575.4c0.2-0.4,0.4-0.6,0.7-0.7c0.3-0.1,0.7,0,1,0.3c0.2,0.3,0.2,0.8,0.2,1c0,0.3,0.2,0.5,0.4,0.7
			c0.2,0.2,0.4,0.5,0.4,0.8c0,0.3,0.1,0.5,0,0.7c-0.2,0.5-0.6,0.8-1.3,1c-0.1,0-0.1,0-0.2-0.1l0,0c-0.5-0.6-0.6-1-0.6-1.4
			c0-0.2,0.1-0.3,0.2-0.5c0.1-0.2,0.2-0.3,0.4-0.5c0.2-0.2,0.2-0.4,0.1-0.5c-0.1-0.1-0.5,0-0.6,0.1c-0.1,0.1-0.1,0-0.2-0.1l-0.5-0.6
			l0,0C424.3,575.5,424.3,575.5,424.3,575.4z"/>
	</g>
	<g>
		<path d="M416.1,563.8c0-0.5,0.2-0.8,0.4-1.1c0.2-0.2,0.5-0.5,0.9-0.5c0.4,0,0.8,0.2,1.1,0.3c0.3,0.1,0.7,0.1,1.2,0.3
			c0.2,0.1,0.4,0.3,0.5,0.5c0.1,0.2,0.2,0.4,0.3,0.6c0.1,0.3,0.2,0.8,0.1,1.1c-0.1,0.7-0.5,1.2-1.3,1.7c-0.1,0-0.1,0-0.2,0l0,0
			c-0.3-0.4-0.4-0.7-0.5-1c-0.1-0.3-0.2-0.6-0.2-0.8c0-0.3,0-0.4,0.1-0.7c0-0.1,0-0.2,0.1-0.3c0-0.1,0.1-0.2,0.1-0.3
			c0-0.1,0-0.2-0.1-0.3c-0.1-0.1-0.2-0.1-0.3-0.1c-0.2,0-0.4,0.4-0.6,0.6c-0.2,0.2-0.4,0.2-0.7,0.2c-0.3,0-0.6,0-1.1-0.1l0,0
			C416.1,563.9,416.1,563.8,416.1,563.8z"/>
	</g>
	<circle class="st2" cx="502.9" cy="88.7" r="14.3"/>
	<circle class="st0" cx="230.4" cy="275.1" r="9.2"/>
	<circle class="st3" cx="17.1" cy="120.4" r="10.9"/>
	<circle class="st4" cx="77.6" cy="390.6" r="11.3"/>
	<path class="st2" d="M123.9,241c0,3.5,0,6.4,0,6.4S123.9,244.6,123.9,241c0-3.5,0-6.4,0-6.4S123.9,237.5,123.9,241z"/>
	<circle class="st2" cx="31.7" cy="39.9" r="3.8"/>
	<circle class="st2" cx="640.9" cy="172.6" r="28"/>
	<circle class="st4" cx="416.2" cy="42.4" r="9.9"/>
</g>
</svg>
