<svg width="184" height="184" viewBox="0 0 184 184" fill="none" xmlns="http://www.w3.org/2000/svg">
<path fill-rule="evenodd" clip-rule="evenodd" d="M120.878 53.0642C122.607 49.4134 126.311 44.4758 126.215 45.8563C126.118 47.2368 130.268 64.6772 131.14 65.1517C132.013 65.6263 147.741 66.4445 147.515 67.1275C147.289 67.8104 147.493 67.9999 145.46 69.0035C144.105 69.6725 139.3 72.68 131.047 78.0259C130.571 78.1855 130.578 78.7713 131.065 79.7833C131.797 81.3014 133.637 89.4577 134.329 92.0108C135.02 94.564 136.319 101.376 135.388 101.999C134.456 102.623 130.535 97.999 129.722 96.971C128.909 95.943 123.549 83.987 121.949 83.8751C120.35 83.7633 116.419 88.5899 115.572 89.45C114.724 90.3102 105.903 99.1545 102.949 99.3393C99.9941 99.5242 101.106 97.2096 103.349 93.6055C104.845 91.2028 107.884 85.5667 112.466 76.6974C110.547 75.6779 108.839 74.8679 107.342 74.2676C105.096 73.367 98.0075 70.4628 97.0144 70.0886C96.0212 69.7143 99.2967 68.5719 101.75 67.3452C104.203 66.1185 113.36 63.9084 116.312 64.1148C118.203 59.1816 119.725 55.4981 120.878 53.0642Z" stroke="#263238" stroke-width="5" stroke-linecap="round" stroke-linejoin="round"/>
<path fill-rule="evenodd" clip-rule="evenodd" d="M57.7056 57.8742C58.569 53.928 62.0729 48.1842 62.2894 49.551C62.5059 50.9178 70.472 66.9779 71.4289 67.244C72.3858 67.5101 87.8947 64.7693 87.8284 65.4856C87.7621 66.2018 88.0031 66.3406 86.2481 67.7757C85.0781 68.7325 81.0734 72.7437 74.2338 79.8092C73.8066 80.0716 73.9445 80.641 74.6475 81.5173C75.7019 82.8319 79.3298 90.3652 80.5777 92.6974C81.8256 95.0296 84.6237 101.374 83.8565 102.191C83.0894 103.008 78.2282 99.3856 77.2047 98.5668C76.1813 97.748 68.2689 87.3042 66.6855 87.555C65.102 87.8058 62.3575 93.3929 61.7254 94.4216C61.0932 95.4504 54.4875 106.052 51.6504 106.897C48.8133 107.742 49.376 105.236 50.7513 101.22C51.6681 98.5424 53.3612 92.3672 55.8304 82.6945C53.7317 82.1327 51.8853 81.7277 50.2914 81.4796C47.9005 81.1073 40.3402 79.8721 39.2884 79.7309C38.2365 79.5896 41.171 77.7397 43.2856 75.9925C45.4002 74.2454 50.2323 71.4402 53.1546 70.9774C55.613 64.8727 57.1299 60.505 57.7056 57.8742Z" stroke="#263238" stroke-width="5" stroke-linecap="round" stroke-linejoin="round"/>
<path d="M68.826 124.23C93.1186 175.051 173.869 86.8558 70.645 119.255" stroke="#263238" stroke-width="5" stroke-linecap="round" stroke-linejoin="round"/>
</svg>
