<?xml version="1.0" encoding="utf-8"?>
<!-- Generator: Adobe Illustrator 25.4.1, SVG Export Plug-In . SVG Version: 6.00 Build 0)  -->
<svg version="1.1" id="Capa_1" xmlns="http://www.w3.org/2000/svg" xmlns:xlink="http://www.w3.org/1999/xlink" x="0px" y="0px"
	 viewBox="0 0 250.3 381" style="enable-background:new 0 0 250.3 381;" xml:space="preserve">
<style type="text/css">
	.st0{fill:#FAE058;}
	.st1{fill:#ECCEFF;}
	.st2{fill:#77F169;}
	.st3{fill:#0049E5;}
	.st4{fill:#F089C0;}
</style>
<g>
	<polygon class="st0" points="43.1,99.2 37.7,109.1 43.1,129.2 224.5,124.5 215.4,90.9 	"/>
	<polygon class="st0" points="37.7,344.9 37.7,374.3 224.5,376.8 231.8,350.2 	"/>
	<path class="st0" d="M55.8,173.2c18.1,5.6,49,28.3,93.4,15.6s13.9-1.6-2.7,19c-16.8,20.8-7.3,33.5-7.3,56.8s57.2,45.2,57.2,45.2
		s9.9,15.6,10.8,29.3c0.9,13.7-146.9,8.3-146.9,8.3s-15.9-24.6,1.8-30.4s59-8.5,59.9-40.6c0.9-32.1,0.9-57-11.5-63.3
		C98.2,206.9,55.8,173.2,55.8,173.2z"/>
	<path d="M211.7,173.2l-0.1-44.8l0.2,0.2l-78,0.5l-39,0.1c-13,0.1-26,0-39,0l0.9-0.9l-0.1,36.4c0,3-0.1,6.1,0,9.1
		c0,2.9,0.8,5.8,2.3,8.4c1.4,2.6,3.4,4.8,5.6,6.8c2.3,1.9,4.8,3.6,7.4,5.1c10.5,6,22.1,9.8,33,15.3c2.7,1.4,5.4,2.9,7.9,4.6
		c2.5,1.8,4.8,3.8,6.7,6.2c1.9,2.4,3.2,5.3,3.7,8.4c0.3,3.1,0.3,6.1,0.4,9.1v0.1c-0.2,3-0.2,6-0.5,9.1c-0.5,3.1-1.8,6-3.7,8.4
		c-1.9,2.4-4.2,4.5-6.7,6.2c-2.5,1.7-5.2,3.2-7.9,4.7c-10.9,5.5-22.5,9.2-33,15.3c-2.6,1.5-5.1,3.2-7.4,5.1c-2.2,2-4.2,4.2-5.7,6.8
		c-1.4,2.6-2.3,5.5-2.3,8.5c-0.1,3,0,6.1,0,9.1l0.1,36.4l-0.7-0.7l78-0.2l78-0.1l-1,1l0-36.4c0-3,0.1-6.1,0-9.1
		c0-2.9-0.9-5.7-2.3-8.2c-1.4-2.5-3.4-4.7-5.6-6.7c-2.3-1.9-4.7-3.6-7.3-5.1c-10.4-6-22.1-9.7-33-15.3c-2.7-1.4-5.4-2.9-7.9-4.7
		c-2.5-1.8-4.9-3.9-6.8-6.4c-1.9-2.5-3.3-5.4-3.7-8.6l-0.2-2.4c0-0.8-0.1-1.5-0.1-2.3l-0.1-4.5l0,0l0-0.1l0.3-6.2
		c0.1-1.1,0.1-2.2,0.3-3.2c0.3-1,0.4-2.1,0.9-3.1l0.6-1.5l0.8-1.4l0.4-0.7c0.1-0.2,0.3-0.4,0.5-0.6l1-1.3c0.7-0.8,1.4-1.6,2.2-2.3
		c0.8-0.7,1.6-1.4,2.4-2c3.4-2.6,7.1-4.6,10.9-6.4c3.8-1.8,7.7-3.5,11.6-5.1c7.7-3.2,15.6-6.3,22.7-10.8c3.5-2.2,6.9-4.9,9.4-8.2
		C210.2,181.6,211.7,177.4,211.7,173.2z M211.9,173.2c0,4.2-1.4,8.4-3.9,11.8c-2.5,3.4-5.9,6.1-9.4,8.4c-7.1,4.5-15,7.6-22.7,11
		c-3.9,1.7-7.7,3.3-11.5,5.2c-3.7,1.9-7.4,3.9-10.7,6.5c-0.8,0.6-1.6,1.4-2.4,2c-0.7,0.7-1.4,1.5-2.1,2.3l-0.9,1.2
		c-0.1,0.2-0.3,0.4-0.4,0.6l-0.4,0.7l-0.7,1.3l-0.6,1.4c-0.4,0.9-0.5,2-0.8,2.9c-0.2,1-0.2,2-0.2,3.1L145,238v-0.1l0.2,4.6
		c0,0.8,0.1,1.5,0.1,2.3l0.2,2.2c0.5,2.9,1.7,5.6,3.6,7.9c1.8,2.3,4.1,4.2,6.5,6c2.5,1.7,5.1,3.1,7.8,4.5c10.8,5.4,22.5,9,33.2,15.1
		c2.7,1.5,5.3,3.3,7.6,5.3c2.3,2.1,4.5,4.4,6,7.2c1.5,2.8,2.5,6,2.5,9.1c0.1,3.1,0,6.1,0.1,9.1l0,36.4c0,0.6-0.5,1-1,1h0l-78-0.1
		l-78-0.2h0c-0.4,0-0.7-0.3-0.7-0.7v0l0.1-36.4c0-3,0-6.1,0.1-9.1c0-3.1,1-6.2,2.5-8.9c1.5-2.7,3.6-5.1,5.9-7.1
		c2.4-2,4.9-3.7,7.6-5.2c10.7-6,22.3-9.7,33.2-15.1c2.7-1.4,5.3-2.9,7.8-4.6c2.5-1.7,4.8-3.7,6.6-6.1c1.8-2.3,3.2-5.1,3.6-8.1
		c0.3-2.9,0.3-6,0.4-9.1v0.1c-0.2-3-0.2-6.1-0.5-9.1c-0.5-2.9-1.7-5.7-3.6-8.1c-1.8-2.4-4.1-4.3-6.6-6.1c-2.5-1.7-5.1-3.2-7.8-4.6
		c-10.8-5.4-22.5-9-33.2-15c-2.6-1.5-5.2-3.2-7.6-5.2c-2.3-2-4.4-4.4-6-7.1c-1.5-2.7-2.5-5.8-2.5-9c-0.1-3.1-0.1-6.1-0.1-9.1
		l-0.1-36.4c0-0.5,0.4-0.9,0.9-0.9h0c13,0,26,0,39,0l39,0.1l78,0.5c0.1,0,0.2,0.1,0.2,0.2L211.9,173.2z"/>
	<g>
		<path d="M224.6,129.2l-22.4,0.3l-22.6,0.2l-22.7,0.1c-7.6,0-15.1,0.1-22.7,0.1c-15.2,0-30.4-0.2-45.6-0.3
			c-7.6-0.1-15.2-0.1-22.7-0.2l-11.4,0l-11.4,0c-0.2,0-0.3-0.2-0.3-0.3l-0.1-15l-0.1-15c0-0.3,0.2-0.5,0.5-0.5l0,0
			c15.1-0.2,30.2-0.3,45.4-0.4l45.4-0.1c15.1,0,30.2,0,45.4,0.1c15.1,0.1,30.2,0.2,45.4,0.4l0,0c0.3,0,0.5,0.2,0.5,0.5
			c-0.1,5.1-0.1,10.1-0.2,15.1L224.6,129.2z M224.4,129.1l-0.2-15c-0.1-5-0.2-9.9-0.2-14.8l0.5,0.5c-15.1,0.2-30.2,0.3-45.4,0.4
			c-15.1,0.1-30.2,0.1-45.4,0.1l-45.4-0.1c-15.1-0.1-30.2-0.2-45.4-0.4l0.5-0.5l-0.1,15l-0.1,15l-0.3-0.3l11.3,0l11.3,0
			c7.5,0,15.1-0.1,22.6-0.2c15.1-0.2,30.1-0.3,45.1-0.3c7.5,0,15.1,0.1,22.6,0.1l22.7,0.1l22.8,0.2L224.4,129.1z"/>
		<path d="M224.6,376.8l-22.4,0.3l-22.6,0.2l-22.7,0.1c-7.6,0-15.1,0.1-22.7,0.1c-15.2,0-30.4-0.2-45.6-0.3
			c-7.6-0.1-15.2-0.1-22.7-0.2l-11.4,0l-11.4,0c-0.2,0-0.3-0.2-0.3-0.3l-0.1-15l-0.1-15c0-0.3,0.2-0.5,0.5-0.5l0,0
			c15.1-0.2,30.2-0.3,45.4-0.4l45.4-0.1c15.1,0,30.2,0,45.4,0.1c15.1,0.1,30.2,0.2,45.4,0.4l0,0c0.3,0,0.5,0.2,0.5,0.5
			c-0.1,5.1-0.1,10.1-0.2,15.1L224.6,376.8z M224.4,376.7l-0.2-15c-0.1-5-0.2-9.9-0.2-14.8l0.5,0.5c-15.1,0.2-30.2,0.3-45.4,0.4
			c-15.1,0.1-30.2,0.1-45.4,0.1l-45.4-0.1c-15.1-0.1-30.2-0.2-45.4-0.4l0.5-0.5l-0.1,15l-0.1,15l-0.3-0.3l11.3,0l11.3,0
			c7.5,0,15.1-0.1,22.6-0.2c15.1-0.2,30.1-0.3,45.1-0.3c7.5,0,15.1,0.1,22.6,0.1l22.7,0.1l22.8,0.2L224.4,376.7z"/>
	</g>
	<circle class="st0" cx="37.6" cy="165.2" r="13.5"/>
	<circle class="st1" cx="65.3" cy="230.1" r="3.2"/>
	<circle class="st2" cx="91.6" cy="54.9" r="6.7"/>
	<circle class="st1" cx="144.2" cy="37.8" r="10.4"/>
	<circle class="st2" cx="187.3" cy="242.4" r="9.1"/>
	<circle class="st0" cx="241.2" cy="179.1" r="5.8"/>
	<circle class="st3" cx="8.3" cy="119.3" r="5.1"/>
	<circle class="st0" cx="101.1" cy="12.9" r="9.5"/>
	<circle class="st4" cx="182.5" cy="73.5" r="7.9"/>
	<circle class="st3" cx="78.4" cy="298.3" r="3.5"/>
</g>
</svg>
