<?xml version="1.0" encoding="utf-8"?>
<!-- Generator: Adobe Illustrator 25.4.1, SVG Export Plug-In . SVG Version: 6.00 Build 0)  -->
<svg version="1.1" id="Capa_1" xmlns="http://www.w3.org/2000/svg" xmlns:xlink="http://www.w3.org/1999/xlink" x="0px" y="0px"
	 viewBox="0 0 385.9 439.7" style="enable-background:new 0 0 385.9 439.7;" xml:space="preserve">
<style type="text/css">
	.st0{fill:#F089C0;}
	.st1{fill:#FAE058;}
	.st2{fill:#0049E5;}
	.st3{fill:#ECCEFF;}
	.st4{fill:#77F169;}
</style>
<g>
	<g>
		<path class="st0" d="M213.8,109c-44.3,0-149.9,50.7-159.7,139.2s40.4,141.2,40.4,141.2l75.6,37.5c0,0,97.2,14,130-25.9
			s90.2-97.7,51.7-195.7S213.8,109,213.8,109z"/>
		<path class="st1" d="M203,137.5c-47.5,6.3-106.2,47.4-118.1,83.8s14.6,120.3,14.6,120.3s56.3,70.9,108.9,59.7s110.1-35.7,125.1-97
			c15-61.3-66.1-157.5-84.3-161.1S203,137.5,203,137.5z"/>
		<path d="M371.9,272.3c0,21.4-4.2,42.8-12.3,62.6c-8.1,19.8-20.1,38.1-35.2,53.3c-15.1,15.3-33.3,27.5-53.1,35.8
			c-19.8,8.3-41.4,12.4-62.8,12.4c-21.5-0.1-42.9-4.4-62.7-12.7c-19.8-8.3-37.9-20.5-53-35.7c-15.1-15.2-27.3-33.3-35.5-53.1
			c-8.3-19.8-12.5-41.2-12.6-62.7c-0.1-21.5,4.1-42.9,12.3-62.8c8.1-19.9,20.3-38.1,35.5-53.4c15.2-15.2,33.4-27.5,53.3-35.7
			c19.9-8.3,41.4-12.5,62.9-12.5c21.5,0,43,4.2,62.9,12.6c19.8,8.3,38,20.5,53.1,35.8c15.1,15.3,27.1,33.5,35.2,53.3
			C367.7,229.5,371.9,250.9,371.9,272.3z M371.7,272.3c-0.1-21.4-4.3-42.7-12.6-62.4c-8.3-19.7-20.5-37.7-35.6-52.6
			c-15.2-14.9-33.2-27-52.9-35c-9.8-4-20.1-7.1-30.5-9.2c-10.4-2.1-21-3.1-31.7-3.1c-21.3,0-42.5,4.2-62.1,12.3
			c-19.6,8.1-37.7,20.1-52.7,35.1c-15,15-27.2,33-35.4,52.6C50,229.7,45.7,251,45.6,272.3c0,21.3,4.1,42.6,12.2,62.4
			c4.1,9.9,9.1,19.3,15,28.2c5.9,8.9,12.8,17.1,20.3,24.7c7.6,7.5,15.9,14.3,24.7,20.2c8.9,5.9,18.4,10.9,28.2,14.9
			c19.7,8.1,41,12.2,62.3,12.1c10.6,0,21.3-1.1,31.7-3.2c10.4-2.1,20.6-5.2,30.5-9.2c19.7-8.1,37.7-20.1,52.9-35.1
			c15.2-15,27.4-33,35.6-52.6C367.4,315,371.6,293.7,371.7,272.3z"/>
		<path d="M337.6,272.3c0.1,16.9-3.3,33.8-9.7,49.5c-6.4,15.7-15.9,30.1-27.8,42.2c-11.9,12.1-26.3,21.8-42,28.3
			c-15.7,6.6-32.7,9.8-49.7,9.8c-17-0.1-34-3.5-49.6-10.1c-15.6-6.6-29.9-16.3-41.9-28.3c-11.9-12-21.6-26.3-28.1-42
			c-6.5-15.6-10-32.6-10-49.5c-0.1-17,3.2-34,9.6-49.7c6.4-15.7,16-30.2,28-42.2c12-12.1,26.4-21.7,42.1-28.3
			c15.7-6.6,32.8-9.9,49.8-9.9c17,0,34.1,3.3,49.8,10c15.7,6.6,30.1,16.3,42,28.4c11.9,12.1,21.4,26.5,27.8,42.2
			C334.3,238.5,337.6,255.4,337.6,272.3z M337.4,272.3c-0.1-16.9-3.4-33.8-10-49.3c-6.6-15.5-16.2-29.7-28.2-41.5
			c-12-11.8-26.2-21.2-41.8-27.6c-15.5-6.3-32.3-9.7-49-9.7c-16.8,0-33.5,3.4-49,9.7c-15.5,6.4-29.7,15.9-41.6,27.7
			c-11.9,11.8-21.5,26-27.9,41.5c-6.5,15.5-9.9,32.3-10,49.1c-0.1,16.8,3.1,33.7,9.6,49.3c6.4,15.6,15.9,29.9,27.9,41.8
			c6,5.9,12.5,11.3,19.5,16c7,4.6,14.5,8.6,22.3,11.8c15.6,6.4,32.4,9.6,49.2,9.5c8.4,0,16.8-0.9,25-2.5c8.2-1.6,16.3-4.1,24.1-7.3
			c15.5-6.4,29.8-15.9,41.8-27.6c12-11.8,21.6-26,28.2-41.5C334,306,337.3,289.2,337.4,272.3z"/>
		<circle cx="208.4" cy="272.3" r="8"/>
		<circle cx="208.4" cy="155.2" r="5.4"/>
		<circle cx="149.9" cy="170.9" r="5.4"/>
		<circle cx="107" cy="213.7" r="5.4"/>
		<circle cx="91.3" cy="272.3" r="5.4"/>
		<circle cx="107" cy="330.8" r="5.4"/>
		<circle cx="149.9" cy="373.7" r="5.4"/>
		<circle cx="208.4" cy="389.4" r="5.4"/>
		<circle cx="267" cy="373.7" r="5.4"/>
		<circle cx="309.9" cy="330.8" r="5.4"/>
		<circle cx="325.6" cy="272.3" r="5.4"/>
		<circle cx="309.9" cy="213.7" r="5.4"/>
		<circle cx="267" cy="170.9" r="5.4"/>
		<path d="M207.9,267.9c-1-1.8-1.6-3.6-2.2-5.4c-0.5-1.8-0.9-3.6-1.2-5.4c-0.3-1.8-0.5-3.6-0.6-5.4c-0.1-1.8-0.1-3.6,0.3-5.4
			c0.6-3.6,2.3-7.2,2.6-10.9c0.3-3.6-0.2-7.2-1.1-10.9c-0.5-1.8-0.9-3.6-1.3-5.4c-0.4-1.8-0.5-3.6-0.7-5.4
			c-0.4-3.6-0.8-7.2-0.6-10.9c0.2-3.6,0.6-7.2,1.4-10.9c0.8-3.6,1.8-7.2,3.5-10.9c0.1-0.3,0.5-0.4,0.7-0.3c0.1,0.1,0.2,0.2,0.3,0.3
			c1.7,3.6,2.7,7.2,3.5,10.9c0.7,3.6,1.2,7.2,1.4,10.9c0.2,3.6-0.2,7.2-0.6,10.9c-0.2,1.8-0.4,3.6-0.7,5.4c-0.3,1.8-0.8,3.6-1.3,5.4
			c-1,3.6-1.5,7.2-1.1,10.9c0.3,3.6,1.9,7.2,2.6,10.9c0.3,1.8,0.4,3.6,0.3,5.4c-0.1,1.8-0.3,3.6-0.6,5.4c-0.3,1.8-0.7,3.6-1.2,5.4
			c-0.6,1.8-1.2,3.6-2.2,5.4c-0.2,0.3-0.5,0.4-0.8,0.2C208.1,268.1,208,268,207.9,267.9z"/>
		<path d="M208.2,271.9c0.6-1.5,1.4-2.7,2.2-3.8c0.8-1.1,1.8-2.1,2.7-3c1-0.9,2-1.7,3-2.4c1.1-0.7,2.2-1.3,3.5-1.6
			c2.5-0.7,5.6-0.6,7.9-1.6c2.4-1,4.3-2.7,6.1-4.8c0.9-1,1.7-2.1,2.7-3c0.9-0.9,2-1.7,3-2.5c2-1.6,4-3.2,6.3-4.3
			c2.3-1.1,4.8-2,7.3-2.6c2.6-0.6,5.3-1,8.4-0.8c0.3,0,0.6,0.3,0.6,0.6c0,0.1,0,0.2-0.1,0.2c-1.4,2.7-3.1,4.9-4.9,6.8
			c-1.8,1.9-3.8,3.6-6,5c-2.1,1.4-4.5,2.3-7,3.3c-1.2,0.5-2.4,1-3.7,1.3c-1.3,0.3-2.6,0.5-4,0.8c-2.7,0.4-5.2,1.3-7.2,2.8
			c-2.1,1.5-3.5,4.2-5.4,6c-0.9,0.9-2,1.6-3.2,2.1c-1.2,0.6-2.3,1-3.6,1.4c-1.2,0.4-2.5,0.7-3.9,0.8c-1.4,0.2-2.8,0.2-4.4,0
			c-0.3,0-0.6-0.4-0.5-0.7C208.1,272,208.2,271.9,208.2,271.9z"/>
	</g>
	<circle class="st2" cx="378" cy="399.3" r="6.1"/>
	<circle class="st0" cx="370.7" cy="174.1" r="9.7"/>
	<circle class="st3" cx="351.4" cy="125" r="4.4"/>
	<circle class="st4" cx="283.4" cy="71.3" r="11"/>
	<circle class="st2" cx="218.2" cy="91.9" r="4.4"/>
	<circle class="st4" cx="224.4" cy="13.8" r="10.6"/>
	<circle class="st3" cx="131" cy="87.1" r="4.8"/>
	<circle class="st2" cx="30" cy="141.6" r="12.2"/>
	<circle class="st2" cx="69" cy="169.8" r="4.3"/>
	<circle class="st0" cx="55.1" cy="84.6" r="9.5"/>
	<circle class="st4" cx="14.3" cy="266.8" r="12.6"/>
</g>
</svg>
