<svg width="128" height="195" viewBox="0 0 128 195" fill="none" xmlns="http://www.w3.org/2000/svg">
<path d="M21.3851 50.2921L18.5805 55.411L21.3851 65.8039L115.6 63.3737L110.874 46.0005L21.3851 50.2921Z" fill="#FAE058"/>
<path d="M18.5805 177.334V192.536L115.6 193.828L119.392 180.074L18.5805 177.334Z" fill="#FAE058"/>
<path d="M27.9812 88.5547C37.3819 91.4502 53.4307 103.187 76.491 96.6208C99.5513 90.0542 83.7103 95.7935 75.0887 106.445C66.3631 117.2 71.2972 123.766 71.2972 135.814C71.2972 147.862 101.006 159.185 101.006 159.185C101.006 159.185 106.147 167.251 106.615 174.335C107.082 181.419 30.3184 178.627 30.3184 178.627C30.3184 178.627 22.0603 165.907 31.2533 162.908C40.4463 159.909 61.8965 158.513 62.3639 141.915C62.8314 125.318 62.8314 112.443 56.3911 109.185C50.0028 105.98 27.9812 88.5547 27.9812 88.5547Z" fill="#FAE058"/>
<path d="M108.952 88.5549L108.9 65.3906L109.004 65.494L68.4926 65.7525L48.2369 65.8042C41.485 65.8559 34.7331 65.8042 27.9812 65.8042L28.4486 65.3389L28.3967 84.1599C28.3967 85.7111 28.3447 87.314 28.3967 88.8651C28.3967 90.3646 28.8122 91.8641 29.5912 93.2084C30.3184 94.5528 31.3571 95.6903 32.4997 96.7244C33.6943 97.7069 34.9928 98.5859 36.3431 99.3615C41.7966 102.464 47.8214 104.429 53.4826 107.272C54.8849 107.996 56.2872 108.772 57.5856 109.651C58.8841 110.582 60.0787 111.616 61.0655 112.857C62.0523 114.098 62.7275 115.597 62.9872 117.2C63.143 118.803 63.143 120.354 63.1949 121.905V121.957C63.091 123.508 63.091 125.059 62.9352 126.662C62.6755 128.265 62.0004 129.765 61.0135 131.006C60.0267 132.246 58.8321 133.332 57.5337 134.211C56.2353 135.09 54.833 135.866 53.4306 136.642C47.7694 139.485 41.7447 141.398 36.2912 144.553C34.9408 145.328 33.6424 146.207 32.4478 147.19C31.3052 148.224 30.2664 149.361 29.4874 150.706C28.7602 152.05 28.2928 153.549 28.2928 155.101C28.2409 156.652 28.2928 158.255 28.2928 159.806L28.3447 178.627L27.9812 178.265L68.4926 178.161L109.004 178.11L108.485 178.627V159.806C108.485 158.255 108.537 156.652 108.485 155.101C108.485 153.601 108.017 152.153 107.29 150.861C106.563 149.568 105.524 148.43 104.381 147.396C103.187 146.414 101.94 145.535 100.59 144.759C95.1885 141.657 89.1118 139.744 83.4506 136.848C82.0483 136.124 80.646 135.349 79.3475 134.418C78.0491 133.487 76.8026 132.402 75.8158 131.109C74.829 129.816 74.1018 128.317 73.8941 126.662L73.7902 125.421C73.7902 125.008 73.7383 124.646 73.7383 124.232L73.6863 121.905V121.854L73.8421 118.648C73.8941 118.079 73.8941 117.51 73.9979 116.993C74.1538 116.476 74.2057 115.907 74.4654 115.39L74.777 114.615L75.1925 113.891L75.4003 113.529C75.4522 113.425 75.5561 113.322 75.66 113.219L76.1793 112.546C76.5429 112.133 76.9065 111.719 77.322 111.357C77.7375 110.995 78.153 110.633 78.5685 110.323C80.3343 108.979 82.256 107.945 84.2297 107.014C86.2033 106.083 88.2289 105.204 90.2544 104.377C94.2536 102.722 98.3567 101.119 102.044 98.7927C103.862 97.6552 105.628 96.2591 106.926 94.5528C108.173 92.8982 108.952 90.7265 108.952 88.5549ZM109.056 88.5549C109.056 90.7265 108.329 92.8982 107.03 94.6562C105.732 96.4142 103.966 97.8103 102.148 98.9995C98.4606 101.326 94.3575 102.929 90.3583 104.687C88.3327 105.566 86.3591 106.393 84.3855 107.376C82.4638 108.358 80.5421 109.392 78.8282 110.737C78.4127 111.047 77.9972 111.461 77.5817 111.771C77.2181 112.133 76.8545 112.546 76.491 112.96L76.0235 113.581C75.9716 113.684 75.8677 113.787 75.8158 113.891L75.608 114.253L75.2445 114.925L74.9328 115.649C74.7251 116.114 74.6731 116.683 74.5173 117.148C74.4134 117.665 74.4135 118.182 74.4135 118.751L74.3096 122.06V122.009L74.4135 124.387C74.4135 124.801 74.4654 125.163 74.4654 125.576L74.5693 126.714C74.829 128.213 75.4522 129.609 76.439 130.799C77.3739 131.988 78.5685 132.97 79.815 133.901C81.1134 134.78 82.4638 135.504 83.8661 136.228C89.4754 139.02 95.5521 140.881 101.109 144.035C102.512 144.811 103.862 145.742 105.057 146.776C106.251 147.862 107.394 149.051 108.173 150.499C108.952 151.946 109.471 153.601 109.471 155.204C109.523 156.807 109.471 158.358 109.523 159.909V178.73C109.523 179.04 109.264 179.247 109.004 179.247L68.4926 179.196L27.9812 179.092C27.7734 179.092 27.6176 178.937 27.6176 178.73L27.6695 159.909C27.6695 158.358 27.6695 156.755 27.7215 155.204C27.7215 153.601 28.2409 151.998 29.0199 150.602C29.799 149.206 30.8897 147.965 32.0842 146.931C33.3308 145.897 34.6292 145.018 36.0315 144.242C41.5888 141.14 47.6136 139.227 53.2748 136.435C54.6771 135.711 56.0275 134.935 57.326 134.056C58.6244 133.177 59.819 132.143 60.7538 130.902C61.6887 129.713 62.4159 128.265 62.6236 126.714C62.7794 125.214 62.7794 123.612 62.8314 122.009V122.06C62.7275 120.509 62.7275 118.906 62.5717 117.355C62.312 115.856 61.6887 114.408 60.7019 113.167C59.767 111.926 58.5725 110.944 57.274 110.013C55.9756 109.134 54.6252 108.358 53.2229 107.634C47.6136 104.842 41.5369 102.981 35.9796 99.8785C34.6292 99.1029 33.2788 98.2239 32.0323 97.1898C30.8377 96.1557 29.7471 94.9147 28.916 93.5187C28.137 92.1226 27.6176 90.5197 27.6176 88.8651C27.5657 87.2622 27.5657 85.7111 27.5657 84.1599L27.5137 65.3389C27.5137 65.0804 27.7215 64.8735 27.9812 64.8735C34.7331 64.8735 41.485 64.8735 48.2369 64.8735L68.4926 64.9252L109.004 65.1838C109.056 65.1838 109.108 65.2355 109.108 65.2872L109.056 88.5549Z" fill="black"/>
<path d="M115.652 65.8037L104.018 65.9589L92.28 66.0623L80.4902 66.114C76.5429 66.114 72.6476 66.1657 68.7003 66.1657C60.8058 66.1657 52.9113 66.0623 45.0168 66.0106C41.0695 65.9589 37.1222 65.9588 33.2269 65.9071H27.306H21.3851C21.2812 65.9071 21.2293 65.8037 21.2293 65.752L21.1774 57.9961L21.1254 50.2402C21.1254 50.0851 21.2293 49.9817 21.3851 49.9817C29.2277 49.8783 37.0703 49.8266 44.9648 49.7748L68.5445 49.7231C76.3871 49.7231 84.2297 49.7231 92.1242 49.7748C99.9668 49.8266 107.809 49.8783 115.704 49.9817C115.86 49.9817 115.964 50.0851 115.964 50.2402C115.912 52.8772 115.912 55.4625 115.86 58.0478L115.652 65.8037ZM115.548 65.752L115.444 57.9961C115.392 55.4108 115.34 52.8772 115.34 50.3436L115.6 50.6022C107.757 50.7056 99.9149 50.7573 92.0204 50.809C84.1778 50.8607 76.3352 50.8607 68.4406 50.8607L44.8609 50.809C37.0184 50.7573 29.1758 50.7056 21.2812 50.6022L21.5409 50.3436L21.489 58.0995L21.4371 65.8554L21.2812 65.7003H27.1502H33.0192C36.9145 65.7003 40.8617 65.6486 44.7571 65.5969C52.5997 65.4935 60.3903 65.4418 68.181 65.4418C72.0763 65.4418 76.0236 65.4935 79.9189 65.4935L91.7087 65.5452L103.551 65.6486L115.548 65.752Z" fill="black"/>
<path d="M115.652 193.828L104.018 193.983L92.28 194.086L80.4902 194.138C76.5429 194.138 72.6476 194.19 68.7003 194.19C60.8058 194.19 52.9113 194.086 45.0168 194.034C41.0695 193.983 37.1222 193.983 33.2269 193.931H27.306H21.3851C21.2812 193.931 21.2293 193.828 21.2293 193.776L21.1774 186.02L21.1254 178.264C21.1254 178.109 21.2293 178.006 21.3851 178.006C29.2277 177.902 37.0703 177.85 44.9648 177.799L68.5445 177.747C76.3871 177.747 84.2297 177.747 92.1242 177.799C99.9668 177.85 107.809 177.902 115.704 178.006C115.86 178.006 115.964 178.109 115.964 178.264C115.912 180.901 115.912 183.486 115.86 186.072L115.652 193.828ZM115.548 193.776L115.444 186.02C115.392 183.435 115.34 180.901 115.34 178.368L115.6 178.626C107.757 178.729 99.9149 178.781 92.0204 178.833C84.1778 178.885 76.3352 178.885 68.4406 178.885L44.8609 178.833C37.0184 178.781 29.1758 178.729 21.2812 178.626L21.5409 178.368L21.489 186.123L21.4371 193.879L21.2812 193.724H27.1502H33.0192C36.9145 193.724 40.8617 193.673 44.7571 193.621C52.5997 193.517 60.3903 193.466 68.181 193.466C72.0763 193.466 76.0236 193.517 79.9189 193.517L91.7087 193.569L103.551 193.673L115.548 193.776Z" fill="black"/>
<path d="M18.5286 91.3986C22.4009 91.3986 25.5401 88.2734 25.5401 84.4183C25.5401 80.5632 22.4009 77.438 18.5286 77.438C14.6562 77.438 11.517 80.5632 11.517 84.4183C11.517 88.2734 14.6562 91.3986 18.5286 91.3986Z" fill="#FAE058"/>
<path d="M32.9152 119.63C33.8331 119.63 34.5772 118.889 34.5772 117.975C34.5772 117.062 33.8331 116.321 32.9152 116.321C31.9973 116.321 31.2532 117.062 31.2532 117.975C31.2532 118.889 31.9973 119.63 32.9152 119.63Z" fill="#ECCEFF"/>
<path d="M46.5749 30.851C48.4968 30.851 50.0547 29.3 50.0547 27.3867C50.0547 25.4734 48.4968 23.9224 46.5749 23.9224C44.6531 23.9224 43.0951 25.4734 43.0951 27.3867C43.0951 29.3 44.6531 30.851 46.5749 30.851Z" fill="#77F169"/>
<path d="M73.8941 23.9223C76.8773 23.9223 79.2956 21.5148 79.2956 18.5449C79.2956 15.575 76.8773 13.1675 73.8941 13.1675C70.9109 13.1675 68.4926 15.575 68.4926 18.5449C68.4926 21.5148 70.9109 23.9223 73.8941 23.9223Z" fill="#ECCEFF"/>
<path d="M96.2793 129.04C98.8895 129.04 101.006 126.934 101.006 124.335C101.006 121.736 98.8895 119.63 96.2793 119.63C93.669 119.63 91.5529 121.736 91.5529 124.335C91.5529 126.934 93.669 129.04 96.2793 129.04Z" fill="#77F169"/>
<path d="M124.274 94.6043C125.937 94.6043 127.286 93.2617 127.286 91.6054C127.286 89.9491 125.937 88.6064 124.274 88.6064C122.61 88.6064 121.261 89.9491 121.261 91.6054C121.261 93.2617 122.61 94.6043 124.274 94.6043Z" fill="#FAE058"/>
<path d="M3.31081 63.3224C4.77371 63.3224 5.95963 62.1417 5.95963 60.6854C5.95963 59.229 4.77371 58.0483 3.31081 58.0483C1.84791 58.0483 0.661987 59.229 0.661987 60.6854C0.661987 62.1417 1.84791 63.3224 3.31081 63.3224Z" fill="#0049E5"/>
<path d="M51.509 10.582C54.234 10.582 56.443 8.38275 56.443 5.66989C56.443 2.95702 54.234 0.757812 51.509 0.757812C48.784 0.757812 46.5749 2.95702 46.5749 5.66989C46.5749 8.38275 48.784 10.582 51.509 10.582Z" fill="#FAE058"/>
<path d="M93.7862 41.0885C96.0523 41.0885 97.8893 39.2597 97.8893 37.0037C97.8893 34.7478 96.0523 32.9189 93.7862 32.9189C91.5202 32.9189 89.6832 34.7478 89.6832 37.0037C89.6832 39.2597 91.5202 41.0885 93.7862 41.0885Z" fill="#F089C0"/>
<path d="M39.7191 155.049C40.7231 155.049 41.5369 154.238 41.5369 153.239C41.5369 152.239 40.7231 151.429 39.7191 151.429C38.7152 151.429 37.9013 152.239 37.9013 153.239C37.9013 154.238 38.7152 155.049 39.7191 155.049Z" fill="#0049E5"/>
</svg>
