<?xml version="1.0" encoding="utf-8"?>
<!-- Generator: Adobe Illustrator 25.4.1, SVG Export Plug-In . SVG Version: 6.00 Build 0)  -->
<svg version="1.1" id="Capa_1" xmlns="http://www.w3.org/2000/svg" xmlns:xlink="http://www.w3.org/1999/xlink" x="0px" y="0px"
	 viewBox="0 0 242.3 357.9" style="enable-background:new 0 0 242.3 357.9;" xml:space="preserve">
<style type="text/css">
	.st0{fill:#0049E5;}
	.st1{fill:#ECCEFF;}
	.st2{fill:#FAE058;}
	.st3{fill:#77F169;}
</style>
<g>
	<path class="st0" d="M202.2,350H72.8c-5,0-9-4-9-9V84.2c0-5,4-9,9-9h129.4c5,0,9,4,9,9v256.7C211.2,345.9,207.2,350,202.2,350z"/>
	<path class="st1" d="M114.5,107.3c-11.7,0-19.7,0-19.7,0l-4.9-11l-19,1.1c0,0-9.2,230.8,0,234.1s32.6,2.1,32.6,2.1l93.8-8.8V92
		L181,90.7c0,0-10.4,16.6-14.7,17.9S114.5,107.3,114.5,107.3z"/>
	<path d="M198.6,354.5l-51.8,0.2L95,355c-8.6,0.1-17.3,0.1-25.9,0.1c-2.3,0-4.7-0.9-6.4-2.5c-1.8-1.6-2.9-3.8-3.2-6.1
		c-0.1-1.2-0.1-2.2-0.1-3.3V340v-6.5c-0.1-17.3,0-34.5,0-51.8l0.3-51.8l0.1-25.9l0.1-25.9c0.1-17.3,0-34.5,0-51.8l-0.1-25.9v-6.5
		v-3.2c0-1.1-0.1-2.1,0.1-3.3c0.3-2.3,1.4-4.4,3.2-5.9c1.7-1.5,4-2.4,6.3-2.4L173,78.7h25.9c2.4,0,4.8,1,6.6,2.6s3,3.8,3.3,6.2
		c0.1,1.2,0.1,2.3,0.1,3.4v3.2v6.5v51.8c0,34.5-0.1,69.1-0.4,103.6l-0.4,51.8l-0.1,25.9v6.5v3.2c0,1.1,0,2.2-0.1,3.3
		c-0.3,2.2-1.4,4.2-3.1,5.6C203,353.7,200.8,354.5,198.6,354.5z M198.6,354.3c2.1,0,4.3-0.8,5.9-2.2c1.6-1.4,2.7-3.4,3-5.5
		c0.1-1,0.1-2.1,0.1-3.2v-3.2v-6.5l-0.1-25.9l-0.4-51.8c-0.3-34.5-0.4-69.1-0.4-103.6v-51.8v-6.5v-3.2c0-1.1,0-2.2-0.1-3.1
		c-0.2-1.9-1.2-3.7-2.6-5c-1.4-1.3-3.3-2-5.2-2.1l-25.9-0.1L69.2,80.1c-2,0-4.1,0.7-5.6,2.1c-1.5,1.3-2.6,3.2-2.9,5.2
		c-0.1,1-0.1,2.1-0.1,3.2v3.2v6.5l-0.1,25.9c0,17.3-0.1,34.5,0,51.8l0.1,25.9l0.1,25.9l0.3,51.8c0,17.3,0.1,34.5,0,51.8v6.5v3.2
		c0,1.1,0,2.2,0.1,3.1c0.2,2,1.2,3.8,2.7,5.1c1.5,1.3,3.4,2.1,5.4,2.1l25.9,0.2l51.8,0.4L198.6,354.3z"/>
	<path d="M92.7,93.8l3.1,4.9l1.5,2.4c0.5,0.8,1.1,1.6,1.8,2.1c0.7,0.6,1.6,1,2.5,1.2s1.9,0.2,2.8,0.2h5.7c7.7,0,15.3,0,23-0.1
		l23-0.2h5.7h2.9c0.9,0,1.8-0.2,2.6-0.6s1.5-0.9,2.1-1.6c0.5-0.7,1-1.5,1.5-2.3l3-4.9l0.8-1.2c0.3-0.4,0.6-0.9,1-1.2
		c0.7-0.8,1.6-1.4,2.6-1.7c1-0.4,2.1-0.5,3.1-0.5h2.9h5.7c1,0,2.1,0.1,3.1,0.5s1.9,1,2.7,1.7c0.7,0.8,1.3,1.7,1.7,2.7
		c0.2,0.5,0.3,1,0.4,1.6c0.1,0.5,0.1,1.1,0.1,1.5v5.7v11.5c0.1,15.3,0,30.7,0,46l-0.3,46l-0.1,23l-0.1,23c-0.1,15.3,0,30.7,0,46
		l0.1,23v2.9c0,1-0.3,2-0.7,3c-0.9,1.9-2.6,3.3-4.6,3.8c-1,0.3-2.1,0.3-3,0.3h-2.9h-5.7l-92,0.4H77.2c-2.2-0.1-4.3-1.1-5.7-2.9
		c-0.7-0.9-1.2-1.9-1.5-2.9c-0.1-0.5-0.2-1.1-0.2-1.6s0-1,0-1.5l-0.1-23v-46c0-30.7,0.1-61.3,0.4-92l0.4-46l0.1-11.5v-5.7
		c0-1,0-1.9,0.1-2.9s0.5-1.9,1-2.8c1-1.7,2.8-2.9,4.8-3.1c1-0.1,1.9-0.1,2.9-0.1h2.9h2.9c1,0,1.9-0.1,2.9,0.1
		C89.9,90.9,91.6,92.1,92.7,93.8z M92.5,93.9c-1-1.6-2.7-2.7-4.6-3c-0.9-0.1-1.9,0-2.9-0.1h-2.9h-2.9c-1,0-1.9,0-2.8,0.1
		c-1.9,0.3-3.6,1.4-4.5,3c-0.5,0.8-0.8,1.7-0.9,2.6s0,1.9,0,2.8v5.7l0.1,11.5l0.4,46c0.3,30.7,0.4,61.3,0.4,92v46l-0.1,23
		c0,0.5,0,1,0,1.4s0.1,0.8,0.2,1.2c0.2,0.8,0.6,1.5,1.1,2.2c1,1.3,2.6,2.1,4.2,2.2h11.5l92,0.4h5.7h2.9c1,0,1.9,0,2.7-0.2
		c1.7-0.4,3.2-1.7,4-3.3c0.4-0.8,0.6-1.7,0.6-2.6v-2.9l0.1-23c0-15.3,0.1-30.7,0-46l-0.1-23l-0.1-23l-0.3-46c0-15.3-0.1-30.7,0-46
		v-11.5v-5.7c0-0.5,0-0.9-0.1-1.3s-0.1-0.8-0.3-1.2c-0.3-0.8-0.7-1.5-1.3-2.1c-1.2-1.2-2.8-1.9-4.6-1.8h-5.7h-2.9
		c-0.9,0-1.8,0.1-2.6,0.4s-1.6,0.8-2.2,1.4c-0.3,0.3-0.6,0.6-0.8,1l-0.8,1.2l-3.1,4.8c-0.5,0.8-1,1.6-1.7,2.4s-1.5,1.4-2.5,1.9
		c-0.9,0.4-2,0.7-3,0.7h-2.9h-5.7l-23-0.2c-7.7-0.1-15.3-0.1-23-0.1h-5.7c-0.9,0-1.9,0.1-2.9-0.2c-1-0.2-1.9-0.6-2.6-1.2
		c-0.8-0.6-1.4-1.4-1.9-2.2l-1.5-2.4L92.5,93.9z"/>
	<g>
		<path d="M135.5,92c0,1.6,0.9,3.1,2.1,3.9c1.2,0.8,2.5,1.3,3.9,1.4s3-0.1,4.1-1.2c1.1-1,1.7-2.6,1.5-4.1s-0.9-2.7-1.9-3.7
			c-1-0.9-2.3-1.4-3.7-1.4c-1.3,0-2.6,0.4-3.9,1.2C136.5,89,135.5,90.4,135.5,92z M135.3,92c0-1.6,0.4-3.3,1.4-4.8s2.9-2.4,4.8-2.4
			c1.9,0,3.8,0.8,5,2.2c1.3,1.3,1.9,3.3,1.7,5c-0.2,1.8-1,3.3-2.1,4.6c-1.1,1.2-2.7,2.3-4.6,2.4c-0.9,0.1-1.8-0.1-2.7-0.5
			c-0.8-0.4-1.6-1-2.1-1.7C135.7,95.4,135.4,93.6,135.3,92z"/>
		<path d="M120.3,92c0,1.1,0.7,2.1,1.6,2.6s1.7,0.7,2.6,0.9c0.9,0.1,2,0.1,2.8-0.7c0.8-0.7,1.1-1.8,0.9-2.8c-0.2-1-0.7-1.8-1.4-2.4
			c-0.7-0.6-1.5-0.8-2.4-0.9c-0.8,0-1.7,0.2-2.6,0.7C121,89.9,120.3,90.9,120.3,92z M120.1,92c0-1.1,0.2-2.4,0.9-3.5
			c0.4-0.5,0.9-1,1.5-1.4c0.6-0.3,1.3-0.5,2-0.5c1.4,0,2.8,0.6,3.7,1.7c0.9,1,1.3,2.4,1.1,3.7c-0.2,1.3-0.8,2.4-1.6,3.3
			c-0.8,0.9-1.9,1.7-3.3,1.9c-1.3,0.2-2.8-0.5-3.5-1.6C120.3,94.4,120.1,93.2,120.1,92z"/>
	</g>
	<circle class="st1" cx="229.4" cy="163.5" r="10.8"/>
	<circle class="st0" cx="146.7" cy="48.5" r="5.2"/>
	<circle class="st2" cx="220.3" cy="67.8" r="9.1"/>
	<circle class="st1" cx="89.9" cy="17.1" r="3.1"/>
	<circle class="st3" cx="12.3" cy="153.4" r="10.1"/>
	<circle class="st1" cx="38.4" cy="217.8" r="3.3"/>
	<circle class="st1" cx="40" cy="89.4" r="9.8"/>
	<circle class="st2" cx="218.6" cy="271" r="4.7"/>
	<circle class="st1" cx="160.7" cy="11.5" r="8.7"/>
	<circle class="st2" cx="82.1" cy="51.2" r="7.9"/>
</g>
<g>
	<path d="M178.1,97.2c-0.2,1.7-0.1,3.5,0,5.2c0,0.4,0.1,0.9,0.2,1.2c-0.1,0.1,0.4,0.2,0.8,0.2c0.8,0.1,1.7,0.1,2.6,0.1
		c3.5,0,7,0.1,10.5-0.2l-0.2,0.2c0-1-0.1-2-0.1-3l0-0.3l0.3,0l1.4-0.1l-0.4,0.4l-0.1-2.8l0.5,0.5l-1.9,0l-0.4,0l0-0.5
		c-0.1-0.8-0.2-1.7-0.3-2.5l0.5,0.5c-2.3-0.2-4.7-0.3-7-0.4c-1.2,0-2.4-0.1-3.5,0.1c-0.6,0.1-1.2,0.2-1.7,0.4
		C178.7,96.3,178.2,96.7,178.1,97.2z M178,97.2c0-0.7,0.7-1,1.2-1.3c0.6-0.2,1.1-0.4,1.7-0.5c1.2-0.3,2.4-0.4,3.6-0.5
		c2.4-0.2,4.8-0.1,7.2,0.1l0.4,0l0,0.4c0.1,0.8,0.1,1.7,0.2,2.6l-0.5-0.4l1.9,0l0.5,0l0,0.4l-0.1,2.8l0,0.4l-0.4,0l-1.4-0.1l0.3-0.3
		c0,1-0.1,2-0.1,3l0,0.2l-0.2,0c-1.8,0.1-3.5,0.2-5.3,0.4c-1.8,0.2-3.5,0.4-5.3,0.4c-0.9,0-1.8,0-2.7-0.2c-0.2,0-0.5-0.1-0.7-0.2
		c-0.1,0-0.3-0.1-0.4-0.2c-0.1-0.1-0.2-0.1-0.2-0.3c0-0.1,0-0.1-0.1-0.2c-0.1-0.5-0.1-0.9-0.1-1.4C177.7,100.7,177.9,99,178,97.2z"
		/>
</g>
<path d="M186,95.3v9.1c0,0-6.6,0.4-8-0.4l0-6.3c0,0-0.5-1.6,2.4-1.9S186,95.3,186,95.3z"/>
<path d="M74.3,102.4c0,0-0.8,4.3,0,4.4c0.8,0.2,3,0,3,0l0.2-4.8L74.3,102.4z"/>
<polygon points="78.3,106.6 78.6,100.2 81.7,100.2 81.7,106.9 "/>
<polygon points="83,106.9 83.5,97.6 87.2,97.2 87.7,106.6 "/>
<g>
	<path class="st0" d="M110.7,167.8H84.5c-1.7,0-3.1-1.4-3.1-3.1v-26.3c0-1.7,1.4-3.1,3.1-3.1h26.3c1.7,0,3.1,1.4,3.1,3.1v26.3
		C113.8,166.4,112.4,167.8,110.7,167.8z"/>
	<path class="st2" d="M148.3,167.8h-26.3c-1.7,0-3.1-1.4-3.1-3.1v-26.3c0-1.7,1.4-3.1,3.1-3.1h26.3c1.7,0,3.1,1.4,3.1,3.1v26.3
		C151.4,166.4,150.1,167.8,148.3,167.8z"/>
	<path class="st3" d="M186,167.8h-26.3c-1.7,0-3.1-1.4-3.1-3.1v-26.3c0-1.7,1.4-3.1,3.1-3.1H186c1.7,0,3.1,1.4,3.1,3.1v26.3
		C189.1,166.4,187.7,167.8,186,167.8z"/>
</g>
<g>
	<g>
		<path d="M108.4,164.5c-5.2,0-10.4,0.3-15.6,0.5c-2.6,0.1-5.2,0.2-7.8,0.3l-1.9,0l-1,0c-0.4,0-0.8-0.1-1.2-0.2
			c-1.6-0.5-2.7-2.1-2.7-3.8c0.1-5.2,0.4-10.4,0.5-15.6c0-2.6,0-5.2,0-7.8l0-1.9l0-1c0-0.4,0-0.7,0.1-1.1c0.4-1.4,1.8-2.5,3.4-2.6
			c5.2-0.2,10.4-0.3,15.6-0.4l7.8-0.1l1.9,0l1,0c0.4,0,0.9,0.1,1.3,0.2c1.7,0.5,2.9,2.2,2.9,4c0,5.2-0.1,10.4-0.4,15.6l-0.4,7.8
			c0,0.6-0.1,1.3-0.1,1.9l0,1c0,0.3-0.1,0.7-0.2,1C111,163.6,109.8,164.5,108.4,164.5z M108.4,164.3c1.3,0,2.5-0.9,2.8-2.1
			c0.2-0.6,0.1-1.2,0.1-1.9c0-0.6,0-1.3-0.1-1.9l-0.4-7.8c-0.3-5.2-0.4-10.4-0.4-15.6c0-0.9-0.6-1.7-1.4-1.9
			c-0.2-0.1-0.4-0.1-0.6-0.1l-1,0l-1.9,0l-7.8-0.1c-5.2-0.1-10.4-0.2-15.6-0.4c-1.1-0.1-2.2,0.7-2.5,1.7c-0.1,0.3-0.1,0.5-0.2,0.8
			l0,1l0,1.9c0,2.6,0,5.2,0,7.8c0.1,5.2,0.4,10.4,0.5,15.6c0,1,0.7,1.8,1.6,2.1c0.2,0.1,0.4,0.1,0.7,0.1l1,0l1.9,0
			c2.6,0,5.2,0.1,7.8,0.3C98,164,103.2,164.3,108.4,164.3z"/>
	</g>
	<g>
		<path d="M146,164.5c-5.2,0-10.4,0.3-15.6,0.5c-2.6,0.1-5.2,0.2-7.8,0.3l-1.9,0l-1,0c-0.4,0-0.8-0.1-1.2-0.2
			c-1.6-0.5-2.7-2.1-2.7-3.8c0.1-5.2,0.4-10.4,0.5-15.6c0-2.6,0-5.2,0-7.8l0-1.9l0-1c0-0.4,0-0.7,0.1-1.1c0.4-1.4,1.8-2.5,3.4-2.6
			c5.2-0.2,10.4-0.3,15.6-0.4l7.8-0.1l1.9,0l1,0c0.4,0,0.9,0.1,1.3,0.2c1.7,0.5,2.9,2.2,2.9,4c0,5.2-0.1,10.4-0.4,15.6l-0.4,7.8
			c0,0.6-0.1,1.3-0.1,1.9l0,1c0,0.3-0.1,0.7-0.2,1C148.7,163.6,147.4,164.5,146,164.5z M146,164.3c1.3,0,2.5-0.9,2.8-2.1
			c0.2-0.6,0.1-1.2,0.1-1.9c0-0.6,0-1.3-0.1-1.9l-0.4-7.8c-0.3-5.2-0.4-10.4-0.4-15.6c0-0.9-0.6-1.7-1.4-1.9
			c-0.2-0.1-0.4-0.1-0.6-0.1l-1,0l-1.9,0l-7.8-0.1c-5.2-0.1-10.4-0.2-15.6-0.4c-1.1-0.1-2.2,0.7-2.5,1.7c-0.1,0.3-0.1,0.5-0.2,0.8
			l0,1l0,1.9c0,2.6,0,5.2,0,7.8c0.1,5.2,0.4,10.4,0.5,15.6c0,1,0.7,1.8,1.6,2.1c0.2,0.1,0.4,0.1,0.7,0.1l1,0l1.9,0
			c2.6,0,5.2,0.1,7.8,0.3C135.6,164,140.8,164.3,146,164.3z"/>
	</g>
	<g>
		<path d="M183.6,164.5c-5.2,0-10.4,0.3-15.6,0.5c-2.6,0.1-5.2,0.2-7.8,0.3l-1.9,0l-1,0c-0.4,0-0.8-0.1-1.2-0.2
			c-1.6-0.5-2.7-2.1-2.7-3.8c0.1-5.2,0.4-10.4,0.5-15.6c0-2.6,0-5.2,0-7.8l0-1.9l0-1c0-0.4,0-0.7,0.1-1.1c0.4-1.4,1.8-2.5,3.4-2.6
			c5.2-0.2,10.4-0.3,15.6-0.4l7.8-0.1l1.9,0l1,0c0.4,0,0.9,0.1,1.3,0.2c1.7,0.5,2.9,2.2,2.9,4c0,5.2-0.1,10.4-0.4,15.6l-0.4,7.8
			c0,0.6-0.1,1.3-0.1,1.9l0,1c0,0.3-0.1,0.7-0.2,1C186.3,163.6,185,164.5,183.6,164.5z M183.6,164.3c1.3,0,2.5-0.9,2.8-2.1
			c0.2-0.6,0.1-1.2,0.1-1.9c0-0.6,0-1.3-0.1-1.9l-0.4-7.8c-0.3-5.2-0.4-10.4-0.4-15.6c0-0.9-0.6-1.7-1.4-1.9
			c-0.2-0.1-0.4-0.1-0.6-0.1l-1,0l-1.9,0l-7.8-0.1c-5.2-0.1-10.4-0.2-15.6-0.4c-1.1-0.1-2.2,0.7-2.5,1.7c-0.1,0.3-0.1,0.5-0.2,0.8
			l0,1l0,1.9c0,2.6,0,5.2,0,7.8c0.1,5.2,0.4,10.4,0.5,15.6c0,1,0.7,1.8,1.6,2.1c0.2,0.1,0.4,0.1,0.7,0.1l1,0l1.9,0
			c2.6,0,5.2,0.1,7.8,0.3C173.2,164,178.4,164.3,183.6,164.3z"/>
	</g>
</g>
<g>
	<path class="st3" d="M110.7,211.6H84.5c-1.7,0-3.1-1.4-3.1-3.1v-26.3c0-1.7,1.4-3.1,3.1-3.1h26.3c1.7,0,3.1,1.4,3.1,3.1v26.3
		C113.8,210.2,112.4,211.6,110.7,211.6z"/>
	<path class="st0" d="M148.3,211.6h-26.3c-1.7,0-3.1-1.4-3.1-3.1v-26.3c0-1.7,1.4-3.1,3.1-3.1h26.3c1.7,0,3.1,1.4,3.1,3.1v26.3
		C151.4,210.2,150.1,211.6,148.3,211.6z"/>
	<path class="st3" d="M186,211.6h-26.3c-1.7,0-3.1-1.4-3.1-3.1v-26.3c0-1.7,1.4-3.1,3.1-3.1H186c1.7,0,3.1,1.4,3.1,3.1v26.3
		C189.1,210.2,187.7,211.6,186,211.6z"/>
</g>
<g>
	<g>
		<path d="M108.4,208.3c-5.2,0-10.4,0.3-15.6,0.5c-2.6,0.1-5.2,0.2-7.8,0.3l-1.9,0l-1,0c-0.4,0-0.8-0.1-1.2-0.2
			c-1.6-0.5-2.7-2.1-2.7-3.8c0.1-5.2,0.4-10.4,0.5-15.6c0-2.6,0-5.2,0-7.8l0-1.9l0-1c0-0.4,0-0.7,0.1-1.1c0.4-1.4,1.8-2.5,3.4-2.6
			c5.2-0.2,10.4-0.3,15.6-0.4l7.8-0.1l1.9,0l1,0c0.4,0,0.9,0.1,1.3,0.2c1.7,0.5,2.9,2.2,2.9,4c0,5.2-0.1,10.4-0.4,15.6l-0.4,7.8
			c0,0.6-0.1,1.3-0.1,1.9l0,1c0,0.3-0.1,0.7-0.2,1C111,207.4,109.8,208.3,108.4,208.3z M108.4,208.1c1.3,0,2.5-0.9,2.8-2.1
			c0.2-0.6,0.1-1.2,0.1-1.9c0-0.6,0-1.3-0.1-1.9l-0.4-7.8c-0.3-5.2-0.4-10.4-0.4-15.6c0-0.9-0.6-1.7-1.4-1.9
			c-0.2-0.1-0.4-0.1-0.6-0.1l-1,0l-1.9,0l-7.8-0.1c-5.2-0.1-10.4-0.2-15.6-0.4c-1.1-0.1-2.2,0.7-2.5,1.7c-0.1,0.3-0.1,0.5-0.2,0.8
			l0,1l0,1.9c0,2.6,0,5.2,0,7.8c0.1,5.2,0.4,10.4,0.5,15.6c0,1,0.7,1.8,1.6,2.1c0.2,0.1,0.4,0.1,0.7,0.1l1,0l1.9,0
			c2.6,0,5.2,0.1,7.8,0.3C98,207.8,103.2,208.1,108.4,208.1z"/>
	</g>
	<g>
		<path d="M146,208.3c-5.2,0-10.4,0.3-15.6,0.5c-2.6,0.1-5.2,0.2-7.8,0.3l-1.9,0l-1,0c-0.4,0-0.8-0.1-1.2-0.2
			c-1.6-0.5-2.7-2.1-2.7-3.8c0.1-5.2,0.4-10.4,0.5-15.6c0-2.6,0-5.2,0-7.8l0-1.9l0-1c0-0.4,0-0.7,0.1-1.1c0.4-1.4,1.8-2.5,3.4-2.6
			c5.2-0.2,10.4-0.3,15.6-0.4l7.8-0.1l1.9,0l1,0c0.4,0,0.9,0.1,1.3,0.2c1.7,0.5,2.9,2.2,2.9,4c0,5.2-0.1,10.4-0.4,15.6l-0.4,7.8
			c0,0.6-0.1,1.3-0.1,1.9l0,1c0,0.3-0.1,0.7-0.2,1C148.7,207.4,147.4,208.3,146,208.3z M146,208.1c1.3,0,2.5-0.9,2.8-2.1
			c0.2-0.6,0.1-1.2,0.1-1.9c0-0.6,0-1.3-0.1-1.9l-0.4-7.8c-0.3-5.2-0.4-10.4-0.4-15.6c0-0.9-0.6-1.7-1.4-1.9
			c-0.2-0.1-0.4-0.1-0.6-0.1l-1,0l-1.9,0l-7.8-0.1c-5.2-0.1-10.4-0.2-15.6-0.4c-1.1-0.1-2.2,0.7-2.5,1.7c-0.1,0.3-0.1,0.5-0.2,0.8
			l0,1l0,1.9c0,2.6,0,5.2,0,7.8c0.1,5.2,0.4,10.4,0.5,15.6c0,1,0.7,1.8,1.6,2.1c0.2,0.1,0.4,0.1,0.7,0.1l1,0l1.9,0
			c2.6,0,5.2,0.1,7.8,0.3C135.6,207.8,140.8,208.1,146,208.1z"/>
	</g>
	<g>
		<path d="M183.6,208.3c-5.2,0-10.4,0.3-15.6,0.5c-2.6,0.1-5.2,0.2-7.8,0.3l-1.9,0l-1,0c-0.4,0-0.8-0.1-1.2-0.2
			c-1.6-0.5-2.7-2.1-2.7-3.8c0.1-5.2,0.4-10.4,0.5-15.6c0-2.6,0-5.2,0-7.8l0-1.9l0-1c0-0.4,0-0.7,0.1-1.1c0.4-1.4,1.8-2.5,3.4-2.6
			c5.2-0.2,10.4-0.3,15.6-0.4l7.8-0.1l1.9,0l1,0c0.4,0,0.9,0.1,1.3,0.2c1.7,0.5,2.9,2.2,2.9,4c0,5.2-0.1,10.4-0.4,15.6l-0.4,7.8
			c0,0.6-0.1,1.3-0.1,1.9l0,1c0,0.3-0.1,0.7-0.2,1C186.3,207.4,185,208.3,183.6,208.3z M183.6,208.1c1.3,0,2.5-0.9,2.8-2.1
			c0.2-0.6,0.1-1.2,0.1-1.9c0-0.6,0-1.3-0.1-1.9l-0.4-7.8c-0.3-5.2-0.4-10.4-0.4-15.6c0-0.9-0.6-1.7-1.4-1.9
			c-0.2-0.1-0.4-0.1-0.6-0.1l-1,0l-1.9,0l-7.8-0.1c-5.2-0.1-10.4-0.2-15.6-0.4c-1.1-0.1-2.2,0.7-2.5,1.7c-0.1,0.3-0.1,0.5-0.2,0.8
			l0,1l0,1.9c0,2.6,0,5.2,0,7.8c0.1,5.2,0.4,10.4,0.5,15.6c0,1,0.7,1.8,1.6,2.1c0.2,0.1,0.4,0.1,0.7,0.1l1,0l1.9,0
			c2.6,0,5.2,0.1,7.8,0.3C173.2,207.8,178.4,208.1,183.6,208.1z"/>
	</g>
</g>
<g>
	<path class="st0" d="M110.7,255.4H84.5c-1.7,0-3.1-1.4-3.1-3.1V226c0-1.7,1.4-3.1,3.1-3.1h26.3c1.7,0,3.1,1.4,3.1,3.1v26.3
		C113.8,254,112.4,255.4,110.7,255.4z"/>
	<path class="st2" d="M148.3,255.4h-26.3c-1.7,0-3.1-1.4-3.1-3.1V226c0-1.7,1.4-3.1,3.1-3.1h26.3c1.7,0,3.1,1.4,3.1,3.1v26.3
		C151.4,254,150.1,255.4,148.3,255.4z"/>
	<path class="st2" d="M186,255.4h-26.3c-1.7,0-3.1-1.4-3.1-3.1V226c0-1.7,1.4-3.1,3.1-3.1H186c1.7,0,3.1,1.4,3.1,3.1v26.3
		C189.1,254,187.7,255.4,186,255.4z"/>
</g>
<g>
	<g>
		<path d="M108.4,252.1c-5.2,0-10.4,0.3-15.6,0.5c-2.6,0.1-5.2,0.2-7.8,0.3l-1.9,0l-1,0c-0.4,0-0.8-0.1-1.2-0.2
			c-1.6-0.5-2.7-2.1-2.7-3.8c0.1-5.2,0.4-10.4,0.5-15.6c0-2.6,0-5.2,0-7.8l0-1.9l0-1c0-0.4,0-0.7,0.1-1.1c0.4-1.4,1.8-2.5,3.4-2.6
			c5.2-0.2,10.4-0.3,15.6-0.4l7.8-0.1l1.9,0l1,0c0.4,0,0.9,0.1,1.3,0.2c1.7,0.5,2.9,2.2,2.9,4c0,5.2-0.1,10.4-0.4,15.6l-0.4,7.8
			c0,0.6-0.1,1.3-0.1,1.9l0,1c0,0.3-0.1,0.7-0.2,1C111,251.2,109.8,252.1,108.4,252.1z M108.4,251.9c1.3,0,2.5-0.9,2.8-2.1
			c0.2-0.6,0.1-1.2,0.1-1.9c0-0.6,0-1.3-0.1-1.9l-0.4-7.8c-0.3-5.2-0.4-10.4-0.4-15.6c0-0.9-0.6-1.7-1.4-1.9
			c-0.2-0.1-0.4-0.1-0.6-0.1l-1,0l-1.9,0l-7.8-0.1c-5.2-0.1-10.4-0.2-15.6-0.4c-1.1-0.1-2.2,0.7-2.5,1.7c-0.1,0.3-0.1,0.5-0.2,0.8
			l0,1l0,1.9c0,2.6,0,5.2,0,7.8c0.1,5.2,0.4,10.4,0.5,15.6c0,1,0.7,1.8,1.6,2.1c0.2,0.1,0.4,0.1,0.7,0.1l1,0l1.9,0
			c2.6,0,5.2,0.1,7.8,0.3C98,251.6,103.2,251.9,108.4,251.9z"/>
	</g>
	<g>
		<path d="M146,252.1c-5.2,0-10.4,0.3-15.6,0.5c-2.6,0.1-5.2,0.2-7.8,0.3l-1.9,0l-1,0c-0.4,0-0.8-0.1-1.2-0.2
			c-1.6-0.5-2.7-2.1-2.7-3.8c0.1-5.2,0.4-10.4,0.5-15.6c0-2.6,0-5.2,0-7.8l0-1.9l0-1c0-0.4,0-0.7,0.1-1.1c0.4-1.4,1.8-2.5,3.4-2.6
			c5.2-0.2,10.4-0.3,15.6-0.4l7.8-0.1l1.9,0l1,0c0.4,0,0.9,0.1,1.3,0.2c1.7,0.5,2.9,2.2,2.9,4c0,5.2-0.1,10.4-0.4,15.6l-0.4,7.8
			c0,0.6-0.1,1.3-0.1,1.9l0,1c0,0.3-0.1,0.7-0.2,1C148.7,251.2,147.4,252.1,146,252.1z M146,251.9c1.3,0,2.5-0.9,2.8-2.1
			c0.2-0.6,0.1-1.2,0.1-1.9c0-0.6,0-1.3-0.1-1.9l-0.4-7.8c-0.3-5.2-0.4-10.4-0.4-15.6c0-0.9-0.6-1.7-1.4-1.9
			c-0.2-0.1-0.4-0.1-0.6-0.1l-1,0l-1.9,0l-7.8-0.1c-5.2-0.1-10.4-0.2-15.6-0.4c-1.1-0.1-2.2,0.7-2.5,1.7c-0.1,0.3-0.1,0.5-0.2,0.8
			l0,1l0,1.9c0,2.6,0,5.2,0,7.8c0.1,5.2,0.4,10.4,0.5,15.6c0,1,0.7,1.8,1.6,2.1c0.2,0.1,0.4,0.1,0.7,0.1l1,0l1.9,0
			c2.6,0,5.2,0.1,7.8,0.3C135.6,251.6,140.8,251.9,146,251.9z"/>
	</g>
	<g>
		<path d="M183.6,252.1c-5.2,0-10.4,0.3-15.6,0.5c-2.6,0.1-5.2,0.2-7.8,0.3l-1.9,0l-1,0c-0.4,0-0.8-0.1-1.2-0.2
			c-1.6-0.5-2.7-2.1-2.7-3.8c0.1-5.2,0.4-10.4,0.5-15.6c0-2.6,0-5.2,0-7.8l0-1.9l0-1c0-0.4,0-0.7,0.1-1.1c0.4-1.4,1.8-2.5,3.4-2.6
			c5.2-0.2,10.4-0.3,15.6-0.4l7.8-0.1l1.9,0l1,0c0.4,0,0.9,0.1,1.3,0.2c1.7,0.5,2.9,2.2,2.9,4c0,5.2-0.1,10.4-0.4,15.6L187,246
			c0,0.6-0.1,1.3-0.1,1.9l0,1c0,0.3-0.1,0.7-0.2,1C186.3,251.2,185,252.1,183.6,252.1z M183.6,251.9c1.3,0,2.5-0.9,2.8-2.1
			c0.2-0.6,0.1-1.2,0.1-1.9c0-0.6,0-1.3-0.1-1.9l-0.4-7.8c-0.3-5.2-0.4-10.4-0.4-15.6c0-0.9-0.6-1.7-1.4-1.9
			c-0.2-0.1-0.4-0.1-0.6-0.1l-1,0l-1.9,0l-7.8-0.1c-5.2-0.1-10.4-0.2-15.6-0.4c-1.1-0.1-2.2,0.7-2.5,1.7c-0.1,0.3-0.1,0.5-0.2,0.8
			l0,1l0,1.9c0,2.6,0,5.2,0,7.8c0.1,5.2,0.4,10.4,0.5,15.6c0,1,0.7,1.8,1.6,2.1c0.2,0.1,0.4,0.1,0.7,0.1l1,0l1.9,0
			c2.6,0,5.2,0.1,7.8,0.3C173.2,251.6,178.4,251.9,183.6,251.9z"/>
	</g>
</g>
<g>
	<path class="st3" d="M110.7,299.2H84.5c-1.7,0-3.1-1.4-3.1-3.1v-26.3c0-1.7,1.4-3.1,3.1-3.1h26.3c1.7,0,3.1,1.4,3.1,3.1v26.3
		C113.8,297.8,112.4,299.2,110.7,299.2z"/>
	<path class="st0" d="M148.3,299.2h-26.3c-1.7,0-3.1-1.4-3.1-3.1v-26.3c0-1.7,1.4-3.1,3.1-3.1h26.3c1.7,0,3.1,1.4,3.1,3.1v26.3
		C151.4,297.8,150.1,299.2,148.3,299.2z"/>
	<path class="st3" d="M186,299.2h-26.3c-1.7,0-3.1-1.4-3.1-3.1v-26.3c0-1.7,1.4-3.1,3.1-3.1H186c1.7,0,3.1,1.4,3.1,3.1v26.3
		C189.1,297.8,187.7,299.2,186,299.2z"/>
</g>
<g>
	<g>
		<path d="M108.4,295.9c-5.2,0-10.4,0.3-15.6,0.5c-2.6,0.1-5.2,0.2-7.8,0.3l-1.9,0l-1,0c-0.4,0-0.8-0.1-1.2-0.2
			c-1.6-0.5-2.7-2.1-2.7-3.8c0.1-5.2,0.4-10.4,0.5-15.6c0-2.6,0-5.2,0-7.8l0-1.9l0-1c0-0.4,0-0.7,0.1-1.1c0.4-1.4,1.8-2.5,3.4-2.6
			c5.2-0.2,10.4-0.3,15.6-0.4l7.8-0.1l1.9,0l1,0c0.4,0,0.9,0.1,1.3,0.2c1.7,0.5,2.9,2.2,2.9,4c0,5.2-0.1,10.4-0.4,15.6l-0.4,7.8
			c0,0.6-0.1,1.3-0.1,1.9l0,1c0,0.3-0.1,0.7-0.2,1C111,295,109.8,295.9,108.4,295.9z M108.4,295.7c1.3,0,2.5-0.9,2.8-2.1
			c0.2-0.6,0.1-1.2,0.1-1.9c0-0.6,0-1.3-0.1-1.9l-0.4-7.8c-0.3-5.2-0.4-10.4-0.4-15.6c0-0.9-0.6-1.7-1.4-1.9
			c-0.2-0.1-0.4-0.1-0.6-0.1l-1,0l-1.9,0l-7.8-0.1c-5.2-0.1-10.4-0.2-15.6-0.4c-1.1-0.1-2.2,0.7-2.5,1.7c-0.1,0.3-0.1,0.5-0.2,0.8
			l0,1l0,1.9c0,2.6,0,5.2,0,7.8c0.1,5.2,0.4,10.4,0.5,15.6c0,1,0.7,1.8,1.6,2.1c0.2,0.1,0.4,0.1,0.7,0.1l1,0l1.9,0
			c2.6,0,5.2,0.1,7.8,0.3C98,295.4,103.2,295.7,108.4,295.7z"/>
	</g>
	<g>
		<path d="M146,295.9c-5.2,0-10.4,0.3-15.6,0.5c-2.6,0.1-5.2,0.2-7.8,0.3l-1.9,0l-1,0c-0.4,0-0.8-0.1-1.2-0.2
			c-1.6-0.5-2.7-2.1-2.7-3.8c0.1-5.2,0.4-10.4,0.5-15.6c0-2.6,0-5.2,0-7.8l0-1.9l0-1c0-0.4,0-0.7,0.1-1.1c0.4-1.4,1.8-2.5,3.4-2.6
			c5.2-0.2,10.4-0.3,15.6-0.4l7.8-0.1l1.9,0l1,0c0.4,0,0.9,0.1,1.3,0.2c1.7,0.5,2.9,2.2,2.9,4c0,5.2-0.1,10.4-0.4,15.6l-0.4,7.8
			c0,0.6-0.1,1.3-0.1,1.9l0,1c0,0.3-0.1,0.7-0.2,1C148.7,295,147.4,295.9,146,295.9z M146,295.7c1.3,0,2.5-0.9,2.8-2.1
			c0.2-0.6,0.1-1.2,0.1-1.9c0-0.6,0-1.3-0.1-1.9l-0.4-7.8c-0.3-5.2-0.4-10.4-0.4-15.6c0-0.9-0.6-1.7-1.4-1.9
			c-0.2-0.1-0.4-0.1-0.6-0.1l-1,0l-1.9,0l-7.8-0.1c-5.2-0.1-10.4-0.2-15.6-0.4c-1.1-0.1-2.2,0.7-2.5,1.7c-0.1,0.3-0.1,0.5-0.2,0.8
			l0,1l0,1.9c0,2.6,0,5.2,0,7.8c0.1,5.2,0.4,10.4,0.5,15.6c0,1,0.7,1.8,1.6,2.1c0.2,0.1,0.4,0.1,0.7,0.1l1,0l1.9,0
			c2.6,0,5.2,0.1,7.8,0.3C135.6,295.4,140.8,295.7,146,295.7z"/>
	</g>
	<g>
		<path d="M183.6,295.9c-5.2,0-10.4,0.3-15.6,0.5c-2.6,0.1-5.2,0.2-7.8,0.3l-1.9,0l-1,0c-0.4,0-0.8-0.1-1.2-0.2
			c-1.6-0.5-2.7-2.1-2.7-3.8c0.1-5.2,0.4-10.4,0.5-15.6c0-2.6,0-5.2,0-7.8l0-1.9l0-1c0-0.4,0-0.7,0.1-1.1c0.4-1.4,1.8-2.5,3.4-2.6
			c5.2-0.2,10.4-0.3,15.6-0.4l7.8-0.1l1.9,0l1,0c0.4,0,0.9,0.1,1.3,0.2c1.7,0.5,2.9,2.2,2.9,4c0,5.2-0.1,10.4-0.4,15.6l-0.4,7.8
			c0,0.6-0.1,1.3-0.1,1.9l0,1c0,0.3-0.1,0.7-0.2,1C186.3,295,185,295.9,183.6,295.9z M183.6,295.7c1.3,0,2.5-0.9,2.8-2.1
			c0.2-0.6,0.1-1.2,0.1-1.9c0-0.6,0-1.3-0.1-1.9l-0.4-7.8c-0.3-5.2-0.4-10.4-0.4-15.6c0-0.9-0.6-1.7-1.4-1.9
			c-0.2-0.1-0.4-0.1-0.6-0.1l-1,0l-1.9,0l-7.8-0.1c-5.2-0.1-10.4-0.2-15.6-0.4c-1.1-0.1-2.2,0.7-2.5,1.7c-0.1,0.3-0.1,0.5-0.2,0.8
			l0,1l0,1.9c0,2.6,0,5.2,0,7.8c0.1,5.2,0.4,10.4,0.5,15.6c0,1,0.7,1.8,1.6,2.1c0.2,0.1,0.4,0.1,0.7,0.1l1,0l1.9,0
			c2.6,0,5.2,0.1,7.8,0.3C173.2,295.4,178.4,295.7,183.6,295.7z"/>
	</g>
</g>
</svg>
