<svg width="48" height="48" viewBox="0 0 48 48" fill="none" xmlns="http://www.w3.org/2000/svg">
<path d="M20.3495 31.4064C5.40625 10.7304 41.8745 6.83026 28.0113 31.6133" stroke="#2F1FE8" stroke-width="1.2" stroke-linecap="round" stroke-linejoin="round"/>
<path d="M26.6831 35.1667C24.8703 36.2333 23.4837 35.9553 21.8478 34.9198" stroke="#2F1FE8" stroke-width="1.2" stroke-linecap="round" stroke-linejoin="round"/>
<path d="M26.6835 38.6455C24.9499 39.3324 22.874 39.6333 21.4215 38.3075" stroke="#2F1FE8" stroke-width="1.2" stroke-linecap="round" stroke-linejoin="round"/>
<path opacity="0.503384" d="M23.9044 31.4968C24.5018 30.5537 25.3976 21.1803 23.3241 21.5335C21.1617 21.9022 21.8267 25.6052 23.9044 25.9001C27.4799 26.4079 27.5364 20.5285 25.3546 22.852C24.4055 23.8629 24.071 25.2342 23.2274 26.3121" stroke="#2F1FE8" stroke-width="1.2" stroke-linecap="round" stroke-linejoin="round"/>
<path opacity="0.503384" d="M25.7672 10.7451C25.978 10.0305 25.9071 9.30237 26.0347 8.58936" stroke="#2F1FE8" stroke-width="1.2" stroke-linecap="round" stroke-linejoin="round"/>
<path opacity="0.503384" d="M17.4395 12.5927C17.1149 12.1668 16.8727 11.6672 16.5862 11.2069" stroke="#2F1FE8" stroke-width="1.2" stroke-linecap="round" stroke-linejoin="round"/>
<path opacity="0.503384" d="M13.4573 20.7538C12.964 20.6157 12.4767 20.4186 12.0352 20.1378" stroke="#2F1FE8" stroke-width="1.2" stroke-linecap="round" stroke-linejoin="round"/>
<path opacity="0.503384" d="M32.3721 14.4405C32.8105 14.2072 33.2324 13.94 33.652 13.6707" stroke="#2F1FE8" stroke-width="1.2" stroke-linecap="round" stroke-linejoin="round"/>
<path opacity="0.503384" d="M33.7233 22.8372C34.357 22.9231 34.9597 22.7728 35.572 22.6462" stroke="#2F1FE8" stroke-width="1.2" stroke-linecap="round" stroke-linejoin="round"/>
</svg>
