<svg width="50" height="51" viewBox="0 0 50 51" fill="none" xmlns="http://www.w3.org/2000/svg">
<path d="M16.395 25.1363C15.6295 25.047 10.1442 21.6362 10.4775 21.3003C10.5412 21.2359 29.6414 18.5878 33.7237 17.2138C34.294 17.0222 38.915 15.0202 39.1428 15.135C39.2877 15.2081 37.3989 18.4982 37.3004 18.8549C34.6367 28.4967 32.9092 37.2583 32.8459 36.7506C32.7171 35.7098 25.8296 31.3195 23.5365 29.4675" stroke="black" stroke-linecap="round" stroke-linejoin="round"/>
<path d="M35.9996 17.542C33.7373 18.2936 31.7986 19.5671 29.7136 20.7149C27.8121 21.7621 20.5749 25.1178 19.3097 26.0762C19.0025 26.3085 19.2716 26.9023 19.3097 27.1702C19.8745 31.1608 20.6675 34.8673 20.7184 34.8284C21.9534 33.8936 21.197 29.8387 22.8859 28.7016C28.2329 25.1034 33.9999 22.4022 37.4083 16.6669" stroke="black" stroke-linecap="round" stroke-linejoin="round"/>
<path d="M20.8374 34.8712C22.386 33.7075 23.8609 32.4346 25.4878 31.6591" stroke="black" stroke-linecap="round" stroke-linejoin="round"/>
</svg>
